<?xml version="1.0" encoding="utf-8"?>
<!-- Generator: Adobe Illustrator 22.0.1, SVG Export Plug-In . SVG Version: 6.00 Build 0)  -->
<svg version="1.1" id="Layer_1" xmlns="http://www.w3.org/2000/svg" xmlns:xlink="http://www.w3.org/1999/xlink" x="0px" y="0px"
	 viewBox="0 0 982.9 712" style="enable-background:new 0 0 982.9 712;" xml:space="preserve">
<style type="text/css">
	.st0{fill:#D9DFE6;}
	.st1{fill:#1F8ECB;}
	.st2{fill:#3CACE1;}
	.st3{fill:#5CC5F1;}
	.st4{fill:none;stroke:#010101;stroke-width:4;stroke-linecap:round;stroke-miterlimit:10;}
	.st5{fill:none;stroke:#010101;stroke-width:4;stroke-linecap:round;stroke-linejoin:round;stroke-miterlimit:10;}
	.st6{fill:none;stroke:#010101;stroke-width:10;stroke-linecap:round;stroke-linejoin:round;stroke-miterlimit:10;}
	.st7{fill:none;stroke:#FFFFFF;stroke-width:4;stroke-linecap:round;stroke-miterlimit:10;}
	.st8{fill:#1F8ECB;stroke:#010101;stroke-width:4;stroke-linecap:round;stroke-linejoin:round;stroke-miterlimit:10;}
	.st9{fill:#FFFFFF;}
	.st10{fill:#FFFFFF;stroke:#010101;stroke-width:4;stroke-linecap:round;stroke-linejoin:round;stroke-miterlimit:10;}
	.st11{fill:none;stroke:#236499;stroke-width:4;stroke-linecap:round;stroke-miterlimit:10;}
	.st12{fill:#ECCE1E;stroke:#010101;stroke-width:4;stroke-linecap:round;stroke-linejoin:round;stroke-miterlimit:10;}
	.st13{fill:#EF6F8A;stroke:#010101;stroke-width:4;stroke-miterlimit:10;}
	.st14{fill:none;stroke:#010101;stroke-width:4;stroke-miterlimit:10;}
	.st15{fill:none;stroke:#FFFFFF;stroke-width:4;stroke-linecap:round;stroke-linejoin:round;stroke-miterlimit:10;}
	.st16{fill:#3CACE1;stroke:#010101;stroke-width:4;stroke-linecap:round;stroke-linejoin:round;stroke-miterlimit:10;}
	.st17{fill:#D8DEE4;}
	.st18{fill:none;stroke:#010101;stroke-width:10;stroke-linejoin:round;stroke-miterlimit:10;}
	.st19{fill:#010101;}
	.st20{fill:#1F8ECB;stroke:#010101;stroke-width:4;stroke-miterlimit:10;}
	.st21{fill:#231F20;}
	.st22{fill:url(#SVGID_1_);stroke:#010101;stroke-width:4;stroke-linecap:round;stroke-linejoin:round;stroke-miterlimit:10;}
	.st23{fill:url(#SVGID_2_);stroke:#010101;stroke-width:4;stroke-linecap:round;stroke-linejoin:round;stroke-miterlimit:10;}
	.st24{opacity:0.5;}
	.st25{fill:none;stroke:#A52B57;stroke-width:4;stroke-linecap:round;stroke-miterlimit:10;}
	.st26{opacity:0.5;fill:none;stroke:#A52B57;stroke-width:4;stroke-linecap:round;stroke-miterlimit:10;}
</style>
<g>
	<path class="st0" d="M909.3,656.6h-75.1c-13.4,0-24.3-10.9-24.3-24.3v0c0-13.4,10.9-24.3,24.3-24.3h7.9c13.4,0,24.3-10.9,24.3-24.3
		v-24.3H535.4h-32.7H102.5c-13.2,0-24.4,10.2-24.9,23.4c-0.5,13.8,10.6,25.2,24.3,25.2h70.3c13.2,0,24.4,10.2,24.9,23.4
		c0.5,13.8-10.6,25.2-24.3,25.2h-7.3c-13.2,0-24.4,10.2-24.9,23.4c-0.5,13.8,10.6,25.2,24.3,25.2h213.6c13.2,0,24.4-10.2,24.9-23.4
		c0.5-13.8-10.6-25.2-24.3-25.2h-10.2c-13.2,0-24.4-10.2-24.9-23.4c-0.5-13.8,10.5-25.2,24.3-25.2h134.5h32.7h103.4
		c13.3,0,24.1,10.8,24.1,24.1v0c0,13.5-11,24.5-24.5,24.5H534.1c-13.2,0-24.4,10.2-24.9,23.4c-0.5,13.8,10.6,25.2,24.3,25.2h375.8
		c13.4,0,24.3-10.9,24.3-24.3v0C933.6,667.5,922.7,656.6,909.3,656.6z"/>
	<path class="st0" d="M428.3,515.4h-60.4c-9.7,0-17.6-7.9-17.6-17.6V41.6c0-9.7,7.9-17.6,17.6-17.6h60.4c9.7,0,17.6,7.9,17.6,17.6
		v456.2C445.9,507.5,438,515.4,428.3,515.4z"/>
	<path class="st0" d="M510.5,559.4h-60.4c-9.7,0-17.6-7.9-17.6-17.6v-418c0-9.7,7.9-17.6,17.6-17.6h60.4c9.7,0,17.6,7.9,17.6,17.6
		v418C528.1,551.5,520.2,559.4,510.5,559.4z"/>
	<path class="st0" d="M683.2,563.1H573.4c-9.7,0-17.6-7.9-17.6-17.6V214.9c0-9.7,7.9-17.6,17.6-17.6h109.7c9.7,0,17.6,7.9,17.6,17.6
		v330.6C700.8,555.2,692.9,563.1,683.2,563.1z"/>
	<g>
		<rect x="486.4" y="174.8" class="st1" width="150.7" height="107"/>
		<rect x="507.3" y="206.7" class="st2" width="40.9" height="40.9"/>
		<rect x="536.4" y="205.2" class="st3" width="9.6" height="42.4"/>
		<rect x="507.3" y="206.7" class="st4" width="40.9" height="40.9"/>
		<rect x="575.5" y="206.7" class="st2" width="40.9" height="40.9"/>
		<rect x="606.7" y="205.2" class="st3" width="9.6" height="42.4"/>
		<rect x="575.5" y="206.7" class="st4" width="40.9" height="40.9"/>
		<rect x="486.4" y="282.2" class="st2" width="150.7" height="187.8"/>
		<rect x="512.7" y="290.1" class="st3" width="9.6" height="80.5"/>
		<rect x="588" y="290.1" class="st3" width="9.6" height="80.5"/>
		<line class="st5" x1="524.3" y1="378.1" x2="524.3" y2="469.9"/>
		<line class="st5" x1="561.9" y1="378.1" x2="561.9" y2="469.9"/>
		<line class="st5" x1="599.6" y1="378.1" x2="599.6" y2="469.9"/>
		<path class="st6" d="M568.2,548"/>
		<path class="st6" d="M568.2,510.2"/>
		<path class="st7" d="M493.5,367.8"/>
		<rect x="486.6" y="470" class="st8" width="150.7" height="105.8"/>
		<rect x="486.6" y="282.2" class="st2" width="150.5" height="95.9"/>
		
			<rect x="627.8" y="281.8" transform="matrix(-1 -1.224647e-16 1.224647e-16 -1 1263.8732 751.7376)" class="st9" width="8.4" height="188.1"/>
		
			<rect x="627.8" y="180.7" transform="matrix(-1 -1.224647e-16 1.224647e-16 -1 1263.8732 462.5471)" class="st9" width="8.4" height="101.1"/>
		
			<rect x="627.8" y="470.2" transform="matrix(-1 -1.224647e-16 1.224647e-16 -1 1263.8732 1045.7489)" class="st9" width="8.4" height="105.3"/>
		<rect x="512.7" y="290.1" class="st3" width="9.6" height="80.5"/>
		<rect x="588" y="290.1" class="st3" width="9.6" height="80.5"/>
		<rect x="512.7" y="385" class="st3" width="9.6" height="83.2"/>
		<rect x="588" y="385" class="st3" width="9.6" height="83.2"/>
		<rect x="551" y="290.1" class="st3" width="9.6" height="80.5"/>
		<rect x="551" y="385" class="st3" width="9.6" height="83.2"/>
		<line class="st5" x1="524.3" y1="282.2" x2="524.3" y2="374"/>
		<line class="st5" x1="561.9" y1="282.2" x2="561.9" y2="374"/>
		<rect x="486.6" y="180.7" class="st5" width="150.7" height="395"/>
		<line class="st5" x1="599.6" y1="282.2" x2="599.6" y2="374"/>
		<path class="st10" d="M641,288.1H481.3c-2.9,0-5.3-2.4-5.3-5.3v-1.3c0-2.9,2.4-5.3,5.3-5.3H641c2.9,0,5.3,2.4,5.3,5.3v1.3
			C646.3,285.7,644,288.1,641,288.1z"/>
		<line class="st11" x1="599.4" y1="260.1" x2="577.8" y2="260.1"/>
		<line class="st11" x1="617.3" y1="260.1" x2="609.5" y2="260.1"/>
		<rect x="525" y="516.2" class="st12" width="72.4" height="59.5"/>
		<line class="st5" x1="561.2" y1="516.2" x2="561.2" y2="575.7"/>
		<path class="st10" d="M641,384H481.3c-2.9,0-5.3-2.4-5.3-5.3v-1.3c0-2.9,2.4-5.3,5.3-5.3H641c2.9,0,5.3,2.4,5.3,5.3v1.3
			C646.3,381.6,644,384,641,384z"/>
		<path class="st10" d="M637.8,180.7H484.6c-4.7,0-8.6-3.8-8.6-8.6v-2.1c0-4.7,3.8-8.6,8.6-8.6l153.2,0c4.7,0,8.6,3.8,8.6,8.6v2.1
			C646.3,176.9,642.5,180.7,637.8,180.7z"/>
		<path class="st5" d="M637.8,180.7H484.6c-4.7,0-8.6-3.8-8.6-8.6v-2.1c0-4.7,3.8-8.6,8.6-8.6l153.2,0c4.7,0,8.6,3.8,8.6,8.6v2.1
			C646.3,176.9,642.5,180.7,637.8,180.7z"/>
		<g>
			<path class="st13" d="M590.9,137.8h-17v-17c0-3.8-3.1-6.9-6.9-6.9h-10.1c-3.8,0-6.9,3.1-6.9,6.9v17h-17c-3.8,0-6.9,3.1-6.9,6.9
				v10.1c0,3.8,3.1,6.9,6.9,6.9h17v17c0,3.8,3.1,6.9,6.9,6.9H567c3.8,0,6.9-3.1,6.9-6.9v-17h17c3.8,0,6.9-3.1,6.9-6.9v-10.1
				C597.8,140.9,594.7,137.8,590.9,137.8z"/>
			<g>
				<line class="st7" x1="562.9" y1="125.9" x2="562.9" y2="139.4"/>
			</g>
		</g>
		<line class="st11" x1="601.5" y1="491" x2="579.9" y2="491"/>
		<line class="st11" x1="619.4" y1="491" x2="611.5" y2="491"/>
		<line class="st11" x1="519.9" y1="505.8" x2="498.3" y2="505.8"/>
		<rect x="486.6" y="470" class="st14" width="150.7" height="105.8"/>
		<line class="st11" x1="532.1" y1="505.8" x2="528.3" y2="505.8"/>
		<line class="st15" x1="588.8" y1="524.2" x2="588.8" y2="549.1"/>
	</g>
	<path class="st0" d="M849.4,573.6h-45c-9.7,0-17.6-7.9-17.6-17.6V112.9c0-9.7,7.9-17.6,17.6-17.6h45c9.7,0,17.6,7.9,17.6,17.6V556
		C867,565.7,859.1,573.6,849.4,573.6z"/>
	<path class="st0" d="M782.9,573.6h-44.1c-9.7,0-17.6-7.9-17.6-17.6V273.8c0-9.7,7.9-17.6,17.6-17.6h44.1c9.7,0,17.6,7.9,17.6,17.6
		V556C800.6,565.7,792.7,573.6,782.9,573.6z"/>
	<path class="st0" d="M320.6,515.4H181V16.5c0-9.9,12.5-14.2,18.6-6.4L311,153c6.3,8,9.6,17.9,9.6,28.1V515.4z"/>
	<g>
		<path class="st12" d="M44.3,583.1h-6.9c-15.9,0-28.8-13-28.8-28.8v-25.7c0-15.9,13-28.8,28.8-28.8h6.9c15.9,0,28.8,13,28.8,28.8
			v25.7C73.2,570.1,60.2,583.1,44.3,583.1z"/>
		<line class="st5" x1="40.9" y1="575" x2="53.2" y2="562.7"/>
		<line class="st5" x1="40.9" y1="561.6" x2="28.6" y2="549.3"/>
		<path class="st7" d="M45.9,514.1c7.1,0,12.9,5.8,12.9,12.9v11.3"/>
		<line class="st7" x1="58.8" y1="545.3" x2="58.8" y2="545.3"/>
		<g>
			<line class="st5" x1="40.9" y1="541.4" x2="40.9" y2="637.4"/>
		</g>
	</g>
	<line class="st4" x1="100" y1="575.7" x2="890.1" y2="575.7"/>
	<g>
		<path class="st16" d="M946.6,583.1h-6.9c-15.9,0-28.8-13-28.8-28.8v-25.7c0-15.9,13-28.8,28.8-28.8h6.9c15.9,0,28.8,13,28.8,28.8
			v25.7C975.5,570.1,962.5,583.1,946.6,583.1z"/>
		<line class="st5" x1="943.2" y1="567.4" x2="933.1" y2="557.4"/>
		<path class="st7" d="M948.2,514.1c7.1,0,12.9,5.8,12.9,12.9v11.3"/>
		<line class="st7" x1="961.1" y1="545.3" x2="961.1" y2="545.3"/>
		<g>
			<line class="st5" x1="943.2" y1="547.9" x2="943.2" y2="637.4"/>
		</g>
	</g>
	<g>
		<rect x="136.5" y="262.2" class="st1" width="135.1" height="313.3"/>
		<polygon class="st13" points="235.2,321 204.1,344.6 172.9,321 172.9,262.2 235.2,262.2 		"/>
		<g>
			<line class="st4" x1="191.4" y1="289" x2="204.9" y2="275.5"/>
			<line class="st4" x1="208.9" y1="306.5" x2="222.4" y2="293"/>
			<line class="st4" x1="185.8" y1="312.6" x2="202.4" y2="295.9"/>
			<line class="st4" x1="199.9" y1="317.7" x2="216.3" y2="317.7"/>
			
				<rect x="201.9" y="278.4" transform="matrix(0.7071 -0.7071 0.7071 0.7071 -144.9573 231.6547)" class="st4" width="10.5" height="24.8"/>
		</g>
		<rect x="136.5" y="262.2" class="st5" width="135.1" height="313.3"/>
		
			<rect x="261.4" y="262.2" transform="matrix(-1 -1.224647e-16 1.224647e-16 -1 531.2021 836.5856)" class="st9" width="8.4" height="312.2"/>
		<polygon class="st1" points="204.1,170 284,262.2 124.1,262.2 		"/>
		<polygon class="st9" points="271.7,263.6 285.7,262.5 206.3,170.1 198.9,178.2 		"/>
		<polygon class="st14" points="204.1,170 284,262.2 124.1,262.2 		"/>
		<polyline class="st10" points="234.2,237.3 204.1,203.2 174,237.3 		"/>
		<rect x="185.8" y="503.9" class="st12" width="36.6" height="71.6"/>
		<line class="st11" x1="183.3" y1="412.5" x2="161.7" y2="412.5"/>
		<line class="st11" x1="202.1" y1="412.5" x2="194.4" y2="412.5"/>
		<line class="st11" x1="253.1" y1="336.5" x2="241.9" y2="336.5"/>
		<line class="st11" x1="231.2" y1="486.1" x2="209.5" y2="486.1"/>
		<line class="st11" x1="249.1" y1="486.1" x2="241.2" y2="486.1"/>
		<line class="st5" x1="204.1" y1="170" x2="204.1" y2="150.3"/>
		<line class="st15" x1="212.6" y1="516.2" x2="212.6" y2="543.2"/>
		<g>
			<path class="st9" d="M189.9,396.5H155V364c0-8.6,7-15.6,15.6-15.6h3.7c8.6,0,15.6,7,15.6,15.6V396.5z"/>
			<polygon class="st17" points="188,391.5 178.4,391.5 178.4,349.1 188,356.4 			"/>
			<path class="st5" d="M189.9,396.5H155V364c0-8.6,7-15.6,15.6-15.6h3.7c8.6,0,15.6,7,15.6,15.6V396.5z"/>
			<path class="st10" d="M188.8,401.5h-32.7c-3.2,0-5.7-2.6-5.7-5.7v-1.4c0-3.2,2.6-5.7,5.7-5.7h32.7c3.2,0,5.7,2.6,5.7,5.7v1.4
				C194.5,398.9,192,401.5,188.8,401.5z"/>
		</g>
		<g>
			<path class="st9" d="M251.6,396.5h-34.9V364c0-8.6,7-15.6,15.6-15.6h3.7c8.6,0,15.6,7,15.6,15.6V396.5z"/>
			<polygon class="st17" points="249.7,391.5 240.1,391.5 240.1,349.1 249.7,356.4 			"/>
			<path class="st5" d="M251.6,396.5h-34.9V364c0-8.6,7-15.6,15.6-15.6h3.7c8.6,0,15.6,7,15.6,15.6V396.5z"/>
			<path class="st10" d="M250.5,401.5h-32.7c-3.2,0-5.7-2.6-5.7-5.7v-1.4c0-3.2,2.6-5.7,5.7-5.7h32.7c3.2,0,5.7,2.6,5.7,5.7v1.4
				C256.2,398.9,253.7,401.5,250.5,401.5z"/>
		</g>
		<g>
			<path class="st2" d="M189.9,471.3H155v-32.5c0-8.6,7-15.6,15.6-15.6h3.7c8.6,0,15.6,7,15.6,15.6V471.3z"/>
			<polygon class="st3" points="188,466.3 178.4,466.3 178.4,423.9 188,431.2 			"/>
			<path class="st5" d="M189.9,471.3H155v-32.5c0-8.6,7-15.6,15.6-15.6h3.7c8.6,0,15.6,7,15.6,15.6V471.3z"/>
			<path class="st10" d="M188.8,476.3h-32.7c-3.2,0-5.7-2.6-5.7-5.7v-1.4c0-3.2,2.6-5.7,5.7-5.7h32.7c3.2,0,5.7,2.6,5.7,5.7v1.4
				C194.5,473.7,192,476.3,188.8,476.3z"/>
		</g>
		<g>
			<path class="st2" d="M251.6,471.3h-34.9v-32.5c0-8.6,7-15.6,15.6-15.6h3.7c8.6,0,15.6,7,15.6,15.6V471.3z"/>
			<polygon class="st3" points="249.7,466.3 240.1,466.3 240.1,423.9 249.7,431.2 			"/>
			<path class="st5" d="M251.6,471.3h-34.9v-32.5c0-8.6,7-15.6,15.6-15.6h3.7c8.6,0,15.6,7,15.6,15.6V471.3z"/>
			<path class="st10" d="M250.5,476.3h-32.7c-3.2,0-5.7-2.6-5.7-5.7v-1.4c0-3.2,2.6-5.7,5.7-5.7h32.7c3.2,0,5.7,2.6,5.7,5.7v1.4
				C256.2,473.7,253.7,476.3,250.5,476.3z"/>
		</g>
		<rect x="177.4" y="565.5" class="st10" width="53.3" height="14.7"/>
		<polygon class="st13" points="271.4,128.6 258.9,145.2 271.4,160.1 204.1,160.1 204.1,128.6 		"/>
		<line class="st7" x1="215.5" y1="138.2" x2="241" y2="138.2"/>
		<line class="st7" x1="248.8" y1="138.2" x2="248.8" y2="138.2"/>
		<line class="st11" x1="167.2" y1="252" x2="150.4" y2="252"/>
		<line class="st11" x1="206.7" y1="252" x2="175.4" y2="252"/>
	</g>
	<g>
		<g>
			<rect x="119.8" y="559.8" class="st16" width="33.6" height="47.4"/>
			<g>
				<line class="st10" x1="119.8" y1="607.2" x2="119.8" y2="616.4"/>
				<line class="st10" x1="153.3" y1="607.2" x2="153.3" y2="616.4"/>
			</g>
		</g>
		<line class="st15" x1="130.3" y1="575.8" x2="142.8" y2="575.8"/>
		<line class="st15" x1="130.3" y1="589.8" x2="142.8" y2="589.8"/>
	</g>
	<g>
		<rect x="269.8" y="351.2" class="st1" width="217" height="113.5"/>
		<g>
			<line class="st18" x1="463.7" y1="503.9" x2="463.7" y2="552.6"/>
		</g>
		<g>
			<line class="st18" x1="462.7" y1="503.9" x2="462.7" y2="552.6"/>
		</g>
		<rect x="270.2" y="478.4" class="st8" width="216.5" height="97.4"/>
		
			<rect x="476.1" y="346.3" transform="matrix(-1 -1.224647e-16 1.224647e-16 -1 960.6052 922.0395)" class="st9" width="8.4" height="229.4"/>
		<line class="st11" x1="331.4" y1="491" x2="309.8" y2="491"/>
		<line class="st11" x1="433.5" y1="564.3" x2="426.1" y2="564.3"/>
		<line class="st11" x1="463.7" y1="564.3" x2="442.9" y2="564.3"/>
		<rect x="270.2" y="346.9" class="st5" width="216.5" height="117.9"/>
		<rect x="266.4" y="464.8" class="st10" width="225" height="13.5"/>
		<g>
			<path class="st9" d="M485,351.2H271.1c-5.7,0-10.3-4.6-10.3-10.3v-2.5c0-5.7,4.6-10.3,10.3-10.3H485c5.7,0,10.3,4.6,10.3,10.3
				v2.5C495.3,346.6,490.7,351.2,485,351.2z"/>
			<path class="st19" d="M484.5,353.3h-213c-7,0-12.8-5.7-12.8-12.8v-1.6c0-7,5.7-12.8,12.8-12.8h213c7,0,12.8,5.7,12.8,12.8v1.6
				C497.3,347.5,491.6,353.3,484.5,353.3z M271.6,330.2c-4.8,0-8.7,3.9-8.7,8.7v1.6c0,4.8,3.9,8.7,8.7,8.7h213
				c4.8,0,8.7-3.9,8.7-8.7v-1.6c0-4.8-3.9-8.7-8.7-8.7H271.6z"/>
		</g>
		<g>
			<g>
				<path class="st20" d="M430.3,305.8h-111c-4.7,0-8.4-3.8-8.4-8.4v-57.2c0-4.7,3.8-8.4,8.4-8.4h111c4.7,0,8.4,3.8,8.4,8.4v57.2
					C438.7,302,435,305.8,430.3,305.8z"/>
			</g>
			<line class="st14" x1="341.2" y1="305.8" x2="341.2" y2="327.6"/>
			<line class="st14" x1="408.4" y1="305.8" x2="408.4" y2="327.6"/>
			<line class="st7" x1="323.9" y1="241.2" x2="354.1" y2="241.2"/>
			<line class="st7" x1="363.1" y1="241.2" x2="363.1" y2="241.2"/>
		</g>
		<g>
			<circle class="st12" cx="346.6" cy="274.4" r="19.9"/>
			<path class="st21" d="M355.8,274.3c-2.1-2.5-2.9-4.2-5.2-4.9c-1.1-0.4-2.9,0.2-4,1.3c-1.1-1.2-2.9-1.7-4-1.3
				c-2.3,0.7-3.1,2.3-5.2,4.9c-2.2,2.7-7.2,0.2-5.2,2.3c3.6,3.6,11.5,4,14.4,0c2.9,4,10.8,3.5,14.4,0C363,274.5,358,277,355.8,274.3
				z"/>
			<line class="st11" x1="380" y1="260.8" x2="423.5" y2="260.8"/>
			<line class="st11" x1="380" y1="272.2" x2="423.5" y2="272.2"/>
			<line class="st11" x1="380" y1="283.6" x2="400.7" y2="283.6"/>
		</g>
		<rect x="360.2" y="504" class="st12" width="36.6" height="71.6"/>
		<rect x="290.4" y="503.9" class="st2" width="48.7" height="48.7"/>
		<rect x="327.4" y="505" class="st3" width="9.6" height="47.6"/>
		<rect x="290.4" y="503.9" class="st4" width="48.7" height="48.7"/>
		<rect x="420.3" y="503.9" class="st2" width="48.7" height="48.7"/>
		<rect x="457.2" y="505" class="st3" width="9.6" height="47.6"/>
		<rect x="420.3" y="503.9" class="st4" width="48.7" height="48.7"/>
		<g>
			<circle class="st13" cx="377.2" cy="405.7" r="37.9"/>
			<path class="st15" d="M405.2,409c-0.8,6.9-4.1,13-8.8,17.4"/>
			<g>
				<circle class="st5" cx="367.2" cy="395.2" r="7.1"/>
				
					<linearGradient id="SVGID_1_" gradientUnits="userSpaceOnUse" x1="4205.8716" y1="1598.2448" x2="4228.1797" y2="1598.2448" gradientTransform="matrix(-5.071187e-02 0.9987 -0.9987 -5.071187e-02 2188.3813 -3717.7578)">
					<stop  offset="0" style="stop-color:#EC477C"/>
					<stop  offset="1" style="stop-color:#EA7F79"/>
				</linearGradient>
				<path class="st22" d="M376.5,409.9c3,4.8,9.1,14.4,9.1,14.4S379.5,414.7,376.5,409.9c-3-4.8-5.5-8.6-5.5-8.6
					S373.5,405.1,376.5,409.9z"/>
			</g>
			<g>
				<circle class="st5" cx="387.1" cy="395.1" r="7.1"/>
				
					<linearGradient id="SVGID_2_" gradientUnits="userSpaceOnUse" x1="4205.1504" y1="1600.4641" x2="4229.0303" y2="1600.4641" gradientTransform="matrix(-5.071187e-02 0.9987 -0.9987 -5.071187e-02 2188.3813 -3717.7578)">
					<stop  offset="0" style="stop-color:#EC477C"/>
					<stop  offset="1" style="stop-color:#EA7F79"/>
				</linearGradient>
				<path class="st23" d="M377.9,409.8c-3,4.8-9,14.5-9,14.5S374.9,414.6,377.9,409.8c3-4.8,5.4-8.7,5.4-8.7S380.9,405,377.9,409.8z
					"/>
			</g>
		</g>
		<line class="st15" x1="387.3" y1="531.3" x2="387.3" y2="552.6"/>
		<line class="st7" x1="418" y1="361.6" x2="453.3" y2="361.6"/>
		<line class="st7" x1="462.5" y1="361.6" x2="466.5" y2="361.6"/>
		<rect x="352.1" y="565.5" class="st10" width="53.3" height="14.7"/>
		<line class="st11" x1="305.7" y1="363.7" x2="284" y2="363.7"/>
		<line class="st11" x1="327.9" y1="363.7" x2="314.6" y2="363.7"/>
		<line class="st11" x1="441.4" y1="451.5" x2="419.8" y2="451.5"/>
		<line class="st11" x1="463.7" y1="451.5" x2="450.4" y2="451.5"/>
	</g>
	<g>
		<path class="st13" d="M490.2,631h-6.9c-15.9,0-28.8-13-28.8-28.8v-25.7c0-15.9,13-28.8,28.8-28.8h6.9c15.9,0,28.8,13,28.8,28.8
			v25.7C519.1,618,506.1,631,490.2,631z"/>
		<line class="st5" x1="486.8" y1="619.9" x2="474.5" y2="607.6"/>
		<path class="st7" d="M491.8,561.9c7.1,0,12.9,5.8,12.9,12.9v11.3"/>
		<line class="st7" x1="504.7" y1="593.2" x2="504.7" y2="593.2"/>
		<g>
			<line class="st5" x1="486.8" y1="589.3" x2="486.8" y2="685.2"/>
		</g>
	</g>
	<g>
		<line class="st5" x1="866.2" y1="286.7" x2="866.2" y2="574.7"/>
		<g>
			<circle class="st16" cx="867.1" cy="339" r="59.3"/>
			<path class="st15" d="M888.2,382.2c-2.1,1-4.3,1.9-6.5,2.6"/>
			<path class="st15" d="M911.8,356.8c-3.1,7.8-8.2,14.6-14.7,19.8"/>
		</g>
		<g>
			<path class="st12" d="M835.4,373l40.2-16.4c3-1.2,3.7-5,1.5-7.3l-23.7-23.7c-2.3-2.3-6.1-1.5-7.3,1.5l-16.4,40.2
				C828.1,370.8,831.7,374.5,835.4,373z"/>
			<line class="st5" x1="835.4" y1="356.8" x2="851" y2="356.8"/>
			<line class="st5" x1="839.1" y1="345" x2="854.8" y2="345"/>
			<circle class="st13" cx="881.6" cy="320.9" r="24.3"/>
			<path class="st15" d="M897.2,315.5c0.6,1.7,0.9,3.5,0.9,5.4c0,3.7-1.2,7.1-3.3,9.9"/>
			<path class="st10" d="M889.4,353.3l-3.7,3.7c-1.5,1.5-3.9,1.5-5.4,0L846,322.6c-1.5-1.5-1.5-3.9,0-5.4l3.7-3.7
				c1.5-1.5,3.9-1.5,5.4,0l34.4,34.4C890.9,349.4,890.9,351.8,889.4,353.3z"/>
		</g>
		<g>
			<polygon class="st13" points="889.5,550.8 843,550.8 843,478.5 889.5,478.5 889.5,539.6 			"/>
			<g class="st24">
				<g>
					<line class="st25" x1="867.8" y1="492.5" x2="879.7" y2="492.5"/>
				</g>
			</g>
			<path class="st9" d="M857.3,497.5h-1.1c-2.5,0-4.5-2-4.5-4.5V492c0-2.5,2-4.5,4.5-4.5h1.1c2.5,0,4.5,2,4.5,4.5v1.1
				C861.8,495.5,859.7,497.5,857.3,497.5z"/>
			<path class="st9" d="M857.3,519.7h-1.1c-2.5,0-4.5-2-4.5-4.5v-1.1c0-2.5,2-4.5,4.5-4.5h1.1c2.5,0,4.5,2,4.5,4.5v1.1
				C861.8,517.7,859.7,519.7,857.3,519.7z"/>
			<line class="st26" x1="867.8" y1="514.6" x2="879.7" y2="514.6"/>
			<path class="st9" d="M857.3,541.8h-1.1c-2.5,0-4.5-2-4.5-4.5v-1.1c0-2.5,2-4.5,4.5-4.5h1.1c2.5,0,4.5,2,4.5,4.5v1.1
				C861.8,539.8,859.7,541.8,857.3,541.8z"/>
			<line class="st26" x1="867.8" y1="536.8" x2="879.7" y2="536.8"/>
		</g>
	</g>
	<g>
		<polygon class="st2" points="794.4,390.7 666.6,390.7 637.1,441.9 823.8,441.9 		"/>
		<polygon class="st9" points="814.8,448.5 822.7,443.9 791.3,389.5 783.4,392.3 		"/>
		<polygon class="st14" points="794.4,390.7 666.6,390.7 637.1,441.9 823.8,441.9 		"/>
		<path class="st10" d="M826.1,459.3H636.8c-4.8,0-8.7-3.9-8.7-8.7v0c0-4.8,3.9-8.7,8.7-8.7h189.3c4.8,0,8.7,3.9,8.7,8.7v0
			C834.8,455.4,830.9,459.3,826.1,459.3z"/>
		<path class="st1" d="M772.2,459.8v-5.4c0-23.1-18.7-41.8-41.8-41.8h0c-23.1,0-41.8,18.7-41.8,41.8v5.4h-51.6v115.9h188.8V459.8
			H772.2z"/>
		
			<rect x="815.4" y="453.6" transform="matrix(-1 -1.224647e-16 1.224647e-16 -1 1639.1724 1029.3479)" class="st9" width="8.4" height="122.1"/>
		<path class="st5" d="M772.2,459.8v-5.4c0-23.1-18.7-41.8-41.8-41.8h0c-23.1,0-41.8,18.7-41.8,41.8v5.4h-51.6v115.9h188.8V459.8
			H772.2z"/>
		<g>
			<rect x="662.6" y="497.5" class="st2" width="67.9" height="55"/>
			<rect x="718.8" y="497.5" class="st3" width="9.6" height="53.7"/>
			<rect x="662.6" y="497.5" class="st14" width="67.9" height="55"/>
		</g>
		<g>
			<path class="st10" d="M710.1,516.2h-2.6c-6.1,0-11-5-11-11v-13.1h24.7v13.1C721.1,511.3,716.1,516.2,710.1,516.2z"/>
			<path class="st13" d="M734.8,516.2h-2.6c-6.1,0-11-5-11-11v-13.1h24.7v13.1C745.8,511.3,740.8,516.2,734.8,516.2z"/>
			<path class="st10" d="M661,516.2h-2.6c-6.1,0-11-5-11-11v-13.1H672v13.1C672,511.3,667.1,516.2,661,516.2z"/>
			<path class="st13" d="M685.4,516.2h-2.6c-6.1,0-11-5-11-11v-13.1h24.7v13.1C696.4,511.3,691.5,516.2,685.4,516.2z"/>
		</g>
		<rect x="766.3" y="503.9" class="st12" width="36.6" height="71.6"/>
		<line class="st11" x1="798.5" y1="471" x2="790.3" y2="471"/>
		<line class="st11" x1="684.1" y1="474.9" x2="661.4" y2="474.9"/>
		<line class="st11" x1="700.2" y1="474.9" x2="691.9" y2="474.9"/>
		<path class="st10" d="M751.3,453.6c0-11.5-9.3-20.8-20.8-20.8c-11.5,0-20.8,9.3-20.8,20.8"/>
		<line class="st11" x1="737.1" y1="564.7" x2="714.4" y2="564.7"/>
		<line class="st15" x1="694.5" y1="400.7" x2="730" y2="400.7"/>
		<line class="st15" x1="678.4" y1="400.7" x2="685" y2="400.7"/>
		<line class="st15" x1="793.2" y1="525.1" x2="793.2" y2="548.3"/>
		<rect x="758" y="565.5" class="st10" width="53.3" height="14.7"/>
	</g>
	<g>
		<g>
			<rect x="611.5" y="559.8" class="st13" width="33.6" height="47.4"/>
			<g>
				<line class="st5" x1="611.5" y1="607.2" x2="611.5" y2="616.4"/>
				<line class="st5" x1="645.1" y1="607.2" x2="645.1" y2="616.4"/>
			</g>
		</g>
		<g>
			<line class="st26" x1="622.1" y1="575.8" x2="634.6" y2="575.8"/>
			<line class="st26" x1="622.1" y1="589.8" x2="634.6" y2="589.8"/>
		</g>
	</g>
</g>
</svg>
