<?xml version="1.0" encoding="utf-8"?>
<!-- Generator: Adobe Illustrator 22.0.1, SVG Export Plug-In . SVG Version: 6.00 Build 0)  -->
<svg version="1.1" id="Layer_1" xmlns="http://www.w3.org/2000/svg" xmlns:xlink="http://www.w3.org/1999/xlink" x="0px" y="0px"
	 viewBox="0 0 676 432" style="enable-background:new 0 0 676 432;" xml:space="preserve">
<style type="text/css">
	.st0{fill:#D9DFE6;}
	.st1{fill:none;stroke:#010101;stroke-width:5;stroke-linecap:round;stroke-linejoin:round;stroke-miterlimit:10;}
	.st2{fill:#248CCB;stroke:#010101;stroke-width:5;stroke-linecap:round;stroke-linejoin:round;stroke-miterlimit:10;}
	.st3{fill:none;stroke:#FFFFFF;stroke-width:5;stroke-linecap:round;stroke-miterlimit:10;}
	.st4{fill:#FFFFFF;}
	.st5{fill:#EF6F8A;stroke:#010101;stroke-width:4;stroke-miterlimit:10;}
	.st6{fill:#ECCE1E;stroke:#010101;stroke-width:4;stroke-miterlimit:10;}
</style>
<g>
	<path class="st0" d="M135.3,375.4h59.2h289.7h69.5c17.3,0,31.3-14,31.3-31.3v0c0-17.3-14-31.3-31.3-31.3h-45.3
		c-17.2,0-31.1-13.8-31.3-31v0c-0.2-17.4,13.9-31.5,31.3-31.5h35c17.3,0,31.3-14,31.3-31.3v0c0-17.3-14-31.3-31.3-31.3h-59.2h-321
		H125c-17.3,0-31.3,14-31.3,31.3v0c0,17.3,14,31.3,31.3,31.3h34.8c17.2,0,31.1,13.8,31.3,31v0c0.2,17.4-13.9,31.5-31.3,31.5h-24.6
		c-17.3,0-31.3,14-31.3,31.3v0C104,361.4,118,375.4,135.3,375.4z M392.8,250.4c17.3,0,31.3,14,31.3,31.3v0c0,17.3-14,31.3-31.3,31.3
		H265c-17.3,0-31.3-14-31.3-31.3v0c0-17.3,14-31.3,31.3-31.3H392.8z"/>
	<g>
		<path class="st1" d="M284.6,124.5c0,16.2,8.7,30.5,21.7,38.3c0.9,0.6,1.9,1.1,2.8,1.6"/>
		<path class="st2" d="M373.9,56.6c-17.2,0-32.1,9.5-40.1,23.6c-1.5-0.2-3-0.2-4.6-0.2c-24.6,0-44.6,19.9-44.6,44.6
			c0,4.4,0.6,8.6,1.8,12.6c-14.3,7.4-24.1,22.4-24.1,39.6c0,12.3,5,23.4,13,31.4c-8,8.1-13,19.2-13,31.4c0,17.2,9.8,32.2,24.1,39.6
			c-1.2,4-1.8,8.2-1.8,12.6c0,24.6,19.9,44.6,44.6,44.6c1.5,0,2.9-0.1,4.4-0.2c7.9,14.1,23,23.6,40.4,23.6
			c25.6,0,46.3-20.7,46.3-46.3V103.7C420.2,77.7,399.4,56.6,373.9,56.6z"/>
		<path class="st1" d="M373.9,56.6c-25.6,0-46.3,20.7-46.3,46.3c0,11.2,3.9,21.4,10.5,29.4"/>
		<path class="st1" d="M351.8,172.3c0.2,1.6,0.2,3.1,0.2,4.7c0,12.1-4.8,23.1-12.7,31.1l0,0h79.6"/>
		<path class="st1" d="M356,119.1c-13.1,5.4-23.2,16.7-26.9,30.6"/>
		<path class="st1" d="M373.9,359.4c-25.6,0-46.3-20.7-46.3-46.3c0-11.2,3.9-21.4,10.5-29.4"/>
		<path class="st1" d="M284.6,291.5c0-16.2,8.7-30.5,21.7-38.3c0.9-0.6,1.9-1.1,2.8-1.6"/>
		<path class="st1" d="M356,296.9c-13.1-5.4-23.2-16.7-26.9-30.6"/>
		<path class="st1" d="M262.3,176.7c0,22.5,16.7,41.1,38.4,44.1"/>
		<path class="st1" d="M373.9,149.2c25.6,0,46.3-20.7,46.3-46.3"/>
		<path class="st1" d="M373.9,267.2c25.6,0,46.3,20.7,46.3,46.3"/>
		<line class="st3" x1="400.9" y1="162.9" x2="400.9" y2="184.2"/>
		<line class="st3" x1="400.9" y1="239.9" x2="400.9" y2="250.5"/>
		<path class="st3" d="M389.4,84.1c-4.6-3.6-10.4-5.8-16.8-5.8c-5.8,0-11.1,1.8-15.5,4.9"/>
		<path class="st3" d="M357.1,332.7c4.6,3.6,10.4,5.8,16.8,5.8c5.8,0,11.1-1.8,15.5-4.9"/>
		<path class="st3" d="M289.7,195.9c4.6,3.6,10.4,5.8,16.8,5.8"/>
		<circle class="st4" cx="281.6" cy="187.9" r="3.6"/>
		<circle class="st4" cx="397.3" cy="92.4" r="3.6"/>
		<polyline class="st1" points="455.9,161.2 480.7,137.9 496.2,146.4 521.1,120.8 		"/>
		<polyline class="st1" points="455.9,245.2 480.7,268.5 496.2,260 521.1,285.6 		"/>
		<polyline class="st1" points="457.6,207.8 492.1,207.3 497.4,190.5 531.9,190.5 		"/>
		<path class="st5" d="M464.9,105.9c-5.5-5.4-5.6-14.1-0.2-19.6s14.1-5.6,19.6-0.2c5.5,5.4,5.6,14.1,0.2,19.6
			C479.2,111.1,470.4,111.2,464.9,105.9z"/>
		<path class="st5" d="M540.8,253.2c-4.4-4.3-4.5-11.4-0.2-15.8s11.4-4.5,15.8-0.2c4.4,4.3,4.5,11.4,0.2,15.8
			C552.2,257.4,545.2,257.5,540.8,253.2z"/>
		<path class="st6" d="M551.9,152.4c-4.4-4.3-4.5-11.4-0.2-15.8s11.4-4.5,15.8-0.2c4.4,4.3,4.5,11.4,0.2,15.8
			C563.4,156.6,556.3,156.7,551.9,152.4z"/>
		<path class="st6" d="M462.8,331.8c-6.7-6.5-6.8-17.2-0.2-23.9c6.5-6.7,17.2-6.8,23.9-0.2c6.7,6.5,6.8,17.2,0.2,23.9
			C480.2,338.2,469.5,338.3,462.8,331.8z"/>
	</g>
</g>
</svg>
