<?xml version="1.0" encoding="utf-8"?>
<!-- Generator: Adobe Illustrator 22.0.1, SVG Export Plug-In . SVG Version: 6.00 Build 0)  -->
<svg version="1.1" id="Layer_1" xmlns="http://www.w3.org/2000/svg" xmlns:xlink="http://www.w3.org/1999/xlink" x="0px" y="0px"
	 viewBox="0 0 676 432" style="enable-background:new 0 0 676 432;" xml:space="preserve">
<style type="text/css">
	.st0{fill:#D9DFE6;}
	.st1{fill:#FFFFFF;stroke:#010101;stroke-width:5;stroke-linecap:round;stroke-linejoin:round;stroke-miterlimit:10;}
	.st2{fill:#248CCB;stroke:#010101;stroke-width:5;stroke-linecap:round;stroke-linejoin:round;stroke-miterlimit:10;}
	.st3{fill:#248CCB;}
	.st4{fill:none;stroke:#010101;stroke-width:5;stroke-linecap:round;stroke-linejoin:round;stroke-miterlimit:10;}
	.st5{fill:none;stroke:#FFFFFF;stroke-width:5;stroke-linecap:round;stroke-miterlimit:10;}
	.st6{fill:#ECCE1E;stroke:#010101;stroke-width:5;stroke-miterlimit:10;}
</style>
<g>
	<g>
		<g>
			<g>
				<path class="st0" d="M131.3,370.4L131.3,370.4c0,15,12.2,27.2,27.2,27.2H480c15,0,27.2-12.2,27.2-27.2v0
					c0-15-12.2-27.2-27.2-27.2h-54.2c-15,0-27.2-12.2-27.2-27.2v0c0-15,12.2-27.2,27.2-27.2H480c15,0,27.2-12.2,27.2-27.2v0
					c0-15-12.2-27.2-27.2-27.2H104.1c-15,0-27.2,12.2-27.2,27.2v0c0,15,12.2,27.2,27.2,27.2h103c14.9,0,27,12,27.2,26.9v0
					c0.1,15.1-12.1,27.4-27.2,27.4h-48.6C143.5,343.3,131.3,355.4,131.3,370.4z"/>
			</g>
		</g>
	</g>
	<rect x="182.7" y="219.1" class="st1" width="52.7" height="80.2"/>
	<rect x="235.4" y="166.8" class="st2" width="52.7" height="132.5"/>
	<rect x="288.1" y="138.9" class="st1" width="52.7" height="160.4"/>
	<rect x="340.7" y="92.9" class="st2" width="52.7" height="206.4"/>
	<rect x="393.4" y="34.4" class="st1" width="52.7" height="264.9"/>
	<path class="st2" d="M355.8,292.7"/>
	<g>
		<path class="st3" d="M397.9,379l-5.6,1.4c-10.2,2.6-20.6-3.6-23.2-13.8l-7.9-30.9c-2.6-10.2,3.6-20.6,13.8-23.2l5.6-1.4
			c10.2-2.6,20.6,3.6,23.2,13.8l7.9,30.9C414.3,365.9,408.1,376.4,397.9,379z"/>
		<path class="st4" d="M397.9,379l-5.6,1.4c-10.2,2.6-20.6-3.6-23.2-13.8l-7.9-30.9c-2.6-10.2,3.6-20.6,13.8-23.2l5.6-1.4
			c10.2-2.6,20.6,3.6,23.2,13.8l7.9,30.9C414.3,365.9,408.1,376.4,397.9,379z"/>
		<path class="st2" d="M381,367.6"/>
		<path class="st5" d="M399,360.8c-1.4,2.4-3.7,4.2-6.6,4.9c-1.5,0.4-3.1,0.4-4.6,0.1c-2.1-0.4-3.9-1.4-5.4-2.7"/>
		<circle class="st1" cx="342.1" cy="315" r="23.2"/>
		<path class="st6" d="M418.3,328.7L369,341.3c-10.3,2.6-20.7-3.6-23.4-13.9l-7.3-28.6c-2.6-10.3,3.6-20.7,13.9-23.4l49.3-12.5
			L418.3,328.7z"/>
		<polygon class="st3" points="530.4,351.5 417.6,328.9 400.8,263.1 489.1,189.4 		"/>
		<polygon class="st4" points="530.4,351.5 417.6,328.9 400.8,263.1 489.1,189.4 		"/>
		<line class="st5" x1="390.3" y1="277.9" x2="360.2" y2="286.1"/>
		<line class="st5" x1="426.2" y1="263.9" x2="467.5" y2="229.2"/>
		<line class="st5" x1="476.5" y1="221.8" x2="476.5" y2="221.8"/>
		<line class="st4" x1="536.3" y1="258.7" x2="600.3" y2="241.2"/>
		<line class="st4" x1="523.4" y1="231.3" x2="548.2" y2="205.7"/>
		<line class="st4" x1="539.8" y1="289.3" x2="574.4" y2="298.1"/>
	</g>
	<line class="st5" x1="380.2" y1="113.8" x2="380.2" y2="141.5"/>
	<line class="st5" x1="380.2" y1="152.7" x2="380.2" y2="152.7"/>
	<line class="st5" x1="273.6" y1="231.5" x2="273.6" y2="259.2"/>
</g>
</svg>
