<?xml version="1.0" encoding="utf-8"?>
<!-- Generator: Adobe Illustrator 22.0.1, SVG Export Plug-In . SVG Version: 6.00 Build 0)  -->
<svg version="1.1" id="Layer_1" xmlns="http://www.w3.org/2000/svg" xmlns:xlink="http://www.w3.org/1999/xlink" x="0px" y="0px"
	 viewBox="0 0 676 432" style="enable-background:new 0 0 676 432;" xml:space="preserve">
<style type="text/css">
	.st0{fill:#D9DFE6;}
	.st1{fill:#FFFFFF;}
	.st2{fill:none;stroke:#010101;stroke-width:5;stroke-linecap:round;stroke-linejoin:round;stroke-miterlimit:10;}
	.st3{fill:#248CCB;}
	.st4{fill:none;stroke:#FFFFFF;stroke-width:5;stroke-linecap:round;stroke-linejoin:round;stroke-miterlimit:10;}
	.st5{fill:none;stroke:#FFFFFF;stroke-width:5;stroke-linecap:round;stroke-miterlimit:10;}
	.st6{fill:#010101;}
	.st7{fill:#ECCE1E;stroke:#010101;stroke-width:5;stroke-linecap:round;stroke-linejoin:round;stroke-miterlimit:10;}
	.st8{fill:#1F8ECB;stroke:#010101;stroke-width:5;stroke-linecap:round;stroke-linejoin:round;stroke-miterlimit:10;}
	.st9{fill:#ECCE1C;}
</style>
<g>
	<g>
		<g>
			<g>
				<path class="st0" d="M27.7,348.3L27.7,348.3c0,17.3,14,31.3,31.3,31.3l558,0c17.3,0,31.3-14,31.3-31.3v0
					c0-17.3-14-31.3-31.3-31.3h-72.8c-17.3,0-31.3-14-31.3-31.3v0c0-17.3,14-31.3,31.3-31.3h10.1c17.3,0,31.3-14,31.3-31.3v0
					c0-17.3-14-31.3-31.3-31.3H101c-17.3,0-31.3,14-31.3,31.3v0c0,17.3,14,31.3,31.3,31.3h76.6c17.2,0,31.1,13.8,31.3,31v0
					c0.2,17.4-13.9,31.5-31.3,31.5L59,317C41.7,317,27.7,331,27.7,348.3z"/>
			</g>
		</g>
	</g>
	<g>
		<g>
			<path class="st1" d="M474.7,106.9H200.9c-5.5,0-10,4.5-10,10v20.6h293.8v-20.6C484.7,111.4,480.2,106.9,474.7,106.9z"/>
			<path class="st2" d="M474.7,106.9H200.9c-5.5,0-10,4.5-10,10v20.6h293.8v-20.6C484.7,111.4,480.2,106.9,474.7,106.9z"/>
			<path class="st3" d="M474.7,331.8H200.9c-5.5,0-10-4.5-10-10V137.5h293.8v184.3C484.7,327.3,480.2,331.8,474.7,331.8z"/>
			<path class="st2" d="M474.7,331.8H200.9c-5.5,0-10-4.5-10-10V137.5h293.8v184.3C484.7,327.3,480.2,331.8,474.7,331.8z"/>
			<g>
				<path class="st4" d="M207.8,317.6"/>
				<line class="st5" x1="211.2" y1="171.7" x2="263.2" y2="171.7"/>
				<line class="st5" x1="211.2" y1="193.4" x2="315.3" y2="193.4"/>
				<line class="st5" x1="211.2" y1="215.1" x2="297.6" y2="215.1"/>
				<line class="st5" x1="211.2" y1="236.9" x2="236.9" y2="236.9"/>
				<line class="st5" x1="211.2" y1="280.3" x2="363.3" y2="280.3"/>
				<line class="st5" x1="211.2" y1="302" x2="309" y2="302"/>
			</g>
			<circle class="st6" cx="209.2" cy="122.2" r="4.7"/>
			<circle class="st6" cx="225.7" cy="122.2" r="4.7"/>
			<circle class="st6" cx="242.3" cy="122.2" r="4.7"/>
		</g>
		<g>
			<g>
				<path class="st7" d="M358.6,280.2l4.4-19.3c0.1-0.5,0.2-1,0.4-1.5c2.8-10.3,9.8-19.1,19-24.4l13.3-7.7l15.8,15.8l-7.7,13.3
					c-5.4,9.3-14.1,16.3-24.4,19c-0.5,0.1-1,0.3-1.5,0.4L358.6,280.2z"/>
				<path class="st8" d="M411.6,243.1l-15.8-15.8L516.4,97.9c3.6-3.6,9.5-3.6,13.1,0l11.4,11.4c3.6,3.6,3.6,9.5,0,13.1L411.6,243.1z
					"/>
				<line class="st4" x1="523.9" y1="116.2" x2="487.9" y2="152.2"/>
			</g>
		</g>
		<polygon class="st9" points="160.3,106.9 154.2,85.7 132.9,79.5 154.2,73.4 160.3,52.1 166.5,73.4 187.7,79.5 166.5,85.7 		"/>
		<polygon class="st9" points="598.4,181.7 592.3,160.5 571,154.3 592.3,148.2 598.4,126.9 604.6,148.2 625.8,154.3 604.6,160.5 		
			"/>
		<line class="st5" x1="467.7" y1="226.1" x2="467.7" y2="267.7"/>
		<circle class="st1" cx="467.7" cy="278.4" r="3.4"/>
	</g>
</g>
</svg>
