<?xml version="1.0" encoding="utf-8"?>
<!-- Generator: Adobe Illustrator 22.0.1, SVG Export Plug-In . SVG Version: 6.00 Build 0)  -->
<svg version="1.1" id="Layer_1" xmlns="http://www.w3.org/2000/svg" xmlns:xlink="http://www.w3.org/1999/xlink" x="0px" y="0px"
	 viewBox="0 0 674 724" style="enable-background:new 0 0 674 724;" xml:space="preserve">
<style type="text/css">
	.st0{fill:#EF6F8A;}
	.st1{fill:#ECCE1E;}
	.st2{fill:#3CACE1;}
</style>
<g>
	<path class="st0" d="M485.4,712.9h-9c0-7.4-12.1-12.5-22.9-12.5c-10.8,0-22.9,5.1-22.9,12.5h-9c0-7.4-12.1-12.5-22.9-12.5
		c-10.8,0-22.9,5.1-22.9,12.5h-9c0-12.1,14-21.5,31.9-21.5c11.8,0,21.9,4.1,27.4,10.3c5.5-6.2,15.6-10.3,27.4-10.3
		C471.4,691.4,485.4,700.8,485.4,712.9z"/>
	<path class="st0" d="M647,547.6h-9c0-7.4-12.1-12.5-22.9-12.5s-22.9,5.1-22.9,12.5h-9c0-7.4-12.1-12.5-22.9-12.5
		c-10.8,0-22.9,5.1-22.9,12.5h-9c0-12.1,14-21.5,31.9-21.5c11.8,0,21.9,4.1,27.4,10.3c5.5-6.2,15.6-10.3,27.4-10.3
		C633,526,647,535.5,647,547.6z"/>
	<circle class="st1" cx="351.7" cy="85.5" r="74.4"/>
	<g>
		<path class="st2" d="M316.5,510.2h-253c-28.6,0-52-23.4-52-52v0c0-28.6,23.4-52,52-52h253c28.6,0,52,23.4,52,52v0
			C368.5,486.8,345.1,510.2,316.5,510.2z"/>
		<path class="st2" d="M169.4,462.9h-39.1c-28.6,0-52-23.4-52-52v0c0-28.6,23.4-52,52-52h39.1c28.6,0,52,23.4,52,52v0
			C221.4,439.5,198,462.9,169.4,462.9z"/>
		<circle class="st2" cx="203.8" cy="384.9" r="62"/>
	</g>
	<g>
		<path class="st2" d="M611.3,236.8h-253c-28.6,0-52-23.4-52-52v0c0-28.6,23.4-52,52-52h253c28.6,0,52,23.4,52,52v0
			C663.3,213.4,639.9,236.8,611.3,236.8z"/>
		<path class="st2" d="M464.2,189.5h-39.1c-28.6,0-52-23.4-52-52v0c0-28.6,23.4-52,52-52h39.1c28.6,0,52,23.4,52,52v0
			C516.2,166.1,492.8,189.5,464.2,189.5z"/>
		<circle class="st2" cx="498.6" cy="111.5" r="62"/>
	</g>
</g>
</svg>
