<?xml version="1.0" encoding="utf-8"?>
<!-- Generator: Adobe Illustrator 22.0.1, SVG Export Plug-In . SVG Version: 6.00 Build 0)  -->
<svg version="1.1" id="Layer_1" xmlns="http://www.w3.org/2000/svg" xmlns:xlink="http://www.w3.org/1999/xlink" x="0px" y="0px"
	 viewBox="0 0 411 144" style="enable-background:new 0 0 411 144;" xml:space="preserve">
<style type="text/css">
	.st0{fill:#ECCE1E;stroke:#010101;stroke-width:3.395;stroke-linecap:round;stroke-linejoin:round;stroke-miterlimit:10;}
	.st1{fill:none;stroke:#010101;stroke-width:3.395;stroke-linecap:round;stroke-linejoin:round;stroke-miterlimit:10;}
	.st2{fill:none;stroke:#FFFFFF;stroke-width:3.395;stroke-linecap:round;stroke-miterlimit:10;}
	.st3{fill:#3CACE1;stroke:#010101;stroke-width:3.395;stroke-linecap:round;stroke-linejoin:round;stroke-miterlimit:10;}
	.st4{fill:#EF6F8A;stroke:#010101;stroke-width:3.395;stroke-miterlimit:10;}
</style>
<g>
	<g>
		<path class="st0" d="M41.8,84.3L41.8,84.3c-15.1,0-27.4-12.3-27.4-27.4V41c0-15.1,12.3-27.4,27.4-27.4h0
			c15.1,0,27.4,12.3,27.4,27.4v15.9C69.2,72,56.9,84.3,41.8,84.3z"/>
		<line class="st1" x1="41.8" y1="77.5" x2="52.3" y2="67"/>
		<line class="st1" x1="41.8" y1="66.1" x2="31.4" y2="55.6"/>
		<path class="st2" d="M46.1,25.8c6,0,10.9,4.9,10.9,10.9v9.6"/>
		<line class="st2" x1="57" y1="52.3" x2="57" y2="52.3"/>
		<g>
			<line class="st1" x1="41.8" y1="49" x2="41.8" y2="130.4"/>
		</g>
	</g>
	<g>
		<path class="st3" d="M369.2,84.3L369.2,84.3c-15.1,0-27.4-12.3-27.4-27.4V41c0-15.1,12.3-27.4,27.4-27.4h0
			c15.1,0,27.4,12.3,27.4,27.4v15.9C396.6,72,384.3,84.3,369.2,84.3z"/>
		<line class="st1" x1="369.2" y1="71.1" x2="360.7" y2="62.6"/>
		<path class="st2" d="M373.5,25.8c6,0,10.9,4.9,10.9,10.9v9.6"/>
		<line class="st2" x1="384.4" y1="52.3" x2="384.4" y2="52.3"/>
		<g>
			<line class="st1" x1="369.2" y1="54.5" x2="369.2" y2="130.4"/>
		</g>
	</g>
	<g>
		<path class="st4" d="M205.5,84.3L205.5,84.3c-15.1,0-27.4-12.3-27.4-27.4V41c0-15.1,12.3-27.4,27.4-27.4h0
			c15.1,0,27.4,12.3,27.4,27.4v15.9C232.9,72,220.6,84.3,205.5,84.3z"/>
		<line class="st1" x1="205.5" y1="74.9" x2="195.1" y2="64.5"/>
		<path class="st2" d="M209.8,25.8c6,0,10.9,4.9,10.9,10.9v9.6"/>
		<line class="st2" x1="220.7" y1="52.3" x2="220.7" y2="52.3"/>
		<g>
			<line class="st1" x1="205.5" y1="49" x2="205.5" y2="130.4"/>
		</g>
	</g>
</g>
</svg>
