<svg xmlns="http://www.w3.org/2000/svg" xmlns:xlink="http://www.w3.org/1999/xlink" viewBox="0 0 514.61 292"><defs><style>.cls-1{fill:#d9dfe6;}.cls-2{fill:url(#linear-gradient);}.cls-3{fill:#226399;}.cls-4{fill:#fff;}.cls-5{fill:url(#linear-gradient-2);}.cls-6{fill:url(#linear-gradient-3);}</style><linearGradient id="linear-gradient" x1="164.4" y1="33.31" x2="351.36" y2="238.39" gradientTransform="translate(532.41 47.75) rotate(135)" gradientUnits="userSpaceOnUse"><stop offset="0" stop-color="#1da5c9"/><stop offset="1" stop-color="#1d85db"/></linearGradient><linearGradient id="linear-gradient-2" x1="288.35" y1="58.63" x2="382.43" y2="58.63" gradientTransform="translate(57.03 252) rotate(-44.3)" gradientUnits="userSpaceOnUse"><stop offset="0" stop-color="#ed467b"/><stop offset="1" stop-color="#ff776f"/></linearGradient><linearGradient id="linear-gradient-3" x1="155.82" y1="138.42" x2="359.38" y2="138.42" gradientTransform="translate(-23.45 219.24) rotate(-44.3)" gradientUnits="userSpaceOnUse"><stop offset="0" stop-color="#ebcd1c"/><stop offset="1" stop-color="#eb901c"/></linearGradient></defs><title>Asset 17</title><g id="Layer_2" data-name="Layer 2"><g id="Layer_1-2" data-name="Layer 1"><path class="cls-1" d="M514.61,259.21A32.78,32.78,0,0,1,481.83,292H43.48a32.75,32.75,0,1,1,.07-65.5H69.27a32.79,32.79,0,0,0,32.79-32.78v-.28a32.78,32.78,0,0,0-32.79-32.51H32.71a32.75,32.75,0,1,1,.07-65.49H471.21a32.75,32.75,0,1,1-.07,65.49h-36.7a32.77,32.77,0,0,0-32.79,32.72v.28a32.77,32.77,0,0,0,32.79,32.5H481.9A32.48,32.48,0,0,1,505,236,32.88,32.88,0,0,1,514.61,259.21Z"/><rect class="cls-2" x="104.97" y="99.32" width="302.7" height="69.64" transform="translate(342.71 410.24) rotate(-135)"/><path class="cls-3" d="M272.79,195.59a2.5,2.5,0,0,1-1.77-4.27l17.8-17.79a2.5,2.5,0,1,1,3.53,3.53l-17.79,17.8A2.49,2.49,0,0,1,272.79,195.59Z"/><path class="cls-3" d="M248.44,171.25a2.46,2.46,0,0,1-1.76-.74,2.49,2.49,0,0,1,0-3.53l29.93-29.93a2.5,2.5,0,1,1,3.53,3.53l-29.93,29.93A2.5,2.5,0,0,1,248.44,171.25Z"/><path class="cls-3" d="M321.48,244.28a2.5,2.5,0,0,1-1.77-4.27l17.8-17.79a2.5,2.5,0,0,1,3.53,3.53l-17.8,17.8A2.45,2.45,0,0,1,321.48,244.28Z"/><path class="cls-3" d="M297.13,219.94a2.51,2.51,0,0,1-1.77-4.27l29.93-29.93a2.5,2.5,0,1,1,3.54,3.53L298.9,219.2A2.5,2.5,0,0,1,297.13,219.94Z"/><path class="cls-3" d="M224.1,146.9a2.5,2.5,0,0,1-1.77-4.26l17.8-17.8a2.5,2.5,0,0,1,3.53,3.53l-17.79,17.8A2.49,2.49,0,0,1,224.1,146.9Z"/><path class="cls-3" d="M199.75,122.56a2.5,2.5,0,0,1-1.76-4.27l29.93-29.93a2.5,2.5,0,1,1,3.53,3.54l-29.93,29.93A2.53,2.53,0,0,1,199.75,122.56Z"/><path class="cls-3" d="M151.06,73.87a2.5,2.5,0,0,1-1.76-4.27l29.93-29.93a2.5,2.5,0,1,1,3.53,3.54L152.83,73.14A2.49,2.49,0,0,1,151.06,73.87Z"/><path class="cls-3" d="M175.41,98.21A2.5,2.5,0,0,1,173.64,94l17.8-17.8A2.5,2.5,0,0,1,195,79.68l-17.79,17.8A2.49,2.49,0,0,1,175.41,98.21Z"/><path d="M338.72,268.28a2.49,2.49,0,0,1-1.77-.73l-214-214a2.51,2.51,0,0,1,0-3.54L172.15.73a2.52,2.52,0,0,1,3.54,0l214,214a2.51,2.51,0,0,1,0,3.54l-49.24,49.24A2.49,2.49,0,0,1,338.72,268.28ZM128.21,51.74,338.72,262.25l45.7-45.71L173.92,6Z"/><polygon class="cls-4" points="131.7 267.46 147.12 209.57 156.78 199.67 198.85 240.72 189.19 250.62 131.7 267.46"/><path d="M131.7,270a2.5,2.5,0,0,1-2.42-3.15l15.42-57.88a2.52,2.52,0,0,1,.63-1.1l9.66-9.91a2.53,2.53,0,0,1,1.76-.75h0a2.5,2.5,0,0,1,1.75.71l42.07,41.05a2.5,2.5,0,0,1,0,3.53l-9.66,9.9a2.45,2.45,0,0,1-1.09.66L132.4,269.86A2.75,2.75,0,0,1,131.7,270Zm17.67-59.11-14.11,53,52.6-15.41,7.46-7.64-38.5-37.55Z"/><path class="cls-5" d="M331.6,8.92h13a22.91,22.91,0,0,1,22.91,22.91V93a10,10,0,0,1-10,10H318.68a10,10,0,0,1-10-10V31.84A22.91,22.91,0,0,1,331.6,8.92Z" transform="translate(135.17 -220.19) rotate(44.3)"/><path d="M326.09,108.48a12.42,12.42,0,0,1-8.72-3.55L289.61,77.85a12.53,12.53,0,0,1-.22-17.68l42.7-43.75A25.43,25.43,0,0,1,368,16l9.27,9A25.44,25.44,0,0,1,377.73,61L335,104.71A12.44,12.44,0,0,1,326.09,108.48Zm-5.23-7.13a7.5,7.5,0,0,0,5.33,2.12,7.4,7.4,0,0,0,5.27-2.25l42.7-43.75a20.44,20.44,0,0,0-.36-28.87l-9.27-9a20.44,20.44,0,0,0-28.87.35L293,63.67a7.52,7.52,0,0,0,.13,10.6Z"/><rect class="cls-6" x="228.21" y="22.8" width="58.78" height="231.25" transform="translate(169.89 -140.55) rotate(44.3)"/><path d="M197.89,244.2a2.5,2.5,0,0,1-1.75-.71l-42.07-41a2.5,2.5,0,0,1,0-3.54L315.52,33.4a2.51,2.51,0,0,1,3.54,0L361.13,74.4a2.53,2.53,0,0,1,.75,1.76,2.49,2.49,0,0,1-.71,1.77L199.68,243.45a2.5,2.5,0,0,1-1.76.75Zm-38.54-43.59,38.49,37.56,158-161.94L317.36,38.68Z"/><path class="cls-4" d="M259,121.78a2.51,2.51,0,0,1-1.8-4.24L302.15,71a2.5,2.5,0,0,1,3.6,3.47L260.8,121A2.48,2.48,0,0,1,259,121.78Z"/><circle class="cls-4" cx="312.47" cy="63.92" r="3.38"/></g></g></svg>