<svg xmlns="http://www.w3.org/2000/svg" xmlns:xlink="http://www.w3.org/1999/xlink" viewBox="0 0 105.42 145.18"><defs><style>.cls-1{fill:url(#linear-gradient);}.cls-2{fill:#fff;}.cls-3{fill:url(#linear-gradient-2);}.cls-4{fill:url(#linear-gradient-3);}</style><linearGradient id="linear-gradient" x1="67.34" y1="29.72" x2="20.34" y2="141.72" gradientUnits="userSpaceOnUse"><stop offset="0" stop-color="#1da5c9"/><stop offset="1" stop-color="#1d85db"/></linearGradient><linearGradient id="linear-gradient-2" x1="55.87" y1="62.65" x2="21.37" y2="108.15" gradientUnits="userSpaceOnUse"><stop offset="0" stop-color="#ebcd1c"/><stop offset="1" stop-color="#eb901c"/></linearGradient><linearGradient id="linear-gradient-3" x1="62.23" y1="40.78" x2="25.73" y2="82.28" xlink:href="#linear-gradient"/></defs><title>Asset 23</title><g id="Layer_2" data-name="Layer 2"><g id="Layer_1-2" data-name="Layer 1"><path class="cls-1" d="M2,131.65H2a11.94,11.94,0,0,1,11.94-11.94h89.48V11.33A9.36,9.36,0,0,0,94.08,2H11.33A9.36,9.36,0,0,0,2,11.33V131.65Z"/><path d="M4,131.65H0V11.33A11.34,11.34,0,0,1,11.33,0H94.08a11.35,11.35,0,0,1,11.34,11.33V121.71H13.94A10,10,0,0,0,4,131.65ZM11.33,4A7.34,7.34,0,0,0,4,11.33V121.88a13.91,13.91,0,0,1,9.94-4.17h87.48V11.33A7.34,7.34,0,0,0,94.08,4Z"/><path class="cls-2" d="M12.32,119.71h91.09a0,0,0,0,1,0,0v23.47a0,0,0,0,1,0,0H12.32A10.32,10.32,0,0,1,2,132.85V130a10.32,10.32,0,0,1,10.32-10.32Z"/><path d="M103.42,145.18H12.32A12.34,12.34,0,0,1,0,132.85V130a12.33,12.33,0,0,1,12.32-12.32h91.1a2,2,0,0,1,2,2v23.47A2,2,0,0,1,103.42,145.18Zm-91.1-23.47A8.33,8.33,0,0,0,4,130v2.82a8.33,8.33,0,0,0,8.32,8.33h89.1V121.71Z"/><path class="cls-2" d="M80.19,13.92H48.07a2,2,0,0,1,0-4H80.19a2,2,0,0,1,0,4Z"/><path class="cls-2" d="M89.32,13.92a2.2,2.2,0,0,1-.77-.15,1.28,1.28,0,0,1-.34-.19,2.16,2.16,0,0,1-.56-.54,2.91,2.91,0,0,1-.18-.35,1.58,1.58,0,0,1-.11-.37,1.75,1.75,0,0,1,0-.4,2.06,2.06,0,0,1,.58-1.42l.31-.25.34-.17a2.4,2.4,0,0,1,.38-.12,2,2,0,0,1,2.39,2,1.75,1.75,0,0,1,0,.4,1.58,1.58,0,0,1-.11.37A2,2,0,0,1,91,13a1.16,1.16,0,0,1-.25.29,1.42,1.42,0,0,1-.3.25,1.33,1.33,0,0,1-.35.19,1.58,1.58,0,0,1-.37.11A1.72,1.72,0,0,1,89.32,13.92Z"/><polygon class="cls-3" points="79.06 82.04 79.06 51.61 52.71 36.39 26.36 51.61 26.36 82.04 52.71 97.25 79.06 82.04"/><path d="M52.71,99.25a2.07,2.07,0,0,1-1-.26L25.36,83.77a2,2,0,0,1-1-1.73V51.61a2,2,0,0,1,1-1.73L51.71,34.66a2,2,0,0,1,2,0L80.06,49.88a2,2,0,0,1,1,1.73V82a2,2,0,0,1-1,1.73L53.71,99A2.1,2.1,0,0,1,52.71,99.25ZM28.36,80.88,52.71,94.94,77.06,80.88V52.76L52.71,38.7,28.36,52.76ZM79.06,82h0Z"/><polygon class="cls-4" points="79.06 51.61 52.71 36.39 26.36 51.61 52.71 66.82 79.06 51.61"/><path d="M52.71,68.82a2,2,0,0,1-1-.26L25.36,53.34a2,2,0,0,1-1-1.73,2,2,0,0,1,1-1.73L51.71,34.66a2,2,0,0,1,2,0L80.06,49.88a2,2,0,0,1,1,1.73,2,2,0,0,1-1,1.73L53.71,68.56A2,2,0,0,1,52.71,68.82ZM30.36,51.61l22.35,12.9,22.35-12.9L52.71,38.7Z"/><polygon class="cls-2" points="52.71 97.25 52.71 66.82 79.06 51.61 79.06 82.04 52.71 97.25"/><path d="M52.71,99.25a2.07,2.07,0,0,1-1-.26,2,2,0,0,1-1-1.74V66.82a2,2,0,0,1,1-1.73L78.06,49.88a2,2,0,0,1,3,1.73V82a2,2,0,0,1-1,1.73L53.71,99A2.1,2.1,0,0,1,52.71,99.25Zm2-31.27V93.79L77.06,80.88V55.07Z"/></g></g></svg>