<svg xmlns="http://www.w3.org/2000/svg" xmlns:xlink="http://www.w3.org/1999/xlink" viewBox="0 0 117.86 139.3"><defs><style>.cls-1{fill:#fff;}.cls-2{fill:url(#linear-gradient);}.cls-3{fill:url(#linear-gradient-2);}.cls-4{fill:url(#linear-gradient-3);}</style><linearGradient id="linear-gradient" x1="54.28" y1="27.55" x2="51.12" y2="115.55" gradientUnits="userSpaceOnUse"><stop offset="0" stop-color="#1da5c9"/><stop offset="1" stop-color="#1d85db"/></linearGradient><linearGradient id="linear-gradient-2" x1="81.93" y1="28.55" x2="78.77" y2="116.55" xlink:href="#linear-gradient"/><linearGradient id="linear-gradient-3" x1="95.21" y1="69.15" x2="68.54" y2="156.49" gradientUnits="userSpaceOnUse"><stop offset="0" stop-color="#ebcd1c"/><stop offset="1" stop-color="#eb901c"/></linearGradient></defs><title>Asset 25</title><g id="Layer_2" data-name="Layer 2"><g id="Layer_1-2" data-name="Layer 1"><polygon class="cls-1" points="106.24 92.28 106.24 32.09 54.12 2 2 32.09 2 92.28 54.12 122.37 106.24 92.28"/><path d="M54.12,124.37a2,2,0,0,1-1-.27L1,94a2,2,0,0,1-1-1.73V32.09a2,2,0,0,1,1-1.73L53.12.27a2,2,0,0,1,2,0l52.12,30.09a2,2,0,0,1,1,1.73V92.28a2,2,0,0,1-1,1.73L55.12,124.1A2,2,0,0,1,54.12,124.37ZM4,91.12l50.12,28.94,50.12-28.94V33.25L54.12,4.31,4,33.25Zm102.24,1.16h0Z"/><polygon class="cls-2" points="106.24 32.09 54.12 2 2 32.09 54.12 62.18 106.24 32.09"/><path d="M54.12,64.18a2,2,0,0,1-1-.26L1,33.82a2,2,0,0,1-1-1.73,2,2,0,0,1,1-1.73L53.12.27a2,2,0,0,1,2,0l52.12,30.09a2,2,0,0,1,1,1.73,2,2,0,0,1-1,1.73L55.12,63.92A2,2,0,0,1,54.12,64.18ZM6,32.09,54.12,59.87l48.12-27.78L54.12,4.31Z"/><path class="cls-1" d="M21.86,30.86a2,2,0,0,1-1-3.73l23-13.39a2,2,0,1,1,2,3.46l-23,13.39A2,2,0,0,1,21.86,30.86Z"/><path class="cls-1" d="M50.84,14a1.72,1.72,0,0,1-.39,0,1.58,1.58,0,0,1-.37-.11,2.31,2.31,0,0,1-.35-.18,2.48,2.48,0,0,1-.3-.25A2,2,0,0,1,48.84,12a1.72,1.72,0,0,1,0-.39,1.58,1.58,0,0,1,.11-.37,2.37,2.37,0,0,1,.19-.35,1.81,1.81,0,0,1,.25-.3,1.42,1.42,0,0,1,.3-.25,2.37,2.37,0,0,1,.35-.19,2.26,2.26,0,0,1,.37-.11,2,2,0,0,1,.78,0,2.38,2.38,0,0,1,.38.11,2.27,2.27,0,0,1,.34.19,2.16,2.16,0,0,1,.55.55,2.37,2.37,0,0,1,.19.35,2.26,2.26,0,0,1,.11.37,1.72,1.72,0,0,1,0,.39,2,2,0,0,1-.59,1.42,2.48,2.48,0,0,1-.3.25,2.21,2.21,0,0,1-.34.18,1.66,1.66,0,0,1-.38.11A1.72,1.72,0,0,1,50.84,14Z"/><path d="M26.19,72.55a2,2,0,0,1-2-2V46.26a2,2,0,0,1,1-1.73l52.12-30.1a2,2,0,0,1,2,3.47L28.19,47.41V70.55A2,2,0,0,1,26.19,72.55Z"/><polygon class="cls-3" points="54.12 122.37 54.12 62.18 106.24 32.09 106.24 92.28 54.12 122.37"/><path d="M54.12,124.37a2,2,0,0,1-1-.27,2,2,0,0,1-1-1.73V62.18a2,2,0,0,1,1-1.73l52.12-30.09a2,2,0,0,1,3,1.73V92.28a2,2,0,0,1-1,1.73L55.12,124.1A2,2,0,0,1,54.12,124.37Zm2-61V118.9l48.12-27.78V35.56Z"/><path class="cls-4" d="M99.28,83.56c0-4.83-3.79-7.39-8.7-7.39s-8.43,2.24-12.07,5.43l-9.59-8.78c5.63-6.29,13.52-10.64,22.84-10.64,13.49,0,24.1,6.25,24.1,19.22,0,15.49-19.18,17.43-17.77,31H83C80.47,96.7,99.28,92.34,99.28,83.56Zm-16.4,46.1a7.5,7.5,0,1,1,15,0,7.5,7.5,0,1,1-15,0Z"/><path d="M90.37,139.3a9.36,9.36,0,0,1-9.49-9.64,9.5,9.5,0,1,1,19,0A9.36,9.36,0,0,1,90.37,139.3Zm0-15.14a5.2,5.2,0,0,0-5.49,5.5,5.5,5.5,0,1,0,11,0A5.21,5.21,0,0,0,90.37,124.16Zm7.72-9.76H83a2,2,0,0,1-2-1.69c-1.63-10.31,4.93-16.2,10.2-20.94,3.27-3,6.1-5.49,6.1-8.21,0-5-5.13-5.39-6.7-5.39-4.24,0-7.37,2-10.76,4.94a2,2,0,0,1-2.67,0L67.57,74.3a2,2,0,0,1-.14-2.81A32.49,32.49,0,0,1,91.76,60.18c16.1,0,26.1,8.13,26.1,21.22,0,8.73-5.44,13.57-10.23,17.85-4.37,3.89-8.14,7.25-7.55,12.94a2,2,0,0,1-.51,1.55A2,2,0,0,1,98.09,114.4Zm-13.34-4H96c.25-6.39,4.66-10.32,8.94-14.14,4.58-4.07,8.9-7.93,8.9-14.86,0-10.78-8.26-17.22-22.1-17.22a28.26,28.26,0,0,0-20,8.54l6.79,6.22c3.21-2.6,7-4.77,12-4.77,6.4,0,10.7,3.77,10.7,9.39,0,4.5-3.61,7.75-7.43,11.18C89.19,98.94,84.38,103.26,84.75,110.4Z"/></g></g></svg>