<svg xmlns="http://www.w3.org/2000/svg" xmlns:xlink="http://www.w3.org/1999/xlink" viewBox="0 0 128.38 139.96"><defs><style>.cls-1{fill:#fff;}.cls-2{fill:url(#linear-gradient);}.cls-3{fill:url(#linear-gradient-2);}</style><linearGradient id="linear-gradient" x1="62.6" y1="17.78" x2="13.94" y2="131.11" gradientUnits="userSpaceOnUse"><stop offset="0" stop-color="#1da5c9"/><stop offset="1" stop-color="#1d85db"/></linearGradient><linearGradient id="linear-gradient-2" x1="22.35" y1="54.5" x2="71.31" y2="54.5" gradientUnits="userSpaceOnUse"><stop offset="0" stop-color="#ebcd1c"/><stop offset="1" stop-color="#eb901c"/></linearGradient></defs><title>Asset 21</title><g id="Layer_2" data-name="Layer 2"><g id="Layer_1-2" data-name="Layer 1"><rect class="cls-1" x="36.71" y="32.96" width="89.67" height="105" rx="10" ry="10"/><path d="M116.38,140H46.71a12,12,0,0,1-12-12V43a12,12,0,0,1,12-12h69.67a12,12,0,0,1,12,12v85A12,12,0,0,1,116.38,140ZM46.71,35a8,8,0,0,0-8,8v85a8,8,0,0,0,8,8h69.67a8,8,0,0,0,8-8V43a8,8,0,0,0-8-8Z"/><rect class="cls-1" x="19.67" y="18.68" width="89.67" height="105" rx="10" ry="10"/><path d="M99.33,125.68H29.67a12,12,0,0,1-12-12v-85a12,12,0,0,1,12-12H99.33a12,12,0,0,1,12,12v85A12,12,0,0,1,99.33,125.68Zm-69.66-105a8,8,0,0,0-8,8v85a8,8,0,0,0,8,8H99.33a8,8,0,0,0,8-8v-85a8,8,0,0,0-8-8Z"/><rect class="cls-2" x="2" y="2" width="89.67" height="105" rx="10" ry="10"/><path d="M81.67,109H12A12,12,0,0,1,0,97V12A12,12,0,0,1,12,0H81.67a12,12,0,0,1,12,12V97A12,12,0,0,1,81.67,109ZM12,4a8,8,0,0,0-8,8V97a8,8,0,0,0,8,8H81.67a8,8,0,0,0,8-8V12a8,8,0,0,0-8-8Z"/><polygon class="cls-3" points="71.31 42.07 63.76 34.52 38.9 59.38 29.91 50.38 22.35 57.94 38.9 74.48 38.9 74.48 38.9 74.48 71.31 42.07"/><path d="M63.76,34.52l7.55,7.55L38.9,74.48h0L22.35,57.94l7.56-7.56,9,9L63.76,34.52m0-4a4,4,0,0,0-2.83,1.17l-22,22-6.16-6.16a4,4,0,0,0-5.66,0l-7.55,7.55a4,4,0,0,0,0,5.66L36.07,77.31a4,4,0,0,0,2.83,1.17H39a3.83,3.83,0,0,0,.9-.12,3.89,3.89,0,0,0,1.86-1L74.14,44.9a4,4,0,0,0,0-5.66l-7.55-7.55a4,4,0,0,0-2.83-1.17Z"/><path class="cls-1" d="M39.67,13.7h-20a2,2,0,0,1,0-4h20a2,2,0,0,1,0,4Z"/><path class="cls-1" d="M49,13.69a2,2,0,0,1-.77-.15,2,2,0,0,1-.64-.43,2,2,0,0,1,0-2.83,2,2,0,0,1,1.8-.55,2.4,2.4,0,0,1,.38.12,2.21,2.21,0,0,1,.34.18l.31.25a2,2,0,0,1,0,2.83A2,2,0,0,1,49,13.69Z"/></g></g></svg>