<svg xmlns="http://www.w3.org/2000/svg" xmlns:xlink="http://www.w3.org/1999/xlink" viewBox="0 0 143.13 138.64"><defs><style>.cls-1{fill:url(#linear-gradient);}.cls-2{fill:#fff;}.cls-3{fill:url(#linear-gradient-2);}</style><linearGradient id="linear-gradient" x1="75.31" y1="10.53" x2="57.98" y2="153.19" gradientTransform="translate(141.11 5.77) rotate(90)" gradientUnits="userSpaceOnUse"><stop offset="0" stop-color="#1da5c9"/><stop offset="1" stop-color="#1d85db"/></linearGradient><linearGradient id="linear-gradient-2" x1="59" y1="43.76" x2="141.13" y2="43.76" gradientTransform="translate(-0.34 83.07) rotate(-44.3)" gradientUnits="userSpaceOnUse"><stop offset="0" stop-color="#ebcd1c"/><stop offset="1" stop-color="#eb901c"/></linearGradient></defs><title>Asset 20</title><g id="Layer_2" data-name="Layer 2"><g id="Layer_1-2" data-name="Layer 1"><rect class="cls-1" x="4.47" y="14.52" width="126.41" height="117.84" rx="10" ry="10" transform="translate(-5.77 141.11) rotate(-90)"/><path d="M116.59,138.64H18.75a12,12,0,0,1-12-12V20.23a12,12,0,0,1,12-12h97.84a12,12,0,0,1,12,12V126.64A12,12,0,0,1,116.59,138.64ZM18.75,12.23a8,8,0,0,0-8,8V126.64a8,8,0,0,0,8,8h97.84a8,8,0,0,0,8-8V20.23a8,8,0,0,0-8-8Z"/><path class="cls-2" d="M28.23,10.23V136.64H20.07a11.19,11.19,0,0,1-11.32-11V21.23a11.19,11.19,0,0,1,11.32-11Z"/><path d="M28.23,138.64H20.07a13.18,13.18,0,0,1-13.32-13V21.23a13.18,13.18,0,0,1,13.32-13h8.16a2,2,0,0,1,2,2V136.64A2,2,0,0,1,28.23,138.64ZM20.07,12.23a9.18,9.18,0,0,0-9.32,9V125.65a9.17,9.17,0,0,0,9.32,9h6.16V12.23Z"/><line class="cls-2" x1="2" y1="111.13" x2="16.63" y2="111.13"/><path d="M16.63,113.13H2a2,2,0,0,1,0-4H16.63a2,2,0,0,1,0,4Z"/><line class="cls-2" x1="2" y1="86" x2="16.63" y2="86"/><path d="M16.63,88H2a2,2,0,0,1,0-4H16.63a2,2,0,0,1,0,4Z"/><line class="cls-2" x1="2" y1="60.87" x2="16.63" y2="60.87"/><path d="M16.63,62.87H2a2,2,0,0,1,0-4H16.63a2,2,0,1,1,0,4Z"/><line class="cls-2" x1="2" y1="35.74" x2="16.63" y2="35.74"/><path d="M16.63,37.74H2a2,2,0,0,1,0-4H16.63a2,2,0,1,1,0,4Z"/><path class="cls-2" d="M114.45,108.41a2,2,0,0,1-2-2V77.09a2,2,0,0,1,4,0v29.32A2,2,0,0,1,114.45,108.41Z"/><path class="cls-2" d="M114.45,117.21a2,2,0,0,1-2-2,2.58,2.58,0,0,1,0-.39c0-.12.07-.25.11-.37a2.37,2.37,0,0,1,.19-.35,1.73,1.73,0,0,1,.25-.3,3.47,3.47,0,0,1,.29-.25,2.42,2.42,0,0,1,.36-.18,2.29,2.29,0,0,1,.37-.12,2,2,0,0,1,.77,0,2.22,2.22,0,0,1,.39.12,2.79,2.79,0,0,1,.34.18,2.48,2.48,0,0,1,.3.25,2,2,0,0,1,0,2.83,1.81,1.81,0,0,1-.3.25,2.79,2.79,0,0,1-.34.18,2.22,2.22,0,0,1-.39.12A2.34,2.34,0,0,1,114.45,117.21Z"/><path class="cls-2" d="M50.81,93.07,59,70.72l2.46-2.52L76.51,83.13l-2.34,2.39L52,94.25A.9.9,0,0,1,50.81,93.07Z"/><path d="M51.61,96.33a2.84,2.84,0,0,1-2-.81,2.94,2.94,0,0,1-.67-3.12v0L57.12,70a2.14,2.14,0,0,1,.45-.71L60,66.8a2,2,0,0,1,2.84,0L77.92,81.71a2,2,0,0,1,0,2.81l-2.34,2.4a1.94,1.94,0,0,1-.7.46L52.76,96.11A3.21,3.21,0,0,1,51.61,96.33Zm9.12-24.52-7.22,19.7L73,83.82l.65-.67L61.48,71Z"/><path class="cls-3" d="M100-8.59h3.68A8.76,8.76,0,0,1,112.48.17V92.49a0,0,0,0,1,0,0H91.28a0,0,0,0,1,0,0V.17A8.76,8.76,0,0,1,100-8.59Z" transform="translate(58.25 -59.22) rotate(44.3)"/><path d="M74.17,87.52a2,2,0,0,1-1.4-.56L57.6,72.15a2,2,0,0,1,0-2.83L122,3.25A10.68,10.68,0,0,1,129.61,0a10.56,10.56,0,0,1,7.64,3.06l2.63,2.57a10.74,10.74,0,0,1,.19,15.21L75.6,86.92A2,2,0,0,1,74.17,87.52ZM61.83,70.69l12.3,12,63.08-64.65a6.76,6.76,0,0,0-.12-9.56l-2.63-2.57A6.56,6.56,0,0,0,129.65,4a6.71,6.71,0,0,0-4.75,2Z"/></g></g></svg>