<?xml version="1.0" encoding="utf-8"?>
<!-- Generator: Adobe Illustrator 22.0.1, SVG Export Plug-In . SVG Version: 6.00 Build 0)  -->
<svg version="1.1" id="Layer_1" xmlns="http://www.w3.org/2000/svg" xmlns:xlink="http://www.w3.org/1999/xlink" x="0px" y="0px"
	 viewBox="0 0 800 573.4" style="enable-background:new 0 0 800 573.4;" xml:space="preserve">
<style type="text/css">
	.st0{fill:#D9DFE6;}
	.st1{fill:#278DCB;}
	.st2{fill:none;stroke:#FFFFFF;stroke-width:9.0812;stroke-linecap:round;stroke-linejoin:round;stroke-miterlimit:10;}
	.st3{fill:none;stroke:#020202;stroke-width:9.0812;stroke-linecap:round;stroke-linejoin:round;stroke-miterlimit:10;}
	.st4{fill:none;stroke:#FFFFFF;stroke-width:9.0812;stroke-linecap:round;stroke-miterlimit:10;}
	.st5{fill:#FFFFFF;stroke:#020202;stroke-width:9.0812;stroke-linecap:round;stroke-linejoin:round;stroke-miterlimit:10;}
	.st6{fill:none;stroke:#246599;stroke-width:9.0812;stroke-linecap:round;stroke-miterlimit:10;}
	.st7{fill:#ECCE21;stroke:#020202;stroke-width:9.0812;stroke-miterlimit:10;}
	.st8{fill:#278DCB;stroke:#020202;stroke-width:9.0812;stroke-linecap:round;stroke-linejoin:round;stroke-miterlimit:10;}
	.st9{fill:#228ECA;}
	.st10{fill:#ED6F8A;stroke:#020202;stroke-width:9.0812;stroke-miterlimit:10;}
	.st11{fill:#FFFFFF;}
	.st12{fill:#FFFFFF;stroke:#020202;stroke-width:9.0812;stroke-miterlimit:10;}
	.st13{fill:#ECCE21;stroke:#020202;stroke-width:9.0812;stroke-linecap:round;stroke-linejoin:round;stroke-miterlimit:10;}
	.st14{fill:#020202;}
	.st15{fill:none;stroke:#FFFFFF;stroke-width:6.8109;stroke-linecap:round;stroke-miterlimit:10;}
	.st16{fill:#ECCE21;}
</style>
<path class="st0" d="M-873.9,668.7h88.8h434.2h104.2c25.9,0,46.9-21,46.9-46.9v0c0-25.9-21-46.9-46.9-46.9h-67.9
	c-25.7,0-46.6-20.7-46.9-46.4v0c-0.2-26,20.8-47.3,46.9-47.3h52.5c25.9,0,46.9-21,46.9-46.9v0c0-25.9-21-46.9-46.9-46.9h-88.8
	h-481.2h-57.2c-25.9,0-46.9,21-46.9,46.9v0c0,25.9,21,46.9,46.9,46.9h52.2c25.7,0,46.6,20.7,46.9,46.4v0c0.2,26-20.8,47.3-46.9,47.3
	h-36.8c-25.9,0-46.9,21-46.9,46.9v0C-920.8,647.7-899.8,668.7-873.9,668.7z M-487.9,481.3c25.9,0,46.9,21,46.9,46.9v0
	c0,25.9-21,46.9-46.9,46.9h-191.6c-25.9,0-46.9-21-46.9-46.9v0c0-25.9,21-46.9,46.9-46.9H-487.9z"/>
<g>
	<path class="st1" d="M1980.5-321.9h-378.7c-12.5,0-22.7,10.2-22.7,22.7V-7h424.1v-292.2C2003.2-311.7,1993-321.9,1980.5-321.9z"/>
	<g>
		<path class="st2" d="M1573.5-11.8"/>
		<path class="st3" d="M1980.5-321.9h-378.7c-12.5,0-22.7,10.2-22.7,22.7V-7h424.1v-292.2C2003.2-311.7,1993-321.9,1980.5-321.9z"/>
		<line class="st4" x1="1981" y1="-274.9" x2="1981" y2="-222.2"/>
		<path class="st5" d="M2042.7,16.8h-503.1c-8.9,0-16.1-7.3-16.1-16.1v-3.4c0-8.9,7.3-16.1,16.1-16.1H2043c8.9,0,16.1,7.3,16.1,16.1
			v3.4C2059.1,9.6,2051.8,16.8,2042.7,16.8z"/>
		<rect x="1621.4" y="-119.6" class="st5" width="126.7" height="63.3"/>
		<line class="st6" x1="1771.7" y1="-240.2" x2="1946.9" y2="-240.2"/>
		<line class="st6" x1="1771.7" y1="-269.7" x2="1946.9" y2="-269.7"/>
		<circle class="st7" cx="1681.5" cy="-219" r="60.2"/>
		<line class="st4" x1="1981" y1="-206.3" x2="1981" y2="-206.3"/>
	</g>
	<g>
		<g>
			<path class="st5" d="M1908.1-188.4h-53.8h-17.3c-10.9,0-19.8,8.9-19.8,19.8V33c0,10.9,8.9,19.8,19.8,19.8h88.3
				c10.9,0,19.8-8.9,19.8-19.8v-201.6c0-10.9-8.9-19.8-19.8-19.8H1908.1z"/>
		</g>
		<g>
			<path class="st8" d="M1908.1-188.4v12c0,2.7-2.3,5-5,5h-43.8c-2.7,0-5-2.3-5-5v-12h-17.3c-10.9,0-19.8,8.9-19.8,19.8V33
				c0,10.9,8.9,19.8,19.8,19.8h88.3c10.9,0,19.8-8.9,19.8-19.8v-201.6c0-10.9-8.9-19.8-19.8-19.8H1908.1z"/>
		</g>
		<line class="st4" x1="1926.3" y1="-132.5" x2="1926.1" y2="-164.3"/>
		<line class="st4" x1="1926.3" y1="-116.7" x2="1926.3" y2="-116.7"/>
		<circle class="st7" cx="1881.3" cy="-68.5" r="41.5"/>
		<line class="st6" x1="1852" y1="-2.9" x2="1910.6" y2="-2.9"/>
		<line class="st6" x1="1852" y1="19.8" x2="1910.6" y2="19.8"/>
	</g>
</g>
<g>
	<g>
		
			<rect x="1519.3" y="383.7" transform="matrix(0.7071 -0.7071 0.7071 0.7071 44.384 1278.7999)" class="st9" width="93.1" height="404.3"/>
		<g>
			<line class="st4" x1="1551.9" y1="628.6" x2="1575.5" y2="604.7"/>
			<line class="st4" x1="1526.4" y1="603.1" x2="1566.4" y2="563.2"/>
			<line class="st4" x1="1577.1" y1="653.8" x2="1617" y2="613.8"/>
			<line class="st4" x1="1602.5" y1="679.2" x2="1626.1" y2="655.3"/>
			<line class="st4" x1="1652.9" y1="729.6" x2="1676.7" y2="706"/>
			<line class="st4" x1="1627.7" y1="704.4" x2="1667.6" y2="664.4"/>
			<line class="st4" x1="1501.2" y1="577.9" x2="1525.1" y2="554.1"/>
			<line class="st4" x1="1476" y1="552.7" x2="1516" y2="512.5"/>
			<line class="st4" x1="1425.4" y1="502.1" x2="1465.4" y2="462.1"/>
			<line class="st4" x1="1450.6" y1="527.3" x2="1474.4" y2="503.5"/>
		</g>
		
			<rect x="1519.3" y="383.7" transform="matrix(0.7071 -0.7071 0.7071 0.7071 44.384 1278.7999)" class="st3" width="93.1" height="404.3"/>
	</g>
	<polygon class="st5" points="1399.5,763.9 1420.2,686.7 1432.9,673.5 1489.2,728.2 1476.3,741.4 	"/>
	<path class="st10" d="M1643.1,538l-23.6-23.2c-8.9-8.6-9.1-23.2-0.5-32l56.1-57.4c8.6-8.9,23.2-9.1,32-0.5l23.6,23.2
		c8.9,8.6,9.1,23.2,0.5,32l-56.1,57.4C1666.5,546.6,1652,546.6,1643.1,538z"/>
	
		<rect x="1413.2" y="552.5" transform="matrix(0.6984 -0.7158 0.7158 0.6984 49.3396 1300.5737)" class="st7" width="309" height="78.6"/>
	<line class="st4" x1="1569.6" y1="566.1" x2="1629.5" y2="503.9"/>
	<circle class="st11" cx="1640.9" cy="492.1" r="4.5"/>
</g>
<g>
	<path class="st0" d="M768.1,457.7c0,25.9-21,46.9-46.9,46.9H94.1c-12.9,0-24.7-5.2-33.1-13.7c-8.5-8.5-13.7-20.2-13.7-33.1
		c0-25.9,21-46.9,46.9-46.9h36.8c25.9,0,46.9-21,46.9-46.8v-0.4c-0.2-25.7-21.1-46.4-46.9-46.4H78.7c-12.9,0-24.6-5.2-33.1-13.7
		c-8.5-8.5-13.7-20.2-13.7-33.1c0-25.9,21-46.9,46.9-46.9h627.2c12.9,0,24.6,5.2,33.1,13.7c8.5,8.5,13.7,20.2,13.7,33.1
		c0,25.9-21,46.9-46.9,46.9h-52.5c-25.9,0-46.9,21-46.9,46.9v0.4c0.2,25.7,21.1,46.5,46.9,46.5h67.9c12.9,0,24.7,5.2,33.1,13.7
		C762.9,433.1,768.1,444.8,768.1,457.7z"/>
	<g>
		<g>
			<path class="st2" d="M198.5,332.8"/>
			<g>
				<path class="st8" d="M580.1,114.9h-366c-6.1,0-11.1,5-11.1,11.1v210.7h388.2V126C591.3,119.9,586.3,114.9,580.1,114.9z"/>
			</g>
			<path class="st12" d="M577,389.4H217.6c-7.9,0-14.5-6.6-14.5-14.5v-47.9h388.2v47.9C591.3,382.8,584.9,389.4,577,389.4z"/>
		</g>
		<rect x="345.2" y="389.4" class="st12" width="99.7" height="71.1"/>
		<line class="st3" x1="308.8" y1="460.4" x2="481.2" y2="460.4"/>
		<polyline class="st2" points="250,286.1 293.2,247.5 320.9,274.3 403.3,202.1 429.4,228.2 491.8,173.7 513.8,190.9 544,166.4 		
			"/>
		<circle class="st13" cx="397.2" cy="225.7" r="67.7"/>
		<g>
			<path class="st14" d="M372.2,252.2l7.7-12.3c5.7,4.3,10.2,5.9,14.5,5.9c5.2,0,7.5-1.8,7.5-5.9c0-8.4-27.2-9.5-27.2-28.2
				c0-12.9,8.9-20.9,23.2-20.9c9.3,0,15.9,3.9,21.1,9.3l-9.1,10.4c-3.9-3.4-7-5-10.9-5c-4.5,0-6.8,1.4-6.8,5.4
				c0,7.9,27.2,8.4,27.2,27.7c0,12.5-7.9,21.8-24.7,21.8C388.3,260.6,378.5,258.1,372.2,252.2z M391,180.5h11.8v15.9H391V180.5z
				 M391,252.9h11.8v17.9H391V252.9z"/>
		</g>
		<line class="st15" x1="250" y1="131" x2="232.3" y2="131"/>
		<line class="st15" x1="261.6" y1="131" x2="261.6" y2="131"/>
		<polygon class="st16" points="115.6,145.5 106.8,114.7 75.9,105.8 106.8,96.7 115.6,65.9 124.7,96.7 155.6,105.8 124.7,114.7 		
			"/>
		<polygon class="st16" points="697.7,406.9 688.7,376 657.8,366.9 688.7,358 697.7,327.2 706.6,358 737.5,366.9 706.6,376 		"/>
	</g>
</g>
</svg>
