<?xml version="1.0" encoding="utf-8"?>
<!-- Generator: Adobe Illustrator 22.0.1, SVG Export Plug-In . SVG Version: 6.00 Build 0)  -->
<svg version="1.1" id="Layer_1" xmlns="http://www.w3.org/2000/svg" xmlns:xlink="http://www.w3.org/1999/xlink" x="0px" y="0px"
	 viewBox="0 0 400 400" style="enable-background:new 0 0 400 400;" xml:space="preserve">
<style type="text/css">
	.st0{fill:#FFFFFF;stroke:#000000;stroke-width:5;stroke-linecap:round;stroke-linejoin:round;stroke-miterlimit:10;}
	.st1{fill:#208CCB;stroke:#000000;stroke-width:5;stroke-linecap:round;stroke-linejoin:round;stroke-miterlimit:10;}
	.st2{fill:none;stroke:#FFFFFF;stroke-width:5;stroke-linecap:round;stroke-linejoin:round;stroke-miterlimit:10;}
</style>
<g>
	<g>
		<g>
			<path class="st0" d="M305.5,94.7H94.5c-5.5,0-10,4.5-10,10v27.2h231.1v-27.2C315.5,99.2,311,94.7,305.5,94.7z"/>
			<path class="st1" d="M305.5,305.3H94.5c-5.5,0-10-4.5-10-10V122.1h231.1v173.2C315.5,300.8,311,305.3,305.5,305.3z"/>
			<path class="st2" d="M100,280.6"/>
		</g>
		<line class="st2" x1="104.6" y1="197.7" x2="104.6" y2="165.3"/>
		<line class="st2" x1="104.6" y1="148.1" x2="104.6" y2="148.1"/>
		<polyline class="st2" points="163.3,236.7 132.6,214.1 164.4,190.7 		"/>
		<polyline class="st2" points="236.7,190.7 267.4,213.3 235.6,236.7 		"/>
		<line class="st2" x1="215.2" y1="170" x2="184.8" y2="257.5"/>
	</g>
</g>
</svg>
