<?xml version="1.0" encoding="utf-8"?>
<!-- Generator: Adobe Illustrator 22.0.1, SVG Export Plug-In . SVG Version: 6.00 Build 0)  -->
<svg version="1.1" id="Layer_1" xmlns="http://www.w3.org/2000/svg" xmlns:xlink="http://www.w3.org/1999/xlink" x="0px" y="0px"
	 viewBox="0 0 600 600" style="enable-background:new 0 0 600 600;" xml:space="preserve">
<style type="text/css">
	.st0{fill:#D8DFE6;}
	.st1{fill:#208CCB;stroke:#000000;stroke-width:4;stroke-linecap:round;stroke-linejoin:round;stroke-miterlimit:10;}
	.st2{fill:#ECCD1A;stroke:#000000;stroke-width:4;stroke-linecap:round;stroke-linejoin:round;stroke-miterlimit:10;}
	.st3{fill:#FFFFFF;stroke:#000000;stroke-width:4;stroke-miterlimit:10;}
	.st4{fill:#F06E8A;stroke:#000000;stroke-width:4;stroke-miterlimit:10;}
	.st5{fill:#3BACE1;stroke:#000000;stroke-width:4;stroke-linecap:round;stroke-miterlimit:10;}
	.st6{fill:none;stroke:#226399;stroke-width:4;stroke-linecap:round;stroke-miterlimit:10;}
	.st7{fill:#FFFFFF;}
	.st8{fill:none;stroke:#FFFFFF;stroke-width:4;stroke-linecap:round;stroke-miterlimit:10;}
	.st9{fill:#208CCB;}
	.st10{fill:none;stroke:#000000;stroke-width:4;stroke-linecap:round;stroke-linejoin:round;stroke-miterlimit:10;}
	.st11{fill:none;stroke:#000000;stroke-width:4;stroke-miterlimit:10;}
</style>
<g>
	<g>
		<g>
			<g>
				<path class="st0" d="M84.9,572.7L84.9,572.7c0,15.1,12.3,27.3,27.5,27.3h324.7c15.2,0,27.5-12.2,27.5-27.3v0
					c0-15.1-12.3-27.3-27.5-27.3h-54.8c-15.2,0-27.5-12.2-27.5-27.3v0c0-15.1,12.3-27.3,27.5-27.3h54.8c15.2,0,27.5-12.2,27.5-27.3
					v0c0-15.1-12.3-27.3-27.5-27.3H57.5C42.3,436,30,448.2,30,463.3v0c0,15.1,12.3,27.3,27.5,27.3h104c15.1,0,27.3,12.1,27.5,27.1
					l0,0c0.1,15.2-12.2,27.6-27.5,27.6h-49.1C97.2,545.3,84.9,557.6,84.9,572.7z"/>
			</g>
		</g>
	</g>
	<path class="st0" d="M89.8,222.9h59.8h292.6h70.2c17.4,0,31.6-14.1,31.6-31.4v0c0-17.4-14.1-31.4-31.6-31.4h-45.7
		c-17.3,0-31.4-13.9-31.6-31.2v0c-0.2-17.5,14-31.7,31.6-31.7h35.4c17.4,0,31.6-14.1,31.6-31.4v0c0-17.4-14.1-31.4-31.6-31.4h-59.8
		H118H79.5c-17.4,0-31.6,14.1-31.6,31.4v0c0,17.4,14.1,31.4,31.6,31.4h35.2c17.3,0,31.4,13.9,31.6,31.2v0
		c0.2,17.5-14,31.7-31.6,31.7H89.8c-17.4,0-31.6,14.1-31.6,31.4v0C58.3,208.8,72.4,222.9,89.8,222.9z M350,97.1
		c17.4,0,31.6,14.1,31.6,31.4v0c0,17.4-14.1,31.4-31.6,31.4H220.8c-17.4,0-31.6-14.1-31.6-31.4v0c0-17.4,14.1-31.4,31.6-31.4H350z"
		/>
	<path class="st1" d="M415,380.6H190V85.2c0-8.7,7-15.7,15.7-15.7h193.6c8.7,0,15.7,7,15.7,15.7V380.6z"/>
	<path class="st1" d="M415,380.6H190v116c0,8.7,7,15.7,15.7,15.7h193.6c8.7,0,15.7-7,15.7-15.7V380.6z"/>
	<ellipse class="st2" cx="221.5" cy="100.2" rx="8.9" ry="8.9"/>
	<ellipse class="st3" cx="249.3" cy="100.2" rx="8.9" ry="8.9"/>
	<ellipse class="st4" cx="277.6" cy="100.2" rx="8.9" ry="8.9"/>
	<g>
		<rect x="210.7" y="123" class="st5" width="183.5" height="37.5"/>
		<line class="st6" x1="226.4" y1="145.8" x2="247.3" y2="145.8"/>
		<line class="st6" x1="258.2" y1="145.8" x2="322" y2="145.8"/>
		<path class="st3" d="M372.8,152.2H345c-4,0-7.2-3.2-7.2-7.2v-0.5c0-4,3.2-7.2,7.2-7.2h27.8c4,0,7.2,3.2,7.2,7.2v0.5
			C380,149,376.7,152.2,372.8,152.2z"/>
		<rect x="210.7" y="122" class="st7" width="183.5" height="8.5"/>
	</g>
	<g>
		<rect x="210.7" y="187.5" class="st5" width="183.5" height="37.5"/>
		<line class="st6" x1="226.4" y1="210.3" x2="247.3" y2="210.3"/>
		<line class="st6" x1="258.2" y1="210.3" x2="322" y2="210.3"/>
		<path class="st2" d="M372.8,215.7H345c-4,0-7.2-3.2-7.2-7.2v-0.5c0-4,3.2-7.2,7.2-7.2h27.8c4,0,7.2,3.2,7.2,7.2v0.5
			C380,212.5,376.7,215.7,372.8,215.7z"/>
		<rect x="210.7" y="186.5" class="st7" width="183.5" height="8.5"/>
	</g>
	<g>
		<rect x="210.7" y="251.6" class="st5" width="183.5" height="37.5"/>
		<line class="st6" x1="226.4" y1="274.4" x2="247.3" y2="274.4"/>
		<line class="st6" x1="258.2" y1="274.4" x2="322" y2="274.4"/>
		<path class="st3" d="M372.8,279.8H345c-4,0-7.2-3.2-7.2-7.2v-0.5c0-4,3.2-7.2,7.2-7.2h27.8c4,0,7.2,3.2,7.2,7.2v0.5
			C380,276.6,376.7,279.8,372.8,279.8z"/>
		<rect x="210.7" y="250.6" class="st7" width="183.5" height="8.5"/>
	</g>
	<g>
		<rect x="210.7" y="315.8" class="st5" width="183.5" height="37.5"/>
		<line class="st6" x1="226.4" y1="338.5" x2="247.3" y2="338.5"/>
		<line class="st6" x1="258.2" y1="338.5" x2="322" y2="338.5"/>
		<path class="st3" d="M372.8,344H345c-4,0-7.2-3.2-7.2-7.2v-0.5c0-4,3.2-7.2,7.2-7.2h27.8c4,0,7.2,3.2,7.2,7.2v0.5
			C380,340.7,376.7,344,372.8,344z"/>
		<rect x="210.7" y="314.7" class="st7" width="183.5" height="8.5"/>
	</g>
	<polygon class="st7" points="412.9,79.7 191,79.7 199.8,71.2 407.1,71.2 	"/>
	<rect x="191" y="382" class="st7" width="221.9" height="8.5"/>
	<line class="st8" x1="395.9" y1="371" x2="364.3" y2="371"/>
	<line class="st8" x1="356.9" y1="371" x2="356.9" y2="371"/>
	<path class="st5" d="M222.8,486.7h-2.7c-4.2,0-7.6-3.4-7.6-7.6v-64.6c0-4.2,3.4-7.6,7.6-7.6h2.7c4.2,0,7.6,3.4,7.6,7.6v64.6
		C230.4,483.3,227,486.7,222.8,486.7z"/>
	<path class="st5" d="M255.6,486.7h-2.7c-4.2,0-7.6-3.4-7.6-7.6v-64.6c0-4.2,3.4-7.6,7.6-7.6h2.7c4.2,0,7.6,3.4,7.6,7.6v64.6
		C263.2,483.3,259.8,486.7,255.6,486.7z"/>
	<path class="st5" d="M288.4,486.7h-2.7c-4.2,0-7.6-3.4-7.6-7.6v-64.6c0-4.2,3.4-7.6,7.6-7.6h2.7c4.2,0,7.6,3.4,7.6,7.6v64.6
		C296,483.3,292.5,486.7,288.4,486.7z"/>
	<path class="st5" d="M321.1,486.7h-2.7c-4.2,0-7.6-3.4-7.6-7.6v-64.6c0-4.2,3.4-7.6,7.6-7.6h2.7c4.2,0,7.6,3.4,7.6,7.6v64.6
		C328.7,483.3,325.3,486.7,321.1,486.7z"/>
	<path class="st5" d="M353.9,486.7h-2.7c-4.2,0-7.6-3.4-7.6-7.6v-64.6c0-4.2,3.4-7.6,7.6-7.6h2.7c4.2,0,7.6,3.4,7.6,7.6v64.6
		C361.5,483.3,358.1,486.7,353.9,486.7z"/>
	<path class="st5" d="M386.7,486.7H384c-4.2,0-7.6-3.4-7.6-7.6v-64.6c0-4.2,3.4-7.6,7.6-7.6h2.7c4.2,0,7.6,3.4,7.6,7.6v64.6
		C394.3,483.3,390.8,486.7,386.7,486.7z"/>
	<line class="st8" x1="216.1" y1="501.5" x2="258.2" y2="501.5"/>
	<line class="st8" x1="267" y1="501.5" x2="267" y2="501.5"/>
	<g>
		<ellipse class="st2" cx="465.4" cy="79.7" rx="80" ry="79.7"/>
		<path class="st3" d="M503.5,48l-1.7-0.2c-2.4-0.2-4.5-0.5-6.7-1.2c-7.7-1.8-15.1-5.5-23.2-11.7c-1.3-0.9-3.2-2.1-5.2-2.1
			c-1.9,0-3.9,1.2-5.2,2.1c-8.2,6.2-15.5,9.9-23.2,11.7c-2.2,0.7-4.3,0.9-6.7,1.2l-1.7,0.2c-4.1,0.5-6.5,3.5-6.5,7.6v21.9
			c0,4.8,0,9.9,0.2,14.7c0.2,7.1,2.8,14.3,7.5,20.9c5.4,7.6,35.5,24.8,35.5,24.8s30.1-17.3,35.5-24.8c4.7-6.7,7.3-13.8,7.5-20.9
			c0.2-4.8,0.2-9.9,0.2-14.7V55.6C509.9,51.4,507.6,48.4,503.5,48z"/>
		<g>
			<path class="st9" d="M457.4,107.4c-0.1,0-0.2,0-0.3,0c-0.4-0.1-0.7-0.3-1-0.5l-16.7-16.6c-0.4-0.4-0.6-0.9-0.6-1.4s0.2-1,0.6-1.4
				l7.6-7.6c0.4-0.4,0.9-0.6,1.4-0.6s1,0.2,1.4,0.6l7.7,7.6l23.7-23.6c0.4-0.4,0.9-0.6,1.4-0.6s1,0.2,1.4,0.6l7.6,7.6
				c0.4,0.4,0.6,0.9,0.6,1.4s-0.2,1-0.6,1.4l-32.7,32.6C458.5,107.2,458,107.4,457.4,107.4C457.5,107.4,457.4,107.4,457.4,107.4z"/>
			<path d="M482.6,65.2l7.6,7.6l-32.7,32.6l0,0l0,0l-16.7-16.6l7.6-7.6l9.1,9L482.6,65.2 M482.6,61.2c-1,0-2,0.4-2.8,1.2l-22.3,22.2
				l-6.3-6.2c-0.8-0.8-1.8-1.2-2.8-1.2s-2,0.4-2.8,1.2L438,86c-0.8,0.8-1.2,1.8-1.2,2.8c0,1.1,0.4,2.1,1.2,2.8l16.7,16.6
				c0.8,0.8,1.8,1.2,2.8,1.2c0.5,0,0.9-0.1,1.4-0.2c0.5-0.2,1-0.5,1.5-0.9L493,75.7c0.8-0.8,1.2-1.8,1.2-2.8c0-1.1-0.4-2.1-1.2-2.8
				l-7.6-7.6C484.6,61.6,483.6,61.2,482.6,61.2L482.6,61.2z"/>
		</g>
	</g>
	<g>
		<ellipse class="st2" cx="117.2" cy="285.8" rx="85.6" ry="85.2"/>
		<path class="st3" d="M159.6,263.1c-2,0-4,0.4-5.8,1c0-0.3,0-0.7,0-1c0-18.4-15-33.4-33.5-33.4c-15.1,0-27.8,9.9-32.1,23.5
			c-2.5-0.9-5.1-1.5-7.9-1.5c-12.4,0-22.4,10-22.4,22.3c0,12.3,10,22.3,22.4,22.3h79.3c9.3,0,16.8-7.5,16.8-16.7
			S168.9,263.1,159.6,263.1z"/>
		<line class="st10" x1="117.2" y1="296.8" x2="117.2" y2="318.4"/>
		<line class="st10" x1="72.6" y1="325.1" x2="161.7" y2="325.1"/>
		<ellipse class="st1" cx="117.2" cy="325.1" rx="12" ry="11.9"/>
	</g>
	<g>
		<ellipse class="st2" cx="484.5" cy="476.7" rx="81.5" ry="81.1"/>
		<g>
			<path class="st2" d="M468.6,444.9c0,0-8.7,4.8-11.4,14.1c-2.7,9.3-1.3,18.7,3.5,26.1c4.9,7.1,13.4,12,22.7,12.7
				c0.8,0.1,1.7,0.1,2.7,0.1c8.3,0,15.8-3.1,21-8.7c7.5-8.1,9.5-23-1.3-35.9c-1.6-1.9-3.2-3.6-4.6-5.3c-7.5-8.3-7.4-27.7-7.4-27.7
				s-18.6,10.9-16.3,23c0.1,0.7,0.4,1.6,0.6,2.5c1.3,5.1,1.9,8.7-1.7,10.3c-1.1,0.5-2.1,0.2-3.2-0.6
				C470.6,453.6,468.6,444.9,468.6,444.9z"/>
		</g>
		<path class="st3" d="M532.5,520.2h-96c-2.1,0-3.9-1.8-3.9-3.9v-46c0-2.1,1.8-3.9,3.9-3.9h96c2.1,0,3.9,1.8,3.9,3.9v46
			C536.4,518.5,534.7,520.2,532.5,520.2z"/>
		<path class="st1" d="M536.4,484.3h-79c0,0,0,0,0,0v-17.8c0,0,0,0,0,0h75.2c2.1,0,3.8,1.7,3.8,3.8L536.4,484.3
			C536.4,484.3,536.4,484.3,536.4,484.3z"/>
		<line class="st11" x1="457.4" y1="466.4" x2="457.4" y2="486.7"/>
		<line class="st11" x1="500.7" y1="466.4" x2="500.7" y2="484.3"/>
		<line class="st11" x1="479.1" y1="483.2" x2="479.1" y2="503.5"/>
		<line class="st11" x1="520.7" y1="483.2" x2="520.7" y2="503.5"/>
		<line class="st11" x1="456.4" y1="501.5" x2="456.4" y2="521.8"/>
		<line class="st11" x1="434.2" y1="484.3" x2="536.4" y2="484.3"/>
		<line class="st11" x1="432.6" y1="503.3" x2="536.4" y2="503.3"/>
		<rect x="520.7" y="484.3" class="st1" width="15.7" height="19"/>
		<rect x="432.6" y="484.3" class="st1" width="46.4" height="19"/>
		<rect x="456.4" y="503.5" class="st1" width="45.9" height="16.8"/>
	</g>
</g>
</svg>
