<?xml version="1.0" encoding="utf-8"?>
<!-- Generator: Adobe Illustrator 22.0.1, SVG Export Plug-In . SVG Version: 6.00 Build 0)  -->
<svg version="1.1" id="Layer_1" xmlns="http://www.w3.org/2000/svg" xmlns:xlink="http://www.w3.org/1999/xlink" x="0px" y="0px"
	 viewBox="0 0 400 400" style="enable-background:new 0 0 400 400;" xml:space="preserve">
<style type="text/css">
	.st0{fill:#208CCB;stroke:#000000;stroke-width:5;stroke-linecap:round;stroke-linejoin:round;stroke-miterlimit:10;}
	.st1{fill:#FFFFFF;stroke:#000000;stroke-width:4;stroke-linecap:round;stroke-linejoin:round;stroke-miterlimit:10;}
	.st2{fill:#FFFFFF;stroke:#000000;stroke-width:5;stroke-linecap:round;stroke-linejoin:round;stroke-miterlimit:10;}
	.st3{fill:none;stroke:#FFFFFF;stroke-width:5;stroke-linecap:round;stroke-linejoin:round;stroke-miterlimit:10;}
</style>
<g>
	<path class="st0" d="M323.3,305.5H82v-184c0-5.5,4.5-10,10-10h221.2c5.5,0,10,4.5,10,10V305.5z"/>
	<path class="st1" d="M339.4,318.2H65.8c-3.7,0-6.7-3-6.7-6.7v-12.1c0-3.7,3-6.7,6.7-6.7h273.6c3.7,0,6.7,3,6.7,6.7v12.1
		C346.1,315.2,343.1,318.2,339.4,318.2z"/>
	<g>
		<path class="st0" d="M297.1,78.1l-69,7.5l-73.1,93.8l0,0c-2.5,25,17.6,46.2,41.9,43.9h0l91.7-74.5L297.1,78.1z"/>
		<polygon class="st2" points="233,194.2 244.4,206.2 222.9,277.5 196.8,223.4 		"/>
		<polygon class="st2" points="183.5,142.4 172.2,130.5 102.9,151.7 154.9,179.4 		"/>
		<ellipse class="st2" cx="227.8" cy="149.8" rx="19.1" ry="19.7"/>
		<line class="st3" x1="274.1" y1="122.8" x2="277.7" y2="97.5"/>
		<line class="st3" x1="272.3" y1="139.3" x2="272.3" y2="139.3"/>
		<line class="st3" x1="142.3" y1="205.6" x2="130.1" y2="218.2"/>
		<line class="st3" x1="171.6" y1="235.9" x2="159.4" y2="248.5"/>
		<line class="st3" x1="152.2" y1="225.7" x2="130" y2="248.6"/>
	</g>
</g>
</svg>
