<svg xmlns="http://www.w3.org/2000/svg" viewBox="0 0 161.42 131.42"><defs><style>.cls-1{fill:#208ccb;}.cls-2{fill:#fff;}</style></defs><title>Asset 37</title><g id="Layer_2" data-name="Layer 2"><g id="Layer_1-2" data-name="Layer 1"><path class="cls-1" d="M24.53,19.72H136.89a10,10,0,0,1,10,10v93a0,0,0,0,1,0,0H14.53a0,0,0,0,1,0,0v-93A10,10,0,0,1,24.53,19.72Z"/><path d="M146.89,124.67H14.53a2,2,0,0,1-2-2V29.72a12,12,0,0,1,12-12H136.89a12,12,0,0,1,12,12v93A2,2,0,0,1,146.89,124.67Zm-130.36-4H144.89V29.72a8,8,0,0,0-8-8H24.53a8,8,0,0,0-8,8Z"/><rect class="cls-2" x="2" y="115.94" width="157.42" height="13.49" rx="6.65" ry="6.65"/><path d="M152.76,131.42H8.65A8.66,8.66,0,0,1,0,122.77v-.18a8.67,8.67,0,0,1,8.65-8.66H152.76a8.68,8.68,0,0,1,8.66,8.66v.18A8.67,8.67,0,0,1,152.76,131.42ZM8.65,117.93A4.66,4.66,0,0,0,4,122.59v.18a4.65,4.65,0,0,0,4.65,4.65H152.76a4.66,4.66,0,0,0,4.66-4.65v-.18a4.66,4.66,0,0,0-4.66-4.66Z"/><path class="cls-1" d="M132.52,2,94.64,6l-40.1,49.8h0a21.15,21.15,0,0,0,23,23.29h0l50.31-39.56Z"/><path d="M75.55,81.17a23.16,23.16,0,0,1-23-25.59,2,2,0,0,1,.43-1L93.09,4.73A2,2,0,0,1,94.43,4l37.88-4a2,2,0,0,1,2.2,2.24l-4.72,37.52a2,2,0,0,1-.75,1.32L78.74,80.65a2.05,2.05,0,0,1-1.06.42C77,81.13,76.26,81.17,75.55,81.17ZM56.47,56.57A19.17,19.17,0,0,0,76.74,77.13l49.19-38.68,4.29-34.2L95.68,7.89Z"/><polygon class="cls-2" points="97.39 63.62 103.61 69.95 91.82 107.78 77.5 79.08 97.39 63.62"/><path d="M91.82,109.78a2,2,0,0,1-1.79-1.1L75.71,80a2,2,0,0,1,.56-2.47L96.16,62a2,2,0,0,1,2.65.17L105,68.54a2,2,0,0,1,.48,2L93.73,108.38a2,2,0,0,1-1.75,1.4ZM80,79.65l11.37,22.79,10-31.94-4.14-4.21Z"/><polygon class="cls-2" points="70.23 36.1 63.99 29.77 26 41.04 54.5 55.76 70.23 36.1"/><path d="M54.5,57.76a2.05,2.05,0,0,1-.92-.23L25.08,42.81a2,2,0,0,1,.35-3.69l38-11.27a2,2,0,0,1,2,.52l6.23,6.33a2,2,0,0,1,.14,2.65L56.06,57A2,2,0,0,1,54.5,57.76ZM31.33,41.54,54,53.23l13.6-17L63.41,32Z"/><circle class="cls-2" cx="94.5" cy="40.02" r="10.46"/><path d="M94.5,52.47a12.45,12.45,0,1,1,8.75-3.58h0A12.42,12.42,0,0,1,94.5,52.47Zm0-20.9a8.46,8.46,0,0,0-.06,16.91h.06a8.46,8.46,0,1,0,0-16.91Zm7.34,15.89h0Z"/><path class="cls-2" d="M119.92,27.7a1.42,1.42,0,0,1-.29,0,2,2,0,0,1-1.69-2.27l2-13.42a2,2,0,1,1,4,.58L121.9,26A2,2,0,0,1,119.92,27.7Z"/><path class="cls-2" d="M118.93,36.45a2,2,0,0,1-.76-.15,2,2,0,0,1-.65-.44,2,2,0,0,1-.59-1.41,2.58,2.58,0,0,1,0-.39,2.4,2.4,0,0,1,.12-.38,2.21,2.21,0,0,1,.18-.34,2.42,2.42,0,0,1,.25-.31,2.08,2.08,0,0,1,2.83,0,3.76,3.76,0,0,1,.25.31,2.21,2.21,0,0,1,.18.34,1.66,1.66,0,0,1,.11.38,1.72,1.72,0,0,1,0,.39,2,2,0,0,1-2,2Z"/><path class="cls-2" d="M40.93,78.33a2,2,0,0,1-1.42-3.41l6.68-6.67A2,2,0,1,1,49,71.07l-6.68,6.68A2,2,0,0,1,40.93,78.33Z"/><path class="cls-2" d="M57,94.39a2,2,0,0,1-1.41-.58,2,2,0,0,1,0-2.83l6.68-6.68a2,2,0,0,1,2.82,2.83L58.4,93.81A2,2,0,0,1,57,94.39Z"/><path class="cls-2" d="M40.86,94.46a2,2,0,0,1-1.42-3.41L51.6,78.89a2,2,0,0,1,2.83,2.83L42.27,93.88A2,2,0,0,1,40.86,94.46Z"/></g></g></svg>