<svg xmlns="http://www.w3.org/2000/svg" viewBox="0 0 126.96 120.8"><defs><style>.cls-1{fill:#208ccb;}.cls-2{fill:#fff;}</style></defs><title>Asset 38</title><g id="Layer_2" data-name="Layer 2"><g id="Layer_1-2" data-name="Layer 1"><path class="cls-1" d="M99,25.59h0a7.45,7.45,0,0,1-8.34-1.14c-.55-.5-1.11-1-1.68-1.46a7.46,7.46,0,0,1-2.28-8.12h0A7.49,7.49,0,0,0,82,5.37l-8.85-3a7.5,7.5,0,0,0-9.5,4.72h0a7.45,7.45,0,0,1-6.73,5.09c-.74,0-1.47.08-2.21.15a7.47,7.47,0,0,1-7.34-4.13h0A7.5,7.5,0,0,0,37.33,4.84L29,9a7.5,7.5,0,0,0-3.38,10h0a7.45,7.45,0,0,1-1.14,8.34c-.5.55-1,1.11-1.46,1.68a7.46,7.46,0,0,1-8.12,2.28h0a7.49,7.49,0,0,0-9.49,4.71l-3,8.85a7.5,7.5,0,0,0,4.72,9.5h0a7.45,7.45,0,0,1,5.09,6.73c0,.74.08,1.48.15,2.21a7.47,7.47,0,0,1-4.13,7.34h0a7.5,7.5,0,0,0-3.38,10L9,89.09a7.5,7.5,0,0,0,10,3.38h0a7.45,7.45,0,0,1,8.34,1.14c.55.5,1.11,1,1.68,1.46a7.46,7.46,0,0,1,2.28,8.12h0a7.49,7.49,0,0,0,4.71,9.49l8.85,3A7.5,7.5,0,0,0,54.4,111h0a7.45,7.45,0,0,1,6.73-5.09c.74,0,1.47-.08,2.21-.15a7.47,7.47,0,0,1,7.34,4.13h0a7.5,7.5,0,0,0,10,3.38l8.36-4.15a7.5,7.5,0,0,0,3.38-10h0a7.45,7.45,0,0,1,1.14-8.34c.5-.55,1-1.11,1.46-1.67a7.45,7.45,0,0,1,8.12-2.29h0A7.49,7.49,0,0,0,112.69,82l3-8.85a7.5,7.5,0,0,0-4.72-9.5h0a7.45,7.45,0,0,1-5.09-6.73c0-.73-.08-1.47-.15-2.21a7.47,7.47,0,0,1,4.13-7.34h0a7.5,7.5,0,0,0,3.38-10.05L109.07,29A7.5,7.5,0,0,0,99,25.59Z"/><path d="M47.28,118.06a9.68,9.68,0,0,1-3-.49l-8.84-3a9.51,9.51,0,0,1-6-12v0a5.47,5.47,0,0,0-1.67-5.92c-.59-.49-1.18-1-1.75-1.52a5.47,5.47,0,0,0-6.1-.83A9.51,9.51,0,0,1,7.2,90L3.05,81.62A9.49,9.49,0,0,1,7.33,68.89a5.5,5.5,0,0,0,3-5.36c-.07-.77-.12-1.54-.16-2.32a5.48,5.48,0,0,0-3.73-4.92h0a9.5,9.5,0,0,1-5.93-12l3-8.84a9.51,9.51,0,0,1,12-6h0a5.47,5.47,0,0,0,5.92-1.67c.49-.59,1-1.18,1.52-1.75a5.47,5.47,0,0,0,.83-6.1A9.51,9.51,0,0,1,28.08,7.2l8.36-4.15A9.49,9.49,0,0,1,49.17,7.33a5.48,5.48,0,0,0,5.36,3c.78-.07,1.55-.12,2.32-.16a5.48,5.48,0,0,0,4.92-3.73,9.51,9.51,0,0,1,12-6l8.84,3a9.51,9.51,0,0,1,6,12v0a5.49,5.49,0,0,0,1.67,5.92c.6.49,1.18,1,1.75,1.52a5.47,5.47,0,0,0,6.1.83h0a9.51,9.51,0,0,1,12.73,4.28L115,36.44a9.48,9.48,0,0,1-4.28,12.73,5.5,5.5,0,0,0-3,5.37c.07.76.12,1.54.16,2.31a5.49,5.49,0,0,0,3.73,4.92,9.48,9.48,0,0,1,6,12l-3,8.85a9.51,9.51,0,0,1-12,6h0a5.51,5.51,0,0,0-5.92,1.67c-.49.59-1,1.18-1.52,1.75a5.47,5.47,0,0,0-.83,6.1A9.51,9.51,0,0,1,90,110.86L81.62,115a9.51,9.51,0,0,1-12.73-4.28,5.49,5.49,0,0,0-5.36-3c-.78.07-1.55.13-2.32.16a5.51,5.51,0,0,0-4.92,3.73.08.08,0,0,1,0,0A9.51,9.51,0,0,1,47.28,118.06Zm-14.05-14.2a5.51,5.51,0,0,0,3.46,6.94l8.85,3a5.49,5.49,0,0,0,7-3.45.08.08,0,0,0,0,0A9.54,9.54,0,0,1,61,103.86c.71,0,1.41-.08,2.12-.14A9.51,9.51,0,0,1,72.47,109a5.49,5.49,0,0,0,7.37,2.48l8.36-4.15a5.5,5.5,0,0,0,2.48-7.37,9.51,9.51,0,0,1,1.45-10.58c.48-.52,1-1.06,1.4-1.6a9.5,9.5,0,0,1,10.3-2.9h0a5.52,5.52,0,0,0,6.94-3.47l3-8.85a5.48,5.48,0,0,0-3.45-7A9.51,9.51,0,0,1,103.86,57c0-.71-.08-1.41-.14-2.12A9.51,9.51,0,0,1,109,45.59a5.49,5.49,0,0,0,2.48-7.37l-4.15-8.36a5.52,5.52,0,0,0-7.37-2.48h0a9.51,9.51,0,0,1-10.58-1.45c-.52-.48-1.06-.95-1.6-1.4a9.5,9.5,0,0,1-2.9-10.3v0a5.51,5.51,0,0,0-3.46-6.94l-8.85-3a5.5,5.5,0,0,0-7,3.46A9.51,9.51,0,0,1,57,14.2c-.71,0-1.41.08-2.12.14a9.51,9.51,0,0,1-9.31-5.23,5.45,5.45,0,0,0-3.17-2.77,5.52,5.52,0,0,0-4.2.29l-8.36,4.15a5.51,5.51,0,0,0-2.48,7.37,9.51,9.51,0,0,1-1.45,10.58c-.48.53-.95,1.06-1.4,1.6a9.52,9.52,0,0,1-10.3,2.91h0a5.51,5.51,0,0,0-6.94,3.46l-3,8.85a5.49,5.49,0,0,0,3.46,7l0,0A9.52,9.52,0,0,1,14.2,61c0,.71.08,1.41.14,2.12a9.51,9.51,0,0,1-5.23,9.31,5.45,5.45,0,0,0-2.77,3.17,5.52,5.52,0,0,0,.29,4.2l4.15,8.36a5.5,5.5,0,0,0,7.37,2.48,9.51,9.51,0,0,1,10.58,1.46c.52.48,1.06.94,1.6,1.39a9.52,9.52,0,0,1,2.91,10.3ZM99,25.59h0Z"/><path class="cls-2" d="M92.3,58.32a2,2,0,0,1-.77-.15,2.31,2.31,0,0,1-.9-.74,2.31,2.31,0,0,1-.18-.35,1.58,1.58,0,0,1-.11-.37,1.72,1.72,0,0,1,0-.39,2,2,0,0,1,.59-1.41,1.42,1.42,0,0,1,.3-.25,1.48,1.48,0,0,1,.35-.19,1.58,1.58,0,0,1,.37-.11,2,2,0,0,1,1.8.55,1.42,1.42,0,0,1,.25.3,1.59,1.59,0,0,1,.18.34,2.4,2.4,0,0,1,.12.38,2.58,2.58,0,0,1,0,.39,2,2,0,0,1-2,2Z"/><path class="cls-2" d="M90.64,50A2,2,0,0,1,88.8,48.8,30.13,30.13,0,0,0,75.07,34a2,2,0,1,1,1.86-3.54A34.17,34.17,0,0,1,92.48,47.22,2,2,0,0,1,90.64,50Z"/><path class="cls-2" d="M122.43,105.72,81.46,70a23.7,23.7,0,0,0-32-30.57l11,9.63a7.49,7.49,0,0,1,.72,10.54l-2.69,3.09A7.5,7.5,0,0,1,48,63.45L37,53.82A23.69,23.69,0,0,0,71.56,81.36l.09,0,41,35.68a7.4,7.4,0,0,0,10.4-.71l.13-.16A7.39,7.39,0,0,0,122.43,105.72Z"/><path d="M117.44,120.8a9.32,9.32,0,0,1-6.14-2.3L71.39,83.74A25.69,25.69,0,0,1,35.07,53.22a2,2,0,0,1,3.22-.91l11.07,9.63a5.48,5.48,0,0,0,7.72-.53l2.69-3.09a5.48,5.48,0,0,0-.54-7.72L48.19,41a2,2,0,0,1,.46-3.31A25.69,25.69,0,0,1,83.83,69.45l39.91,34.77a9.38,9.38,0,0,1,.92,13.22l-.14.15a9.28,9.28,0,0,1-6.42,3.18Q117.77,120.8,117.44,120.8ZM71.65,79.31A2,2,0,0,1,73,79.8l41,35.68a5.4,5.4,0,0,0,7.58-.52l.13-.15a5.39,5.39,0,0,0-.52-7.58h0l-41-35.68a2,2,0,0,1-.54-2.28,21.7,21.7,0,0,0-26.3-29.13l8.55,7.45A9.48,9.48,0,0,1,62.78,61L60.09,64A9.49,9.49,0,0,1,46.73,65L38.17,57.5A21.69,21.69,0,0,0,70.55,79.64l.07,0A2,2,0,0,1,71.65,79.31Z"/></g></g></svg>