<svg xmlns="http://www.w3.org/2000/svg" viewBox="0 0 533.07 598.55"><defs><style>.cls-1{fill:#d8dfe6;}.cls-2{fill:#208ccb;}.cls-3{fill:#7bd1ef;}.cls-4{fill:#eccd1a;}.cls-5{fill:#fff;}.cls-6{fill:#f06e8a;}.cls-7{fill:#3bace1;}.cls-8{fill:#226399;}</style></defs><title>Asset 55</title><g id="Layer_2" data-name="Layer 2"><g id="Layer_1-2" data-name="Layer 1"><path class="cls-1" d="M54.74,571.37h0a27.18,27.18,0,0,0,27.18,27.18H403.41a27.18,27.18,0,0,0,27.18-27.18h0a27.18,27.18,0,0,0-27.18-27.18H349.18A27.18,27.18,0,0,1,322,517h0a27.18,27.18,0,0,1,27.18-27.18h54.23a27.18,27.18,0,0,0,27.18-27.18h0a27.18,27.18,0,0,0-27.18-27.18H27.56A27.18,27.18,0,0,0,.38,462.65h0a27.18,27.18,0,0,0,27.18,27.18h103a27.19,27.19,0,0,1,27.18,26.94h0a27.19,27.19,0,0,1-27.18,27.42H81.92A27.18,27.18,0,0,0,54.74,571.37Z"/><path class="cls-1" d="M59.64,223.63H478a31.25,31.25,0,0,0,31.26-31.26h0A31.25,31.25,0,0,0,478,161.11H432.75a31.26,31.26,0,0,1-31.26-31h0a31.26,31.26,0,0,1,31.26-31.54h35A31.27,31.27,0,0,0,499,67.31h0a31.27,31.27,0,0,0-31.27-31.26H49.38A31.26,31.26,0,0,0,18.12,67.32h0A31.26,31.26,0,0,0,49.38,98.58H84.21a31.26,31.26,0,0,1,31.26,31h0a31.27,31.27,0,0,1-31.26,31.54H59.64a31.27,31.27,0,0,0-31.27,31.26h0A31.27,31.27,0,0,0,59.64,223.63Zm257.53-125a31.26,31.26,0,0,1,31.26,31.26h0a31.26,31.26,0,0,1-31.26,31.27H189.33a31.27,31.27,0,0,1-31.26-31.27h0a31.27,31.27,0,0,1,31.26-31.26Z"/><path class="cls-2" d="M174.48,71.11h191.4a15.72,15.72,0,0,1,15.72,15.72V380.44a0,0,0,0,1,0,0H158.76a0,0,0,0,1,0,0V86.83A15.72,15.72,0,0,1,174.48,71.11Z"/><polygon class="cls-3" points="379.49 81.25 159.78 81.25 168.49 72.77 373.74 72.77 379.49 81.25"/><path d="M381.59,382.44H158.76a2,2,0,0,1-2-2V86.83a17.74,17.74,0,0,1,17.72-17.72H365.87a17.74,17.74,0,0,1,17.72,17.72V380.44A2,2,0,0,1,381.59,382.44Zm-220.83-4H379.59V86.83a13.73,13.73,0,0,0-13.72-13.72H174.48a13.73,13.73,0,0,0-13.72,13.72Z"/><path class="cls-2" d="M158.76,380.44H381.59a0,0,0,0,1,0,0V495.67a15.72,15.72,0,0,1-15.72,15.72H174.48a15.72,15.72,0,0,1-15.72-15.72V380.44A0,0,0,0,1,158.76,380.44Z"/><rect class="cls-3" x="159.78" y="381.78" width="219.71" height="8.48"/><path d="M365.87,513.39H174.48a17.74,17.74,0,0,1-17.72-17.72V380.44a2,2,0,0,1,2-2H381.59a2,2,0,0,1,2,2V495.67A17.74,17.74,0,0,1,365.87,513.39ZM160.76,382.44V495.67a13.74,13.74,0,0,0,13.72,13.72H365.87a13.74,13.74,0,0,0,13.72-13.72V382.44Z"/><circle class="cls-4" cx="189.99" cy="101.61" r="8.83"/><path d="M190,112.44a10.83,10.83,0,1,1,10.83-10.83A10.84,10.84,0,0,1,190,112.44Zm0-17.66a6.83,6.83,0,1,0,6.83,6.83A6.83,6.83,0,0,0,190,94.78Z"/><circle class="cls-5" cx="217.49" cy="101.61" r="8.83"/><path d="M217.49,112.44a10.83,10.83,0,1,1,10.83-10.83A10.84,10.84,0,0,1,217.49,112.44Zm0-17.66a6.83,6.83,0,1,0,6.83,6.83A6.83,6.83,0,0,0,217.49,94.78Z"/><circle class="cls-6" cx="245.49" cy="101.61" r="8.83"/><path d="M245.49,112.44a10.83,10.83,0,1,1,10.83-10.83A10.84,10.84,0,0,1,245.49,112.44Zm0-17.66a6.83,6.83,0,1,0,6.83,6.83A6.83,6.83,0,0,0,245.49,94.78Z"/><rect class="cls-7" x="179.32" y="315.93" width="181.71" height="37.33"/><rect class="cls-3" x="179.32" y="314.93" width="181.71" height="8.48"/><path d="M363,355.27H177.32V313.93H363Zm-181.71-4H359V317.93H181.32Z"/><path class="cls-8" d="M215.49,340.6H194.82a2,2,0,0,1,0-4h20.67a2,2,0,0,1,0,4Z"/><path class="cls-8" d="M289.49,340.6H226.32a2,2,0,0,1,0-4h63.17a2,2,0,0,1,0,4Z"/><rect class="cls-5" x="305.11" y="329.23" width="41.75" height="14.75" rx="7.37" ry="7.37"/><path d="M339.49,346h-27a9.38,9.38,0,1,1,0-18.75h27a9.38,9.38,0,0,1,0,18.75Zm-27-14.75a5.38,5.38,0,1,0,0,10.75h27a5.38,5.38,0,0,0,0-10.75Z"/><rect class="cls-7" x="179.32" y="252.19" width="181.71" height="37.33"/><rect class="cls-3" x="179.32" y="251.19" width="181.71" height="8.48"/><path d="M363,291.52H177.32V250.19H363Zm-181.71-4H359V254.19H181.32Z"/><path class="cls-8" d="M215.49,276.86H194.82a2,2,0,0,1,0-4h20.67a2,2,0,0,1,0,4Z"/><path class="cls-8" d="M289.49,276.86H226.32a2,2,0,0,1,0-4h63.17a2,2,0,0,1,0,4Z"/><rect class="cls-5" x="305.11" y="265.48" width="41.75" height="14.75" rx="7.37" ry="7.37"/><path d="M339.49,282.23h-27a9.38,9.38,0,1,1,0-18.75h27a9.38,9.38,0,0,1,0,18.75Zm-27-14.75a5.38,5.38,0,1,0,0,10.75h27a5.38,5.38,0,0,0,0-10.75Z"/><rect class="cls-7" x="179.32" y="188.44" width="181.71" height="37.33"/><rect class="cls-3" x="179.32" y="187.44" width="181.71" height="8.48"/><path d="M363,227.78H177.32V186.44H363Zm-181.71-4H359V190.44H181.32Z"/><path class="cls-8" d="M215.49,213.11H194.82a2,2,0,0,1,0-4h20.67a2,2,0,0,1,0,4Z"/><path class="cls-8" d="M289.49,213.11H226.32a2,2,0,0,1,0-4h63.17a2,2,0,0,1,0,4Z"/><rect class="cls-4" x="305.11" y="201.74" width="41.75" height="14.75" rx="7.37" ry="7.37"/><path d="M339.49,218.49h-27a9.38,9.38,0,1,1,0-18.75h27a9.38,9.38,0,0,1,0,18.75Zm-27-14.75a5.38,5.38,0,1,0,0,10.75h27a5.38,5.38,0,0,0,0-10.75Z"/><rect class="cls-7" x="179.32" y="124.3" width="181.71" height="37.33"/><rect class="cls-3" x="179.32" y="123.3" width="181.71" height="8.48"/><path d="M363,163.63H177.32V122.3H363Zm-181.71-4H359V126.3H181.32Z"/><path class="cls-8" d="M215.49,149H194.82a2,2,0,0,1,0-4h20.67a2,2,0,0,1,0,4Z"/><path class="cls-8" d="M289.49,149H226.32a2,2,0,0,1,0-4h63.17a2,2,0,0,1,0,4Z"/><rect class="cls-5" x="305.11" y="137.59" width="41.75" height="14.75" rx="7.37" ry="7.37"/><path d="M339.49,154.34h-27a9.38,9.38,0,1,1,0-18.75h27a9.38,9.38,0,0,1,0,18.75Zm-27-14.75a5.38,5.38,0,1,0,0,10.75h27a5.38,5.38,0,0,0,0-10.75Z"/><path class="cls-5" d="M362.7,372.9H331.36a2,2,0,0,1,0-4H362.7a2,2,0,0,1,0,4Z"/><path class="cls-5" d="M324,372.9a2.6,2.6,0,0,1-.4,0,2.65,2.65,0,0,1-.37-.12,1.83,1.83,0,0,1-.34-.18,2.42,2.42,0,0,1-.31-.25,2,2,0,0,1-.58-1.42,1.72,1.72,0,0,1,0-.39,1.58,1.58,0,0,1,.11-.37,2.31,2.31,0,0,1,.18-.35,2.48,2.48,0,0,1,.25-.3,1.89,1.89,0,0,1,.31-.25,1.83,1.83,0,0,1,.34-.18,2.65,2.65,0,0,1,.37-.12,2,2,0,0,1,1.81.55,2.48,2.48,0,0,1,.25.3,2.31,2.31,0,0,1,.18.35,2.29,2.29,0,0,1,.12.37,2.56,2.56,0,0,1,0,.39,2,2,0,0,1-2,2Z"/><rect class="cls-7" x="181.16" y="406.58" width="17.67" height="79.3" rx="8.83" ry="8.83"/><path d="M190,487.88a10.84,10.84,0,0,1-10.83-10.83V415.42a10.83,10.83,0,1,1,21.66,0v61.63A10.84,10.84,0,0,1,190,487.88Zm0-79.3a6.84,6.84,0,0,0-6.83,6.84v61.63a6.83,6.83,0,0,0,6.83,6.83h0a6.83,6.83,0,0,0,6.83-6.83V415.42A6.84,6.84,0,0,0,190,408.58Z"/><rect class="cls-7" x="213.6" y="406.58" width="17.67" height="79.3" rx="8.83" ry="8.83"/><path d="M222.43,487.88a10.84,10.84,0,0,1-10.83-10.83V415.42a10.83,10.83,0,1,1,21.66,0v61.63A10.84,10.84,0,0,1,222.43,487.88Zm0-79.3a6.84,6.84,0,0,0-6.83,6.84v61.63a6.83,6.83,0,1,0,13.66,0V415.42A6.84,6.84,0,0,0,222.43,408.58Z"/><rect class="cls-7" x="246.04" y="406.58" width="17.67" height="79.3" rx="8.83" ry="8.83"/><path d="M254.87,487.88A10.84,10.84,0,0,1,244,477.05V415.42a10.84,10.84,0,1,1,21.67,0v61.63A10.84,10.84,0,0,1,254.87,487.88Zm0-79.3a6.84,6.84,0,0,0-6.83,6.84v61.63a6.84,6.84,0,0,0,13.67,0V415.42A6.85,6.85,0,0,0,254.87,408.58Z"/><rect class="cls-7" x="278.48" y="406.58" width="17.67" height="79.3" rx="8.83" ry="8.83"/><path d="M287.31,487.88a10.84,10.84,0,0,1-10.83-10.83V415.42a10.84,10.84,0,1,1,21.67,0v61.63A10.84,10.84,0,0,1,287.31,487.88Zm0-79.3a6.85,6.85,0,0,0-6.83,6.84v61.63a6.84,6.84,0,0,0,13.67,0V415.42A6.85,6.85,0,0,0,287.31,408.58Z"/><rect class="cls-7" x="310.92" y="406.58" width="17.67" height="79.3" rx="8.83" ry="8.83"/><path d="M319.76,487.88a10.84,10.84,0,0,1-10.84-10.83V415.42a10.84,10.84,0,1,1,21.67,0v61.63A10.84,10.84,0,0,1,319.76,487.88Zm0-79.3a6.85,6.85,0,0,0-6.84,6.84v61.63a6.84,6.84,0,0,0,13.67,0V415.42A6.85,6.85,0,0,0,319.76,408.58Z"/><rect class="cls-7" x="343.36" y="406.58" width="17.67" height="79.3" rx="8.83" ry="8.83"/><path d="M352.2,487.88a10.84,10.84,0,0,1-10.84-10.83V415.42a10.84,10.84,0,1,1,21.67,0v61.63A10.84,10.84,0,0,1,352.2,487.88Zm0-79.3a6.85,6.85,0,0,0-6.84,6.84v61.63a6.84,6.84,0,0,0,13.67,0V415.42A6.85,6.85,0,0,0,352.2,408.58Z"/><path class="cls-5" d="M226.32,502.57H184.67a2,2,0,0,1,0-4h41.65a2,2,0,0,1,0,4Z"/><path class="cls-5" d="M235.06,502.57a2,2,0,0,1-1.41-.59,2,2,0,0,1-.59-1.41,2,2,0,0,1,.59-1.41,2,2,0,0,1,1.8-.55,1.66,1.66,0,0,1,.38.11,1.63,1.63,0,0,1,.34.19,1.42,1.42,0,0,1,.3.25,2,2,0,0,1,.59,1.41,2,2,0,0,1-.15.77,1.88,1.88,0,0,1-.44.64A2,2,0,0,1,235.06,502.57Z"/><circle class="cls-4" cx="431.44" cy="81.25" r="79.25"/><path d="M431.44,162.49a81.25,81.25,0,1,1,81.25-81.24A81.33,81.33,0,0,1,431.44,162.49ZM431.44,4a77.25,77.25,0,1,0,77.25,77.25A77.33,77.33,0,0,0,431.44,4Z"/><path class="cls-5" d="M469.17,49.68l-1.71-.22a30.67,30.67,0,0,1-6.6-1.15c-7.67-1.83-14.91-5.49-23-11.66a7.38,7.38,0,0,0-10.23,0c-8.09,6.17-15.33,9.83-23,11.66A30.65,30.65,0,0,1,398,49.46l-1.7.22c-4.05.46-6.39,3.43-6.39,7.55V79c0,4.8,0,9.84.21,14.64.22,7.09,2.77,14.18,7.46,20.81,5.32,7.55,35.14,24.7,35.14,24.7s29.83-17.15,35.15-24.7c4.69-6.63,7.24-13.72,7.46-20.81.21-4.8.21-9.84.21-14.64V57.23C475.56,53.11,473.22,50.14,469.17,49.68Z"/><path d="M432.74,141.42l-1-.57c-1.24-.71-30.27-17.47-35.79-25.29-5-7-7.59-14.39-7.82-21.9-.21-4.82-.21-9.84-.21-14.7V57.23c0-5.23,3.2-9,8.17-9.53l1.66-.23A29,29,0,0,0,404,46.41l.15,0c7.38-1.76,14.45-5.36,22.26-11.31A9.33,9.33,0,0,1,439,35c7.86,6,14.93,9.59,22.31,11.35l.14,0a29.13,29.13,0,0,0,6.19,1.06l1.75.23c4.95.57,8.15,4.31,8.15,9.53V79c0,4.86,0,9.88-.22,14.73-.22,7.48-2.85,14.85-7.82,21.88-5.51,7.81-34.55,24.57-35.78,25.28ZM405.17,50.24a33.68,33.68,0,0,1-6.95,1.21l-1.63.22c-3,.33-4.66,2.36-4.66,5.56V79c0,4.81,0,9.79.21,14.55.2,6.74,2.59,13.38,7.09,19.75,4,5.67,24.66,18.39,33.51,23.54,8.86-5.15,29.52-17.87,33.52-23.54,4.5-6.38,6.89-13,7.09-19.72.21-4.79.21-9.77.21-14.58V57.23c0-3.2-1.68-5.23-4.62-5.56h0l-1.7-.23a33,33,0,0,1-6.88-1.2c-7.91-1.9-15.44-5.72-23.68-12a7,7,0,0,0-3.9-1.65,7.17,7.17,0,0,0-3.94,1.68C420.6,44.52,413.08,48.34,405.17,50.24Z"/><polygon class="cls-2" points="456.04 74.42 448.49 66.87 423.63 91.73 414.64 82.74 407.08 90.29 423.63 106.83 423.63 106.83 423.63 106.83 456.04 74.42"/><path d="M448.49,66.87,456,74.42l-32.41,32.41h0L407.08,90.29l7.56-7.55,9,9,24.86-24.86m0-4A4,4,0,0,0,445.66,64l-22,22-6.16-6.16a4,4,0,0,0-5.66,0l-7.56,7.55a4,4,0,0,0,0,5.66l16.55,16.54a4,4,0,0,0,2.83,1.17,4.12,4.12,0,0,0,1.35-.23,4.06,4.06,0,0,0,1.48-.94l32.41-32.41a4,4,0,0,0,0-5.66L451.32,64a4,4,0,0,0-2.83-1.17Z"/><circle class="cls-4" cx="86.67" cy="286.19" r="84.71"/><path d="M86.67,372.86A86.67,86.67,0,1,1,148,347.51,86.44,86.44,0,0,1,86.67,372.86Zm0-169.34a82.68,82.68,0,1,0,58.49,24.19A82.45,82.45,0,0,0,86.67,203.52Z"/><path class="cls-5" d="M128.71,263.55a16.5,16.5,0,0,0-5.73,1c0-.34,0-.69,0-1a33.2,33.2,0,0,0-64.93-9.78,22.2,22.2,0,1,0-7.83,43h78.47a16.6,16.6,0,0,0,0-33.2Z"/><path d="M128.71,298.75H50.25a24.22,24.22,0,1,1,0-48.43,23.63,23.63,0,0,1,6.56.93A35.21,35.21,0,0,1,125,261.94a18.13,18.13,0,0,1,3.74-.39,18.6,18.6,0,0,1,0,37.2ZM50.25,254.32a20.22,20.22,0,1,0,0,40.43h78.46a14.6,14.6,0,0,0,0-29.2,14.44,14.44,0,0,0-5,.92l-2.79,1,.11-3.22c0-.24,0-.49,0-.73a31.2,31.2,0,0,0-61-9.2l-.63,2-2-.75A19.94,19.94,0,0,0,50.25,254.32Z"/><path d="M86.67,320.6a2,2,0,0,1-2-2V297.11a2,2,0,0,1,4,0V318.6A2,2,0,0,1,86.67,320.6Z"/><path d="M130.76,327.24H42.58a2,2,0,1,1,0-4h88.18a2,2,0,0,1,0,4Z"/><circle class="cls-2" cx="86.67" cy="325.24" r="11.85"/><path d="M86.67,339.08a13.85,13.85,0,1,1,13.85-13.84A13.87,13.87,0,0,1,86.67,339.08Zm0-23.69a9.85,9.85,0,1,0,9.85,9.85A9.86,9.86,0,0,0,86.67,315.39Z"/><circle class="cls-4" cx="450.4" cy="475.98" r="80.67"/><path d="M450.4,558.65A82.67,82.67,0,1,1,533.07,476,82.76,82.76,0,0,1,450.4,558.65Zm0-161.34A78.67,78.67,0,1,0,529.07,476,78.76,78.76,0,0,0,450.4,397.31Z"/><path class="cls-4" d="M434.59,444.29s-8.65,4.81-11.3,14.06-1.32,18.63,3.49,26a30.09,30.09,0,0,0,22.48,12.62,18.58,18.58,0,0,0,2.64.12,28.18,28.18,0,0,0,20.8-8.66c7.45-8,9.37-22.84-1.33-35.7-1.56-1.92-3.12-3.6-4.56-5.29-7.46-8.29-7.34-27.52-7.34-27.52s-18.39,10.82-16.1,22.84c.12.72.36,1.56.6,2.52,1.32,5.05,1.92,8.66-1.68,10.22a2.84,2.84,0,0,1-3.13-.6C436.64,452.94,434.59,444.29,434.59,444.29Z"/><path d="M451.9,499.06a20.92,20.92,0,0,1-2.86-.13,32,32,0,0,1-23.92-13.49,33.51,33.51,0,0,1-3.75-27.64c2.84-9.93,11.87-15.05,12.25-15.26a2,2,0,0,1,2.92,1.29c.91,3.83,2.63,8.53,3.83,9.45.7.54.9.45,1.1.36,1.75-.76,2.09-2.06.56-7.88l-.18-.72c-.18-.7-.35-1.36-.46-2-2.5-13.2,16.27-24.41,17.07-24.88a2,2,0,0,1,2,0,2,2,0,0,1,1,1.74c0,.18,0,18.56,6.82,26.18l1.62,1.85c1,1.11,2,2.25,3,3.51,11.4,13.71,9.25,29.66,1.23,38.32A30,30,0,0,1,451.9,499.06Zm-18.51-51.53c-2.53,2-6.59,5.82-8.17,11.37a29.48,29.48,0,0,0,3.23,24.32,28,28,0,0,0,21,11.72l.13,0a17.19,17.19,0,0,0,2.36.1,26.09,26.09,0,0,0,19.34-8c6.82-7.38,8.54-21.11-1.4-33.06-1-1.21-2-2.33-2.93-3.4l-1.62-1.86c-5.87-6.54-7.34-19-7.7-25.17-4.8,3.45-13.73,11-12.26,18.8.09.5.23,1,.39,1.69l.19.72c1.12,4.28,2.66,10.17-2.83,12.54a4.8,4.8,0,0,1-5.15-.85C435.88,454.88,434.29,450.53,433.39,447.53Z"/><rect class="cls-5" x="399.01" y="465.75" width="102.77" height="53.49" rx="3.9" ry="3.9"/><path d="M497.88,521.24h-95a5.92,5.92,0,0,1-5.91-5.91V469.65a5.91,5.91,0,0,1,5.91-5.9h95a5.9,5.9,0,0,1,5.9,5.9v45.68A5.91,5.91,0,0,1,497.88,521.24Zm-95-53.49a1.91,1.91,0,0,0-1.91,1.9v45.68a1.92,1.92,0,0,0,1.91,1.91h95a1.91,1.91,0,0,0,1.9-1.91V469.65a1.9,1.9,0,0,0-1.9-1.9Z"/><path class="cls-2" d="M423.56,465.75H498a3.78,3.78,0,0,1,3.78,3.78v13.93a0,0,0,0,1,0,0h-78.2a0,0,0,0,1,0,0V465.77A0,0,0,0,1,423.56,465.75Z"/><path d="M501.76,485.48h-78.2a2,2,0,0,1-2-2V465.77a2,2,0,0,1,2-2H498a5.78,5.78,0,0,1,5.78,5.78v13.93A2,2,0,0,1,501.76,485.48Zm-76.22-4h74.24v-12a1.78,1.78,0,0,0-1.78-1.78H425.54Z"/><rect x="421.54" y="465.75" width="4" height="20.13"/><rect x="464.44" y="465.75" width="4" height="17.73"/><rect x="442.99" y="482.43" width="4" height="20.13"/><rect x="484.23" y="482.43" width="4" height="20.13"/><rect x="420.52" y="500.64" width="4" height="20.13"/><rect x="400.58" y="481.48" width="101.2" height="4"/><rect x="399.01" y="500.41" width="102.77" height="4"/><rect class="cls-2" x="486.23" y="483.48" width="15.56" height="18.93"/><path d="M501.78,504.41H486.23a2,2,0,0,1-2-2V483.48a2,2,0,0,1,2-2h15.55a2,2,0,0,1,2,2v18.93A2,2,0,0,1,501.78,504.41Zm-13.55-4h11.55V485.48H488.23Z"/><rect class="cls-2" x="399.01" y="483.48" width="45.98" height="18.93"/><path d="M445,504.41H399a2,2,0,0,1-2-2V483.48a2,2,0,0,1,2-2h46a2,2,0,0,1,2,2v18.93A2,2,0,0,1,445,504.41Zm-44-4h42V485.48H401Z"/><rect class="cls-2" x="422.52" y="502.56" width="45.46" height="16.68"/><path d="M468,521.24H422.52a2,2,0,0,1-2-2V502.56a2,2,0,0,1,2-2H468a2,2,0,0,1,2,2v16.68A2,2,0,0,1,468,521.24Zm-43.46-4H466V504.56H424.52Z"/></g></g></svg>