<svg xmlns="http://www.w3.org/2000/svg" viewBox="0 0 134.72 125.11"><defs><style>.cls-1{fill:#208ccb;}.cls-2{fill:#fff;}</style></defs><title>Asset 35</title><g id="Layer_2" data-name="Layer 2"><g id="Layer_1-2" data-name="Layer 1"><path class="cls-1" d="M45,81.06H14.56C7.62,81.06,2,76,2,69.82V13.24C2,7,7.62,2,14.56,2h105.6c6.94,0,12.56,5,12.56,11.24V69.82c0,6.2-5.62,11.24-12.56,11.24H93"/><path d="M120.16,83.06H93a2,2,0,0,1,0-4h27.12c5.82,0,10.56-4.15,10.56-9.24V13.24C130.72,8.14,126,4,120.16,4H14.56C8.74,4,4,8.14,4,13.24V69.82c0,5.09,4.74,9.24,10.56,9.24H45a2,2,0,0,1,0,4H14.56C6.53,83.06,0,77.12,0,69.82V13.24C0,5.94,6.53,0,14.56,0h105.6c8,0,14.56,5.94,14.56,13.24V69.82C134.72,77.12,128.19,83.06,120.16,83.06Z"/><path class="cls-2" d="M121.65,40.17a2,2,0,0,1-2-2V15.49a2,2,0,0,1,4,0V38.17A2,2,0,0,1,121.65,40.17Z"/><path class="cls-2" d="M121.65,48.51a2,2,0,0,1-.77-.15,2.16,2.16,0,0,1-.65-.43,2,2,0,0,1-.58-1.42,1.72,1.72,0,0,1,0-.39,1.58,1.58,0,0,1,.11-.37,2.31,2.31,0,0,1,.18-.35,2.48,2.48,0,0,1,.25-.3,1.89,1.89,0,0,1,.31-.25,2.21,2.21,0,0,1,.34-.18,1.68,1.68,0,0,1,.38-.12,2,2,0,0,1,1.8.55,1.81,1.81,0,0,1,.25.3,2.31,2.31,0,0,1,.18.35,2.29,2.29,0,0,1,.12.37,2.58,2.58,0,0,1,0,.39,2,2,0,0,1-.59,1.42,3.61,3.61,0,0,1-.3.25,2.31,2.31,0,0,1-.35.18,1.58,1.58,0,0,1-.37.11A1.72,1.72,0,0,1,121.65,48.51Z"/><path class="cls-2" d="M47.43,60.46a2,2,0,0,1-1.64-.84,22.74,22.74,0,1,1,39.58-4.45,2,2,0,1,1-3.69-1.53A18.73,18.73,0,1,0,49.06,57.3a2,2,0,0,1-.48,2.79A2,2,0,0,1,47.43,60.46Z"/><path class="cls-2" d="M40,72a2,2,0,0,1-1.44-.61A35.78,35.78,0,1,1,97.48,59.86a2,2,0,0,1-3.71-1.5,31.8,31.8,0,1,0-52.3,10.28A2,2,0,0,1,40,72Z"/><path class="cls-2" d="M94.43,96l-4.2,10.19H63.82l-4.2-7.3A37.57,37.57,0,0,0,47.88,86.36l-.79-.53a6.43,6.43,0,0,1-1.89-8.76h0a6.43,6.43,0,0,1,8.66-2.16l3.27,1.89V46.13a7.46,7.46,0,0,1,7.46-7.46h0A7.46,7.46,0,0,1,72,46.13V61.35l17.4,4.89A10.16,10.16,0,0,1,96.84,76v7.85A31.84,31.84,0,0,1,94.43,96Z"/><path d="M90.23,108.21H63.82a2,2,0,0,1-1.74-1l-4.19-7.3A35.81,35.81,0,0,0,46.77,88L46,87.5a8.43,8.43,0,0,1,8.88-14.32l.27.16V46.13a9.46,9.46,0,1,1,18.91,0v13.7L90,64.32A12.18,12.18,0,0,1,98.84,76v7.85a33.63,33.63,0,0,1-2.56,12.91h0L92.08,107A2,2,0,0,1,90.23,108.21Zm-25.26-4H88.89l3.69-9a29.67,29.67,0,0,0,2.26-11.39V76a8.17,8.17,0,0,0-5.94-7.84l-17.4-4.9A2,2,0,0,1,70,61.35V46.13a5.46,5.46,0,1,0-10.91,0V76.8a2,2,0,0,1-3,1.73l-3.27-1.88a4.43,4.43,0,0,0-4.66,7.52l.79.52A39.88,39.88,0,0,1,61.35,97.91ZM94.43,96h0Z"/><path class="cls-1" d="M81.78,123.11H72.27a8.48,8.48,0,0,1-8.45-8.45V106.2H90.23v8.46A8.48,8.48,0,0,1,81.78,123.11Z"/><path d="M81.78,125.11H72.27a10.46,10.46,0,0,1-10.45-10.45v-8.45a2,2,0,0,1,2-2H90.23a2,2,0,0,1,2,2v8.45A10.46,10.46,0,0,1,81.78,125.11Zm-16-16.9v6.45a6.46,6.46,0,0,0,6.45,6.45h9.51a6.46,6.46,0,0,0,6.45-6.45v-6.45Z"/></g></g></svg>