<?xml version="1.0" encoding="utf-8"?>
<!-- Generator: Adobe Illustrator 22.0.1, SVG Export Plug-In . SVG Version: 6.00 Build 0)  -->
<svg version="1.1" id="Layer_1" xmlns="http://www.w3.org/2000/svg" xmlns:xlink="http://www.w3.org/1999/xlink" x="0px" y="0px"
	 viewBox="0 0 400 400" style="enable-background:new 0 0 400 400;" xml:space="preserve">
<style type="text/css">
	.st0{fill:#208CCB;stroke:#000000;stroke-width:5;stroke-linecap:round;stroke-linejoin:round;stroke-miterlimit:10;}
	.st1{fill:none;stroke:#FFFFFF;stroke-width:5;stroke-linecap:round;stroke-linejoin:round;stroke-miterlimit:10;}
	.st2{fill:#FFFFFF;stroke:#000000;stroke-width:5;stroke-linecap:round;stroke-linejoin:round;stroke-miterlimit:10;}
</style>
<g>
	<path class="st0" d="M164.6,274.8h-55.4c-12.6,0-22.9-9.5-22.9-21.2V147c0-11.7,10.3-21.2,22.9-21.2h192.5
		c12.6,0,22.9,9.5,22.9,21.2v106.6c0,11.7-10.3,21.2-22.9,21.2h-49.4"/>
	<line class="st1" x1="304.4" y1="151.2" x2="304.4" y2="194"/>
	<line class="st1" x1="304.4" y1="209.7" x2="304.4" y2="209.7"/>
	<path class="st1" d="M234.9,224.6c1.8-4.6,2.8-9.6,2.8-14.9c0-21.5-16.9-39.1-37.8-39.1c-20.8,0-37.8,17.5-37.8,39.1
		c0,8.4,2.6,16.1,6.9,22.5"/>
	<path class="st1" d="M257,233.4c2.9-7.3,4.4-15.4,4.4-23.7c0-35.1-27.6-63.7-61.6-63.7c-34,0-61.6,28.6-61.6,63.7
		c0,17.2,6.6,32.8,17.4,44.3"/>
	<path class="st2" d="M254.8,302.9l-7.7,19.2H199l-7.7-13.8c-5.3-9.5-12.6-17.6-21.4-23.6l-1.4-1c-5.3-3.6-6.8-10.9-3.4-16.5l0,0
		c3.3-5.5,10.3-7.3,15.8-4.1l6,3.6V209c0-7.8,6.1-14,13.6-14h0c7.5,0,13.6,6.3,13.6,14v28.7l31.7,9.2c8,2.3,13.5,9.8,13.5,18.4v14.8
		C259.2,287.9,257.7,295.7,254.8,302.9z"/>
	<path class="st0" d="M231.8,354h-17.3c-8.5,0-15.4-7.2-15.4-15.9v-15.9h48.1v15.9C247.2,346.8,240.2,354,231.8,354z"/>
</g>
</svg>
