<?xml version="1.0" encoding="utf-8"?>
<!-- Generator: Adobe Illustrator 22.0.1, SVG Export Plug-In . SVG Version: 6.00 Build 0)  -->
<svg version="1.1" id="Layer_1" xmlns="http://www.w3.org/2000/svg" xmlns:xlink="http://www.w3.org/1999/xlink" x="0px" y="0px"
	 viewBox="0 0 400 400" style="enable-background:new 0 0 400 400;" xml:space="preserve">
<style type="text/css">
	.st0{fill:#208CCB;stroke:#000000;stroke-width:5;stroke-linecap:round;stroke-linejoin:round;stroke-miterlimit:10;}
	.st1{fill:none;stroke:#FFFFFF;stroke-width:5;stroke-linecap:round;stroke-linejoin:round;stroke-miterlimit:10;}
	.st2{fill:#FFFFFF;stroke:#000000;stroke-width:5;stroke-linecap:round;stroke-linejoin:round;stroke-miterlimit:10;}
</style>
<g>
	<g>
		<path class="st0" d="M268.9,119.6L268.9,119.6c-5.6,2.8-12.4,1.9-17.1-2.3c-1.1-1-2.3-2-3.4-3c-4.9-4-6.7-10.7-4.7-16.6l0,0
			c2.7-8-1.6-16.8-9.7-19.5L215.9,72c-8-2.7-16.8,1.6-19.5,9.7l0,0c-2,6-7.5,10.2-13.8,10.4c-1.5,0.1-3,0.2-4.5,0.3
			c-6.3,0.6-12.2-2.8-15-8.5l0,0c-3.8-7.6-13-10.7-20.6-6.9l-17.1,8.5c-7.6,3.8-10.7,13-6.9,20.6l0,0c2.8,5.6,1.9,12.4-2.3,17.1
			c-1,1.1-2,2.3-3,3.4c-4,4.9-10.7,6.7-16.6,4.7l0,0c-8-2.7-16.8,1.6-19.5,9.7l-6.1,18.1c-2.7,8,1.6,16.8,9.7,19.5l0,0
			c6,2,10.2,7.5,10.4,13.8c0.1,1.5,0.2,3,0.3,4.5c0.6,6.3-2.8,12.2-8.5,15l0,0c-7.6,3.8-10.7,13-6.9,20.6l8.5,17.1
			c3.8,7.6,13,10.7,20.6,6.9l0,0c5.6-2.8,12.4-1.9,17.1,2.3c1.1,1,2.3,2,3.4,3c4.9,4,6.7,10.7,4.7,16.6l0,0
			c-2.7,8,1.6,16.8,9.7,19.5l18.1,6.1c8,2.7,16.8-1.6,19.5-9.7l0,0c2-6,7.5-10.2,13.8-10.4c1.5-0.1,3-0.2,4.5-0.3
			c6.3-0.6,12.2,2.8,15,8.5l0,0c3.8,7.6,13,10.7,20.6,6.9l17.1-8.5c7.6-3.8,10.7-13,6.9-20.6l0,0c-2.8-5.6-1.9-12.4,2.3-17.1
			c1-1.1,2-2.3,3-3.4c4-4.9,10.7-6.7,16.6-4.7l0,0c8,2.7,16.8-1.6,19.5-9.7l6.1-18.1c2.7-8-1.6-16.8-9.7-19.5l0,0
			c-6-2-10.2-7.5-10.4-13.8c-0.1-1.5-0.2-3-0.3-4.5c-0.6-6.3,2.8-12.2,8.5-15l0,0c7.6-3.8,10.7-13,6.9-20.6l-8.5-17.1
			C285.7,118.9,276.5,115.8,268.9,119.6z"/>
		<line class="st1" x1="255.1" y1="182.6" x2="255.1" y2="182.6"/>
		<path class="st1" d="M221.7,133.2c13,6.8,23.8,17.9,30,32.3"/>
	</g>
	<path class="st2" d="M316.8,283.8l-84-73.1c5.7-13.6,5.1-29.6-2.9-43.2c-12.8-21.9-40.1-30-62.6-19.4l22.6,19.7
		c6.4,5.5,7,15.3,1.5,21.6l-5.5,6.3c-5.5,6.4-15.3,7-21.6,1.5l-22.7-19.7c-4,12.6-2.8,26.8,4.4,39.1c13.6,23.1,43.3,30.9,66.5,17.4
		c0.1,0,0.1-0.1,0.2-0.1l84,73.1c6.3,5.5,15.9,4.8,21.3-1.5l0.3-0.3C323.8,298.9,323.1,289.3,316.8,283.8z"/>
</g>
</svg>
