<svg xmlns="http://www.w3.org/2000/svg" xmlns:xlink="http://www.w3.org/1999/xlink" viewBox="0 0 491.17 288.11"><defs><style>.cls-1{fill:#d8dfe6;}.cls-2{fill:url(#linear-gradient);}.cls-3{fill:#fff;}.cls-4{fill:#226399;}.cls-5{fill:url(#linear-gradient-2);}.cls-6{fill:url(#linear-gradient-3);}.cls-7{fill:url(#linear-gradient-4);}</style><linearGradient id="linear-gradient" x1="371.8" y1="14.74" x2="173.13" y2="248.08" gradientUnits="userSpaceOnUse"><stop offset="0" stop-color="#1da5c9"/><stop offset="1" stop-color="#1d85db"/></linearGradient><linearGradient id="linear-gradient-2" x1="157.4" y1="77.59" x2="245.34" y2="77.59" gradientUnits="userSpaceOnUse"><stop offset="0" stop-color="#ebcd1c"/><stop offset="1" stop-color="#eb901c"/></linearGradient><linearGradient id="linear-gradient-3" x1="347.37" y1="138.58" x2="347.37" y2="289.29" xlink:href="#linear-gradient"/><linearGradient id="linear-gradient-4" x1="316.95" y1="187.78" x2="377.78" y2="187.78" xlink:href="#linear-gradient-2"/></defs><title>Asset 10</title><g id="Layer_2" data-name="Layer 2"><g id="Layer_1-2" data-name="Layer 1"><path class="cls-1" d="M41.52,288.11H459.91a31.26,31.26,0,0,0,31.26-31.27h0a31.26,31.26,0,0,0-31.26-31.26H414.63a31.26,31.26,0,0,1-31.26-31h0a31.27,31.27,0,0,1,31.26-31.54h35a31.27,31.27,0,0,0,31.26-31.26h0a31.26,31.26,0,0,0-31.26-31.26H31.26A31.26,31.26,0,0,0,0,131.79H0a31.26,31.26,0,0,0,31.26,31.26H66.09a31.26,31.26,0,0,1,31.26,31h0a31.26,31.26,0,0,1-31.26,31.54H41.52a31.25,31.25,0,0,0-31.26,31.27h0A31.26,31.26,0,0,0,41.52,288.11ZM299.05,163.05a31.26,31.26,0,0,1,31.26,31.27h0a31.26,31.26,0,0,1-31.26,31.26H171.22A31.27,31.27,0,0,1,140,194.32h0a31.27,31.27,0,0,1,31.27-31.27Z"/><path class="cls-2" d="M136.44,2.5H426.57a10,10,0,0,1,10,10V232.74a0,0,0,0,1,0,0H126.44a0,0,0,0,1,0,0V12.5A10,10,0,0,1,136.44,2.5Z"/><path d="M439.07,235.24H123.94V12.5A12.52,12.52,0,0,1,136.44,0H426.57a12.51,12.51,0,0,1,12.5,12.5Zm-310.13-5H434.07V12.5a7.5,7.5,0,0,0-7.5-7.5H136.44a7.51,7.51,0,0,0-7.5,7.5Z"/><path class="cls-3" d="M420.23,77.79a2.5,2.5,0,0,1-2.5-2.5V36.89a2.5,2.5,0,1,1,5,0v38.4A2.5,2.5,0,0,1,420.23,77.79Z"/><rect class="cls-3" x="85.74" y="224.08" width="391.55" height="26.1" rx="13.05" ry="13.05"/><path d="M464.23,252.68H98.79a15.55,15.55,0,1,1,0-31.1H464.23a15.55,15.55,0,0,1,0,31.1ZM98.79,226.58a10.55,10.55,0,1,0,0,21.1H464.23a10.55,10.55,0,0,0,0-21.1Z"/><rect class="cls-3" x="157.4" y="150.29" width="92.69" height="46.34"/><path d="M250.09,199.13H157.4a2.5,2.5,0,0,1-2.5-2.5V150.29a2.5,2.5,0,0,1,2.5-2.5h92.69a2.5,2.5,0,0,1,2.5,2.5v46.34A2.5,2.5,0,0,1,250.09,199.13Zm-90.19-5h87.69V152.79H159.9Z"/><path class="cls-4" d="M395.34,64.65H267.23a2.5,2.5,0,1,1,0-5H395.34a2.5,2.5,0,0,1,0,5Z"/><path class="cls-4" d="M395.34,43.1H267.23a2.5,2.5,0,0,1,0-5H395.34a2.5,2.5,0,0,1,0,5Z"/><circle class="cls-5" cx="201.37" cy="77.59" r="43.97"/><path d="M201.37,124.06a46.47,46.47,0,1,1,46.47-46.47A46.52,46.52,0,0,1,201.37,124.06Zm0-87.93a41.47,41.47,0,1,0,41.47,41.46A41.51,41.51,0,0,0,201.37,36.13Z"/><path class="cls-3" d="M420.24,89.41h0a2.5,2.5,0,1,1,2.51-2.5A2.5,2.5,0,0,1,420.23,89.41Z"/><path class="cls-3" d="M367.07,100.06h-52a14.46,14.46,0,0,0-14.46,14.46V261.84a14.46,14.46,0,0,0,14.46,14.46h64.59a14.45,14.45,0,0,0,14.46-14.46V114.52a14.45,14.45,0,0,0-14.46-14.46Z"/><path d="M379.66,278.8H315.07a17,17,0,0,1-17-17V114.52a17,17,0,0,1,17-17h64.59a17,17,0,0,1,17,17V261.84A17,17,0,0,1,379.66,278.8ZM315.07,102.56a12,12,0,0,0-12,12V261.84a12,12,0,0,0,12,12h64.59a12,12,0,0,0,12-12V114.52a12,12,0,0,0-12-12Z"/><path class="cls-6" d="M367.07,100.06v8.74a3.64,3.64,0,0,1-3.64,3.64H331.3a3.64,3.64,0,0,1-3.64-3.64v-8.74H315.07a14.46,14.46,0,0,0-14.46,14.46V261.84a14.46,14.46,0,0,0,14.46,14.46h64.59a14.45,14.45,0,0,0,14.46-14.46V114.52a14.45,14.45,0,0,0-14.46-14.46Z"/><path d="M379.66,278.8H315.07a17,17,0,0,1-17-17V114.52a17,17,0,0,1,17-17h15.09V108.8a1.15,1.15,0,0,0,1.14,1.14h32.13a1.15,1.15,0,0,0,1.14-1.14V97.56h15.09a17,17,0,0,1,17,17V261.84A17,17,0,0,1,379.66,278.8ZM315.07,102.56a12,12,0,0,0-12,12V261.84a12,12,0,0,0,12,12h64.59a12,12,0,0,0,12-12V114.52a12,12,0,0,0-12-12H369.57v6.24a6.15,6.15,0,0,1-6.14,6.14H331.3a6.15,6.15,0,0,1-6.14-6.14v-6.24Z"/><path class="cls-3" d="M380.29,143.32a2.5,2.5,0,0,1-2.5-2.48l-.19-23.2a2.5,2.5,0,1,1,5,0l.19,23.2a2.5,2.5,0,0,1-2.48,2.52Z"/><path class="cls-3" d="M380.31,154.94a2.5,2.5,0,0,1,0-5h0a2.5,2.5,0,0,1,0,5Z"/><circle class="cls-7" cx="347.37" cy="187.78" r="30.41"/><path d="M347.37,220.69a32.91,32.91,0,1,1,32.91-32.91A33,33,0,0,1,347.37,220.69Zm0-60.82a27.91,27.91,0,1,0,27.91,27.91A27.95,27.95,0,0,0,347.37,159.87Z"/><path class="cls-4" d="M368.8,238.22H325.94a2.5,2.5,0,0,1,0-5H368.8a2.5,2.5,0,0,1,0,5Z"/><path class="cls-4" d="M368.8,254.81H325.94a2.5,2.5,0,0,1,0-5H368.8a2.5,2.5,0,0,1,0,5Z"/></g></g></svg>