<svg xmlns="http://www.w3.org/2000/svg" xmlns:xlink="http://www.w3.org/1999/xlink" viewBox="0 0 153.08 124.93"><defs><style>.cls-1{fill:url(#linear-gradient);}.cls-2{fill:#fff;}.cls-3{fill:url(#linear-gradient-2);}.cls-4{fill:url(#linear-gradient-3);}</style><linearGradient id="linear-gradient" x1="93.83" y1="36.47" x2="54.49" y2="116.47" gradientUnits="userSpaceOnUse"><stop offset="0" stop-color="#1da5c9"/><stop offset="1" stop-color="#1d85db"/></linearGradient><linearGradient id="linear-gradient-2" x1="68.03" y1="61.5" x2="125.36" y2="0.83" xlink:href="#linear-gradient"/><linearGradient id="linear-gradient-3" x1="101.44" y1="22.27" x2="64.44" y2="72.27" gradientUnits="userSpaceOnUse"><stop offset="0" stop-color="#ebcd1c"/><stop offset="1" stop-color="#eb901c"/></linearGradient></defs><title>Asset 14</title><g id="Layer_2" data-name="Layer 2"><g id="Layer_1-2" data-name="Layer 1"><path class="cls-1" d="M23.86,19H129.22a10,10,0,0,1,10,10v87.5a0,0,0,0,1,0,0H13.86a0,0,0,0,1,0,0V29A10,10,0,0,1,23.86,19Z"/><path d="M141.22,118.54H11.86V29a12,12,0,0,1,12-12H129.22a12,12,0,0,1,12,12Zm-125.36-4H137.22V29a8,8,0,0,0-8-8H23.86a8,8,0,0,0-8,8Z"/><rect class="cls-2" x="2" y="110.15" width="149.08" height="12.77" rx="6.39" ry="6.39"/><path d="M144.69,124.93H8.39a8.39,8.39,0,1,1,0-16.77h136.3a8.39,8.39,0,1,1,0,16.77ZM8.39,112.16a4.39,4.39,0,1,0,0,8.77h136.3a4.39,4.39,0,1,0,0-8.77Z"/><path class="cls-3" d="M125.61,2.25,89.74,6l-38,47.17h0a20,20,0,0,0,21.75,22h0l47.64-37.47Z"/><path d="M71.65,77.33A22,22,0,0,1,49.76,53l.07-.59L88.7,4.13,127.91,0,123,38.85,74.27,77.19l-.59,0C73,77.3,72.33,77.33,71.65,77.33ZM53.69,54a18,18,0,0,0,19,19.32l46.52-36.58,4-32.21L90.77,7.93Z"/><polygon class="cls-2" points="92.33 60.61 98.23 66.6 87.06 102.44 73.5 75.25 92.33 60.61"/><path d="M87.06,104.44a2,2,0,0,1-1.79-1.11L71.71,76.14a2,2,0,0,1,.56-2.47L91.11,59a2,2,0,0,1,2.65.17l5.9,6a2,2,0,0,1,.48,2L89,103a2,2,0,0,1-1.75,1.4ZM76,75.82,86.63,97.09,96,67.15l-3.81-3.87Z"/><polygon class="cls-2" points="66.61 34.55 60.71 28.55 24.73 39.22 51.72 53.16 66.61 34.55"/><path d="M51.72,55.16a2,2,0,0,1-.92-.22L23.81,41a2,2,0,0,1,.35-3.7l36-10.67a2,2,0,0,1,2,.52l5.9,6a2,2,0,0,1,.14,2.65L53.28,54.41A2,2,0,0,1,51.72,55.16ZM30.06,39.73l21.12,10.9L63.94,34.69l-3.81-3.88Z"/><circle class="cls-4" cx="89.6" cy="38.26" r="9.9"/><path d="M89.61,50.16h-.09a12,12,0,1,1,.09,0Zm0-19.8a7.89,7.89,0,0,0-7.9,7.85,7.9,7.9,0,0,0,7.85,7.95h0a7.85,7.85,0,0,0,5.55-2.27h0A7.9,7.9,0,0,0,89.6,30.36Z"/><path class="cls-2" d="M113.67,26.7a1.46,1.46,0,0,1-.29,0,2,2,0,0,1-1.69-2.27l1.86-12.71a2,2,0,1,1,4,.58L115.65,25A2,2,0,0,1,113.67,26.7Z"/><path class="cls-2" d="M112.74,35a2,2,0,0,1-.77-.15,2.2,2.2,0,0,1-.65-.44,2,2,0,0,1-.59-1.41,2.45,2.45,0,0,1,0-.39,2.4,2.4,0,0,1,.12-.38,1.83,1.83,0,0,1,.18-.34,1.89,1.89,0,0,1,.25-.31,2,2,0,0,1,1.81-.55,2.65,2.65,0,0,1,.37.12,1.83,1.83,0,0,1,.34.18l.31.25a2.6,2.6,0,0,1,.25.31,1.83,1.83,0,0,1,.18.34,2.2,2.2,0,0,1,.15.77,2,2,0,0,1-.58,1.41,2.42,2.42,0,0,1-.31.25,2.27,2.27,0,0,1-.34.19l-.37.11A2.58,2.58,0,0,1,112.74,35Z"/><path class="cls-2" d="M38.86,74.65a2,2,0,0,1-1.41-.58,2,2,0,0,1,0-2.83l6.32-6.32a2,2,0,0,1,2.83,2.82l-6.32,6.33A2,2,0,0,1,38.86,74.65Z"/><path class="cls-2" d="M54.07,89.86a2,2,0,0,1-1.41-3.42L59,80.12A2,2,0,1,1,61.81,83l-6.32,6.32A2,2,0,0,1,54.07,89.86Z"/><path class="cls-2" d="M38.8,89.92a2,2,0,0,1-1.42-3.41L48.9,75a2,2,0,1,1,2.82,2.83L40.21,89.34A2,2,0,0,1,38.8,89.92Z"/></g></g></svg>