<svg xmlns="http://www.w3.org/2000/svg" xmlns:xlink="http://www.w3.org/1999/xlink" viewBox="0 0 126.95 120.8"><defs><style>.cls-1{fill:url(#linear-gradient);}.cls-2{fill:#fff;}</style><linearGradient id="linear-gradient" x1="63.93" y1="5.96" x2="52.6" y2="128.63" gradientUnits="userSpaceOnUse"><stop offset="0" stop-color="#1da5c9"/><stop offset="1" stop-color="#1d85db"/></linearGradient></defs><title>Asset 15</title><g id="Layer_2" data-name="Layer 2"><g id="Layer_1-2" data-name="Layer 1"><path class="cls-1" d="M99,25.59h0a7.43,7.43,0,0,1-8.34-1.14c-.55-.5-1.11-1-1.68-1.46a7.46,7.46,0,0,1-2.28-8.12h0A7.5,7.5,0,0,0,82,5.37l-8.85-3a7.5,7.5,0,0,0-9.5,4.71h0a7.48,7.48,0,0,1-6.73,5.1c-.74,0-1.47.08-2.21.15a7.46,7.46,0,0,1-7.34-4.14h0A7.5,7.5,0,0,0,37.33,4.84L29,9a7.5,7.5,0,0,0-3.38,10h0a7.46,7.46,0,0,1-1.14,8.35c-.5.54-1,1.1-1.46,1.67a7.45,7.45,0,0,1-8.12,2.28h0a7.49,7.49,0,0,0-9.49,4.72l-3,8.85A7.49,7.49,0,0,0,7.11,54.4h0a7.46,7.46,0,0,1,5.09,6.73q0,1.11.15,2.22a7.44,7.44,0,0,1-4.13,7.33h0a7.5,7.5,0,0,0-3.38,10L9,89.09a7.49,7.49,0,0,0,10,3.38h0a7.45,7.45,0,0,1,8.34,1.15c.55.5,1.11,1,1.68,1.45a7.48,7.48,0,0,1,2.28,8.13h0a7.5,7.5,0,0,0,4.71,9.5l8.85,3A7.5,7.5,0,0,0,54.4,111h0a7.46,7.46,0,0,1,6.73-5.1c.74,0,1.47-.08,2.21-.15a7.46,7.46,0,0,1,7.34,4.14h0a7.51,7.51,0,0,0,10,3.38l8.36-4.16a7.49,7.49,0,0,0,3.38-10h0a7.46,7.46,0,0,1,1.14-8.35c.5-.54,1-1.1,1.46-1.67a7.45,7.45,0,0,1,8.12-2.28h0A7.49,7.49,0,0,0,112.69,82l3-8.85A7.49,7.49,0,0,0,111,63.67h0a7.46,7.46,0,0,1-5.09-6.73q0-1.11-.15-2.22a7.44,7.44,0,0,1,4.13-7.33h0a7.5,7.5,0,0,0,3.38-10L109.07,29A7.5,7.5,0,0,0,99,25.59Z"/><path d="M47.28,118.06a9.68,9.68,0,0,1-3-.49l-8.84-3a9.5,9.5,0,0,1-6.08-11.7v0l.1-.31a5.5,5.5,0,0,0-1.66-6c-.59-.49-1.18-1-1.75-1.52a5.49,5.49,0,0,0-6.1-.82A9.51,9.51,0,0,1,7.2,90L3.05,81.62A9.49,9.49,0,0,1,7.33,68.89a5.49,5.49,0,0,0,3-5.36c-.07-.77-.12-1.54-.16-2.31A5.47,5.47,0,0,0,6.47,56.3a9.51,9.51,0,0,1-6-12l3-8.85a9.51,9.51,0,0,1,12-6,5.48,5.48,0,0,0,5.95-1.67c.49-.59,1-1.17,1.52-1.74a5.49,5.49,0,0,0,.83-6.11A9.51,9.51,0,0,1,28.08,7.2l8.36-4.15A9.51,9.51,0,0,1,49.17,7.33a5.47,5.47,0,0,0,5.36,3c.78-.07,1.55-.12,2.32-.15a5.51,5.51,0,0,0,4.92-3.73,9.51,9.51,0,0,1,12-6l8.84,3a9.5,9.5,0,0,1,6,12,5.48,5.48,0,0,0,1.66,5.94c.6.5,1.18,1,1.75,1.53a5.49,5.49,0,0,0,6.1.82h0a9.5,9.5,0,0,1,12.73,4.29L115,36.45a9.51,9.51,0,0,1-4.28,12.73,5.49,5.49,0,0,0-3,5.36c.07.77.12,1.54.16,2.31a5.48,5.48,0,0,0,3.73,4.92l.14,0a9.49,9.49,0,0,1,5.83,12l-3,8.85a9.51,9.51,0,0,1-12,6,5.48,5.48,0,0,0-6,1.67c-.49.59-1,1.17-1.52,1.74a5.49,5.49,0,0,0-.83,6.11A9.47,9.47,0,0,1,90,110.86L81.62,115a9.5,9.5,0,0,1-12.73-4.29,5.5,5.5,0,0,0-5.36-3c-.77.08-1.55.13-2.32.16a5.51,5.51,0,0,0-4.92,3.73A9.5,9.5,0,0,1,47.28,118.06ZM33.34,103.51v0l-.11.31a5.5,5.5,0,0,0,3.46,7l8.85,3a5.51,5.51,0,0,0,7-3.46A9.53,9.53,0,0,1,61,103.86c.71,0,1.41-.07,2.12-.14A9.52,9.52,0,0,1,72.47,109a5.52,5.52,0,0,0,7.37,2.48l8.36-4.16A5.45,5.45,0,0,0,91,104.11a5.52,5.52,0,0,0-.29-4.2,9.51,9.51,0,0,1,1.46-10.58c.47-.52.94-1,1.39-1.6a9.51,9.51,0,0,1,10.3-2.9,5.5,5.5,0,0,0,7-3.46l3-8.84a5.5,5.5,0,0,0-3.45-7l-.15,0A9.52,9.52,0,0,1,103.86,57c0-.7-.08-1.41-.14-2.12A9.52,9.52,0,0,1,109,45.59a5.48,5.48,0,0,0,2.48-7.36l-4.15-8.37a5.5,5.5,0,0,0-7.37-2.47h0a9.51,9.51,0,0,1-10.58-1.46c-.52-.48-1.06-.94-1.6-1.4a9.5,9.5,0,0,1-2.9-10.3,5.5,5.5,0,0,0-3.46-7l-8.85-3a5.5,5.5,0,0,0-7,3.46A9.51,9.51,0,0,1,57,14.2c-.71,0-1.41.08-2.12.15a9.5,9.5,0,0,1-9.31-5.24,5.52,5.52,0,0,0-7.37-2.48l-8.36,4.16a5.5,5.5,0,0,0-2.48,7.36,9.52,9.52,0,0,1-1.45,10.59c-.48.52-.95,1.05-1.4,1.6a9.51,9.51,0,0,1-10.3,2.9,5.51,5.51,0,0,0-7,3.46l-3,8.84a5.51,5.51,0,0,0,3.45,7A9.51,9.51,0,0,1,14.2,61c0,.71.08,1.42.14,2.13a9.51,9.51,0,0,1-5.23,9.31,5.42,5.42,0,0,0-2.77,3.17,5.49,5.49,0,0,0,.29,4.19l4.15,8.36a5.5,5.5,0,0,0,7.37,2.48,9.51,9.51,0,0,1,10.58,1.46c.53.48,1.06.94,1.6,1.4A9.5,9.5,0,0,1,33.34,103.51Z"/><path class="cls-2" d="M92.3,58.32a2,2,0,0,1-1.41-.58,2,2,0,0,1-.59-1.42,2.58,2.58,0,0,1,0-.39,2.29,2.29,0,0,1,.12-.37,2.31,2.31,0,0,1,.18-.35,1.81,1.81,0,0,1,.25-.3,1.42,1.42,0,0,1,.3-.25,2.37,2.37,0,0,1,.35-.19,2.26,2.26,0,0,1,.37-.11,2,2,0,0,1,.78,0,2.38,2.38,0,0,1,.38.11,1.86,1.86,0,0,1,.34.19,1.48,1.48,0,0,1,.31.25,2.48,2.48,0,0,1,.25.3,2.31,2.31,0,0,1,.18.35,1.58,1.58,0,0,1,.11.37,1.72,1.72,0,0,1,0,.39,2,2,0,0,1-.58,1.42A2,2,0,0,1,92.3,58.32Z"/><path class="cls-2" d="M90.64,50A2,2,0,0,1,88.8,48.8,30.22,30.22,0,0,0,75.07,34a2,2,0,0,1,1.86-3.54A34.21,34.21,0,0,1,92.48,47.22,2,2,0,0,1,90.64,50Z"/><path class="cls-2" d="M122.43,105.73,81.46,70a23.69,23.69,0,0,0-32-30.56l11,9.62a7.5,7.5,0,0,1,.73,10.54l-2.7,3.09A7.5,7.5,0,0,1,48,63.46L37,53.82A23.7,23.7,0,0,0,71.56,81.37l.09-.06,41,35.69a7.39,7.39,0,0,0,10.4-.72l.13-.15A7.39,7.39,0,0,0,122.43,105.73Z"/><path d="M117.45,120.8a9.3,9.3,0,0,1-6.15-2.3L71.39,83.74A25.69,25.69,0,0,1,35.07,53.22a2,2,0,0,1,3.22-.91L49.36,62a5.48,5.48,0,0,0,7.72-.54l2.69-3.08a5.46,5.46,0,0,0,1.32-4,5.39,5.39,0,0,0-1.86-3.75L48.19,41a2,2,0,0,1-.67-1.79,2,2,0,0,1,1.13-1.53A25.69,25.69,0,0,1,83.83,69.45l39.91,34.77a9.38,9.38,0,0,1,.91,13.22l-.12.15A9.38,9.38,0,0,1,117.45,120.8ZM71.65,79.31a2,2,0,0,1,1.31.5l41,35.68a5.39,5.39,0,0,0,7.58-.52l.12-.15a5.38,5.38,0,0,0-.51-7.58h0l-41-35.69a2,2,0,0,1-.54-2.28,21.7,21.7,0,0,0-26.3-29.13l8.55,7.45A9.49,9.49,0,0,1,62.78,61L60.09,64A9.48,9.48,0,0,1,46.73,65L38.16,57.5A21.7,21.7,0,0,0,70.55,79.64l.07,0A2,2,0,0,1,71.65,79.31Z"/></g></g></svg>