<svg xmlns="http://www.w3.org/2000/svg" xmlns:xlink="http://www.w3.org/1999/xlink" viewBox="0 0 635.17 621.4"><defs><style>.cls-1{fill:#d8dfe6;}.cls-2{fill:url(#linear-gradient);}.cls-3{fill:#52c7e5;}.cls-4{fill:url(#linear-gradient-2);}.cls-5{fill:url(#linear-gradient-3);}.cls-6{fill:#fff;}.cls-7{fill:url(#linear-gradient-4);}.cls-8{fill:#3bace1;}.cls-9{fill:#226399;}.cls-10{fill:url(#linear-gradient-5);}.cls-11{fill:url(#linear-gradient-6);}.cls-12{fill:url(#linear-gradient-7);}.cls-13{fill:url(#linear-gradient-8);}.cls-14{fill:url(#linear-gradient-9);}.cls-15{fill:#eccd1a;}.cls-16{fill:url(#linear-gradient-10);}.cls-17{fill:url(#linear-gradient-11);}.cls-18{fill:url(#linear-gradient-12);}.cls-19{fill:url(#linear-gradient-13);}</style><linearGradient id="linear-gradient" x1="217.4" y1="248.63" x2="440.23" y2="248.63" gradientUnits="userSpaceOnUse"><stop offset="0" stop-color="#1da5c9"/><stop offset="1" stop-color="#1d85db"/></linearGradient><linearGradient id="linear-gradient-2" x1="217.4" y1="468.77" x2="440.23" y2="468.77" xlink:href="#linear-gradient"/><linearGradient id="linear-gradient-3" x1="253.72" y1="117.46" x2="242.47" y2="132.96" gradientUnits="userSpaceOnUse"><stop offset="0" stop-color="#ebcd1c"/><stop offset="1" stop-color="#eb901c"/></linearGradient><linearGradient id="linear-gradient-4" x1="295.3" y1="124.47" x2="312.96" y2="124.47" gradientUnits="userSpaceOnUse"><stop offset="0" stop-color="#ed467b"/><stop offset="1" stop-color="#ec7e7a"/></linearGradient><linearGradient id="linear-gradient-5" x1="576.45" y1="-6.8" x2="520.96" y2="186.69" xlink:href="#linear-gradient-3"/><linearGradient id="linear-gradient-6" x1="526.84" y1="86.85" x2="575.8" y2="86.85" xlink:href="#linear-gradient"/><linearGradient id="linear-gradient-7" x1="101.27" y1="222.85" x2="69.27" y2="411.85" xlink:href="#linear-gradient-3"/><linearGradient id="linear-gradient-8" x1="74.82" y1="348.09" x2="98.52" y2="348.09" xlink:href="#linear-gradient"/><linearGradient id="linear-gradient-9" x1="579.71" y1="408.85" x2="524.21" y2="621.84" xlink:href="#linear-gradient-3"/><linearGradient id="linear-gradient-10" x1="501.12" y1="511.9" x2="535.12" y2="511.9" xlink:href="#linear-gradient"/><linearGradient id="linear-gradient-11" x1="547.35" y1="530.23" x2="603.89" y2="530.23" xlink:href="#linear-gradient"/><linearGradient id="linear-gradient-12" x1="524.62" y1="548.18" x2="570.08" y2="548.18" xlink:href="#linear-gradient"/><linearGradient id="linear-gradient-13" x1="404.32" y1="214.63" x2="359.32" y2="256.63" xlink:href="#linear-gradient-3"/></defs><title>Asset 38</title><g id="Layer_2" data-name="Layer 2"><g id="Layer_1-2" data-name="Layer 1"><path class="cls-1" d="M113.39,594.23h0a27.17,27.17,0,0,0,27.17,27.17h321.5a27.18,27.18,0,0,0,27.18-27.18h0A27.18,27.18,0,0,0,462.06,567H407.82a27.17,27.17,0,0,1-27.18-27.17h0a27.18,27.18,0,0,1,27.18-27.18h54.24a27.18,27.18,0,0,0,27.18-27.18h0a27.18,27.18,0,0,0-27.18-27.18H86.21A27.18,27.18,0,0,0,59,485.51h0a27.18,27.18,0,0,0,27.18,27.18h103a27.17,27.17,0,0,1,27.18,26.93h0A27.18,27.18,0,0,1,189.19,567H140.56A27.17,27.17,0,0,0,113.39,594.23Z"/><path class="cls-1" d="M118.28,246.49H536.67a31.27,31.27,0,0,0,31.27-31.26h0A31.27,31.27,0,0,0,536.67,184H491.39a31.26,31.26,0,0,1-31.26-31h0a31.26,31.26,0,0,1,31.26-31.54h35a31.27,31.27,0,0,0,31.26-31.27h0a31.26,31.26,0,0,0-31.26-31.26H108A31.27,31.27,0,0,0,76.76,90.17h0A31.27,31.27,0,0,0,108,121.44h34.83a31.25,31.25,0,0,1,31.26,31h0A31.26,31.26,0,0,1,142.85,184H118.28A31.25,31.25,0,0,0,87,215.23h0A31.26,31.26,0,0,0,118.28,246.49Zm257.53-125a31.25,31.25,0,0,1,31.26,31.26h0A31.25,31.25,0,0,1,375.81,184H248a31.26,31.26,0,0,1-31.27-31.26h0A31.26,31.26,0,0,1,248,121.44Z"/><path class="cls-2" d="M233.12,94h191.4a15.72,15.72,0,0,1,15.72,15.72V403.3a0,0,0,0,1,0,0H217.4a0,0,0,0,1,0,0V109.68A15.72,15.72,0,0,1,233.12,94Z"/><polygon class="cls-3" points="438.13 104.1 218.42 104.1 227.13 95.62 432.38 95.62 438.13 104.1"/><path d="M442.23,405.3H215.4V109.68A17.74,17.74,0,0,1,233.12,92h191.4a17.73,17.73,0,0,1,17.71,17.71Zm-222.83-4H438.23V109.68A13.73,13.73,0,0,0,424.52,96H233.12a13.73,13.73,0,0,0-13.72,13.71Z"/><path class="cls-4" d="M217.4,403.3H440.23a0,0,0,0,1,0,0V518.53a15.72,15.72,0,0,1-15.72,15.72H233.12a15.72,15.72,0,0,1-15.72-15.72V403.3A0,0,0,0,1,217.4,403.3Z"/><rect class="cls-3" x="218.42" y="404.63" width="219.71" height="8.48"/><path d="M424.52,536.24H233.12a17.73,17.73,0,0,1-17.72-17.71V401.3H442.23V518.53A17.72,17.72,0,0,1,424.52,536.24ZM219.4,405.3V518.53a13.73,13.73,0,0,0,13.72,13.71h191.4a13.73,13.73,0,0,0,13.71-13.71V405.3Z"/><circle class="cls-5" cx="248.63" cy="124.47" r="8.83"/><path d="M248.63,135.3a10.84,10.84,0,1,1,10.83-10.83A10.84,10.84,0,0,1,248.63,135.3Zm0-17.67a6.84,6.84,0,1,0,6.83,6.84A6.84,6.84,0,0,0,248.63,117.63Z"/><circle class="cls-6" cx="276.13" cy="124.47" r="8.83"/><path d="M276.13,135.3A10.84,10.84,0,1,1,287,124.47,10.84,10.84,0,0,1,276.13,135.3Zm0-17.67a6.84,6.84,0,1,0,6.83,6.84A6.84,6.84,0,0,0,276.13,117.63Z"/><circle class="cls-7" cx="304.13" cy="124.47" r="8.83"/><path d="M304.13,135.3A10.84,10.84,0,1,1,315,124.47,10.84,10.84,0,0,1,304.13,135.3Zm0-17.67a6.84,6.84,0,1,0,6.83,6.84A6.84,6.84,0,0,0,304.13,117.63Z"/><rect class="cls-8" x="237.96" y="147.15" width="181.71" height="37.33"/><rect class="cls-3" x="237.96" y="146.15" width="181.71" height="8.48"/><path d="M421.67,186.49H236V145.15H421.67Zm-181.71-4H417.67V149.15H240Z"/><path class="cls-9" d="M274.13,171.82H253.46a2,2,0,1,1,0-4h20.67a2,2,0,0,1,0,4Z"/><path class="cls-9" d="M348.13,171.82H285a2,2,0,0,1,0-4h63.17a2,2,0,0,1,0,4Z"/><rect class="cls-6" x="363.76" y="161.45" width="41.75" height="14.75" rx="7.37" ry="7.37"/><path d="M398.13,178.2h-27a9.38,9.38,0,0,1,0-18.75h27a9.38,9.38,0,1,1,0,18.75Zm-27-14.75a5.38,5.38,0,0,0,0,10.75h27a5.38,5.38,0,1,0,0-10.75Z"/><path class="cls-6" d="M421.34,395.76H390a2,2,0,0,1,0-4h31.33a2,2,0,0,1,0,4Z"/><path class="cls-6" d="M382.67,395.76a2.06,2.06,0,0,1-1.42-.58,2,2,0,0,1,0-2.83,2.42,2.42,0,0,1,.31-.25,2.21,2.21,0,0,1,.34-.18,2.4,2.4,0,0,1,.38-.12,2,2,0,0,1,1.8,3.38A2,2,0,0,1,382.67,395.76Z"/><rect class="cls-8" x="239.8" y="429.44" width="17.67" height="79.3" rx="8.83" ry="8.83"/><path d="M248.63,510.74a10.84,10.84,0,0,1-10.83-10.83V438.27a10.83,10.83,0,0,1,21.66,0v61.64A10.84,10.84,0,0,1,248.63,510.74Zm0-79.3a6.83,6.83,0,0,0-6.83,6.83v61.64a6.83,6.83,0,0,0,13.66,0V438.27A6.83,6.83,0,0,0,248.63,431.44Z"/><rect class="cls-8" x="272.24" y="429.44" width="17.67" height="79.3" rx="8.83" ry="8.83"/><path d="M281.07,510.74a10.84,10.84,0,0,1-10.83-10.83V438.27a10.84,10.84,0,0,1,21.67,0v61.64A10.85,10.85,0,0,1,281.07,510.74Zm0-79.3a6.83,6.83,0,0,0-6.83,6.83v61.64a6.84,6.84,0,0,0,13.67,0V438.27A6.84,6.84,0,0,0,281.07,431.44Z"/><rect class="cls-8" x="304.68" y="429.44" width="17.67" height="79.3" rx="8.83" ry="8.83"/><path d="M313.51,510.74a10.84,10.84,0,0,1-10.83-10.83V438.27a10.84,10.84,0,0,1,21.67,0v61.64A10.85,10.85,0,0,1,313.51,510.74Zm0-79.3a6.84,6.84,0,0,0-6.83,6.83v61.64a6.84,6.84,0,0,0,13.67,0V438.27A6.84,6.84,0,0,0,313.51,431.44Z"/><rect class="cls-8" x="337.12" y="429.44" width="17.67" height="79.3" rx="8.83" ry="8.83"/><path d="M346,510.74a10.85,10.85,0,0,1-10.84-10.83V438.27a10.84,10.84,0,0,1,21.67,0v61.64A10.84,10.84,0,0,1,346,510.74Zm0-79.3a6.84,6.84,0,0,0-6.84,6.83v61.64a6.84,6.84,0,0,0,13.67,0V438.27A6.84,6.84,0,0,0,346,431.44Z"/><rect class="cls-8" x="369.56" y="429.44" width="17.67" height="79.3" rx="8.83" ry="8.83"/><path d="M378.4,510.74a10.85,10.85,0,0,1-10.84-10.83V438.27a10.84,10.84,0,0,1,21.67,0v61.64A10.84,10.84,0,0,1,378.4,510.74Zm0-79.3a6.84,6.84,0,0,0-6.84,6.83v61.64a6.84,6.84,0,0,0,13.67,0V438.27A6.83,6.83,0,0,0,378.4,431.44Z"/><rect class="cls-8" x="402.01" y="429.44" width="17.67" height="79.3" rx="8.83" ry="8.83"/><path d="M410.84,510.74A10.84,10.84,0,0,1,400,499.91V438.27a10.83,10.83,0,0,1,21.66,0v61.64A10.84,10.84,0,0,1,410.84,510.74Zm0-79.3a6.83,6.83,0,0,0-6.83,6.83v61.64a6.83,6.83,0,1,0,13.66,0V438.27A6.83,6.83,0,0,0,410.84,431.44Z"/><path class="cls-6" d="M285,525.43H243.32a2,2,0,0,1,0-4H285a2,2,0,0,1,0,4Z"/><path class="cls-6" d="M293.7,525.43a2.09,2.09,0,0,1-.76-.15,1.41,1.41,0,0,1-.34-.19,1.79,1.79,0,0,1-.31-.25,1.81,1.81,0,0,1-.25-.3,2.21,2.21,0,0,1-.18-.34,2.4,2.4,0,0,1-.12-.38,2.55,2.55,0,0,1,0-.78,2.78,2.78,0,0,1,.12-.38,2.21,2.21,0,0,1,.18-.34,3.76,3.76,0,0,1,.25-.31,1.83,1.83,0,0,1,.31-.24,1.86,1.86,0,0,1,.34-.19,2.59,2.59,0,0,1,.37-.11,2.1,2.1,0,0,1,.79,0,2.59,2.59,0,0,1,.37.11,2.37,2.37,0,0,1,.35.19,1.76,1.76,0,0,1,.3.24,2.42,2.42,0,0,1,.25.31,2.21,2.21,0,0,1,.18.34,2.78,2.78,0,0,1,.12.38,1.92,1.92,0,0,1,0,.78,2.4,2.4,0,0,1-.12.38,2.21,2.21,0,0,1-.18.34,1.81,1.81,0,0,1-.25.3,2,2,0,0,1-.65.44A2,2,0,0,1,293.7,525.43Z"/><circle class="cls-10" cx="551.2" cy="81.25" r="79.25"/><path d="M551.2,162.49a81.25,81.25,0,1,1,81.25-81.24A81.34,81.34,0,0,1,551.2,162.49ZM551.2,4a77.25,77.25,0,1,0,77.25,77.25A77.34,77.34,0,0,0,551.2,4Z"/><path class="cls-6" d="M588.93,49.68l-1.71-.22a30.67,30.67,0,0,1-6.6-1.15c-7.67-1.83-14.91-5.49-23-11.66a7.37,7.37,0,0,0-10.22,0c-8.1,6.17-15.34,9.83-23,11.66a30.67,30.67,0,0,1-6.6,1.15l-1.7.22c-4.05.46-6.39,3.44-6.39,7.55V79c0,4.8,0,9.84.21,14.64.21,7.09,2.77,14.18,7.46,20.81,5.32,7.55,35.14,24.7,35.14,24.7s29.82-17.15,35.15-24.7c4.68-6.63,7.24-13.72,7.45-20.81.22-4.8.22-9.84.22-14.64V57.23C595.32,53.12,593,50.14,588.93,49.68Z"/><path d="M552.5,141.42l-1-.57c-1.23-.71-30.26-17.47-35.78-25.28-5-7-7.59-14.4-7.82-21.91-.21-4.82-.21-9.84-.21-14.7V57.23c0-5.23,3.2-9,8.16-9.53l1.67-.23a29,29,0,0,0,6.25-1.06l.15,0c7.38-1.76,14.45-5.36,22.26-11.31a9.33,9.33,0,0,1,12.6,0c7.85,6,14.93,9.59,22.3,11.35l.15,0a29.13,29.13,0,0,0,6.19,1.06l1.75.23c5,.57,8.15,4.31,8.15,9.53V79c0,4.86,0,9.88-.22,14.73-.22,7.48-2.85,14.85-7.82,21.88-5.51,7.81-34.55,24.57-35.78,25.28ZM524.92,50.24A32.3,32.3,0,0,1,518,51.45l-1.64.22c-3,.33-4.65,2.36-4.65,5.56V79c0,4.81,0,9.79.21,14.55.2,6.74,2.59,13.37,7.09,19.75,4,5.67,24.65,18.39,33.51,23.54,8.86-5.15,29.51-17.87,33.51-23.54,4.51-6.37,6.89-13,7.09-19.72.22-4.79.22-9.77.22-14.58V57.23c0-3.2-1.69-5.23-4.62-5.56h0l-1.7-.23a31.78,31.78,0,0,1-6.88-1.2c-7.91-1.9-15.44-5.71-23.68-12a7.07,7.07,0,0,0-3.9-1.65,7.19,7.19,0,0,0-4,1.68C540.36,44.53,532.83,48.34,524.92,50.24Z"/><polygon class="cls-11" points="575.8 74.42 568.25 66.87 543.39 91.73 534.39 82.74 526.84 90.29 543.38 106.83 543.39 106.83 543.39 106.83 575.8 74.42"/><path d="M568.25,66.87l7.55,7.55-32.41,32.41h0L526.84,90.29l7.55-7.55,9,9,24.86-24.86m0-5.66L565.42,64l-22,22-6.17-6.16-2.83-2.83-2.82,2.83L524,87.46l-2.83,2.83L524,93.12l16.55,16.54,2.82,2.82h0l2.83-2.83,32.41-32.41,2.83-2.83-2.83-2.82L571.08,64l-2.83-2.83Z"/><circle class="cls-12" cx="86.67" cy="309.05" r="84.71"/><path d="M86.67,395.72A86.68,86.68,0,1,1,148,370.36,86.41,86.41,0,0,1,86.67,395.72Zm0-169.34a82.67,82.67,0,1,0,58.49,24.18A82.49,82.49,0,0,0,86.67,226.38Z"/><path class="cls-6" d="M128.71,286.41a16.5,16.5,0,0,0-5.73,1c0-.35,0-.69,0-1a33.2,33.2,0,0,0-64.93-9.79,22.21,22.21,0,1,0-7.82,43h78.46a16.6,16.6,0,0,0,0-33.2Z"/><path d="M128.71,321.61H50.25a24.22,24.22,0,1,1,0-48.43,24,24,0,0,1,6.56.92A35.21,35.21,0,0,1,125,284.8a18.13,18.13,0,0,1,3.74-.39,18.6,18.6,0,0,1,0,37.2ZM50.25,277.18a20.22,20.22,0,1,0,0,40.43h78.46a14.6,14.6,0,1,0-5-28.28l-2.79,1,.11-3.22c0-.24,0-.48,0-.72a31.2,31.2,0,0,0-61-9.2l-.63,2-2-.75A20.14,20.14,0,0,0,50.25,277.18Z"/><path d="M86.67,343.46a2,2,0,0,1-2-2V320a2,2,0,0,1,4,0v21.5A2,2,0,0,1,86.67,343.46Z"/><path d="M130.76,350.09H42.58a2,2,0,1,1,0-4h88.18a2,2,0,0,1,0,4Z"/><circle class="cls-13" cx="86.67" cy="348.09" r="11.85"/><path d="M86.67,361.94a13.85,13.85,0,1,1,13.85-13.85A13.87,13.87,0,0,1,86.67,361.94Zm0-23.69a9.85,9.85,0,1,0,9.85,9.84A9.85,9.85,0,0,0,86.67,338.25Z"/><circle class="cls-14" cx="552.5" cy="513.26" r="80.67"/><path d="M552.5,595.93a82.67,82.67,0,1,1,82.67-82.67A82.76,82.76,0,0,1,552.5,595.93Zm0-161.34a78.67,78.67,0,1,0,78.67,78.67A78.76,78.76,0,0,0,552.5,434.59Z"/><path class="cls-15" d="M536.7,481.57s-8.66,4.81-11.3,14.07-1.33,18.63,3.48,26a30.09,30.09,0,0,0,22.48,12.62,18.58,18.58,0,0,0,2.64.12,28.21,28.21,0,0,0,20.8-8.65c7.45-8.06,9.37-22.84-1.32-35.7-1.57-1.93-3.13-3.61-4.57-5.29-7.45-8.3-7.33-27.53-7.33-27.53S543.19,468,545.47,480c.12.72.36,1.56.6,2.52,1.32,5.05,1.92,8.66-1.68,10.22a2.85,2.85,0,0,1-3.13-.6C538.74,490.23,536.7,481.57,536.7,481.57Z"/><path d="M554,536.34a21,21,0,0,1-2.86-.13,32,32,0,0,1-23.91-13.49,33.45,33.45,0,0,1-3.76-27.63c2.84-9.94,11.87-15,12.25-15.27a2,2,0,0,1,1.78-.08,2,2,0,0,1,1.14,1.37c.91,3.83,2.63,8.53,3.84,9.45.69.54.89.46,1.1.36,1.66-.72,2.1-2,.56-7.88l-.19-.73c-.18-.69-.35-1.35-.45-2-2.51-13.21,16.26-24.42,17.06-24.89a2,2,0,0,1,3,1.73c0,.19,0,18.56,6.82,26.18.54.64,1.07,1.23,1.61,1.85,1,1.11,2,2.25,3,3.52,11.4,13.7,9.25,29.65,1.24,38.31A30,30,0,0,1,554,536.34Zm-18.5-51.53c-2.54,2-6.59,5.82-8.18,11.38a29.47,29.47,0,0,0,3.24,24.31,28,28,0,0,0,21,11.73h.12a17.19,17.19,0,0,0,2.36.1,26.07,26.07,0,0,0,19.34-8c6.82-7.38,8.54-21.1-1.4-33.05-1-1.22-2-2.34-2.93-3.42L567.39,486c-5.87-6.54-7.33-19-7.69-25.17-4.81,3.45-13.74,11-12.27,18.81.09.49.23,1,.39,1.67l.19.74c1.12,4.27,2.66,10.16-2.83,12.54a4.79,4.79,0,0,1-5.14-.86C538,492.16,536.39,487.81,535.5,484.81Z"/><rect class="cls-6" x="501.12" y="503.03" width="102.77" height="53.49" rx="3.9" ry="3.9"/><path d="M600,558.52H505a5.9,5.9,0,0,1-5.9-5.9V506.93A5.9,5.9,0,0,1,505,501h95a5.91,5.91,0,0,1,5.91,5.9v45.69A5.91,5.91,0,0,1,600,558.52ZM505,505a1.9,1.9,0,0,0-1.9,1.9v45.69a1.9,1.9,0,0,0,1.9,1.9h95a1.91,1.91,0,0,0,1.91-1.9V506.93A1.91,1.91,0,0,0,600,505Z"/><path class="cls-16" d="M501.14,520.76s0,0,0,0v-14a3.72,3.72,0,0,1,3.72-3.72h30.28v17.71Z"/><path d="M501.14,522.76h-2l0-2v-14a5.73,5.73,0,0,1,5.72-5.72h32.28v19.71c0,2-1.76,2-3.46,2Zm3.7-17.73a1.72,1.72,0,0,0-1.72,1.72v12l30,0V505Z"/><rect x="586.33" y="519.71" width="4" height="20.13"/><rect x="522.63" y="537.92" width="4" height="20.13"/><rect x="502.69" y="518.76" width="101.2" height="4"/><rect x="501.12" y="537.69" width="102.77" height="4"/><rect class="cls-17" x="547.35" y="520.76" width="56.53" height="18.93"/><path d="M605.89,541.69H545.35V518.76h60.54Zm-56.54-4h52.54V522.76H549.35Z"/><rect class="cls-18" x="524.62" y="539.84" width="45.46" height="16.68"/><path d="M572.08,558.52H522.63V537.84h49.45Zm-45.45-4h41.45V541.84H526.63Z"/><rect class="cls-8" x="237.96" y="211.3" width="181.71" height="37.33"/><rect class="cls-3" x="237.96" y="210.3" width="181.71" height="8.48"/><path d="M421.67,250.63H236V209.3H421.67Zm-181.71-4H417.67V213.3H240Z"/><path class="cls-9" d="M274.13,236H253.46a2,2,0,0,1,0-4h20.67a2,2,0,0,1,0,4Z"/><path class="cls-9" d="M348.13,236H285a2,2,0,0,1,0-4h63.17a2,2,0,0,1,0,4Z"/><rect class="cls-19" x="363.8" y="225.59" width="41.75" height="14.75" rx="7.37" ry="7.37"/><path d="M398.17,242.34h-27a9.38,9.38,0,0,1,0-18.75h27a9.38,9.38,0,1,1,0,18.75Zm-27-14.75a5.38,5.38,0,0,0,0,10.75h27a5.38,5.38,0,1,0,0-10.75Z"/><rect class="cls-8" x="237.96" y="275.05" width="181.71" height="37.33"/><rect class="cls-3" x="237.96" y="274.05" width="181.71" height="8.48"/><path d="M421.67,314.38H236V273.05H421.67Zm-181.71-4H417.67V277.05H240Z"/><path class="cls-9" d="M274.13,299.71H253.46a2,2,0,1,1,0-4h20.67a2,2,0,0,1,0,4Z"/><path class="cls-9" d="M348.13,299.71H285a2,2,0,0,1,0-4h63.17a2,2,0,0,1,0,4Z"/><rect class="cls-6" x="363.76" y="289.34" width="41.75" height="14.75" rx="7.37" ry="7.37"/><path d="M398.13,306.09h-27a9.38,9.38,0,0,1,0-18.75h27a9.38,9.38,0,1,1,0,18.75Zm-27-14.75a5.38,5.38,0,0,0,0,10.75h27a5.38,5.38,0,1,0,0-10.75Z"/><rect class="cls-8" x="237.96" y="338.79" width="181.71" height="37.33"/><rect class="cls-3" x="237.96" y="337.79" width="181.71" height="8.48"/><path d="M421.67,378.12H236V336.79H421.67Zm-181.71-4H417.67V340.79H240Z"/><path class="cls-9" d="M274.13,363.46H253.46a2,2,0,1,1,0-4h20.67a2,2,0,0,1,0,4Z"/><path class="cls-9" d="M348.13,363.46H285a2,2,0,0,1,0-4h63.17a2,2,0,0,1,0,4Z"/><rect class="cls-6" x="363.76" y="353.08" width="41.75" height="14.75" rx="7.37" ry="7.37"/><path d="M398.13,369.83h-27a9.38,9.38,0,0,1,0-18.75h27a9.38,9.38,0,1,1,0,18.75Zm-27-14.75a5.38,5.38,0,0,0,0,10.75h27a5.38,5.38,0,1,0,0-10.75Z"/></g></g></svg>