<svg xmlns="http://www.w3.org/2000/svg" xmlns:xlink="http://www.w3.org/1999/xlink" viewBox="0 0 134.72 125.11"><defs><style>.cls-1{fill:url(#linear-gradient);}.cls-2{fill:#fff;}.cls-3{fill:url(#linear-gradient-2);}</style><linearGradient id="linear-gradient" x1="68.82" y1="1.64" x2="65.48" y2="92.98" gradientUnits="userSpaceOnUse"><stop offset="0" stop-color="#1da5c9"/><stop offset="1" stop-color="#1d85db"/></linearGradient><linearGradient id="linear-gradient-2" x1="85.02" y1="96.49" x2="69.02" y2="126.49" gradientUnits="userSpaceOnUse"><stop offset="0" stop-color="#ebcd1c"/><stop offset="1" stop-color="#eb901c"/></linearGradient></defs><title>Asset 12</title><g id="Layer_2" data-name="Layer 2"><g id="Layer_1-2" data-name="Layer 1"><path class="cls-1" d="M45,81.06H14.56C7.63,81.06,2,76,2,69.82V13.24C2,7,7.63,2,14.56,2h105.6c6.94,0,12.56,5,12.56,11.24V69.82c0,6.2-5.62,11.24-12.56,11.24H93"/><path d="M120.16,83.06H93v-4h27.12c5.82,0,10.56-4.15,10.56-9.24V13.24C130.72,8.14,126,4,120.16,4H14.56C8.74,4,4,8.14,4,13.24V69.82c0,5.09,4.74,9.24,10.56,9.24H45v4H14.56C6.53,83.06,0,77.12,0,69.82V13.24C0,5.94,6.53,0,14.56,0h105.6c8,0,14.56,5.94,14.56,13.24V69.82C134.72,77.12,128.19,83.06,120.16,83.06Z"/><path class="cls-2" d="M121.65,40.17a2,2,0,0,1-2-2V15.49a2,2,0,0,1,4,0V38.17A2,2,0,0,1,121.65,40.17Z"/><path class="cls-2" d="M121.65,48.51a2,2,0,0,1-.76-.15,1.92,1.92,0,0,1-.65-.44,1.42,1.42,0,0,1-.25-.3,1.63,1.63,0,0,1-.19-.34,2.2,2.2,0,0,1-.15-.77,1.72,1.72,0,0,1,0-.39,1.58,1.58,0,0,1,.11-.37,2.37,2.37,0,0,1,.19-.35,1.81,1.81,0,0,1,.25-.3,1.42,1.42,0,0,1,.3-.25,2.37,2.37,0,0,1,.35-.19,2.26,2.26,0,0,1,.37-.11,2,2,0,0,1,1.8.55,1.42,1.42,0,0,1,.25.3,1.7,1.7,0,0,1,.19.35,1.58,1.58,0,0,1,.11.37,1.72,1.72,0,0,1,0,.39,2.2,2.2,0,0,1-.15.77,2.21,2.21,0,0,1-.18.34,1.87,1.87,0,0,1-.26.3A2,2,0,0,1,121.65,48.51Z"/><path class="cls-2" d="M47.43,60.46a2,2,0,0,1-1.64-.84,22.74,22.74,0,1,1,39.58-4.45,2,2,0,1,1-3.69-1.52,18.73,18.73,0,1,0-36.05-7.14A18.53,18.53,0,0,0,49.06,57.3a2,2,0,0,1-.48,2.79A2,2,0,0,1,47.43,60.46Z"/><path class="cls-2" d="M40,72a2,2,0,0,1-1.44-.61A35.78,35.78,0,1,1,97.48,59.86a2,2,0,0,1-3.71-1.5,31.8,31.8,0,1,0-52.3,10.28A2,2,0,0,1,40,72Z"/><path class="cls-2" d="M94.43,96l-4.2,10.19H63.82l-4.2-7.3A37.57,37.57,0,0,0,47.88,86.36l-.79-.53a6.43,6.43,0,0,1-1.89-8.76h0a6.43,6.43,0,0,1,8.66-2.16l3.27,1.89V46.13a7.46,7.46,0,0,1,7.46-7.46h0A7.46,7.46,0,0,1,72,46.13V61.35l17.4,4.89A10.16,10.16,0,0,1,96.84,76v7.85A31.84,31.84,0,0,1,94.43,96Z"/><path d="M90.23,108.21H63.82a2,2,0,0,1-1.74-1l-4.19-7.3A35.81,35.81,0,0,0,46.77,88L46,87.5a8.43,8.43,0,0,1,8.88-14.32l.27.16V46.13a9.46,9.46,0,1,1,18.91,0v13.7L90,64.32A12.18,12.18,0,0,1,98.84,76v7.85a33.63,33.63,0,0,1-2.56,12.91h0L92.08,107A2,2,0,0,1,90.23,108.21Zm-25.25-4H88.89l3.69-9a29.67,29.67,0,0,0,2.26-11.39V76a8.17,8.17,0,0,0-5.94-7.84l-17.4-4.9A2,2,0,0,1,70,61.35V46.13a5.46,5.46,0,1,0-10.91,0V76.8a2,2,0,0,1-3,1.73l-3.27-1.88a4.43,4.43,0,0,0-4.66,7.52l.79.52A39.88,39.88,0,0,1,61.35,97.91ZM94.43,96h0Z"/><path class="cls-3" d="M81.78,123.11H72.27a8.48,8.48,0,0,1-8.45-8.45V106.2H90.23v8.46A8.48,8.48,0,0,1,81.78,123.11Z"/><path d="M81.78,125.11H72.27a10.46,10.46,0,0,1-10.45-10.45v-8.45a2,2,0,0,1,2-2H90.23a2,2,0,0,1,2,2v8.45A10.46,10.46,0,0,1,81.78,125.11Zm-16-16.9v6.45a6.46,6.46,0,0,0,6.45,6.45h9.51a6.46,6.46,0,0,0,6.45-6.45v-6.45Z"/></g></g></svg>