<svg xmlns="http://www.w3.org/2000/svg" xmlns:xlink="http://www.w3.org/1999/xlink" viewBox="0 0 514.61 310.57"><defs><style>.cls-1{fill:#d9dfe6;}.cls-2{fill:url(#linear-gradient);}.cls-3{fill:#fff;}.cls-4{fill:url(#linear-gradient-2);}.cls-5{fill:url(#linear-gradient-3);}.cls-6{fill:url(#linear-gradient-4);}</style><linearGradient id="linear-gradient" x1="248.54" y1="20.77" x2="260.61" y2="217.18" gradientUnits="userSpaceOnUse"><stop offset="0" stop-color="#1da5c9"/><stop offset="1" stop-color="#1d85db"/></linearGradient><linearGradient id="linear-gradient-2" x1="268.42" y1="70.63" x2="232.76" y2="187.76" gradientUnits="userSpaceOnUse"><stop offset="0" stop-color="#ebcd1c"/><stop offset="1" stop-color="#eb901c"/></linearGradient><linearGradient id="linear-gradient-3" x1="75.48" y1="-2.26" x2="16.82" y2="71.08" xlink:href="#linear-gradient-2"/><linearGradient id="linear-gradient-4" x1="496.97" y1="187.6" x2="438.31" y2="260.94" xlink:href="#linear-gradient-2"/></defs><title>Asset 28</title><g id="Layer_2" data-name="Layer 2"><g id="Layer_1-2" data-name="Layer 1"><path class="cls-1" d="M514.61,277.79a32.78,32.78,0,0,1-32.78,32.78H43.48a32.75,32.75,0,1,1,.07-65.5H69.27a32.79,32.79,0,0,0,32.79-32.78V212a32.77,32.77,0,0,0-32.79-32.5H32.71a32.75,32.75,0,0,1,.07-65.5H471.21a32.75,32.75,0,0,1-.07,65.5h-36.7a32.77,32.77,0,0,0-32.79,32.71v.28A32.77,32.77,0,0,0,434.44,245H481.9A32.48,32.48,0,0,1,505,254.58,32.88,32.88,0,0,1,514.61,277.79Z"/><path class="cls-2" d="M387.28,35.54H122a8.09,8.09,0,0,0-8.07,8.07V196.32H395.34V43.61A8.09,8.09,0,0,0,387.28,35.54Z"/><path d="M397.34,198.32H111.92V43.61A10.08,10.08,0,0,1,122,33.54H387.28a10.08,10.08,0,0,1,10.06,10.07Zm-281.42-4H393.34V43.61a6.07,6.07,0,0,0-6.06-6.07H122a6.07,6.07,0,0,0-6.07,6.07Z"/><path class="cls-3" d="M384.86,234.53H124.41A10.52,10.52,0,0,1,113.92,224V189.36H395.34V224A10.52,10.52,0,0,1,384.86,234.53Z"/><path d="M384.86,236.53H124.41A12.5,12.5,0,0,1,111.92,224V187.36H397.34V224A12.5,12.5,0,0,1,384.86,236.53ZM115.92,191.36V224a8.5,8.5,0,0,0,8.49,8.49H384.86a8.49,8.49,0,0,0,8.48-8.49V191.36Z"/><rect class="cls-3" x="216.82" y="234.53" width="72.31" height="51.5"/><path d="M291.14,288H214.82v-55.5h76.32Zm-72.32-4h68.32v-47.5H218.82Z"/><path d="M315.42,288H190.53a2,2,0,1,1,0-4H315.42a2,2,0,1,1,0,4Z"/><path class="cls-3" d="M147.92,161.68a2,2,0,0,1-1.33-3.49l31.27-28a2,2,0,0,1,2.72,0l18.84,18.07,58.28-51a2,2,0,0,1,2.73.09L278,115,321.89,76.7a2,2,0,0,1,2.55-.07l14.78,11.51L359.8,71.31a2,2,0,1,1,2.53,3.09L340.52,92.24a2,2,0,0,1-2.49,0L323.28,80.8l-44,38.41a2,2,0,0,1-2.73-.09l-17.6-17.6-58.26,51a2,2,0,0,1-2.7-.06l-18.82-18.06-29.89,26.75A2,2,0,0,1,147.92,161.68Z"/><circle class="cls-4" cx="254.63" cy="115.93" r="49.05"/><path d="M254.63,167a51.05,51.05,0,1,1,51.05-51A51.11,51.11,0,0,1,254.63,167Zm0-98.1a47.05,47.05,0,1,0,47.05,47.05A47.11,47.11,0,0,0,254.63,68.88Z"/><path d="M236.55,135.18l5.67-8.9c4.14,3.07,7.37,4.3,10.59,4.3,3.83,0,5.36-1.31,5.36-4.3,0-6.13-19.78-7-19.78-20.4,0-9.36,6.36-15.18,16.72-15.18a20,20,0,0,1,15.26,6.74L263.85,105c-2.76-2.45-5.14-3.68-8-3.68-3.29,0-4.9.92-4.9,4,0,5.83,19.78,6.13,19.78,20.09,0,9-5.83,15.8-17.94,15.8C248.2,141.16,241.15,139.32,236.55,135.18Zm13.65-52h8.59v11.5H250.2Zm0,52.46h8.59v13H250.2Z"/><path class="cls-3" d="M148,49.21H135.1a2,2,0,0,1,0-4H148a2,2,0,0,1,0,4Z"/><path class="cls-3" d="M156.34,49.2a2,2,0,0,1-2-2,2.58,2.58,0,0,1,0-.38,2.29,2.29,0,0,1,.12-.37,1.45,1.45,0,0,1,.18-.35,2.16,2.16,0,0,1,.55-.55,1.66,1.66,0,0,1,.35-.18,2.29,2.29,0,0,1,.37-.12,2,2,0,0,1,1.81.55,1.76,1.76,0,0,1,.24.3,1.48,1.48,0,0,1,.19.35,1.58,1.58,0,0,1,.11.37,1.69,1.69,0,0,1,0,.38,2,2,0,0,1-2,2Z"/><polygon class="cls-5" points="50.55 57.84 44.05 35.41 21.63 28.92 44.05 22.43 50.55 0 57.04 22.43 79.46 28.92 57.04 35.41 50.55 57.84"/><polygon class="cls-6" points="472.44 247.2 465.94 224.77 443.51 218.28 465.94 211.78 472.44 189.36 478.93 211.78 501.35 218.28 478.93 224.77 472.44 247.2"/></g></g></svg>