<svg xmlns="http://www.w3.org/2000/svg" xmlns:xlink="http://www.w3.org/1999/xlink" viewBox="0 0 197.67 162"><defs><style>.cls-1{fill:url(#linear-gradient);}.cls-2{fill:#fff;}.cls-3{fill:url(#linear-gradient-2);}.cls-4{fill:url(#linear-gradient-3);}.cls-5{fill:url(#linear-gradient-4);}</style><linearGradient id="linear-gradient" x1="136.03" y1="44.25" x2="42.53" y2="150.36" gradientUnits="userSpaceOnUse"><stop offset="0" stop-color="#1da5c9"/><stop offset="1" stop-color="#1d85db"/></linearGradient><linearGradient id="linear-gradient-2" x1="118.41" y1="124.06" x2="41.48" y2="87.01" gradientTransform="translate(75.57 -33.97) rotate(32.31)" xlink:href="#linear-gradient"/><linearGradient id="linear-gradient-3" x1="58.11" y1="88.68" x2="111.87" y2="88.68" gradientTransform="translate(61.53 -29.9) rotate(32.31)" gradientUnits="userSpaceOnUse"><stop offset="0" stop-color="#ebcd1c"/><stop offset="1" stop-color="#eb901c"/></linearGradient><linearGradient id="linear-gradient-4" x1="171.58" y1="24.16" x2="89.63" y2="127.12" xlink:href="#linear-gradient"/></defs><title>Asset 37</title><g id="Layer_2" data-name="Layer 2"><g id="Layer_1-2" data-name="Layer 1"><path class="cls-1" d="M138.47,25.78H34A12.82,12.82,0,0,0,21.16,38.56V148.84H168V73.91Z"/><path d="M170.09,150.94h-151V38.56A14.9,14.9,0,0,1,33.94,23.68h105.7l30.45,49.63Zm-146.83-4.2H165.88V74.5L137.29,27.88H33.94A10.69,10.69,0,0,0,23.26,38.56Z"/><rect class="cls-2" x="2.1" y="140.98" width="185.37" height="18.92" rx="6.93" ry="6.93"/><path d="M180.19,162H9.38A9.39,9.39,0,0,1,0,152.62v-4.36a9.39,9.39,0,0,1,9.38-9.38H180.19a9.39,9.39,0,0,1,9.38,9.38v4.36A9.39,9.39,0,0,1,180.19,162ZM9.38,143.08a5.19,5.19,0,0,0-5.18,5.18v4.36a5.19,5.19,0,0,0,5.18,5.18H180.19a5.18,5.18,0,0,0,5.18-5.18v-4.36a5.18,5.18,0,0,0-5.18-5.18Z"/><rect class="cls-3" x="82.86" y="91.84" width="27.13" height="43.25" rx="8.85" ry="8.85" transform="translate(-45.72 69.1) rotate(-32.31)"/><path d="M99.43,137.57a11.41,11.41,0,0,1-9.66-5.31L76.6,111.43a11.43,11.43,0,0,1,3.54-15.74l7.21-4.55a11.42,11.42,0,0,1,15.73,3.54l13.18,20.83a11.42,11.42,0,0,1-3.55,15.74h0l-7.21,4.56A11.33,11.33,0,0,1,99.43,137.57Zm-6-44a7.1,7.1,0,0,0-3.81,1.11l-7.21,4.56a7.21,7.21,0,0,0-2.24,9.93L93.32,130a7.23,7.23,0,0,0,9.94,2.24l7.21-4.55a7.21,7.21,0,0,0,2.23-9.94L99.53,96.93A7.15,7.15,0,0,0,95,93.76,7.29,7.29,0,0,0,93.41,93.58Zm18.18,35.89h0Z"/><circle class="cls-2" cx="64.52" cy="103.92" r="14.31"/><path d="M64.54,120.33A16.41,16.41,0,1,1,78.39,95.15h0a16.4,16.4,0,0,1-13.85,25.18Zm-.05-28.62A12.21,12.21,0,1,0,74.84,97.4h0A12.16,12.16,0,0,0,67.2,92,12.5,12.5,0,0,0,64.49,91.71Z"/><path class="cls-4" d="M74.45,70.32H104a0,0,0,0,1,0,0v41.91a0,0,0,0,1,0,0H74.45A13.68,13.68,0,0,1,60.77,98.55V84A13.68,13.68,0,0,1,74.45,70.32Z" transform="translate(-36.03 58.16) rotate(-32.31)"/><path d="M79.81,117.19a16.54,16.54,0,0,1-14-7.67l-7-11.14a16.49,16.49,0,0,1,5.12-22.72l24.4-15.43A2.11,2.11,0,0,1,89.93,60a2.15,2.15,0,0,1,1.31.93l22.4,35.43a2.1,2.1,0,0,1-.65,2.9L88.58,114.64A16.39,16.39,0,0,1,79.81,117.19Zm9-52.29L66.18,79.21a12.3,12.3,0,0,0-3.81,16.93l7,11.13a12.28,12.28,0,0,0,16.93,3.81L109,96.78Z"/><polygon class="cls-5" points="182 89.37 111.48 97.67 89.08 62.25 126.82 2.1 182 89.37"/><path d="M111.48,99.77a2.12,2.12,0,0,1-1.78-1L87.3,63.37a2.11,2.11,0,0,1,0-2.24L125,1a2.08,2.08,0,0,1,1.77-1h0a2.08,2.08,0,0,1,1.77,1l55.18,87.26a2.1,2.1,0,0,1-1.53,3.21l-70.51,8.31ZM91.56,62.24l21,33.19,65.89-7.76L126.82,6Z"/><path class="cls-2" d="M69.83,89.39a2.1,2.1,0,0,1-1.16-3.86L84.78,75a2.1,2.1,0,1,1,2.31,3.51L71,89A2,2,0,0,1,69.83,89.39Z"/><path class="cls-2" d="M105.38,59.88a2.07,2.07,0,0,1-1.11-.32,2.1,2.1,0,0,1-.67-2.89l17.63-28.26a2.1,2.1,0,1,1,3.57,2.23L107.17,58.89A2.11,2.11,0,0,1,105.38,59.88Z"/><path class="cls-2" d="M165.69,37.83A2.1,2.1,0,0,1,164.57,34l29.88-18.81a2.1,2.1,0,1,1,2.24,3.56L166.81,37.51A2.1,2.1,0,0,1,165.69,37.83Z"/><path class="cls-2" d="M154.9,25.9a2,2,0,0,1-1-.24,2.09,2.09,0,0,1-.91-2.83L161.7,6a2.1,2.1,0,0,1,3.74,1.91l-8.67,16.89A2.09,2.09,0,0,1,154.9,25.9Z"/><path class="cls-2" d="M172.23,52.83a2.1,2.1,0,0,1-.09-4.2l19-.89a2.14,2.14,0,0,1,2.2,2,2.12,2.12,0,0,1-2,2.2l-19,.88Z"/></g></g></svg>