<svg xmlns="http://www.w3.org/2000/svg" xmlns:xlink="http://www.w3.org/1999/xlink" viewBox="0 0 149.47 149.48"><defs><style>.cls-1{fill:url(#linear-gradient);}.cls-2{fill:#fff;}.cls-3{fill:url(#linear-gradient-2);}</style><linearGradient id="linear-gradient" x1="42.72" y1="120.98" x2="114.72" y2="16.98" gradientUnits="userSpaceOnUse"><stop offset="0" stop-color="#1da5c9"/><stop offset="1" stop-color="#1d85db"/></linearGradient><linearGradient id="linear-gradient-2" x1="67.97" y1="75.59" x2="81.5" y2="75.59" gradientUnits="userSpaceOnUse"><stop offset="0" stop-color="#ebcd1c"/><stop offset="1" stop-color="#eb901c"/></linearGradient></defs><title>Asset 31</title><g id="Layer_2" data-name="Layer 2"><g id="Layer_1-2" data-name="Layer 1"><path class="cls-1" d="M125.74,32.09h0a9.5,9.5,0,0,1-10.64-1.46c-.7-.64-1.41-1.26-2.14-1.86a9.52,9.52,0,0,1-2.91-10.36h0A9.55,9.55,0,0,0,104,6.3L92.76,2.5a9.58,9.58,0,0,0-12.12,6h0A9.51,9.51,0,0,1,72.06,15c-.94,0-1.88.11-2.83.19a9.49,9.49,0,0,1-9.35-5.27h0A9.56,9.56,0,0,0,47.06,5.62L36.4,10.92a9.55,9.55,0,0,0-4.31,12.81h0a9.52,9.52,0,0,1-1.46,10.64c-.64.7-1.26,1.41-1.86,2.14a9.53,9.53,0,0,1-10.36,2.91h0a9.56,9.56,0,0,0-12.11,6L2.5,56.72a9.57,9.57,0,0,0,6,12.11h0A9.52,9.52,0,0,1,15,77.41c0,.94.11,1.89.19,2.83a9.49,9.49,0,0,1-5.27,9.35h0a9.56,9.56,0,0,0-4.31,12.82l5.3,10.66a9.56,9.56,0,0,0,12.81,4.32h0a9.5,9.5,0,0,1,10.64,1.45c.7.64,1.41,1.26,2.14,1.86a9.53,9.53,0,0,1,2.91,10.36h0a9.56,9.56,0,0,0,6,12.11L56.72,147a9.56,9.56,0,0,0,12.11-6h0a9.5,9.5,0,0,1,8.58-6.5c.94,0,1.88-.1,2.83-.19a9.49,9.49,0,0,1,9.35,5.27h0a9.56,9.56,0,0,0,12.82,4.31l10.66-5.29a9.56,9.56,0,0,0,4.31-12.82h0a9.52,9.52,0,0,1,1.46-10.64q1-1,1.86-2.13a9.52,9.52,0,0,1,10.36-2.92h0a9.55,9.55,0,0,0,12.11-6L147,92.76a9.57,9.57,0,0,0-6-12.12h0a9.5,9.5,0,0,1-6.5-8.58c0-.94-.1-1.88-.19-2.82a9.5,9.5,0,0,1,5.27-9.36h0a9.56,9.56,0,0,0,4.31-12.82L138.56,36.4A9.56,9.56,0,0,0,125.74,32.09Z"/><path d="M59.78,149.48a11.48,11.48,0,0,1-3.7-.61l-11.29-3.8a11.57,11.57,0,0,1-7.27-14.64,7.56,7.56,0,0,0-2.29-8.19c-.75-.62-1.49-1.27-2.21-1.92a7.54,7.54,0,0,0-8.4-1.14A11.57,11.57,0,0,1,9.12,114L3.83,103.3A11.57,11.57,0,0,1,9,87.8a7.54,7.54,0,0,0,4.17-7.38c-.09-1-.15-1.94-.2-2.92a7.55,7.55,0,0,0-5.13-6.78A11.57,11.57,0,0,1,.6,56.08L4.4,44.8A11.57,11.57,0,0,1,19,37.52a7.56,7.56,0,0,0,8.19-2.29c.62-.75,1.27-1.49,1.92-2.21a7.56,7.56,0,0,0,1.15-8.4A11.54,11.54,0,0,1,35.51,9.13l10.66-5.3A11.57,11.57,0,0,1,61.67,9a7.57,7.57,0,0,0,7.38,4.17c1-.09,2-.15,2.92-.2a7.54,7.54,0,0,0,6.76-5.09l0,0A11.57,11.57,0,0,1,93.39.6l11.29,3.8A11.56,11.56,0,0,1,112,19.05a7.55,7.55,0,0,0,2.29,8.18c.76.63,1.5,1.28,2.21,1.93a7.56,7.56,0,0,0,8.4,1.14h0a11.55,11.55,0,0,1,15.5,5.21l5.29,10.66a11.55,11.55,0,0,1-5.21,15.5,7.55,7.55,0,0,0-4.17,7.38c.09,1,.16,2,.2,2.92a7.56,7.56,0,0,0,5.13,6.78,11.57,11.57,0,0,1,7.28,14.64l-3.8,11.29A11.57,11.57,0,0,1,130.43,112a7.56,7.56,0,0,0-8.19,2.29c-.62.75-1.27,1.49-1.92,2.21a7.54,7.54,0,0,0-1.14,8.4,11.57,11.57,0,0,1-5.22,15.5l-10.66,5.29a11.55,11.55,0,0,1-15.5-5.21,7.56,7.56,0,0,0-7.38-4.17c-1,.09-1.94.16-2.92.2a7.56,7.56,0,0,0-6.78,5.13,11.55,11.55,0,0,1-10.94,7.89ZM28,114.39a11.49,11.49,0,0,1,7.74,3c.67.62,1.37,1.22,2.06,1.8a11.58,11.58,0,0,1,3.54,12.54,7.55,7.55,0,0,0,4.75,9.58l11.28,3.8a7.58,7.58,0,0,0,9.58-4.76,11.6,11.6,0,0,1,10.39-7.86c.91,0,1.82-.1,2.74-.18a11.56,11.56,0,0,1,11.32,6.37,7.56,7.56,0,0,0,10.14,3.41l10.66-5.29a7.56,7.56,0,0,0,3.41-10.14,11.6,11.6,0,0,1,1.77-12.88c.62-.67,1.22-1.36,1.8-2.06a11.58,11.58,0,0,1,12.54-3.53,7.58,7.58,0,0,0,9.58-4.76l3.8-11.28a7.58,7.58,0,0,0-4.76-9.58,11.59,11.59,0,0,1-7.86-10.39c0-.89-.1-1.81-.18-2.73a11.56,11.56,0,0,1,6.37-11.33A7.57,7.57,0,0,0,142.06,48l-5.29-10.66a7.58,7.58,0,0,0-10.14-3.41,11.6,11.6,0,0,1-12.88-1.77c-.66-.61-1.35-1.21-2.06-1.8a11.57,11.57,0,0,1-3.53-12.54,7.58,7.58,0,0,0-4.76-9.58L92.12,4.4a7.57,7.57,0,0,0-9.57,4.71v.05A11.59,11.59,0,0,1,72.15,17c-.89,0-1.81.1-2.73.18a11.58,11.58,0,0,1-11.33-6.37A7.5,7.5,0,0,0,53.73,7,7.58,7.58,0,0,0,48,7.41l-10.66,5.3a7.57,7.57,0,0,0-3.41,10.13,11.59,11.59,0,0,1-1.77,12.88c-.62.67-1.22,1.37-1.8,2.07a11.59,11.59,0,0,1-12.54,3.53,7.55,7.55,0,0,0-9.58,4.75L4.4,57.35a7.57,7.57,0,0,0,4.75,9.58A11.59,11.59,0,0,1,17,77.32c0,.91.1,1.82.18,2.74a11.57,11.57,0,0,1-6.37,11.33,7.57,7.57,0,0,0-3.41,10.13l5.3,10.66a7.54,7.54,0,0,0,10.13,3.41A11.67,11.67,0,0,1,28,114.39Z"/><circle class="cls-2" cx="74.74" cy="75.59" r="32.22"/><path d="M74.74,109.81A34.22,34.22,0,1,1,109,75.59,34.26,34.26,0,0,1,74.74,109.81Zm0-64.44A30.22,30.22,0,1,0,105,75.59,30.25,30.25,0,0,0,74.74,45.37Z"/><path class="cls-2" d="M52.52,75.59a22.22,22.22,0,1,1,44.44,0"/><path d="M97,77.59a2,2,0,0,1-2-2,20.22,20.22,0,1,0-40.44,0,2,2,0,0,1-4,0,24.22,24.22,0,0,1,48.44,0A2,2,0,0,1,97,77.59Z"/><path class="cls-2" d="M117.17,73.28a2,2,0,0,1-2-2,1.72,1.72,0,0,1,0-.39,2.26,2.26,0,0,1,.11-.37,1.7,1.7,0,0,1,.19-.35,1.42,1.42,0,0,1,.25-.3,2,2,0,0,1,2.81,0,1,1,0,0,1,.25.3,1.75,1.75,0,0,1,.2.35,1.58,1.58,0,0,1,.11.37,2.58,2.58,0,0,1,0,.39,2,2,0,0,1-.6,1.42,1.8,1.8,0,0,1-.29.25,2.79,2.79,0,0,1-.34.18,2.2,2.2,0,0,1-.77.15Z"/><path class="cls-2" d="M115.05,62.68a2,2,0,0,1-1.84-1.21A39,39,0,0,0,95.45,42.33a2,2,0,0,1,1.85-3.55,43.07,43.07,0,0,1,19.59,21.11,2,2,0,0,1-1.84,2.79Z"/><path class="cls-3" d="M75,80.85a4.18,4.18,0,0,1-5.63-6.19c1.71-1.56,12.16-5.41,12.16-5.41S76.68,79.29,75,80.85Z"/><path d="M81.5,69.25s-4.82,10-6.53,11.6a4.18,4.18,0,0,1-5.63-6.19c1.71-1.56,12.16-5.41,12.16-5.41m0-4a4,4,0,0,0-1.39.25C75,67.38,68.54,70,66.65,71.7a8.18,8.18,0,0,0,11,12.1c1.89-1.72,5.08-7.92,7.44-12.82a4,4,0,0,0-3.61-5.73Zm0,8Z"/></g></g></svg>