<svg xmlns="http://www.w3.org/2000/svg" xmlns:xlink="http://www.w3.org/1999/xlink" viewBox="0 0 170.15 156.5"><defs><style>.cls-1{fill:url(#linear-gradient);}.cls-2{fill:url(#linear-gradient-2);}.cls-3{fill:#fff;}.cls-4{fill:#226399;}.cls-5{fill:url(#linear-gradient-3);}.cls-6{fill:url(#linear-gradient-4);}</style><linearGradient id="linear-gradient" x1="93.43" y1="21.92" x2="18.11" y2="111.78" gradientUnits="userSpaceOnUse"><stop offset="0" stop-color="#1da5c9"/><stop offset="1" stop-color="#1d85db"/></linearGradient><linearGradient id="linear-gradient-2" x1="96.68" y1="41.4" x2="28.11" y2="64.77" gradientUnits="userSpaceOnUse"><stop offset="0" stop-color="#ebcd1c"/><stop offset="1" stop-color="#eb901c"/></linearGradient><linearGradient id="linear-gradient-3" x1="122.16" y1="65.32" x2="89.08" y2="124.54" xlink:href="#linear-gradient"/><linearGradient id="linear-gradient-4" x1="92.76" y1="81.95" x2="122.01" y2="81.95" xlink:href="#linear-gradient-2"/></defs><title>Asset 32</title><g id="Layer_2" data-name="Layer 2"><g id="Layer_1-2" data-name="Layer 1"><rect class="cls-1" x="2.08" y="2.08" width="121.59" height="112.6"/><path d="M125.75,116.75H0V0H125.75ZM4.16,112.6H121.59V4.16H4.16Z"/><rect class="cls-2" x="22.01" y="38.99" width="81.72" height="27.87"/><path d="M103.73,68.94H22a2.08,2.08,0,0,1-2.07-2.08V39A2.08,2.08,0,0,1,22,36.91h81.72A2.08,2.08,0,0,1,105.81,39V66.86A2.08,2.08,0,0,1,103.73,68.94ZM24.09,64.78h77.56V41.06H24.09Z"/><rect class="cls-3" x="2.08" y="2.08" width="121.59" height="19.73"/><path d="M123.67,23.89H2.08A2.08,2.08,0,0,1,0,21.81V2.08A2.08,2.08,0,0,1,2.08,0H123.67a2.08,2.08,0,0,1,2.08,2.08V21.81A2.08,2.08,0,0,1,123.67,23.89ZM4.16,19.73H121.59V4.16H4.16Z"/><path class="cls-4" d="M60.13,82.91H22a2.08,2.08,0,0,1,0-4.15H60.13a2.08,2.08,0,1,1,0,4.15Z"/><path class="cls-4" d="M52.72,96.45H22a2.08,2.08,0,0,1,0-4.16H52.72a2.08,2.08,0,0,1,0,4.16Z"/><rect class="cls-3" x="125.3" y="79.46" width="19.5" height="83.87" rx="8.16" ry="8.16" transform="translate(-46.28 131.05) rotate(-45)"/><path d="M157.81,156.5a10.52,10.52,0,0,1-7.46-3.09L103,106.1a10.58,10.58,0,0,1,0-14.93l1.8-1.8a10.58,10.58,0,0,1,14.93,0l47.31,47.32a10.59,10.59,0,0,1,0,14.93l-1.79,1.79A10.52,10.52,0,0,1,157.81,156.5ZM112.3,90.44a6.38,6.38,0,0,0-4.53,1.87l-1.8,1.8a6.42,6.42,0,0,0,0,9l47.31,47.31a6.41,6.41,0,0,0,9.06,0l1.79-1.79a6.41,6.41,0,0,0,0-9.05L116.82,92.31A6.38,6.38,0,0,0,112.3,90.44Z"/><circle class="cls-5" cx="107.47" cy="91.62" r="36.97"/><path d="M107.48,130.65A39,39,0,1,1,135.9,64.87h0a39,39,0,0,1-28.42,65.78Zm0-73.92a34.89,34.89,0,1,0,25.44,11h0a34.67,34.67,0,0,0-24.35-11Z"/><path class="cls-3" d="M134,99.28a1.87,1.87,0,0,1-.57-.08A2.07,2.07,0,0,1,132,96.64a23,23,0,0,0,.29-11.21,22.62,22.62,0,0,0-4.67-9.6,2.08,2.08,0,0,1,3.21-2.65,26.77,26.77,0,0,1,5.51,11.34A27.25,27.25,0,0,1,136,97.77,2.09,2.09,0,0,1,134,99.28Z"/><path class="cls-3" d="M129.7,107.67a2.11,2.11,0,0,1-.8-.16,2.16,2.16,0,0,1-1.13-1.12,2.15,2.15,0,0,1-.15-.8,1.9,1.9,0,0,1,0-.41,1.66,1.66,0,0,1,.11-.38,3,3,0,0,1,.19-.36,2.78,2.78,0,0,1,.26-.32,2.6,2.6,0,0,1,.32-.26,1.52,1.52,0,0,1,.36-.18,2.55,2.55,0,0,1,.39-.13,2.21,2.21,0,0,1,.81,0,2.12,2.12,0,0,1,.38.13,1.81,1.81,0,0,1,.37.18,1.94,1.94,0,0,1,.31.26,2,2,0,0,1,.26.32,2,2,0,0,1,.19.36,2.4,2.4,0,0,1,.12.38,2.85,2.85,0,0,1,0,.41,2.37,2.37,0,0,1-.15.8,1.92,1.92,0,0,1-.46.66A2,2,0,0,1,129.7,107.67Z"/><path d="M107.38,112.36a2.08,2.08,0,0,1-2.07-2.08V78.83a2.08,2.08,0,1,1,4.15,0v31.45A2.08,2.08,0,0,1,107.38,112.36Z"/><polygon class="cls-6" points="107.25 71.33 92.76 92.58 107.38 92.58 122.01 92.58 107.25 71.33"/><path d="M122,94.66H92.76A2.08,2.08,0,0,1,91,91.41l14.5-21.25a2,2,0,0,1,1.71-.91h0a2.08,2.08,0,0,1,1.71.89L123.72,91.4A2.08,2.08,0,0,1,122,94.66ZM96.69,90.5H118L107.27,75Z"/></g></g></svg>