<svg xmlns="http://www.w3.org/2000/svg" xmlns:xlink="http://www.w3.org/1999/xlink" viewBox="0 0 118.83 143.34"><defs><style>.cls-1{fill:#fff;}.cls-2{fill:url(#linear-gradient);}.cls-3{fill:url(#linear-gradient-2);}.cls-4{fill:#208ccb;}</style><linearGradient id="linear-gradient" x1="73.76" y1="-7.31" x2="14.43" y2="127.36" gradientUnits="userSpaceOnUse"><stop offset="0" stop-color="#1da5c9"/><stop offset="1" stop-color="#1d85db"/></linearGradient><linearGradient id="linear-gradient-2" x1="110.47" y1="42.86" x2="43.81" y2="96.19" gradientUnits="userSpaceOnUse"><stop offset="0" stop-color="#ebcd1c"/><stop offset="1" stop-color="#eb901c"/></linearGradient></defs><title>Asset 33</title><g id="Layer_2" data-name="Layer 2"><g id="Layer_1-2" data-name="Layer 1"><rect class="cls-1" x="2" y="2" width="73.93" height="139.35" rx="20.67" ry="20.67"/><path d="M55.26,143.34H22.67A22.69,22.69,0,0,1,0,120.68v-98A22.7,22.7,0,0,1,22.67,0H55.26A22.7,22.7,0,0,1,77.93,22.67v98A22.69,22.69,0,0,1,55.26,143.34ZM22.67,4A18.68,18.68,0,0,0,4,22.67v98a18.68,18.68,0,0,0,18.67,18.66H55.26a18.68,18.68,0,0,0,18.67-18.66v-98A18.68,18.68,0,0,0,55.26,4Z"/><path class="cls-2" d="M54.55,2V9.91a2.87,2.87,0,0,1-2.88,2.87H26.26a2.87,2.87,0,0,1-2.87-2.87V2h-10A11.43,11.43,0,0,0,2,13.43V129.91a11.44,11.44,0,0,0,11.43,11.44H64.5a11.43,11.43,0,0,0,11.43-11.44V13.43A11.43,11.43,0,0,0,64.5,2Z"/><path d="M64.5,143.34H13.43A13.45,13.45,0,0,1,0,129.91V13.43A13.45,13.45,0,0,1,13.43,0h12V9.91a.87.87,0,0,0,.87.87H51.67a.87.87,0,0,0,.87-.87V0h12A13.45,13.45,0,0,1,77.93,13.43V129.91A13.44,13.44,0,0,1,64.5,143.34ZM13.43,4A9.44,9.44,0,0,0,4,13.43V129.91a9.44,9.44,0,0,0,9.43,9.43H64.5a9.44,9.44,0,0,0,9.43-9.43V13.43A9.44,9.44,0,0,0,64.5,4h-8V9.91a4.87,4.87,0,0,1-4.87,4.87H26.26a4.88,4.88,0,0,1-4.87-4.87V4Z"/><path class="cls-1" d="M13.62,121.64a2,2,0,0,1-2-2V91.88a2,2,0,0,1,4,0v27.76A2,2,0,0,1,13.62,121.64Z"/><path class="cls-1" d="M13.62,128.88a2,2,0,0,1-1.41-.59,1.88,1.88,0,0,1-.44-.64,2,2,0,0,1-.15-.77,1.72,1.72,0,0,1,0-.39,1.58,1.58,0,0,1,.11-.37,1.7,1.7,0,0,1,.19-.35,1.42,1.42,0,0,1,.25-.3,1.81,1.81,0,0,1,.3-.25,2.21,2.21,0,0,1,.34-.18,2.78,2.78,0,0,1,.38-.12,2,2,0,0,1,.78,0,2.29,2.29,0,0,1,.37.12,2.31,2.31,0,0,1,.35.18,1.81,1.81,0,0,1,.3.25,1.42,1.42,0,0,1,.25.3,2.37,2.37,0,0,1,.19.35,2.26,2.26,0,0,1,.11.37,2.58,2.58,0,0,1,0,.39,2,2,0,0,1-.15.77,1.88,1.88,0,0,1-.44.64A2,2,0,0,1,13.62,128.88Z"/><path class="cls-3" d="M109.07,95.4H66.29L54.11,106.31V95.4H47.42a7.79,7.79,0,0,1-7.77-7.76v-38a7.79,7.79,0,0,1,7.77-7.76h61.65a7.78,7.78,0,0,1,7.76,7.76v38A7.78,7.78,0,0,1,109.07,95.4Z"/><path d="M54.11,108.31a2.11,2.11,0,0,1-.82-.17,2,2,0,0,1-1.18-1.83V97.4H47.42a9.78,9.78,0,0,1-9.77-9.76v-38a9.78,9.78,0,0,1,9.77-9.76h61.65a9.77,9.77,0,0,1,9.76,9.76v38a9.77,9.77,0,0,1-9.76,9.76h-42L55.44,107.8A2,2,0,0,1,54.11,108.31ZM47.42,43.89a5.77,5.77,0,0,0-5.77,5.76v38a5.77,5.77,0,0,0,5.77,5.76h6.69a2,2,0,0,1,2,2v6.43L65,93.91a2,2,0,0,1,1.33-.51h42.78a5.76,5.76,0,0,0,5.76-5.76v-38a5.76,5.76,0,0,0-5.76-5.76Z"/><path class="cls-1" d="M94.29,68a1.9,1.9,0,0,0-1.78-1.26H84.43a24.6,24.6,0,0,1,1.41-3.25c1.44-3,2.93-6.06,1.91-7.7a2.25,2.25,0,0,0-2.06-1H84.55c-1,0-2.67,0-3.5,1.66A44.53,44.53,0,0,1,73.17,67a.91.91,0,0,0-.26.62V82.12H89.1c3.16,0,5.57-7.86,5.57-11.79A5.81,5.81,0,0,0,94.29,68Z"/><path d="M84.55,54.85h1.14a2.25,2.25,0,0,1,2.06,1c1,1.64-.47,4.72-1.91,7.7a24.6,24.6,0,0,0-1.41,3.25h8.08A1.9,1.9,0,0,1,94.29,68a5.81,5.81,0,0,1,.38,2.29c0,3.93-2.41,11.78-5.57,11.78H72.91V67.63a.87.87,0,0,1,.26-.62,44.24,44.24,0,0,0,7.88-10.5c.83-1.66,2.5-1.66,3.5-1.66m0-4c-3.41,0-5.79,1.3-7.08,3.87a40.74,40.74,0,0,1-7.06,9.4,4.91,4.91,0,0,0-1.5,3.51V82.11a4,4,0,0,0,4,4H89.1c6.82,0,9.57-11.13,9.57-15.78a9.49,9.49,0,0,0-.73-3.92,5.91,5.91,0,0,0-5.43-3.63h-1.9c1.35-3.09,2.25-6.32.52-9.07a6.22,6.22,0,0,0-5.44-2.85H84.55Z"/><path class="cls-4" d="M62.53,67.34a.84.84,0,0,0-.85.82V81.29a.84.84,0,0,0,.85.83h6V67.34Z"/><path d="M68.5,67.34V82.11h-6a.83.83,0,0,1-.85-.82V68.16a.84.84,0,0,1,.85-.82h6m4-4h-10a4.85,4.85,0,0,0-4.85,4.82V81.29a4.84,4.84,0,0,0,4.85,4.82h10V63.34Z"/></g></g></svg>