<svg xmlns="http://www.w3.org/2000/svg" xmlns:xlink="http://www.w3.org/1999/xlink" viewBox="0 0 129.67 140.45"><defs><style>.cls-1{fill:#fff;}.cls-2{fill:url(#linear-gradient);}.cls-3{fill:url(#linear-gradient-2);}</style><linearGradient id="linear-gradient" x1="106.26" y1="23.68" x2="8.26" y2="105.68" gradientUnits="userSpaceOnUse"><stop offset="0" stop-color="#1da5c9"/><stop offset="1" stop-color="#1d85db"/></linearGradient><linearGradient id="linear-gradient-2" x1="60.36" y1="58" x2="30.36" y2="97.33" gradientUnits="userSpaceOnUse"><stop offset="0" stop-color="#ebcd1c"/><stop offset="1" stop-color="#eb901c"/></linearGradient></defs><title>Asset 29</title><g id="Layer_2" data-name="Layer 2"><g id="Layer_1-2" data-name="Layer 1"><line class="cls-1" x1="2" y1="100.69" x2="127.67" y2="100.69"/><path d="M127.67,102.69H2a2,2,0,0,1,0-4H127.67a2,2,0,0,1,0,4Z"/><rect class="cls-2" x="12.88" y="16" width="103.9" height="84.69"/><path d="M118.78,102.69H10.88V14h107.9Zm-103.9-4h99.9V18H14.88Z"/><path class="cls-1" d="M106.53,85.91a2,2,0,0,1-2-2V56.51a2,2,0,1,1,4,0v27.4A2,2,0,0,1,106.53,85.91Z"/><path class="cls-1" d="M106.53,93a2.58,2.58,0,0,1-.4,0,1.73,1.73,0,0,1-.37-.11,1.63,1.63,0,0,1-.34-.19,1.79,1.79,0,0,1-.31-.25,1.81,1.81,0,0,1-.25-.3,2.21,2.21,0,0,1-.18-.34,2.4,2.4,0,0,1-.12-.38,1.92,1.92,0,0,1,0-.78,2.78,2.78,0,0,1,.12-.38,2.21,2.21,0,0,1,.18-.34,2.48,2.48,0,0,1,.25-.3,1.79,1.79,0,0,1,.31-.25,2.27,2.27,0,0,1,.34-.19,1.66,1.66,0,0,1,.38-.11,2,2,0,0,1,1.8.55,1.81,1.81,0,0,1,.25.3,2.21,2.21,0,0,1,.18.34,2.78,2.78,0,0,1,.12.38,2.56,2.56,0,0,1,0,.39,2.47,2.47,0,0,1,0,.39,2.4,2.4,0,0,1-.12.38,1.59,1.59,0,0,1-.18.34,1.81,1.81,0,0,1-.25.3,2,2,0,0,1-.65.44A2,2,0,0,1,106.53,93Z"/><rect class="cls-1" x="2" y="2" width="125.67" height="14"/><path d="M127.67,18H2a2,2,0,0,1-2-2V2A2,2,0,0,1,2,0H127.67a2,2,0,0,1,2,2V16A2,2,0,0,1,127.67,18ZM4,14H125.67V4H4Z"/><path d="M46.11,79.15a2,2,0,0,1-1.41-3.41L87.31,33.13A2,2,0,0,1,90.14,36L47.53,78.56A2,2,0,0,1,46.11,79.15Z"/><circle class="cls-3" cx="45.91" cy="76.95" r="12.55"/><path d="M45.91,91.5A14.56,14.56,0,1,1,56.2,87.23,14.46,14.46,0,0,1,45.91,91.5Zm0-25.1a10.55,10.55,0,1,0,7.46,3.08A10.55,10.55,0,0,0,45.91,66.4Z"/><polygon class="cls-1" points="96.31 26.96 71.32 33.65 80.47 42.8 89.61 51.94 96.31 26.96"/><path d="M89.61,53.94a2,2,0,0,1-1.41-.59L69.91,35.07a2,2,0,0,1,.9-3.35l25-6.69a2,2,0,0,1,2.45,2.44l-6.7,25a2,2,0,0,1-1.41,1.41A1.81,1.81,0,0,1,89.61,53.94ZM75.19,34.69,88.58,48.08l4.9-18.29Z"/><path d="M58.46,50.5a2,2,0,0,1-1.41-.59l-15-15a2,2,0,0,1,2.83-2.83l15,15a2,2,0,0,1,0,2.83A2,2,0,0,1,58.46,50.5Z"/><path d="M43.45,50.5A2,2,0,0,1,42,47.08l15-15a2,2,0,1,1,2.83,2.83l-15,15A2,2,0,0,1,43.45,50.5Z"/><path d="M92.34,82.77a2,2,0,0,1-1.41-.59l-15-15a2,2,0,0,1,2.83-2.83l15,15a2,2,0,0,1-1.42,3.41Z"/><path d="M77.33,82.77a2,2,0,0,1-1.41-3.41l15-15a2,2,0,0,1,2.83,2.83l-15,15A2,2,0,0,1,77.33,82.77Z"/><path d="M64.83,140.45a2,2,0,0,1-2-2V100.69a2,2,0,0,1,4,0v37.76A2,2,0,0,1,64.83,140.45Z"/><path d="M79.14,140.45H50.53a2,2,0,0,1,0-4H79.14a2,2,0,0,1,0,4Z"/></g></g></svg>