<svg xmlns="http://www.w3.org/2000/svg" xmlns:xlink="http://www.w3.org/1999/xlink" viewBox="0 0 128.5 114.62"><defs><style>.cls-1{fill:url(#linear-gradient);}.cls-2{fill:#fff;}.cls-3{fill:#226399;}.cls-4{fill:url(#linear-gradient-2);}.cls-5{fill:url(#linear-gradient-3);}</style><linearGradient id="linear-gradient" x1="31.68" y1="23.12" x2="5.68" y2="122.62" gradientUnits="userSpaceOnUse"><stop offset="0" stop-color="#1da5c9"/><stop offset="1" stop-color="#1d85db"/></linearGradient><linearGradient id="linear-gradient-2" x1="119.03" y1="8.82" x2="86.03" y2="129.32" xlink:href="#linear-gradient"/><linearGradient id="linear-gradient-3" x1="71.89" y1="43.78" x2="45.89" y2="85.78" gradientUnits="userSpaceOnUse"><stop offset="0" stop-color="#ebcd1c"/><stop offset="1" stop-color="#eb901c"/></linearGradient></defs><title>Asset 24</title><g id="Layer_2" data-name="Layer 2"><g id="Layer_1-2" data-name="Layer 1"><polygon class="cls-1" points="43.5 102.08 2 112.08 2 12.54 43.5 2.54 43.5 102.08"/><path d="M0,114.62V11L45.5,0V103.65ZM4,14.11v95.43l37.5-9V5.08Z"/><path class="cls-2" d="M11.55,25a2,2,0,0,1-.47-4l22.4-5.39a2,2,0,1,1,.94,3.88L12,25A2,2,0,0,1,11.55,25Z"/><path class="cls-3" d="M11.55,37a2,2,0,0,1-.47-3.95l22.4-5.39a2,2,0,1,1,.94,3.88L12,37A2,2,0,0,1,11.55,37Z"/><path class="cls-3" d="M11.55,49a2,2,0,0,1-.47-3.95L33.77,39.6a2,2,0,1,1,.94,3.88L12,49A2,2,0,0,1,11.55,49Z"/><path class="cls-3" d="M11.55,61a2,2,0,0,1-.47-3.95L33.77,51.6a2,2,0,1,1,.94,3.88L12,61A2,2,0,0,1,11.55,61Z"/><path class="cls-3" d="M11.55,85a2,2,0,0,1-.47-4l22.4-5.39a2,2,0,1,1,.94,3.88L12,85A2,2,0,0,1,11.55,85Z"/><path class="cls-3" d="M11.55,97a2,2,0,0,1-.47-4l14.16-3.41a2,2,0,0,1,.94,3.89L12,97A2,2,0,0,1,11.55,97Z"/><polygon class="cls-4" points="126.5 102.08 85 112.08 85 12.54 126.5 2.54 126.5 102.08"/><path d="M83,114.62V11L128.5,0V103.65ZM87,14.11v95.43l37.5-9V5.08Z"/><polygon class="cls-2" points="43.5 102.08 85 112.08 85 12.54 43.5 2.54 43.5 102.08"/><path d="M85,114.08a1.89,1.89,0,0,1-.47-.06L43,104a2,2,0,0,1-1.53-1.94V2.54A2,2,0,0,1,44,.59l41.5,10A2,2,0,0,1,87,12.54v99.54a2,2,0,0,1-.76,1.57A2,2,0,0,1,85,114.08ZM45.5,100.5l37.5,9V14.11l-37.5-9Z"/><circle class="cls-5" cx="64.67" cy="55.46" r="11.83"/><path d="M64.67,69.29A13.84,13.84,0,1,1,78.5,55.46,13.85,13.85,0,0,1,64.67,69.29Zm0-23.67a9.84,9.84,0,1,0,9.83,9.84A9.85,9.85,0,0,0,64.67,45.62Z"/><path class="cls-2" d="M94.55,24.41a2,2,0,0,1-.47-3.95l22.4-5.4a2,2,0,0,1,.94,3.89L95,24.35A2,2,0,0,1,94.55,24.41Z"/><path class="cls-3" d="M94.55,36.41a2,2,0,0,1-.47-3.95l22.4-5.4a2,2,0,0,1,.94,3.89L95,36.35A2,2,0,0,1,94.55,36.41Z"/><path class="cls-3" d="M94.55,48.41a2,2,0,0,1-.47-3.95l8.5-2.05a2,2,0,0,1,.94,3.89L95,48.35A2,2,0,0,1,94.55,48.41Z"/><path class="cls-2" d="M94.55,72.41a2,2,0,0,1-.47-4l22.4-5.4a2,2,0,0,1,.94,3.89L95,72.35A2,2,0,0,1,94.55,72.41Z"/><path class="cls-3" d="M94.55,84.41a2,2,0,0,1-.47-4l22.4-5.4a2,2,0,0,1,.94,3.89L95,84.35A2,2,0,0,1,94.55,84.41Z"/><path class="cls-3" d="M94.55,96.41a2,2,0,0,1-.47-4l14.16-3.41a2,2,0,0,1,.94,3.89L95,96.35A2,2,0,0,1,94.55,96.41Z"/></g></g></svg>