<svg xmlns="http://www.w3.org/2000/svg" xmlns:xlink="http://www.w3.org/1999/xlink" viewBox="0 0 147.08 150.3"><defs><style>.cls-1{fill:url(#linear-gradient);}.cls-2{fill:url(#linear-gradient-2);}.cls-3{fill:url(#linear-gradient-3);}.cls-4{fill:#fff;}</style><linearGradient id="linear-gradient" x1="79.04" y1="83.54" x2="162.37" y2="160.87" gradientTransform="translate(99.19 -39.2) rotate(45)" gradientUnits="userSpaceOnUse"><stop offset="0" stop-color="#1da5c9"/><stop offset="1" stop-color="#1d85db"/></linearGradient><linearGradient id="linear-gradient-2" x1="72.18" y1="25.51" x2="21.51" y2="124.17" gradientTransform="matrix(1, 0, 0, 1, 0, 0)" xlink:href="#linear-gradient"/><linearGradient id="linear-gradient-3" x1="65.3" y1="15.83" x2="16.63" y2="79.83" gradientUnits="userSpaceOnUse"><stop offset="0" stop-color="#ebcd1c"/><stop offset="1" stop-color="#eb901c"/></linearGradient></defs><title>Asset 19</title><g id="Layer_2" data-name="Layer 2"><g id="Layer_1-2" data-name="Layer 1"><rect class="cls-1" x="82.58" y="38.45" width="28.68" height="123.36" rx="13.47" ry="13.47" transform="translate(-42.42 97.86) rotate(-45)"/><path d="M130.39,150.3a15.42,15.42,0,0,1-10.94-4.53L51.28,77.6a15.49,15.49,0,0,1,0-21.88l1.22-1.23a15.49,15.49,0,0,1,21.88,0l68.18,68.17a15.51,15.51,0,0,1,0,21.89l-1.23,1.22A15.41,15.41,0,0,1,130.39,150.3ZM63.44,54a11.44,11.44,0,0,0-8.11,3.36l-1.22,1.23a11.47,11.47,0,0,0,0,16.22l68.17,68.17a11.47,11.47,0,0,0,16.22,0l1.23-1.22a11.5,11.5,0,0,0,0-16.23L71.56,57.32A11.45,11.45,0,0,0,63.44,54Z"/><circle class="cls-2" cx="56.34" cy="56.34" r="54.37"/><path d="M56.39,112.71l-1.76,0a56.85,56.85,0,1,1,1.76,0ZM56.33,4A52.34,52.34,0,1,0,94.49,20.46,52.15,52.15,0,0,0,56.33,4Z"/><circle class="cls-3" cx="43.55" cy="44.42" r="14.47"/><path d="M43.55,60.89A16.47,16.47,0,1,1,60,44.42,16.48,16.48,0,0,1,43.55,60.89Zm0-28.94A12.47,12.47,0,1,0,56,44.42,12.48,12.48,0,0,0,43.55,32Z"/><path class="cls-4" d="M108.61,71.38l-17-10.58L69.73,91.52,46.32,74.16l-20.79,27a54.39,54.39,0,0,0,83.08-29.76"/><path d="M56.34,112.71a56.07,56.07,0,0,1-31.95-9.92,2,2,0,0,1-.45-2.87l20.8-27a2,2,0,0,1,2.77-.39L69.28,88.7,90,59.64a2,2,0,0,1,2.69-.54l17,10.57a2,2,0,0,1,.33.25,2,2,0,0,1,.56,2A56.61,56.61,0,0,1,56.34,112.71Zm-27.92-12a52.41,52.41,0,0,0,77.83-28.39L92.13,63.49,71.36,92.68a2,2,0,0,1-1.32.81,2,2,0,0,1-1.5-.36L46.71,76.94Z"/><path class="cls-4" d="M89,32a2.58,2.58,0,0,1-.39,0l-.37-.11a2.37,2.37,0,0,1-.35-.19,1.81,1.81,0,0,1-.3-.25A2,2,0,0,1,87,30a2.45,2.45,0,0,1,0-.39c0-.13.07-.26.11-.38a2.74,2.74,0,0,1,.19-.34,1.89,1.89,0,0,1,.25-.31,2.48,2.48,0,0,1,.3-.25,2.31,2.31,0,0,1,.35-.18,1.58,1.58,0,0,1,.37-.11,2,2,0,0,1,1.81.54,2.6,2.6,0,0,1,.25.31,1.83,1.83,0,0,1,.18.34A2.2,2.2,0,0,1,91,30a1.72,1.72,0,0,1,0,.39,1.58,1.58,0,0,1-.11.37,2.31,2.31,0,0,1-.18.35,2.48,2.48,0,0,1-.25.3A2,2,0,0,1,89,32Z"/><path class="cls-4" d="M83,25.43A2,2,0,0,1,81.77,25a40.81,40.81,0,0,0-23.83-9,2,2,0,1,1,.16-4,44.83,44.83,0,0,1,26.19,9.86A2,2,0,0,1,83,25.43Z"/><path class="cls-4" d="M121.21,122.28a2,2,0,0,1-1.42-.59L104.13,106A2,2,0,0,1,107,103.2l15.67,15.66a2,2,0,0,1-1.41,3.42Z"/></g></g></svg>