<svg xmlns="http://www.w3.org/2000/svg" xmlns:xlink="http://www.w3.org/1999/xlink" viewBox="0 0 133.18 153.85"><defs><style>.cls-1{fill:#208ccb;}.cls-2{fill:url(#linear-gradient);}.cls-3{fill:#fff;}.cls-4{fill:none;}.cls-5{fill:url(#linear-gradient-2);}</style><linearGradient id="linear-gradient" x1="81.29" y1="37.46" x2="47.29" y2="125.46" gradientUnits="userSpaceOnUse"><stop offset="0" stop-color="#1da5c9"/><stop offset="1" stop-color="#1d85db"/></linearGradient><linearGradient id="linear-gradient-2" x1="76" y1="79.94" x2="61.25" y2="105.07" gradientUnits="userSpaceOnUse"><stop offset="0" stop-color="#ebcd1c"/><stop offset="1" stop-color="#eb901c"/></linearGradient></defs><title>Asset 18</title><g id="Layer_2" data-name="Layer 2"><g id="Layer_1-2" data-name="Layer 1"><path class="cls-1" d="M105.65,75.33a39,39,0,1,0-67.24,26.9,46.25,46.25,0,0,1,13,31.87v1.73H81.9v-1.72a46.73,46.73,0,0,1,13.1-32A38.84,38.84,0,0,0,105.65,75.33Z"/><path d="M81.9,137.83H51.4a2,2,0,0,1-2-2V134.1A44.12,44.12,0,0,0,37,103.61,41,41,0,0,1,94.62,45.35a41,41,0,0,1,1.84,58.13A44.63,44.63,0,0,0,83.9,134.1v1.73A2,2,0,0,1,81.9,137.83Zm-28.5-4H79.9a48.63,48.63,0,0,1,13.65-33.1,37,37,0,1,0-53.69.12A48.14,48.14,0,0,1,53.4,133.83Z"/><path class="cls-2" d="M105.65,75.33a39,39,0,1,0-67.24,26.9,46.25,46.25,0,0,1,13,31.87v1.73H81.9v-1.72a46.73,46.73,0,0,1,13.1-32A38.84,38.84,0,0,0,105.65,75.33Z"/><path d="M83.9,137.83H49.4V134.1A44.12,44.12,0,0,0,37,103.61,41,41,0,0,1,94.62,45.35a41,41,0,0,1,1.84,58.13A44.63,44.63,0,0,0,83.9,134.1Zm-30.5-4H79.9a48.63,48.63,0,0,1,13.65-33.1,37,37,0,1,0-53.69.12A48.14,48.14,0,0,1,53.4,133.83Z"/><path class="cls-3" d="M94.32,78.09a2,2,0,0,1-2-2,1.81,1.81,0,0,1,0-.4,1.73,1.73,0,0,1,.11-.37,1.41,1.41,0,0,1,.19-.34,1.48,1.48,0,0,1,.25-.31,2.48,2.48,0,0,1,.3-.25,2.21,2.21,0,0,1,.34-.18,1.66,1.66,0,0,1,.38-.11,1.71,1.71,0,0,1,.78,0,1.58,1.58,0,0,1,.37.11,2.31,2.31,0,0,1,.35.18,2.48,2.48,0,0,1,.3.25A1.48,1.48,0,0,1,96,75a1.86,1.86,0,0,1,.19.34,2.59,2.59,0,0,1,.11.37,1.81,1.81,0,0,1,0,.4,2,2,0,0,1-2,2Z"/><path d="M66.65,128.81a2,2,0,0,1-2-2l-.06-28.48a2,2,0,0,1,2-2h0a2,2,0,0,1,2,2l.06,28.49a2,2,0,0,1-2,2Z"/><path class="cls-3" d="M93,71.27A2,2,0,0,1,91,69.72,25,25,0,0,0,75.68,52a2,2,0,1,1,1.45-3.73A29,29,0,0,1,94.91,68.83a2,2,0,0,1-1.5,2.39A1.73,1.73,0,0,1,93,71.27Z"/><path class="cls-3" d="M66.59,151.85h0a15.2,15.2,0,0,1-15.19-15.2v-9.84H81.9l-.11,10A15.2,15.2,0,0,1,66.59,151.85Z"/><path d="M66.59,153.85a17.22,17.22,0,0,1-17.19-17.2v-9.84a2,2,0,0,1,2-2H81.9a2,2,0,0,1,2,2l-.11,10A17.26,17.26,0,0,1,66.59,153.85Zm-13.19-25v7.84a13.2,13.2,0,0,0,26.39.15l.09-8Z"/><line class="cls-4" x1="81.9" y1="135.83" x2="51.4" y2="135.83"/><path d="M81.79,138.82h0l-30.39-.17a2,2,0,0,1,0-4h0l30.39.17a2,2,0,0,1,0,4Z"/><circle class="cls-5" cx="66.59" cy="95.96" r="9.88"/><path d="M66.59,107.85A11.89,11.89,0,1,1,78.48,96,11.9,11.9,0,0,1,66.59,107.85Zm0-19.77A7.89,7.89,0,1,0,74.48,96,7.89,7.89,0,0,0,66.59,88.08Z"/><path class="cls-3" d="M66.42,21.14a2,2,0,0,1-2-2V2a2,2,0,0,1,4,0V19.14A2,2,0,0,1,66.42,21.14Z"/><path class="cls-3" d="M97.54,31.51a2,2,0,0,1-1.61-3.18L106,14.47a2,2,0,1,1,3.24,2.35L99.16,30.69A2,2,0,0,1,97.54,31.51Z"/><path class="cls-3" d="M116.63,58.19a2,2,0,0,1-.62-3.9l14.56-4.73a2,2,0,0,1,1.23,3.81L117.25,58.1A2.16,2.16,0,0,1,116.63,58.19Z"/><path class="cls-3" d="M35.64,31.51A2,2,0,0,1,34,30.69L23.94,16.82a2,2,0,1,1,3.24-2.35L37.26,28.33a2,2,0,0,1-.45,2.8A2,2,0,0,1,35.64,31.51Z"/><path class="cls-3" d="M16.55,58.19a2.27,2.27,0,0,1-.62-.09L1.38,53.37a2,2,0,0,1,1.24-3.81l14.55,4.73a2,2,0,0,1-.62,3.9Z"/></g></g></svg>