<svg xmlns="http://www.w3.org/2000/svg" xmlns:xlink="http://www.w3.org/1999/xlink" viewBox="0 0 155.1 155.1"><defs><style>.cls-1{fill:url(#linear-gradient);}.cls-2{fill:#fff;}.cls-3{fill:url(#linear-gradient-2);}.cls-4{fill:url(#linear-gradient-3);}</style><linearGradient id="linear-gradient" x1="91.08" y1="11.58" x2="42.08" y2="250.58" gradientUnits="userSpaceOnUse"><stop offset="0" stop-color="#1da5c9"/><stop offset="1" stop-color="#1d85db"/></linearGradient><linearGradient id="linear-gradient-2" x1="82.24" y1="68.18" x2="44.24" y2="144.18" gradientUnits="userSpaceOnUse"><stop offset="0" stop-color="#ebcd1c"/><stop offset="1" stop-color="#eb901c"/></linearGradient><linearGradient id="linear-gradient-3" x1="82.65" y1="49.87" x2="51.15" y2="91.62" xlink:href="#linear-gradient"/></defs><title>Asset 22</title><g id="Layer_2" data-name="Layer 2"><g id="Layer_1-2" data-name="Layer 1"><circle class="cls-1" cx="77.55" cy="77.55" r="75.55"/><path d="M77.55,155.1A77.55,77.55,0,1,1,155.1,77.55,77.64,77.64,0,0,1,77.55,155.1ZM77.55,4A73.55,73.55,0,1,0,151.1,77.55,73.63,73.63,0,0,0,77.55,4Z"/><path class="cls-2" d="M136.44,56.56a2,2,0,0,1-1.87-1.3,59.1,59.1,0,0,0-24.08-29.51,2,2,0,1,1,2.12-3.39,63,63,0,0,1,25.71,31.51,2,2,0,0,1-1.18,2.57A2.15,2.15,0,0,1,136.44,56.56Z"/><polygon class="cls-3" points="113.78 98.47 113.78 56.63 77.55 35.72 41.32 56.63 41.32 98.47 77.55 119.38 113.78 98.47"/><path d="M77.55,121.38a2.07,2.07,0,0,1-1-.26L40.32,100.2a2,2,0,0,1-1-1.73V56.63a2,2,0,0,1,1-1.73L76.55,34a2,2,0,0,1,2,0L114.78,54.9a2,2,0,0,1,1,1.73V98.47a2,2,0,0,1-1,1.73L78.55,121.12A2.1,2.1,0,0,1,77.55,121.38ZM43.32,97.31l34.23,19.76,34.23-19.76V57.79L77.55,38,43.32,57.79Zm70.46,1.16h0Z"/><polygon class="cls-4" points="113.78 56.63 77.55 35.72 41.32 56.63 77.55 77.55 113.78 56.63"/><path d="M77.55,79.55a2,2,0,0,1-1-.27L40.32,58.37a2,2,0,0,1,0-3.47L76.55,34a2,2,0,0,1,2,0L114.78,54.9a2,2,0,0,1,0,3.47L78.55,79.28A2,2,0,0,1,77.55,79.55ZM45.32,56.63,77.55,75.24l32.23-18.61L77.55,38Z"/><polygon class="cls-2" points="77.55 119.38 77.55 77.55 113.78 56.63 113.78 98.47 77.55 119.38"/><path d="M77.55,121.38a2.07,2.07,0,0,1-1-.26,2,2,0,0,1-1-1.74V77.55a2,2,0,0,1,1-1.73L112.78,54.9a2,2,0,0,1,3,1.73V98.47a2,2,0,0,1-1,1.73L78.55,121.12A2.1,2.1,0,0,1,77.55,121.38Zm2-42.68v37.22l32.23-18.61V60.1Z"/><path class="cls-2" d="M138.18,63.6a2,2,0,0,1-.77-.15,2,2,0,0,1-.65-.44,1.89,1.89,0,0,1-.25-.31,1.83,1.83,0,0,1-.18-.34,1.58,1.58,0,0,1-.11-.37,1.72,1.72,0,0,1,0-.39,2.2,2.2,0,0,1,.15-.77,1.83,1.83,0,0,1,.18-.34,1.89,1.89,0,0,1,.25-.31,2,2,0,0,1,1.81-.55,2.65,2.65,0,0,1,.37.12,2.31,2.31,0,0,1,.35.18,2.48,2.48,0,0,1,.3.25,1.89,1.89,0,0,1,.25.31,1.83,1.83,0,0,1,.18.34,2.4,2.4,0,0,1,.12.38,2.45,2.45,0,0,1,0,.39,2.58,2.58,0,0,1,0,.39,2.29,2.29,0,0,1-.12.37,1.38,1.38,0,0,1-.18.34,1.89,1.89,0,0,1-.25.31,2,2,0,0,1-.65.44A2,2,0,0,1,138.18,63.6Z"/></g></g></svg>