<svg xmlns="http://www.w3.org/2000/svg" xmlns:xlink="http://www.w3.org/1999/xlink" viewBox="0 0 131.78 115.69"><defs><style>.cls-1{fill:url(#linear-gradient);}.cls-2{fill:url(#linear-gradient-2);}.cls-3{fill:#226399;}.cls-4{fill:#fff;}</style><linearGradient id="linear-gradient" x1="104.93" y1="11.9" x2="-0.07" y2="92.9" gradientUnits="userSpaceOnUse"><stop offset="0" stop-color="#1da5c9"/><stop offset="1" stop-color="#1d85db"/></linearGradient><linearGradient id="linear-gradient-2" x1="61.16" y1="9.46" x2="15.16" y2="73.46" gradientUnits="userSpaceOnUse"><stop offset="0" stop-color="#ebcd1c"/><stop offset="1" stop-color="#eb901c"/></linearGradient></defs><title>Asset 26</title><g id="Layer_2" data-name="Layer 2"><g id="Layer_1-2" data-name="Layer 1"><path d="M30.54,115.69a2,2,0,0,1-2-2V44.33a2,2,0,0,1,4,0v69.36A2,2,0,0,1,30.54,115.69Z"/><path d="M101.81,115.69a2,2,0,0,1-2-2V42a2,2,0,1,1,4,0v71.68A2,2,0,0,1,101.81,115.69Z"/><rect class="cls-1" x="2" y="2" width="127.78" height="80.03" rx="7.01" ry="7.01"/><path d="M122.78,84H9a9,9,0,0,1-9-9V9A9,9,0,0,1,9,0H122.78a9,9,0,0,1,9,9V75A9,9,0,0,1,122.78,84ZM9,4A5,5,0,0,0,4,9V75a5,5,0,0,0,5,5H122.78a5,5,0,0,0,5-5V9a5,5,0,0,0-5-5Z"/><circle class="cls-2" cx="37.76" cy="42.01" r="22.12"/><path d="M37.76,66.13A24.12,24.12,0,1,1,61.88,42,24.15,24.15,0,0,1,37.76,66.13Zm0-44.24A20.12,20.12,0,1,0,57.88,42,20.15,20.15,0,0,0,37.76,21.89Z"/><path class="cls-3" d="M117.14,29.5H75.32a2,2,0,0,1,0-4h41.82a2,2,0,0,1,0,4Z"/><path class="cls-3" d="M117.14,43.51H75.32a2,2,0,0,1,0-4h41.82a2,2,0,0,1,0,4Z"/><path class="cls-3" d="M117.14,57.53H75.32a2,2,0,0,1,0-4h41.82a2,2,0,1,1,0,4Z"/><path class="cls-4" d="M101.81,13.38H76.59a2,2,0,0,1,0-4h25.22a2,2,0,0,1,0,4Z"/><path class="cls-4" d="M111.42,13.38a2,2,0,0,1-.76-.16,2,2,0,0,1-.65-.43,2,2,0,0,1-.59-1.42,1.72,1.72,0,0,1,0-.39,2.26,2.26,0,0,1,.11-.37,2.37,2.37,0,0,1,.19-.35,2.16,2.16,0,0,1,.55-.55,2.31,2.31,0,0,1,.35-.18,2.29,2.29,0,0,1,.37-.12,2,2,0,0,1,1.81.55,2,2,0,0,1,.58,1.41,2,2,0,0,1-.58,1.42l-.31.25a2.21,2.21,0,0,1-.34.18,2.4,2.4,0,0,1-.38.12A2.45,2.45,0,0,1,111.42,13.38Z"/></g></g></svg>