<svg xmlns="http://www.w3.org/2000/svg" xmlns:xlink="http://www.w3.org/1999/xlink" viewBox="0 0 131 116"><defs><style>.cls-1{fill:url(#linear-gradient);}.cls-2{fill:#fff;}.cls-3{fill:#226399;}.cls-4{fill:url(#linear-gradient-2);}</style><linearGradient id="linear-gradient" x1="92.88" y1="21.99" x2="-0.12" y2="157.99" gradientUnits="userSpaceOnUse"><stop offset="0" stop-color="#1da5c9"/><stop offset="1" stop-color="#1d85db"/></linearGradient><linearGradient id="linear-gradient-2" x1="48.78" y1="69.83" x2="18.78" y2="114.83" gradientUnits="userSpaceOnUse"><stop offset="0" stop-color="#ebcd1c"/><stop offset="1" stop-color="#eb901c"/></linearGradient></defs><title>Asset 27</title><g id="Layer_2" data-name="Layer 2"><g id="Layer_1-2" data-name="Layer 1"><path class="cls-1" d="M2,17H129a0,0,0,0,1,0,0v87a10,10,0,0,1-10,10H12A10,10,0,0,1,2,104V17A0,0,0,0,1,2,17Z"/><path d="M119,116H12A12,12,0,0,1,0,104V15H131v89A12,12,0,0,1,119,116ZM4,19v85a8,8,0,0,0,8,8H119a8,8,0,0,0,8-8V19Z"/><path class="cls-2" d="M12,2H119a10,10,0,0,1,10,10v7a0,0,0,0,1,0,0H2a0,0,0,0,1,0,0V12A10,10,0,0,1,12,2Z"/><path d="M129,21H2a2,2,0,0,1-2-2V12A12,12,0,0,1,12,0H119a12,12,0,0,1,12,12v7A2,2,0,0,1,129,21ZM4,17H127V12a8,8,0,0,0-8-8H12a8,8,0,0,0-8,8Z"/><path class="cls-2" d="M119,101a2,2,0,0,1-2-2V82a2,2,0,0,1,4,0V99A2,2,0,0,1,119,101Z"/><path class="cls-2" d="M119.19,74.46a2,2,0,0,1-1.41-.59,1.88,1.88,0,0,1-.44-.64,2,2,0,0,1-.15-.77,1.72,1.72,0,0,1,0-.39,2.26,2.26,0,0,1,.11-.37,2.37,2.37,0,0,1,.19-.35,2.16,2.16,0,0,1,.55-.55,2,2,0,0,1,.35-.19,2.26,2.26,0,0,1,.37-.11,2,2,0,0,1,.78,0,2.38,2.38,0,0,1,.38.11,2.27,2.27,0,0,1,.34.19,2.16,2.16,0,0,1,.55.55,1.7,1.7,0,0,1,.19.35,1.58,1.58,0,0,1,.11.37,1.72,1.72,0,0,1,0,.39,2,2,0,0,1-.15.77,2,2,0,0,1-.44.64,1.42,1.42,0,0,1-.3.25,1.63,1.63,0,0,1-.34.19,1.73,1.73,0,0,1-.37.11A1.81,1.81,0,0,1,119.19,74.46Z"/><path class="cls-3" d="M107,36H65a2,2,0,0,1,0-4h42a2,2,0,0,1,0,4Z"/><path class="cls-3" d="M107,47H65a2,2,0,0,1,0-4h42a2,2,0,0,1,0,4Z"/><path class="cls-3" d="M107,58H65a2,2,0,0,1,0-4h42a2,2,0,0,1,0,4Z"/><path class="cls-2" d="M35.93,34,23.78,55a2.67,2.67,0,0,0,2.31,4H50.38a2.66,2.66,0,0,0,2.3-4L40.54,34A2.66,2.66,0,0,0,35.93,34Z"/><path d="M50.38,61H26.09a4.67,4.67,0,0,1-4-7L34.19,33a4.67,4.67,0,0,1,8.08,0L54.42,54a4.67,4.67,0,0,1-4,7ZM38.23,34.64a.64.64,0,0,0-.57.33h0L25.51,56a.67.67,0,0,0,.58,1H50.38a.64.64,0,0,0,.57-.33A.65.65,0,0,0,51,56L38.81,35A.64.64,0,0,0,38.23,34.64ZM35.93,34h0Z"/><path class="cls-3" d="M107,77H65a2,2,0,0,1,0-4h42a2,2,0,0,1,0,4Z"/><path class="cls-3" d="M107,88H65a2,2,0,0,1,0-4h42a2,2,0,0,1,0,4Z"/><path class="cls-3" d="M107,99H65a2,2,0,0,1,0-4h42a2,2,0,0,1,0,4Z"/><circle class="cls-4" cx="38" cy="86" r="14"/><path d="M38,102A16,16,0,1,1,54,86,16,16,0,0,1,38,102Zm0-28A12,12,0,1,0,50,86,12,12,0,0,0,38,74Z"/></g></g></svg>