<?xml version="1.0" encoding="utf-8"?>
<!-- Generator: Adobe Illustrator 22.0.1, SVG Export Plug-In . SVG Version: 6.00 Build 0)  -->
<svg version="1.1" id="Layer_1" xmlns="http://www.w3.org/2000/svg" xmlns:xlink="http://www.w3.org/1999/xlink" x="0px" y="0px"
	 viewBox="0 0 36.8 89.5" style="enable-background:new 0 0 36.8 89.5;" xml:space="preserve">
<style type="text/css">
	.st0{fill:url(#SVGID_1_);}
	.st1{fill:url(#SVGID_2_);}
	.st2{fill:url(#SVGID_3_);}
	.st3{fill:url(#SVGID_4_);}
	.st4{fill:url(#SVGID_5_);}
	.st5{fill:url(#SVGID_6_);}
	.st6{fill:url(#SVGID_7_);}
	.st7{fill:url(#SVGID_8_);}
</style>
<linearGradient id="SVGID_1_" gradientUnits="userSpaceOnUse" x1="-145.1007" y1="11.4511" x2="-70.7494" y2="11.4511">
	<stop  offset="0" style="stop-color:#1D72F7"/>
	<stop  offset="1" style="stop-color:#1D56F7"/>
</linearGradient>
<path class="st0" d="M-103.1,40.9c9.5,0,18.1-3.9,24.4-10.1L-127.4-18c-6.2,6.2-10.1,14.8-10.1,24.4
	C-137.5,25.4-122.1,40.9-103.1,40.9z"/>
<linearGradient id="SVGID_2_" gradientUnits="userSpaceOnUse" x1="-137.5299" y1="11.4511" x2="-68.6302" y2="11.4511">
	<stop  offset="0" style="stop-color:#1D56F7"/>
	<stop  offset="1" style="stop-color:#1D72F7"/>
</linearGradient>
<path class="st1" d="M-103.1,40.9c9.5,0,18.1-3.9,24.4-10.1L-127.4-18c-6.2,6.2-10.1,14.8-10.1,24.4
	C-137.5,25.4-122.1,40.9-103.1,40.9z"/>
<radialGradient id="SVGID_3_" cx="-103.7856" cy="48.5757" r="62.2202" gradientUnits="userSpaceOnUse">
	<stop  offset="0" style="stop-color:#1D56F7"/>
	<stop  offset="1" style="stop-color:#1D72F7"/>
</radialGradient>
<path class="st2" d="M-75.5,57l-16.4,16.4l-5.6,5.6l-35.4,35.4c-3.4,3.4-7.8,4.9-12.2,4.8c-4.4,0.2-8.9-1.4-12.2-4.8l-5.4-5.4
	c6.2-6.2,10.1-14.8,10.1-24.4c0-19-15.4-34.4-34.4-34.4c-9.5,0-18.1,3.9-24.4,10.1l-3.2-3.2c-6.4-6.4-6.4-16.7,0-23.1l16.4-16.4
	l5.6-5.6l35.4-35.4c3.4-3.4,7.8-4.9,12.2-4.8c4.4-0.2,8.9,1.4,12.2,4.8l5.4,5.4c-6.2,6.2-10.1,14.8-10.1,24.4
	c0,19,15.4,34.4,34.4,34.4c9.5,0,18.1-3.9,24.4-10.1l3.2,3.2C-69.2,40.3-69.2,50.7-75.5,57z"/>
<linearGradient id="SVGID_4_" gradientUnits="userSpaceOnUse" x1="-766.8435" y1="593.6411" x2="-692.4922" y2="593.6411" gradientTransform="matrix(-1 0 0 -1 -911.9443 673.1899)">
	<stop  offset="0" style="stop-color:#1D72F7"/>
	<stop  offset="1" style="stop-color:#1D56F7"/>
</linearGradient>
<path class="st3" d="M-187.1,50.1c-9.5,0-18.1,3.9-24.4,10.1l48.7,48.7c6.2-6.2,10.1-14.8,10.1-24.4
	C-152.7,65.6-168.1,50.1-187.1,50.1z"/>
<linearGradient id="SVGID_5_" gradientUnits="userSpaceOnUse" x1="-759.2726" y1="593.6411" x2="-690.373" y2="593.6411" gradientTransform="matrix(-1 0 0 -1 -911.9443 673.1899)">
	<stop  offset="0" style="stop-color:#1D56F7"/>
	<stop  offset="1" style="stop-color:#1D72F7"/>
</linearGradient>
<path class="st4" d="M-187.1,50.1c-9.5,0-18.1,3.9-24.4,10.1l48.7,48.7c6.2-6.2,10.1-14.8,10.1-24.4
	C-152.7,65.6-168.1,50.1-187.1,50.1z"/>
<linearGradient id="SVGID_6_" gradientUnits="userSpaceOnUse" x1="-39.098" y1="22.1696" x2="35.2534" y2="22.1696">
	<stop  offset="0" style="stop-color:#1D72F7"/>
	<stop  offset="1" style="stop-color:#1D56F7"/>
</linearGradient>
<path class="st5" d="M2.9,40.9c9.5,0,18.1-3.9,24.4-10.1L0,3.5v37.2C1,40.8,1.9,40.9,2.9,40.9z"/>
<linearGradient id="SVGID_7_" gradientUnits="userSpaceOnUse" x1="-31.527" y1="22.1696" x2="37.3726" y2="22.1696">
	<stop  offset="0" style="stop-color:#1D56F7"/>
	<stop  offset="1" style="stop-color:#1D72F7"/>
</linearGradient>
<path class="st6" d="M2.9,40.9c9.5,0,18.1-3.9,24.4-10.1L0,3.5v37.2C1,40.8,1.9,40.9,2.9,40.9z"/>
<radialGradient id="SVGID_8_" cx="2.2171" cy="48.5757" r="62.2202" gradientUnits="userSpaceOnUse">
	<stop  offset="0" style="stop-color:#1D56F7"/>
	<stop  offset="1" style="stop-color:#1D72F7"/>
</radialGradient>
<path class="st7" d="M30.5,34l-3.2-3.2C21.1,37,12.4,40.9,2.9,40.9c-1,0-2,0-2.9-0.1v46.8L8.5,79l5.6-5.6L30.5,57
	C36.8,50.7,36.8,40.3,30.5,34z"/>
</svg>
