<?xml version="1.0" encoding="utf-8"?>
<!-- Generator: Adobe Illustrator 22.0.1, SVG Export Plug-In . SVG Version: 6.00 Build 0)  -->
<svg version="1.1" id="Layer_1" xmlns="http://www.w3.org/2000/svg" xmlns:xlink="http://www.w3.org/1999/xlink" x="0px" y="0px"
	 viewBox="0 0 149.5 150" style="enable-background:new 0 0 149.5 150;" xml:space="preserve">
<style type="text/css">
	.st0{fill:url(#SVGID_1_);}
	.st1{fill:url(#SVGID_2_);}
	.st2{fill:url(#SVGID_3_);}
	.st3{fill:url(#SVGID_4_);}
	.st4{fill:url(#SVGID_5_);}
	.st5{fill:url(#SVGID_6_);}
	.st6{fill:url(#SVGID_7_);}
	.st7{fill:url(#SVGID_8_);}
	.st8{fill:url(#SVGID_9_);}
	.st9{fill:url(#SVGID_10_);}
	.st10{fill:#FFFFFF;}
</style>
<linearGradient id="SVGID_1_" gradientUnits="userSpaceOnUse" x1="-108.8507" y1="40.9511" x2="-34.4994" y2="40.9511">
	<stop  offset="0" style="stop-color:#1D72F7"/>
	<stop  offset="1" style="stop-color:#1D56F7"/>
</linearGradient>
<path class="st0" d="M-66.8,70.4c9.5,0,18.1-3.9,24.4-10.1l-48.7-48.7c-6.2,6.2-10.1,14.8-10.1,24.4
	C-101.3,54.9-85.9,70.4-66.8,70.4z"/>
<linearGradient id="SVGID_2_" gradientUnits="userSpaceOnUse" x1="-101.2799" y1="40.9511" x2="-32.3802" y2="40.9511">
	<stop  offset="0" style="stop-color:#1D56F7"/>
	<stop  offset="1" style="stop-color:#1D72F7"/>
</linearGradient>
<path class="st1" d="M-66.8,70.4c9.5,0,18.1-3.9,24.4-10.1l-48.7-48.7c-6.2,6.2-10.1,14.8-10.1,24.4
	C-101.3,54.9-85.9,70.4-66.8,70.4z"/>
<radialGradient id="SVGID_3_" cx="-67.5356" cy="78.0757" r="62.2202" gradientUnits="userSpaceOnUse">
	<stop  offset="0" style="stop-color:#1D56F7"/>
	<stop  offset="1" style="stop-color:#1D72F7"/>
</radialGradient>
<path class="st2" d="M-39.3,86.5l-16.4,16.4l-5.6,5.6l-35.4,35.4c-3.4,3.4-7.8,4.9-12.2,4.8c-4.4,0.2-8.9-1.4-12.2-4.8l-5.4-5.4
	c6.2-6.2,10.1-14.8,10.1-24.4c0-19-15.4-34.4-34.4-34.4c-9.5,0-18.1,3.9-24.4,10.1l-3.2-3.2c-6.4-6.4-6.4-16.7,0-23.1l16.4-16.4
	l5.6-5.6l35.4-35.4c3.4-3.4,7.8-4.9,12.2-4.8c4.4-0.2,8.9,1.4,12.2,4.8l5.4,5.4c-6.2,6.2-10.1,14.8-10.1,24.4
	c0,19,15.4,34.4,34.4,34.4c9.5,0,18.1-3.9,24.4-10.1l3.2,3.2C-32.9,69.8-32.9,80.2-39.3,86.5z"/>
<linearGradient id="SVGID_4_" gradientUnits="userSpaceOnUse" x1="-730.5935" y1="623.1411" x2="-656.2422" y2="623.1411" gradientTransform="matrix(-1 0 0 -1 -839.4443 732.1899)">
	<stop  offset="0" style="stop-color:#1D72F7"/>
	<stop  offset="1" style="stop-color:#1D56F7"/>
</linearGradient>
<path class="st3" d="M-150.9,79.6c-9.5,0-18.1,3.9-24.4,10.1l48.7,48.7c6.2-6.2,10.1-14.8,10.1-24.4
	C-116.4,95.1-131.8,79.6-150.9,79.6z"/>
<linearGradient id="SVGID_5_" gradientUnits="userSpaceOnUse" x1="-723.0226" y1="623.1411" x2="-654.123" y2="623.1411" gradientTransform="matrix(-1 0 0 -1 -839.4443 732.1899)">
	<stop  offset="0" style="stop-color:#1D56F7"/>
	<stop  offset="1" style="stop-color:#1D72F7"/>
</linearGradient>
<path class="st4" d="M-150.9,79.6c-9.5,0-18.1,3.9-24.4,10.1l48.7,48.7c6.2-6.2,10.1-14.8,10.1-24.4
	C-116.4,95.1-131.8,79.6-150.9,79.6z"/>
<linearGradient id="SVGID_6_" gradientUnits="userSpaceOnUse" x1="74.7506" y1="40.9511" x2="149.102" y2="40.9511">
	<stop  offset="0" style="stop-color:#1D72F7"/>
	<stop  offset="1" style="stop-color:#1D56F7"/>
</linearGradient>
<path class="st5" d="M116.8,70.4c9.5,0,18.1-3.9,24.4-10.1L92.4,11.5c-6.2,6.2-10.1,14.8-10.1,24.4C82.3,54.9,97.7,70.4,116.8,70.4z
	"/>
<linearGradient id="SVGID_7_" gradientUnits="userSpaceOnUse" x1="82.3215" y1="40.9511" x2="151.2212" y2="40.9511">
	<stop  offset="0" style="stop-color:#1D56F7"/>
	<stop  offset="1" style="stop-color:#1D72F7"/>
</linearGradient>
<path class="st6" d="M116.8,70.4c9.5,0,18.1-3.9,24.4-10.1L92.4,11.5c-6.2,6.2-10.1,14.8-10.1,24.4C82.3,54.9,97.7,70.4,116.8,70.4z
	"/>
<radialGradient id="SVGID_8_" cx="116.0657" cy="78.0757" r="62.2202" gradientUnits="userSpaceOnUse">
	<stop  offset="0" style="stop-color:#1D56F7"/>
	<stop  offset="1" style="stop-color:#1D72F7"/>
</radialGradient>
<path class="st7" d="M144.3,86.5L128,102.9l-5.6,5.6L87,143.9c-3.4,3.4-7.8,4.9-12.2,4.8c-4.4,0.2-8.9-1.4-12.2-4.8l-5.4-5.4
	c6.2-6.2,10.1-14.8,10.1-24.4c0-19-15.4-34.4-34.4-34.4c-9.5,0-18.1,3.9-24.4,10.1l-3.2-3.2c-6.4-6.4-6.4-16.7,0-23.1l16.4-16.4
	l5.6-5.6L62.5,6.1c3.4-3.4,7.8-4.9,12.2-4.8c4.4-0.2,8.9,1.4,12.2,4.8l5.4,5.4c-6.2,6.2-10.1,14.8-10.1,24.4
	c0,19,15.4,34.4,34.4,34.4c9.5,0,18.1-3.9,24.4-10.1l3.2,3.2C150.7,69.8,150.7,80.2,144.3,86.5z"/>
<linearGradient id="SVGID_9_" gradientUnits="userSpaceOnUse" x1="-914.1949" y1="623.1411" x2="-839.8435" y2="623.1411" gradientTransform="matrix(-1 0 0 -1 -839.4443 732.1899)">
	<stop  offset="0" style="stop-color:#1D72F7"/>
	<stop  offset="1" style="stop-color:#1D56F7"/>
</linearGradient>
<path class="st8" d="M32.7,79.6c-9.5,0-18.1,3.9-24.4,10.1l48.7,48.7c6.2-6.2,10.1-14.8,10.1-24.4C67.2,95.1,51.8,79.6,32.7,79.6z"
	/>
<linearGradient id="SVGID_10_" gradientUnits="userSpaceOnUse" x1="-906.624" y1="623.1411" x2="-837.7244" y2="623.1411" gradientTransform="matrix(-1 0 0 -1 -839.4443 732.1899)">
	<stop  offset="0" style="stop-color:#1D56F7"/>
	<stop  offset="1" style="stop-color:#1D72F7"/>
</linearGradient>
<path class="st9" d="M32.7,79.6c-9.5,0-18.1,3.9-24.4,10.1l48.7,48.7c6.2-6.2,10.1-14.8,10.1-24.4C67.2,95.1,51.8,79.6,32.7,79.6z"
	/>
<path class="st10" d="M9.5,87.5C8.6,88.2,7.8,89,7,89.7l0,0C7.8,89,8.6,88.2,9.5,87.5z"/>
</svg>
