<?xml version="1.0" encoding="utf-8"?>
<!-- Generator: Adobe Illustrator 17.0.0, SVG Export Plug-In . SVG Version: 6.00 Build 0)  -->
<!DOCTYPE svg PUBLIC "-//W3C//DTD SVG 1.1//EN" "http://www.w3.org/Graphics/SVG/1.1/DTD/svg11.dtd">
<svg version="1.1" id="Layer_1" xmlns="http://www.w3.org/2000/svg" xmlns:xlink="http://www.w3.org/1999/xlink" x="0px" y="0px"
	 width="509.175px" height="339.352px" viewBox="0 0 509.175 339.352" enable-background="new 0 0 509.175 339.352"
	 xml:space="preserve">
<pattern  x="-53.959" y="-60.798" width="28.8" height="28.801" patternUnits="userSpaceOnUse" id="_x31_0_dpi_20_x25_" viewBox="1.44 -30.24 28.8 28.801" overflow="visible">
	<g>
		<polygon fill="none" points="1.44,-30.24 30.24,-30.24 30.24,-1.439 1.44,-1.439 		"/>
		<g>
			<path fill="#231F20" d="M30.24,0c0.795,0,1.44-0.645,1.44-1.439c0-0.795-0.645-1.439-1.44-1.439c-0.796,0-1.44,0.645-1.44,1.439
				C28.8-0.645,29.444,0,30.24,0z"/>
			<path fill="#231F20" d="M15.84,0c0.795,0,1.441-0.645,1.441-1.439c0-0.795-0.646-1.439-1.441-1.439
				c-0.796,0-1.439,0.645-1.439,1.439C14.4-0.645,15.044,0,15.84,0z"/>
			<path fill="#231F20" d="M30.24-14.398c0.795,0,1.44-0.646,1.44-1.441c0-0.795-0.645-1.44-1.44-1.44
				c-0.796,0-1.44,0.645-1.44,1.44C28.8-15.045,29.444-14.398,30.24-14.398z"/>
			<path fill="#231F20" d="M15.84-14.398c0.795,0,1.441-0.646,1.441-1.441c0-0.795-0.646-1.44-1.441-1.44
				c-0.796,0-1.439,0.645-1.439,1.44C14.4-15.045,15.044-14.398,15.84-14.398z"/>
			<path fill="#231F20" d="M8.64-7.199c0.795,0,1.44-0.645,1.44-1.439c0-0.797-0.646-1.441-1.44-1.441
				C7.844-10.08,7.2-9.436,7.2-8.639C7.2-7.844,7.844-7.199,8.64-7.199z"/>
			<path fill="#231F20" d="M23.04-7.199c0.795,0,1.44-0.645,1.44-1.439c0-0.797-0.646-1.441-1.44-1.441
				c-0.796,0-1.44,0.645-1.44,1.441C21.6-7.844,22.244-7.199,23.04-7.199z"/>
			<path fill="#231F20" d="M8.64-21.6c0.795,0,1.44-0.645,1.44-1.44c0-0.797-0.646-1.441-1.44-1.441
				c-0.796,0-1.439,0.645-1.439,1.441C7.2-22.244,7.844-21.6,8.64-21.6z"/>
			<path fill="#231F20" d="M23.04-21.6c0.795,0,1.44-0.645,1.44-1.44c0-0.797-0.646-1.441-1.44-1.441
				c-0.796,0-1.44,0.645-1.44,1.441C21.6-22.244,22.244-21.6,23.04-21.6z"/>
		</g>
		<g>
			<path fill="#231F20" d="M1.44,0C2.235,0,2.88-0.645,2.88-1.439c0-0.795-0.645-1.439-1.439-1.439C0.645-2.879,0-2.234,0-1.439
				C0-0.645,0.645,0,1.44,0z"/>
			<path fill="#231F20" d="M1.44-14.398c0.795,0,1.439-0.646,1.439-1.441c0-0.795-0.645-1.44-1.439-1.44
				c-0.796,0-1.44,0.645-1.44,1.44C0-15.045,0.645-14.398,1.44-14.398z"/>
		</g>
		<g>
			<path fill="#231F20" d="M30.24-28.801c0.795,0,1.44-0.644,1.44-1.439c0-0.795-0.645-1.44-1.44-1.44
				c-0.796,0-1.44,0.645-1.44,1.44C28.8-29.445,29.444-28.801,30.24-28.801z"/>
			<path fill="#231F20" d="M15.84-28.801c0.795,0,1.441-0.644,1.441-1.439c0-0.795-0.646-1.44-1.441-1.44
				c-0.796,0-1.439,0.645-1.439,1.44C14.4-29.445,15.044-28.801,15.84-28.801z"/>
		</g>
		<g>
			<path fill="#231F20" d="M1.44-28.801c0.795,0,1.439-0.644,1.439-1.439c0-0.795-0.645-1.44-1.439-1.44
				C0.645-31.68,0-31.035,0-30.24C0-29.445,0.645-28.801,1.44-28.801z"/>
		</g>
	</g>
</pattern>
<pattern  id="SVGID_1_" xlink:href="#_x31_0_dpi_20_x25_" patternTransform="matrix(1 0 0 1 -130.9093 0)">
</pattern>
<path opacity="0.5" fill="url(#SVGID_1_)" d="M41.519,339.352h59.241h289.655h69.496c17.266,0,31.264-13.997,31.264-31.263v0
	c0-17.266-13.997-31.264-31.264-31.264h-45.28c-17.158,0-31.11-13.829-31.262-30.987v0c-0.154-17.374,13.888-31.54,31.262-31.54
	h35.024c17.268,0,31.266-14,31.263-31.268v0c-0.002-17.265-13.999-31.259-31.263-31.259h-59.241H69.397H31.263
	C13.997,151.771,0,165.768,0,183.034v0c0,17.266,13.997,31.264,31.263,31.264h34.826c17.158,0,31.11,13.829,31.262,30.987v0
	c0.154,17.374-13.888,31.54-31.262,31.54h-24.57c-17.268,0-31.266,14-31.263,31.268v0C10.258,325.357,24.254,339.352,41.519,339.352
	z M299.051,214.298c17.266,0,31.263,13.997,31.263,31.263v0c0,17.266-13.997,31.263-31.263,31.263H171.215
	c-17.266,0-31.263-13.997-31.263-31.263v0c0-17.266,13.997-31.263,31.263-31.263H299.051z"/>
<path fill="#D7DEE5" d="M59.519,321.352h59.241h289.655h69.496c17.266,0,31.264-13.997,31.264-31.263v0
	c0-17.266-13.997-31.264-31.264-31.264h-45.28c-17.158,0-31.11-13.829-31.262-30.987v0c-0.154-17.374,13.888-31.54,31.262-31.54
	h35.024c17.268,0,31.266-14,31.263-31.268v0c-0.002-17.265-13.999-31.259-31.263-31.259h-59.241H87.397H49.263
	C31.997,133.771,18,147.768,18,165.034v0c0,17.266,13.997,31.264,31.263,31.264h34.826c17.158,0,31.11,13.829,31.262,30.987v0
	c0.154,17.374-13.888,31.54-31.262,31.54h-24.57c-17.268,0-31.266,14-31.263,31.268v0C28.258,307.357,42.254,321.352,59.519,321.352
	z M317.051,196.298c17.266,0,31.263,13.997,31.263,31.263v0c0,17.266-13.997,31.263-31.263,31.263H189.215
	c-17.266,0-31.263-13.997-31.263-31.263v0c0-17.266,13.997-31.263,31.263-31.263H317.051z"/>
<g>
	<path fill="none" stroke="#000000" stroke-width="5" stroke-linecap="round" stroke-linejoin="round" stroke-miterlimit="10" d="
		M208.82,70.46c0,16.249,8.697,30.466,21.691,38.25c0.923,0.553,1.867,1.073,2.831,1.559"/>
	<linearGradient id="SVGID_2_" gradientUnits="userSpaceOnUse" x1="186.5261" y1="154.0981" x2="344.3958" y2="154.0981">
		<stop  offset="0" style="stop-color:#1DA5C9"/>
		<stop  offset="1" style="stop-color:#1D85DB"/>
	</linearGradient>
	<path fill="url(#SVGID_2_)" stroke="#000000" stroke-width="5" stroke-miterlimit="10" d="M298.091,2.5
		c-17.159,0-32.127,9.513-40.127,23.636c-1.508-0.154-3.038-0.234-4.587-0.234c-24.609,0-44.558,19.949-44.558,44.558
		c0,4.387,0.644,8.621,1.826,12.625c-14.323,7.41-24.119,22.351-24.119,39.59c0,12.263,4.955,23.367,12.971,31.423
		c-8.015,8.057-12.971,19.161-12.971,31.423c0,17.239,9.796,32.18,24.119,39.59c-1.181,4.004-1.826,8.238-1.826,12.625
		c0,24.609,19.949,44.558,44.558,44.558c1.469,0,2.919-0.076,4.352-0.214c7.939,14.093,23.034,23.617,40.362,23.617
		c25.574,0,46.305-20.731,46.305-46.305V49.661C344.396,23.615,323.664,2.5,298.091,2.5z"/>
	<path fill="none" stroke="#000000" stroke-width="5" stroke-linecap="round" stroke-linejoin="round" stroke-miterlimit="10" d="
		M298.091,2.5c-25.574,0-46.305,20.731-46.305,46.305c0,11.161,3.949,21.399,10.525,29.395"/>
	<path fill="none" stroke="#000000" stroke-width="5" stroke-linecap="round" stroke-linejoin="round" stroke-miterlimit="10" d="
		M275.996,118.244c0.165,1.559,0.25,3.142,0.25,4.745c0,12.103-4.826,23.079-12.658,31.109l0,0h79.569"/>
	<path fill="none" stroke="#000000" stroke-width="5" stroke-linecap="round" stroke-linejoin="round" stroke-miterlimit="10" d="
		M280.207,65.003c-13.101,5.434-23.167,16.709-26.949,30.576"/>
	<path fill="none" stroke="#000000" stroke-width="5" stroke-linecap="round" stroke-linejoin="round" stroke-miterlimit="10" d="
		M298.091,305.353c-25.574,0-46.305-20.731-46.305-46.305c0-11.161,3.949-21.399,10.525-29.395"/>
	<path fill="none" stroke="#000000" stroke-width="5" stroke-linecap="round" stroke-linejoin="round" stroke-miterlimit="10" d="
		M208.82,237.392c0-16.249,8.697-30.466,21.691-38.25c0.923-0.553,1.867-1.073,2.831-1.559"/>
	<path fill="none" stroke="#000000" stroke-width="5" stroke-linecap="round" stroke-linejoin="round" stroke-miterlimit="10" d="
		M280.207,242.849c-13.101-5.434-23.167-16.709-26.949-30.577"/>
	<path fill="none" stroke="#000000" stroke-width="5" stroke-linecap="round" stroke-linejoin="round" stroke-miterlimit="10" d="
		M186.526,122.675c0,22.508,16.688,41.118,38.366,44.131"/>
	<path fill="none" stroke="#000000" stroke-width="5" stroke-linecap="round" stroke-linejoin="round" stroke-miterlimit="10" d="
		M298.091,95.11c25.574,0,46.305-20.731,46.305-46.305"/>
	<path fill="none" stroke="#000000" stroke-width="5" stroke-linecap="round" stroke-linejoin="round" stroke-miterlimit="10" d="
		M298.091,213.086c25.574,0,46.305,20.731,46.305,46.305"/>
	
		<line fill="none" stroke="#FFFFFF" stroke-width="5" stroke-linecap="round" stroke-miterlimit="10" x1="325.088" y1="108.874" x2="325.088" y2="130.151"/>
	
		<line fill="none" stroke="#FFFFFF" stroke-width="5" stroke-linecap="round" stroke-miterlimit="10" x1="325.088" y1="185.796" x2="325.088" y2="196.434"/>
	<path fill="none" stroke="#FFFFFF" stroke-width="5" stroke-linecap="round" stroke-miterlimit="10" d="M313.62,30.023
		c-4.617-3.643-10.447-5.816-16.784-5.816c-5.783,0-11.143,1.81-15.545,4.894"/>
	<path fill="none" stroke="#FFFFFF" stroke-width="5" stroke-linecap="round" stroke-miterlimit="10" d="M281.29,278.602
		c4.617,3.643,10.447,5.816,16.784,5.816c5.783,0,11.143-1.81,15.545-4.894"/>
	<path fill="none" stroke="#FFFFFF" stroke-width="5" stroke-linecap="round" stroke-miterlimit="10" d="M213.932,141.777
		c4.617,3.643,10.447,5.816,16.784,5.816"/>
	<circle fill="#FFFFFF" cx="205.864" cy="133.862" r="3.555"/>
	<circle fill="#FFFFFF" cx="321.532" cy="38.341" r="3.555"/>
	
		<polyline fill="none" stroke="#000000" stroke-width="5" stroke-linecap="round" stroke-linejoin="round" stroke-miterlimit="10" points="
		380.103,107.105 404.947,83.802 420.417,92.286 445.351,66.696 	"/>
	
		<polyline fill="none" stroke="#000000" stroke-width="5" stroke-linecap="round" stroke-linejoin="round" stroke-miterlimit="10" points="
		380.103,191.116 404.947,214.42 420.417,205.936 445.351,231.525 	"/>
	
		<polyline fill="none" stroke="#000000" stroke-width="5" stroke-linecap="round" stroke-linejoin="round" stroke-miterlimit="10" points="
		381.851,153.707 416.35,153.233 421.596,136.387 456.095,136.387 	"/>
	<linearGradient id="SVGID_3_" gradientUnits="userSpaceOnUse" x1="384.9957" y1="41.896" x2="412.7268" y2="41.896">
		<stop  offset="0" style="stop-color:#ED467B"/>
		<stop  offset="1" style="stop-color:#EC7E7A"/>
	</linearGradient>
	<path fill="url(#SVGID_3_)" stroke="#000000" stroke-width="4" stroke-miterlimit="10" d="M389.156,51.801
		c-5.468-5.358-5.558-14.143-0.2-19.611s14.141-5.555,19.61-0.198c5.468,5.357,5.56,14.141,0.202,19.609
		S394.624,57.159,389.156,51.801z"/>
	<g>
		<linearGradient id="SVGID_4_" gradientUnits="userSpaceOnUse" x1="458.4332" y1="219.8284" x2="493.9435" y2="148.8078">
			<stop  offset="0" style="stop-color:#EBCD1C"/>
			<stop  offset="1" style="stop-color:#EB901C"/>
		</linearGradient>
		<path fill="url(#SVGID_4_)" d="M472.789,204.761c-3.594,0-6.985-1.384-9.551-3.897c-2.603-2.55-4.057-5.963-4.094-9.609
			c-0.037-3.646,1.347-7.087,3.897-9.69c2.586-2.64,6.048-4.094,9.746-4.094c3.594,0,6.985,1.384,9.552,3.898
			c2.603,2.55,4.057,5.962,4.094,9.608c0.038,3.646-1.346,7.087-3.896,9.689C479.951,203.307,476.489,204.761,472.789,204.761z"/>
		<path d="M472.788,179.97c2.816,0,5.633,1.059,7.802,3.184c4.395,4.306,4.469,11.367,0.162,15.762
			c-2.182,2.227-5.072,3.344-7.963,3.344c-2.815,0-5.632-1.059-7.801-3.183c-4.395-4.307-4.468-11.369-0.161-15.764
			C467.009,181.087,469.898,179.97,472.788,179.97 M472.789,174.97C472.789,174.97,472.789,174.97,472.789,174.97
			c-4.377,0-8.472,1.721-11.533,4.844c-3.018,3.08-4.655,7.152-4.611,11.466c0.044,4.314,1.764,8.352,4.844,11.369
			c3.035,2.974,7.049,4.612,11.3,4.612c4.377,0,8.473-1.721,11.534-4.845c3.018-3.08,4.655-7.152,4.61-11.466
			c-0.045-4.313-1.765-8.35-4.845-11.367C481.054,176.608,477.04,174.97,472.789,174.97L472.789,174.97z"/>
	</g>
	<g>
		<linearGradient id="SVGID_5_" gradientUnits="userSpaceOnUse" x1="469.2794" y1="109.4027" x2="528.66" y2="32.2691">
			<stop  offset="0" style="stop-color:#EBCD1C"/>
			<stop  offset="1" style="stop-color:#EB901C"/>
		</linearGradient>
		<path fill="url(#SVGID_5_)" d="M483.935,104.011c-3.594,0-6.985-1.384-9.551-3.897c-2.603-2.55-4.057-5.963-4.094-9.609
			c-0.037-3.646,1.347-7.087,3.897-9.69c2.586-2.64,6.048-4.094,9.746-4.094c3.594,0,6.985,1.384,9.552,3.898
			c2.603,2.55,4.057,5.962,4.094,9.608c0.038,3.646-1.346,7.087-3.896,9.689C491.096,102.557,487.634,104.011,483.935,104.011z"/>
		<path d="M483.934,79.22c2.816,0,5.633,1.059,7.802,3.184c4.395,4.306,4.469,11.367,0.162,15.762
			c-2.182,2.227-5.072,3.344-7.963,3.344c-2.815,0-5.632-1.059-7.801-3.183c-4.395-4.307-4.468-11.369-0.161-15.764
			C478.155,80.337,481.043,79.22,483.934,79.22 M483.934,74.22C483.934,74.22,483.934,74.22,483.934,74.22
			c-4.377,0-8.472,1.721-11.533,4.844c-3.018,3.08-4.655,7.152-4.611,11.466c0.044,4.314,1.764,8.351,4.844,11.369
			c3.035,2.974,7.048,4.612,11.3,4.612c4.377,0,8.473-1.721,11.534-4.845c3.018-3.08,4.655-7.152,4.61-11.466
			c-0.045-4.313-1.765-8.35-4.845-11.367C492.199,75.858,488.186,74.22,483.934,74.22L483.934,74.22z"/>
	</g>
	<linearGradient id="SVGID_6_" gradientUnits="userSpaceOnUse" x1="381.9514" y1="265.6555" x2="415.7711" y2="265.6555">
		<stop  offset="0" style="stop-color:#ED467B"/>
		<stop  offset="1" style="stop-color:#EC7E7A"/>
	</linearGradient>
	<path fill="url(#SVGID_6_)" stroke="#000000" stroke-width="4" stroke-miterlimit="10" d="M387.025,277.735
		c-6.669-6.534-6.778-17.249-0.244-23.917c6.534-6.669,17.246-6.775,23.915-0.241c6.668,6.534,6.78,17.246,0.246,23.914
		C404.408,284.16,393.694,284.269,387.025,277.735z"/>
</g>
</svg>
