<svg xmlns="http://www.w3.org/2000/svg" xmlns:xlink="http://www.w3.org/1999/xlink" viewBox="0 0 491.17 321.35"><defs><style>.cls-1{fill:#d7dee5;}.cls-2{fill:url(#linear-gradient);}.cls-3{fill:#fff;}.cls-4{fill:url(#linear-gradient-2);}.cls-5{fill:url(#linear-gradient-3);}.cls-6{fill:url(#linear-gradient-4);}.cls-7{fill:url(#linear-gradient-5);}</style><linearGradient id="linear-gradient" x1="168.53" y1="154.1" x2="326.4" y2="154.1" gradientUnits="userSpaceOnUse"><stop offset="0" stop-color="#1da5c9"/><stop offset="1" stop-color="#1d85db"/></linearGradient><linearGradient id="linear-gradient-2" x1="367" y1="41.9" x2="394.73" y2="41.9" gradientUnits="userSpaceOnUse"><stop offset="0" stop-color="#ed467b"/><stop offset="1" stop-color="#ec7e7a"/></linearGradient><linearGradient id="linear-gradient-3" x1="443.07" y1="214.56" x2="472.07" y2="156.56" gradientUnits="userSpaceOnUse"><stop offset="0" stop-color="#ebcd1c"/><stop offset="1" stop-color="#eb901c"/></linearGradient><linearGradient id="linear-gradient-4" x1="453.96" y1="105.91" x2="502.46" y2="42.91" xlink:href="#linear-gradient-3"/><linearGradient id="linear-gradient-5" x1="363.95" y1="265.66" x2="397.77" y2="265.66" xlink:href="#linear-gradient-2"/></defs><title>Asset 3</title><g id="Layer_2" data-name="Layer 2"><g id="Layer_1-2" data-name="Layer 1"><path class="cls-1" d="M41.52,321.35H459.91a31.26,31.26,0,0,0,31.26-31.26h0a31.26,31.26,0,0,0-31.26-31.27H414.63a31.25,31.25,0,0,1-31.26-31h0a31.26,31.26,0,0,1,31.26-31.54h35A31.27,31.27,0,0,0,480.92,165h0a31.27,31.27,0,0,0-31.26-31.26H31.26A31.27,31.27,0,0,0,0,165H0A31.27,31.27,0,0,0,31.26,196.3H66.09a31.26,31.26,0,0,1,31.26,31h0a31.26,31.26,0,0,1-31.26,31.54H41.52a31.25,31.25,0,0,0-31.26,31.27h0A31.25,31.25,0,0,0,41.52,321.35Zm257.53-125a31.26,31.26,0,0,1,31.26,31.26h0a31.25,31.25,0,0,1-31.26,31.26H171.22A31.26,31.26,0,0,1,140,227.56h0a31.27,31.27,0,0,1,31.27-31.26Z"/><path d="M215.34,112.77a2.5,2.5,0,0,1-1.12-.27c-1-.51-2-1.06-3-1.64a47.35,47.35,0,0,1-22.91-40.4,2.5,2.5,0,1,1,5,0,42.31,42.31,0,0,0,20.48,36.11c.87.52,1.77,1,2.67,1.47a2.5,2.5,0,0,1-1.13,4.73Z"/><path class="cls-2" d="M280.09,2.5A46.13,46.13,0,0,0,240,26.14a43.2,43.2,0,0,0-4.58-.24,44.55,44.55,0,0,0-42.73,57.19,44.55,44.55,0,0,0-11.15,71,44.55,44.55,0,0,0,11.15,71,44.54,44.54,0,0,0,42.73,57.18q2.2,0,4.35-.21a46.3,46.3,0,0,0,86.67-22.69V49.66C326.4,23.61,305.66,2.5,280.09,2.5Z"/><path d="M280.09,308.2a48.94,48.94,0,0,1-41.73-23.5c-1,.06-2,.09-3,.09a47,47,0,0,1-45.66-58.43,47,47,0,0,1-11.66-72.26,47.06,47.06,0,0,1,11.66-72.27A47,47,0,0,1,235.38,23.4c1.07,0,2.15,0,3.23.11A48.79,48.79,0,0,1,280.09,0C307,0,328.9,22.28,328.9,49.66V259.39A48.87,48.87,0,0,1,280.09,308.2Zm-39-28.77.8,1.42a43.8,43.8,0,0,0,82-21.46V49.66C323.9,25,304.24,5,280.09,5a43.81,43.81,0,0,0-37.95,22.37l-.81,1.42-1.62-.17c-1.44-.14-2.89-.22-4.33-.22a42.07,42.07,0,0,0-40.34,54l.59,2-1.84,1a42.06,42.06,0,0,0-10.52,67L185,154.1l-1.75,1.76a42.06,42.06,0,0,0,10.52,67l1.84,1-.59,2a42.06,42.06,0,0,0,40.34,54c1.33,0,2.72-.06,4.11-.2Z"/><path d="M244.31,80.7a2.49,2.49,0,0,1-1.93-.91A48.81,48.81,0,0,1,280.09,0a2.5,2.5,0,0,1,0,5,43.81,43.81,0,0,0-33.85,71.61,2.5,2.5,0,0,1-1.93,4.09Z"/><path d="M325.16,156.6H245.59a2.5,2.5,0,0,1-1.79-4.25,42,42,0,0,0,11.71-33.84,2.5,2.5,0,0,1,5-.53,47,47,0,0,1-9.42,33.62h74.1a2.5,2.5,0,0,1,0,5Z"/><path d="M235.26,98.08a2.5,2.5,0,0,1-2.41-3.16,49.14,49.14,0,0,1,28.4-32.23,2.5,2.5,0,1,1,1.91,4.62,44.09,44.09,0,0,0-25.49,28.93A2.5,2.5,0,0,1,235.26,98.08Z"/><path d="M280.09,307.85a48.8,48.8,0,0,1-37.71-79.78,2.5,2.5,0,1,1,3.86,3.17,43.81,43.81,0,0,0,33.85,71.61,2.5,2.5,0,1,1,0,5Z"/><path d="M190.82,239.89a2.5,2.5,0,0,1-2.5-2.5A47.32,47.32,0,0,1,211.23,197c1-.59,2-1.14,3-1.65a2.5,2.5,0,0,1,2.25,4.46c-.9.46-1.8.95-2.68,1.48a42.31,42.31,0,0,0-20.47,36.1A2.5,2.5,0,0,1,190.82,239.89Z"/><path d="M262.21,245.35a2.49,2.49,0,0,1-1-.19,49.09,49.09,0,0,1-28.4-32.23,2.5,2.5,0,1,1,4.82-1.31,44.1,44.1,0,0,0,25.49,28.92,2.5,2.5,0,0,1-1,4.81Z"/><path d="M206.9,169.31a2,2,0,0,1-.35,0A47.23,47.23,0,0,1,166,122.67a2.5,2.5,0,1,1,5,0,42.2,42.2,0,0,0,36.21,41.66,2.5,2.5,0,0,1-.34,5Z"/><path d="M280.09,97.61a2.5,2.5,0,0,1,0-5,43.86,43.86,0,0,0,43.81-43.8,2.5,2.5,0,0,1,5,0A48.86,48.86,0,0,1,280.09,97.61Z"/><path d="M326.4,261.89a2.5,2.5,0,0,1-2.5-2.5,43.86,43.86,0,0,0-43.81-43.8,2.5,2.5,0,0,1,0-5,48.86,48.86,0,0,1,48.81,48.8A2.5,2.5,0,0,1,326.4,261.89Z"/><path class="cls-3" d="M307.09,132.65a2.5,2.5,0,0,1-2.5-2.5V108.87a2.5,2.5,0,0,1,5,0v21.28A2.5,2.5,0,0,1,307.09,132.65Z"/><path class="cls-3" d="M307.09,198.93a2.49,2.49,0,0,1-2.5-2.5V185.8a2.5,2.5,0,0,1,5,0v10.63A2.49,2.49,0,0,1,307.09,198.93Z"/><path class="cls-3" d="M295.62,32.52a2.51,2.51,0,0,1-1.55-.53,24.62,24.62,0,0,0-29.34-.84,2.5,2.5,0,1,1-2.87-4.1,29.65,29.65,0,0,1,35.31,1,2.5,2.5,0,0,1,.41,3.51A2.47,2.47,0,0,1,295.62,32.52Z"/><path class="cls-3" d="M280.07,286.92a29.31,29.31,0,0,1-18.33-6.36,2.5,2.5,0,1,1,3.1-3.92,24.64,24.64,0,0,0,29.35.84,2.5,2.5,0,1,1,2.86,4.09A29.42,29.42,0,0,1,280.07,286.92Z"/><path class="cls-3" d="M212.72,150.09a29.31,29.31,0,0,1-18.34-6.35,2.5,2.5,0,0,1,3.1-3.93,24.34,24.34,0,0,0,15.24,5.28,2.5,2.5,0,0,1,0,5Z"/><circle class="cls-3" cx="187.86" cy="133.86" r="3.56"/><circle class="cls-3" cx="303.53" cy="38.34" r="3.56"/><path d="M362.1,109.61a2.5,2.5,0,0,1-1.71-4.33L385.24,82a2.49,2.49,0,0,1,2.91-.37L402,89.18,425.56,65a2.5,2.5,0,0,1,3.58,3.49L404.21,94a2.51,2.51,0,0,1-3,.45l-13.89-7.61-23.52,22.06A2.49,2.49,0,0,1,362.1,109.61Z"/><path d="M427.35,234a2.51,2.51,0,0,1-1.79-.76L402,209l-13.8,7.57a2.49,2.49,0,0,1-2.91-.37l-24.85-23.3a2.5,2.5,0,0,1,3.42-3.65l23.52,22.07,13.89-7.62a2.51,2.51,0,0,1,3,.45l24.93,25.59a2.5,2.5,0,0,1-1.79,4.25Z"/><path d="M363.85,156.21a2.5,2.5,0,0,1,0-5l32.68-.45,4.71-15.12a2.49,2.49,0,0,1,2.39-1.75h34.5a2.5,2.5,0,0,1,0,5H405.44L400.74,154a2.49,2.49,0,0,1-2.36,1.75l-34.49.48Z"/><path class="cls-4" d="M371.16,51.8a13.87,13.87,0,1,1,19.61-.2A13.87,13.87,0,0,1,371.16,51.8Z"/><path d="M380.86,58.26a16.32,16.32,0,0,1-11.45-4.67h0a16.37,16.37,0,1,1,11.45,4.67ZM372.91,50a11.37,11.37,0,1,0-.17-16.08A11.38,11.38,0,0,0,372.91,50Z"/><path class="cls-5" d="M447,199.08a11.15,11.15,0,1,1,15.76-.16A11.15,11.15,0,0,1,447,199.08Z"/><path d="M454.79,180a11.15,11.15,0,1,1-8,3.34,11.14,11.14,0,0,1,8-3.34m0-5h0a16.13,16.13,0,1,0,11.3,4.61,16,16,0,0,0-11.3-4.61Z"/><path class="cls-6" d="M458.13,98.33a11.15,11.15,0,1,1,15.77-.16A11.17,11.17,0,0,1,458.13,98.33Z"/><path d="M465.93,79.22a11.15,11.15,0,1,1-8,3.34,11.14,11.14,0,0,1,8-3.34m0-5h0a16.13,16.13,0,1,0,11.31,4.61,16,16,0,0,0-11.31-4.61Z"/><path class="cls-7" d="M369,277.74a16.91,16.91,0,1,1,23.91-.25A16.92,16.92,0,0,1,369,277.74Z"/><path d="M380.86,285.06a19.33,19.33,0,0,1-13.58-5.54h0a19.4,19.4,0,0,1,13.38-33.27,19.11,19.11,0,0,1,13.79,5.54,19.41,19.41,0,0,1-13.59,33.27Zm0-33.81h-.15a14.41,14.41,0,0,0-9.93,24.7h0a14.41,14.41,0,1,0,10.08-24.7Z"/></g></g></svg>