<svg xmlns="http://www.w3.org/2000/svg" xmlns:xlink="http://www.w3.org/1999/xlink" viewBox="0 0 620.51 327.42"><defs><style>.cls-1{fill:#d7dee5;}.cls-2{fill:#fff;}.cls-3{fill:url(#linear-gradient);}.cls-4{fill:url(#linear-gradient-2);}.cls-5{fill:#228bca;}.cls-6{fill:url(#linear-gradient-3);}.cls-7{fill:url(#linear-gradient-4);}</style><linearGradient id="linear-gradient" x1="428.12" y1="82.03" x2="206.12" y2="266.03" gradientUnits="userSpaceOnUse"><stop offset="0" stop-color="#1da5c9"/><stop offset="1" stop-color="#1d85db"/></linearGradient><linearGradient id="linear-gradient-2" x1="330.84" y1="201.57" x2="383.82" y2="201.57" gradientUnits="userSpaceOnUse"><stop offset="0" stop-color="#ebcd1c"/><stop offset="1" stop-color="#eb901c"/></linearGradient><linearGradient id="linear-gradient-3" x1="90.79" y1="76.32" x2="207.79" y2="-60.68" xlink:href="#linear-gradient-2"/><linearGradient id="linear-gradient-4" x1="543.27" y1="102.21" x2="598.08" y2="102.21" xlink:href="#linear-gradient-2"/></defs><title>Asset 4</title><g id="Layer_2" data-name="Layer 2"><g id="Layer_1-2" data-name="Layer 1"><path class="cls-1" d="M0,296.16H0a31.26,31.26,0,0,0,31.26,31.26h558a31.27,31.27,0,0,0,31.27-31.26h0a31.27,31.27,0,0,0-31.27-31.27H516.4a31.26,31.26,0,0,1-31.26-31.26h0a31.26,31.26,0,0,1,31.26-31.26h10.12a31.26,31.26,0,0,0,31.26-31.27h0a31.26,31.26,0,0,0-31.26-31.26H73.28A31.26,31.26,0,0,0,42,171.1h0a31.26,31.26,0,0,0,31.26,31.27h76.64a31.26,31.26,0,0,1,31.26,31h0a31.25,31.25,0,0,1-31.26,31.54H31.26A31.27,31.27,0,0,0,0,296.16Z"/><path class="cls-2" d="M173.18,54.81H446.95a10,10,0,0,1,10,10V85.38a0,0,0,0,1,0,0H163.18a0,0,0,0,1,0,0V64.81A10,10,0,0,1,173.18,54.81Z"/><path d="M456.94,87.88H163.18a2.5,2.5,0,0,1-2.5-2.5V64.81a12.52,12.52,0,0,1,12.5-12.5H446.94a12.51,12.51,0,0,1,12.5,12.5V85.38A2.49,2.49,0,0,1,456.94,87.88Zm-291.26-5H454.44V64.81a7.51,7.51,0,0,0-7.5-7.5H173.18a7.52,7.52,0,0,0-7.5,7.5Z"/><path class="cls-3" d="M163.18,85.38H456.95a0,0,0,0,1,0,0v184.3a10,10,0,0,1-10,10H173.18a10,10,0,0,1-10-10V85.38A0,0,0,0,1,163.18,85.38Z"/><path d="M446.94,282.18H173.18a12.52,12.52,0,0,1-12.5-12.5V85.38a2.5,2.5,0,0,1,2.5-2.5H456.94a2.49,2.49,0,0,1,2.5,2.5v184.3A12.51,12.51,0,0,1,446.94,282.18ZM165.68,87.88v181.8a7.51,7.51,0,0,0,7.5,7.5H446.94a7.5,7.5,0,0,0,7.5-7.5V87.88Z"/><path class="cls-2" d="M235.5,122.09h-52a2.5,2.5,0,0,1,0-5h52a2.5,2.5,0,0,1,0,5Z"/><path class="cls-2" d="M287.52,143.81h-104a2.5,2.5,0,1,1,0-5h104a2.5,2.5,0,0,1,0,5Z"/><path class="cls-2" d="M269.9,165.53H183.47a2.5,2.5,0,0,1,0-5H269.9a2.5,2.5,0,0,1,0,5Z"/><path class="cls-2" d="M209.16,187.25H183.47a2.5,2.5,0,0,1,0-5h25.69a2.5,2.5,0,0,1,0,5Z"/><path class="cls-2" d="M330.84,230.69H183.47a2.5,2.5,0,1,1,0-5H330.84a2.5,2.5,0,0,1,0,5Z"/><path class="cls-2" d="M281.27,252.41h-97.8a2.5,2.5,0,0,1,0-5h97.8a2.5,2.5,0,0,1,0,5Z"/><circle cx="181.47" cy="70.09" r="4.71"/><circle cx="197.99" cy="70.09" r="4.71"/><circle cx="214.51" cy="70.09" r="4.71"/><path class="cls-4" d="M330.84,228.06l4.45-19.28c.12-.51.25-1,.38-1.53a40.71,40.71,0,0,1,19-24.44L368,175.09l15.85,15.84-7.73,13.27a40.66,40.66,0,0,1-24.44,19c-.51.14-1,.27-1.53.38Z"/><path d="M330.84,230.56a2.48,2.48,0,0,1-1.77-.73,2.51,2.51,0,0,1-.67-2.33l4.45-19.28c.13-.54.26-1.08.41-1.61a43.43,43.43,0,0,1,20.19-26l13.27-7.73a2.5,2.5,0,0,1,3,.4l15.85,15.84a2.51,2.51,0,0,1,.39,3l-7.72,13.27a43.53,43.53,0,0,1-26,20.19c-.54.14-1.08.28-1.62.4L331.4,230.5A2.6,2.6,0,0,1,330.84,230.56Zm36.73-52.35L356,185a38.42,38.42,0,0,0-17.87,22.93c-.13.48-.25,1-.37,1.45l-3.54,15.38,15.38-3.55,1.45-.36a38.45,38.45,0,0,0,22.92-17.88l6.76-11.6Z"/><path class="cls-5" d="M383.82,190.93,513.15,70.24a9.29,9.29,0,0,0,0-13.13L501.8,45.75a9.31,9.31,0,0,0-13.13,0L368,175.09Z"/><path d="M383.82,193.43a2.53,2.53,0,0,1-1.77-.73l-15.84-15.85a2.49,2.49,0,0,1-.06-3.47L486.84,44A11.81,11.81,0,0,1,503.56,44l11.36,11.36a11.79,11.79,0,0,1,0,16.67L385.53,192.76A2.52,2.52,0,0,1,383.82,193.43ZM371.45,175l12.43,12.42,127.57-119a6.78,6.78,0,0,0-.06-9.53L500,47.52a6.81,6.81,0,0,0-9.6,0Z"/><path class="cls-2" d="M460.16,102.61a2.51,2.51,0,0,1-1.77-4.27l36.05-36A2.5,2.5,0,1,1,498,65.83l-36,36A2.5,2.5,0,0,1,460.16,102.61Z"/><polygon class="cls-6" points="132.56 54.81 126.41 33.56 105.16 27.41 126.41 21.25 132.56 0 138.72 21.25 159.97 27.41 138.72 33.56 132.56 54.81"/><polygon class="cls-7" points="570.67 129.62 564.52 108.36 543.27 102.21 564.52 96.06 570.67 74.81 576.83 96.06 598.08 102.21 576.83 108.36 570.67 129.62"/><path class="cls-2" d="M439.92,218a2.5,2.5,0,0,1-2.5-2.5V174a2.5,2.5,0,0,1,5,0v41.59A2.5,2.5,0,0,1,439.92,218Z"/><circle class="cls-2" cx="439.92" cy="226.27" r="3.4"/></g></g></svg>