<?xml version="1.0" encoding="utf-8"?>
<!-- Generator: Adobe Illustrator 17.0.0, SVG Export Plug-In . SVG Version: 6.00 Build 0)  -->
<!DOCTYPE svg PUBLIC "-//W3C//DTD SVG 1.1//EN" "http://www.w3.org/Graphics/SVG/1.1/DTD/svg11.dtd">
<svg version="1.1" id="Layer_1" xmlns="http://www.w3.org/2000/svg" xmlns:xlink="http://www.w3.org/1999/xlink" x="0px" y="0px"
	 width="638.508px" height="345.422px" viewBox="0 0 638.508 345.422" enable-background="new 0 0 638.508 345.422"
	 xml:space="preserve">
<pattern  x="10.708" y="-57.763" width="28.8" height="28.801" patternUnits="userSpaceOnUse" id="_x31_0_dpi_20_x25_" viewBox="1.44 -30.24 28.8 28.801" overflow="visible">
	<g>
		<polygon fill="none" points="1.44,-30.24 30.24,-30.24 30.24,-1.439 1.44,-1.439 		"/>
		<g>
			<path fill="#231F20" d="M30.24,0c0.795,0,1.44-0.645,1.44-1.439c0-0.795-0.645-1.439-1.44-1.439c-0.796,0-1.44,0.645-1.44,1.439
				C28.8-0.645,29.444,0,30.24,0z"/>
			<path fill="#231F20" d="M15.84,0c0.795,0,1.441-0.645,1.441-1.439c0-0.795-0.646-1.439-1.441-1.439
				c-0.796,0-1.439,0.645-1.439,1.439C14.4-0.645,15.044,0,15.84,0z"/>
			<path fill="#231F20" d="M30.24-14.398c0.795,0,1.44-0.646,1.44-1.441c0-0.795-0.645-1.44-1.44-1.44
				c-0.796,0-1.44,0.645-1.44,1.44C28.8-15.045,29.444-14.398,30.24-14.398z"/>
			<path fill="#231F20" d="M15.84-14.398c0.795,0,1.441-0.646,1.441-1.441c0-0.795-0.646-1.44-1.441-1.44
				c-0.796,0-1.439,0.645-1.439,1.44C14.4-15.045,15.044-14.398,15.84-14.398z"/>
			<path fill="#231F20" d="M8.64-7.199c0.795,0,1.44-0.645,1.44-1.439c0-0.797-0.646-1.441-1.44-1.441
				C7.844-10.08,7.2-9.436,7.2-8.639C7.2-7.844,7.844-7.199,8.64-7.199z"/>
			<path fill="#231F20" d="M23.04-7.199c0.795,0,1.44-0.645,1.44-1.439c0-0.797-0.646-1.441-1.44-1.441
				c-0.796,0-1.44,0.645-1.44,1.441C21.6-7.844,22.244-7.199,23.04-7.199z"/>
			<path fill="#231F20" d="M8.64-21.6c0.795,0,1.44-0.645,1.44-1.44c0-0.797-0.646-1.441-1.44-1.441
				c-0.796,0-1.439,0.645-1.439,1.441C7.2-22.244,7.844-21.6,8.64-21.6z"/>
			<path fill="#231F20" d="M23.04-21.6c0.795,0,1.44-0.645,1.44-1.44c0-0.797-0.646-1.441-1.44-1.441
				c-0.796,0-1.44,0.645-1.44,1.441C21.6-22.244,22.244-21.6,23.04-21.6z"/>
		</g>
		<g>
			<path fill="#231F20" d="M1.44,0C2.235,0,2.88-0.645,2.88-1.439c0-0.795-0.645-1.439-1.439-1.439C0.645-2.879,0-2.234,0-1.439
				C0-0.645,0.645,0,1.44,0z"/>
			<path fill="#231F20" d="M1.44-14.398c0.795,0,1.439-0.646,1.439-1.441c0-0.795-0.645-1.44-1.439-1.44
				c-0.796,0-1.44,0.645-1.44,1.44C0-15.045,0.645-14.398,1.44-14.398z"/>
		</g>
		<g>
			<path fill="#231F20" d="M30.24-28.801c0.795,0,1.44-0.644,1.44-1.439c0-0.795-0.645-1.44-1.44-1.44
				c-0.796,0-1.44,0.645-1.44,1.44C28.8-29.445,29.444-28.801,30.24-28.801z"/>
			<path fill="#231F20" d="M15.84-28.801c0.795,0,1.441-0.644,1.441-1.439c0-0.795-0.646-1.44-1.441-1.44
				c-0.796,0-1.439,0.645-1.439,1.44C14.4-29.445,15.044-28.801,15.84-28.801z"/>
		</g>
		<g>
			<path fill="#231F20" d="M1.44-28.801c0.795,0,1.439-0.644,1.439-1.439c0-0.795-0.645-1.44-1.439-1.44
				C0.645-31.68,0-31.035,0-30.24C0-29.445,0.645-28.801,1.44-28.801z"/>
		</g>
	</g>
</pattern>
<g>
	<g opacity="0.5">
		<g>
			<g>
				<pattern  id="SVGID_1_" xlink:href="#_x31_0_dpi_20_x25_" patternTransform="matrix(1 0 0 1 -130.9093 0)">
				</pattern>
				<path fill="url(#SVGID_1_)" d="M18,314.162L18,314.162c0.002,17.265,13.999,31.259,31.263,31.259h557.981
					c17.266,0,31.263-13.997,31.263-31.263v0c0-17.266-13.997-31.263-31.263-31.263h-72.84c-17.266,0-31.263-13.997-31.263-31.263v0
					c0-17.266,13.997-31.263,31.263-31.263h10.115c17.266,0,31.263-13.997,31.263-31.263v0c0-17.266-13.997-31.263-31.263-31.263
					H91.279c-17.266,0-31.263,13.997-31.263,31.263v0c0,17.266,13.997,31.263,31.263,31.263h76.643
					c17.158,0,31.11,13.829,31.262,30.987v0c0.154,17.374-13.888,31.54-31.262,31.54H49.263
					C31.996,282.895,17.998,296.894,18,314.162z"/>
			</g>
		</g>
	</g>
	<g>
		<g>
			<g>
				<path fill="#D7DEE5" d="M0,296.162L0,296.162c0.002,17.265,13.999,31.259,31.263,31.259h557.981
					c17.266,0,31.263-13.997,31.263-31.263v0c0-17.266-13.997-31.263-31.263-31.263h-72.84c-17.266,0-31.263-13.997-31.263-31.263v0
					c0-17.266,13.997-31.263,31.263-31.263h10.115c17.266,0,31.263-13.997,31.263-31.263v0c0-17.266-13.997-31.263-31.263-31.263
					H73.279c-17.266,0-31.263,13.997-31.263,31.263v0c0,17.266,13.997,31.263,31.263,31.263h76.643
					c17.158,0,31.11,13.829,31.262,30.987v0c0.154,17.374-13.888,31.54-31.262,31.54H31.263C13.996,264.895-0.002,278.894,0,296.162
					z"/>
			</g>
		</g>
	</g>
	<g>
		<g>
			<path fill="#FFFFFF" d="M446.945,54.812H173.182c-5.5,0-10,4.5-10,10v20.566h293.763V64.812
				C456.945,59.312,452.445,54.812,446.945,54.812z"/>
			<path fill="none" stroke="#000000" stroke-width="5" stroke-linecap="round" stroke-linejoin="round" stroke-miterlimit="10" d="
				M446.945,54.812H173.182c-5.5,0-10,4.5-10,10v20.566h293.763V64.812C456.945,59.312,452.445,54.812,446.945,54.812z"/>
			<linearGradient id="SVGID_2_" gradientUnits="userSpaceOnUse" x1="428.1161" y1="82.0269" x2="206.1161" y2="266.0269">
				<stop  offset="0" style="stop-color:#1DA5C9"/>
				<stop  offset="1" style="stop-color:#1D85DB"/>
			</linearGradient>
			<path fill="url(#SVGID_2_)" d="M446.945,279.681H173.182c-5.5,0-10-4.5-10-10V85.378h293.763v184.304
				C456.945,275.181,452.445,279.681,446.945,279.681z"/>
			<path fill="none" stroke="#000000" stroke-width="5" stroke-linecap="round" stroke-linejoin="round" stroke-miterlimit="10" d="
				M446.945,279.681H173.182c-5.5,0-10-4.5-10-10V85.378h293.763v184.304C456.945,275.181,452.445,279.681,446.945,279.681z"/>
			<g>
				
					<path fill="none" stroke="#FFFFFF" stroke-width="5" stroke-linecap="round" stroke-linejoin="round" stroke-miterlimit="10" d="
					M180.1,265.474"/>
				
					<line fill="none" stroke="#FFFFFF" stroke-width="5" stroke-linecap="round" stroke-miterlimit="10" x1="183.472" y1="119.585" x2="235.495" y2="119.585"/>
				
					<line fill="none" stroke="#FFFFFF" stroke-width="5" stroke-linecap="round" stroke-miterlimit="10" x1="183.472" y1="141.306" x2="287.519" y2="141.306"/>
				
					<line fill="none" stroke="#FFFFFF" stroke-width="5" stroke-linecap="round" stroke-miterlimit="10" x1="183.472" y1="163.027" x2="269.903" y2="163.027"/>
				
					<line fill="none" stroke="#FFFFFF" stroke-width="5" stroke-linecap="round" stroke-miterlimit="10" x1="183.472" y1="184.749" x2="209.161" y2="184.749"/>
				
					<line fill="none" stroke="#FFFFFF" stroke-width="5" stroke-linecap="round" stroke-miterlimit="10" x1="183.472" y1="228.191" x2="330.84" y2="228.191"/>
				
					<line fill="none" stroke="#FFFFFF" stroke-width="5" stroke-linecap="round" stroke-miterlimit="10" x1="183.472" y1="249.912" x2="281.268" y2="249.912"/>
			</g>
			<circle cx="181.468" cy="70.095" r="4.711"/>
			<circle cx="197.988" cy="70.095" r="4.711"/>
			<circle cx="214.507" cy="70.095" r="4.711"/>
		</g>
		<g>
			<linearGradient id="SVGID_3_" gradientUnits="userSpaceOnUse" x1="330.8404" y1="201.5748" x2="383.8195" y2="201.5748">
				<stop  offset="0" style="stop-color:#EBCD1C"/>
				<stop  offset="1" style="stop-color:#EB901C"/>
			</linearGradient>
			
				<path fill="url(#SVGID_3_)" stroke="#000000" stroke-width="5" stroke-linecap="round" stroke-linejoin="round" stroke-miterlimit="10" d="
				M330.84,228.064l4.449-19.28c0.118-0.513,0.246-1.023,0.381-1.53c2.774-10.348,9.773-19.055,19.032-24.444l13.272-7.725
				l15.845,15.845l-7.725,13.272c-5.389,9.259-14.097,16.258-24.444,19.032c-0.507,0.136-1.017,0.263-1.53,0.381L330.84,228.064z"/>
			
				<path fill="#228BCA" stroke="#000000" stroke-width="5" stroke-linecap="round" stroke-linejoin="round" stroke-miterlimit="10" d="
				M383.819,190.93L513.155,70.237c3.611-3.611,3.611-9.519,0-13.13L501.797,45.75c-3.611-3.611-9.519-3.611-13.13,0
				L367.975,175.085L383.819,190.93z"/>
			
				<line fill="none" stroke="#FFFFFF" stroke-width="5" stroke-linecap="round" stroke-linejoin="round" stroke-miterlimit="10" x1="496.204" y1="64.063" x2="460.16" y2="100.107"/>
		</g>
		<linearGradient id="SVGID_4_" gradientUnits="userSpaceOnUse" x1="90.7911" y1="76.3191" x2="207.7911" y2="-60.6809">
			<stop  offset="0" style="stop-color:#EBCD1C"/>
			<stop  offset="1" style="stop-color:#EB901C"/>
		</linearGradient>
		<polygon fill="url(#SVGID_4_)" points="132.564,54.812 126.41,33.56 105.158,27.406 126.41,21.252 132.564,0 138.718,21.252 
			159.97,27.406 138.718,33.56 		"/>
		<linearGradient id="SVGID_5_" gradientUnits="userSpaceOnUse" x1="543.2686" y1="102.2114" x2="598.0804" y2="102.2114">
			<stop  offset="0" style="stop-color:#EBCD1C"/>
			<stop  offset="1" style="stop-color:#EB901C"/>
		</linearGradient>
		<polygon fill="url(#SVGID_5_)" points="570.674,129.617 564.521,108.365 543.269,102.211 564.521,96.057 570.674,74.805 
			576.828,96.057 598.08,102.211 576.828,108.365 		"/>
		
			<line fill="none" stroke="#FFFFFF" stroke-width="5" stroke-linecap="round" stroke-miterlimit="10" x1="439.919" y1="173.95" x2="439.919" y2="215.542"/>
		<circle fill="#FFFFFF" cx="439.919" cy="226.274" r="3.401"/>
	</g>
</g>
</svg>
