<svg xmlns="http://www.w3.org/2000/svg" xmlns:xlink="http://www.w3.org/1999/xlink" viewBox="0 0 291.47 175.79"><defs><style>.cls-1{fill:url(#linear-gradient);}.cls-2{fill:#fff;}.cls-3{fill:url(#linear-gradient-2);}.cls-4{fill:url(#linear-gradient-3);}.cls-5{fill:url(#linear-gradient-4);}</style><linearGradient id="linear-gradient" x1="137.87" y1="12.62" x2="145.21" y2="131.95" gradientUnits="userSpaceOnUse"><stop offset="0" stop-color="#1da5c9"/><stop offset="1" stop-color="#1d85db"/></linearGradient><linearGradient id="linear-gradient-2" x1="149.95" y1="42.91" x2="128.28" y2="114.08" gradientUnits="userSpaceOnUse"><stop offset="0" stop-color="#ebcd1c"/><stop offset="1" stop-color="#eb901c"/></linearGradient><linearGradient id="linear-gradient-3" x1="23.94" y1="1.02" x2="6.44" y2="46.52" xlink:href="#linear-gradient-2"/><linearGradient id="linear-gradient-4" x1="280.85" y1="114.56" x2="263.35" y2="160.06" xlink:href="#linear-gradient-2"/></defs><title>Asset 8</title><g id="Layer_2" data-name="Layer 2"><g id="Layer_1-2" data-name="Layer 1"><path class="cls-1" d="M222.16,21.59H61a4.92,4.92,0,0,0-4.9,4.91v92.78h171V26.5A4.92,4.92,0,0,0,222.16,21.59Z"/><path d="M229.06,121.28h-175V26.49a6.91,6.91,0,0,1,6.9-6.9H222.16a6.91,6.91,0,0,1,6.9,6.9Zm-171-4h167V26.49a2.91,2.91,0,0,0-2.9-2.9H61a2.91,2.91,0,0,0-2.9,2.9Z"/><path class="cls-2" d="M220.69,142.5H62.45a6.39,6.39,0,0,1-6.37-6.38V115.05h171v21.07A6.39,6.39,0,0,1,220.69,142.5Z"/><path d="M220.69,144.5H62.45a8.38,8.38,0,0,1-8.37-8.38V113.05h175v23.07A8.38,8.38,0,0,1,220.69,144.5ZM58.08,117.05v19.07a4.38,4.38,0,0,0,4.37,4.38H220.69a4.38,4.38,0,0,0,4.37-4.38V117.05Z"/><rect class="cls-2" x="118.6" y="142.5" width="43.93" height="31.29"/><path d="M164.53,175.79H116.6V140.5h47.93Zm-43.93-4h39.93V144.5H120.6Z"/><path d="M178.51,175.79H102.63a2,2,0,1,1,0-4h75.88a2,2,0,0,1,0,4Z"/><path class="cls-2" d="M76.74,99a2,2,0,0,1-1.34-3.49l19-17a2,2,0,0,1,2.72,0l10.93,10.48,34.87-30.54a2,2,0,0,1,2.73.09l10.18,10.18L181.92,46a2,2,0,0,1,2.55-.07L193,52.55l12-9.83a2,2,0,1,1,2.53,3.09L194.25,56.65a2,2,0,0,1-2.49,0l-8.45-6.57L157.05,73a2,2,0,0,1-2.73-.09L144.15,62.75,109.3,93.27a2,2,0,0,1-2.7-.06L95.69,82.74,78.07,98.51A2,2,0,0,1,76.74,99Z"/><circle class="cls-3" cx="141.57" cy="70.44" r="29.8"/><path d="M141.57,102.24a31.8,31.8,0,1,1,31.8-31.8A31.84,31.84,0,0,1,141.57,102.24Zm0-59.6a27.8,27.8,0,1,0,27.8,27.8A27.83,27.83,0,0,0,141.57,42.64Z"/><path d="M130.58,82.13l3.45-5.4c2.52,1.86,4.47,2.61,6.43,2.61,2.33,0,3.26-.8,3.26-2.61,0-3.73-12-4.24-12-12.4,0-5.68,3.87-9.22,10.16-9.22a12.1,12.1,0,0,1,9.27,4.1l-4,4.56c-1.68-1.49-3.12-2.23-4.84-2.23-2,0-3,.56-3,2.42,0,3.54,12,3.73,12,12.21,0,5.5-3.55,9.6-10.91,9.6A16,16,0,0,1,130.58,82.13Zm8.3-31.59h5.22v7h-5.22Zm0,31.87h5.22v7.92h-5.22Z"/><path class="cls-2" d="M76.76,30.68H68.94a2,2,0,0,1,0-4h7.82a2,2,0,0,1,0,4Z"/><path class="cls-2" d="M81.85,30.68a2,2,0,0,1-2-2,2.2,2.2,0,0,1,.15-.77,1.83,1.83,0,0,1,.18-.34,2.6,2.6,0,0,1,.25-.31,2,2,0,0,1,1.81-.54,1.58,1.58,0,0,1,.37.11A2.31,2.31,0,0,1,83,27a2.48,2.48,0,0,1,.3.25,1.89,1.89,0,0,1,.25.31,1.83,1.83,0,0,1,.18.34,2.4,2.4,0,0,1,.12.38,2.45,2.45,0,0,1,0,.39,2,2,0,0,1-2,2Z"/><polygon class="cls-4" points="17.57 35.14 13.63 21.52 0 17.57 13.63 13.63 17.57 0 21.52 13.63 35.14 17.57 21.52 21.52 17.57 35.14"/><polygon class="cls-5" points="273.9 150.19 269.96 136.57 256.33 132.62 269.96 128.68 273.9 115.05 277.85 128.68 291.48 132.62 277.85 136.57 273.9 150.19"/></g></g></svg>