<svg xmlns="http://www.w3.org/2000/svg" xmlns:xlink="http://www.w3.org/1999/xlink" viewBox="0 0 158.91 159.87"><defs><style>.cls-1{fill:url(#linear-gradient);}.cls-2{fill:#226399;}.cls-3{fill:#fff;}.cls-4{fill:url(#linear-gradient-2);}.cls-5{fill:url(#linear-gradient-3);}</style><linearGradient id="linear-gradient" x1="25.37" y1="20.1" x2="135.37" y2="140.77" gradientTransform="translate(191.8 79.41) rotate(135)" gradientUnits="userSpaceOnUse"><stop offset="0" stop-color="#1da5c9"/><stop offset="1" stop-color="#1d85db"/></linearGradient><linearGradient id="linear-gradient-2" x1="100.01" y1="33.42" x2="155.1" y2="33.42" gradientTransform="translate(12.92 98.58) rotate(-44.3)" gradientUnits="userSpaceOnUse"><stop offset="0" stop-color="#ed467b"/><stop offset="1" stop-color="#ff776f"/></linearGradient><linearGradient id="linear-gradient-3" x1="20.32" y1="81.95" x2="140.09" y2="81.95" gradientTransform="translate(-34.43 79.31) rotate(-44.3)" gradientUnits="userSpaceOnUse"><stop offset="0" stop-color="#ebcd1c"/><stop offset="1" stop-color="#eb901c"/></linearGradient></defs><title>Asset 6</title><g id="Layer_2" data-name="Layer 2"><g id="Layer_1-2" data-name="Layer 1"><rect class="cls-1" x="-9.6" y="58.94" width="178.1" height="40.97" transform="translate(79.47 191.78) rotate(-135)"/><path class="cls-2" d="M89.14,116.12a2,2,0,0,1-1.41-3.42L98.2,102.23a2,2,0,0,1,2.83,2.83L90.56,115.53A2,2,0,0,1,89.14,116.12Z"/><path class="cls-2" d="M74.82,101.79a2,2,0,0,1-1.42-3.41L91,80.77a2,2,0,0,1,2.82,2.83L76.23,101.21A2,2,0,0,1,74.82,101.79Z"/><path class="cls-2" d="M117.79,144.76a2,2,0,0,1-1.41-3.41l10.47-10.47a2,2,0,0,1,2.82,2.83L119.2,144.18A2,2,0,0,1,117.79,144.76Z"/><path class="cls-2" d="M103.47,130.44a2,2,0,0,1-1.42-3.42l17.61-17.61a2,2,0,0,1,2.83,2.83l-17.61,17.61A2,2,0,0,1,103.47,130.44Z"/><path class="cls-2" d="M60.5,87.47a2,2,0,0,1-1.42-3.42L69.55,73.58a2,2,0,0,1,2.83,2.83L61.91,86.88A2,2,0,0,1,60.5,87.47Z"/><path class="cls-2" d="M46.17,73.14a2,2,0,0,1-1.41-.58,2,2,0,0,1,0-2.83L62.37,52.12A2,2,0,0,1,65.2,55L47.59,72.56A2,2,0,0,1,46.17,73.14Z"/><path class="cls-2" d="M17.52,44.5a2,2,0,0,1-1.41-3.42L33.72,23.47a2,2,0,1,1,2.83,2.83L18.94,43.91A2,2,0,0,1,17.52,44.5Z"/><path class="cls-2" d="M31.85,58.82a2,2,0,0,1-1.42-3.41L40.91,44.94a2,2,0,0,1,2.82,2.82L33.26,58.23A2,2,0,0,1,31.85,58.82Z"/><path d="M127.93,158.88a2,2,0,0,1-1.41-.58L.59,32.36a2,2,0,0,1,0-2.83l29-29a2.06,2.06,0,0,1,2.83,0L158.32,126.5a2,2,0,0,1,0,2.83l-29,29A2,2,0,0,1,127.93,158.88ZM4.83,31l123.1,123.1,26.15-26.14L31,4.8Z"/><polygon class="cls-3" points="6.13 157.87 15.2 123.81 20.89 117.98 45.64 142.14 39.96 147.96 6.13 157.87"/><path d="M6.13,159.87a2,2,0,0,1-1.93-2.52l9.07-34a2,2,0,0,1,.5-.89l5.69-5.82a2,2,0,0,1,2.82,0L47,140.71a2,2,0,0,1,0,2.82l-5.68,5.83a2.09,2.09,0,0,1-.87.52L6.69,159.79A2.1,2.1,0,0,1,6.13,159.87Zm10.87-35L9,155l29.91-8.76,3.92-4L20.92,120.81Z"/><rect class="cls-4" x="110.26" y="5.76" width="34.58" height="55.33" rx="10" ry="10" transform="translate(59.6 -79.58) rotate(44.3)"/><path d="M120.44,63.15a12,12,0,0,1-8.38-3.4L101.62,49.56a12,12,0,0,1-.21-17L126.08,7.31a12,12,0,0,1,17-.21l10.44,10.18a12,12,0,0,1,.21,17L129,59.54A11.91,11.91,0,0,1,120.44,63.15ZM134.67,7.69A8,8,0,0,0,129,10.1L104.27,35.39a8,8,0,0,0,.14,11.31l10.44,10.18a7.92,7.92,0,0,0,5.58,2.27h.1a8,8,0,0,0,5.63-2.4l24.68-25.29a8,8,0,0,0-.14-11.32L140.26,10A8,8,0,0,0,134.67,7.69Z"/><rect class="cls-5" x="62.92" y="13.92" width="34.58" height="136.06" transform="translate(80.03 -32.72) rotate(44.3)"/><path d="M45.07,144.72a2,2,0,0,1-1.39-.57L18.92,120a2,2,0,0,1,0-2.83l95-97.38a2,2,0,0,1,1.4-.61,2,2,0,0,1,1.43.57L141.49,43.9a2,2,0,0,1,0,2.83l-95,97.38a2,2,0,0,1-1.41.61ZM23.15,118.53,45,139.89l92.22-94.52L115.37,24Z"/><path class="cls-3" d="M81,72.68a2,2,0,0,1-1.39-.56,2,2,0,0,1,0-2.83L106,41.9a2,2,0,1,1,2.88,2.78L82.47,72.07A2,2,0,0,1,81,72.68Z"/><circle class="cls-3" cx="112.49" cy="38.11" r="1.99"/></g></g></svg>