<?xml version="1.0" encoding="utf-8"?>
<!-- Generator: Adobe Illustrator 17.0.0, SVG Export Plug-In . SVG Version: 6.00 Build 0)  -->
<!DOCTYPE svg PUBLIC "-//W3C//DTD SVG 1.1//EN" "http://www.w3.org/Graphics/SVG/1.1/DTD/svg11.dtd">
<svg version="1.1" id="Layer_1" xmlns="http://www.w3.org/2000/svg" xmlns:xlink="http://www.w3.org/1999/xlink" x="0px" y="0px"
	 width="543.877px" height="383.722px" viewBox="0 0 543.877 383.722" enable-background="new 0 0 543.877 383.722"
	 xml:space="preserve">
<pattern  x="-209.642" y="-89.074" width="28.8" height="28.801" patternUnits="userSpaceOnUse" id="_x31_0_dpi_20_x25_" viewBox="1.44 -30.24 28.8 28.801" overflow="visible">
	<g>
		<polygon fill="none" points="1.44,-30.24 30.24,-30.24 30.24,-1.439 1.44,-1.439 		"/>
		<g>
			<path fill="#231F20" d="M30.24,0c0.795,0,1.44-0.645,1.44-1.439c0-0.795-0.645-1.439-1.44-1.439c-0.796,0-1.44,0.645-1.44,1.439
				C28.8-0.645,29.444,0,30.24,0z"/>
			<path fill="#231F20" d="M15.84,0c0.795,0,1.441-0.645,1.441-1.439c0-0.795-0.646-1.439-1.441-1.439
				c-0.796,0-1.439,0.645-1.439,1.439C14.4-0.645,15.044,0,15.84,0z"/>
			<path fill="#231F20" d="M30.24-14.398c0.795,0,1.44-0.646,1.44-1.441c0-0.795-0.645-1.44-1.44-1.44
				c-0.796,0-1.44,0.645-1.44,1.44C28.8-15.045,29.444-14.398,30.24-14.398z"/>
			<path fill="#231F20" d="M15.84-14.398c0.795,0,1.441-0.646,1.441-1.441c0-0.795-0.646-1.44-1.441-1.44
				c-0.796,0-1.439,0.645-1.439,1.44C14.4-15.045,15.044-14.398,15.84-14.398z"/>
			<path fill="#231F20" d="M8.64-7.199c0.795,0,1.44-0.645,1.44-1.439c0-0.797-0.646-1.441-1.44-1.441
				C7.844-10.08,7.2-9.436,7.2-8.639C7.2-7.844,7.844-7.199,8.64-7.199z"/>
			<path fill="#231F20" d="M23.04-7.199c0.795,0,1.44-0.645,1.44-1.439c0-0.797-0.646-1.441-1.44-1.441
				c-0.796,0-1.44,0.645-1.44,1.441C21.6-7.844,22.244-7.199,23.04-7.199z"/>
			<path fill="#231F20" d="M8.64-21.6c0.795,0,1.44-0.645,1.44-1.44c0-0.797-0.646-1.441-1.44-1.441
				c-0.796,0-1.439,0.645-1.439,1.441C7.2-22.244,7.844-21.6,8.64-21.6z"/>
			<path fill="#231F20" d="M23.04-21.6c0.795,0,1.44-0.645,1.44-1.44c0-0.797-0.646-1.441-1.44-1.441
				c-0.796,0-1.44,0.645-1.44,1.441C21.6-22.244,22.244-21.6,23.04-21.6z"/>
		</g>
		<g>
			<path fill="#231F20" d="M1.44,0C2.235,0,2.88-0.645,2.88-1.439c0-0.795-0.645-1.439-1.439-1.439C0.645-2.879,0-2.234,0-1.439
				C0-0.645,0.645,0,1.44,0z"/>
			<path fill="#231F20" d="M1.44-14.398c0.795,0,1.439-0.646,1.439-1.441c0-0.795-0.645-1.44-1.439-1.44
				c-0.796,0-1.44,0.645-1.44,1.44C0-15.045,0.645-14.398,1.44-14.398z"/>
		</g>
		<g>
			<path fill="#231F20" d="M30.24-28.801c0.795,0,1.44-0.644,1.44-1.439c0-0.795-0.645-1.44-1.44-1.44
				c-0.796,0-1.44,0.645-1.44,1.44C28.8-29.445,29.444-28.801,30.24-28.801z"/>
			<path fill="#231F20" d="M15.84-28.801c0.795,0,1.441-0.644,1.441-1.439c0-0.795-0.646-1.44-1.441-1.44
				c-0.796,0-1.439,0.645-1.439,1.44C14.4-29.445,15.044-28.801,15.84-28.801z"/>
		</g>
		<g>
			<path fill="#231F20" d="M1.44-28.801c0.795,0,1.439-0.644,1.439-1.439c0-0.795-0.645-1.44-1.439-1.44
				C0.645-31.68,0-31.035,0-30.24C0-29.445,0.645-28.801,1.44-28.801z"/>
		</g>
	</g>
</pattern>
<g opacity="0.5">
	<g>
		<g>
			<pattern  id="SVGID_1_" xlink:href="#_x31_0_dpi_20_x25_" patternTransform="matrix(1 0 0 1 -130.9093 0)">
			</pattern>
			<path fill="url(#SVGID_1_)" d="M54.358,356.547L54.358,356.547c0.002,15.009,12.17,27.176,27.179,27.176h321.492
				c15.011,0,27.179-12.168,27.179-27.179v0c0-15.011-12.168-27.179-27.179-27.179h-54.236c-15.011,0-27.179-12.169-27.179-27.179v0
				c0-15.011,12.169-27.179,27.179-27.179h54.236c15.011,0,27.179-12.169,27.179-27.179v0c0-15.011-12.168-27.179-27.179-27.179
				H27.179C12.168,220.647,0,232.816,0,247.827v0c0,15.011,12.169,27.179,27.179,27.179h102.984
				c14.917,0,27.046,12.022,27.178,26.938v0c0.134,15.104-12.073,27.42-27.178,27.42H81.537
				C66.525,329.364,54.356,341.535,54.358,356.547z"/>
		</g>
	</g>
</g>
<g>
	<g>
		<g>
			<path fill="#D7DEE5" d="M72.358,338.547L72.358,338.547c0.002,15.009,12.17,27.176,27.179,27.176h321.492
				c15.011,0,27.179-12.168,27.179-27.179v0c0-15.011-12.168-27.179-27.179-27.179h-54.236c-15.011,0-27.179-12.169-27.179-27.179v0
				c0-15.011,12.169-27.179,27.179-27.179h54.236c15.011,0,27.179-12.169,27.179-27.179v0c0-15.011-12.168-27.179-27.179-27.179
				H45.179C30.168,202.647,18,214.816,18,229.827v0c0,15.011,12.169,27.179,27.179,27.179h102.984
				c14.917,0,27.046,12.022,27.178,26.938v0c0.134,15.104-12.073,27.42-27.178,27.42H99.537
				C84.525,311.364,72.356,323.535,72.358,338.547z"/>
		</g>
	</g>
</g>
<rect x="123.737" y="187.192" fill="#FFFFFF" stroke="#000000" stroke-width="5" stroke-linecap="round" stroke-linejoin="round" stroke-miterlimit="10" width="52.679" height="80.224"/>
<linearGradient id="SVGID_2_" gradientUnits="userSpaceOnUse" x1="176.4162" y1="201.1868" x2="229.0951" y2="201.1868">
	<stop  offset="0" style="stop-color:#1DA5C9"/>
	<stop  offset="1" style="stop-color:#1D85DB"/>
</linearGradient>
<rect x="176.416" y="134.958" fill="url(#SVGID_2_)" stroke="#000000" stroke-width="5" stroke-miterlimit="10" width="52.679" height="132.458"/>
<rect x="229.095" y="107.043" fill="#FFFFFF" stroke="#000000" stroke-width="5" stroke-linecap="round" stroke-linejoin="round" stroke-miterlimit="10" width="52.679" height="160.373"/>
<linearGradient id="SVGID_3_" gradientUnits="userSpaceOnUse" x1="281.774" y1="164.2298" x2="334.4528" y2="164.2298">
	<stop  offset="0" style="stop-color:#1DA5C9"/>
	<stop  offset="1" style="stop-color:#1D85DB"/>
</linearGradient>
<rect x="281.774" y="61.044" fill="url(#SVGID_3_)" stroke="#000000" stroke-width="5" stroke-miterlimit="10" width="52.679" height="206.372"/>
<rect x="334.453" y="2.5" fill="#FFFFFF" stroke="#000000" stroke-width="5" stroke-linecap="round" stroke-linejoin="round" stroke-miterlimit="10" width="52.679" height="264.916"/>
<path fill="#228BCA" stroke="#000000" stroke-width="5" stroke-linecap="round" stroke-linejoin="round" stroke-miterlimit="10" d="
	M296.878,260.85"/>
<g>
	<path fill="#228BCA" d="M338.937,347.074l-5.588,1.423c-10.18,2.592-20.629-3.616-23.221-13.795l-7.868-30.899
		c-2.592-10.18,3.616-20.629,13.795-23.221l5.588-1.423c10.18-2.592,20.629,3.616,23.221,13.795l7.868,30.899
		C355.325,334.032,349.117,344.482,338.937,347.074z"/>
	<linearGradient id="SVGID_4_" gradientUnits="userSpaceOnUse" x1="301.671" y1="313.8274" x2="353.3217" y2="313.8274">
		<stop  offset="0" style="stop-color:#1DA5C9"/>
		<stop  offset="1" style="stop-color:#1D85DB"/>
	</linearGradient>
	<path fill="url(#SVGID_4_)" stroke="#000000" stroke-width="5" stroke-miterlimit="10" d="M338.937,347.074l-5.588,1.423
		c-10.18,2.592-20.629-3.616-23.221-13.795l-7.868-30.899c-2.592-10.18,3.616-20.629,13.795-23.221l5.588-1.423
		c10.18-2.592,20.629,3.616,23.221,13.795l7.868,30.899C355.325,334.032,349.117,344.482,338.937,347.074z"/>
	
		<path fill="#228BCA" stroke="#000000" stroke-width="5" stroke-linecap="round" stroke-linejoin="round" stroke-miterlimit="10" d="
		M322.045,335.717"/>
	<path fill="none" stroke="#FFFFFF" stroke-width="5" stroke-linecap="round" stroke-miterlimit="10" d="M339.995,328.902
		c-1.407,2.369-3.717,4.202-6.592,4.935c-1.523,0.388-3.075,0.436-4.612,0.144c-2.061-0.392-3.922-1.365-5.397-2.743"/>
	
		<circle fill="#FFFFFF" stroke="#000000" stroke-width="5" stroke-linecap="round" stroke-linejoin="round" stroke-miterlimit="10" cx="283.114" cy="283.125" r="23.189"/>
	<linearGradient id="SVGID_5_" gradientUnits="userSpaceOnUse" x1="278.8077" y1="270.5174" x2="359.3242" y2="270.5174">
		<stop  offset="0" style="stop-color:#EBCD1C"/>
		<stop  offset="1" style="stop-color:#EB901C"/>
	</linearGradient>
	
		<path fill="url(#SVGID_5_)" stroke="#000000" stroke-width="5" stroke-linecap="round" stroke-linejoin="round" stroke-miterlimit="10" d="
		M359.324,296.848l-49.285,12.55c-10.281,2.618-20.737-3.594-23.355-13.875l-7.278-28.58c-2.618-10.281,3.594-20.737,13.875-23.355
		l49.285-12.55L359.324,296.848z"/>
	<linearGradient id="SVGID_6_" gradientUnits="userSpaceOnUse" x1="341.8506" y1="238.5208" x2="471.422" y2="238.5208">
		<stop  offset="0" style="stop-color:#1DA5C9"/>
		<stop  offset="1" style="stop-color:#1D85DB"/>
	</linearGradient>
	<polygon fill="url(#SVGID_6_)" stroke="#000000" stroke-width="5" stroke-miterlimit="10" points="471.422,319.58 358.609,297.03 
		341.851,231.22 430.14,157.462 	"/>
	
		<polygon fill="none" stroke="#000000" stroke-width="5" stroke-linecap="round" stroke-linejoin="round" stroke-miterlimit="10" points="
		471.422,319.58 358.609,297.03 341.851,231.22 430.14,157.462 	"/>
	
		<line fill="none" stroke="#FFFFFF" stroke-width="5" stroke-linecap="round" stroke-miterlimit="10" x1="331.316" y1="245.963" x2="301.195" y2="254.192"/>
	
		<line fill="none" stroke="#FFFFFF" stroke-width="5" stroke-linecap="round" stroke-miterlimit="10" x1="367.223" y1="231.991" x2="408.548" y2="197.295"/>
	
		<line fill="none" stroke="#FFFFFF" stroke-width="5" stroke-linecap="round" stroke-miterlimit="10" x1="417.496" y1="189.951" x2="417.496" y2="189.951"/>
	
		<line fill="none" stroke="#000000" stroke-width="5" stroke-linecap="round" stroke-linejoin="round" stroke-miterlimit="10" x1="477.303" y1="226.833" x2="541.377" y2="209.339"/>
	
		<line fill="none" stroke="#000000" stroke-width="5" stroke-linecap="round" stroke-linejoin="round" stroke-miterlimit="10" x1="464.432" y1="199.444" x2="489.278" y2="173.794"/>
	
		<line fill="none" stroke="#000000" stroke-width="5" stroke-linecap="round" stroke-linejoin="round" stroke-miterlimit="10" x1="480.871" y1="257.4" x2="515.484" y2="266.186"/>
</g>
<line fill="none" stroke="#FFFFFF" stroke-width="5" stroke-linecap="round" stroke-miterlimit="10" x1="321.208" y1="81.897" x2="321.208" y2="109.6"/>
<line fill="none" stroke="#FFFFFF" stroke-width="5" stroke-linecap="round" stroke-miterlimit="10" x1="321.208" y1="120.839" x2="321.208" y2="120.839"/>
<line fill="none" stroke="#FFFFFF" stroke-width="5" stroke-linecap="round" stroke-miterlimit="10" x1="214.637" y1="199.6" x2="214.637" y2="227.304"/>
</svg>
