<?xml version="1.0" encoding="utf-8"?>
<!-- Generator: Adobe Illustrator 17.0.0, SVG Export Plug-In . SVG Version: 6.00 Build 0)  -->
<!DOCTYPE svg PUBLIC "-//W3C//DTD SVG 1.1//EN" "http://www.w3.org/Graphics/SVG/1.1/DTD/svg11.dtd">
<svg version="1.1" id="Layer_1" xmlns="http://www.w3.org/2000/svg" xmlns:xlink="http://www.w3.org/1999/xlink" x="0px" y="0px"
	 width="308.961px" height="208.238px" viewBox="0 0 308.961 208.238" enable-background="new 0 0 308.961 208.238"
	 xml:space="preserve">
<pattern  x="-328.682" y="-221.45" width="28.8" height="28.801" patternUnits="userSpaceOnUse" id="_x31_0_dpi_20_x25_" viewBox="1.44 -30.24 28.8 28.801" overflow="visible">
	<g>
		<polygon fill="none" points="1.44,-30.24 30.24,-30.24 30.24,-1.439 1.44,-1.439 		"/>
		<g>
			<path fill="#231F20" d="M30.24,0c0.795,0,1.44-0.645,1.44-1.439c0-0.795-0.645-1.439-1.44-1.439c-0.796,0-1.44,0.645-1.44,1.439
				C28.8-0.645,29.444,0,30.24,0z"/>
			<path fill="#231F20" d="M15.84,0c0.795,0,1.441-0.645,1.441-1.439c0-0.795-0.646-1.439-1.441-1.439
				c-0.796,0-1.439,0.645-1.439,1.439C14.4-0.645,15.044,0,15.84,0z"/>
			<path fill="#231F20" d="M30.24-14.398c0.795,0,1.44-0.646,1.44-1.441c0-0.795-0.645-1.44-1.44-1.44
				c-0.796,0-1.44,0.645-1.44,1.44C28.8-15.045,29.444-14.398,30.24-14.398z"/>
			<path fill="#231F20" d="M15.84-14.398c0.795,0,1.441-0.646,1.441-1.441c0-0.795-0.646-1.44-1.441-1.44
				c-0.796,0-1.439,0.645-1.439,1.44C14.4-15.045,15.044-14.398,15.84-14.398z"/>
			<path fill="#231F20" d="M8.64-7.199c0.795,0,1.44-0.645,1.44-1.439c0-0.797-0.646-1.441-1.44-1.441
				C7.844-10.08,7.2-9.436,7.2-8.639C7.2-7.844,7.844-7.199,8.64-7.199z"/>
			<path fill="#231F20" d="M23.04-7.199c0.795,0,1.44-0.645,1.44-1.439c0-0.797-0.646-1.441-1.44-1.441
				c-0.796,0-1.44,0.645-1.44,1.441C21.6-7.844,22.244-7.199,23.04-7.199z"/>
			<path fill="#231F20" d="M8.64-21.6c0.795,0,1.44-0.645,1.44-1.44c0-0.797-0.646-1.441-1.44-1.441
				c-0.796,0-1.439,0.645-1.439,1.441C7.2-22.244,7.844-21.6,8.64-21.6z"/>
			<path fill="#231F20" d="M23.04-21.6c0.795,0,1.44-0.645,1.44-1.44c0-0.797-0.646-1.441-1.44-1.441
				c-0.796,0-1.44,0.645-1.44,1.441C21.6-22.244,22.244-21.6,23.04-21.6z"/>
		</g>
		<g>
			<path fill="#231F20" d="M1.44,0C2.235,0,2.88-0.645,2.88-1.439c0-0.795-0.645-1.439-1.439-1.439C0.645-2.879,0-2.234,0-1.439
				C0-0.645,0.645,0,1.44,0z"/>
			<path fill="#231F20" d="M1.44-14.398c0.795,0,1.439-0.646,1.439-1.441c0-0.795-0.645-1.44-1.439-1.44
				c-0.796,0-1.44,0.645-1.44,1.44C0-15.045,0.645-14.398,1.44-14.398z"/>
		</g>
		<g>
			<path fill="#231F20" d="M30.24-28.801c0.795,0,1.44-0.644,1.44-1.439c0-0.795-0.645-1.44-1.44-1.44
				c-0.796,0-1.44,0.645-1.44,1.44C28.8-29.445,29.444-28.801,30.24-28.801z"/>
			<path fill="#231F20" d="M15.84-28.801c0.795,0,1.441-0.644,1.441-1.439c0-0.795-0.646-1.44-1.441-1.44
				c-0.796,0-1.439,0.645-1.439,1.44C14.4-29.445,15.044-28.801,15.84-28.801z"/>
		</g>
		<g>
			<path fill="#231F20" d="M1.44-28.801c0.795,0,1.439-0.644,1.439-1.439c0-0.795-0.645-1.44-1.439-1.44
				C0.645-31.68,0-31.035,0-30.24C0-29.445,0.645-28.801,1.44-28.801z"/>
		</g>
	</g>
</pattern>
<g>
	<g opacity="0.5">
		<g>
			<g>
				<path fill="url(#_x31_0_dpi_20_x25_)" d="M0,147.666L0,147.666c0.001,9.709,7.873,17.58,17.582,17.58l273.797,0
					c9.71,0,17.582-7.872,17.582-17.582v0c0-9.71-7.872-17.582-17.582-17.582h-40.964c-9.71,0-17.582-7.872-17.582-17.582v0
					c0-9.71,7.872-17.582,17.582-17.582h5.688c9.71,0,17.582-7.872,17.582-17.582v0c0-9.71-7.872-17.582-17.582-17.582H41.211
					c-9.71,0-17.582,7.872-17.582,17.582v0c0,9.71,7.872,17.582,17.582,17.582h43.102c9.649,0,17.496,7.777,17.581,17.426v0
					c0.087,9.771-7.81,17.738-17.581,17.738H17.582C7.871,130.082-0.001,137.955,0,147.666z"/>
			</g>
		</g>
	</g>
	<g>
		<g>
			<g>
				<path fill="#D7DEE5" d="M0,137.666L0,137.666c0.001,9.709,7.873,17.58,17.582,17.58l273.797,0
					c9.71,0,17.582-7.872,17.582-17.582v0c0-9.71-7.872-17.582-17.582-17.582h-40.964c-9.71,0-17.582-7.872-17.582-17.582v0
					c0-9.71,7.872-17.582,17.582-17.582h5.688c9.71,0,17.582-7.872,17.582-17.582v0c0-9.71-7.872-17.582-17.582-17.582H41.211
					c-9.71,0-17.582,7.872-17.582,17.582v0c0,9.71,7.872,17.582,17.582,17.582h43.102c9.649,0,17.496,7.777,17.581,17.426v0
					c0.087,9.771-7.81,17.738-17.581,17.738H17.582C7.871,120.082-0.001,127.955,0,137.666z"/>
			</g>
		</g>
	</g>
	<g>
		<linearGradient id="SVGID_1_" gradientUnits="userSpaceOnUse" x1="72.6658" y1="154.7752" x2="149.1463" y2="154.7752">
			<stop  offset="0" style="stop-color:#ED467B"/>
			<stop  offset="1" style="stop-color:#EC7E7A"/>
		</linearGradient>
		<polygon fill="url(#SVGID_1_)" stroke="#000000" stroke-width="5" stroke-miterlimit="10" points="104.065,107.05 72.666,182.195 
			101.29,175.766 115.305,202.5 149.146,126.358 		"/>
		<linearGradient id="SVGID_2_" gradientUnits="userSpaceOnUse" x1="158.1224" y1="155.2276" x2="236.2952" y2="155.2276">
			<stop  offset="0" style="stop-color:#ED467B"/>
			<stop  offset="1" style="stop-color:#EC7E7A"/>
		</linearGradient>
		<polygon fill="url(#SVGID_2_)" stroke="#000000" stroke-width="5" stroke-miterlimit="10" points="158.122,128.511 
			192.584,202.302 207.088,176.8 236.295,184.421 202.739,108.153 		"/>
		<linearGradient id="SVGID_3_" gradientUnits="userSpaceOnUse" x1="88.571" y1="67.3054" x2="218.1819" y2="67.3054">
			<stop  offset="0" style="stop-color:#1DA5C9"/>
			<stop  offset="1" style="stop-color:#1D85DB"/>
		</linearGradient>
		<circle fill="url(#SVGID_3_)" stroke="#000000" stroke-width="5" stroke-miterlimit="10" cx="153.376" cy="67.305" r="64.805"/>
		<path fill="none" stroke="#000000" stroke-width="4" stroke-linecap="round" stroke-miterlimit="10" d="M193.338,94.002
			c-8.621,12.878-23.301,21.357-39.962,21.357c-26.54,0-48.054-21.515-48.054-48.054s21.515-48.054,48.054-48.054
			s48.054,21.515,48.054,48.054c0,3.835-0.449,7.565-1.298,11.14"/>
		<linearGradient id="SVGID_4_" gradientUnits="userSpaceOnUse" x1="124.7808" y1="64.5981" x2="181.972" y2="64.5981">
			<stop  offset="0" style="stop-color:#EBCD1C"/>
			<stop  offset="1" style="stop-color:#EB901C"/>
		</linearGradient>
		
			<polygon fill="url(#SVGID_4_)" stroke="#000000" stroke-width="5" stroke-linecap="round" stroke-linejoin="round" stroke-miterlimit="10" points="
			153.376,37.402 162.213,55.307 181.972,58.178 167.674,72.115 171.049,91.794 153.376,82.503 135.703,91.794 139.079,72.115 
			124.781,58.178 144.54,55.307 		"/>
	</g>
</g>
</svg>
