<?xml version="1.0" encoding="utf-8"?>
<!-- Generator: Adobe Illustrator 17.0.0, SVG Export Plug-In . SVG Version: 6.00 Build 0)  -->
<!DOCTYPE svg PUBLIC "-//W3C//DTD SVG 1.1//EN" "http://www.w3.org/Graphics/SVG/1.1/DTD/svg11.dtd">
<svg version="1.1" id="Layer_1" xmlns="http://www.w3.org/2000/svg" xmlns:xlink="http://www.w3.org/1999/xlink" x="0px" y="0px"
	 width="318.961px" height="200.501px" viewBox="0 0 318.961 200.501" enable-background="new 0 0 318.961 200.501"
	 xml:space="preserve">
<pattern  x="-323.682" y="-223.699" width="28.8" height="28.801" patternUnits="userSpaceOnUse" id="_x31_0_dpi_20_x25_" viewBox="1.44 -30.24 28.8 28.801" overflow="visible">
	<g>
		<polygon fill="none" points="1.44,-30.24 30.24,-30.24 30.24,-1.439 1.44,-1.439 		"/>
		<g>
			<path fill="#231F20" d="M30.24,0c0.795,0,1.44-0.645,1.44-1.439c0-0.795-0.645-1.439-1.44-1.439c-0.796,0-1.44,0.645-1.44,1.439
				C28.8-0.645,29.444,0,30.24,0z"/>
			<path fill="#231F20" d="M15.84,0c0.795,0,1.441-0.645,1.441-1.439c0-0.795-0.646-1.439-1.441-1.439
				c-0.796,0-1.439,0.645-1.439,1.439C14.4-0.645,15.044,0,15.84,0z"/>
			<path fill="#231F20" d="M30.24-14.398c0.795,0,1.44-0.646,1.44-1.441c0-0.795-0.645-1.44-1.44-1.44
				c-0.796,0-1.44,0.645-1.44,1.44C28.8-15.045,29.444-14.398,30.24-14.398z"/>
			<path fill="#231F20" d="M15.84-14.398c0.795,0,1.441-0.646,1.441-1.441c0-0.795-0.646-1.44-1.441-1.44
				c-0.796,0-1.439,0.645-1.439,1.44C14.4-15.045,15.044-14.398,15.84-14.398z"/>
			<path fill="#231F20" d="M8.64-7.199c0.795,0,1.44-0.645,1.44-1.439c0-0.797-0.646-1.441-1.44-1.441
				C7.844-10.08,7.2-9.436,7.2-8.639C7.2-7.844,7.844-7.199,8.64-7.199z"/>
			<path fill="#231F20" d="M23.04-7.199c0.795,0,1.44-0.645,1.44-1.439c0-0.797-0.646-1.441-1.44-1.441
				c-0.796,0-1.44,0.645-1.44,1.441C21.6-7.844,22.244-7.199,23.04-7.199z"/>
			<path fill="#231F20" d="M8.64-21.6c0.795,0,1.44-0.645,1.44-1.44c0-0.797-0.646-1.441-1.44-1.441
				c-0.796,0-1.439,0.645-1.439,1.441C7.2-22.244,7.844-21.6,8.64-21.6z"/>
			<path fill="#231F20" d="M23.04-21.6c0.795,0,1.44-0.645,1.44-1.44c0-0.797-0.646-1.441-1.44-1.441
				c-0.796,0-1.44,0.645-1.44,1.441C21.6-22.244,22.244-21.6,23.04-21.6z"/>
		</g>
		<g>
			<path fill="#231F20" d="M1.44,0C2.235,0,2.88-0.645,2.88-1.439c0-0.795-0.645-1.439-1.439-1.439C0.645-2.879,0-2.234,0-1.439
				C0-0.645,0.645,0,1.44,0z"/>
			<path fill="#231F20" d="M1.44-14.398c0.795,0,1.439-0.646,1.439-1.441c0-0.795-0.645-1.44-1.439-1.44
				c-0.796,0-1.44,0.645-1.44,1.44C0-15.045,0.645-14.398,1.44-14.398z"/>
		</g>
		<g>
			<path fill="#231F20" d="M30.24-28.801c0.795,0,1.44-0.644,1.44-1.439c0-0.795-0.645-1.44-1.44-1.44
				c-0.796,0-1.44,0.645-1.44,1.44C28.8-29.445,29.444-28.801,30.24-28.801z"/>
			<path fill="#231F20" d="M15.84-28.801c0.795,0,1.441-0.644,1.441-1.439c0-0.795-0.646-1.44-1.441-1.44
				c-0.796,0-1.439,0.645-1.439,1.44C14.4-29.445,15.044-28.801,15.84-28.801z"/>
		</g>
		<g>
			<path fill="#231F20" d="M1.44-28.801c0.795,0,1.439-0.644,1.439-1.439c0-0.795-0.645-1.44-1.439-1.44
				C0.645-31.68,0-31.035,0-30.24C0-29.445,0.645-28.801,1.44-28.801z"/>
		</g>
	</g>
</pattern>
<g>
	<g opacity="0.5">
		<g>
			<g>
				<path fill="url(#_x31_0_dpi_20_x25_)" d="M10,145.417L10,145.417c0.001,9.709,7.873,17.58,17.582,17.58h273.797
					c9.71,0,17.582-7.872,17.582-17.582v0c0-9.71-7.872-17.582-17.582-17.582h-40.964c-9.71,0-17.582-7.872-17.582-17.582v0
					c0-9.71,7.872-17.582,17.582-17.582h5.688c9.71,0,17.582-7.872,17.582-17.582v0c0-9.71-7.872-17.582-17.582-17.582H51.211
					c-9.71,0-17.582,7.872-17.582,17.582v0c0,9.71,7.872,17.582,17.582,17.582h43.102c9.649,0,17.496,7.777,17.581,17.426v0
					c0.087,9.771-7.81,17.738-17.581,17.738l-66.731,0C17.871,127.833,9.999,135.706,10,145.417z"/>
			</g>
		</g>
	</g>
	<g>
		<g>
			<g>
				<path fill="#D7DEE5" d="M0,135.417L0,135.417c0.001,9.709,7.873,17.58,17.582,17.58h273.797c9.71,0,17.582-7.872,17.582-17.582
					v0c0-9.71-7.872-17.582-17.582-17.582h-40.964c-9.71,0-17.582-7.872-17.582-17.582v0c0-9.71,7.872-17.582,17.582-17.582h5.688
					c9.71,0,17.582-7.872,17.582-17.582v0c0-9.71-7.872-17.582-17.582-17.582H41.211c-9.71,0-17.582,7.872-17.582,17.582v0
					c0,9.71,7.872,17.582,17.582,17.582h43.102c9.649,0,17.496,7.777,17.581,17.426v0c0.087,9.771-7.81,17.738-17.581,17.738
					l-66.731,0C7.871,117.833-0.001,125.706,0,135.417z"/>
			</g>
		</g>
	</g>
	<g>
		<g id="XMLID_19_">
			<g>
				<path d="M254.298,151.793c1.35,1.793,2.573,3.804,0.33,5.512l-55.914,42.036c-0.127,0.112-0.267,0.218-0.422,0.323
					c-2.299,1.476-3.853-0.056-5.055-2.116c-8.043-13.738-16.17-27.419-24.15-41.199c-1.287-2.222-2.496-3.522-5.175-2.313
					c-0.83,0.373-1.821,0.499-2.742,0.541c-10.651,0.52-17.668,6.454-22.948,15.151c-5.097,8.409-10.363,16.712-15.481,25.099
					c-1.188,1.94-2.362,3.818-4.9,2.383c-0.991-0.555-1.434-1.237-1.533-1.969l-60.892-35.68c-0.443-0.007-0.844-0.084-1.16-0.274
					c-0.471-0.274-0.78-0.605-0.963-0.963c-0.541-1.09,0.084-2.454,1.097-3.536c4.64-4.964,9.309-9.899,13.977-14.835
					c4.893-5.175,9.808-10.335,15.249-16.072c-8.261-1.427-14.371-5.16-15.664-13.337c-1.244-7.86,1.378-14.363,9.231-17.675
					c-5.371-11.699-3.923-17.218,6.37-25.205c-5.097-8.929-4.162-18.265,6.651-24.952c-2.819-4.282-3.846-8.95-2.552-13.991
					c2.018-7.888,10.124-12.985,18.097-11.39c0.682,0.134,1.392,0.253,2.039,0.506c4.457,1.8,7.839,1.132,12.233-1.786
					c6.321-4.197,14.012-6.342,21.141-9.309c3.993-1.666,8.043-3.22,12.057-4.837c11.664-4.696,21.535,0.851,23.616,13.274
					c0.077,0.457,0.162,0.914,0.33,1.856c2.32-1.462,4.535-2.658,6.517-4.155c8.718-6.609,16.234-4.443,20.768-1.019
					c6.377,4.823,8.085,12.022,5.139,20.796c12.079,6.335,15.024,12.564,11.214,24.509c5.259,1.237,9.069,4.45,11.446,9.316
					c2.369,4.844,2.004,9.723-0.225,14.778c6.602,1.744,10.609,5.814,12.514,11.952c2.165,7.009-1.048,14.687-7.474,18.301
					c-2.925,1.645-5.695,3.565-8.844,5.554c4.239,5.674,8.275,11.094,12.332,16.501c4.296,5.723,8.605,11.432,12.929,17.141
					l0.084-0.063l0.035,0.225C253.834,151.181,254.066,151.491,254.298,151.793z M197.673,193.105l50.944-38.696
					c-8.437-11.249-16.88-22.512-25.605-34.155c-16.67,10.37-33.191,20.656-49.931,31.075c5.308,9.027,10.511,17.879,15.72,26.737
					C191.754,183.079,194.713,188.092,197.673,193.105z M234.647,105.651c4.57-2.861,5.885-8.001,3.318-12.803
					c-2.665-4.992-7.797-7.045-12.662-5.062c-0.647,0.267-1.315,0.935-1.891,0.844c-1.251-0.19-3.206-0.464-3.48-1.216
					c-0.401-1.097,0.162-2.784,0.794-3.958c0.436-0.801,1.751-1.09,2.601-1.701c4.689-3.417,5.878-8.514,3.143-13.267
					c-2.953-5.125-7.79-6.855-13.147-4.528c-1.884,0.823-3.628,1.469-4.886-0.689c-1.399-2.397,0.274-3.719,2.109-4.725
					c7.27-3.993,7.277-11.404,3.375-15.959c-3.136-3.67-7.199-4.774-11.671-2.883c-1.962,0.823-3.972,1.652-5.252-0.626
					c-1.434-2.552,0.612-3.677,2.496-4.858c4.654-2.918,6.419-6.665,5.449-11.165c-0.893-4.141-4.352-7.811-8.591-8.191
					c-2.165-0.19-4.788,0.323-6.602,1.462c-6.44,4.029-12.564,8.542-18.905,12.732c-4.387,2.89-8.978,5.47-13.358,8.366
					c-1.005,0.661-2.187,2.095-2.151,3.122c0.302,7.558-2.629,13.161-9.646,16.691c5.681,10.602,3.719,18.139-6.398,25.071
					c3.649,6.088,4.795,12.599,0.577,18.729c-4.148,6.025-10.328,8.148-17.682,6.616c0,2.123,0.035,3.937-0.007,5.751
					c-0.239,10.715-9.161,17.703-19.608,15.32c-3.192-0.731-6.377-1.526-9.519-2.468c-2.046-0.612-3.389-0.127-4.865,1.469
					c-8.901,9.639-25.901,27.764-26.027,27.918l57.517,33.536c6.257-9.815,11.235-18.371,17.548-28.158
					c4.647-7.206,11.6-10.588,19.868-11.755c7.649-1.076,14.525-3.902,21.078-8.12C196.879,129.126,215.812,117.47,234.647,105.651z
					 M166.373,24.132c4.619-2.137,5.66-7.544,3.466-12.1c-2.179-4.542-7.403-7.143-11.994-5.378
					c-11.235,4.331-22.399,8.837-33.494,13.506c-4.422,1.863-6.595,6.834-5.603,11.368c0.984,4.5,5.224,7.959,10.194,8.029
					c0.337-0.021,1.111,0.112,1.723-0.148C142.596,34.382,154.625,29.559,166.373,24.132z M147.06,48.725
					c2.208-2.784,3.086-5.92,1.512-9.773c-4.893,1.926-9.597,3.916-14.392,5.639c-9.857,3.55-20.508-3.1-21.485-13.302
					c-0.197-2.025,0.352-4.774-0.759-5.885c-1.357-1.357-4.092-1.343-6.236-1.919c-0.225-0.056-0.45-0.105-0.682-0.155
					c-5.231-1.118-10.328,2.004-11.593,7.094c-1.301,5.224,1.469,10.469,6.658,11.882c12.388,3.368,24.811,6.602,37.255,9.744
					C141.147,53.006,144.585,51.853,147.06,48.725z M137.224,76.207c3.691-1.715,6.067-5.864,5.702-9.681
					c-0.38-4.071-3.065-7.474-7.199-8.584c-11.868-3.178-23.763-6.243-35.652-9.323c-6.707-1.737-11.657,0.879-13.147,6.883
					c-1.413,5.723,1.744,10.433,8.155,12.114c9.73,2.559,19.468,5.111,29.205,7.642c2.939,0.766,5.899,1.448,8.922,2.179
					C134.574,77.03,135.98,76.791,137.224,76.207z M136.17,94.051c1.216-4.689-1.94-9.983-7.052-11.347
					c-12.318-3.29-24.649-6.517-37.016-9.611c-6.236-1.561-12.142,3.368-12.05,9.787c0.063,4.535,3.002,8.043,8.373,9.491
					c11.945,3.213,23.918,6.342,35.912,9.386C129.617,103.099,134.721,99.654,136.17,94.051z M116.322,113.364
					c0.007-4.029-2.749-8.071-6.869-9.189c-8.198-2.215-16.445-4.331-24.748-6.131c-5.203-1.125-9.512,2.074-10.933,7.445
					c-1.139,4.317,2.004,10.047,6.616,11.333c7.973,2.236,15.995,4.338,24.066,6.194
					C110.578,124.416,116.308,119.565,116.322,113.364z"/>
				<linearGradient id="SVGID_1_" gradientUnits="userSpaceOnUse" x1="173.0803" y1="156.6793" x2="248.617" y2="156.6793">
					<stop  offset="0" style="stop-color:#EBCD1C"/>
					<stop  offset="1" style="stop-color:#EB901C"/>
				</linearGradient>
				<path fill="url(#SVGID_1_)" d="M248.617,154.408l-50.944,38.696c-2.96-5.013-5.92-10.026-8.873-15.038
					c-5.21-8.859-10.412-17.71-15.72-26.737c16.74-10.419,33.262-20.705,49.931-31.075
					C231.737,131.897,240.18,143.16,248.617,154.408z"/>
				<linearGradient id="SVGID_2_" gradientUnits="userSpaceOnUse" x1="62.1587" y1="102.0042" x2="239.2618" y2="102.0042">
					<stop  offset="0" style="stop-color:#1DA5C9"/>
					<stop  offset="1" style="stop-color:#1D85DB"/>
				</linearGradient>
				<path fill="url(#SVGID_2_)" d="M237.966,92.849c2.566,4.802,1.251,9.941-3.318,12.803
					c-18.835,11.818-37.768,23.475-56.477,35.497c-6.553,4.218-13.428,7.045-21.078,8.12c-8.268,1.167-15.221,4.549-19.868,11.755
					c-6.313,9.787-11.291,18.343-17.548,28.158l-57.517-33.536c0.127-0.155,17.127-18.28,26.027-27.918
					c1.476-1.596,2.819-2.081,4.865-1.469c3.143,0.942,6.328,1.737,9.519,2.468c10.447,2.383,19.369-4.605,19.608-15.32
					c0.042-1.814,0.007-3.628,0.007-5.751c7.354,1.533,13.534-0.591,17.682-6.616c4.218-6.131,3.072-12.641-0.577-18.729
					c10.117-6.932,12.079-14.469,6.398-25.071c7.017-3.529,9.948-9.133,9.646-16.691c-0.035-1.026,1.146-2.461,2.151-3.122
					c4.38-2.897,8.971-5.477,13.358-8.366c6.342-4.19,12.465-8.704,18.905-12.732c1.814-1.139,4.436-1.652,6.602-1.462
					c4.239,0.38,7.699,4.05,8.591,8.191c0.97,4.5-0.794,8.247-5.449,11.165c-1.884,1.181-3.93,2.306-2.496,4.858
					c1.28,2.278,3.29,1.448,5.252,0.626c4.471-1.891,8.535-0.787,11.671,2.883c3.902,4.556,3.895,11.966-3.375,15.959
					c-1.835,1.005-3.508,2.327-2.109,4.725c1.258,2.158,3.002,1.512,4.886,0.689c5.357-2.327,10.194-0.598,13.147,4.528
					c2.735,4.753,1.547,9.85-3.143,13.267c-0.851,0.612-2.165,0.9-2.601,1.701c-0.633,1.174-1.195,2.861-0.794,3.958
					c0.274,0.752,2.229,1.026,3.48,1.216c0.577,0.091,1.244-0.577,1.891-0.844C230.169,85.804,235.301,87.857,237.966,92.849z"/>
				<linearGradient id="SVGID_3_" gradientUnits="userSpaceOnUse" x1="118.5113" y1="22.8347" x2="170.942" y2="22.8347">
					<stop  offset="0" style="stop-color:#EBCD1C"/>
					<stop  offset="1" style="stop-color:#EB901C"/>
				</linearGradient>
				<path fill="url(#SVGID_3_)" d="M169.839,12.032c2.194,4.556,1.153,9.962-3.466,12.1c-11.748,5.428-23.777,10.251-35.708,15.277
					c-0.612,0.26-1.385,0.127-1.723,0.148c-4.971-0.07-9.21-3.529-10.194-8.029c-0.991-4.535,1.181-9.505,5.603-11.368
					c11.094-4.668,22.259-9.175,33.494-13.506C162.436,4.889,167.66,7.49,169.839,12.032z"/>
				<linearGradient id="SVGID_4_" gradientUnits="userSpaceOnUse" x1="93.105" y1="37.7402" x2="149.3718" y2="37.7402">
					<stop  offset="0" style="stop-color:#EBCD1C"/>
					<stop  offset="1" style="stop-color:#EB901C"/>
				</linearGradient>
				<path fill="url(#SVGID_4_)" d="M148.572,38.952c1.575,3.853,0.696,6.988-1.512,9.773c-2.475,3.129-5.913,4.282-9.723,3.325
					c-12.444-3.143-24.867-6.377-37.255-9.744c-5.189-1.413-7.959-6.658-6.658-11.882c1.266-5.09,6.363-8.212,11.593-7.094
					c0.232,0.049,0.457,0.098,0.682,0.155c2.144,0.577,4.879,0.562,6.236,1.919c1.111,1.111,0.562,3.86,0.759,5.885
					c0.977,10.201,11.629,16.852,21.485,13.302C138.975,42.868,143.678,40.879,148.572,38.952z"/>
				<linearGradient id="SVGID_5_" gradientUnits="userSpaceOnUse" x1="86.5947" y1="62.7646" x2="142.9631" y2="62.7646">
					<stop  offset="0" style="stop-color:#EBCD1C"/>
					<stop  offset="1" style="stop-color:#EB901C"/>
				</linearGradient>
				<path fill="url(#SVGID_5_)" d="M142.926,66.526c0.366,3.818-2.011,7.966-5.702,9.681c-1.244,0.584-2.651,0.823-4.014,1.23
					c-3.023-0.731-5.983-1.413-8.922-2.179c-9.737-2.531-19.475-5.083-29.205-7.642c-6.412-1.68-9.569-6.391-8.155-12.114
					c1.49-6.004,6.44-8.619,13.147-6.883c11.889,3.079,23.784,6.145,35.652,9.323C139.861,59.053,142.546,62.455,142.926,66.526z"/>
				<linearGradient id="SVGID_6_" gradientUnits="userSpaceOnUse" x1="80.0505" y1="87.4242" x2="136.4303" y2="87.4242">
					<stop  offset="0" style="stop-color:#EBCD1C"/>
					<stop  offset="1" style="stop-color:#EB901C"/>
				</linearGradient>
				<path fill="url(#SVGID_6_)" d="M129.118,82.703c5.111,1.364,8.268,6.658,7.052,11.347c-1.448,5.603-6.553,9.048-11.832,7.706
					c-11.994-3.044-23.967-6.173-35.912-9.386c-5.371-1.448-8.31-4.957-8.373-9.491c-0.091-6.419,5.814-11.347,12.05-9.787
					C104.469,76.186,116.8,79.413,129.118,82.703z"/>
				<linearGradient id="SVGID_7_" gradientUnits="userSpaceOnUse" x1="73.5389" y1="110.5394" x2="116.3224" y2="110.5394">
					<stop  offset="0" style="stop-color:#EBCD1C"/>
					<stop  offset="1" style="stop-color:#EB901C"/>
				</linearGradient>
				<path fill="url(#SVGID_7_)" d="M109.453,104.175c4.12,1.118,6.876,5.16,6.869,9.189c-0.014,6.201-5.744,11.052-11.868,9.653
					c-8.071-1.856-16.093-3.958-24.066-6.194c-4.612-1.287-7.755-7.017-6.616-11.333c1.42-5.371,5.73-8.57,10.933-7.445
					C93.009,99.844,101.256,101.96,109.453,104.175z"/>
			</g>
			<g>
				<path fill="none" stroke="#000000" stroke-width="0.5" stroke-linecap="round" stroke-linejoin="round" d="M157.093,149.269
					c-8.268,1.167-15.221,4.549-19.868,11.755c-6.313,9.787-11.291,18.343-17.548,28.158l-57.517-33.536
					c0.127-0.155,17.127-18.28,26.027-27.918c1.476-1.596,2.819-2.081,4.865-1.469c3.143,0.942,6.328,1.737,9.519,2.468
					c10.447,2.383,19.369-4.605,19.608-15.32c0.042-1.814,0.007-3.628,0.007-5.751c7.354,1.533,13.534-0.591,17.682-6.616
					c4.218-6.131,3.072-12.641-0.577-18.729c10.117-6.932,12.079-14.469,6.398-25.071c7.017-3.529,9.948-9.133,9.646-16.691
					c-0.035-1.026,1.146-2.461,2.151-3.122c4.38-2.897,8.971-5.477,13.358-8.366c6.342-4.19,12.465-8.704,18.905-12.732
					c1.814-1.139,4.436-1.652,6.602-1.462c4.239,0.38,7.699,4.05,8.591,8.191c0.97,4.5-0.794,8.247-5.449,11.165
					c-1.884,1.181-3.93,2.306-2.496,4.858c1.28,2.278,3.29,1.448,5.252,0.626c4.471-1.891,8.535-0.787,11.671,2.883
					c3.902,4.556,3.895,11.966-3.375,15.959c-1.835,1.005-3.508,2.327-2.109,4.725c1.258,2.158,3.002,1.512,4.886,0.689
					c5.357-2.327,10.194-0.598,13.147,4.528c2.735,4.753,1.547,9.85-3.143,13.267c-0.851,0.612-2.165,0.9-2.601,1.701
					c-0.633,1.174-1.195,2.861-0.794,3.958c0.274,0.752,2.229,1.026,3.48,1.216c0.577,0.091,1.244-0.577,1.891-0.844
					c4.865-1.983,9.997,0.07,12.662,5.062c2.566,4.802,1.251,9.941-3.318,12.803c-18.835,11.818-37.768,23.475-56.477,35.497
					C171.618,145.367,164.742,148.193,157.093,149.269z"/>
				<path fill="none" stroke="#FFFFFF" stroke-width="5" stroke-linecap="round" stroke-linejoin="round" d="M159.589,11.73
					c0,0,1.483,1.202,3.382,8.31"/>
			</g>
		</g>
		<path fill="#6CBDE0" d="M237.964,92.848c0,0,3.497,7.748-2.8,12.087c-6.296,4.339-64.271,40.233-64.271,40.233
			s-9.839,3.482-12.329,3.873c-2.49,0.39-13.963,1.637-18.799,8.661l-20.091,31.483l-10.473-6.657c1.73-2.667,3.5-5.309,5.281-7.941
			c3.615-5.341,7.299-10.64,11.162-15.806c1.804-2.413,3.645-4.804,5.596-7.101c2.206-2.599,5.006-4.601,7.894-6.372
			c3.193-1.957,6.494-3.81,10.068-4.976c1.806-0.589,3.672-0.996,5.566-1.161c1.98-0.173,3.975-0.043,5.903-0.628
			c1.042-0.316,2.08-0.703,3.097-1.092c2.03-0.776,4.015-1.67,5.975-2.607c5.023-2.4,9.904-5.095,14.731-7.866
			c5.551-3.187,11.027-6.505,16.462-9.886c5.311-3.304,10.581-6.674,15.822-10.087c4.29-2.794,8.56-5.617,12.812-8.468
			c2.484-1.666,4.963-3.34,7.432-5.03C237.324,93.288,237.644,93.069,237.964,92.848z"/>
		
			<line fill="none" stroke="#FFFFFF" stroke-width="5" stroke-linecap="round" stroke-linejoin="round" x1="219.368" y1="127.862" x2="238.932" y2="153.728"/>
	</g>
</g>
</svg>
