<?xml version="1.0" encoding="utf-8"?>
<!-- Generator: Adobe Illustrator 17.0.0, SVG Export Plug-In . SVG Version: 6.00 Build 0)  -->
<!DOCTYPE svg PUBLIC "-//W3C//DTD SVG 1.1//EN" "http://www.w3.org/Graphics/SVG/1.1/DTD/svg11.dtd">
<svg version="1.1" id="Layer_1" xmlns="http://www.w3.org/2000/svg" xmlns:xlink="http://www.w3.org/1999/xlink" x="0px" y="0px"
	 width="318.961px" height="248.372px" viewBox="0 0 318.961 248.372" enable-background="new 0 0 318.961 248.372"
	 xml:space="preserve">
<pattern  x="-323.682" y="-199.764" width="28.8" height="28.801" patternUnits="userSpaceOnUse" id="_x31_0_dpi_20_x25_" viewBox="1.44 -30.24 28.8 28.801" overflow="visible">
	<g>
		<polygon fill="none" points="1.44,-30.24 30.24,-30.24 30.24,-1.439 1.44,-1.439 		"/>
		<g>
			<path fill="#231F20" d="M30.24,0c0.795,0,1.44-0.645,1.44-1.439c0-0.795-0.645-1.439-1.44-1.439c-0.796,0-1.44,0.645-1.44,1.439
				C28.8-0.645,29.444,0,30.24,0z"/>
			<path fill="#231F20" d="M15.84,0c0.795,0,1.441-0.645,1.441-1.439c0-0.795-0.646-1.439-1.441-1.439
				c-0.796,0-1.439,0.645-1.439,1.439C14.4-0.645,15.044,0,15.84,0z"/>
			<path fill="#231F20" d="M30.24-14.398c0.795,0,1.44-0.646,1.44-1.441c0-0.795-0.645-1.44-1.44-1.44
				c-0.796,0-1.44,0.645-1.44,1.44C28.8-15.045,29.444-14.398,30.24-14.398z"/>
			<path fill="#231F20" d="M15.84-14.398c0.795,0,1.441-0.646,1.441-1.441c0-0.795-0.646-1.44-1.441-1.44
				c-0.796,0-1.439,0.645-1.439,1.44C14.4-15.045,15.044-14.398,15.84-14.398z"/>
			<path fill="#231F20" d="M8.64-7.199c0.795,0,1.44-0.645,1.44-1.439c0-0.797-0.646-1.441-1.44-1.441
				C7.844-10.08,7.2-9.436,7.2-8.639C7.2-7.844,7.844-7.199,8.64-7.199z"/>
			<path fill="#231F20" d="M23.04-7.199c0.795,0,1.44-0.645,1.44-1.439c0-0.797-0.646-1.441-1.44-1.441
				c-0.796,0-1.44,0.645-1.44,1.441C21.6-7.844,22.244-7.199,23.04-7.199z"/>
			<path fill="#231F20" d="M8.64-21.6c0.795,0,1.44-0.645,1.44-1.44c0-0.797-0.646-1.441-1.44-1.441
				c-0.796,0-1.439,0.645-1.439,1.441C7.2-22.244,7.844-21.6,8.64-21.6z"/>
			<path fill="#231F20" d="M23.04-21.6c0.795,0,1.44-0.645,1.44-1.44c0-0.797-0.646-1.441-1.44-1.441
				c-0.796,0-1.44,0.645-1.44,1.441C21.6-22.244,22.244-21.6,23.04-21.6z"/>
		</g>
		<g>
			<path fill="#231F20" d="M1.44,0C2.235,0,2.88-0.645,2.88-1.439c0-0.795-0.645-1.439-1.439-1.439C0.645-2.879,0-2.234,0-1.439
				C0-0.645,0.645,0,1.44,0z"/>
			<path fill="#231F20" d="M1.44-14.398c0.795,0,1.439-0.646,1.439-1.441c0-0.795-0.645-1.44-1.439-1.44
				c-0.796,0-1.44,0.645-1.44,1.44C0-15.045,0.645-14.398,1.44-14.398z"/>
		</g>
		<g>
			<path fill="#231F20" d="M30.24-28.801c0.795,0,1.44-0.644,1.44-1.439c0-0.795-0.645-1.44-1.44-1.44
				c-0.796,0-1.44,0.645-1.44,1.44C28.8-29.445,29.444-28.801,30.24-28.801z"/>
			<path fill="#231F20" d="M15.84-28.801c0.795,0,1.441-0.644,1.441-1.439c0-0.795-0.646-1.44-1.441-1.44
				c-0.796,0-1.439,0.645-1.439,1.44C14.4-29.445,15.044-28.801,15.84-28.801z"/>
		</g>
		<g>
			<path fill="#231F20" d="M1.44-28.801c0.795,0,1.439-0.644,1.439-1.439c0-0.795-0.645-1.44-1.439-1.44
				C0.645-31.68,0-31.035,0-30.24C0-29.445,0.645-28.801,1.44-28.801z"/>
		</g>
	</g>
</pattern>
<g>
	<g opacity="0.5">
		<g>
			<g>
				<path fill="url(#_x31_0_dpi_20_x25_)" d="M10,181.067L10,181.067c0.001,9.709,7.873,17.58,17.582,17.58h273.797
					c9.71,0,17.582-7.872,17.582-17.582v0c0-9.71-7.872-17.582-17.582-17.582h-40.964c-9.71,0-17.582-7.872-17.582-17.582v0
					c0-9.71,7.872-17.582,17.582-17.582h5.688c9.71,0,17.582-7.872,17.582-17.582v0c0-9.71-7.872-17.582-17.582-17.582H51.211
					c-9.71,0-17.582,7.872-17.582,17.582v0c0,9.71,7.872,17.582,17.582,17.582h43.102c9.649,0,17.496,7.777,17.581,17.426v0
					c0.087,9.771-7.81,17.738-17.581,17.738H27.582C17.871,163.483,9.999,171.356,10,181.067z"/>
			</g>
		</g>
	</g>
	<g>
		<g>
			<g>
				<path fill="#D7DEE5" d="M0,171.067L0,171.067c0.001,9.709,7.873,17.58,17.582,17.58h273.797c9.71,0,17.582-7.872,17.582-17.582
					v0c0-9.71-7.872-17.582-17.582-17.582h-40.964c-9.71,0-17.582-7.872-17.582-17.582v0c0-9.71,7.872-17.582,17.582-17.582h5.688
					c9.71,0,17.582-7.872,17.582-17.582v0c0-9.71-7.872-17.582-17.582-17.582H41.211c-9.71,0-17.582,7.872-17.582,17.582v0
					c0,9.71,7.872,17.582,17.582,17.582h43.102c9.649,0,17.496,7.777,17.581,17.426v0c0.087,9.771-7.81,17.738-17.581,17.738H17.582
					C7.871,153.483-0.001,161.356,0,171.067z"/>
			</g>
		</g>
	</g>
	<g>
		<g>
			
				<linearGradient id="SVGID_1_" gradientUnits="userSpaceOnUse" x1="-384.5725" y1="-1552.665" x2="-187.3364" y2="-1552.665" gradientTransform="matrix(0.9473 -0.3205 0.3205 0.9473 926.3414 1503.3196)">
				<stop  offset="0" style="stop-color:#EBCD1C"/>
				<stop  offset="1" style="stop-color:#EB901C"/>
			</linearGradient>
			
				<path fill="url(#SVGID_1_)" stroke="#000000" stroke-width="5" stroke-linecap="round" stroke-linejoin="round" stroke-miterlimit="10" d="
				M94.868,245.562c14.911-26.683,29.822-53.366,45.042-80.603c-14.991,4.849-37.956,12.829-52.382,17.495
				c-0.104-0.111-0.208-0.223-0.312-0.334c24.631-31.176,57.8-65.667,82.432-96.843c-0.09-0.182-0.18-0.364-0.27-0.546
				c-11.904,4.027-23.807,8.054-35.711,12.081c-0.135-0.228-0.27-0.456-0.405-0.685c29.098-31.209,58.196-62.419,87.294-93.628
				c0.136,0.103,0.272,0.207,0.408,0.31c-11.255,20.896-22.509,41.793-34.048,63.217c12.898-4.363,25.217-8.531,37.536-12.698
				c0.105,0.126,0.21,0.252,0.315,0.379c-22.015,31.944-44.031,63.888-66.046,95.831c0.1,0.125,0.199,0.25,0.299,0.376
				c13.529-4.226,27.058-8.452,40.587-12.677c0.094,0.129,0.188,0.258,0.281,0.387c-34.903,36.083-69.806,72.165-104.709,108.248
				C95.074,245.768,94.971,245.665,94.868,245.562z"/>
		</g>
		<g>
			<linearGradient id="SVGID_2_" gradientUnits="userSpaceOnUse" x1="62.8378" y1="124.2997" x2="244.6364" y2="124.2997">
				<stop  offset="0" style="stop-color:#1DA5C9"/>
				<stop  offset="1" style="stop-color:#1D85DB"/>
			</linearGradient>
			<path fill="url(#SVGID_2_)" d="M152.708,201.646c-46.54-21.072-79.372-53.865-87.826-87.722
				c-4.553-18.236-1.441-35.577,8.763-48.827c9.244-12.001,22.376-18.61,36.977-18.61c17.739,0,36.487,10.636,43.12,27.528
				c6.631-16.892,25.378-27.528,43.116-27.528c14.6,0,27.729,6.609,36.973,18.61c10.204,13.25,13.316,30.591,8.764,48.827
				c-8.454,33.856-41.285,66.649-87.823,87.722l-1.031,0.467L152.708,201.646z"/>
			<path d="M110.621,48.987c22.076,0,43.12,16.211,43.12,38.327c0-22.118,21.04-38.326,43.116-38.326
				c12.556,0,25.451,5.248,34.992,17.635c27.203,35.323,0.391,97.201-78.11,132.746C75.234,163.824,48.422,101.946,75.625,66.623
				C85.169,54.233,98.062,48.986,110.621,48.987 M110.621,43.987c-15.393,0-29.228,6.955-38.957,19.585
				c-10.68,13.869-13.95,31.966-9.208,50.959c4.1,16.418,13.993,33.077,28.61,48.177c15.752,16.271,36.144,30.139,60.61,41.216
				l2.062,0.934l2.062-0.934c24.465-11.078,44.857-24.945,60.608-41.216c14.617-15.1,24.51-31.759,28.609-48.177
				c4.742-18.993,1.472-37.09-9.207-50.958c-9.728-12.629-23.561-19.584-38.954-19.584c-12.004,0-24.059,4.395-33.075,12.059
				c-4.185,3.557-7.558,7.646-10.042,12.104c-2.484-4.457-5.858-8.546-10.043-12.103C134.681,48.383,122.625,43.987,110.621,43.987
				L110.621,43.987z"/>
		</g>
		<g>
			<path fill="#6CBDE0" d="M230.561,66.622c-11.198-14.538-27.007-19.235-41.477-17.166c10.433,1.524,20.665,6.88,28.589,17.166
				c26.159,33.968,2.355,92.486-69.318,128.535c0.739,0.298,1.47,0.64,2.138,0.986c0.132,0.068,0.26,0.144,0.387,0.22
				c1.295,0.445,2.477,1.191,3.533,2.097C231.389,162.779,257.534,101.649,230.561,66.622z"/>
		</g>
		<linearGradient id="SVGID_3_" gradientUnits="userSpaceOnUse" x1="132.6159" y1="59.7387" x2="224.1216" y2="59.7387">
			<stop  offset="0" style="stop-color:#EBCD1C"/>
			<stop  offset="1" style="stop-color:#EB901C"/>
		</linearGradient>
		
			<path fill="url(#SVGID_3_)" stroke="#000000" stroke-width="5" stroke-linecap="round" stroke-linejoin="round" stroke-miterlimit="10" d="
			M168.732,84.732c0.09,0.182,0.18,0.364,0.27,0.546c-7.269,9.201-14.539,18.402-21.808,27.603c2.16-0.166,4.341-0.251,6.543-0.251
			c9.362,0,18.366,1.529,26.779,4.348c14.535-21.09,29.07-42.18,43.606-63.27c-0.105-0.126-0.211-0.253-0.316-0.379
			c-12.319,4.167-24.638,8.335-37.536,12.698c11.539-21.424,22.794-42.32,34.048-63.217c-0.136-0.103-0.272-0.207-0.408-0.31
			c-29.098,31.209-58.196,62.419-87.294,93.628c0.135,0.228,0.27,0.456,0.405,0.685C144.925,92.786,156.828,88.759,168.732,84.732z"
			/>
		<circle fill="#226397" cx="154.48" cy="127.45" r="4.189"/>
		<circle fill="#226397" cx="172.559" cy="136.913" r="4.189"/>
		<circle fill="#226397" cx="155.733" cy="151.712" r="4.189"/>
	</g>
</g>
</svg>
