<svg xmlns="http://www.w3.org/2000/svg" viewBox="0 0 434.23 434.23"><defs><style>.cls-1{fill:#eedc11;stroke:#fff;}.cls-1,.cls-2,.cls-3,.cls-4{stroke-miterlimit:10;}.cls-2,.cls-3,.cls-4{fill:none;stroke:#456fb6;}.cls-2{stroke-width:7px;}.cls-3{stroke-width:3px;}.cls-4{stroke-width:5px;}</style></defs><title>Asset 41</title><g id="Layer_2" data-name="Layer 2"><g id="Layer_1-2" data-name="Layer 1"><rect class="cls-1" x="52.11" y="52.11" width="330" height="330" rx="40.39" ry="40.39" transform="translate(217.11 524.16) rotate(-135)"/><path class="cls-2" d="M211.56,157l82.86,96.51a22.78,22.78,0,0,1,5.15,18.83l5.2,5.2a14.1,14.1,0,0,1,0,19.94l-7.33,7.33a14.1,14.1,0,0,1-19.94,0l-5.2-5.2a22.75,22.75,0,0,1-18.83-5.15L157,211.56c-21.09-21.09-25-79.62-25-79.62S190.47,135.87,211.56,157Z"/><circle class="cls-3" cx="195.51" cy="195.51" r="9.87" transform="translate(-80.98 195.51) rotate(-45)"/><circle class="cls-3" cx="220.12" cy="220.12" r="9.87" transform="translate(-91.18 220.12) rotate(-45)"/><circle class="cls-3" cx="244.74" cy="244.74" r="9.87" transform="translate(-101.37 244.74) rotate(-45)"/><path class="cls-3" d="M191.69,144.75c-.83,8.89-6.84,20.27-16.76,30.19s-21.3,15.93-30.19,16.76"/><path class="cls-3" d="M198,148c-.88,9.48-7.29,21.62-17.87,32.2s-22.72,17-32.2,17.87"/><path class="cls-3" d="M262.43,298.66c.64-6.86,5.28-15.65,12.93-23.3s16.44-12.29,23.3-12.93"/><path class="cls-3" d="M266.79,300.5c.6-6.38,4.91-14.56,12-21.68s15.3-11.44,21.68-12"/><path class="cls-2" d="M227.37,175.38c21.09-.37,52.52,5.52,85.75,34.49l42,37.24-16,9.43s-38.18-42.9-55.15-37.24a126.74,126.74,0,0,0-14,5.63"/><path class="cls-2" d="M175.38,227.37c-.37,21.09,5.52,52.52,34.49,85.75l37.24,42,9.43-16s-42.9-38.18-37.24-55.15a126.74,126.74,0,0,1,5.63-14"/><path class="cls-4" d="M325.43,344"/><line class="cls-3" x1="301.1" y1="301.1" x2="334.73" y2="334.73"/><line class="cls-3" x1="307.51" y1="293.56" x2="324.89" y2="310.94"/><line class="cls-3" x1="293.56" y1="307.51" x2="310.94" y2="324.89"/></g></g></svg>