<svg xmlns="http://www.w3.org/2000/svg" viewBox="0 0 227.3 227.3"><defs><style>.cls-1{fill:none;stroke:#fff;stroke-miterlimit:10;stroke-width:3px;}</style></defs><title>Asset 11</title><g id="Layer_2" data-name="Layer 2"><g id="Layer_1-2" data-name="Layer 1"><path class="cls-1" d="M81.24,26.64l82.86,96.51A22.78,22.78,0,0,1,169.25,142l5.2,5.2a14.1,14.1,0,0,1,0,19.94l-7.33,7.33a14.1,14.1,0,0,1-19.94,0l-5.2-5.2a22.75,22.75,0,0,1-18.83-5.15L26.64,81.23C5.56,60.15,1.61,1.61,1.61,1.61S60.15,5.55,81.24,26.64Z"/><circle class="cls-1" cx="65.19" cy="65.18" r="9.87" transform="translate(-27 65.19) rotate(-45)"/><circle class="cls-1" cx="89.81" cy="89.8" r="9.87" transform="translate(-37.19 89.8) rotate(-45)"/><circle class="cls-1" cx="114.42" cy="114.42" r="9.87" transform="translate(-47.39 114.42) rotate(-45)"/><path class="cls-1" d="M61.38,14.43c-.83,8.89-6.84,20.27-16.76,30.19S23.32,60.54,14.43,61.37"/><path class="cls-1" d="M67.71,17.63c-.88,9.48-7.29,21.62-17.87,32.2s-22.72,17-32.2,17.87"/><path class="cls-1" d="M132.11,168.34c.64-6.86,5.28-15.65,12.93-23.3s16.44-12.29,23.3-12.93"/><path class="cls-1" d="M136.47,170.18c.6-6.38,4.91-14.56,12-21.68s15.3-11.44,21.68-12"/><path class="cls-1" d="M97.06,45.06c21.09-.37,52.52,5.52,85.75,34.49l42,37.24-16,9.43S170.55,83.32,153.58,89a126.74,126.74,0,0,0-14,5.63"/><path class="cls-1" d="M45.07,97.05c-.37,21.09,5.52,52.52,34.49,85.75l37.24,42,9.43-16S83.33,170.55,89,153.58a126.74,126.74,0,0,1,5.63-14"/><path class="cls-1" d="M195.12,213.7"/><line class="cls-1" x1="170.78" y1="170.78" x2="204.41" y2="204.41"/><line class="cls-1" x1="177.2" y1="163.23" x2="194.58" y2="180.61"/><line class="cls-1" x1="163.24" y1="177.19" x2="180.62" y2="194.57"/></g></g></svg>