<svg xmlns="http://www.w3.org/2000/svg" viewBox="0 0 434.23 434.23"><defs><style>.cls-1{fill:#eedc11;stroke:#fff;}.cls-1,.cls-2{stroke-miterlimit:10;}.cls-2{fill:none;stroke:#2f67b2;stroke-width:3px;}</style></defs><title>Asset 31</title><g id="Layer_2" data-name="Layer 2"><g id="Layer_1-2" data-name="Layer 1"><rect class="cls-1" x="52.11" y="52.11" width="330" height="330" rx="40.39" ry="40.39" transform="translate(217.11 524.16) rotate(-135)"/><path class="cls-2" d="M192.32,146.37,272.73,240a22.1,22.1,0,0,1,5,18.27l5,5a13.68,13.68,0,0,1,0,19.35l-7.12,7.12a13.68,13.68,0,0,1-19.35,0l-5-5a22.07,22.07,0,0,1-18.27-5l-93.65-80.41C118.88,178.89,115,122.09,115,122.09S171.86,125.91,192.32,146.37Z"/><circle class="cls-2" cx="176.74" cy="183.77" r="9.58" transform="translate(-78.18 178.8) rotate(-45)"/><circle class="cls-2" cx="200.63" cy="207.66" r="9.58" transform="translate(-88.08 202.69) rotate(-45)"/><circle class="cls-2" cx="224.52" cy="231.55" r="9.58" transform="translate(-97.97 226.58) rotate(-45)"/><path class="cls-2" d="M173,134.52c-.8,8.63-6.64,19.67-16.26,29.3s-20.67,15.46-29.3,16.26"/><path class="cls-2" d="M179.19,137.63c-.86,9.2-7.08,21-17.34,31.25s-22,16.49-31.25,17.34"/><path class="cls-2" d="M241.69,283.88c.62-6.66,5.12-15.18,12.55-22.61s16-11.93,22.61-12.55"/><path class="cls-2" d="M245.92,285.66c.58-6.19,4.77-14.13,11.68-21s14.84-11.1,21-11.68"/><path class="cls-2" d="M207.67,164.25c20.47-.36,51,5.35,83.21,33.47l40.71,36.14L316,243S279,201.38,262.52,206.87A123,123,0,0,0,249,212.34"/><path class="cls-2" d="M157.22,214.7c-.36,20.47,5.35,51,33.47,83.21l36.14,40.71L236,323.08S194.35,286,199.84,269.55A123,123,0,0,1,205.31,256"/><path class="cls-2" d="M302.83,327.9"/><line class="cls-2" x1="279.52" y1="286.55" x2="330.27" y2="337.3"/><line class="cls-2" x1="285.44" y1="278.92" x2="311.67" y2="305.15"/><line class="cls-2" x1="271.89" y1="292.47" x2="298.12" y2="318.7"/></g></g></svg>