<svg xmlns="http://www.w3.org/2000/svg" viewBox="0 0 433.23 433.23"><defs><style>.cls-1{fill:#eedc11;}.cls-2{fill:none;stroke:#2f67b2;stroke-miterlimit:10;stroke-width:3px;}</style></defs><title>Asset 6</title><g id="Layer_2" data-name="Layer 2"><g id="Layer_1-2" data-name="Layer 1"><rect class="cls-1" x="51.61" y="51.61" width="330" height="330" rx="40.39" ry="40.39" transform="translate(216.61 522.95) rotate(-135)"/><path class="cls-2" d="M191.82,145.87l80.41,93.65a22.1,22.1,0,0,1,5,18.27l5,5a13.68,13.68,0,0,1,0,19.35l-7.12,7.12a13.68,13.68,0,0,1-19.35,0l-5-5a22.07,22.07,0,0,1-18.27-5l-93.65-80.41c-20.46-20.46-24.29-77.26-24.29-77.26S171.36,125.41,191.82,145.87Z"/><circle class="cls-2" cx="176.24" cy="183.27" r="9.58" transform="translate(-77.97 178.3) rotate(-45)"/><circle class="cls-2" cx="200.13" cy="207.16" r="9.58" transform="translate(-87.87 202.19) rotate(-45)"/><circle class="cls-2" cx="224.02" cy="231.05" r="9.58" transform="translate(-97.76 226.08) rotate(-45)"/><path class="cls-2" d="M172.55,134c-.8,8.63-6.64,19.67-16.26,29.3s-20.67,15.46-29.3,16.26"/><path class="cls-2" d="M178.69,137.13c-.86,9.2-7.08,21-17.34,31.25s-22,16.49-31.25,17.34"/><path class="cls-2" d="M241.19,283.38c.62-6.66,5.12-15.18,12.55-22.61s16-11.93,22.61-12.55"/><path class="cls-2" d="M245.42,285.16c.58-6.19,4.77-14.13,11.68-21s14.84-11.1,21-11.68"/><path class="cls-2" d="M207.17,163.75c20.47-.36,51,5.35,83.21,33.47l40.71,36.14-15.55,9.15S278.49,200.88,262,206.37a123,123,0,0,0-13.56,5.47"/><path class="cls-2" d="M156.72,214.2c-.36,20.47,5.35,51,33.47,83.21l36.14,40.71,9.15-15.55s-41.63-37.05-36.14-53.52a123,123,0,0,1,5.47-13.56"/><path class="cls-2" d="M302.33,327.4"/><line class="cls-2" x1="279.02" y1="286.05" x2="329.77" y2="336.8"/><line class="cls-2" x1="284.94" y1="278.42" x2="311.17" y2="304.65"/><line class="cls-2" x1="271.39" y1="291.97" x2="297.62" y2="318.2"/></g></g></svg>