<svg xmlns="http://www.w3.org/2000/svg" viewBox="0 0 434.23 434.23"><defs><style>.cls-1{fill:#243e90;}.cls-1,.cls-2{stroke:#fff;stroke-miterlimit:10;}.cls-2{fill:none;stroke-width:3px;}</style></defs><title>Asset 41</title><g id="Layer_2" data-name="Layer 2"><g id="Layer_1-2" data-name="Layer 1"><rect class="cls-1" x="52.11" y="52.11" width="330" height="330" rx="40.39" ry="40.39" transform="translate(524.16 217.11) rotate(135)"/><circle class="cls-2" cx="217.11" cy="217.11" r="88.82" transform="translate(-89.93 217.11) rotate(-45)"/><circle class="cls-2" cx="217.11" cy="217.11" r="58" transform="translate(-89.93 217.11) rotate(-45)"/><circle class="cls-2" cx="217.11" cy="217.11" r="21.74" transform="translate(-89.93 217.11) rotate(-45)"/><line class="cls-2" x1="258.12" y1="258.12" x2="314.22" y2="314.22"/><line class="cls-2" x1="258.12" y1="176.1" x2="314.22" y2="120.01"/><line class="cls-2" x1="176.1" y1="258.12" x2="120.01" y2="314.22"/><line class="cls-2" x1="176.1" y1="176.1" x2="120.01" y2="120.01"/><line class="cls-2" x1="217.11" y1="217.11" x2="405.92" y2="217.11"/><polyline class="cls-2" points="384.79 217.17 394.15 207.8 371.64 207.8 363.28 216.16 363.26 218.06 371.62 226.42 394.13 226.42 384.77 217.06"/><circle class="cls-2" cx="245.68" cy="86.69" r="6.61" transform="translate(10.66 199.11) rotate(-45)"/><circle class="cls-2" cx="198.27" cy="86.69" r="6.61" transform="translate(-3.23 165.59) rotate(-45)"/><line class="cls-2" x1="199.87" y1="93.09" x2="208.15" y2="128.75"/><line class="cls-2" x1="239.09" y1="86.17" x2="204.87" y2="86.17"/><line class="cls-2" x1="245.68" y1="12.33" x2="245.68" y2="80.08"/></g></g></svg>