<svg xmlns="http://www.w3.org/2000/svg" viewBox="0 0 433.23 433.23"><defs><style>.cls-1{fill:#243e90;}.cls-2{fill:none;stroke:#fff;stroke-miterlimit:10;stroke-width:3px;}</style></defs><title>Asset 7</title><g id="Layer_2" data-name="Layer 2"><g id="Layer_1-2" data-name="Layer 1"><rect class="cls-1" x="51.61" y="51.61" width="330" height="330" rx="40.39" ry="40.39" transform="translate(522.95 216.61) rotate(135)"/><circle class="cls-2" cx="216.61" cy="216.61" r="88.82" transform="translate(-89.72 216.61) rotate(-45)"/><circle class="cls-2" cx="216.61" cy="216.61" r="58" transform="translate(-89.72 216.61) rotate(-45)"/><circle class="cls-2" cx="216.61" cy="216.61" r="21.74" transform="translate(-89.72 216.61) rotate(-45)"/><line class="cls-2" x1="257.62" y1="257.62" x2="313.72" y2="313.72"/><line class="cls-2" x1="257.62" y1="175.6" x2="313.72" y2="119.51"/><line class="cls-2" x1="175.6" y1="257.62" x2="119.51" y2="313.72"/><line class="cls-2" x1="175.6" y1="175.6" x2="119.51" y2="119.51"/><line class="cls-2" x1="216.61" y1="216.61" x2="405.42" y2="216.61"/><polyline class="cls-2" points="384.29 216.67 393.65 207.3 371.14 207.3 362.78 215.66 362.76 217.56 371.12 225.92 393.63 225.92 384.27 216.56"/><circle class="cls-2" cx="245.18" cy="86.19" r="6.61" transform="translate(10.87 198.61) rotate(-45)"/><circle class="cls-2" cx="197.77" cy="86.19" r="6.61" transform="translate(-3.02 165.09) rotate(-45)"/><line class="cls-2" x1="199.37" y1="92.59" x2="207.65" y2="128.25"/><line class="cls-2" x1="238.59" y1="85.67" x2="204.37" y2="85.67"/><line class="cls-2" x1="245.18" y1="11.83" x2="245.18" y2="79.58"/></g></g></svg>