<?xml version="1.0" encoding="utf-8"?>
<!-- Generator: Adobe Illustrator 17.0.0, SVG Export Plug-In . SVG Version: 6.00 Build 0)  -->
<!DOCTYPE svg PUBLIC "-//W3C//DTD SVG 1.1//EN" "http://www.w3.org/Graphics/SVG/1.1/DTD/svg11.dtd">
<svg version="1.1" id="Layer_1" xmlns="http://www.w3.org/2000/svg" xmlns:xlink="http://www.w3.org/1999/xlink" x="0px" y="0px"
	 width="318.961px" height="167px" viewBox="0 0 318.961 167" enable-background="new 0 0 318.961 167" xml:space="preserve">
<pattern  x="-323.682" y="-242.069" width="28.8" height="28.801" patternUnits="userSpaceOnUse" id="_x31_0_dpi_20_x25_" viewBox="1.44 -30.24 28.8 28.801" overflow="visible">
	<g>
		<polygon fill="none" points="1.44,-30.24 30.24,-30.24 30.24,-1.439 1.44,-1.439 		"/>
		<g>
			<path fill="#231F20" d="M30.24,0c0.795,0,1.44-0.645,1.44-1.439c0-0.795-0.645-1.439-1.44-1.439c-0.796,0-1.44,0.645-1.44,1.439
				C28.8-0.645,29.444,0,30.24,0z"/>
			<path fill="#231F20" d="M15.84,0c0.795,0,1.441-0.645,1.441-1.439c0-0.795-0.646-1.439-1.441-1.439
				c-0.796,0-1.439,0.645-1.439,1.439C14.4-0.645,15.044,0,15.84,0z"/>
			<path fill="#231F20" d="M30.24-14.398c0.795,0,1.44-0.646,1.44-1.441c0-0.795-0.645-1.44-1.44-1.44
				c-0.796,0-1.44,0.645-1.44,1.44C28.8-15.045,29.444-14.398,30.24-14.398z"/>
			<path fill="#231F20" d="M15.84-14.398c0.795,0,1.441-0.646,1.441-1.441c0-0.795-0.646-1.44-1.441-1.44
				c-0.796,0-1.439,0.645-1.439,1.44C14.4-15.045,15.044-14.398,15.84-14.398z"/>
			<path fill="#231F20" d="M8.64-7.199c0.795,0,1.44-0.645,1.44-1.439c0-0.797-0.646-1.441-1.44-1.441
				C7.844-10.08,7.2-9.436,7.2-8.639C7.2-7.844,7.844-7.199,8.64-7.199z"/>
			<path fill="#231F20" d="M23.04-7.199c0.795,0,1.44-0.645,1.44-1.439c0-0.797-0.646-1.441-1.44-1.441
				c-0.796,0-1.44,0.645-1.44,1.441C21.6-7.844,22.244-7.199,23.04-7.199z"/>
			<path fill="#231F20" d="M8.64-21.6c0.795,0,1.44-0.645,1.44-1.44c0-0.797-0.646-1.441-1.44-1.441
				c-0.796,0-1.439,0.645-1.439,1.441C7.2-22.244,7.844-21.6,8.64-21.6z"/>
			<path fill="#231F20" d="M23.04-21.6c0.795,0,1.44-0.645,1.44-1.44c0-0.797-0.646-1.441-1.44-1.441
				c-0.796,0-1.44,0.645-1.44,1.441C21.6-22.244,22.244-21.6,23.04-21.6z"/>
		</g>
		<g>
			<path fill="#231F20" d="M1.44,0C2.235,0,2.88-0.645,2.88-1.439c0-0.795-0.645-1.439-1.439-1.439C0.645-2.879,0-2.234,0-1.439
				C0-0.645,0.645,0,1.44,0z"/>
			<path fill="#231F20" d="M1.44-14.398c0.795,0,1.439-0.646,1.439-1.441c0-0.795-0.645-1.44-1.439-1.44
				c-0.796,0-1.44,0.645-1.44,1.44C0-15.045,0.645-14.398,1.44-14.398z"/>
		</g>
		<g>
			<path fill="#231F20" d="M30.24-28.801c0.795,0,1.44-0.644,1.44-1.439c0-0.795-0.645-1.44-1.44-1.44
				c-0.796,0-1.44,0.645-1.44,1.44C28.8-29.445,29.444-28.801,30.24-28.801z"/>
			<path fill="#231F20" d="M15.84-28.801c0.795,0,1.441-0.644,1.441-1.439c0-0.795-0.646-1.44-1.441-1.44
				c-0.796,0-1.439,0.645-1.439,1.44C14.4-29.445,15.044-28.801,15.84-28.801z"/>
		</g>
		<g>
			<path fill="#231F20" d="M1.44-28.801c0.795,0,1.439-0.644,1.439-1.439c0-0.795-0.645-1.44-1.439-1.44
				C0.645-31.68,0-31.035,0-30.24C0-29.445,0.645-28.801,1.44-28.801z"/>
		</g>
	</g>
</pattern>
<g>
	<g>
		<g opacity="0.5">
			<g>
				<g>
					<path fill="url(#_x31_0_dpi_20_x25_)" d="M10,123.666L10,123.666c0.001,9.709,7.873,17.58,17.582,17.58h273.797
						c9.71,0,17.582-7.872,17.582-17.582v0c0-9.71-7.872-17.582-17.582-17.582h-40.964c-9.71,0-17.582-7.872-17.582-17.582v0
						c0-9.71,7.872-17.582,17.582-17.582h5.688c9.71,0,17.582-7.872,17.582-17.582v0c0-9.71-7.872-17.582-17.582-17.582H51.211
						c-9.71,0-17.582,7.872-17.582,17.582v0c0,9.71,7.872,17.582,17.582,17.582h43.102c9.649,0,17.496,7.777,17.581,17.426v0
						c0.087,9.771-7.81,17.738-17.581,17.738l-66.731,0C17.871,106.082,9.999,113.955,10,123.666z"/>
				</g>
			</g>
		</g>
		<g>
			<g>
				<g>
					<path fill="#D7DEE5" d="M0,113.666L0,113.666c0.001,9.709,7.873,17.58,17.582,17.58h273.797c9.71,0,17.582-7.872,17.582-17.582
						v0c0-9.71-7.872-17.582-17.582-17.582h-40.964c-9.71,0-17.582-7.872-17.582-17.582v0c0-9.71,7.872-17.582,17.582-17.582h5.688
						c9.71,0,17.582-7.872,17.582-17.582v0c0-9.71-7.872-17.582-17.582-17.582H41.211c-9.71,0-17.582,7.872-17.582,17.582v0
						c0,9.71,7.872,17.582,17.582,17.582h43.102c9.649,0,17.496,7.777,17.581,17.426v0c0.087,9.771-7.81,17.738-17.581,17.738
						l-66.731,0C7.871,96.082-0.001,103.955,0,113.666z"/>
				</g>
			</g>
		</g>
	</g>
	<g>
		<linearGradient id="SVGID_1_" gradientUnits="userSpaceOnUse" x1="100.9805" y1="72.5" x2="240.9805" y2="72.5">
			<stop  offset="0" style="stop-color:#1DA5C9"/>
			<stop  offset="1" style="stop-color:#1D85DB"/>
		</linearGradient>
		
			<rect x="100.98" y="2.5" opacity="0.5" fill="url(#SVGID_1_)" stroke="#000000" stroke-width="5" stroke-linejoin="round" stroke-miterlimit="10" width="140" height="140"/>
		<linearGradient id="SVGID_2_" gradientUnits="userSpaceOnUse" x1="217.9805" y1="83.5001" x2="240.9805" y2="83.5001">
			<stop  offset="0" style="stop-color:#1DA5C9"/>
			<stop  offset="1" style="stop-color:#1D85DB"/>
		</linearGradient>
		
			<polygon opacity="0.5" fill="url(#SVGID_2_)" stroke="#000000" stroke-width="5" stroke-linejoin="round" stroke-miterlimit="10" points="
			240.98,142.5 217.98,164.5 217.98,24.5 240.98,2.5 		"/>
		<linearGradient id="SVGID_3_" gradientUnits="userSpaceOnUse" x1="77.9805" y1="83.5001" x2="100.9805" y2="83.5001">
			<stop  offset="0" style="stop-color:#1DA5C9"/>
			<stop  offset="1" style="stop-color:#1D85DB"/>
		</linearGradient>
		
			<polygon opacity="0.5" fill="url(#SVGID_3_)" stroke="#000000" stroke-width="5" stroke-linejoin="round" stroke-miterlimit="10" points="
			100.98,142.5 77.98,164.5 77.98,24.5 100.592,2.5 		"/>
		<linearGradient id="SVGID_4_" gradientUnits="userSpaceOnUse" x1="77.9805" y1="94.5001" x2="217.9805" y2="94.5001">
			<stop  offset="0" style="stop-color:#1DA5C9"/>
			<stop  offset="1" style="stop-color:#1D85DB"/>
		</linearGradient>
		
			<rect x="77.98" y="24.5" fill="url(#SVGID_4_)" stroke="#000000" stroke-width="5" stroke-linejoin="round" stroke-miterlimit="10" width="140" height="140"/>
		<linearGradient id="SVGID_5_" gradientUnits="userSpaceOnUse" x1="77.9805" y1="153.5001" x2="240.9805" y2="153.5001">
			<stop  offset="0" style="stop-color:#1DA5C9"/>
			<stop  offset="1" style="stop-color:#1D85DB"/>
		</linearGradient>
		
			<polygon opacity="0.5" fill="url(#SVGID_5_)" stroke="#000000" stroke-width="5" stroke-linejoin="round" stroke-miterlimit="10" points="
			217.98,164.5 77.98,164.5 100.98,142.5 240.98,142.5 		"/>
		<linearGradient id="SVGID_6_" gradientUnits="userSpaceOnUse" x1="77.9805" y1="13.5001" x2="240.4242" y2="13.5001">
			<stop  offset="0" style="stop-color:#1DA5C9"/>
			<stop  offset="1" style="stop-color:#1D85DB"/>
		</linearGradient>
		
			<polygon opacity="0.5" fill="url(#SVGID_6_)" stroke="#000000" stroke-width="5" stroke-linejoin="round" stroke-miterlimit="10" points="
			217.98,24.5 77.98,24.5 100.592,2.5 240.424,3.032 		"/>
	</g>
</g>
</svg>
