<?xml version="1.0" encoding="utf-8"?>
<!-- Generator: Adobe Illustrator 21.0.2, SVG Export Plug-In . SVG Version: 6.00 Build 0)  -->
<svg version="1.1" id="Layer_1" xmlns="http://www.w3.org/2000/svg" xmlns:xlink="http://www.w3.org/1999/xlink" x="0px" y="0px"
	 viewBox="0 0 600 600" style="enable-background:new 0 0 600 600;" xml:space="preserve">
<style type="text/css">
	.st0{fill-rule:evenodd;clip-rule:evenodd;fill:url(#SVGID_1_);}
	.st1{fill:none;}
	.st2{opacity:0.15;fill:url(#SVGID_2_);}
	.st3{opacity:0.5;fill:url(#SVGID_3_);}
	.st4{fill:url(#SVGID_4_);}
	.st5{opacity:3.000000e-02;fill:none;stroke:#FFFFFF;stroke-width:2;stroke-miterlimit:10;}
	.st6{opacity:0.15;fill:url(#SVGID_5_);}
	.st7{opacity:0.5;fill:url(#SVGID_6_);}
	.st8{fill:url(#SVGID_7_);}
	.st9{opacity:0.15;fill:url(#SVGID_8_);}
	.st10{opacity:0.5;fill:url(#SVGID_9_);}
	.st11{fill:url(#SVGID_10_);}
	.st12{opacity:0.15;fill:url(#SVGID_11_);}
	.st13{opacity:0.5;fill:url(#SVGID_12_);}
	.st14{fill:url(#SVGID_13_);}
	.st15{fill:#FFFFFF;}
	.st16{fill-rule:evenodd;clip-rule:evenodd;fill:none;stroke:#FFFFFF;stroke-width:2;stroke-miterlimit:10;}
	.st17{fill:none;stroke:#F2EDC9;stroke-width:2;stroke-miterlimit:10;}
	.st18{fill:none;stroke:#FFFCF8;stroke-width:2;stroke-miterlimit:10;}
	.st19{fill:none;stroke:#FFFFFF;stroke-width:2;stroke-miterlimit:10;}
	.st20{fill:#1A1A1A;}
	.st21{fill:#D87305;}
	.st22{fill:#050505;}
	.st23{opacity:0.85;fill:#4D4D4D;}
	.st24{opacity:0.85;fill:#1A1A1A;}
	.st25{fill:#ECC19C;}
	.st26{fill:#B19177;}
	.st27{fill:#4A0F00;}
	.st28{fill:#F5E0CD;stroke:#CF9E76;stroke-width:3;stroke-miterlimit:10;}
	.st29{fill:none;stroke:#CF9E76;stroke-miterlimit:10;}
	.st30{fill:#FFFFFF;stroke:#CF9E76;stroke-width:5;stroke-miterlimit:10;}
	.st31{fill:#B5917C;stroke:#020202;stroke-miterlimit:10;}
	.st32{fill:#7D4921;}
	.st33{opacity:0.85;fill-rule:evenodd;clip-rule:evenodd;fill:#4D4D4D;}
</style>
<linearGradient id="SVGID_1_" gradientUnits="userSpaceOnUse" x1="470.0216" y1="106.0087" x2="263.1527" y2="439.2827" gradientTransform="matrix(-0.8462 0.5328 -0.5328 -0.8462 757.4037 420.7925)">
	<stop  offset="0" style="stop-color:#003FBC"/>
	<stop  offset="1" style="stop-color:#10002A"/>
</linearGradient>
<path class="st0" d="M577.9,299.1c0,0-15.4,341.5-279.6,273S-21.9,355.5,59.1,209.9s210.2-182,267.5-171.1S584.5,187.6,577.9,299.1z
	"/>
<g>
	<line class="st1" x1="311.6" y1="193.4" x2="349" y2="238.4"/>
	<circle class="st1" cx="311.6" cy="193.4" r="48.8"/>
	<circle class="st1" cx="311.6" cy="193.4" r="58.5"/>
	<polyline class="st1" points="311.6,193.4 427.8,57.2 311.6,193.4 195.4,329.6 311.6,193.4 447.8,309.6 311.6,193.4 175.4,77.2 
		311.6,193.4 268.1,66.8 311.6,193.4 355.2,320 311.6,193.4 438.2,149.8 311.6,193.4 185,236.9 311.6,193.4 420.8,-20.8 
		311.6,193.4 202.5,407.6 311.6,193.4 525.8,302.5 311.6,193.4 97.4,84.2 311.6,193.4 198.1,-37.9 311.6,199.4 425.1,430.7 
		311.6,199.4 542.9,79.9 311.6,193.4 80.4,306.9 311.6,193.4 188.4,-47.7 311.6,199.4 434.9,440.4 311.6,199.4 552.7,70.1 
		311.6,193.4 70.6,316.6 311.6,193.4 347.3,109.8 311.6,193.4 275.9,276.9 311.6,193.4 395.2,229.1 311.6,193.4 228.1,157.7 
		311.6,193.4 355.5,96 311.6,193.4 267.8,290.8 311.6,193.4 409,237.2 311.6,193.4 214.2,149.5 311.6,193.4 297.7,68.9 311.6,193.4 
		340.8,451.5 311.6,193.4 569.8,164.2 311.6,193.4 53.5,222.5 311.6,193.4 311.2,191.6 311.6,193.4 312.1,195.2 311.6,193.4 
		313.4,192.9 311.6,193.4 309.8,193.8 311.6,193.4 313.4,185.8 311.6,193.4 309.8,201 311.6,193.4 319.2,195.2 311.6,193.4 
		304,191.6 311.6,193.4 346.3,172.4 311.6,193.4 276.9,214.4 311.6,193.4 332.6,228.1 311.6,193.4 290.6,158.7 311.6,193.4 
		337.5,111 311.6,193.4 285.7,275.7 311.6,193.4 394,219.3 311.6,193.4 229.3,167.5 311.6,193.4 312.6,-70.4 311.6,193.4 
		310.6,457.2 311.6,193.4 575.4,194.4 311.6,193.4 47.8,192.4 311.6,193.4 355.5,159.1 311.6,193.4 267.7,227.6 311.6,193.4 
		345.9,237.3 311.6,193.4 277.4,149.5 311.6,193.4 288,-92 311.6,193.4 335.2,478.8 311.6,193.4 597,169.8 311.6,193.4 26.2,217 	
		"/>
	<radialGradient id="SVGID_2_" cx="311.6214" cy="193.3777" r="117.0481" gradientUnits="userSpaceOnUse">
		<stop  offset="0" style="stop-color:#230000"/>
		<stop  offset="0.73" style="stop-color:#93432A"/>
		<stop  offset="1" style="stop-color:#230000"/>
	</radialGradient>
	<circle class="st2" cx="311.6" cy="193.4" r="117"/>
	<radialGradient id="SVGID_3_" cx="311.6214" cy="193.3777" r="58.5241" gradientUnits="userSpaceOnUse">
		<stop  offset="0.15" style="stop-color:#FFFFFF"/>
		<stop  offset="0.2114" style="stop-color:#E2D1D2"/>
		<stop  offset="0.2918" style="stop-color:#BF9A9C"/>
		<stop  offset="0.3613" style="stop-color:#A67276"/>
		<stop  offset="0.4163" style="stop-color:#975A5E"/>
		<stop  offset="0.45" style="stop-color:#915155"/>
		<stop  offset="0.5553" style="stop-color:#6C3638"/>
		<stop  offset="0.6842" style="stop-color:#44191A"/>
		<stop  offset="0.787" style="stop-color:#2C0707"/>
		<stop  offset="0.85" style="stop-color:#230000"/>
		<stop  offset="0.8572" style="stop-color:#270201"/>
		<stop  offset="0.8647" style="stop-color:#340805"/>
		<stop  offset="0.8723" style="stop-color:#48120B"/>
		<stop  offset="0.88" style="stop-color:#652114"/>
		<stop  offset="0.8878" style="stop-color:#8B331F"/>
		<stop  offset="0.8955" style="stop-color:#B8492D"/>
		<stop  offset="0.9" style="stop-color:#D65836"/>
		<stop  offset="0.903" style="stop-color:#C95232"/>
		<stop  offset="0.9146" style="stop-color:#9D3C25"/>
		<stop  offset="0.9267" style="stop-color:#782A1A"/>
		<stop  offset="0.9392" style="stop-color:#591B10"/>
		<stop  offset="0.9523" style="stop-color:#410F09"/>
		<stop  offset="0.9661" style="stop-color:#300604"/>
		<stop  offset="0.9812" style="stop-color:#260201"/>
		<stop  offset="1" style="stop-color:#230000"/>
	</radialGradient>
	<circle class="st3" cx="311.6" cy="193.4" r="58.5"/>
	<radialGradient id="SVGID_4_" cx="311.6214" cy="193.3777" r="48.77" gradientUnits="userSpaceOnUse">
		<stop  offset="0.15" style="stop-color:#FFFFFF"/>
		<stop  offset="0.2824" style="stop-color:#C2C2C2"/>
		<stop  offset="0.4253" style="stop-color:#888888"/>
		<stop  offset="0.5636" style="stop-color:#575757"/>
		<stop  offset="0.6936" style="stop-color:#313131"/>
		<stop  offset="0.8134" style="stop-color:#161616"/>
		<stop  offset="0.9192" style="stop-color:#060606"/>
		<stop  offset="1" style="stop-color:#000000"/>
	</radialGradient>
	<circle class="st4" cx="311.6" cy="193.4" r="48.8"/>
	<polyline class="st5" points="311.6,193.4 427.8,57.2 311.6,193.4 195.4,329.6 311.6,193.4 447.8,309.6 311.6,193.4 175.4,77.2 
		311.6,193.4 268.1,66.8 311.6,193.4 355.2,320 311.6,193.4 438.2,149.8 311.6,193.4 185,236.9 311.6,193.4 420.8,-20.8 
		311.6,193.4 202.5,407.6 311.6,193.4 525.8,302.5 311.6,193.4 97.4,84.2 311.6,193.4 198.1,-37.9 311.6,199.4 425.1,430.7 
		311.6,199.4 542.9,79.9 311.6,193.4 80.4,306.9 311.6,193.4 188.4,-47.7 311.6,199.4 434.9,440.4 311.6,199.4 552.7,70.1 
		311.6,193.4 70.6,316.6 311.6,193.4 347.3,109.8 311.6,193.4 275.9,276.9 311.6,193.4 395.2,229.1 311.6,193.4 228.1,157.7 
		311.6,193.4 355.5,96 311.6,193.4 267.8,290.8 311.6,193.4 409,237.2 311.6,193.4 214.2,149.5 311.6,193.4 296.5,56.8 311.6,193.4 
		340.8,451.5 311.6,193.4 569.8,164.2 311.6,193.4 53.5,222.5 311.6,193.4 311.2,191.6 311.6,193.4 312.1,195.2 311.6,193.4 
		313.4,192.9 311.6,193.4 309.8,193.8 311.6,193.4 313.4,185.8 311.6,193.4 309.8,201 311.6,193.4 319.2,195.2 311.6,193.4 
		304,191.6 311.6,193.4 346.3,172.4 311.6,193.4 276.9,214.4 311.6,193.4 332.6,228.1 311.6,193.4 290.6,158.7 311.6,193.4 
		337.5,111 311.6,193.4 285.7,275.7 311.6,193.4 394,219.3 311.6,193.4 229.3,167.5 311.6,193.4 312.6,-70.4 311.6,193.4 
		310.6,457.2 311.6,193.4 575.4,194.4 311.6,193.4 47.8,192.4 311.6,193.4 355.5,159.1 311.6,193.4 267.7,227.6 311.6,193.4 
		345.9,237.3 311.6,193.4 277.4,149.5 311.6,193.4 288,-92 311.6,193.4 335.2,478.8 311.6,193.4 597,169.8 311.6,193.4 26.2,217 	
		"/>
</g>
<g>
	<line class="st1" x1="276.7" y1="110.8" x2="278.5" y2="113.1"/>
	<circle class="st1" cx="276.7" cy="110.8" r="2.4"/>
	<circle class="st1" cx="276.7" cy="110.8" r="2.9"/>
	<polyline class="st1" points="276.7,110.8 282.5,104 276.7,110.8 270.9,117.6 276.7,110.8 283.5,116.6 276.7,110.8 269.9,105 
		276.7,110.8 274.5,104.5 276.7,110.8 278.8,117.1 276.7,110.8 283,108.7 276.7,110.8 270.4,113 276.7,110.8 282.1,100.2 
		276.7,110.8 271.2,121.5 276.7,110.8 287.3,116.3 276.7,110.8 266,105.4 276.7,110.8 271,99.3 276.7,110.8 282.3,122.3 
		276.7,110.8 288.2,105.2 276.7,110.8 265.1,116.5 276.7,110.8 270.5,98.8 276.7,110.8 282.8,122.8 276.7,110.8 288.7,104.7 
		276.7,110.8 264.7,117 276.7,110.8 278.4,106.7 276.7,110.8 274.9,115 276.7,110.8 280.8,112.6 276.7,110.8 272.5,109 276.7,110.8 
		278.9,106 276.7,110.8 274.5,115.7 276.7,110.8 281.5,113 276.7,110.8 271.8,108.6 276.7,110.8 276,104.6 276.7,110.8 278.1,123.7 
		276.7,110.8 289.5,109.4 276.7,110.8 263.8,112.3 276.7,110.8 276.7,110.7 276.7,110.8 276.7,110.9 276.7,110.8 276.8,110.8 
		276.7,110.8 276.6,110.8 276.7,110.8 276.8,110.4 276.7,110.8 276.6,111.2 276.7,110.8 277.1,110.9 276.7,110.8 276.3,110.7 
		276.7,110.8 278.4,109.8 276.7,110.8 274.9,111.9 276.7,110.8 277.7,112.6 276.7,110.8 275.6,109.1 276.7,110.8 278,106.7 
		276.7,110.8 275.4,114.9 276.7,110.8 280.8,112.1 276.7,110.8 272.6,109.5 276.7,110.8 276.7,97.7 276.7,110.8 276.6,124 
		276.7,110.8 289.8,110.9 276.7,110.8 263.5,110.8 276.7,110.8 278.9,109.1 276.7,110.8 274.5,112.5 276.7,110.8 278.4,113 
		276.7,110.8 275,108.6 276.7,110.8 275.5,96.6 276.7,110.8 277.8,125 276.7,110.8 290.9,109.6 276.7,110.8 262.5,112 	"/>
	<radialGradient id="SVGID_5_" cx="276.6721" cy="110.8253" r="5.8324" gradientUnits="userSpaceOnUse">
		<stop  offset="0" style="stop-color:#230000"/>
		<stop  offset="0.73" style="stop-color:#93432A"/>
		<stop  offset="1" style="stop-color:#230000"/>
	</radialGradient>
	<circle class="st6" cx="276.7" cy="110.8" r="5.8"/>
	<radialGradient id="SVGID_6_" cx="276.6721" cy="110.8253" r="2.9162" gradientUnits="userSpaceOnUse">
		<stop  offset="0.15" style="stop-color:#FFFFFF"/>
		<stop  offset="0.2114" style="stop-color:#E2D1D2"/>
		<stop  offset="0.2918" style="stop-color:#BF9A9C"/>
		<stop  offset="0.3613" style="stop-color:#A67276"/>
		<stop  offset="0.4163" style="stop-color:#975A5E"/>
		<stop  offset="0.45" style="stop-color:#915155"/>
		<stop  offset="0.5553" style="stop-color:#6C3638"/>
		<stop  offset="0.6842" style="stop-color:#44191A"/>
		<stop  offset="0.787" style="stop-color:#2C0707"/>
		<stop  offset="0.85" style="stop-color:#230000"/>
		<stop  offset="0.8572" style="stop-color:#270201"/>
		<stop  offset="0.8647" style="stop-color:#340805"/>
		<stop  offset="0.8723" style="stop-color:#48120B"/>
		<stop  offset="0.88" style="stop-color:#652114"/>
		<stop  offset="0.8878" style="stop-color:#8B331F"/>
		<stop  offset="0.8955" style="stop-color:#B8492D"/>
		<stop  offset="0.9" style="stop-color:#D65836"/>
		<stop  offset="0.903" style="stop-color:#C95232"/>
		<stop  offset="0.9146" style="stop-color:#9D3C25"/>
		<stop  offset="0.9267" style="stop-color:#782A1A"/>
		<stop  offset="0.9392" style="stop-color:#591B10"/>
		<stop  offset="0.9523" style="stop-color:#410F09"/>
		<stop  offset="0.9661" style="stop-color:#300604"/>
		<stop  offset="0.9812" style="stop-color:#260201"/>
		<stop  offset="1" style="stop-color:#230000"/>
	</radialGradient>
	<circle class="st7" cx="276.7" cy="110.8" r="2.9"/>
	<radialGradient id="SVGID_7_" cx="276.6721" cy="110.8253" r="2.4302" gradientUnits="userSpaceOnUse">
		<stop  offset="0.15" style="stop-color:#FFFFFF"/>
		<stop  offset="0.2824" style="stop-color:#C2C2C2"/>
		<stop  offset="0.4253" style="stop-color:#888888"/>
		<stop  offset="0.5636" style="stop-color:#575757"/>
		<stop  offset="0.6936" style="stop-color:#313131"/>
		<stop  offset="0.8134" style="stop-color:#161616"/>
		<stop  offset="0.9192" style="stop-color:#060606"/>
		<stop  offset="1" style="stop-color:#000000"/>
	</radialGradient>
	<circle class="st8" cx="276.7" cy="110.8" r="2.4"/>
	<polyline class="st5" points="276.7,110.8 282.5,104 276.7,110.8 270.9,117.6 276.7,110.8 283.5,116.6 276.7,110.8 269.9,105 
		276.7,110.8 274.5,104.5 276.7,110.8 278.8,117.1 276.7,110.8 283,108.7 276.7,110.8 270.4,113 276.7,110.8 282.1,100.2 
		276.7,110.8 271.2,121.5 276.7,110.8 287.3,116.3 276.7,110.8 266,105.4 276.7,110.8 271,99.3 276.7,110.8 282.3,122.3 
		276.7,110.8 288.2,105.2 276.7,110.8 265.1,116.5 276.7,110.8 270.5,98.8 276.7,110.8 282.8,122.8 276.7,110.8 288.7,104.7 
		276.7,110.8 264.7,117 276.7,110.8 278.4,106.7 276.7,110.8 274.9,115 276.7,110.8 280.8,112.6 276.7,110.8 272.5,109 276.7,110.8 
		278.9,106 276.7,110.8 274.5,115.7 276.7,110.8 281.5,113 276.7,110.8 271.8,108.6 276.7,110.8 275.9,104 276.7,110.8 278.1,123.7 
		276.7,110.8 289.5,109.4 276.7,110.8 263.8,112.3 276.7,110.8 276.7,110.7 276.7,110.8 276.7,110.9 276.7,110.8 276.8,110.8 
		276.7,110.8 276.6,110.8 276.7,110.8 276.8,110.4 276.7,110.8 276.6,111.2 276.7,110.8 277.1,110.9 276.7,110.8 276.3,110.7 
		276.7,110.8 278.4,109.8 276.7,110.8 274.9,111.9 276.7,110.8 277.7,112.6 276.7,110.8 275.6,109.1 276.7,110.8 278,106.7 
		276.7,110.8 275.4,114.9 276.7,110.8 280.8,112.1 276.7,110.8 272.6,109.5 276.7,110.8 276.7,97.7 276.7,110.8 276.6,124 
		276.7,110.8 289.8,110.9 276.7,110.8 263.5,110.8 276.7,110.8 278.9,109.1 276.7,110.8 274.5,112.5 276.7,110.8 278.4,113 
		276.7,110.8 275,108.6 276.7,110.8 275.5,96.6 276.7,110.8 277.8,125 276.7,110.8 290.9,109.6 276.7,110.8 262.5,112 	"/>
</g>
<g>
	<line class="st1" x1="146.5" y1="173.5" x2="149.6" y2="177.2"/>
	<circle class="st1" cx="146.5" cy="173.5" r="4"/>
	<circle class="st1" cx="146.5" cy="173.5" r="4.8"/>
	<polyline class="st1" points="146.5,173.5 156.1,162.3 146.5,173.5 137,184.7 146.5,173.5 157.7,183 146.5,173.5 135.3,163.9 
		146.5,173.5 142.9,163.1 146.5,173.5 150.1,183.9 146.5,173.5 156.9,169.9 146.5,173.5 136.1,177.1 146.5,173.5 155.5,155.9 
		146.5,173.5 137.5,191.1 146.5,173.5 164.1,182.5 146.5,173.5 128.9,164.5 146.5,173.5 137.2,154.5 146.5,173.5 155.8,192.5 
		146.5,173.5 165.5,164.2 146.5,173.5 127.5,182.8 146.5,173.5 136.4,153.7 146.5,173.5 156.6,193.3 146.5,173.5 166.3,163.4 
		146.5,173.5 126.7,183.6 146.5,173.5 149.4,166.6 146.5,173.5 143.6,180.4 146.5,173.5 153.4,176.4 146.5,173.5 139.7,170.6 
		146.5,173.5 150.1,165.5 146.5,173.5 142.9,181.5 146.5,173.5 154.5,177.1 146.5,173.5 138.5,169.9 146.5,173.5 145.4,163.3 
		146.5,173.5 148.9,194.7 146.5,173.5 167.7,171.1 146.5,173.5 125.3,175.9 146.5,173.5 146.5,173.3 146.5,173.5 146.6,173.6 
		146.5,173.5 146.7,173.5 146.5,173.5 146.4,173.5 146.5,173.5 146.7,172.9 146.5,173.5 146.4,174.1 146.5,173.5 147.1,173.6 
		146.5,173.5 145.9,173.3 146.5,173.5 149.4,171.8 146.5,173.5 143.7,175.2 146.5,173.5 148.2,176.3 146.5,173.5 144.8,170.6 
		146.5,173.5 148.6,166.7 146.5,173.5 144.4,180.3 146.5,173.5 153.3,175.6 146.5,173.5 139.8,171.4 146.5,173.5 146.6,151.8 
		146.5,173.5 146.4,195.2 146.5,173.5 168.2,173.6 146.5,173.5 124.8,173.4 146.5,173.5 150.1,170.7 146.5,173.5 142.9,176.3 
		146.5,173.5 149.3,177.1 146.5,173.5 143.7,169.9 146.5,173.5 144.6,150 146.5,173.5 148.5,196.9 146.5,173.5 170,171.6 
		146.5,173.5 123.1,175.4 	"/>
	<radialGradient id="SVGID_8_" cx="146.5165" cy="173.4928" r="9.6163" gradientUnits="userSpaceOnUse">
		<stop  offset="0" style="stop-color:#230000"/>
		<stop  offset="0.73" style="stop-color:#93432A"/>
		<stop  offset="1" style="stop-color:#230000"/>
	</radialGradient>
	<circle class="st9" cx="146.5" cy="173.5" r="9.6"/>
	<radialGradient id="SVGID_9_" cx="146.5165" cy="173.4928" r="4.8081" gradientUnits="userSpaceOnUse">
		<stop  offset="0.15" style="stop-color:#FFFFFF"/>
		<stop  offset="0.2114" style="stop-color:#E2D1D2"/>
		<stop  offset="0.2918" style="stop-color:#BF9A9C"/>
		<stop  offset="0.3613" style="stop-color:#A67276"/>
		<stop  offset="0.4163" style="stop-color:#975A5E"/>
		<stop  offset="0.45" style="stop-color:#915155"/>
		<stop  offset="0.5553" style="stop-color:#6C3638"/>
		<stop  offset="0.6842" style="stop-color:#44191A"/>
		<stop  offset="0.787" style="stop-color:#2C0707"/>
		<stop  offset="0.85" style="stop-color:#230000"/>
		<stop  offset="0.8572" style="stop-color:#270201"/>
		<stop  offset="0.8647" style="stop-color:#340805"/>
		<stop  offset="0.8723" style="stop-color:#48120B"/>
		<stop  offset="0.88" style="stop-color:#652114"/>
		<stop  offset="0.8878" style="stop-color:#8B331F"/>
		<stop  offset="0.8955" style="stop-color:#B8492D"/>
		<stop  offset="0.9" style="stop-color:#D65836"/>
		<stop  offset="0.903" style="stop-color:#C95232"/>
		<stop  offset="0.9146" style="stop-color:#9D3C25"/>
		<stop  offset="0.9267" style="stop-color:#782A1A"/>
		<stop  offset="0.9392" style="stop-color:#591B10"/>
		<stop  offset="0.9523" style="stop-color:#410F09"/>
		<stop  offset="0.9661" style="stop-color:#300604"/>
		<stop  offset="0.9812" style="stop-color:#260201"/>
		<stop  offset="1" style="stop-color:#230000"/>
	</radialGradient>
	<circle class="st10" cx="146.5" cy="173.5" r="4.8"/>
	<radialGradient id="SVGID_10_" cx="146.5165" cy="173.4928" r="4.0068" gradientUnits="userSpaceOnUse">
		<stop  offset="0.15" style="stop-color:#FFFFFF"/>
		<stop  offset="0.2824" style="stop-color:#C2C2C2"/>
		<stop  offset="0.4253" style="stop-color:#888888"/>
		<stop  offset="0.5636" style="stop-color:#575757"/>
		<stop  offset="0.6936" style="stop-color:#313131"/>
		<stop  offset="0.8134" style="stop-color:#161616"/>
		<stop  offset="0.9192" style="stop-color:#060606"/>
		<stop  offset="1" style="stop-color:#000000"/>
	</radialGradient>
	<circle class="st11" cx="146.5" cy="173.5" r="4"/>
	<polyline class="st5" points="146.5,173.5 156.1,162.3 146.5,173.5 137,184.7 146.5,173.5 157.7,183 146.5,173.5 135.3,163.9 
		146.5,173.5 142.9,163.1 146.5,173.5 150.1,183.9 146.5,173.5 156.9,169.9 146.5,173.5 136.1,177.1 146.5,173.5 155.5,155.9 
		146.5,173.5 137.5,191.1 146.5,173.5 164.1,182.5 146.5,173.5 128.9,164.5 146.5,173.5 137.2,154.5 146.5,173.5 155.8,192.5 
		146.5,173.5 165.5,164.2 146.5,173.5 127.5,182.8 146.5,173.5 136.4,153.7 146.5,173.5 156.6,193.3 146.5,173.5 166.3,163.4 
		146.5,173.5 126.7,183.6 146.5,173.5 149.4,166.6 146.5,173.5 143.6,180.4 146.5,173.5 153.4,176.4 146.5,173.5 139.7,170.6 
		146.5,173.5 150.1,165.5 146.5,173.5 142.9,181.5 146.5,173.5 154.5,177.1 146.5,173.5 138.5,169.9 146.5,173.5 145.3,162.3 
		146.5,173.5 148.9,194.7 146.5,173.5 167.7,171.1 146.5,173.5 125.3,175.9 146.5,173.5 146.5,173.3 146.5,173.5 146.6,173.6 
		146.5,173.5 146.7,173.5 146.5,173.5 146.4,173.5 146.5,173.5 146.7,172.9 146.5,173.5 146.4,174.1 146.5,173.5 147.1,173.6 
		146.5,173.5 145.9,173.3 146.5,173.5 149.4,171.8 146.5,173.5 143.7,175.2 146.5,173.5 148.2,176.3 146.5,173.5 144.8,170.6 
		146.5,173.5 148.6,166.7 146.5,173.5 144.4,180.3 146.5,173.5 153.3,175.6 146.5,173.5 139.8,171.4 146.5,173.5 146.6,151.8 
		146.5,173.5 146.4,195.2 146.5,173.5 168.2,173.6 146.5,173.5 124.8,173.4 146.5,173.5 150.1,170.7 146.5,173.5 142.9,176.3 
		146.5,173.5 149.3,177.1 146.5,173.5 143.7,169.9 146.5,173.5 144.6,150 146.5,173.5 148.5,196.9 146.5,173.5 170,171.6 
		146.5,173.5 123.1,175.4 	"/>
</g>
<g>
	<line class="st1" x1="390.6" y1="359.7" x2="395.6" y2="365.7"/>
	<circle class="st1" cx="390.6" cy="359.7" r="6.5"/>
	<circle class="st1" cx="390.6" cy="359.7" r="7.8"/>
	<polyline class="st1" points="390.6,359.7 406.1,341.5 390.6,359.7 375,377.9 390.6,359.7 408.8,375.2 390.6,359.7 372.3,344.1 
		390.6,359.7 384.7,342.7 390.6,359.7 396.4,376.6 390.6,359.7 407.5,353.9 390.6,359.7 373.6,365.5 390.6,359.7 405.2,331 
		390.6,359.7 375.9,388.4 390.6,359.7 419.2,374.3 390.6,359.7 361.9,345.1 390.6,359.7 375.4,328.7 390.6,359.7 405.8,390.6 
		390.6,359.7 421.5,344.5 390.6,359.7 359.6,374.9 390.6,359.7 374.1,327.4 390.6,359.7 407.1,392 390.6,359.7 422.8,343.2 
		390.6,359.7 358.3,376.2 390.6,359.7 395.3,348.5 390.6,359.7 385.8,370.9 390.6,359.7 401.7,364.5 390.6,359.7 379.4,354.9 
		390.6,359.7 396.4,346.6 390.6,359.7 384.7,372.7 390.6,359.7 403.6,365.6 390.6,359.7 377.5,353.8 390.6,359.7 388.7,343 
		390.6,359.7 394.5,394.2 390.6,359.7 425.1,355.8 390.6,359.7 356,363.6 390.6,359.7 390.5,359.4 390.6,359.7 390.6,359.9 
		390.6,359.7 390.8,359.6 390.6,359.7 390.3,359.7 390.6,359.7 390.8,358.7 390.6,359.7 390.3,360.7 390.6,359.7 391.6,359.9 
		390.6,359.7 389.5,359.4 390.6,359.7 395.2,356.9 390.6,359.7 385.9,362.5 390.6,359.7 393.4,364.3 390.6,359.7 387.7,355 
		390.6,359.7 394,348.7 390.6,359.7 387.1,370.7 390.6,359.7 401.6,363.2 390.6,359.7 379.5,356.2 390.6,359.7 390.7,324.4 
		390.6,359.7 390.4,395 390.6,359.7 425.9,359.8 390.6,359.7 355.2,359.6 390.6,359.7 396.4,355.1 390.6,359.7 384.7,364.3 
		390.6,359.7 395.1,365.6 390.6,359.7 386,353.8 390.6,359.7 387.4,321.5 390.6,359.7 393.7,397.9 390.6,359.7 428.8,356.5 
		390.6,359.7 352.4,362.8 	"/>
	<radialGradient id="SVGID_11_" cx="390.5584" cy="359.6878" r="15.6693" gradientUnits="userSpaceOnUse">
		<stop  offset="0" style="stop-color:#230000"/>
		<stop  offset="0.73" style="stop-color:#93432A"/>
		<stop  offset="1" style="stop-color:#230000"/>
	</radialGradient>
	<circle class="st12" cx="390.6" cy="359.7" r="15.7"/>
	<radialGradient id="SVGID_12_" cx="390.5584" cy="359.6878" r="7.8347" gradientUnits="userSpaceOnUse">
		<stop  offset="0.15" style="stop-color:#FFFFFF"/>
		<stop  offset="0.2114" style="stop-color:#E2D1D2"/>
		<stop  offset="0.2918" style="stop-color:#BF9A9C"/>
		<stop  offset="0.3613" style="stop-color:#A67276"/>
		<stop  offset="0.4163" style="stop-color:#975A5E"/>
		<stop  offset="0.45" style="stop-color:#915155"/>
		<stop  offset="0.5553" style="stop-color:#6C3638"/>
		<stop  offset="0.6842" style="stop-color:#44191A"/>
		<stop  offset="0.787" style="stop-color:#2C0707"/>
		<stop  offset="0.85" style="stop-color:#230000"/>
		<stop  offset="0.8572" style="stop-color:#270201"/>
		<stop  offset="0.8647" style="stop-color:#340805"/>
		<stop  offset="0.8723" style="stop-color:#48120B"/>
		<stop  offset="0.88" style="stop-color:#652114"/>
		<stop  offset="0.8878" style="stop-color:#8B331F"/>
		<stop  offset="0.8955" style="stop-color:#B8492D"/>
		<stop  offset="0.9" style="stop-color:#D65836"/>
		<stop  offset="0.903" style="stop-color:#C95232"/>
		<stop  offset="0.9146" style="stop-color:#9D3C25"/>
		<stop  offset="0.9267" style="stop-color:#782A1A"/>
		<stop  offset="0.9392" style="stop-color:#591B10"/>
		<stop  offset="0.9523" style="stop-color:#410F09"/>
		<stop  offset="0.9661" style="stop-color:#300604"/>
		<stop  offset="0.9812" style="stop-color:#260201"/>
		<stop  offset="1" style="stop-color:#230000"/>
	</radialGradient>
	<circle class="st13" cx="390.6" cy="359.7" r="7.8"/>
	<radialGradient id="SVGID_13_" cx="390.5584" cy="359.6878" r="6.5289" gradientUnits="userSpaceOnUse">
		<stop  offset="0.15" style="stop-color:#FFFFFF"/>
		<stop  offset="0.2824" style="stop-color:#C2C2C2"/>
		<stop  offset="0.4253" style="stop-color:#888888"/>
		<stop  offset="0.5636" style="stop-color:#575757"/>
		<stop  offset="0.6936" style="stop-color:#313131"/>
		<stop  offset="0.8134" style="stop-color:#161616"/>
		<stop  offset="0.9192" style="stop-color:#060606"/>
		<stop  offset="1" style="stop-color:#000000"/>
	</radialGradient>
	<circle class="st14" cx="390.6" cy="359.7" r="6.5"/>
	<polyline class="st5" points="390.6,359.7 406.1,341.5 390.6,359.7 375,377.9 390.6,359.7 408.8,375.2 390.6,359.7 372.3,344.1 
		390.6,359.7 384.7,342.7 390.6,359.7 396.4,376.6 390.6,359.7 407.5,353.9 390.6,359.7 373.6,365.5 390.6,359.7 405.2,331 
		390.6,359.7 375.9,388.4 390.6,359.7 419.2,374.3 390.6,359.7 361.9,345.1 390.6,359.7 375.4,328.7 390.6,359.7 405.8,390.6 
		390.6,359.7 421.5,344.5 390.6,359.7 359.6,374.9 390.6,359.7 374.1,327.4 390.6,359.7 407.1,392 390.6,359.7 422.8,343.2 
		390.6,359.7 358.3,376.2 390.6,359.7 395.3,348.5 390.6,359.7 385.8,370.9 390.6,359.7 401.7,364.5 390.6,359.7 379.4,354.9 
		390.6,359.7 396.4,346.6 390.6,359.7 384.7,372.7 390.6,359.7 403.6,365.6 390.6,359.7 377.5,353.8 390.6,359.7 388.5,341.4 
		390.6,359.7 394.5,394.2 390.6,359.7 425.1,355.8 390.6,359.7 356,363.6 390.6,359.7 390.5,359.4 390.6,359.7 390.6,359.9 
		390.6,359.7 390.8,359.6 390.6,359.7 390.3,359.7 390.6,359.7 390.8,358.7 390.6,359.7 390.3,360.7 390.6,359.7 391.6,359.9 
		390.6,359.7 389.5,359.4 390.6,359.7 395.2,356.9 390.6,359.7 385.9,362.5 390.6,359.7 393.4,364.3 390.6,359.7 387.7,355 
		390.6,359.7 394,348.7 390.6,359.7 387.1,370.7 390.6,359.7 401.6,363.2 390.6,359.7 379.5,356.2 390.6,359.7 390.7,324.4 
		390.6,359.7 390.4,395 390.6,359.7 425.9,359.8 390.6,359.7 355.2,359.6 390.6,359.7 396.4,355.1 390.6,359.7 384.7,364.3 
		390.6,359.7 395.1,365.6 390.6,359.7 386,353.8 390.6,359.7 387.4,321.5 390.6,359.7 393.7,397.9 390.6,359.7 428.8,356.5 
		390.6,359.7 352.4,362.8 	"/>
</g>
<g>
	<g>
		<path class="st15" d="M173.6,237.1c1.9,0,1.9-3,0-3C171.7,234.1,171.7,237.1,173.6,237.1L173.6,237.1z"/>
	</g>
</g>
<g>
	<g>
		<path class="st15" d="M285.7,115c1.9,0,1.9-3,0-3C283.8,112,283.8,115,285.7,115L285.7,115z"/>
	</g>
</g>
<g>
	<g>
		<path class="st15" d="M245.9,102.4c1.9,0,1.9-3,0-3C244,99.4,244,102.4,245.9,102.4L245.9,102.4z"/>
	</g>
</g>
<g>
	<g>
		<path class="st15" d="M431.2,144.9c1.9,0,1.9-3,0-3C429.3,141.9,429.3,144.9,431.2,144.9L431.2,144.9z"/>
	</g>
</g>
<g>
	<g>
		<path class="st15" d="M437.6,205.4c1.9,0,1.9-3,0-3C435.6,202.4,435.6,205.4,437.6,205.4L437.6,205.4z"/>
	</g>
</g>
<g>
	<g>
		<path class="st15" d="M490,176.5c1.9,0,1.9-3,0-3C488,173.5,488,176.5,490,176.5L490,176.5z"/>
	</g>
</g>
<g>
	<g>
		<path class="st15" d="M339.9,282.2c1.9,0,1.9-3,0-3C338,279.2,338,282.2,339.9,282.2L339.9,282.2z"/>
	</g>
</g>
<g>
	<g>
		<path class="st15" d="M406.5,319.9c1.9,0,1.9-3,0-3C404.6,316.9,404.6,319.9,406.5,319.9L406.5,319.9z"/>
	</g>
</g>
<g>
	<g>
		<path class="st15" d="M371.6,426c1.9,0,1.9-3,0-3C369.6,423,369.6,426,371.6,426L371.6,426z"/>
	</g>
</g>
<g>
	<g>
		<path class="st15" d="M432.7,385.3c1.9,0,1.9-3,0-3C430.8,382.3,430.8,385.3,432.7,385.3L432.7,385.3z"/>
	</g>
</g>
<g>
	<g>
		<path class="st15" d="M477.3,310.3c1.9,0,1.9-3,0-3C475.4,307.3,475.4,310.3,477.3,310.3L477.3,310.3z"/>
	</g>
</g>
<g>
	<g>
		<path class="st15" d="M179.1,329.2c1.9,0,1.9-3,0-3C177.1,326.2,177.1,329.2,179.1,329.2L179.1,329.2z"/>
	</g>
</g>
<g>
	<g>
		<path class="st15" d="M125.7,411.5c1.9,0,1.9-3,0-3C123.8,408.5,123.8,411.5,125.7,411.5L125.7,411.5z"/>
	</g>
</g>
<g>
	<g>
		<path class="st15" d="M213.4,444.9c1.9,0,1.9-3,0-3C211.5,441.9,211.5,444.9,213.4,444.9L213.4,444.9z"/>
	</g>
</g>
<g>
	<g>
		<path class="st15" d="M243.2,425c1.9,0,1.9-3,0-3C241.3,422,241.3,425,243.2,425L243.2,425z"/>
	</g>
</g>
<g>
	<g>
		<path class="st15" d="M233.3,329.2c1.9,0,1.9-3,0-3C231.4,326.2,231.4,329.2,233.3,329.2L233.3,329.2z"/>
	</g>
</g>
<g>
	<g>
		<path class="st15" d="M61.6,329.5c1.9,0,1.9-3,0-3C59.6,326.5,59.6,329.5,61.6,329.5L61.6,329.5z"/>
	</g>
</g>
<g>
	<g>
		<path class="st15" d="M541.5,311.8c1.9,0,1.9-3,0-3C539.6,308.8,539.6,311.8,541.5,311.8L541.5,311.8z"/>
	</g>
</g>
<g>
	<g>
		<path class="st15" d="M393.3,106c1.9,0,1.9-3,0-3C391.3,103,391.3,106,393.3,106L393.3,106z"/>
	</g>
</g>
<g>
	<g>
		<path class="st15" d="M208,139.4c1.9,0,1.9-3,0-3C206.1,136.4,206.1,139.4,208,139.4L208,139.4z"/>
	</g>
</g>
<g>
	<g>
		<path class="st15" d="M197.1,185.5c1.9,0,1.9-3,0-3C195.2,182.5,195.2,185.5,197.1,185.5L197.1,185.5z"/>
	</g>
</g>
<g>
	<g>
		<path class="st15" d="M235.1,152.1c1.9,0,1.9-3,0-3C233.2,149.1,233.2,152.1,235.1,152.1L235.1,152.1z"/>
	</g>
</g>
<g>
	<g>
		<path class="st15" d="M365.2,119.6c1.9,0,1.9-3,0-3C363.3,116.6,363.3,119.6,365.2,119.6L365.2,119.6z"/>
	</g>
</g>
<g>
	<g>
		<path class="st15" d="M382.4,153c1.9,0,1.9-3,0-3C380.5,150,380.5,153,382.4,153L382.4,153z"/>
	</g>
</g>
<g>
	<g>
		<path class="st15" d="M462,506.7c1.9,0,1.9-3,0-3C460,503.7,460,506.7,462,506.7L462,506.7z"/>
	</g>
</g>
<g>
	<g>
		<path class="st15" d="M501.7,209.9c1.9,0,1.9-3,0-3C499.8,206.9,499.8,209.9,501.7,209.9L501.7,209.9z"/>
	</g>
</g>
<g>
	<g>
		<path class="st15" d="M430.3,277.7c1.9,0,1.9-3,0-3C428.4,274.7,428.4,277.7,430.3,277.7L430.3,277.7z"/>
	</g>
</g>
<g>
	<g>
		<path class="st15" d="M446.6,228c1.9,0,1.9-3,0-3C444.7,225,444.7,228,446.6,228L446.6,228z"/>
	</g>
</g>
<g>
	<g>
		<path class="st15" d="M457.4,263.3c1.9,0,1.9-3,0-3C455.5,260.3,455.5,263.3,457.4,263.3L457.4,263.3z"/>
	</g>
</g>
<g>
	<g>
		<path class="st15" d="M116.7,311.2c1.9,0,1.9-3,0-3C114.8,308.2,114.8,311.2,116.7,311.2L116.7,311.2z"/>
	</g>
</g>
<g>
	<g>
		<path class="st15" d="M512.6,373.5c1.9,0,1.9-3,0-3C510.6,370.5,510.6,373.5,512.6,373.5L512.6,373.5z"/>
	</g>
</g>
<g>
	<g>
		<path class="st15" d="M410.4,322c1.9,0,1.9-3,0-3C408.5,319,408.5,322,410.4,322L410.4,322z"/>
	</g>
</g>
<g>
	<g>
		<path class="st15" d="M336.3,525.4c1.9,0,1.9-3,0-3C334.4,522.4,334.4,525.4,336.3,525.4L336.3,525.4z"/>
	</g>
</g>
<g>
	<g>
		<path class="st15" d="M227.9,313.9c1.9,0,1.9-3,0-3C225.9,310.9,225.9,313.9,227.9,313.9L227.9,313.9z"/>
	</g>
</g>
<g>
	<g>
		<path class="st15" d="M217,341c1.9,0,1.9-3,0-3C215.1,338,215.1,341,217,341L217,341z"/>
	</g>
</g>
<g>
	<g>
		<path class="st15" d="M198,276.8c1.9,0,1.9-3,0-3C196.1,273.8,196.1,276.8,198,276.8L198,276.8z"/>
	</g>
</g>
<g>
	<g>
		<path class="st15" d="M181.8,472c1.9,0,1.9-3,0-3C179.8,469,179.8,472,181.8,472L181.8,472z"/>
	</g>
</g>
<g>
	<g>
		<path class="st15" d="M147.4,451.3c1.9,0,1.9-3,0-3C145.5,448.3,145.5,451.3,147.4,451.3L147.4,451.3z"/>
	</g>
</g>
<g>
	<path class="st16" d="M200.4,93.4c-0.6,0-1.1,0.5-1.1,1.1l-0.1,9.4c0,0.6,0.5,1.1,1.1,1.1c0.6,0,1.1-0.5,1.1-1.1l0.1-9.4
		C201.5,93.9,201,93.4,200.4,93.4z"/>
	<path class="st16" d="M210.6,107.1l4.8-8.1c0.3-0.5,0.1-1.2-0.4-1.5c-0.5-0.3-1.2-0.1-1.5,0.4l-4.8,8.1c-0.3,0.5-0.1,1.2,0.4,1.5
		C209.6,107.8,210.3,107.6,210.6,107.1z"/>
	<path class="st16" d="M216.9,114.4l8.2-4.6c0.5-0.3,0.7-1,0.4-1.5c-0.3-0.5-1-0.7-1.5-0.4l-8.2,4.6c-0.5,0.3-0.7,1-0.4,1.5
		C215.7,114.5,216.4,114.7,216.9,114.4z"/>
	<path class="st16" d="M171.9,123.5l9.4,0.1c0.6,0,1.1-0.5,1.1-1.1c0-0.6-0.5-1.1-1.1-1.1l-9.4-0.1c-0.6,0-1.1,0.5-1.1,1.1
		C170.8,122.9,171.3,123.4,171.9,123.5z"/>
	<path class="st16" d="M185.3,98.7l4.6,8.2c0.3,0.5,1,0.7,1.5,0.4c0.5-0.3,0.7-1,0.4-1.5l-4.6-8.2c-0.3-0.5-1-0.7-1.5-0.4
		C185.2,97.4,185,98.1,185.3,98.7z"/>
	<path class="st16" d="M174.9,107.7c-0.3,0.5-0.1,1.2,0.4,1.5l8.1,4.8c0.5,0.3,1.2,0.1,1.5-0.4c0.3-0.5,0.1-1.2-0.4-1.5l-8.1-4.8
		C175.9,107,175.2,107.2,174.9,107.7z"/>
	<path class="st16" d="M176.1,137.4l8.2-4.6c0.5-0.3,0.7-1,0.4-1.5c-0.3-0.5-1-0.7-1.5-0.4l-8.2,4.6c-0.5,0.3-0.7,1-0.4,1.5
		C174.9,137.5,175.6,137.7,176.1,137.4z"/>
	<path class="st16" d="M221.7,148.9c0.4,0.8,0.6,1.6,0.5,2.4c-0.1,0.8-0.4,1.6-0.9,2.3l-0.4,0.5l0.3,0.6c0.2,0.4,0.3,0.9,0.1,1.3
		c-0.1,0.4-0.4,0.8-0.8,1l-1.6,0.9c-0.4,0.2-0.9,0.3-1.3,0.2c-0.4-0.1-0.8-0.4-1-0.8l-0.3-0.6l-0.6,0.1c-0.8,0.1-1.7,0-2.4-0.4
		c-0.7-0.4-1.3-0.9-1.8-1.7l-3.8-6.7l10.3-5.8L221.7,148.9z M214.6,126.1c-0.6,3.7-1.2,7.6,2.5,14.4l-2.6,1.4l-8.2-14.6
		c-0.2-0.4-0.5-0.7-0.8-0.9c-0.3-0.2-0.7-0.4-1-0.5l0,0c-0.4-0.1-0.8-0.1-1.2-0.1c-0.4,0-0.8,0.2-1.1,0.4l0,0
		c-0.4,0.2-0.7,0.5-0.9,0.8c-0.2,0.3-0.4,0.7-0.5,1c-0.1,0.4-0.1,0.8-0.1,1.2c0,0.4,0.2,0.8,0.4,1.1l8.2,14.6l-2.6,1.4
		c-4-6.7-7.6-8.2-11.1-9.6c-2.9-1.2-5.6-2.3-8.2-6.9c-2-3.5-2.4-7.5-1.3-11.1c1-3.6,3.4-6.8,6.9-8.8c3.5-2,7.5-2.4,11.1-1.3
		c3.6,1,6.8,3.4,8.8,6.9C215.5,120.1,215.1,123,214.6,126.1z"/>
	<path class="st16" d="M229.4,122.9c0-0.6-0.5-1.1-1.1-1.1l-9.4-0.1c-0.6,0-1.1,0.5-1.1,1.1c0,0.6,0.5,1.1,1.1,1.1l9.4,0.1
		C228.9,124,229.4,123.5,229.4,122.9z"/>
	<path class="st16" d="M189.6,138.2l-4.8,8.1c-0.3,0.5-0.1,1.2,0.4,1.5c0.5,0.3,1.2,0.1,1.5-0.4l4.8-8.1c0.3-0.5,0.1-1.2-0.4-1.5
		C190.6,137.5,189.9,137.6,189.6,138.2z"/>
</g>
<g>
	<path class="st16" d="M133.3,289L133.3,289l3.1,3.1c1.3,1.3,3,1.9,4.7,1.9c1.7,0,3.4-0.6,4.6-1.9l0,0l0,0c0,0,0,0,0.1-0.1
		c1.2-1.3,1.8-2.9,1.8-4.6c0-1.7-0.6-3.4-1.9-4.6l-3.9-3.9c0,0,0,0,0,0l-36.5-36.3l-0.4-0.2l-1.7-0.7l-4.8-1.9l-6.5-2.6l-2.4-1
		l1,2.4l2.6,6.5l1.9,4.8l0.7,1.7l0.2,0.4l36.5,36.3L133.3,289z"/>
	<path class="st16" d="M139.4,279.7l-6.2,6.2L100,252.7c0.5-0.2,1-0.5,1.4-0.9c0.7-0.8,1.1-1.7,1.1-2.7l0,0l0,0c1,0,2-0.4,2.7-1.1
		c0.4-0.4,0.7-0.9,0.9-1.4L139.4,279.7z"/>
	<path class="st16" d="M144.1,284.3c0.8,0.8,1.3,2,1.3,3.1c0,1.1-0.4,2.2-1.2,3l0,0l0,0l0,0l0,0l0,0c-0.8,0.8-2,1.3-3.1,1.3
		c-1.1,0-2.2-0.4-3.1-1.3l-3.1-3.1l6.2-6.2L144.1,284.3z"/>
	<path class="st16" d="M94.3,240.9c-0.1,0.1-0.2,0.2-0.3,0.3l-0.4-1l1,0.4C94.5,240.7,94.4,240.8,94.3,240.9z"/>
</g>
<g>
	<g>
		<g>
			<g>
				<path class="st17" d="M161.7,451l2.2-4.8c0.5-1,0-2.1-1-2.6l-4.2-1.9c-1-0.5-1.6-1.7-1.5-2.7l0.3-7c-0.1-1.1,0.7-2.3,1.7-2.6
					l4.3-1.6c1-0.4,1.5-1.5,1.2-2.5l-1.9-5c-0.4-1-1.5-1.5-2.5-1.1l-4.3,1.6c-1,0.4-2.4,0-3-0.9l-4.8-5.1c-0.8-0.7-1.1-2.1-0.7-3.1
					l1.9-4.2c0.5-1,0-2.1-1-2.6l-4.8-2.2c-1-0.4-2.1,0-2.6,1l-1.9,4.2c-0.5,1-1.7,1.6-2.7,1.5l-7-0.3c-1.1,0.1-2.2-0.7-2.6-1.7
					l-1.6-4.3c-0.4-1-1.5-1.5-2.5-1.2l-5,1.8c-1,0.4-1.5,1.5-1.2,2.5l1.6,4.3c0.4,1,0,2.4-0.9,3l-5.2,4.8c-0.7,0.8-2.1,1.1-3,0.7
					l-4.2-1.9c-1-0.5-2.1,0-2.6,1l-2.2,4.8c-0.5,1,0,2.1,1,2.6l4.2,1.9c1,0.5,1.6,1.7,1.5,2.8l-0.3,7c0.1,1.1-0.7,2.3-1.7,2.6
					l-4.4,1.6c-1,0.4-1.5,1.5-1.2,2.5l1.9,5c0.4,1,1.5,1.5,2.5,1.1l4.4-1.6c1-0.4,2.4,0,3,0.9l4.8,5.2c0.8,0.7,1.1,2.1,0.7,3.1
					l-1.9,4.2c-0.5,1,0,2.1,1,2.6l4.8,2.2c1,0.5,2.1,0,2.6-1l1.9-4.2c0.4-1,1.7-1.6,2.7-1.5l7,0.3c1.1-0.1,2.2,0.7,2.6,1.7l1.6,4.4
					c0.4,1,1.5,1.5,2.5,1.1l5-1.8c1-0.4,1.5-1.5,1.2-2.5l-1.6-4.4c-0.4-1,0-2.4,0.9-3l5.2-4.8c0.7-0.8,2.1-1.1,3-0.7l4.2,1.9
					C160.1,452.4,161.2,452,161.7,451z M137.4,449c-8.1,3-17-1.1-20-9.2c-3-8.1,1.1-17,9.2-20c8.1-3,17,1.1,20,9.2
					C149.5,437.1,145.4,446,137.4,449z"/>
				<path class="st17" d="M200.5,452.3l-2-2.6c-0.4-0.5-1.2-0.6-1.7-0.2l-2.3,1.7c-0.5,0.4-1.4,0.4-1.9,0l-3.8-2.2
					c-0.6-0.3-1-1-0.9-1.7l0.4-2.8c0.1-0.7-0.4-1.3-1-1.4l-3.3-0.5c-0.7-0.1-1.3,0.4-1.4,1l-0.4,2.8c-0.1,0.7-0.7,1.3-1.4,1.4
					l-4.2,1.1c-0.6,0.2-1.5,0-1.9-0.5l-1.7-2.3c-0.4-0.5-1.2-0.6-1.7-0.2l-2.6,2c-0.5,0.4-0.6,1.2-0.2,1.7l1.7,2.3
					c0.4,0.5,0.4,1.4,0,1.9l-2.2,3.8c-0.3,0.6-1,1-1.7,0.9l-2.8-0.4c-0.7-0.1-1.3,0.4-1.4,1l-0.5,3.3c-0.1,0.7,0.4,1.3,1,1.4
					l2.8,0.4c0.7,0.1,1.3,0.7,1.4,1.4l1.1,4.2c0.2,0.6,0,1.5-0.5,1.9l-2.3,1.7c-0.5,0.4-0.6,1.2-0.2,1.7l2,2.6
					c0.4,0.5,1.2,0.6,1.7,0.2l2.3-1.7c0.5-0.4,1.4-0.4,1.9,0l3.8,2.2c0.6,0.3,1,1,0.9,1.7l-0.4,2.8c-0.1,0.7,0.4,1.3,1,1.4l3.3,0.4
					c0.7,0.1,1.3-0.4,1.4-1l0.4-2.9c0.1-0.7,0.7-1.3,1.4-1.4l4.2-1.1c0.6-0.2,1.5,0,1.9,0.5l1.7,2.3c0.4,0.5,1.2,0.6,1.7,0.2l2.6-2
					c0.5-0.4,0.6-1.2,0.2-1.7l-1.7-2.3c-0.4-0.5-0.4-1.4,0-1.9l2.2-3.8c0.3-0.6,1-1,1.7-0.9l2.8,0.4c0.7,0.1,1.3-0.4,1.4-1l0.5-3.3
					c0.1-0.7-0.4-1.3-1-1.4l-2.8-0.4c-0.7-0.1-1.3-0.7-1.4-1.4l-1.1-4.2c-0.2-0.6,0-1.5,0.5-1.9l2.3-1.7
					C200.8,453.6,200.9,452.8,200.5,452.3z M192.3,465c-0.7,5.3-5.6,9-10.9,8.2c-5.3-0.7-9-5.6-8.2-10.9c0.7-5.3,5.6-9,10.9-8.2
					C189.3,454.8,193,459.7,192.3,465z"/>
			</g>
		</g>
	</g>
</g>
<g>
	<g>
		<path class="st15" d="M244.7,405.4c1.9,0,1.9-3,0-3C242.8,402.4,242.7,405.4,244.7,405.4L244.7,405.4z"/>
	</g>
</g>
<g>
	<g>
		<path class="st15" d="M256.7,246.3c1.9,0,1.9-3,0-3C254.8,243.3,254.8,246.3,256.7,246.3L256.7,246.3z"/>
	</g>
</g>
<g>
	<g>
		<path class="st15" d="M106.7,224.6c1.9,0,1.9-3,0-3C104.8,221.6,104.8,224.6,106.7,224.6L106.7,224.6z"/>
	</g>
</g>
<g>
	<g>
		<path class="st15" d="M321.8,98.1c1.9,0,1.9-3,0-3C319.9,95.1,319.9,98.1,321.8,98.1L321.8,98.1z"/>
	</g>
</g>
<g>
	<g>
		<path class="st15" d="M391.1,179.5c1.9,0,1.9-3,0-3C389.2,176.5,389.2,179.5,391.1,179.5L391.1,179.5z"/>
	</g>
</g>
<g>
	<polyline class="st18" points="533.1,268.1 533.3,256.9 523.1,262.6 	"/>
	<circle class="st15" cx="468.8" cy="294.9" r="2.4"/>
	<circle class="st15" cx="480.9" cy="301.5" r="2.4"/>
	<circle class="st15" cx="498.4" cy="276.2" r="2.4"/>
	<circle class="st15" cx="523.7" cy="262.3" r="1.2"/>
	<circle class="st15" cx="533.3" cy="267.7" r="1.2"/>
	<circle class="st15" cx="514" cy="285.8" r="2.4"/>
	<line class="st19" x1="446.5" y1="312.9" x2="468.8" y2="294.9"/>
	<line class="st19" x1="480.9" y1="301.5" x2="468.8" y2="294.9"/>
	<line class="st19" x1="498.4" y1="276.2" x2="480.9" y2="301.5"/>
	<line class="st19" x1="514" y1="285.8" x2="498.4" y2="276.2"/>
	<line class="st19" x1="533.3" y1="256.9" x2="514" y2="285.8"/>
</g>
<g>
	<path class="st19" d="M435.1,121.7l-30.8-12.2l-0.4,18.9l23.7,10.4l13.8-20.9c0,0,2.6-2.8,5.3-1.6l8.3,3.6"/>
	<polyline class="st19" points="400.7,135.6 423.3,145.5 427.6,138.8 	"/>
	
		<ellipse transform="matrix(0.4015 -0.9158 0.9158 0.4015 113.7552 449.0893)" class="st15" cx="400.5" cy="137.5" rx="2.4" ry="2.4"/>
	
		<ellipse transform="matrix(0.4015 -0.9158 0.9158 0.4015 118.1023 475.0981)" class="st15" cx="422.6" cy="147.2" rx="2.4" ry="2.4"/>
</g>
<path d="M291.1,278.6l-3.6,19.9c0,0,22.3,23.5,44,0l-5.4-19.9C326,278.6,308.6,287,291.1,278.6z"/>
<path class="st20" d="M239.3,256.9c0,0-28.3,5.6-39.2-16.8C200.1,240,225.4,228.2,239.3,256.9z"/>
<path class="st20" d="M383.9,255.7c0,0,27.8,3.6,37.7-17.7C421.5,238,396.4,228.4,383.9,255.7z"/>
<path class="st20" d="M210.3,299.1c0,0,34.9,1.2,34.9-31.3C245.3,267.7,218.2,275.6,210.3,299.1"/>
<path class="st20" d="M409.8,299.1c0,0-34.9,1.2-34.9-31.3C374.8,267.7,402,275.6,409.8,299.1"/>
<path d="M231.7,259.5l18.8,19.1c0,0-10.2,24.5-28.9,22.8l-24.6-30.7c0,0-5.8-10.4,16.7-42.4c0,0,17.5-1.4,23.8,12
	C237.6,240.4,235.4,254.2,231.7,259.5z"/>
<path d="M391.2,258.7l-17.9,20c0,0,11.3,24,29.9,21.5l23.1-31.8c0,0,5.3-10.6-18.6-41.6c0,0-17.6-0.6-23.2,13.1
	C384.4,239.8,387.2,253.5,391.2,258.7z"/>
<g>
	<path class="st21" d="M411.9,574.2l-55.1-123c-0.1-0.2-0.1-0.4,0-0.6c1.9-4.6,25.6-87.4,26.5-118.3c0-0.2,0.1-0.4,0.3-0.5
		c2.3-2.1,20.5-18.8,26.1-31.9c0.2-0.4-0.1-0.9-0.5-1.1c-4.8-1.4-29.3-9.6-34.2-30c-0.1-0.5-0.8-0.8-1.2-0.4
		c-4.3,3.1-22,16.3-26.2,30.3c-0.2,0.5-0.8,0.7-1.3,0.4c-2.4-1.9-8.9-6.8-14.5-6.3c-0.1,0-0.3,0.1-0.4,0.1
		c-1.8,1.3-17.7,12.1-25.5,10.4c-0.5-0.1-1,0.3-0.9,24.9l3.6,177.6c1.8,0.6,1.4,8.8,1.8,9l7.2,3.6c6,2.4,12.9,10.6,14.5,15.1
		l15.5,46.5c0.1,0.3,0.4,0.5,0.7,0.5c4,0.4,31.2,2.8,63.1-5.3C411.8,575.2,412.1,574.7,411.9,574.2z"/>
	<path class="st21" d="M218.2,546.7l22.9-53.6l23-42.1c0,0-23.8-81.7-26.4-114.8c-0.2-2.7-1.5-5.3-3.4-7.2
		c-6.1-5.9-19.3-19.2-23.4-29.9c0,0,30.6-7.8,35.3-31.4c0,0,23.5,15.7,27.4,32.1c0,0,8.6-7.8,15.7-7.1c0,0,12.2,11.1,21.9,34.6
		l-0.6,187.4c0,0-7.5,3.9-10.8,6c-3.9,2.5-12.2,9.6-13.9,13.9l-12.1,30.1C273.6,564.8,237.5,555.8,218.2,546.7z"/>
</g>
<path class="st22" d="M258.5,438.3c0,0,60.8,9.1,103.5-0.9l-5.8,14.7c0,0-40.4,9.9-92.2,0.6C264,452.7,258.8,438.1,258.5,438.3z"/>
<path class="st23" d="M368.8,272.6c0.9-0.7,2.5,0.7,1.9,1.7c-6.5,9-18.5,28.1-20.8,42.4c-0.1,0.7-1.1,0.8-1.3,0.1
	c-1.2-5-3-13.9-1.2-17.4c0,0,0-0.1,0-0.1C347.7,298.3,349.5,287,368.8,272.6z"/>
<path class="st23" d="M249.5,270.7c-0.3-0.2-0.8,0.9-0.6,1.2c5.6,7.5,21.5,32.8,21.7,49.1c0,0,5.2-15.8,2.6-20.9
	C273.2,300.1,273,287.6,249.5,270.7z"/>
<path class="st24" d="M263.4,450.9c0,0-30.1,53-45.2,95.8c0,0,27.1,11.4,50,16.9c0,0-27.1-109.7,46.4-106.7
	C265.8,455.1,263.4,450.9,263.4,450.9z"/>
<path class="st20" d="M210.3,300.3"/>
<path class="st25" d="M342.9,236.1c0,23.8-9.9,49.4-25.9,55c-2.5,0.9-5.1,2.5-7.9,2.5c-2.8,0-5.5-1.8-8.1-2.8
	c-15-6.1-26.3-31.3-26.3-54.7c-1-8.4-0.7-15.6,0.8-21.8c4.4-19.3,66.1-15.3,66.8-0.3C342.7,220.2,343.9,227.4,342.9,236.1z"/>
<path class="st26" d="M308.6,221.3l-0.6,39.2v6.6c0,0-13.8,9.3-9.6,22.3c0,0-12.1-5.4-20.5-30.1c0,0-3-12.7-3-22.9
	c0,0-2.4-12.1,1.8-24.7C276.6,211.7,279,220.7,308.6,221.3z"/>
<ellipse class="st27" cx="309.5" cy="211.4" rx="32.8" ry="9.9"/>
<path class="st28" d="M309.7,216.7c0,0-2.9,4.2-7.4,2.5c0,0,1.1,3.8-11.2-1c0,0-1.5-0.3-1-1.4c0,0-1.6,0.9-2.5-1.1
	c0,0,1.2-0.1-2.3-2.6c0,0-0.6-1.5,0-1.9c0,0-1.2,0.9-2-1.1c0,0-0.3-0.9-1.8-4.4s0-2.6,0-2.6s-2.1-4,0.3-5.1c0,0-2.7-2.2,0.3-6.6
	c0,0-1.8-2.8,1-6.6c0,0,1-3.1,2.6-4c0,0-1-1.2,0.3-2.2c1.3-1,2.6-0.6,2.6-0.6s-0.6-2.5,1.1-2.9s2.1-3.9,4.1-4.1
	c2-0.2,15.3-6.3,17.5-0.7c0,0,1.9-4.4,8.7-0.6c0,0,3.2-1,4.4,1.7c0,0,3.4-0.9,5.2,3.2c0,0,2.6,1.1,3,3.5c0,0,3.1,0.6,2.8,3.8
	c0,0,2.3,2.1,1,3.9c0,0,1.9,0,0.9,4.4c0,0,2.4,1.7,0.3,6.4c0,0,1.7,2.6-0.4,5.6c0,0,0.9,2.1-0.7,2.3c0,0,0.2,1.3-0.7,2.2
	c0,0-0.3,6.8-7.5,9.3c0,0-2.5,2.7-8.3,2.8c0,0-1,1.1-2.7,0.4C317.7,219.2,313.7,220.5,309.7,216.7z"/>
<path class="st29" d="M306.3,173.2c0,0,5.8,4.2,4.3,15.3s-0.3,13.3-2.7,14.9c0,0-2.1,5.8,0.6,10.1c0,0,1.7,2.5,1.1,3.1"/>
<path class="st29" d="M285.2,191.2c0,0,14-0.1,8.5,10.3c-5.5,10.4-2.8,15.5,7.9,17"/>
<path class="st29" d="M326.4,175.8c0,0,2.2,10-8.8,9.8c-11-0.1-7.9,12.8-7.9,12.8"/>
<path class="st29" d="M298.1,173.2c0,0-11,3.9-3.4,14.9c7.6,11-2.7,16.9-2.7,16.9"/>
<path class="st29" d="M329.8,192.4c0,0,12.6,7.4-11.9,14.6c0,0-11,2.5-3.6,11.5"/>
<path class="st29" d="M321.6,191.2c0,0-0.6,2.4-1.9,3c0,0-6,5.7-10,0"/>
<path class="st29" d="M319.7,194.2c0,0,2.4-1.8,5.2,2.5"/>
<path class="st29" d="M298.1,180.7c0,0,1.8,0.7,2.4,5.7c0.6,4.9-3.1,20,6.8,23.5"/>
<path class="st30" d="M302.7,180.7c0,0-2.5,1.3-2.3,4.9"/>
<path class="st29" d="M285.2,195.3c0,0,2-3,4.2-3.5"/>
<path class="st25" d="M344.1,178.9c0,19.1-69.3,19.1-69.3,0s15.5-34.6,34.6-34.6C328.6,144.2,344.1,159.7,344.1,178.9z"/>
<path class="st26" d="M305.1,144.5c0,0,17.3,3.3-17.7,29.3c0,0-3,2.4,0,7.2c0,0-2.3,12.2,37.4,10.8c0,0-35.6,7.8-50-9.6
	C274.8,182.2,271,152,305.1,144.5z"/>
<path class="st31" d="M282.9,241.5c0.4,2.9,10.9,10.1,18.7,0"/>
<path class="st31" d="M315.5,241.5c1.3,3.2,12.1,9.9,18.7,0"/>
<path class="st32" d="M308,243.5c0,0-2.9,15.3-4.4,20.9c-1.1,4.5,4.9,4.5,4.9,4.5"/>
<path class="st25" d="M295.6,142.3c-3.1-0.1-7,0.7-10.9,1.7c-3.4,1.6-6.9,3.6-8.5,5.6c0,0-7.1,9.3-8.8,17.6c0,0-5.7,11.5-16.4,16.7
	c0,0-0.7-0.1-1.8-0.3c4.8,3.9,11.5,4.5,11.5,4.5c10.7-5.2,16.4-16.7,16.4-16.7c1.7-8.4,8.8-17.6,8.8-17.6c3.5-4.3,16.2-8.8,16.2-8.8
	C300.2,143.4,295.6,142.3,295.6,142.3z"/>
<path class="st26" d="M267.4,167.3c1.7-8.4,8.8-17.6,8.8-17.6c1.6-2,5.1-4,8.5-5.6c-8.8,2.4-17.6,6.5-17.6,6.5
	c-12.5,4.1-20.6,30.3-20.6,30.3c0.8,1.1,1.7,2,2.6,2.8c1.1,0.2,1.8,0.3,1.8,0.3C261.7,178.8,267.4,167.3,267.4,167.3z"/>
<path class="st25" d="M346.5,171c-1.8-8.3-9.1-17.5-9.1-17.5c-3.5-4.3-16.3-8.5-16.3-8.5c0.4-0.4,0.9-0.7,1.5-1
	c-0.8,0.2-4.6,1.3-6.3,2.8c0,0,12.8,4.2,16.3,8.5c0,0,7.3,9.2,9.1,17.5c0,0,5.9,11.4,16.7,16.4c0,0,4-0.4,8-2.4
	c-1.9,0.5-3.1,0.6-3.1,0.6C352.4,182.4,346.5,171,346.5,171z"/>
<path class="st26" d="M372.4,181.7c0,0-8.5-26.1-21.1-30c0,0-18.3-8.2-28.5-7.8c0,0-0.1,0-0.2,0c-0.6,0.3-1.1,0.6-1.5,1
	c0,0,12.8,4.2,16.3,8.5c0,0,7.3,9.2,9.1,17.5c0,0,5.9,11.4,16.7,16.4c0,0,1.3-0.1,3.1-0.6C368.6,185.6,370.8,184,372.4,181.7z"/>
<path class="st25" d="M298.9,138.8"/>
<path class="st21" d="M239,256.1c0,0-16.4-20.3-38.8-16c0,0,33.1-48.6,46.1-61c0,0,13.3-0.3,18.5,9.5
	C264.8,188.6,247.2,240,239,256.1z"/>
<path class="st21" d="M383.7,255.6c0,0,15.4-21,38-17.8c0,0-35.3-47.1-48.8-58.8c0,0-13.3,0.3-18,10.3
	C354.9,189.4,374.8,239.9,383.7,255.6z"/>
<polygon class="st33" points="245.9,185.8 215.8,231.6 219.4,229.8 "/>
<polygon class="st33" points="379.2,190.6 403,226.8 400.1,225.3 "/>
<g>
	
		<rect x="436.5" y="407.2" transform="matrix(0.9687 0.2483 -0.2483 0.9687 118.0341 -103.4204)" class="st19" width="65.1" height="18.1"/>
	
		<rect x="427.3" y="424.7" transform="matrix(0.9687 0.2483 -0.2483 0.9687 125.404 -95.3999)" class="st19" width="27.1" height="49.4"/>
	
		<rect x="461.8" y="431.6" transform="matrix(0.9687 0.2483 -0.2483 0.9687 125.2206 -102.526)" class="st19" width="14.5" height="27.1"/>
	
		<rect x="479.3" y="436.1" transform="matrix(0.9687 0.2483 -0.2483 0.9687 126.8835 -106.7333)" class="st19" width="14.5" height="27.1"/>
	
		<rect x="454.7" y="465.5" transform="matrix(0.9687 0.2483 -0.2483 0.9687 132.4332 -102.1077)" class="st19" width="32.5" height="16.9"/>
</g>
</svg>
