<?xml version="1.0" encoding="utf-8"?>
<!-- Generator: Adobe Illustrator 21.0.2, SVG Export Plug-In . SVG Version: 6.00 Build 0)  -->
<svg version="1.1" id="Layer_1" xmlns="http://www.w3.org/2000/svg" xmlns:xlink="http://www.w3.org/1999/xlink" x="0px" y="0px"
	 viewBox="0 0 600 600" style="enable-background:new 0 0 600 600;" xml:space="preserve">
<style type="text/css">
	.st0{fill:none;}
	.st1{fill:#C6DD7F;}
	.st2{fill:#E9DDB7;}
	.st3{fill:#A6D0E4;}
	.st4{fill:#ED442A;}
	.st5{opacity:0.4;fill:url(#SVGID_1_);}
	.st6{fill:#603813;}
	.st7{fill:#333333;}
	.st8{fill:none;stroke:#FFFFFF;stroke-miterlimit:10;}
	.st9{fill:#666666;}
	.st10{fill:#FFFFFF;}
	.st11{fill:#07024C;}
	.st12{fill:#4C0101;}
	.st13{fill:#F4D41E;}
	.st14{fill:#F26B20;}
	.st15{fill:#EF2222;}
	.st16{fill:#009E00;}
	.st17{fill:none;stroke:#F26B20;stroke-miterlimit:10;}
	.st18{fill:none;stroke:#EFE522;stroke-miterlimit:10;}
	.st19{opacity:0.5;fill:#009E00;}
	.st20{fill:#020202;}
	.st21{fill:#0964F2;}
	.st22{fill:#1A1A1A;}
	.st23{fill:#49A57B;}
	.st24{fill:#ECC19C;}
	.st25{fill:none;stroke:#00FF00;stroke-miterlimit:10;}
	.st26{fill:#00FF00;}
	.st27{fill:#CF9E76;}
	.st28{fill:none;stroke:#000000;stroke-miterlimit:10;}
	.st29{fill:#4D4D4D;}
	.st30{fill:none;stroke:#020202;stroke-miterlimit:10;}
	.st31{fill:#CC3333;}
	.st32{fill:none;stroke:#000000;stroke-width:0.75;stroke-miterlimit:10;}
	.st33{fill:#7D4921;}
</style>
<pattern  width="144.1" height="138.4" patternUnits="userSpaceOnUse" id="Alyssa" viewBox="100 -216.8 144.1 138.4" style="overflow:visible;">
	<g>
		<rect x="100" y="-216.8" class="st0" width="144.1" height="138.4"/>
		<g>
			<path class="st1" d="M311-58.3c-11.8-1.4-19.4,0.3-22.7,3.1c-3,2.5-5,5.4-2.2,11.9c2.9,7.1,1.5,14.7-5.5,15.9
				c-6.2,1-10.9-4.8-11.2-12.3c-0.2-5.2-1.9-8.3-5.5-7.6c-3.6,0.7-4.6,5.9-3.6,11.8c1.4,8.1,5.5,11.8,6.2,20.2
				c0.5,6.1-2.9,13.7-12.5,15c-9.3,1.4-15.9-4.3-16.6-10.5c-0.7-6.6,3.6-10.9,3.1-17.6c-0.5-6.7-4-10.2-5.9-17.3
				c-2.8-10.5,1.2-19,7.8-22.7c14.7-8.1,22.8,3.6,36,1.6c10.9-1.7,23.3-18.2,33-19.5c8.2-1.2,13.8,4.7,15,14
				C327.6-63,321.7-57.1,311-58.3z M268.8-57.8c0-2.3-1.9-4.2-4.2-4.2c-2.3,0-4.2,1.9-4.2,4.2s1.9,4.2,4.2,4.2
				C267-53.6,268.8-55.5,268.8-57.8z M318.3-73.2c0-1-0.8-1.7-1.7-1.7c-1,0-1.7,0.8-1.7,1.7s0.8,1.7,1.7,1.7
				C317.5-71.4,318.3-72.2,318.3-73.2z"/>
		</g>
		<g>
			<path class="st2" d="M148.8-77.5c0,7.2,4.6,13.8-1,16.3c-8.5,3.8-28-14.3-28-36.2c0-12,8.7-19,17.8-19c12.3,0,18,8.2,18,17.5
				C155.6-89.5,148.8-85.7,148.8-77.5z M143.4-82.9c0-1.1-0.9-2.1-2.1-2.1c-1.1,0-2.1,0.9-2.1,2.1c0,1.1,0.9,2.1,2.1,2.1
				C142.5-80.8,143.4-81.7,143.4-82.9z"/>
			<path class="st3" d="M223.5-54c-7.9,2.7-19.4-15.3-17.7-27c1.2-8.2,7.1-13.2,13.1-14.2c7.5-1.3,12.9,2.6,13.3,7.2
				c0.5,6.3-3.6,7.5-4.2,15C227.4-65.9,231.7-56.8,223.5-54z M219.7-81.5c0-1.4-1.2-2.6-2.6-2.6c-1.4,0-2.6,1.2-2.6,2.6
				c0,1.4,1.2,2.6,2.6,2.6C218.5-78.9,219.7-80.1,219.7-81.5z"/>
			<circle class="st2" cx="116.8" cy="-76.5" r="2.6"/>
			<path class="st3" d="M184.6-84.2c0.7,8.1,12.7,7,17.9,14.2c10.5,14.5-1.2,46.4-21.6,46.4c-11.7,0-24.2-9.7-24.2-29.2
				c0-15.8,10.2-21.5,8.3-42.2c-1-10.8-12.5-20.3-12.5-34.8c0-5.9,3.6-13.4,11.6-13.4c7.1,0,10.8,6,10.8,12.9c0,6.8-5.4,15.7,1.4,19
				c5.2,2.6,13.2-4.8,19.5-6.8c5.2-1.6,12.4,0.2,14.8,8.5c2.5,8.9-3.3,14.7-11.6,16.7C192.5-91.3,184-90.6,184.6-84.2z M168.6-114.7
				c0-1.8-1.5-3.3-3.3-3.3c-1.8,0-3.3,1.5-3.3,3.3c0,1.8,1.5,3.3,3.3,3.3C167.1-111.5,168.6-112.9,168.6-114.7z M194.6-105.1
				c1.3,0,2.3-1,2.3-2.3c0-1.3-1-2.3-2.3-2.3c-1.3,0-2.3,1-2.3,2.3C192.2-106.1,193.3-105.1,194.6-105.1z M174.6-45.4
				c0-1.8-1.5-3.3-3.3-3.3c-1.8,0-3.3,1.5-3.3,3.3c0,1.8,1.5,3.3,3.3,3.3C173.1-42.1,174.6-43.6,174.6-45.4z"/>
			<path class="st1" d="M166.9-58.3c-11.8-1.4-19.4,0.3-22.7,3.1c-3,2.5-5,5.4-2.2,11.9c2.9,7.1,1.5,14.7-5.5,15.9
				c-6.2,1-10.9-4.8-11.2-12.3c-0.2-5.2-1.9-8.3-5.5-7.6c-3.6,0.7-4.6,5.9-3.6,11.8c1.4,8.1,5.5,11.8,6.2,20.2
				c0.5,6.1-2.9,13.7-12.5,15c-9.3,1.4-15.9-4.3-16.6-10.5c-0.7-6.6,3.6-10.9,3.1-17.6c-0.5-6.7-4-10.2-5.9-17.3
				c-2.8-10.5,1.2-19,7.8-22.7c14.7-8.1,22.8,3.6,36,1.6c10.9-1.7,23.3-18.2,33-19.5c8.2-1.2,13.8,4.7,15,14
				C183.5-63,177.6-57.1,166.9-58.3z M124.7-57.8c0-2.3-1.9-4.2-4.2-4.2c-2.3,0-4.2,1.9-4.2,4.2s1.9,4.2,4.2,4.2
				C122.9-53.6,124.7-55.5,124.7-57.8z M174.2-73.2c0-1-0.8-1.7-1.7-1.7c-1,0-1.7,0.8-1.7,1.7s0.8,1.7,1.7,1.7
				C173.4-71.4,174.2-72.2,174.2-73.2z"/>
		</g>
		<g>
			<path class="st3" d="M290.3-104.8c0,6.2-4.2,10.7-8.6,11.6c-4.5,0.9-8.3-1.3-13,1.2c-4.8,2.6-7.1,11.1-16.8,11.1
				c-8,0-15.2-8-15.2-18.8c0-20.2,13.1-29.2,25.6-29.2C278.9-129.1,290.3-116.4,290.3-104.8z M270.6-119.2c0-2.1-1.7-3.8-3.8-3.8
				c-2.1,0-3.8,1.7-3.8,3.8c0,2.1,1.7,3.8,3.8,3.8C268.9-115.4,270.6-117.1,270.6-119.2z"/>
			<path class="st1" d="M311-196.7c-11.8-1.4-19.4,0.3-22.7,3.1c-3,2.5-5,5.4-2.2,11.9c2.9,7.1,1.5,14.7-5.5,15.9
				c-6.2,1-10.9-4.8-11.2-12.3c-0.2-5.2-1.9-8.3-5.5-7.6c-3.6,0.7-4.6,5.9-3.6,11.8c1.4,8.1,5.5,11.8,6.2,20.2
				c0.5,6.1-2.9,13.7-12.5,15c-9.3,1.4-15.9-4.3-16.6-10.5c-0.7-6.6,3.6-10.9,3.1-17.6c-0.5-6.7-4-10.2-5.9-17.3
				c-2.8-10.5,1.2-19,7.8-22.7c14.7-8.1,22.8,3.6,36,1.6c10.9-1.7,23.3-18.2,33-19.5c8.2-1.2,13.8,4.7,15,14
				C327.6-201.3,321.7-195.4,311-196.7z M268.8-196.2c0-2.3-1.9-4.2-4.2-4.2c-2.3,0-4.2,1.9-4.2,4.2c0,2.3,1.9,4.2,4.2,4.2
				C267-192,268.8-193.9,268.8-196.2z M318.3-211.5c0-1-0.8-1.7-1.7-1.7c-1,0-1.7,0.8-1.7,1.7c0,1,0.8,1.7,1.7,1.7
				C317.5-209.8,318.3-210.6,318.3-211.5z"/>
		</g>
		<g>
			<path class="st3" d="M131.8-133.2c-14,2-21.2-13.3-17.7-20.3c3.7-7.3,12.1-4.2,19.5-4.2c9.7,0,16.4-7.6,20.4-2.3
				C158.3-154.4,149-135.6,131.8-133.2z M132.3-150.7c0-1.2-1-2.2-2.2-2.2c-1.2,0-2.2,1-2.2,2.2c0,1.2,1,2.2,2.2,2.2
				C131.3-148.4,132.3-149.4,132.3-150.7z"/>
			<path class="st2" d="M148.8-215.9c0,7.2,4.6,13.8-1,16.3c-8.5,3.8-28-14.3-28-36.2c0-12,8.7-19,17.8-19c12.3,0,18,8.2,18,17.5
				C155.6-227.9,148.8-224.1,148.8-215.9z M143.4-221.2c0-1.1-0.9-2.1-2.1-2.1c-1.1,0-2.1,0.9-2.1,2.1c0,1.1,0.9,2.1,2.1,2.1
				C142.5-219.2,143.4-220.1,143.4-221.2z"/>
			<path class="st3" d="M146.2-104.8c0,6.2-4.2,10.7-8.6,11.6c-4.5,0.9-8.3-1.3-13,1.2c-4.8,2.6-7.1,11.1-16.8,11.1
				c-8,0-15.2-8-15.2-18.8c0-20.2,13.1-29.2,25.6-29.2C134.7-129.1,146.2-116.4,146.2-104.8z M126.4-119.2c0-2.1-1.7-3.8-3.8-3.8
				c-2.1,0-3.8,1.7-3.8,3.8c0,2.1,1.7,3.8,3.8,3.8C124.7-115.4,126.4-117.1,126.4-119.2z"/>
			<circle class="st1" cx="143" cy="-128.5" r="2.4"/>
			<path class="st3" d="M229.2-147c-3.2,4.7,1,10.7-1.4,15.2c-2.4,4.5-6.7,5-9.9,2.6c-3.6-2.8-3.4-6.6-8.3-8.8
				c-5.5-2.5-18,2.2-19.7-7.3c-0.9-4.8,2.4-8.6,7.3-9.7c6.1-1.4,9.4-0.2,15.4-3.1c6.1-2.9,11.2-9,22.1-12.1
				c10.4-3,16.1,1.6,16.6,5.9C252.3-155.9,234.2-154.4,229.2-147z M226.9-154.5c0-1.2-1-2.2-2.2-2.2c-1.2,0-2.2,1-2.2,2.2
				c0,1.2,1,2.2,2.2,2.2C225.9-152.2,226.9-153.2,226.9-154.5z"/>
			<path class="st2" d="M256.1-107.9c0,17.2-14.5,25.5-27,22.8c-10.3-2.2-12.8-17.3-16.7-26.2c-3.7-8.6-8.8-22.5-20.2-22.5
				c-11.2,0-12.8,14.5-23.7,14.5c-11,0-24.5-15.7-24.5-39.7c0-14.7,9.8-31.5,20.8-30.7c11.7,0.8,4.5,19.7,15.3,19.7
				c9.5,0,7.9-16.3,9.2-23.3c1.7-9,6.8-14.2,18.5-13.2c14.4,1.2,22.3,13.5,18.9,23.3c-4,11.5-23.9,17.3-21.5,30.5
				c1.3,7.6,13,12,26,16.2C245.8-131.7,256.1-125,256.1-107.9z M211.2-183.7c0,1.8,1.5,3.3,3.3,3.3c1.8,0,3.3-1.5,3.3-3.3
				s-1.5-3.3-3.3-3.3C212.6-187,211.2-185.5,211.2-183.7z M164.5-158.8c0-1-0.8-1.7-1.7-1.7c-1,0-1.7,0.8-1.7,1.7
				c0,1,0.8,1.7,1.7,1.7C163.7-157.1,164.5-157.8,164.5-158.8z M182-148.1c0-2.1-1.7-3.8-3.8-3.8c-2.1,0-3.8,1.7-3.8,3.8
				c0,2.1,1.7,3.8,3.8,3.8C180.2-144.3,182-146,182-148.1z M201.8-163.6c0-0.9-0.7-1.6-1.6-1.6c-0.9,0-1.6,0.7-1.6,1.6
				c0,0.9,0.7,1.6,1.6,1.6C201.1-162.1,201.8-162.8,201.8-163.6z M231.5-108.9c0-1.8-1.4-3.2-3.2-3.2c-1.8,0-3.2,1.4-3.2,3.2
				c0,1.8,1.4,3.2,3.2,3.2C230.1-105.8,231.5-107.2,231.5-108.9z"/>
			<path class="st3" d="M223.5-192.4c-7.9,2.7-19.4-15.3-17.7-27c1.2-8.2,7.1-13.2,13.1-14.2c7.5-1.3,12.9,2.6,13.3,7.2
				c0.5,6.3-3.6,7.5-4.2,15C227.4-204.3,231.7-195.2,223.5-192.4z M219.7-219.9c0-1.4-1.2-2.6-2.6-2.6c-1.4,0-2.6,1.2-2.6,2.6
				c0,1.4,1.2,2.6,2.6,2.6C218.5-217.3,219.7-218.4,219.7-219.9z"/>
			<circle class="st2" cx="116.8" cy="-214.8" r="2.6"/>
			<path class="st2" d="M253.3-128.1c0-8.4-5.1-15.2-11.3-15.2s-11.3,6.8-11.3,15.2c0,8.4,5.1,12.4,11.3,12.4
				S253.3-119.7,253.3-128.1z"/>
			<path class="st3" d="M184.6-222.6c0.7,8.1,12.7,7,17.9,14.2c10.5,14.5-1.2,46.4-21.6,46.4c-11.7,0-24.2-9.7-24.2-29.2
				c0-15.8,10.2-21.5,8.3-42.2c-1-10.8-12.5-20.3-12.5-34.8c0-5.9,3.6-13.4,11.6-13.4c7.1,0,10.8,6,10.8,12.9c0,6.8-5.4,15.7,1.4,19
				c5.2,2.6,13.2-4.8,19.5-6.8c5.2-1.6,12.4,0.2,14.8,8.5c2.5,8.9-3.3,14.7-11.6,16.7C192.5-229.7,184-229,184.6-222.6z
				 M168.6-253.1c0-1.8-1.5-3.3-3.3-3.3c-1.8,0-3.3,1.5-3.3,3.3c0,1.8,1.5,3.3,3.3,3.3C167.1-249.8,168.6-251.3,168.6-253.1z
				 M194.6-243.4c1.3,0,2.3-1,2.3-2.3c0-1.3-1-2.3-2.3-2.3c-1.3,0-2.3,1-2.3,2.3C192.2-244.5,193.3-243.4,194.6-243.4z M174.6-183.7
				c0-1.8-1.5-3.3-3.3-3.3c-1.8,0-3.3,1.5-3.3,3.3c0,1.8,1.5,3.3,3.3,3.3C173.1-180.5,174.6-181.9,174.6-183.7z"/>
			<path class="st1" d="M166.9-196.7c-11.8-1.4-19.4,0.3-22.7,3.1c-3,2.5-5,5.4-2.2,11.9c2.9,7.1,1.5,14.7-5.5,15.9
				c-6.2,1-10.9-4.8-11.2-12.3c-0.2-5.2-1.9-8.3-5.5-7.6c-3.6,0.7-4.6,5.9-3.6,11.8c1.4,8.1,5.5,11.8,6.2,20.2
				c0.5,6.1-2.9,13.7-12.5,15c-9.3,1.4-15.9-4.3-16.6-10.5c-0.7-6.6,3.6-10.9,3.1-17.6c-0.5-6.7-4-10.2-5.9-17.3
				c-2.8-10.5,1.2-19,7.8-22.7c14.7-8.1,22.8,3.6,36,1.6c10.9-1.7,23.3-18.2,33-19.5c8.2-1.2,13.8,4.7,15,14
				C183.5-201.3,177.6-195.4,166.9-196.7z M124.7-196.2c0-2.3-1.9-4.2-4.2-4.2c-2.3,0-4.2,1.9-4.2,4.2c0,2.3,1.9,4.2,4.2,4.2
				C122.9-192,124.7-193.9,124.7-196.2z M174.2-211.5c0-1-0.8-1.7-1.7-1.7c-1,0-1.7,0.8-1.7,1.7c0,1,0.8,1.7,1.7,1.7
				C173.4-209.8,174.2-210.6,174.2-211.5z"/>
			<circle class="st1" cx="228.8" cy="-174.4" r="1.4"/>
			<circle class="st2" cx="233.5" cy="-212.8" r="2.2"/>
			<circle class="st3" cx="151" cy="-189.6" r="1.2"/>
			<circle class="st3" cx="147.2" cy="-121.1" r="1.4"/>
			<circle class="st2" cx="231.9" cy="-143.1" r="1.2"/>
			<circle class="st1" cx="192.4" cy="-125.1" r="3.4"/>
			<circle class="st2" cx="198.7" cy="-85.3" r="2.1"/>
			<circle class="st2" cx="160.5" cy="-91.6" r="1.6"/>
			<circle class="st1" cx="233.1" cy="-205.6" r="2.6"/>
			<circle class="st3" cx="223.1" cy="-170.8" r="2.4"/>
			<circle class="st2" cx="125.1" cy="-164.2" r="2.6"/>
			<circle class="st3" cx="121.4" cy="-171.3" r="1.3"/>
			<circle class="st2" cx="185.4" cy="-119.4" r="1.6"/>
		</g>
		<g>
			<path class="st3" d="M85-147c-3.2,4.7,1,10.7-1.4,15.2c-2.4,4.5-6.7,5-9.9,2.6c-3.6-2.8-3.4-6.6-8.3-8.8
				c-5.5-2.5-18,2.2-19.7-7.3c-0.9-4.8,2.4-8.6,7.3-9.7c6.1-1.4,9.4-0.2,15.4-3.1c6.1-2.9,11.2-9,22.1-12.1
				c10.4-3,16.1,1.6,16.6,5.9C108.2-155.9,90-154.4,85-147z M82.8-154.5c0-1.2-1-2.2-2.2-2.2c-1.2,0-2.2,1-2.2,2.2
				c0,1.2,1,2.2,2.2,2.2C81.8-152.2,82.8-153.2,82.8-154.5z"/>
			<path class="st2" d="M112-107.9c0,17.2-14.5,25.5-27,22.8c-10.3-2.2-12.8-17.3-16.7-26.2c-3.7-8.6-8.8-22.5-20.2-22.5
				c-11.2,0-12.8,14.5-23.7,14.5c-11,0-24.5-15.7-24.5-39.7c0-14.7,9.8-31.5,20.8-30.7c11.7,0.8,4.5,19.7,15.3,19.7
				c9.5,0,7.9-16.3,9.2-23.3c1.7-9,6.8-14.2,18.5-13.2c14.4,1.2,22.3,13.5,18.9,23.3c-4,11.5-23.9,17.3-21.5,30.5
				c1.3,7.6,13,12,26,16.2C101.7-131.7,112-125,112-107.9z M67-183.7c0,1.8,1.5,3.3,3.3,3.3c1.8,0,3.3-1.5,3.3-3.3s-1.5-3.3-3.3-3.3
				C68.5-187,67-185.5,67-183.7z M20.4-158.8c0-1-0.8-1.7-1.7-1.7c-1,0-1.7,0.8-1.7,1.7c0,1,0.8,1.7,1.7,1.7
				C19.6-157.1,20.4-157.8,20.4-158.8z M37.8-148.1c0-2.1-1.7-3.8-3.8-3.8c-2.1,0-3.8,1.7-3.8,3.8c0,2.1,1.7,3.8,3.8,3.8
				C36.1-144.3,37.8-146,37.8-148.1z M57.7-163.6c0-0.9-0.7-1.6-1.6-1.6c-0.9,0-1.6,0.7-1.6,1.6c0,0.9,0.7,1.6,1.6,1.6
				C57-162.1,57.7-162.8,57.7-163.6z M87.4-108.9c0-1.8-1.4-3.2-3.2-3.2c-1.8,0-3.2,1.4-3.2,3.2c0,1.8,1.4,3.2,3.2,3.2
				C85.9-105.8,87.4-107.2,87.4-108.9z"/>
			<path class="st2" d="M109.2-128.1c0-8.4-5.1-15.2-11.3-15.2c-6.3,0-11.3,6.8-11.3,15.2c0,8.4,5.1,12.4,11.3,12.4
				C104.1-115.6,109.2-119.7,109.2-128.1z"/>
		</g>
	</g>
</pattern>
<path class="st4" d="M581.1,328.3l-106,183.6c-14.3,24.7-40.6,39.9-69.2,39.9l-211.9,0c-28.5,0-54.9-15.2-69.2-39.9l-106-183.6
	c-14.3-24.7-14.3-55.2,0-79.9l106-162.9c14.3-24.7,40.6-39.9,69.2-39.9l211.9,0c28.5,0,54.9,15.2,69.2,39.9l106,162.9
	C595.4,273.1,595.4,303.6,581.1,328.3z"/>
<pattern  id="SVGID_1_" xlink:href="#Alyssa" patternTransform="matrix(1 0 0 1 -67.8701 -84)">
</pattern>
<path class="st5" d="M582.3,330.5L475.8,514.8c-14.3,24.8-40.8,40.1-69.5,40.1l-212.8,0c-28.7,0-55.1-15.3-69.5-40.1L17.7,330.5
	c-14.3-24.8-14.3-55.4,0-80.2L124.1,86.7c14.3-24.8,40.8-40.1,69.5-40.1l212.8,0c28.7,0,55.1,15.3,69.5,40.1l106.4,163.6
	C596.6,275.1,596.6,305.7,582.3,330.5z"/>
<polygon class="st6" points="397.5,302.8 530.6,323.6 574.7,339.3 530,417.8 381.2,355.9 "/>
<path class="st7" d="M539.6,361.3l-46.1,34.5l-81.3-40.7l32.9-27.9l93.5,28.1C541.2,356.1,541.8,359.6,539.6,361.3z"/>
<polygon points="537.7,354.8 493,393.1 415.3,352.6 445.1,327.1 "/>
<line class="st8" x1="445.6" y1="330" x2="449.1" y2="331.4"/>
<line class="st8" x1="515.2" y1="360.3" x2="522.7" y2="362.4"/>
<line class="st8" x1="505.5" y1="357.6" x2="510.3" y2="359"/>
<line class="st8" x1="474.5" y1="380.3" x2="478" y2="381.7"/>
<path d="M244.7,358.9c0,0,35,28.9,1.6,53.1c-21.9,15.9-60.5,21.6-108-2.7C138.3,409.4,154.3,376.1,244.7,358.9z"/>
<path d="M335.1,382.8c0,0-39.4,32.5-1.8,59.7c24.6,17.9,68,24.3,121.5-3C454.8,439.6,436.9,402.1,335.1,382.8z"/>
<g>
	<path d="M185.7,417l0.7,134.5c0.7,0.7,15.8,0.7,23.4,0.7L209.1,417H185.7z"/>
	<path d="M90.7,318.7l-1.4,131.5c4.8,7.5,22,37.9,22,37.9l2.8-169.4H90.7z"/>
	<path d="M364,443.6v108.5c10.3-0.3,11.7,0,23.4,0V443.6H364z"/>
</g>
<path d="M358.5,267c0,0-44.8-6.9-48.9,19.3c0,0-6.9,51,15.8,79.9c0,0,20,20.4,33,16.7s0,0,0,0s34.3-5.3,38.1-25.5c3.9-20.2,0,0,0,0
	s14.2-64.2-8.5-79.4C388.1,278,374.4,267.7,358.5,267z"/>
<path d="M219.7,244.3c0,0,44.8-6.9,48.9,19.3c0,0,6.9,51-15.8,79.9c0,0-20,20.4-33,16.7s0,0,0,0s-34.3-5.3-38.1-25.5
	c-3.9-20.2,0,0,0,0s-14.2-64.2,8.5-79.4C190.1,255.3,203.8,245,219.7,244.3z"/>
<path class="st9" d="M569,344.3l-120.1-21.8c-4.3-0.8-7.4-4.5-7.4-8.8V238c0-3.5,2-6.7,5.2-8.1l120.1-55c5.9-2.7,12.7,1.6,12.7,8.1
	v152.5C579.5,341,574.5,345.3,569,344.3z"/>
<path d="M566.7,337.2l-116.6-20.8c-2.5-0.5-4.4-2.7-4.4-5.2v-72.6c0-2.1,1.2-4,3.1-4.8l116.6-52.5c3.5-1.6,7.5,1,7.5,4.8V332
	C573,335.3,570,337.8,566.7,337.2z"/>
<path class="st9" d="M43.1,362.9l116.6-40.5c3.8-1.3,6.1-5.1,5.5-9.1l-11.8-75.7c-0.5-3.2-2.8-5.8-5.9-6.7L18.9,194.6
	c-5.8-1.6-11.3,3.3-10.4,9.2l23.7,152.6C33,361.5,38.2,364.6,43.1,362.9z"/>
<path class="st10" d="M46.7,354.8l109-37.5c3.1-1.1,5.1-4.3,4.5-7.5l-10.8-69.5c-0.4-2.7-2.4-4.8-4.9-5.6l-120-33.1
	c-4.8-1.3-9.4,2.7-8.6,7.7l21.7,140C38.4,353.5,42.7,356.1,46.7,354.8z"/>
<path class="st11" d="M56.7,227.8l2.9,15.4c2.1,0.3,4.2,0.4,6.3,0.4c17.7,0,28.2,0.2,28.2-5.5c0-5.7-13.3-17.2-31-17.2
	s-32.4,1.2-32.4,6.9c0,3.9,8.3,10,19.3,13.4l-2.2-11.7L56.7,227.8z"/>
<polygon class="st12" points="30.8,246.4 44.5,317.3 63.6,313.6 51.6,249.4 "/>
<polygon class="st12" points="132.4,276 116.2,276 113.6,258.5 61,250.8 72.4,311.8 136.1,299.4 "/>
<polygon class="st13" points="68.2,335.2 77,333.5 74.5,320.1 65.7,321.8 "/>
<path class="st13" d="M59.6,243.2c-3.3-0.4-6.5-1.1-9.5-2.1l1.5,8.3l9.4,1.4L59.6,243.2z"/>
<path class="st14" d="M56.7,227.8l-8.8,1.6l2.2,11.7c3,0.9,6.2,1.6,9.5,2.1L56.7,227.8z"/>
<polygon class="st15" points="51.6,249.4 63.6,313.6 72.4,311.8 61,250.8 "/>
<polygon class="st16" points="132.4,276 148.5,276 143.7,245 110.6,238.1 113.6,258.5 129.9,260.8 "/>
<polygon class="st14" points="132.4,276 129.9,260.8 113.6,258.5 116.2,276 "/>
<line class="st17" x1="45.2" y1="323.5" x2="139.6" y2="304.2"/>
<line class="st17" x1="29.7" y1="241.2" x2="128.2" y2="256.4"/>
<line class="st18" x1="129.6" y1="235.7" x2="139.2" y2="303.9"/>
<polygon class="st19" points="85.2,264.3 106.5,268.4 94.1,297.3 84.5,320 61.1,287.7 38.3,255.3 "/>
<rect x="194.7" y="424.3" transform="matrix(0.9564 0.2922 -0.2922 0.9564 133.9781 -44.4309)" width="42.1" height="4"/>
<path d="M242.2,438.1l-15.3-3.6c-2.2-0.5-3.6-2.8-3.1-5l0.1-0.6c0.5-2.2,2.8-3.6,5-3.1l15.3,3.6c2.2,0.5,3.6,2.8,3.1,5l-0.1,0.6
	C246.7,437.2,244.5,438.6,242.2,438.1z"/>
<g>
	<rect x="336.2" y="453.1" transform="matrix(-0.9874 -0.1585 0.1585 -0.9874 637.9244 961.0298)" width="42.1" height="4"/>
	<path d="M328.3,454l15.3,3.5c2.2,0.5,4.5-0.9,5-3.1l0.1-0.6c0.5-2.2-0.9-4.5-3.1-5l-15.3-3.5c-2.2-0.5-4.5,0.9-5,3.1l-0.1,0.6
		C324.6,451.3,326,453.5,328.3,454z"/>
</g>
<path class="st20" d="M221.4,221.4l3.5,20.9c0,0-3.9,17.7-25.5,10.6l-2.5-17.7C196.9,235.2,212.3,233.7,221.4,221.4z"/>
<path class="st20" d="M377.5,259.4l-1.9,17.8c0,0-16.7,8-28.1-4.6l9.1-25.1C356.7,247.6,373.7,264.4,377.5,259.4z"/>
<path class="st20" d="M403.4,309.4l1.5,14.6l12.5,7.6c0,0-11,8-9.9,11.4l-17.5-7.5l3.6-26H403.4z"/>
<path class="st21" d="M418.3,327c0,0-17.7,2.3-21.1,19.8l49.1,11.9l10.1-11.5C456.3,347.1,427.2,331.7,418.3,327z"/>
<path class="st22" d="M410.9,329.3c0,0,17.2,14.1,38.5,19.6l-15.1,2.8l-35.8-9.5C398.5,342.2,400.6,333.8,410.9,329.3z"/>
<path d="M202,238c-2.2,1-8.6,5.4-10.8,8.4c-0.2,0.3-1.1,5.1-1.4,4.8c-3.4-4.4-22.9-34.2-21.7-61.6c0,0,2.9-10.7,5.1-14.6
	c0-0.1,0.2-0.1,0.2,0c0.7,2.2,6.6,21,9.8,24.3c3.2,3.2,17,33.5,19,38C202.5,237.5,202.3,237.9,202,238z"/>
<path class="st22" d="M207.3,252.8c0,0-22.4-3-29,11.1c-6.6,14.1-2.9,41-2.9,41l22.4,10.4C197.7,315.2,187,269.9,207.3,252.8z"/>
<path class="st22" d="M378.4,273.1c0,0,9.2-4.9,15.9,2.2s11.3,37.3,11.3,37.3s-12.3,0.8-16,3.9C389.6,316.5,393.9,283.8,378.4,273.1
	z"/>
<path class="st23" d="M224.3,241.6l20.4,12.8c0,0,11.9,24,9.8,31.4c-2.1,7.3-10.8,67.6-10.8,67.6s-29.4,15.7-53.8,5.2
	c0,0-6.1-36.9-6.1-48.1c0,0-31-16.5,6.9-49.6c6.8-5.9,8.3-8.3,8.3-9C198.8,251.9,222.6,246.7,224.3,241.6z"/>
<path class="st24" d="M196,240.9c0,0,2.1,4.1,15.8-6.9c0,0,17.9-13.1,20-37.2c0,0-2.6-48.9-40-33.1c0,0-28.8,15.2-13.7,43.5
	C178.1,207.1,179.5,225,196,240.9z"/>
<path class="st21" d="M330.3,278.7c0,0-8.1,24.2-1.8,36.1c0,0,4.3,52.4,2.5,59.1c0,0,41.7,17.4,55.5,3.8c0,0,8.7-62,9.1-68.6
	c0,0,10.8-38.6-24-39c0,0-22.4,1.1-22-3.1L330.3,278.7z"/>
<path class="st24" d="M381.1,266.9c0,0-12.7-0.4-15.9-3.8c0,0-26.3-18.5-23.6-45c0,0,7.1-51.3,46.5-33.3c0,0,22,10.7,8.1,52.4
	C396.2,237.2,392.3,254.2,381.1,266.9z"/>
<path class="st22" d="M199.1,283.2l3.4,9.6l6.9-4.8C209.4,288,203.3,283.9,199.1,283.2z"/>
<path class="st22" d="M362.9,332.1l-2.3-10l8.4,0.4C369.1,322.4,366.1,329.3,362.9,332.1z"/>
<path class="st22" d="M381.9,331.8l1.6,10.1l-8.3-1.3C375.2,340.6,378.5,334.2,381.9,331.8z"/>
<path class="st22" d="M380.3,352.4l-7.9-0.6c-0.5,0-0.9,0.3-0.9,0.8v7.4C371.6,360,377.1,359.3,380.3,352.4z"/>
<path class="st7" d="M232.5,246.4l14.5,9.5c0,0,16.7,6.9,9,27.9c0,0-9.6,60.3-11.1,69.2c0,0-29.6,7.6-46.8,9
	c49.6-39.9,37.2-70.8,24.1-72.3C222.2,289.8,240.8,252.6,232.5,246.4z"/>
<path class="st22" d="M213.2,310.4c0,0-3.8-2.4-3.8-5.9l7.2-1.7C216.7,302.8,217.4,307,213.2,310.4z"/>
<path class="st7" d="M344.1,270.3c0,0-1.4,25.6,15.8,39.4c0,0-28.9,48.9,26.2,73c0,0-53.7-6.2-55.8-8.3c0,0,0-55.1-4.8-72.3
	l7.6-24.8C333,277.4,341.4,270.9,344.1,270.3z"/>
<polyline class="st25" points="512.7,228.8 541,263.6 541,264.7 518.1,300.8 "/>
<polyline class="st25" points="483,239.9 465.4,269.2 465.4,270.1 483,297 "/>
<rect x="495.3" y="255.5" class="st26" width="5.2" height="5.9"/>
<path class="st26" d="M500.5,275.2c0,2.5-0.4,4.6-1.3,6.1c-0.9,1.5-2.2,2.3-3.9,2.3v-2.8c1.7,0,2.6-1.9,2.6-5.6h-2.6v-5.9h5.2V275.2
	z"/>
<path class="st27" d="M400.5,203c0.2,0.1-4.8,8.3-10.2,10.4c-3.5,1.4-25.3,4.5-29.4,10.5c-4.5,6.6,0,0,0,0s-3.8,5.3,1,10.1
	c0,0,4.1,4.1,4.2,4.1c0.4,0.1-3.8,6.9-5.2,12.7c-1.1,4.6,0.5,8,1.7,9.7c0.1,0.2-0.1,0.4-0.3,0.3c-3.4-2.8-11.3-9.9-13.5-17.9
	c0,0,0,0,0,0c-0.2-0.5-8.9-19.3-6.9-24.8c2.1-5.5,17.9-18.6,24.8-16.5C373,203.5,397.6,201.4,400.5,203z"/>
<path class="st27" d="M220.3,225.4c0,0,6-27.2-16-47.9s0,0,0,0s-22,11.7-26.2,10.3c0,0,23.7,8.3,24.2,8.6c0.5,0.3,2.6-0.4,2.6-0.4
	s18.1,11.3,4.9,39.4C209.9,235.5,218.5,228.5,220.3,225.4C222.2,222.3,220.3,225.4,220.3,225.4"/>
<path d="M204.3,177.5c0.4,0.3,28.8,24.4,11,64c11.7,0,23.4-11,26.9-20c0,0,9-66.8-33-65.4c0,0-30.9-2-37,21.8
	c-0.5,1.8-1.6,10.8-1.6,12.7c-0.3,10.1,4.8,0.7,7.3-0.6c3.3-1.8,7.2,1.8,9.6-1.1C193.5,181.5,194,189.5,204.3,177.5z"/>
<line class="st28" x1="74.1" y1="288.8" x2="117.2" y2="243.8"/>
<path class="st20" d="M359.7,318.7l7.5,12.5c0.3,0.5,0.8,1,1.4,1.1l17.2,5.5c1.2,0.4,1.9,1.5,1.8,2.8c-0.5,4.1-1.7,12.9-4.3,13.6
	c0,0-19.5,0.2-26-1.8c-0.6-0.2-1.1-0.5-1.4-1c-2.2-3.2-11.4-16.5-13.7-21.8c-0.5-1-0.2-2.2,0.6-2.9c2.1-2.1,7.1-6.4,13.9-9.1
	C357.7,317.1,359.1,317.6,359.7,318.7z"/>
<path class="st20" d="M174.2,292.1l19.9,1.8l20.2-13.9c0,0,15.2,13.5,12.8,18.5c0,0-24.8,17.4-30.8,16l-22-5.7
	C174.2,308.8,178,299.4,174.2,292.1z"/>
<path class="st23" d="M247.7,256.7c0,0,20,11,4,29.4c0,0-20.2,20.5-38.4,24.3c0,0,14.9-16.8-14.5-26.9
	C198.8,283.6,234.6,247.1,247.7,256.7z"/>
<path class="st24" d="M440.8,352.1c0,0,15-9.7,17.3-9.9l5.3,2.5c0,0,5.2-3,16.9,3.2c0,0,5.7,11.4,0.9,17.1c0,0-13.1-2.4-21.8-0.7
	c0,0-12.8,8.2-20.2,5.8C439.2,370,442.8,354.4,440.8,352.1z"/>
<path class="st21" d="M369.1,321.7c-1.6-5.1-12.5-37.6-22.1-43.9c0,0-0.1,0-0.1-0.1c-1.4-0.6-27.5-10.9-26,25
	c0,0-0.2,18.4,19.8,39.4c0.3,0.3,0.8,0.3,1.1-0.1c1.9-3.1,9.9-14.9,26.9-19.5C369,322.4,369.2,322,369.1,321.7z"/>
<path class="st29" d="M325.8,281c2.8-3.4,9.4-8.4,21.3-3.4c0.1,0,0.1,0.1,0.2,0.1c9.2,6.5,10.3,6.9,22,44.7c0.4-0.1-2.1,0.3-9,3.4
	c-0.5,0.2-1-0.1-1.1-0.6c-1-7.6-7.9-53.6-32.4-43C326,282.6,325.3,281.7,325.8,281z"/>
<path class="st29" d="M238,298c7.6-6.9,39.9-26.2,6.3-43.3c0,0-0.1,0-0.1,0c-1-0.1-14.7-1-39.3,23.6c-0.3,0.3,0,0.7,0.4,0.5
	c6.3-3.4,21.1-19.3,26.6,2.1C231.9,281,237.9,298.2,238,298z"/>
<path class="st24" d="M114.3,283.1l-19.4-15.8c0,0-19,8.3-22.3,11.4c0,0,1.9,8.4,4.7,10.3c0,0,7.7,4.6,9.8,5.7c0,0,8.5-1.2,9.6-1.5
	l11.5,6.6C108.2,299.9,120.1,287.8,114.3,283.1z"/>
<path class="st27" d="M94.1,280.8l8.3,5.5c0,0,5.5,3.4,6.9,13.8c0,0,8.3-6.9,6.9-15.1c-0.4-2.1-21.3-17.9-21.3-17.9
	s-22,10.3-22,11.7s0,2.1,0,2.1s19.3-10,20.7-6.9"/>
<path class="st23" d="M177,287.8c0,0,11,24.1-2.3,30.8c0,0-62.6-14-68.2-17.5c0,0,11-8.1,7.5-18.9
	C114.1,282.2,155.2,284.7,177,287.8z"/>
<path class="st27" d="M438.4,364.1c0,0,18.6-9.6,20-16.5c0,0,20.7,1.4,23.4,4.1l-1.4-4.1c0,0-12.4-6.2-17.2-2.8l-4.8-2.8
	c0,0-12.4,4.8-19.3,11C439.1,353.1,441.8,361.4,438.4,364.1z"/>
<path class="st21" d="M381.9,331.8c0,0,2.5,25.2-10.3,28.2c0,0,40.3,10,68.2,11.7c0,0,7.9-13.6,1.5-20.6
	C441.3,351.1,397.1,335.9,381.9,331.8z"/>
<path class="st29" d="M141,284c12.6,1,32.2,2.6,35.9,4c0.4,0.1,0.6,0.4,0.8,0.8c1,2.6,6.1,16.8,2.5,24.2c-0.4,0.8-1.9,1.2-2.1,0.3
	c-6-22.3-21-19.5-37.7-26.8C138.9,286,139.5,283.9,141,284z"/>
<path class="st29" d="M407.9,339.6l-26-7.8c0,0,1.4,15.1-4.1,24.1c0,0,8.6-14.9,29.7-14.1C408.8,341.8,409.1,340,407.9,339.6z"/>
<path class="st7" d="M386.7,377.9c0,0,38.8,9.4,48,13.2c15.7,6.5,50.9,28.2,53.8,41.9l3.5,39.9c0.1,0.4-3.4,13.8-15.1,16.5l-3.4,6.9
	l-7.6-23.4l-1.3-44.2C464.7,428.7,329.1,387.7,386.7,377.9z"/>
<path class="st7" d="M189.8,358.6c0,0-26.9,2.8-49.6,13.1c-14.9,6.8-39.8,15-37.8,27.9l-0.8,32.7v8.3c0.2,4.2,2.5,19.1,2.8,25.5
	c0,0,3.4,7.6,3.4,7.6l15.8,27.5l5.5-104.7C129.2,396.5,224.9,371,189.8,358.6z"/>
<path class="st23" d="M244.2,353.1c0,0,21.3,39.2-22,52.3c-16.1,4.9-53.4,8.4-81.9,7.6c0,0,19.3,19.3,11,50.3
	c-4.2,11.4,1.4,41.3,3.4,78.5c0,0-8.2-21.3-19.3-21.3c-4.1-11.7-33.7-124.6-19.5-126.2c6.4-8.8,26.3-20.5,73.9-36.3
	C207,362,224.1,359.7,244.2,353.1z"/>
<path d="M115.2,432.3c0,0,10.5,6.8,36.7,3.4c0,0,5,14.5-2,36.2l4.8,69.9l-11-7.6c-0.2-0.2-7.5-6.7-7.6-6.9c-1.4-4.9-18.1-67.9-22-93
	C114.1,434.3,115,432.3,115.2,432.3z"/>
<path d="M101.7,438.8c0,0,15.1,5.2,22,3.8l1.5,32.4l-2.2,34.4L103.8,475C103.8,475,102.4,462.6,101.7,438.8z"/>
<path d="M465.6,463.3c0,0,21.9,6.5,26.6,0l2,15.1c0,0-6.9,10.1-18.6,33.7c0,0-1.4-4.9-2.1-7.3c0,0-9.6-23.6-8.3-30.1L465.6,463.3z"
	/>
<path class="st21" d="M331.6,374.4c0,0-14,33.6,16.6,51.6c15.1,9,47.5,16.5,97.8,22c0,0-7.6,10.3-6.2,26.9c0,0,5.5,26.2,0,57.1
	c0,0,7.6-2.1,19.3-2.1c0,0,17.9-70.9,13.8-97.8c0,0,5.5-14.5-85.4-54.4C366.1,380.4,358.8,379.7,331.6,374.4z"/>
<path d="M471.6,469.1c0,0-19.2,5.6-31.7,0c0,0-1.5,2.3,2.3,33.1c0,0-1.2,11.6-10,45c0,0,17.9-3.7,26.9-16.2
	C459,531,468.3,499.9,471.6,469.1z"/>
<path class="st30" d="M390.1,221.4c0,0,8.7-2.9,13.1-2.2"/>
<path class="st30" d="M382.4,221.2c0,0-9.1-4.2-15.4-0.6"/>
<path class="st30" d="M191.7,198.1c0,0,8-11.4,17.1-4.7"/>
<path class="st30" d="M184.6,199.8c0,0-4.5-2.2-11.1,1.9"/>
<path class="st30" d="M388.7,223.9c0,0,3,8.3,0.4,12.5c0,0,9.2,3,15-3.3c0,0,2.7-5.4,1.1-8.1C405.3,225,397.8,220.5,388.7,223.9z"/>
<path class="st30" d="M382.9,223.3c0,0,2,7-0.6,13.6c0,0-11.2,2.6-17.1-4.8c0,0-2.5-6.1-0.6-8.9
	C364.7,223.2,373.3,218.8,382.9,223.3z"/>
<line class="st30" x1="383.5" y1="228.5" x2="389.5" y2="228.6"/>
<line class="st30" x1="364.1" y1="225.2" x2="341.6" y2="216.4"/>
<path d="M354.4,216.8c0,2.4,0.8,17,1.7,19.9c0.1,0.4-0.2,0.7-0.6,0.6c-1.2-0.3-3.2-0.9-3.8-1.8c-0.1-0.1-0.1-0.2-0.1-0.3
	c0-1.4-1.5-15.3-4-16.3c-0.1,0-0.2,0-0.3,0c-1,0.4-4.4,0.8-0.5,12.3c0.7,2.1,0.7,4.1,0.7,4.1l5.7,15.9c0,0.2,0,0.4-0.1,0.5
	c-0.6,0.5-1.1,0.4-2.8-0.6c-0.1,0-1.3-2-1.4-2.1c-1.2-2-20.7-31.1-0.7-57.1c0,0,18.7-26.2,45.4-4.8c20.7,16.5,6.1,30.5,6.9,29.6
	c0.6-0.7-0.7-12.4-0.7-12.4c-4.8,3.4-28,13.5-35.3,4.8c-0.2-0.3-0.7-0.2-0.8,0.1c-0.9,2.3-3.9,8.5-8.7,7
	C354.7,216.2,354.4,216.5,354.4,216.8z"/>
<path class="st31" d="M188.1,228.4c0,0,0-2.6,2.4-2.7c0.4,0.2,0.9,0.9,1.3,0.9c0.5,0,1.1-1,1.6-1.3c1.1-1.3,4.8-1,9.9,1.1
	c0,0-3.9,3.3-6.9,4.3c-1.4,0.5-4.6,1.3-5.8,0.3C190.7,231,189.3,230.7,188.1,228.4z"/>
<path class="st32" d="M194,200.2c0,0,6.2-6.2,13.8-2.8l3.1-2.4c0,0-3.4,1.3-6.2,1.4"/>
<path class="st32" d="M185,202.5c0,0-5.3-2.2-9,1.7l-2.5-0.7c0,0,2.4,0,4.1-0.7"/>
<path class="st33" d="M186.4,201.6c0,0,1.4,6.2,0.7,11.7l-0.3,6.5c0,0,0.3,3.1,4.5,1"/>
<path class="st33" d="M388,229.3l3.6,18.5c0,0-0.5,2-3.4,1.6c0,0-1.5-0.3-2.2-0.2"/>
</svg>
