<?xml version="1.0" encoding="utf-8"?>
<!-- Generator: Adobe Illustrator 21.0.2, SVG Export Plug-In . SVG Version: 6.00 Build 0)  -->
<svg version="1.1" id="Layer_1" xmlns="http://www.w3.org/2000/svg" xmlns:xlink="http://www.w3.org/1999/xlink" x="0px" y="0px"
	 viewBox="0 0 600 600" style="enable-background:new 0 0 600 600;" xml:space="preserve">
<style type="text/css">
	.st0{fill:none;}
	.st1{fill:#231F20;}
	.st2{fill:#320A28;}
	.st3{fill:url(#SVGID_1_);}
	.st4{fill:#020202;}
	.st5{fill:#FFFFFF;}
	.st6{fill:#030104;}
	.st7{fill:#ECC19C;}
	.st8{fill:#CF9E76;}
	.st9{fill:#B3B3B3;}
	.st10{fill:#1A1A1A;}
	.st11{fill:#070707;}
	.st12{fill:#0964F2;}
	.st13{fill:#EEDC11;}
	.st14{fill:#E55934;}
	.st15{fill:#CCCCCC;}
	.st16{fill:#3C5A9A;}
	.st17{fill:#00ACED;}
	.st18{fill:#FF130D;}
	.st19{fill:#F6F4EC;}
	.st20{fill:#4285F4;}
	.st21{fill:#34A853;}
	.st22{fill:#FBBC05;}
	.st23{fill:#EB4335;}
	.st24{fill:url(#SVGID_2_);}
	.st25{fill:url(#SVGID_3_);}
	.st26{fill:url(#SVGID_4_);}
	.st27{fill:none;stroke:#020202;stroke-miterlimit:10;}
	.st28{fill:#F2F2F2;}
	.st29{fill:#42210B;}
	.st30{fill:none;stroke:#FFFFFF;stroke-miterlimit:10;}
	.st31{fill:none;stroke:#000000;stroke-linecap:round;stroke-miterlimit:10;stroke-dasharray:12,5,12,5,12,5;}
</style>
<pattern  width="72" height="72" patternUnits="userSpaceOnUse" id="Sticks" viewBox="29.1 -99.7 72 72" style="overflow:visible;">
	<g>
		<rect x="29.1" y="-99.7" class="st0" width="72" height="72"/>
		<g>
			
				<rect x="104.5" y="-37.8" transform="matrix(0.8908 -0.4544 0.4544 0.8908 21.596 45.2816)" class="st1" width="1" height="31.1"/>
		</g>
		<g>
			
				<rect x="86.5" y="-42.2" transform="matrix(0.5705 -0.8213 0.8213 0.5705 59.3226 60.0239)" class="st1" width="1" height="31.1"/>
			
				<rect x="79.8" y="-15.4" transform="matrix(0.4544 -0.8908 0.8908 0.4544 65.3256 76.8441)" class="st1" width="31.1" height="1"/>
			
				<rect x="92.2" y="-30.7" transform="matrix(0.9125 -0.4091 0.4091 0.9125 14.3017 36.5912)" class="st1" width="1" height="31.1"/>
			
				<rect x="31.5" y="-24.7" transform="matrix(0.9264 -0.3766 0.3766 0.9264 12.5784 15.9528)" class="st1" width="31.1" height="1"/>
			
				<rect x="51.8" y="-34.2" transform="matrix(0.8254 -0.5646 0.5646 0.8254 19.6726 26.2831)" class="st1" width="1" height="31.1"/>
			<rect x="70.3" y="-17" transform="matrix(0.5374 -0.8434 0.8434 0.5374 53.625 64.8027)" class="st1" width="31.1" height="1"/>
			<polygon class="st1" points="51.9,-2.5 66.1,-30.2 65.1,-30.7 51,-3 			"/>
			
				<rect x="32.5" y="-37.8" transform="matrix(0.8908 -0.4544 0.4544 0.8908 13.7321 12.5622)" class="st1" width="1" height="31.1"/>
			
				<rect x="65.3" y="-35.4" transform="matrix(0.9794 -0.2019 0.2019 0.9794 5.3725 12.8848)" class="st1" width="1" height="31.1"/>
			
				<rect x="59.4" y="-36.4" transform="matrix(0.4864 -0.8737 0.8737 0.4864 48.9883 41.5937)" class="st1" width="1" height="31.1"/>
			
				<rect x="20.2" y="-20.1" transform="matrix(0.1922 -0.9814 0.9814 0.1922 48.0522 19.3017)" class="st1" width="31.1" height="1"/>
			<rect x="44.5" y="-30.8" transform="matrix(0.9762 -0.2171 0.2171 0.9762 4.3909 9.4032)" class="st1" width="1" height="31.1"/>
		</g>
		<g>
			
				<rect x="7.8" y="-15.4" transform="matrix(0.4544 -0.8908 0.8908 0.4544 26.0413 12.7061)" class="st1" width="31.1" height="1"/>
		</g>
		<g>
			
				<rect x="95.9" y="-83.2" transform="matrix(0.9884 -0.1517 0.1517 0.9884 13.8341 15.9503)" class="st1" width="31.1" height="1"/>
			
				<rect x="104.4" y="-74.4" transform="matrix(0.9292 -0.3695 0.3695 0.9292 29.1863 34.5808)" class="st1" width="1" height="31.1"/>
			<rect x="95.8" y="-51" transform="matrix(0.9863 -0.1648 0.1648 0.9863 9.8383 17.663)" class="st1" width="31.1" height="1"/>
			<rect x="95.3" y="-33" transform="matrix(0.9171 -0.3987 0.3987 0.9171 22.1268 41.5021)" class="st1" width="31.1" height="1"/>
			
				<rect x="109.5" y="-108.6" transform="matrix(0.2736 -0.9618 0.9618 0.2736 169.4441 38.2364)" class="st1" width="1" height="31.1"/>
			
				<rect x="104.5" y="-109.8" transform="matrix(0.8908 -0.4544 0.4544 0.8908 54.3154 37.4177)" class="st1" width="1" height="31.1"/>
			
				<rect x="107.9" y="-53.4" transform="matrix(0.4864 -0.8737 0.8737 0.4864 88.7499 75.2385)" class="st1" width="1" height="31.1"/>
			
				<rect x="102.5" y="-86.3" transform="matrix(0.9717 -0.2364 0.2364 0.9717 19.6529 22.3428)" class="st1" width="1" height="31.1"/>
		</g>
		<g>
			<rect x="23.9" y="-83.2" transform="matrix(0.9884 -0.1517 0.1517 0.9884 13.0007 5.027)" class="st1" width="31.1" height="1"/>
			
				<rect x="73.1" y="-94.5" transform="matrix(0.9884 -0.1517 0.1517 0.9884 15.2814 12.3552)" class="st1" width="31.1" height="1"/>
			
				<rect x="86.5" y="-114.2" transform="matrix(0.5705 -0.8213 0.8213 0.5705 118.4574 29.0979)" class="st1" width="1" height="31.1"/>
			
				<rect x="30.9" y="-58.9" transform="matrix(0.8838 -0.4678 0.4678 0.8838 32.6883 14.9602)" class="st1" width="31.1" height="1"/>
			
				<rect x="75.4" y="-53.8" transform="matrix(0.8852 -0.4652 0.4652 0.8852 35.2136 36.1911)" class="st1" width="31.1" height="1"/>
			
				<rect x="79.8" y="-87.4" transform="matrix(0.4544 -0.8908 0.8908 0.4544 129.4636 37.5598)" class="st1" width="31.1" height="1"/>
			
				<rect x="74.6" y="-79.7" transform="matrix(0.8883 -0.4593 0.4593 0.8883 37.8674 27.3197)" class="st1" width="1" height="31.1"/>
			
				<rect x="94.3" y="-90.6" transform="matrix(0.9125 -0.4092 0.4092 0.9125 39.0094 32.2377)" class="st1" width="1" height="31.1"/>
			<polygon class="st1" points="58.5,-54.8 45.8,-26.4 44.9,-26.8 57.6,-55.2 			"/>
			
				<rect x="92.2" y="-102.7" transform="matrix(0.9125 -0.4091 0.4091 0.9125 43.7569 30.2905)" class="st1" width="1" height="31.1"/>
			<rect x="63.7" y="-49.8" transform="matrix(0.421 -0.9071 0.9071 0.421 90.6504 43.354)" class="st1" width="31.1" height="1"/>
			
				<rect x="29.3" y="-30.9" transform="matrix(0.6585 -0.7526 0.7526 0.6585 38.202 23.3804)" class="st1" width="31.1" height="1"/>
			
				<rect x="59.3" y="-40.7" transform="matrix(0.6525 -0.7578 0.7578 0.6525 56.4936 42.782)" class="st1" width="31.1" height="1"/>
			<rect x="37" y="-67" transform="matrix(0.9919 -0.1268 0.1268 0.9919 6.8235 4.3402)" class="st1" width="1" height="31.1"/>
			
				<rect x="43.5" y="-67.1" transform="matrix(0.3661 -0.9306 0.9306 0.3661 99.4057 12.7287)" class="st1" width="31.1" height="1"/>
			<rect x="29.4" y="-66.3" transform="matrix(0.7366 -0.6763 0.6763 0.7366 56.328 13.095)" class="st1" width="31.1" height="1"/>
			
				<rect x="31.6" y="-45.7" transform="matrix(0.5092 -0.8606 0.8606 0.5092 61.9985 18.3928)" class="st1" width="31.1" height="1"/>
			
				<rect x="32.4" y="-74.4" transform="matrix(0.9292 -0.3695 0.3695 0.9292 24.0909 7.9769)" class="st1" width="1" height="31.1"/>
			<rect x="32" y="-78.2" transform="matrix(0.5434 -0.8394 0.8394 0.5434 86.9454 4.4665)" class="st1" width="31.1" height="1"/>
			<polygon class="st1" points="83.3,-70.9 112.4,-60.1 112.1,-59.1 82.9,-69.9 			"/>
			
				<rect x="31.5" y="-96.7" transform="matrix(0.9264 -0.3766 0.3766 0.9264 39.6932 10.652)" class="st1" width="31.1" height="1"/>
			
				<rect x="82.1" y="-62.1" transform="matrix(0.3991 -0.9169 0.9169 0.3991 92.3786 47.7778)" class="st1" width="1" height="31.1"/>
			
				<rect x="74.3" y="-75.7" transform="matrix(0.9264 -0.3766 0.3766 0.9264 34.9321 28.2975)" class="st1" width="31.1" height="1"/>
			
				<rect x="51.8" y="-106.2" transform="matrix(0.8254 -0.5646 0.5646 0.8254 60.3241 13.7091)" class="st1" width="1" height="31.1"/>
			
				<rect x="71.7" y="-63.5" transform="matrix(0.9727 -0.2322 0.2322 0.9727 17.0087 18.5396)" class="st1" width="31.1" height="1"/>
			<rect x="23.8" y="-51" transform="matrix(0.9863 -0.1648 0.1648 0.9863 8.8534 5.7947)" class="st1" width="31.1" height="1"/>
			<rect x="23.3" y="-33" transform="matrix(0.9171 -0.3987 0.3987 0.9171 16.1565 12.7955)" class="st1" width="31.1" height="1"/>
			
				<rect x="66.7" y="-84.1" transform="matrix(0.8426 -0.5385 0.5385 0.8426 57.9442 31.1652)" class="st1" width="31.1" height="1"/>
			<polygon class="st1" points="58.3,-58.6 87.1,-46.9 86.7,-46 57.9,-57.7 			"/>
			<polygon class="st1" points="78.5,-30.6 99.2,-53.8 100,-53.1 79.3,-29.9 			"/>
			
				<rect x="37.5" y="-108.6" transform="matrix(0.2736 -0.9618 0.9618 0.2736 117.1451 -31.0158)" class="st1" width="1" height="31.1"/>
			
				<rect x="79.3" y="-52.6" transform="matrix(0.2736 -0.9618 0.9618 0.2736 93.6084 49.8178)" class="st1" width="1" height="31.1"/>
			<rect x="60" y="-95.4" transform="matrix(0.2736 -0.9618 0.9618 0.2736 120.7442 0.25)" class="st1" width="1" height="31.1"/>
			
				<rect x="49.6" y="-37.1" transform="matrix(0.8585 -0.5128 0.5128 0.8585 27.9589 28.2438)" class="st1" width="31.1" height="1"/>
			<rect x="61.1" y="-77.7" transform="matrix(0.146 -0.9893 0.9893 0.146 114.1128 7.8287)" class="st1" width="1" height="31.1"/>
			
				<rect x="49.7" y="-37.7" transform="matrix(0.2214 -0.9752 0.9752 0.2214 87.0437 34.6629)" class="st1" width="31.1" height="1"/>
			
				<rect x="68.8" y="-70.7" transform="matrix(0.1138 -0.9935 0.9935 0.1138 144.5476 21.5935)" class="st1" width="31.1" height="1"/>
			
				<rect x="47.8" y="-73.3" transform="matrix(0.5374 -0.8434 0.8434 0.5374 90.6472 19.7241)" class="st1" width="31.1" height="1"/>
			
				<rect x="70.3" y="-89" transform="matrix(0.5374 -0.8434 0.8434 0.5374 114.3464 31.4927)" class="st1" width="31.1" height="1"/>
			<polygon class="st1" points="51.9,-74.5 66.1,-102.2 65.1,-102.7 51,-75 			"/>
			
				<rect x="32.5" y="-109.8" transform="matrix(0.8908 -0.4544 0.4544 0.8908 46.4515 4.6983)" class="st1" width="1" height="31.1"/>
			<rect x="82" y="-38.9" transform="matrix(0.4593 -0.8883 0.8883 0.4593 86.859 65.8522)" class="st1" width="31.1" height="1"/>
			
				<rect x="65.3" y="-107.4" transform="matrix(0.9794 -0.2019 0.2019 0.9794 19.9059 11.4028)" class="st1" width="1" height="31.1"/>
			
				<rect x="71.1" y="-91.2" transform="matrix(0.3766 -0.9264 0.9264 0.3766 114.7255 19.1562)" class="st1" width="1" height="31.1"/>
			<rect x="95.2" y="-57" transform="matrix(0.9935 -0.1138 0.1138 0.9935 5.3433 10.6277)" class="st1" width="1" height="31.1"/>
			
				<rect x="41.8" y="-69.1" transform="matrix(0.6655 -0.7464 0.7464 0.6655 54.1131 13.6843)" class="st1" width="1" height="31.1"/>
			<rect x="63.1" y="-56.3" transform="matrix(0.6656 -0.7463 0.7463 0.6656 51.72 33.8311)" class="st1" width="1" height="31.1"/>
			
				<rect x="35.9" y="-53.4" transform="matrix(0.4864 -0.8737 0.8737 0.4864 51.7726 12.3305)" class="st1" width="1" height="31.1"/>
			
				<rect x="34.2" y="-37.1" transform="matrix(0.8852 -0.4651 0.4651 0.8852 22.7267 18.9509)" class="st1" width="31.1" height="1"/>
			<rect x="88.8" y="-49" transform="matrix(0.4864 -0.8737 0.8737 0.4864 75.1522 60.8741)" class="st1" width="1" height="31.1"/>
			
				<rect x="59.4" y="-108.4" transform="matrix(0.4864 -0.8737 0.8737 0.4864 111.8962 4.6164)" class="st1" width="1" height="31.1"/>
			
				<rect x="20.2" y="-92.1" transform="matrix(0.1922 -0.9814 0.9814 0.1922 118.7103 -38.8625)" class="st1" width="31.1" height="1"/>
			<rect x="76.8" y="-98.6" transform="matrix(0.9762 -0.217 0.217 0.9762 19.8781 14.8051)" class="st1" width="1" height="31.1"/>
			
				<rect x="45.4" y="-71.2" transform="matrix(0.9762 -0.2171 0.2171 0.9762 13.1673 8.6315)" class="st1" width="1" height="31.1"/>
			
				<rect x="44.5" y="-102.8" transform="matrix(0.9762 -0.2171 0.2171 0.9762 20.0191 7.6866)" class="st1" width="1" height="31.1"/>
			
				<rect x="69.5" y="-94.6" transform="matrix(0.9762 -0.2171 0.2171 0.9762 18.8244 13.3097)" class="st1" width="1" height="31.1"/>
			
				<rect x="84.2" y="-71.6" transform="matrix(0.6655 -0.7464 0.7464 0.6655 70.1615 44.4886)" class="st1" width="1" height="31.1"/>
			<rect x="43" y="-103.7" transform="matrix(0.6656 -0.7463 0.7463 0.6656 80.3525 3.0083)" class="st1" width="1" height="31.1"/>
			
				<rect x="30.5" y="-86.3" transform="matrix(0.9717 -0.2364 0.2364 0.9717 17.6122 5.3223)" class="st1" width="1" height="31.1"/>
		</g>
		<g>
			<rect x="1.1" y="-94.5" transform="matrix(0.9884 -0.1517 0.1517 0.9884 14.4479 1.4319)" class="st1" width="31.1" height="1"/>
			<rect x="3.4" y="-53.8" transform="matrix(0.8852 -0.4652 0.4652 0.8852 26.9487 2.6974)" class="st1" width="31.1" height="1"/>
			
				<rect x="7.8" y="-87.4" transform="matrix(0.4544 -0.8908 0.8908 0.4544 90.1793 -26.5782)" class="st1" width="31.1" height="1"/>
			<rect x="22.3" y="-90.6" transform="matrix(0.9125 -0.4092 0.4092 0.9125 32.707 2.7789)" class="st1" width="1" height="31.1"/>
			<polygon class="st1" points="11.3,-70.9 40.4,-60.1 40.1,-59.1 10.9,-69.9 			"/>
			<rect x="2.3" y="-75.7" transform="matrix(0.9264 -0.3766 0.3766 0.9264 29.6313 1.1826)" class="st1" width="31.1" height="1"/>
			<rect x="-0.3" y="-63.5" transform="matrix(0.9727 -0.2322 0.2322 0.9727 15.04 1.8176)" class="st1" width="31.1" height="1"/>
			<rect x="10" y="-38.9" transform="matrix(0.4593 -0.8883 0.8883 0.4593 47.9309 1.8972)" class="st1" width="31.1" height="1"/>
			<rect x="16.8" y="-49" transform="matrix(0.4864 -0.8737 0.8737 0.4864 38.175 -2.0339)" class="st1" width="1" height="31.1"/>
		</g>
		<g>
			
				<rect x="95.3" y="-105" transform="matrix(0.9171 -0.3987 0.3987 0.9171 50.8335 35.5319)" class="st1" width="31.1" height="1"/>
		</g>
		<g>
			<polygon class="st1" points="58.5,-126.8 45.8,-98.4 44.9,-98.8 57.6,-127.2 			"/>
			
				<rect x="29.3" y="-102.9" transform="matrix(0.6585 -0.7526 0.7526 0.6585 92.3865 -1.2061)" class="st1" width="31.1" height="1"/>
			<rect x="23.3" y="-105" transform="matrix(0.9171 -0.3987 0.3987 0.9171 44.8632 6.8252)" class="st1" width="31.1" height="1"/>
			
				<rect x="49.7" y="-109.7" transform="matrix(0.2214 -0.9752 0.9752 0.2214 157.2574 -21.3984)" class="st1" width="31.1" height="1"/>
			
				<rect x="82" y="-110.9" transform="matrix(0.4593 -0.8883 0.8883 0.4593 150.814 26.9242)" class="st1" width="31.1" height="1"/>
			<rect x="95.2" y="-129" transform="matrix(0.9935 -0.1138 0.1138 0.9935 13.539 10.1597)" class="st1" width="1" height="31.1"/>
			
				<rect x="88.8" y="-121" transform="matrix(0.4864 -0.8737 0.8737 0.4864 138.0601 23.8968)" class="st1" width="1" height="31.1"/>
		</g>
		<g>
			
				<rect x="10" y="-110.9" transform="matrix(0.4593 -0.8883 0.8883 0.4593 111.8859 -37.0308)" class="st1" width="31.1" height="1"/>
			
				<rect x="16.8" y="-121" transform="matrix(0.4864 -0.8737 0.8737 0.4864 101.0829 -39.0111)" class="st1" width="1" height="31.1"/>
		</g>
	</g>
</pattern>
<circle class="st2" cx="315.7" cy="300.3" r="268.7"/>
<pattern  id="SVGID_1_" xlink:href="#Sticks" patternTransform="matrix(1 0 0 1 -68 -12)">
</pattern>
<circle class="st3" cx="315.7" cy="300.3" r="268.7"/>
<g>
	<path d="M414.5,214.3l7.3-19l-21.7-14.3l-13.6,13.7C386.5,194.8,408.3,207.8,414.5,214.3z"/>
</g>
<g>
	<path class="st4" d="M416.5,231.7c0,0-15.9,3.7-22.9,13.4c0,0,7.2,23,13.3,30.5l14.8-23.3L416.5,231.7z"/>
</g>
<g>
	<path class="st0" d="M555.6,150.9c0,0,7.3,10,7.5,16.1c0,0-0.5,14.8,2.6,19.1"/>
</g>
<path class="st5" d="M556.2,154.8c7.8,20,8.6,29.9,3.1,32c-5.4,2.1-17.9-6.2-25.7-26.2c-7.8-20-8-34.1-2.4-37.5
	C536.1,120.1,548.4,134.8,556.2,154.8z"/>
<path class="st0" d="M528.9,126.8c-1.7,0.7-2.7,16.6,4.8,34.1c7.5,17.4,19.2,26.7,21,26c1.7-0.7,1.5-14.7-6-32.1
	C541.2,137.3,530.7,126.1,528.9,126.8z"/>
<path class="st6" d="M558.1,150.5c-9.6-22.4-25.2-39.5-33-36.3c-12.7,5.2,5.9,28.9-48.5,54.1c1.1,7.5,3.2,19.9,5.7,28.3
	c0.5-0.2,0.9-0.3,0.9-0.3c4,5.4,9.5,2.3,11,5.7c1.8,4.1,5.6,10.2,6.9,13.3c1.3,3.1,3.2,8.7,5.4,7.9c2.2-0.8,5.1-3.7,7.9-4.7
	c2.8-1.1,3.5-3.6,2.7-5.6c-0.9-2.2-5.8-1.2-6.9-3.7c-1.1-2.5-2.4-8.8-3.4-11.4c-1.4-3.5,4.9-9.6,9.2-10.1
	c29.8-3.1,35.4,15.3,45.5,11.2C569.3,195.6,567.7,172.9,558.1,150.5z M554.7,186.8c-1.7,0.7-13.5-8.5-21-26
	c-7.5-17.4-6.5-33.4-4.8-34.1c1.7-0.7,12.2,10.5,19.7,27.9C556.2,172.1,556.4,186.1,554.7,186.8z"/>
<path class="st6" d="M467.5,172.2c-5.7,2.3-7.1,11.5-4.7,17c2.4,5.5,10.1,11,15.7,8.7c0.1-0.1,0.3-0.1,0.5-0.2
	c-2.2-7.4-5.3-18.9-6.6-27.6C470.9,170.8,469.3,171.5,467.5,172.2z"/>
<g>
	<path class="st7" d="M496.8,232.3l4-15.7c0.2-0.8,1.2-1,1.7-0.4v0c2.2,2.6,6.3,2.2,7.8-0.9l2.4-4.7l11.9,2.3c0,0,10.7,5.3,6.8,29.5
		c-0.3,2.1-1.7,3.9-3.7,4.7l-5.3,2.3c-1.6,0.7-3.4,1-5.2,0.9l-12.5-0.6C504.8,249.8,492.2,244.5,496.8,232.3z"/>
</g>
<path class="st8" d="M502,250.7l15-0.3c0,0-12.6-6.5-15.3-34.6l-0.6-0.5c0,0-4.5,9.3-4.7,18.3c-0.2,9,0,0,0,0L502,250.7z"/>
<g>
	<path class="st9" d="M431.3,246.1c0.5,0.7-2.1,5.6-0.9,10.8c0,0.1,0.1,0.3,0.1,0.4c2.3,4.3,4.3,8.9,5.1,15.4c0.4,3,2.7,6.1,5.5,7.9
		c0.4,0.2,0.8,0.3,1.3,0.1c5.9-2.1,50-18.3,60.8-27.6c0.2-0.2,0.4-0.5,0.5-0.8c0.5-2.3,2.1-12.1-7-18.7c-0.3-0.2-0.7-0.3-1.1-0.3
		c-5.9,0.8-55.7,7.7-64.2,12.3C431.3,245.8,431.2,246,431.3,246.1z"/>
</g>
<path class="st10" d="M431.3,245.8c0,0,16.3,6.7,10.5,35.2C441.8,281,422.5,268.9,431.3,245.8z"/>
<g>
	<g>
		<path class="st11" d="M406,275c0.4,0.5,0.7,0.9,1.1,1.2c0,0,16.6,0.6,35.8-3.4c0,0,2-14-4.4-20.5l-16.9,0.7l-0.2-1"/>
	</g>
</g>
<g>
	<path class="st9" d="M386.2,196.6c0,0,31.9-0.4,38.4,41.2c0,0-27.7,2.3-33.5,21.7c0,0,4.9,29.8-68.3,43l-12.8,4.7
		c0,0-30.5,35-87.9,55.4c0,0-109.6-3.7-114.7-8.6c0,0,139.4-72.9,180.9-88.4c0,0,37.2-28.5,40.5-34
		C328.8,231.7,366.2,202.5,386.2,196.6z"/>
</g>
<g>
	<path d="M312.3,303c-1.7-6-8.8-29.2-19-39.9c-0.7-0.7-1.8-0.9-2.6-0.4l-6.1,3.6c-1.1,0.6-1.4,2.1-0.6,3.1
		c4.1,5.7,16.3,23.1,20.7,37.4c0.4,1.4,1.4,4.4,2.6,3.6l4.8-4C312.7,306,312.6,303.8,312.3,303z"/>
</g>
<path class="st10" d="M383.9,218.7c-1.4,7.2-3.4,25,9.8,34.5c0.1,0.1,0.4,0.1,0.5,0c1.4-1.4,9.2-8.7,17.5-12.2
	c0.4-0.2,0.3-0.7-0.2-0.7c-7.6,0.5-26.1-0.4-26.9-21.5C384.6,218.3,384,218.2,383.9,218.7z"/>
<g>
	<path class="st10" d="M495.3,253.1c0,0-30.8,14.4-41.8,16.5"/>
</g>
<path d="M152.2,331.9l-0.2,0l8.1,30.1l-35.4-28.7c-17.3,3.2-70-10.1-70-10.1c-3.8-2.8-9-6.4-12.1-6.2c-3,2.9-10.8,8.9-10.8,8.9
	l-12.5,7.2C7.3,338.5,8.5,341.6,3.4,348c-0.4,0.9-0.7,1.8-0.7,2.6c0,0-0.9,3.5,0.3,7.7c0,0,2.3,4.9,29.2-4.8l5.5-1.9
	c0,0,15.6-7.9,26.7-4.9c0,0,46,21.4,60.8,22.9l38.3,3.9L152.2,331.9z"/>
<path class="st10" d="M28.9,342l5.5-1.9c0,0,15.6-7.9,26.7-4.9c0,0,46,21.4,60.8,22.9l38.3,3.9l-8.1-30.1l-42.1,1.3l-55.2-9.9
	c0,0-7.8-6.4-12.1-6.2c0,0-8.7,7.6-15.5,11.2c0,0-20.2,7.5-23.6,19.7C7.3,348.2,14.6,347.2,28.9,342z"/>
<path d="M294.2,271.2c0,0-32.5,39.6-1.6,52c-17,16.9-74.6,49.6-93.2,42.2c0,0-5.4-35,2.3-42.2L294.2,271.2z"/>
<g>
	<path d="M65.7,399.6l4.4-3.7c0,0,11.7-13,23.1-14.3c0,0,50.7,3.2,64.9-0.8l36.6-10.2l-25.1-34.8l-43.3,19.6l-50.7,7.9
		c0,0-9.6-3.2-13.6-1.4c0,0-5.5,12.5-11.7,17.9c0,0-16.2,21.4-13.5,29.7c0,0,2.9,3.7,3.6,5.4C41.6,415.3,47,416,65.7,399.6z"/>
	<path class="st10" d="M54.2,382.1c6.2-5.4,12.7-12.3,12.7-12.3c3.9-1.8,11.3-2.4,11.3-2.4l50.7-7.9l43.3-19.6l22.7,30.7l0.5-0.1
		l-25.6-34.7l-43.3,19.6l-50.7,7.9c0,0-9.6-3.2-13.6-1.4c0,0-4.1,10.8-10.4,16.1c0,0-17.9,22-15.1,30.4c0,0,1.1,2.9,3.7,6.4
		c0,0,0.1,0.1,0.2,0.1c-0.7-1.8-0.9-3.1-0.9-3.1C36.9,403.5,54.2,382.1,54.2,382.1z"/>
</g>
<path class="st10" d="M401.1,200.9c0,0-19.5,6.2-39.4,32.2c-4.6,6-10.5,10.9-17.3,14.3c-17.4,8.6-52.6,28.4-78.4,58.4
	c-4.1,4.7-8.4,9.2-13.1,13.3c-16.1,14.1-54.6,50.4-67.1,86.5c-4.1-3-23.6-2.3-23.6-2.3l126.2-142.1l105.8-66.2l3.4,3L401.1,200.9z"
	/>
<g>
	<path class="st12" d="M401.8,201c0,0-10.5-6.7-48.4,30.5c-15.2,18.4-77.8,29.2-113,91c-13,22.9-44,84.1-78.1,80.8
		c0,0,2-29.8-19.7-41.8c-81.1-44.7-37.9-121-37.9-121s19,10.2,34.2,11.3c34.2,2.4,38.2-23.8,71-39.9c31.5-15.5,33.1-7.4,96.2-29
		C372.1,166.8,401.8,201,401.8,201z"/>
</g>
<path class="st13" d="M181.7,148.3c0,0-16.1-6.2-28.1,5.9c-8.2,7.7-19.3,27.2-27.8,30.7c0,0,12.5-2.3,42.6,1.6
	c14.6,2.5,22.4-16.4,22.4-16.4L181.7,148.3z"/>
<path class="st14" d="M181.4,155.4c0,0-7.9-3-13.9,2.9c-4.1,3.8-9.5,13.4-13.7,15.2c0,0,6.2-1.2,21,0.8c7.2,1.2,11.1-8.1,11.1-8.1
	L181.4,155.4z"/>
<path d="M198.5,171.3l69.7-20.8c4.2-1.2,7.8-3.8,10.4-7.3l20.5-27.4c1.6-2.1,0.3-5.1-2.3-5.4l-34.8-4.6c-3.8-0.5-7.7,0.2-11.1,2
	l-64.7,34.4L198.5,171.3z"/>
<path class="st15" d="M275.4,143.9l-74.2,24c-0.2,0.1-0.4,0-0.5-0.1l-0.4-1.3c0-0.1,0.1-0.3,0.3-0.4l74.2-24c0.1,0,0.1,0,0.2-0.1
	l8.4-10.1c0.4-0.3,0.8,0,0.5,0.3l-8.3,11.6C275.5,143.8,275.4,143.9,275.4,143.9z"/>
<polygon class="st5" points="252.1,107.2 269.8,150 232.5,161.2 217.1,125 "/>
<polygon points="187.8,130.2 209,180.2 197.9,194.5 183.3,200.6 191.4,179.1 176,142.8 155.3,134.4 169.8,128.2 "/>
<path class="st13" d="M184.6,427.2c0,0-3.4,7.5-11.6,7.4c-5.4,0.2-15.7-2.8-19.8-1.1c0,0,5.1-3.4,14-14.9c4.1-5.8,13.1-2,13.1-2
	L184.6,427.2z"/>
<path class="st14" d="M182.5,417.5c0,0-5.3-2-9.2,2c-2.7,2.5-6.3,8.9-9.1,10.1c0,0,4.1-0.8,14,0.5c4.8,0.8,7.3-5.4,7.3-5.4
	L182.5,417.5z"/>
<path d="M188.3,427.3l33.3-9.9c2-0.6,3.7-1.8,5-3.5l9.8-13.1c0.7-1,0.1-2.4-1.1-2.6l-16.7-2.2c-1.8-0.2-3.7,0.1-5.3,1l-31,16.5
	L188.3,427.3z"/>
<path class="st15" d="M225.1,414.2l-35.5,11.5c-0.1,0-0.2,0-0.2-0.1l-0.2-0.6c0-0.1,0-0.1,0.1-0.2l35.5-11.5c0,0,0.1,0,0.1,0l4-4.9
	c0.2-0.1,0.4,0,0.3,0.1L225.1,414.2C225.2,414.2,225.1,414.2,225.1,414.2z"/>
<polygon class="st5" points="214,396.7 222.4,417.1 204.6,422.5 197.2,405.2 "/>
<polygon points="183.2,407.6 193.3,431.6 188,438.4 181.1,441.3 184.9,431.1 177.5,413.7 167.6,409.7 174.6,406.7 "/>
<path class="st13" d="M260.5,504.1c0,0-5,10.9-16.9,10.9c-7.8,0.2-23-4-28.9-1.6c0,0,7.4-5,20.4-21.7c6-8.4,19.2-2.9,19.2-2.9
	L260.5,504.1z"/>
<path class="st14" d="M255.3,492c0,0-6.4-2.4-11.1,2.4c-3.3,3-7.7,10.8-11,12.2c0,0,5-0.9,16.9,0.6c5.8,1,8.9-6.5,8.9-6.5L255.3,492
	z"/>
<path d="M265.9,504.4l48.6-14.5c2.9-0.9,5.5-2.7,7.3-5.1l14.3-19.2c1.1-1.5,0.2-3.5-1.6-3.8l-24.3-3.2c-2.7-0.4-5.4,0.1-7.7,1.4
	l-45.2,24L265.9,504.4z"/>
<path class="st15" d="M319.6,485.2L267.8,502c-0.1,0-0.3,0-0.3-0.1l-0.3-0.9c0-0.1,0.1-0.2,0.2-0.3l51.8-16.8c0,0,0.1,0,0.1-0.1
	l5.8-7.1c0.3-0.2,0.6,0,0.4,0.2l-5.8,8.1C319.7,485.2,319.6,485.2,319.6,485.2z"/>
<polygon class="st5" points="303.3,459.6 315.7,489.5 289.6,497.3 278.9,472 "/>
<polygon points="258.4,475.6 273.2,510.6 265.5,520.5 255.3,524.8 260.9,509.8 250.2,484.4 235.7,478.6 245.9,474.3 "/>
<path class="st13" d="M320.6,399.4c0,0-12.7-4.9-22.3,4.7c-6.5,6.1-15.3,21.5-22,24.3c0,0,9.9-1.9,33.7,1.2c11.5,2,17.7-13,17.7-13
	L320.6,399.4z"/>
<path class="st14" d="M320.1,404.5c0,0-5-1.9-8.8,1.9c-2.6,2.4-6.1,8.5-8.7,9.6c0,0,3.9-0.7,13.4,0.5c4.6,0.8,7-5.1,7-5.1
	L320.1,404.5z"/>
<path d="M333.9,417.7l55.1-16.4c3.3-1,6.2-3,8.3-5.8l16.2-21.7c1.2-1.6,0.2-4-1.8-4.3l-27.5-3.6c-3-0.4-6.1,0.2-8.8,1.6l-51.2,27.3
	L333.9,417.7z"/>
<path class="st15" d="M394.7,396L336,415c-0.2,0.1-0.3,0-0.4-0.1l-0.3-1c0-0.1,0.1-0.2,0.2-0.3l58.7-19c0,0,0.1,0,0.1-0.1l6.6-8
	c0.3-0.2,0.7,0,0.4,0.2l-6.6,9.2C394.8,395.9,394.7,395.9,394.7,396z"/>
<polygon class="st5" points="376.3,366.9 390.3,400.8 360.8,409.6 348.6,381 "/>
<polygon points="325.4,385.1 342.1,424.7 333.3,436 321.8,440.8 328.2,423.8 316,395.1 299.7,388.4 311.2,383.6 "/>
<path class="st13" d="M107.8,242.5c0,0-10.8-4.1-18.9,4c-5.5,5.1-13,18.2-18.7,20.6c0,0,8.4-1.6,28.6,1.1c9.8,1.7,15-11,15-11
	L107.8,242.5z"/>
<path class="st14" d="M114.3,253.2c0,0-2.7,6.8-10,7.1c-4.8,0.4-14.2-1.8-17.7-0.1c0,0,4.4-3.3,11.9-13.9c3.4-5.3,11.6-2.3,11.6-2.3
	L114.3,253.2z"/>
<path d="M119.1,257.9l46.7-13.9c2.8-0.8,5.3-2.5,7-4.9l13.7-18.4c1-1.4,0.2-3.4-1.5-3.6l-23.3-3.1c-2.6-0.3-5.2,0.1-7.4,1.3
	l-43.4,23.1L119.1,257.9z"/>
<path class="st15" d="M170.6,239.5l-49.8,16.1c-0.1,0-0.3,0-0.3-0.1l-0.3-0.9c0-0.1,0.1-0.2,0.2-0.3l49.8-16.1c0,0,0.1,0,0.1-0.1
	l5.6-6.8c0.2-0.2,0.6,0,0.4,0.2l-5.6,7.8C170.7,239.5,170.7,239.5,170.6,239.5z"/>
<polygon class="st5" points="155,214.9 166.9,243.6 141.9,251.1 131.5,226.9 "/>
<polygon points="111.9,230.3 126.1,263.9 118.6,273.4 108.9,277.5 114.3,263.1 104,238.8 90.1,233.1 99.8,229 "/>
<path class="st16" d="M377.4,401.6l-5.5-12.2l4.1-1.8l-1.5-5l-4.7,2.1l-1.4-3c-0.6-1.4-0.7-2.5,1.3-3.4l2.5-1.1l-1.9-4.3
	c-0.5,0.1-2,0.7-3.8,1.5c-3.6,1.6-5.1,5-3.3,9.1l1.6,3.5l-4.1,1.9l2.1,4.8l4.1-1.9l5.5,12.2L377.4,401.6L377.4,401.6z"/>
<g>
	<path class="st17" d="M215,402.5c-0.5,0.5-1,0.8-1.6,1.2c0.5-0.6,0.7-1.4,0.7-2.2c-0.5,0.6-1,1.1-1.6,1.5c-0.8-0.4-1.7-0.4-2.6-0.1
		c-1.7,0.6-2.5,2.5-1.9,4.2c0.1,0.2,0.2,0.5,0.3,0.7c-2.6,0.8-5.3,0.5-7.5-0.8c-0.1,0.5,0,1.1,0.2,1.7c0.4,1.1,1.3,1.8,2.3,2
		c-0.5,0.2-1,0.2-1.5,0.2c0,0,0,0,0,0c0.6,1.5,2.1,2.3,3.6,2c-0.2,0.2-0.5,0.3-0.8,0.4c-0.2,0.1-0.4,0.1-0.6,0.2
		c0.9,1.1,2.3,1.5,3.7,1c-0.7,1.2-1.8,2.2-3.3,2.8c-0.2,0.1-0.5,0.2-0.7,0.2c1.7,0.3,3.5,0.2,5.2-0.4c5.6-2.2,6.8-8,5.3-12
		c-0.1-0.1-0.1-0.3-0.2-0.4C214.5,404,214.8,403.3,215,402.5z"/>
</g>
<g id="Capa_x0020_1">
	<g id="_376678360">
		<path class="st18" d="M285.7,474.4l16.6-6.2c1.7-0.6,3.7,0.2,4.3,2l3.7,9.9c0.6,1.7-0.2,3.7-2,4.3l-16.6,6.2
			c-1.7,0.6-3.7-0.2-4.3-2l-3.7-9.9C283.1,477,283.9,475,285.7,474.4z"/>
		<polygon class="st19" points="292.9,476 296,484.6 301.5,478 		"/>
	</g>
</g>
<path class="st20" d="M259,128.4c-0.6-1.3-1.1-2.3-1.8-3.2l-15.3,6.7l2.6,6.1l9-3.9c0.5,1.6,0.5,4.3-1,6.8l0.1,0.2l6.5,1.6l0.4-0.1
	C261.2,138.4,261.1,133.4,259,128.4"/>
<path class="st21" d="M250.3,151.2c4.4-1.9,7.5-5,9.1-8.7l-6.9-1.7c-1,1.6-2.5,3-4.9,4.1c-4.3,1.9-9.2,0.6-12.3-2.7l-0.2,0.1
	l-3.3,6.1l0,0.2C236.8,152.8,243.9,154,250.3,151.2"/>
<path class="st22" d="M235.3,142.2c-0.8-0.9-1.5-1.9-2-3c-0.5-1.1-0.8-2.3-0.9-3.5l-0.1-0.2l-6.8-1.7l-0.1,0.2
	c-0.1,2.7,0.3,5.5,1.5,8.1c1.1,2.6,2.9,4.8,4.9,6.6L235.3,142.2"/>
<path class="st23" d="M238.8,124.9c3.1-1.3,5.7-0.9,7.4-0.3l2.6-6.5c-4-1.4-8.4-1.4-12.8,0.5c-6.4,2.8-10.3,8.9-10.6,15.4l7.1,1.8
	C232,131.2,234.4,126.8,238.8,124.9"/>
<g>
	
		<linearGradient id="SVGID_2_" gradientUnits="userSpaceOnUse" x1="158.7716" y1="242.9108" x2="158.7716" y2="265.0333" gradientTransform="matrix(0.9236 -0.3832 0.3832 0.9236 -95.6918 60.3916)">
		<stop  offset="0" style="stop-color:#E09B3D"/>
		<stop  offset="0.3" style="stop-color:#C74C4D"/>
		<stop  offset="0.6" style="stop-color:#C21975"/>
		<stop  offset="1" style="stop-color:#7024C4"/>
	</linearGradient>
	<path class="st24" d="M148.2,222.1l-8.3,3.5c-3.4,1.4-5,5.3-3.6,8.7l3.5,8.3c1.4,3.4,5.3,5,8.7,3.6l8.3-3.5c3.4-1.4,5-5.3,3.6-8.7
		l-3.5-8.3C155.5,222.3,151.6,220.7,148.2,222.1z M158.3,234.9c0.9,2.3-0.1,4.8-2.4,5.8l-8.3,3.5c-2.3,0.9-4.8-0.1-5.8-2.4l-3.5-8.3
		c-0.9-2.3,0.1-4.8,2.4-5.8l8.3-3.5c2.3-0.9,4.8,0.1,5.8,2.4L158.3,234.9L158.3,234.9z"/>
	
		<linearGradient id="SVGID_3_" gradientUnits="userSpaceOnUse" x1="158.7716" y1="242.9107" x2="158.7716" y2="265.0333" gradientTransform="matrix(0.9236 -0.3832 0.3832 0.9236 -95.6918 60.3916)">
		<stop  offset="0" style="stop-color:#E09B3D"/>
		<stop  offset="0.3" style="stop-color:#C74C4D"/>
		<stop  offset="0.6" style="stop-color:#C21975"/>
		<stop  offset="1" style="stop-color:#7024C4"/>
	</linearGradient>
	<path class="st25" d="M146.1,228.8c-2.9,1.2-4.3,4.6-3.1,7.6c1.2,2.9,4.6,4.3,7.6,3.1c2.9-1.2,4.3-4.6,3.1-7.6
		C152.4,229,149,227.6,146.1,228.8z M149.7,237.4c-1.8,0.7-3.9-0.1-4.6-1.9s0.1-3.9,1.9-4.6c1.8-0.7,3.9,0.1,4.6,1.9
		C152.3,234.6,151.5,236.7,149.7,237.4z"/>
	
		<linearGradient id="SVGID_4_" gradientUnits="userSpaceOnUse" x1="164.5662" y1="336.8581" x2="164.5662" y2="358.9806" gradientTransform="matrix(0.9236 -0.3832 -0.3832 -0.9236 135.0243 616.4258)">
		<stop  offset="0" style="stop-color:#E09B3D"/>
		<stop  offset="0.3" style="stop-color:#C74C4D"/>
		<stop  offset="0.6" style="stop-color:#C21975"/>
		<stop  offset="1" style="stop-color:#7024C4"/>
	</linearGradient>
	<circle class="st26" cx="151.5" cy="226.7" r="1.4"/>
</g>
<g>
	<path class="st7" d="M398.2,117.4c6.1-8.4,19.7-19.2,41.1-6.3c0,0,16,8.5,14.2,30.8c-5.8,25.7-11.9,49.9-30.3,57.1
		c0,0-15-0.5-29.5-21.8C393.8,177.2,377.8,145.7,398.2,117.4z"/>
</g>
<path class="st27" d="M444.3,145.4c0,0,9.2-3.8,14-3.3"/>
<path class="st27" d="M433.9,140.6c0,0-11.7-6.2-20.3-2.1"/>
<path class="st8" d="M437.4,187.4c0.6-0.8,8-10.8,10-20.9c0.1-0.3,0-0.6,0-0.9l-4.3-15c-0.4-1.5-2.4-1.8-3.3-0.5l-1,1.4
	c-0.8,1.2-0.1,2.7,1.3,2.9l0,0c0.9,0.1,1.6,0.9,1.6,1.8l-2.2,17.8c0,0-6.7,5.5-6.7,5.5c-0.2,0.6-1.6-0.6-3.1-0.9
	c-15.9-3.6-13.6,9.3-17.9,7.7c-5.4,1.2-12-12.6-19.2-11.6c-0.2,1.3,3.6,6.2,4.3,7.2c3.3,4.5,12.4,15.2,26,17.2c0.3,0,0.5,0,0.8-0.1
	c1.7-0.5,8.1-2.9,13.5-11.6C437.4,187.5,437.4,187.5,437.4,187.4z"/>
<g>
	<path class="st28" d="M460.3,152.7c0.5-0.8,0.8-1.3,0.8-1.3c-18.4-13.3-61.2-4.6-61.2-4.6c0.4,0.6,0.8,1.1,1.2,1.7
		C408.9,147.1,443.2,142,460.3,152.7z"/>
	<path class="st4" d="M438.4,159.8l9,6.6c5.2-1.5,10.9-10.3,12.9-13.7c-17.1-10.6-51.3-5.6-59.3-4.2c8.2,11.4,17.5,17.1,17.5,17.1
		C431.4,164.1,438.4,159.8,438.4,159.8z"/>
</g>
<path class="st4" d="M423.1,187.9c0.4-1.7,0.4-3.4,0.2-5.1c-0.2-2.3,0.6-5.1,6.6-4c7.3,2,6.4,6.8,3.6,8.3c0,0-2.5,2.1-3.5,4.5
	c-1.2,2.9-4.1,1.8-5.8,0.8C422.7,191.5,422.8,189.5,423.1,187.9z"/>
<path class="st8" d="M453.8,137.4c0,0-19-31.9-44.1-18.4c-7.4,3.7-19.7,13.4-21.1,40.5c0,0-5.1-17.5,7.6-39.2
	c0,0,10.9-20.7,32.7-13.9C428.9,106.5,452.8,110.8,453.8,137.4z"/>
<path class="st29" d="M409.1,128.9c0,0-1.8,14.7-9.2,17.8c0,0-2.3,15,0,18.2c0,0-4.3-8.3-2.4-21.2c0,0-5.6-8.9-8.5,11
	c0,0,5.6,22.5,8.1,27.3c0,0-5.6,4.1-9.3,6.2c0,0,4.6-7.6-1.3-23.2c0,0-7-38.7,11.3-51.2s27.1-19.4,48.1,0c0,0,12.6,9.1,12.4,15.5
	c-0.2,6.4-14,14.8-29,19.1c0,0,30.7-13.4,4.7-22C407.9,117.7,409.1,128.9,409.1,128.9z"/>
<line class="st30" x1="412" y1="154.9" x2="421.8" y2="152.7"/>
<line class="st30" x1="424.7" y1="152" x2="429.6" y2="150.9"/>
<line class="st31" x1="541.6" y1="127.3" x2="565" y2="105.6"/>
<line class="st31" x1="555.6" y1="152.9" x2="587.4" y2="143.7"/>
<line class="st31" x1="563.5" y1="177" x2="597" y2="180.1"/>
</svg>
