<?xml version="1.0" encoding="utf-8"?>
<!-- Generator: Adobe Illustrator 22.0.1, SVG Export Plug-In . SVG Version: 6.00 Build 0)  -->
<svg version="1.1" id="Layer_1" xmlns="http://www.w3.org/2000/svg" xmlns:xlink="http://www.w3.org/1999/xlink" x="0px" y="0px"
	 viewBox="0 0 77.5 150" style="enable-background:new 0 0 77.5 150;" xml:space="preserve">
<style type="text/css">
	.st0{fill:url(#SVGID_1_);}
	.st1{fill:url(#SVGID_2_);}
	.st2{fill:url(#SVGID_3_);}
	.st3{fill:url(#SVGID_4_);}
	.st4{fill:url(#SVGID_5_);}
	.st5{fill:url(#SVGID_6_);}
	.st6{fill:url(#SVGID_7_);}
	.st7{fill:url(#SVGID_8_);}
	.st8{fill:url(#SVGID_9_);}
	.st9{fill:url(#SVGID_10_);}
	.st10{fill:url(#SVGID_11_);}
	.st11{fill:#FFFFFF;}
</style>
<linearGradient id="SVGID_1_" gradientUnits="userSpaceOnUse" x1="-180.8507" y1="40.9511" x2="-106.4994" y2="40.9511">
	<stop  offset="0" style="stop-color:#1D72F7"/>
	<stop  offset="1" style="stop-color:#1D56F7"/>
</linearGradient>
<path class="st0" d="M-138.8,70.4c9.5,0,18.1-3.9,24.4-10.1l-48.7-48.7c-6.2,6.2-10.1,14.8-10.1,24.4
	C-173.3,54.9-157.9,70.4-138.8,70.4z"/>
<linearGradient id="SVGID_2_" gradientUnits="userSpaceOnUse" x1="-173.2799" y1="40.9511" x2="-104.3802" y2="40.9511">
	<stop  offset="0" style="stop-color:#1D56F7"/>
	<stop  offset="1" style="stop-color:#1D72F7"/>
</linearGradient>
<path class="st1" d="M-138.8,70.4c9.5,0,18.1-3.9,24.4-10.1l-48.7-48.7c-6.2,6.2-10.1,14.8-10.1,24.4
	C-173.3,54.9-157.9,70.4-138.8,70.4z"/>
<radialGradient id="SVGID_3_" cx="-139.5356" cy="78.0757" r="62.2202" gradientUnits="userSpaceOnUse">
	<stop  offset="0" style="stop-color:#1D56F7"/>
	<stop  offset="1" style="stop-color:#1D72F7"/>
</radialGradient>
<path class="st2" d="M-111.3,86.5l-16.4,16.4l-5.6,5.6l-35.4,35.4c-3.4,3.4-7.8,4.9-12.2,4.8c-4.4,0.2-8.9-1.4-12.2-4.8l-5.4-5.4
	c6.2-6.2,10.1-14.8,10.1-24.4c0-19-15.4-34.4-34.4-34.4c-9.5,0-18.1,3.9-24.4,10.1l-3.2-3.2c-6.4-6.4-6.4-16.7,0-23.1l16.4-16.4
	l5.6-5.6l35.4-35.4c3.4-3.4,7.8-4.9,12.2-4.8c4.4-0.2,8.9,1.4,12.2,4.8l5.4,5.4c-6.2,6.2-10.1,14.8-10.1,24.4
	c0,19,15.4,34.4,34.4,34.4c9.5,0,18.1-3.9,24.4-10.1l3.2,3.2C-104.9,69.8-104.9,80.2-111.3,86.5z"/>
<linearGradient id="SVGID_4_" gradientUnits="userSpaceOnUse" x1="-802.5935" y1="623.1411" x2="-728.2422" y2="623.1411" gradientTransform="matrix(-1 0 0 -1 -983.4443 732.1899)">
	<stop  offset="0" style="stop-color:#1D72F7"/>
	<stop  offset="1" style="stop-color:#1D56F7"/>
</linearGradient>
<path class="st3" d="M-222.9,79.6c-9.5,0-18.1,3.9-24.4,10.1l48.7,48.7c6.2-6.2,10.1-14.8,10.1-24.4
	C-188.4,95.1-203.8,79.6-222.9,79.6z"/>
<linearGradient id="SVGID_5_" gradientUnits="userSpaceOnUse" x1="-795.0226" y1="623.1411" x2="-726.123" y2="623.1411" gradientTransform="matrix(-1 0 0 -1 -983.4443 732.1899)">
	<stop  offset="0" style="stop-color:#1D56F7"/>
	<stop  offset="1" style="stop-color:#1D72F7"/>
</linearGradient>
<path class="st4" d="M-222.9,79.6c-9.5,0-18.1,3.9-24.4,10.1l48.7,48.7c6.2-6.2,10.1-14.8,10.1-24.4
	C-188.4,95.1-203.8,79.6-222.9,79.6z"/>
<linearGradient id="SVGID_6_" gradientUnits="userSpaceOnUse" x1="1.3993" y1="40.9511" x2="75.7506" y2="40.9511">
	<stop  offset="0" style="stop-color:#1D72F7"/>
	<stop  offset="1" style="stop-color:#1D56F7"/>
</linearGradient>
<path class="st5" d="M9.7,42.8c3.2,15.7,17.1,27.5,33.7,27.5c9.5,0,18.1-3.9,24.4-10.1L19.1,11.5c-3.7,3.7-6.6,8.3-8.3,13.5
	C9.6,28.5,9,32.1,9,35.9C9,38.3,9.2,40.6,9.7,42.8z"/>
<linearGradient id="SVGID_7_" gradientUnits="userSpaceOnUse" x1="8.9703" y1="40.9511" x2="77.8699" y2="40.9511">
	<stop  offset="0" style="stop-color:#1D56F7"/>
	<stop  offset="1" style="stop-color:#1D72F7"/>
</linearGradient>
<path class="st6" d="M9.7,42.8c3.2,15.7,17.1,27.5,33.7,27.5c9.5,0,18.1-3.9,24.4-10.1L19.1,11.5c-3.7,3.7-6.6,8.3-8.3,13.5
	C9.6,28.5,9,32.1,9,35.9C9,38.3,9.2,40.6,9.7,42.8z"/>
<radialGradient id="SVGID_8_" cx="42.7144" cy="78.0757" r="62.2202" gradientUnits="userSpaceOnUse">
	<stop  offset="0" style="stop-color:#1D56F7"/>
	<stop  offset="1" style="stop-color:#1D72F7"/>
</radialGradient>
<path class="st7" d="M71,63.5l-3.2-3.2c-6.2,6.2-14.8,10.1-24.4,10.1c-16.6,0-30.5-11.8-33.7-27.5C9.2,40.6,9,38.3,9,35.9
	c0-3.8,0.6-7.5,1.8-10.9c1.7-5.1,4.6-9.7,8.3-13.5l-5.4-5.4C10.3,2.7,5.8,1.2,1.4,1.3v147.3c4.4,0.2,8.9-1.4,12.2-4.8L49,108.5
	l5.6-5.6L71,86.5C77.3,80.2,77.3,69.8,71,63.5z"/>
<linearGradient id="SVGID_9_" gradientUnits="userSpaceOnUse" x1="1.3993" y1="33.9397" x2="75.7506" y2="33.9397">
	<stop  offset="0" style="stop-color:#1D72F7"/>
	<stop  offset="1" style="stop-color:#1D56F7"/>
</linearGradient>
<path class="st8" d="M9.7,42.8C9.2,40.6,9,38.3,9,35.9c0-3.8,0.6-7.5,1.8-10.9C9.6,28.5,9,32.1,9,35.9C9,38.3,9.2,40.6,9.7,42.8z"/>
<linearGradient id="SVGID_10_" gradientUnits="userSpaceOnUse" x1="8.9702" y1="33.9397" x2="77.8698" y2="33.9397">
	<stop  offset="0" style="stop-color:#1D56F7"/>
	<stop  offset="1" style="stop-color:#1D72F7"/>
</linearGradient>
<path class="st9" d="M9.7,42.8C9.2,40.6,9,38.3,9,35.9c0-3.8,0.6-7.5,1.8-10.9C9.6,28.5,9,32.1,9,35.9C9,38.3,9.2,40.6,9.7,42.8z"/>
<radialGradient id="SVGID_11_" cx="42.7144" cy="78.0757" r="62.2202" gradientUnits="userSpaceOnUse">
	<stop  offset="0" style="stop-color:#1D56F7"/>
	<stop  offset="1" style="stop-color:#1D72F7"/>
</radialGradient>
<path class="st10" d="M9.7,42.8C9.2,40.6,9,38.3,9,35.9c0-3.8,0.6-7.5,1.8-10.9C9.6,28.5,9,32.1,9,35.9C9,38.3,9.2,40.6,9.7,42.8z"
	/>
<path class="st11" d="M-62.5,87.5c-0.9,0.7-1.7,1.4-2.4,2.2l0,0C-64.2,89-63.4,88.2-62.5,87.5z"/>
</svg>
