<?xml version="1.0" encoding="utf-8"?>
<!-- Generator: Adobe Illustrator 22.0.1, SVG Export Plug-In . SVG Version: 6.00 Build 0)  -->
<svg version="1.1" id="Layer_1" xmlns="http://www.w3.org/2000/svg" xmlns:xlink="http://www.w3.org/1999/xlink" x="0px" y="0px"
	 viewBox="0 0 113.2 150" style="enable-background:new 0 0 113.2 150;" xml:space="preserve">
<style type="text/css">
	.st0{fill:url(#SVGID_1_);}
	.st1{fill:url(#SVGID_2_);}
	.st2{fill:url(#SVGID_3_);}
	.st3{fill:url(#SVGID_4_);}
	.st4{fill:url(#SVGID_5_);}
	.st5{fill:none;}
	.st6{fill:url(#SVGID_6_);}
	.st7{fill:url(#SVGID_7_);}
	.st8{fill:url(#SVGID_8_);}
	.st9{fill:url(#SVGID_9_);}
	.st10{fill:url(#SVGID_10_);}
	.st11{fill:url(#SVGID_11_);}
	.st12{fill:url(#SVGID_12_);}
	.st13{fill:url(#SVGID_13_);}
	.st14{fill:url(#SVGID_14_);}
	.st15{fill:url(#SVGID_15_);}
	.st16{fill:url(#SVGID_16_);}
</style>
<linearGradient id="SVGID_1_" gradientUnits="userSpaceOnUse" x1="-145.1007" y1="40.9511" x2="-70.7494" y2="40.9511">
	<stop  offset="0" style="stop-color:#1D72F7"/>
	<stop  offset="1" style="stop-color:#1D56F7"/>
</linearGradient>
<path class="st0" d="M-103.1,70.4c9.5,0,18.1-3.9,24.4-10.1l-48.7-48.7c-6.2,6.2-10.1,14.8-10.1,24.4
	C-137.5,54.9-122.1,70.4-103.1,70.4z"/>
<linearGradient id="SVGID_2_" gradientUnits="userSpaceOnUse" x1="-137.5299" y1="40.9511" x2="-68.6302" y2="40.9511">
	<stop  offset="0" style="stop-color:#1D56F7"/>
	<stop  offset="1" style="stop-color:#1D72F7"/>
</linearGradient>
<path class="st1" d="M-103.1,70.4c9.5,0,18.1-3.9,24.4-10.1l-48.7-48.7c-6.2,6.2-10.1,14.8-10.1,24.4
	C-137.5,54.9-122.1,70.4-103.1,70.4z"/>
<radialGradient id="SVGID_3_" cx="-103.7856" cy="78.0757" r="62.2202" gradientUnits="userSpaceOnUse">
	<stop  offset="0" style="stop-color:#1D56F7"/>
	<stop  offset="1" style="stop-color:#1D72F7"/>
</radialGradient>
<path class="st2" d="M-75.5,86.5l-16.4,16.4l-5.6,5.6l-35.4,35.4c-3.4,3.4-7.8,4.9-12.2,4.8c-4.4,0.2-8.9-1.4-12.2-4.8l-5.4-5.4
	c6.2-6.2,10.1-14.8,10.1-24.4c0-19-15.4-34.4-34.4-34.4c-9.5,0-18.1,3.9-24.4,10.1l-3.2-3.2c-6.4-6.4-6.4-16.7,0-23.1l16.4-16.4
	l5.6-5.6l35.4-35.4c3.4-3.4,7.8-4.9,12.2-4.8c4.4-0.2,8.9,1.4,12.2,4.8l5.4,5.4c-6.2,6.2-10.1,14.8-10.1,24.4
	c0,19,15.4,34.4,34.4,34.4c9.5,0,18.1-3.9,24.4-10.1l3.2,3.2C-69.2,69.8-69.2,80.2-75.5,86.5z"/>
<linearGradient id="SVGID_4_" gradientUnits="userSpaceOnUse" x1="-766.8435" y1="623.1411" x2="-692.4922" y2="623.1411" gradientTransform="matrix(-1 0 0 -1 -911.9443 732.1899)">
	<stop  offset="0" style="stop-color:#1D72F7"/>
	<stop  offset="1" style="stop-color:#1D56F7"/>
</linearGradient>
<path class="st3" d="M-187.1,79.6c-9.5,0-18.1,3.9-24.4,10.1l48.7,48.7c6.2-6.2,10.1-14.8,10.1-24.4
	C-152.7,95.1-168.1,79.6-187.1,79.6z"/>
<linearGradient id="SVGID_5_" gradientUnits="userSpaceOnUse" x1="-759.2726" y1="623.1411" x2="-690.373" y2="623.1411" gradientTransform="matrix(-1 0 0 -1 -911.9443 732.1899)">
	<stop  offset="0" style="stop-color:#1D56F7"/>
	<stop  offset="1" style="stop-color:#1D72F7"/>
</linearGradient>
<path class="st4" d="M-187.1,79.6c-9.5,0-18.1,3.9-24.4,10.1l48.7,48.7c6.2-6.2,10.1-14.8,10.1-24.4
	C-152.7,95.1-168.1,79.6-187.1,79.6z"/>
<path class="st5" d="M6.5,81.1c-2.3-0.7-4.8-1.2-7.3-1.4v0C1.8,80,4.2,80.4,6.5,81.1z"/>
<linearGradient id="SVGID_6_" gradientUnits="userSpaceOnUse" x1="38.5006" y1="40.9511" x2="112.852" y2="40.9511">
	<stop  offset="0" style="stop-color:#1D72F7"/>
	<stop  offset="1" style="stop-color:#1D56F7"/>
</linearGradient>
<path class="st6" d="M46.8,42.8C50,58.5,63.9,70.4,80.5,70.4c9.5,0,18.1-3.9,24.4-10.1L56.2,11.5c-4,4-7,8.9-8.6,14.4
	c-0.9,3.2-1.5,6.5-1.5,9.9C46.1,38.3,46.3,40.6,46.8,42.8z"/>
<linearGradient id="SVGID_7_" gradientUnits="userSpaceOnUse" x1="46.0716" y1="40.9511" x2="114.9713" y2="40.9511">
	<stop  offset="0" style="stop-color:#1D56F7"/>
	<stop  offset="1" style="stop-color:#1D72F7"/>
</linearGradient>
<path class="st7" d="M46.8,42.8C50,58.5,63.9,70.4,80.5,70.4c9.5,0,18.1-3.9,24.4-10.1L56.2,11.5c-4,4-7,8.9-8.6,14.4
	c-0.9,3.2-1.5,6.5-1.5,9.9C46.1,38.3,46.3,40.6,46.8,42.8z"/>
<radialGradient id="SVGID_8_" cx="79.8157" cy="78.0757" r="62.2202" gradientUnits="userSpaceOnUse">
	<stop  offset="0" style="stop-color:#1D56F7"/>
	<stop  offset="1" style="stop-color:#1D72F7"/>
</radialGradient>
<path class="st8" d="M108.1,63.5l-3.2-3.2C98.6,66.5,90,70.4,80.5,70.4c-16.6,0-30.5-11.8-33.7-27.5c-0.5-2.2-0.7-4.6-0.7-6.9
	c0-3.5,0.5-6.8,1.5-9.9c1.7-5.5,4.7-10.4,8.6-14.4l-5.4-5.4c-3.4-3.4-7.8-4.9-12.2-4.8c-4.4-0.2-8.9,1.4-12.2,4.8l-27,27v46.6
	c2.5,0.2,5,0.7,7.3,1.4c14.1,4.3,24.4,17.4,24.4,33c0,8.5-3.1,16.4-8.3,22.4c-0.6,0.7-1.2,1.3-1.8,2l5.4,5.4
	c3.4,3.4,7.8,4.9,12.2,4.8c4.4,0.2,8.9-1.4,12.2-4.8l35.4-35.4l5.6-5.6l16.4-16.4C114.4,80.2,114.4,69.8,108.1,63.5z"/>
<linearGradient id="SVGID_9_" gradientUnits="userSpaceOnUse" x1="38.5006" y1="34.4036" x2="112.852" y2="34.4036">
	<stop  offset="0" style="stop-color:#1D72F7"/>
	<stop  offset="1" style="stop-color:#1D56F7"/>
</linearGradient>
<path class="st9" d="M46.8,42.8c-0.5-2.2-0.7-4.6-0.7-6.9c0-3.5,0.5-6.8,1.5-9.9c-0.9,3.2-1.5,6.5-1.5,9.9
	C46.1,38.3,46.3,40.6,46.8,42.8z"/>
<linearGradient id="SVGID_10_" gradientUnits="userSpaceOnUse" x1="46.0715" y1="34.4036" x2="114.9711" y2="34.4036">
	<stop  offset="0" style="stop-color:#1D56F7"/>
	<stop  offset="1" style="stop-color:#1D72F7"/>
</linearGradient>
<path class="st10" d="M46.8,42.8c-0.5-2.2-0.7-4.6-0.7-6.9c0-3.5,0.5-6.8,1.5-9.9c-0.9,3.2-1.5,6.5-1.5,9.9
	C46.1,38.3,46.3,40.6,46.8,42.8z"/>
<radialGradient id="SVGID_11_" cx="79.8157" cy="78.0757" r="62.2202" gradientUnits="userSpaceOnUse">
	<stop  offset="0" style="stop-color:#1D56F7"/>
	<stop  offset="1" style="stop-color:#1D72F7"/>
</radialGradient>
<path class="st11" d="M46.8,42.8c-0.5-2.2-0.7-4.6-0.7-6.9c0-3.5,0.5-6.8,1.5-9.9c-0.9,3.2-1.5,6.5-1.5,9.9
	C46.1,38.3,46.3,40.6,46.8,42.8z"/>
<linearGradient id="SVGID_12_" gradientUnits="userSpaceOnUse" x1="-950.4449" y1="623.0807" x2="-876.0935" y2="623.0807" gradientTransform="matrix(-1 0 0 -1 -911.9443 732.1899)">
	<stop  offset="0" style="stop-color:#1D72F7"/>
	<stop  offset="1" style="stop-color:#1D56F7"/>
</linearGradient>
<path class="st12" d="M6.5,81.1c-2.3-0.7-4.8-1.2-7.3-1.4v37.1l21.6,21.6c0.6-0.6,1.2-1.3,1.8-2c5.2-6,8.3-13.8,8.3-22.4
	C30.9,98.6,20.7,85.4,6.5,81.1z"/>
<linearGradient id="SVGID_13_" gradientUnits="userSpaceOnUse" x1="-942.8727" y1="623.0807" x2="-873.973" y2="623.0807" gradientTransform="matrix(-1 0 0 -1 -911.9443 732.1899)">
	<stop  offset="0" style="stop-color:#1D56F7"/>
	<stop  offset="1" style="stop-color:#1D72F7"/>
</linearGradient>
<path class="st13" d="M6.5,81.1c-2.3-0.7-4.8-1.2-7.3-1.4v37.1l21.6,21.6c0.6-0.6,1.2-1.3,1.8-2c5.2-6,8.3-13.8,8.3-22.4
	C30.9,98.6,20.7,85.4,6.5,81.1z"/>
<radialGradient id="SVGID_14_" cx="79.8157" cy="78.0757" r="62.2202" gradientUnits="userSpaceOnUse">
	<stop  offset="0" style="stop-color:#1D56F7"/>
	<stop  offset="1" style="stop-color:#1D72F7"/>
</radialGradient>
<path class="st14" d="M6.5,81.1c14.1,4.3,24.4,17.4,24.4,33c0,8.5-3.1,16.4-8.3,22.4c5.2-6,8.3-13.8,8.3-22.4
	C30.9,98.6,20.7,85.4,6.5,81.1z"/>
<linearGradient id="SVGID_15_" gradientUnits="userSpaceOnUse" x1="-950.4449" y1="623.3829" x2="-876.0935" y2="623.3829" gradientTransform="matrix(-1 0 0 -1 -911.9443 732.1899)">
	<stop  offset="0" style="stop-color:#1D72F7"/>
	<stop  offset="1" style="stop-color:#1D56F7"/>
</linearGradient>
<path class="st15" d="M6.5,81.1c14.1,4.3,24.4,17.4,24.4,33c0,8.5-3.1,16.4-8.3,22.4c5.2-6,8.3-13.8,8.3-22.4
	C30.9,98.6,20.7,85.4,6.5,81.1z"/>
<linearGradient id="SVGID_16_" gradientUnits="userSpaceOnUse" x1="-942.8741" y1="623.3829" x2="-873.9744" y2="623.3829" gradientTransform="matrix(-1 0 0 -1 -911.9443 732.1899)">
	<stop  offset="0" style="stop-color:#1D56F7"/>
	<stop  offset="1" style="stop-color:#1D72F7"/>
</linearGradient>
<path class="st16" d="M6.5,81.1c14.1,4.3,24.4,17.4,24.4,33c0,8.5-3.1,16.4-8.3,22.4c5.2-6,8.3-13.8,8.3-22.4
	C30.9,98.6,20.7,85.4,6.5,81.1z"/>
</svg>
