<svg xmlns="http://www.w3.org/2000/svg" xmlns:xlink="http://www.w3.org/1999/xlink" viewBox="0 0 993.29 749.04"><defs><style>.cls-1{isolation:isolate;}.cls-2{fill:#d7dee5;}.cls-3{fill:url(#linear-gradient);}.cls-4{fill:#3babe0;}.cls-5{fill:#5bc4f0;}.cls-6{fill:#3baae0;}.cls-7{fill:url(#linear-gradient-2);}.cls-8{fill:#52c7e5;}.cls-9{fill:#fff;}.cls-10{fill:#226398;}.cls-11{fill:url(#linear-gradient-3);}.cls-12{fill:url(#linear-gradient-4);}.cls-13{fill:url(#linear-gradient-5);}.cls-14{fill:url(#linear-gradient-6);}.cls-15{fill:url(#linear-gradient-7);}.cls-16{fill:url(#linear-gradient-8);}.cls-17{fill:url(#linear-gradient-9);}.cls-18{fill:url(#linear-gradient-10);}.cls-19{fill:url(#linear-gradient-11);}.cls-20{fill:url(#linear-gradient-12);}.cls-21{mix-blend-mode:soft-light;}.cls-22{fill:url(#linear-gradient-13);}.cls-23{fill:url(#linear-gradient-14);}.cls-24{fill:url(#linear-gradient-15);}.cls-25{fill:url(#linear-gradient-16);}.cls-26{fill:url(#linear-gradient-17);}.cls-27{fill:url(#linear-gradient-18);}.cls-28{fill:url(#linear-gradient-19);}.cls-29{fill:url(#linear-gradient-20);}.cls-30{fill:url(#linear-gradient-21);}.cls-31{fill:url(#linear-gradient-22);}.cls-32{fill:url(#linear-gradient-23);}.cls-33{fill:url(#linear-gradient-24);}.cls-34,.cls-36{opacity:0.5;mix-blend-mode:multiply;}.cls-35,.cls-36{fill:#a42a57;}.cls-37{fill:url(#linear-gradient-25);}.cls-38{fill:url(#linear-gradient-26);}.cls-39{fill:url(#linear-gradient-27);}.cls-40{fill:url(#linear-gradient-28);}.cls-41{fill:url(#linear-gradient-29);}.cls-42{fill:url(#linear-gradient-30);}</style><linearGradient id="linear-gradient" x1="649.22" y1="208.85" x2="492.55" y2="309.51" gradientUnits="userSpaceOnUse"><stop offset="0" stop-color="#1da5c9"/><stop offset="1" stop-color="#1d85db"/></linearGradient><linearGradient id="linear-gradient-2" x1="643.47" y1="506.79" x2="490.14" y2="620.13" xlink:href="#linear-gradient"/><linearGradient id="linear-gradient-3" x1="552.64" y1="553.71" x2="579.97" y2="613.71" gradientUnits="userSpaceOnUse"><stop offset="0" stop-color="#ebcd1c"/><stop offset="1" stop-color="#eb901c"/></linearGradient><linearGradient id="linear-gradient-4" x1="531.52" y1="180.67" x2="604.86" y2="180.67" gradientUnits="userSpaceOnUse"><stop offset="0" stop-color="#ed467b"/><stop offset="1" stop-color="#ff776f"/></linearGradient><linearGradient id="linear-gradient-5" x1="65.76" y1="519.6" x2="-14.24" y2="680.6" xlink:href="#linear-gradient-3"/><linearGradient id="linear-gradient-6" x1="974.12" y1="556.42" x2="934.12" y2="619.42" xlink:href="#linear-gradient-3"/><linearGradient id="linear-gradient-7" x1="279.59" y1="299.95" x2="124.49" y2="612.1" xlink:href="#linear-gradient"/><linearGradient id="linear-gradient-8" x1="178.56" y1="366.49" x2="223.03" y2="289.47" xlink:href="#linear-gradient-4"/><linearGradient id="linear-gradient-9" x1="267.04" y1="236.79" x2="118.04" y2="309.79" xlink:href="#linear-gradient"/><linearGradient id="linear-gradient-10" x1="202.04" y1="531.54" x2="202.04" y2="614.54" xlink:href="#linear-gradient-3"/><linearGradient id="linear-gradient-11" x1="202.04" y1="175.18" x2="270.87" y2="175.18" xlink:href="#linear-gradient-4"/><linearGradient id="linear-gradient-12" x1="417.3" y1="377.5" x2="336.3" y2="525" xlink:href="#linear-gradient"/><linearGradient id="linear-gradient-13" x1="487.58" y1="510.93" x2="252.25" y2="633.6" xlink:href="#linear-gradient"/><linearGradient id="linear-gradient-14" x1="433.67" y1="257.6" x2="295.67" y2="366.27" xlink:href="#linear-gradient"/><linearGradient id="linear-gradient-15" x1="374.99" y1="280.56" x2="318.49" y2="338.06" xlink:href="#linear-gradient-3"/><linearGradient id="linear-gradient-16" x1="381.03" y1="524.98" x2="380.03" y2="627.98" xlink:href="#linear-gradient-3"/><linearGradient id="linear-gradient-17" x1="433.67" y1="382.29" x2="281.67" y2="550.29" xlink:href="#linear-gradient-4"/><linearGradient id="linear-gradient-18" x1="4054.59" y1="1025.04" x2="4077.42" y2="1025.04" gradientTransform="translate(1610.25 -3558.97) rotate(92.91)" gradientUnits="userSpaceOnUse"><stop offset="0" stop-color="#eb467b"/><stop offset="1" stop-color="#e97f79"/></linearGradient><linearGradient id="linear-gradient-19" x1="4053.86" y1="1027.31" x2="4078.29" y2="1027.31" xlink:href="#linear-gradient-18"/><linearGradient id="linear-gradient-20" x1="458.24" y1="630.4" x2="524.31" y2="630.4" xlink:href="#linear-gradient-4"/><linearGradient id="linear-gradient-21" x1="932.62" y1="309.75" x2="833.95" y2="431.75" xlink:href="#linear-gradient"/><linearGradient id="linear-gradient-22" x1="841.58" y1="384.33" x2="891.99" y2="384.33" xlink:href="#linear-gradient-3"/><linearGradient id="linear-gradient-23" x1="870.43" y1="355.83" x2="920.14" y2="355.83" xlink:href="#linear-gradient-4"/><linearGradient id="linear-gradient-24" x1="855.72" y1="554.04" x2="903.35" y2="554.04" xlink:href="#linear-gradient-4"/><linearGradient id="linear-gradient-25" x1="832.46" y1="420.39" x2="602.46" y2="519.39" xlink:href="#linear-gradient"/><linearGradient id="linear-gradient-26" x1="871.15" y1="450.82" x2="657.82" y2="626.15" xlink:href="#linear-gradient"/><linearGradient id="linear-gradient-27" x1="731.04" y1="543.3" x2="756.28" y2="543.3" gradientUnits="userSpaceOnUse"><stop offset="0" stop-color="#ed467b"/><stop offset="1" stop-color="#ec7e7a"/></linearGradient><linearGradient id="linear-gradient-28" x1="680.57" y1="543.3" x2="705.81" y2="543.3" xlink:href="#linear-gradient-27"/><linearGradient id="linear-gradient-29" x1="796.02" y1="531.54" x2="796.02" y2="616.58" xlink:href="#linear-gradient-3"/><linearGradient id="linear-gradient-30" x1="618.91" y1="624.46" x2="653.28" y2="624.46" xlink:href="#linear-gradient-4"/></defs><title>Asset 2</title><g class="cls-1"><g id="Layer_2" data-name="Layer 2"><g id="Layer_1-2" data-name="Layer 1"><rect class="cls-2" x="708.62" y="294.44" width="93.47" height="323.41" rx="17.63" ry="17.63"/><rect class="cls-2" x="513.93" y="225.01" width="170.72" height="392.84" rx="17.63" ry="17.63"/><rect class="cls-2" x="385.81" y="117.79" width="112.62" height="500.06" rx="17.63" ry="17.63"/><path class="cls-2" d="M923.56,699.31H846.7a24.88,24.88,0,0,1-24.87-24.87h0a24.88,24.88,0,0,1,24.87-24.87h8a24.86,24.86,0,0,0,24.86-24.87V599.84H117A24.41,24.41,0,0,0,92.61,624.5h0a24.41,24.41,0,0,0,24,24.15l52.83.92c13.49,0,25,10.49,25.45,24A24.87,24.87,0,0,1,170,699.31h-7.45c-13.48,0-25,10.48-25.45,24A24.87,24.87,0,0,0,162,749H380.5c13.48,0,25-10.48,25.45-24a24.87,24.87,0,0,0-24.85-25.77H370.63c-13.47,0-24.95-10.46-25.45-23.92A24.87,24.87,0,0,1,370,649.57H646.89a24.65,24.65,0,0,1,24.64,24.65h0a25.16,25.16,0,0,1-25.08,25.09H539.66c-13.48,0-25,10.48-25.45,24A24.87,24.87,0,0,0,539.06,749h384.5a24.87,24.87,0,0,0,24.87-24.87h0A24.87,24.87,0,0,0,923.56,699.31Z"/><rect class="cls-2" x="291.62" y="20.96" width="112.62" height="578.64" rx="17.63" ry="17.63"/><rect class="cls-3" x="490.89" y="206.29" width="154.16" height="109.51"/><rect class="cls-4" x="512.32" y="239" width="41.81" height="41.81"/><rect class="cls-5" x="542.05" y="237.41" width="9.82" height="43.4"/><path d="M556.13,282.81H510.32V237h45.81Zm-41.81-4h37.81V241H514.32Z"/><rect class="cls-4" x="582.03" y="239" width="41.81" height="41.81"/><rect class="cls-5" x="613.99" y="237.41" width="9.82" height="43.4"/><path d="M625.84,282.81H580V237h45.81Zm-41.81-4h37.81V241H584Z"/><rect class="cls-6" x="490.89" y="316.15" width="154.16" height="192.12"/><rect class="cls-5" x="517.8" y="324.25" width="9.82" height="82.4"/><rect class="cls-5" x="594.83" y="324.25" width="9.82" height="82.4"/><path d="M529.65,510.27a2,2,0,0,1-2-2v-94a2,2,0,0,1,4,0v94A2,2,0,0,1,529.65,510.27Z"/><path d="M568.19,510.27a2,2,0,0,1-2-2v-94a2,2,0,1,1,4,0v94A2,2,0,0,1,568.19,510.27Z"/><path d="M606.73,510.27a2,2,0,0,1-2-2v-94a2,2,0,1,1,4,0v94A2,2,0,0,1,606.73,510.27Z"/><rect class="cls-7" x="491.11" y="508.33" width="154.16" height="108.22"/><rect class="cls-6" x="491.11" y="316.15" width="153.94" height="98.15"/><rect class="cls-8" x="635.54" y="315.81" width="8.54" height="192.47" transform="translate(1279.61 824.08) rotate(180)"/><rect class="cls-8" x="635.54" y="212.38" width="8.54" height="103.43" transform="translate(1279.61 528.19) rotate(180)"/><rect class="cls-8" x="635.54" y="508.61" width="8.54" height="107.69" transform="translate(1279.61 1124.91) rotate(180)"/><rect class="cls-5" x="517.8" y="324.25" width="9.82" height="82.4"/><rect class="cls-5" x="594.83" y="324.25" width="9.82" height="82.4"/><rect class="cls-5" x="517.8" y="421.34" width="9.82" height="85.08"/><rect class="cls-5" x="594.83" y="421.34" width="9.82" height="85.08"/><rect class="cls-5" x="557.01" y="324.25" width="9.82" height="82.4"/><rect class="cls-5" x="557.01" y="421.34" width="9.82" height="85.08"/><path d="M529.65,412.12a2,2,0,0,1-2-2v-94a2,2,0,0,1,4,0v94A2,2,0,0,1,529.65,412.12Z"/><path d="M568.19,412.12a2,2,0,0,1-2-2v-94a2,2,0,0,1,4,0v94A2,2,0,0,1,568.19,412.12Z"/><path d="M645.27,618.55H491.11a2,2,0,0,1-2-2V212.38a2,2,0,0,1,2-2H645.27a2,2,0,0,1,2,2V616.55A2,2,0,0,1,645.27,618.55Zm-152.16-4H643.27V214.38H493.11Z"/><path d="M606.73,412.12a2,2,0,0,1-2-2v-94a2,2,0,0,1,4,0v94A2,2,0,0,1,606.73,412.12Z"/><rect class="cls-9" x="480.24" y="310.06" width="174.3" height="12.17" rx="5.05" ry="5.05"/><path d="M649.5,324.24H485.29a7.06,7.06,0,0,1-7.05-7.05v-2.08a7.07,7.07,0,0,1,7.05-7.05H649.5a7.06,7.06,0,0,1,7,7.05v2.08A7.05,7.05,0,0,1,649.5,324.24ZM485.29,312.06a3.06,3.06,0,0,0-3.05,3.05v2.08a3.06,3.06,0,0,0,3.05,3.05H649.5a3,3,0,0,0,3-3.05v-2.08a3,3,0,0,0-3-3.05Z"/><path class="cls-10" d="M606.57,295.58H584.44a2,2,0,0,1,0-4h22.13a2,2,0,0,1,0,4Z"/><path class="cls-10" d="M624.87,295.58h-8a2,2,0,0,1,0-4h8a2,2,0,0,1,0,4Z"/><rect class="cls-11" x="530.37" y="555.64" width="74.05" height="60.9"/><path d="M604.42,618.55h-74a2,2,0,0,1-2-2V555.64a2,2,0,0,1,2-2h74a2,2,0,0,1,2,2v60.91A2,2,0,0,1,604.42,618.55Zm-72-4h70V557.64h-70Z"/><path d="M567.39,618.55a2,2,0,0,1-2-2V555.64a2,2,0,0,1,4,0v60.91A2,2,0,0,1,567.39,618.55Z"/><rect class="cls-9" x="480.24" y="408.22" width="174.3" height="12.17" rx="5.05" ry="5.05"/><path d="M649.5,422.39H485.29a7.06,7.06,0,0,1-7.05-7.05v-2.07a7.06,7.06,0,0,1,7.05-7H649.5a7.05,7.05,0,0,1,7,7v2.07A7.05,7.05,0,0,1,649.5,422.39ZM485.29,410.22a3.06,3.06,0,0,0-3.05,3v2.07a3.06,3.06,0,0,0,3.05,3.05H649.5a3,3,0,0,0,3-3.05v-2.07a3,3,0,0,0-3-3Z"/><rect class="cls-9" x="480.24" y="192.74" width="174.3" height="19.65" rx="8.15" ry="8.15"/><path d="M646.4,214.38h-158a10.16,10.16,0,0,1-10.15-10.15v-3.35a10.16,10.16,0,0,1,10.15-10.14h158a10.15,10.15,0,0,1,10.14,10.14v3.35A10.16,10.16,0,0,1,646.4,214.38Zm-158-19.64a6.15,6.15,0,0,0-6.15,6.14v3.35a6.16,6.16,0,0,0,6.15,6.15h158a6.15,6.15,0,0,0,6.14-6.15v-3.35a6.14,6.14,0,0,0-6.14-6.14Z"/><path d="M646.4,214.38h-158a10.16,10.16,0,0,1-10.15-10.15v-3.35a10.16,10.16,0,0,1,10.15-10.14h158a10.15,10.15,0,0,1,10.14,10.14v3.35A10.16,10.16,0,0,1,646.4,214.38Zm-158-19.64a6.15,6.15,0,0,0-6.15,6.14v3.35a6.16,6.16,0,0,0,6.15,6.15h158a6.15,6.15,0,0,0,6.14-6.15v-3.35a6.14,6.14,0,0,0-6.14-6.14Z"/><path class="cls-12" d="M597.81,168.45h-17.4v-17.4a7.07,7.07,0,0,0-7-7.05H563a7.07,7.07,0,0,0-7,7.05v17.4h-17.4a7.07,7.07,0,0,0-7.05,7.05v10.34a7.07,7.07,0,0,0,7.05,7H556v17.4a7.07,7.07,0,0,0,7,7.05h10.34a7.07,7.07,0,0,0,7-7.05v-17.4h17.4a7.07,7.07,0,0,0,7.05-7V175.5A7.07,7.07,0,0,0,597.81,168.45Z"/><path d="M573.36,219.34H563a9.06,9.06,0,0,1-9-9.05v-15.4h-15.4a9.06,9.06,0,0,1-9.05-9V175.5a9.06,9.06,0,0,1,9.05-9.05H554v-15.4a9.06,9.06,0,0,1,9-9.05h10.34a9.06,9.06,0,0,1,9,9.05v15.4h15.4a9.06,9.06,0,0,1,9.05,9.05v10.34a9.06,9.06,0,0,1-9.05,9h-15.4v15.4A9.06,9.06,0,0,1,573.36,219.34Zm-34.79-48.89a5.06,5.06,0,0,0-5.05,5.05v10.34a5.06,5.06,0,0,0,5.05,5H558v19.4a5.06,5.06,0,0,0,5,5.05h10.34a5.06,5.06,0,0,0,5-5.05v-19.4h19.4a5.06,5.06,0,0,0,5.05-5V175.5a5.06,5.06,0,0,0-5.05-5.05h-19.4v-19.4a5.06,5.06,0,0,0-5-5.05H563a5.06,5.06,0,0,0-5,5.05v19.4Z"/><path class="cls-9" d="M569.22,172.11a2,2,0,0,1-2-2V156.26a2,2,0,0,1,4,0v13.85A2,2,0,0,1,569.22,172.11Z"/><path class="cls-10" d="M608.64,531.81H586.51a2,2,0,0,1,0-4h22.13a2,2,0,0,1,0,4Z"/><path class="cls-10" d="M626.94,531.81h-8a2,2,0,0,1,0-4h8a2,2,0,0,1,0,4Z"/><path class="cls-10" d="M525.18,546.93H503.06a2,2,0,0,1,0-4h22.12a2,2,0,0,1,0,4Z"/><path d="M647.27,618.55H489.11V506.33H647.27Zm-154.16-4H643.27V510.33H493.11Z"/><path class="cls-10" d="M537.7,546.93h-3.93a2,2,0,0,1,0-4h3.93a2,2,0,0,1,0,4Z"/><path class="cls-9" d="M595.68,591.26a2,2,0,0,1-2-2v-25.5a2,2,0,0,1,4,0v25.5A2,2,0,0,1,595.68,591.26Z"/><path class="cls-2" d="M803.52,216.37H862.7A17.63,17.63,0,0,1,880.33,234V617.55a0,0,0,0,1,0,0H785.89a0,0,0,0,1,0,0V234A17.63,17.63,0,0,1,803.52,216.37Z"/><path class="cls-2" d="M257.94,617.75H93.54V12.63c0-12,14.73-17.21,21.89-7.75L246.59,178.19a56.45,56.45,0,0,1,11.35,34Z"/><rect class="cls-13" x="2" y="538.77" width="66.08" height="85.28" rx="27.41" ry="27.41"/><path d="M40.67,626.05H29.41A29.44,29.44,0,0,1,0,596.65V566.18a29.44,29.44,0,0,1,29.41-29.41H40.67a29.44,29.44,0,0,1,29.41,29.41v30.47A29.44,29.44,0,0,1,40.67,626.05ZM29.41,540.77A25.44,25.44,0,0,0,4,566.18v30.47a25.43,25.43,0,0,0,25.41,25.4H40.67a25.43,25.43,0,0,0,25.41-25.4V566.18a25.44,25.44,0,0,0-25.41-25.41Z"/><path d="M35,617.82a2,2,0,0,1-1.41-3.41l12.63-12.64a2,2,0,1,1,2.83,2.83L36.45,617.24A2,2,0,0,1,35,617.82Z"/><path d="M35,604a2,2,0,0,1-1.41-.59L21.05,590.87A2,2,0,1,1,23.88,588l12.57,12.58a2,2,0,0,1,0,2.82A2,2,0,0,1,35,604Z"/><path class="cls-9" d="M53.41,580.21a2,2,0,0,1-2-2v-11.6a11.19,11.19,0,0,0-11.17-11.18,2,2,0,0,1,0-4,15.2,15.2,0,0,1,15.17,15.18v11.6A2,2,0,0,1,53.41,580.21Z"/><path class="cls-9" d="M53.42,587.42a2,2,0,1,1,1.4-3.41,2,2,0,0,1,0,2.83A2,2,0,0,1,53.42,587.42Z"/><path d="M35,681.59a2,2,0,0,1-2-2V581.41a2,2,0,0,1,4,0v98.18A2,2,0,0,1,35,681.59Z"/><path d="M904,618.55H95.58a2,2,0,0,1,0-4H904a2,2,0,0,1,0,4Z"/><rect class="cls-14" x="925.21" y="538.77" width="66.08" height="85.28" rx="27.41" ry="27.41"/><path d="M963.88,626.05H952.62a29.44,29.44,0,0,1-29.41-29.4V566.18a29.44,29.44,0,0,1,29.41-29.41h11.26a29.44,29.44,0,0,1,29.41,29.41v30.47A29.44,29.44,0,0,1,963.88,626.05Zm-11.26-85.28a25.44,25.44,0,0,0-25.41,25.41v30.47a25.43,25.43,0,0,0,25.41,25.4h11.26a25.43,25.43,0,0,0,25.41-25.4V566.18a25.44,25.44,0,0,0-25.41-25.41Z"/><path d="M958.25,610.06a2,2,0,0,1-1.42-.59l-10.25-10.25a2,2,0,0,1,2.83-2.83l10.25,10.26a2,2,0,0,1,0,2.82A2,2,0,0,1,958.25,610.06Z"/><path class="cls-9" d="M976.62,580.21a2,2,0,0,1-2-2v-11.6a11.19,11.19,0,0,0-11.18-11.18,2,2,0,0,1,0-4,15.2,15.2,0,0,1,15.18,15.18v11.6A2,2,0,0,1,976.62,580.21Z"/><path class="cls-9" d="M976.63,587.42a2,2,0,0,1-1.42-.58,3.76,3.76,0,0,1-.25-.31,2.27,2.27,0,0,1-.19-.34,1.27,1.27,0,0,1-.1-.37,1.33,1.33,0,0,1,0-.4,1.29,1.29,0,0,1,0-.39,1.2,1.2,0,0,1,.1-.37,2.37,2.37,0,0,1,.19-.35,2.48,2.48,0,0,1,.25-.3,2.34,2.34,0,0,1,.3-.25,2.79,2.79,0,0,1,.34-.18,2.4,2.4,0,0,1,.38-.12,2,2,0,0,1,.78,0,2.29,2.29,0,0,1,.37.12,1.92,1.92,0,0,1,.35.18,1.89,1.89,0,0,1,.31.25,2.48,2.48,0,0,1,.25.3,2.26,2.26,0,0,1,.17.35,1.6,1.6,0,0,1,.12.37,2.6,2.6,0,0,1,0,.39,2.73,2.73,0,0,1,0,.4,2.59,2.59,0,0,1-.11.37,3.65,3.65,0,0,1-.18.34,1.87,1.87,0,0,1-.56.56,1.92,1.92,0,0,1-.35.18,1.58,1.58,0,0,1-.37.11A1.69,1.69,0,0,1,976.63,587.42Z"/><path d="M958.25,681.59a2,2,0,0,1-2-2V588.07a2,2,0,0,1,4,0v91.52A2,2,0,0,1,958.25,681.59Z"/><rect class="cls-15" x="132.94" y="295.75" width="138.21" height="320.55"/><rect class="cls-8" x="261.08" y="294.83" width="8.54" height="321.47" transform="translate(530.7 911.13) rotate(180)"/><polygon class="cls-16" points="233.92 355.9 202.04 380.04 170.16 355.9 170.16 295.75 233.92 295.75 233.92 355.9"/><path d="M202,382.55l-33.88-25.66V293.75h67.76v63.14ZM172.16,354.9,202,377.53l29.88-22.63V297.75H172.16Z"/><path d="M189.1,325.18a2,2,0,0,1-1.41-3.42L201.47,308a2,2,0,1,1,2.83,2.82l-13.79,13.79A2,2,0,0,1,189.1,325.18Z"/><path d="M207,343.09a2,2,0,0,1-1.41-3.42l13.78-13.78a2,2,0,1,1,2.83,2.82L208.42,342.5A2,2,0,0,1,207,343.09Z"/><path d="M183.28,349.28a2,2,0,0,1-1.41-.59,2,2,0,0,1,0-2.82l17.06-17.07a2,2,0,0,1,2.83,2.83L184.7,348.69A2,2,0,0,1,183.28,349.28Z"/><path d="M214.51,354.51H197.77a2,2,0,1,1,0-4h16.74a2,2,0,0,1,0,4Z"/><path d="M210.33,340.6l-20.74-20.74L200,309.42l20.74,20.74Zm-15.08-20.74,15.08,15.08,4.78-4.78L200,315.07Z"/><path d="M271.14,618.3H132.94a2,2,0,0,1-2-2V295.75a2,2,0,0,1,2-2h138.2a2,2,0,0,1,2,2V616.3A2,2,0,0,1,271.14,618.3Zm-136.2-4h134.2V297.75H134.94Z"/><polygon class="cls-17" points="202.04 201.45 283.83 295.75 120.25 295.75 202.04 201.45"/><polygon class="cls-8" points="269.72 295.85 285.66 295.87 204.31 201.46 195.6 208.87 269.72 295.85"/><path d="M288.21,297.75H115.87L202,198.39Zm-163.58-4H279.45L202,204.5Z"/><polyline class="cls-9" points="232.85 270.3 202.04 235.38 171.23 270.3"/><path d="M232.85,272.3a2,2,0,0,1-1.5-.68L202,238.4l-29.31,33.22a2,2,0,1,1-3-2.64l30.81-34.92a2.07,2.07,0,0,1,3,0L234.35,269a2,2,0,0,1-1.5,3.32Z"/><rect class="cls-18" x="183.34" y="543.06" width="37.41" height="73.24"/><path d="M220.74,618.3h-37.4a2,2,0,0,1-2-2V543.06a2,2,0,0,1,2-2h37.4a2,2,0,0,1,2,2V616.3A2,2,0,0,1,220.74,618.3Zm-35.4-4h33.4V545.06h-33.4Z"/><path class="cls-10" d="M180.76,451.57H158.63a2,2,0,0,1,0-4h22.13a2,2,0,0,1,0,4Z"/><path class="cls-10" d="M200,451.57h-7.87a2,2,0,0,1,0-4H200a2,2,0,1,1,0,4Z"/><path class="cls-10" d="M252.16,373.75H240.73a2,2,0,0,1,0-4h11.43a2,2,0,0,1,0,4Z"/><path class="cls-10" d="M229.74,526.8H207.62a2,2,0,0,1,0-4h22.12a2,2,0,0,1,0,4Z"/><path class="cls-10" d="M248.05,526.8H240a2,2,0,0,1,0-4h8.05a2,2,0,0,1,0,4Z"/><path d="M202,203.45a2,2,0,0,1-2-2V181.2a2,2,0,0,1,4,0v20.25A2,2,0,0,1,202,203.45Z"/><path class="cls-9" d="M210.71,585.23a2,2,0,0,1-2-2V555.64a2,2,0,0,1,4,0v27.59A2,2,0,0,1,210.71,585.23Z"/><path class="cls-6" d="M166.65,384h6.08a14.8,14.8,0,0,1,14.8,14.8v34.38a0,0,0,0,1,0,0H151.85a0,0,0,0,1,0,0V398.78a14.8,14.8,0,0,1,14.8-14.8Z"/><polygon class="cls-5" points="185.56 428.04 175.74 428.04 175.74 384.64 185.56 392.1 185.56 428.04"/><path d="M187.54,435.16H151.85a2,2,0,0,1-2-2V398.78A16.83,16.83,0,0,1,166.65,382h6.09a16.83,16.83,0,0,1,16.8,16.81v34.38A2,2,0,0,1,187.54,435.16Zm-33.69-4h31.69V398.78A12.82,12.82,0,0,0,172.74,386h-6.09a12.82,12.82,0,0,0-12.8,12.81Z"/><rect class="cls-9" x="147.13" y="425.16" width="45.12" height="13.1" rx="5.43" ry="5.43"/><path d="M186.82,440.26H152.57a7.45,7.45,0,0,1-7.44-7.44v-2.23a7.44,7.44,0,0,1,7.44-7.43h34.25a7.43,7.43,0,0,1,7.43,7.43v2.23A7.44,7.44,0,0,1,186.82,440.26Zm-34.25-13.1a3.44,3.44,0,0,0-3.44,3.43v2.23a3.44,3.44,0,0,0,3.44,3.44h34.25a3.44,3.44,0,0,0,3.43-3.44v-2.23a3.44,3.44,0,0,0-3.43-3.43Z"/><path class="cls-6" d="M229.81,384h6.08a14.8,14.8,0,0,1,14.8,14.8v34.38a0,0,0,0,1,0,0H215a0,0,0,0,1,0,0V398.78A14.8,14.8,0,0,1,229.81,384Z"/><polygon class="cls-5" points="248.72 428.04 238.9 428.04 238.9 384.64 248.72 392.1 248.72 428.04"/><path d="M250.7,435.16H215a2,2,0,0,1-2-2V398.78A16.82,16.82,0,0,1,229.81,382h6.08a16.83,16.83,0,0,1,16.81,16.81v34.38A2,2,0,0,1,250.7,435.16Zm-33.69-4H248.7V398.78A12.83,12.83,0,0,0,235.89,386h-6.08A12.82,12.82,0,0,0,217,398.78Z"/><rect class="cls-9" x="210.29" y="425.16" width="45.12" height="13.1" rx="5.43" ry="5.43"/><path d="M250,440.26H215.72a7.45,7.45,0,0,1-7.43-7.44v-2.23a7.44,7.44,0,0,1,7.43-7.43H250a7.43,7.43,0,0,1,7.43,7.43v2.23A7.44,7.44,0,0,1,250,440.26Zm-34.26-13.1a3.44,3.44,0,0,0-3.43,3.43v2.23a3.44,3.44,0,0,0,3.43,3.44H250a3.44,3.44,0,0,0,3.43-3.44v-2.23a3.44,3.44,0,0,0-3.43-3.43Z"/><path class="cls-6" d="M166.65,460.52h6.08a14.8,14.8,0,0,1,14.8,14.8V509.7a0,0,0,0,1,0,0H151.85a0,0,0,0,1,0,0V475.32a14.8,14.8,0,0,1,14.8-14.8Z"/><polygon class="cls-5" points="185.56 504.58 175.74 504.58 175.74 461.18 185.56 468.64 185.56 504.58"/><path d="M187.54,511.7H151.85a2,2,0,0,1-2-2V475.32a16.82,16.82,0,0,1,16.8-16.8h6.09a16.82,16.82,0,0,1,16.8,16.8V509.7A2,2,0,0,1,187.54,511.7Zm-33.69-4h31.69V475.32a12.81,12.81,0,0,0-12.8-12.8h-6.09a12.81,12.81,0,0,0-12.8,12.8Z"/><rect class="cls-9" x="147.13" y="501.7" width="45.12" height="13.1" rx="5.43" ry="5.43"/><path d="M186.82,516.8H152.57a7.45,7.45,0,0,1-7.44-7.43v-2.24a7.45,7.45,0,0,1,7.44-7.43h34.25a7.44,7.44,0,0,1,7.43,7.43v2.24A7.44,7.44,0,0,1,186.82,516.8Zm-34.25-13.1a3.44,3.44,0,0,0-3.44,3.43v2.24a3.44,3.44,0,0,0,3.44,3.43h34.25a3.44,3.44,0,0,0,3.43-3.43v-2.24a3.44,3.44,0,0,0-3.43-3.43Z"/><path class="cls-6" d="M229.81,460.52h6.08a14.8,14.8,0,0,1,14.8,14.8V509.7a0,0,0,0,1,0,0H215a0,0,0,0,1,0,0V475.32a14.8,14.8,0,0,1,14.8-14.8Z"/><polygon class="cls-5" points="248.72 504.58 238.9 504.58 238.9 461.18 248.72 468.64 248.72 504.58"/><path d="M250.7,511.7H215a2,2,0,0,1-2-2V475.32a16.81,16.81,0,0,1,16.8-16.8h6.08a16.82,16.82,0,0,1,16.81,16.8V509.7A2,2,0,0,1,250.7,511.7Zm-33.69-4H248.7V475.32a12.82,12.82,0,0,0-12.81-12.8h-6.08a12.81,12.81,0,0,0-12.8,12.8Z"/><rect class="cls-9" x="210.29" y="501.7" width="45.12" height="13.1" rx="5.43" ry="5.43"/><path d="M250,516.8H215.72a7.45,7.45,0,0,1-7.43-7.43v-2.24a7.45,7.45,0,0,1,7.43-7.43H250a7.44,7.44,0,0,1,7.43,7.43v2.24A7.44,7.44,0,0,1,250,516.8Zm-34.26-13.1a3.44,3.44,0,0,0-3.43,3.43v2.24a3.44,3.44,0,0,0,3.43,3.43H250a3.44,3.44,0,0,0,3.43-3.43v-2.24A3.44,3.44,0,0,0,250,503.7Z"/><rect class="cls-9" x="174.76" y="606.11" width="54.55" height="15.09"/><path d="M229.31,623.2H174.76a2,2,0,0,1-2-2V606.11a2,2,0,0,1,2-2h54.55a2,2,0,0,1,2,2V621.2A2,2,0,0,1,229.31,623.2Zm-52.55-4h50.55V608.11H176.76Z"/><polygon class="cls-19" points="270.87 159.03 258.16 176.03 270.87 191.32 202.04 191.32 202.04 159.03 270.87 159.03"/><path d="M275.13,193.32H200V157h74.82L260.71,176Zm-71.09-4H266.6l-11-13.22L266.88,161H204Z"/><path class="cls-9" d="M239.8,170.86H213.75a2,2,0,0,1,0-4H239.8a2,2,0,0,1,0,4Z"/><path class="cls-9" d="M247.83,170.85a2,2,0,0,1-2-2,2,2,0,0,1,2.39-2,2.4,2.4,0,0,1,.38.12,2.91,2.91,0,0,1,.35.18,2.34,2.34,0,0,1,.3.25,2,2,0,0,1,.58,1.41,1.83,1.83,0,0,1-.15.77,2.16,2.16,0,0,1-.43.65,2.34,2.34,0,0,1-.3.25,2.91,2.91,0,0,1-.35.18,2.4,2.4,0,0,1-.38.12A2.47,2.47,0,0,1,247.83,170.85Z"/><path class="cls-9" d="M160.35,289.3H143.13a2,2,0,0,1,0-4h17.22a2,2,0,0,1,0,4Z"/><path class="cls-9" d="M200.72,289.3H168.64a2,2,0,0,1,0-4h32.08a2,2,0,0,1,0,4Z"/><rect class="cls-4" x="115.75" y="600.22" width="34.37" height="48.48"/><path d="M150.12,650.71H115.75a2,2,0,0,1-2-2V600.22a2,2,0,0,1,2-2h34.37a2,2,0,0,1,2,2v48.49A2,2,0,0,1,150.12,650.71Zm-32.37-4h30.37V602.22H117.75Z"/><line class="cls-9" x1="115.75" y1="648.71" x2="115.75" y2="658.17"/><path d="M115.75,660.17a2,2,0,0,1-2-2v-9.46a2,2,0,0,1,4,0v9.46A2,2,0,0,1,115.75,660.17Z"/><line class="cls-9" x1="150.12" y1="648.71" x2="150.12" y2="658.17"/><path d="M150.12,660.17a2,2,0,0,1-2-2v-9.46a2,2,0,0,1,4,0v9.46A2,2,0,0,1,150.12,660.17Z"/><path class="cls-9" d="M139.33,618.64H126.54a2,2,0,1,1,0-4h12.79a2,2,0,1,1,0,4Z"/><path class="cls-9" d="M139.33,632.92H126.54a2,2,0,1,1,0-4h12.79a2,2,0,1,1,0,4Z"/><rect class="cls-20" x="269.25" y="386.85" width="222.02" height="116.16"/><rect class="cls-21" x="465.66" y="543.06" width="4" height="49.79"/><rect class="cls-21" x="464.62" y="543.06" width="4" height="49.79"/><rect class="cls-22" x="269.72" y="516.91" width="221.56" height="99.68"/><path d="M493.27,618.59H267.72V514.91H493.27Zm-221.55-4H489.27V518.91H271.72Z"/><rect class="cls-8" x="480.39" y="381.79" width="8.54" height="234.76" transform="translate(969.32 998.33) rotate(180)"/><path class="cls-10" d="M332.32,531.81H310.19a2,2,0,0,1,0-4h22.13a2,2,0,0,1,0,4Z"/><path class="cls-10" d="M436.81,606.84H429.2a2,2,0,1,1,0-4h7.61a2,2,0,1,1,0,4Z"/><path class="cls-10" d="M467.66,606.84H446.44a2,2,0,1,1,0-4h21.22a2,2,0,0,1,0,4Z"/><path d="M491.27,505H269.72a2,2,0,0,1-2-2V382.36a2,2,0,0,1,2-2H491.27a2,2,0,0,1,2,2V503A2,2,0,0,1,491.27,505Zm-219.55-4H489.27V384.36H271.72Z"/><rect class="cls-9" x="265.84" y="503.01" width="230.27" height="13.85"/><path d="M496.11,518.86H265.84a2,2,0,0,1-2-2V503a2,2,0,0,1,2-2H496.11a2,2,0,0,1,2,2v13.85A2,2,0,0,1,496.11,518.86Zm-228.27-4H494.11V505H267.84Z"/><rect class="cls-9" x="260.08" y="363.22" width="239.9" height="23.63" rx="9.8" ry="9.8"/><path d="M489,388.93H271.07A13.09,13.09,0,0,1,258,375.86v-1.65a13.09,13.09,0,0,1,13.07-13.07H489a13.09,13.09,0,0,1,13.07,13.07v1.65A13.09,13.09,0,0,1,489,388.93ZM271.07,365.3a8.91,8.91,0,0,0-8.91,8.91v1.65a8.92,8.92,0,0,0,8.91,8.91H489a8.93,8.93,0,0,0,8.92-8.91v-1.65A8.92,8.92,0,0,0,489,365.3Z"/><rect class="cls-23" x="311.28" y="264.57" width="130.85" height="75.78" rx="8.43" ry="8.43"/><path d="M433.7,342.35h-114a10.43,10.43,0,0,1-10.42-10.43V273a10.43,10.43,0,0,1,10.42-10.43h114A10.44,10.44,0,0,1,444.13,273v58.92A10.44,10.44,0,0,1,433.7,342.35Zm-114-75.78a6.43,6.43,0,0,0-6.42,6.43v58.92a6.44,6.44,0,0,0,6.42,6.43h114a6.44,6.44,0,0,0,6.43-6.43V273a6.44,6.44,0,0,0-6.43-6.43Z"/><rect x="340.31" y="340.35" width="4" height="22.28"/><rect x="409.04" y="340.35" width="4" height="22.28"/><path class="cls-9" d="M355.57,276.23H324.64a2,2,0,0,1,0-4h30.93a2,2,0,0,1,0,4Z"/><path class="cls-9" d="M364.77,276.23a2,2,0,0,1-1.42-.59,2.34,2.34,0,0,1-.25-.3,3.84,3.84,0,0,1-.18-.35c0-.12-.09-.24-.12-.37s0-.26,0-.39a2,2,0,0,1,.59-1.42,2.08,2.08,0,0,1,2.83,0,2,2,0,0,1,.58,1.42,2.56,2.56,0,0,1,0,.39,1.58,1.58,0,0,1-.11.37,3.9,3.9,0,0,1-.19.35,1.73,1.73,0,0,1-.25.3A2,2,0,0,1,364.77,276.23Z"/><circle class="cls-24" cx="347.84" cy="308.19" r="20.32"/><path d="M347.84,330.51a22.32,22.32,0,1,1,22.32-22.32A22.34,22.34,0,0,1,347.84,330.51Zm0-40.64a18.32,18.32,0,1,0,18.32,18.32A18.34,18.34,0,0,0,347.84,289.87Z"/><path d="M357.23,308.14c-2.1-2.61-3-4.28-5.29-5a4.42,4.42,0,0,0-4.1,1.37,4.43,4.43,0,0,0-4.11-1.37c-2.32.73-3.19,2.4-5.29,5-2.25,2.79-7.39.21-5.29,2.32,3.65,3.64,11.75,4.09,14.69,0,2.94,4.05,11,3.6,14.68,0C364.63,308.35,359.48,310.93,357.23,308.14Z"/><path class="cls-10" d="M426.57,296.26H382a2,2,0,0,1,0-4h44.55a2,2,0,0,1,0,4Z"/><path class="cls-10" d="M426.57,308H382a2,2,0,0,1,0-4h44.55a2,2,0,0,1,0,4Z"/><path class="cls-10" d="M403.22,319.67H382a2,2,0,0,1,0-4h21.2a2,2,0,0,1,0,4Z"/><rect class="cls-25" x="361.79" y="543.1" width="37.41" height="73.24"/><path d="M399.2,618.35H361.79a2,2,0,0,1-2-2V543.1a2,2,0,0,1,2-2H399.2a2,2,0,0,1,2,2v73.25A2,2,0,0,1,399.2,618.35Zm-35.41-4H397.2V545.1H363.79Z"/><rect class="cls-6" x="290.4" y="543.06" width="49.79" height="49.79"/><rect class="cls-5" x="328.25" y="544.14" width="9.82" height="48.7"/><path d="M342.19,594.85H288.4V541.06h53.79Zm-49.79-4h45.79V545.06H292.4Z"/><rect class="cls-6" x="423.22" y="543.06" width="49.79" height="49.79"/><rect class="cls-5" x="461.04" y="544.14" width="9.82" height="48.7"/><path d="M475,594.85H421.22V541.06H475Zm-49.79-4H471V545.06H425.22Z"/><circle class="cls-26" cx="379.14" cy="442.57" r="38.74"/><path d="M379.14,483.31a40.74,40.74,0,1,1,40.74-40.74A40.79,40.79,0,0,1,379.14,483.31Zm0-77.48a36.74,36.74,0,1,0,36.74,36.74A36.79,36.79,0,0,0,379.14,405.83Z"/><path class="cls-9" d="M398.83,465.74a2,2,0,0,1-1.36-3.47,27,27,0,0,0,8.41-16.55,2,2,0,1,1,4,.46,30.94,30.94,0,0,1-9.66,19A2,2,0,0,1,398.83,465.74Z"/><path d="M369,441.15a9.1,9.1,0,0,1-2.06-.23,9.24,9.24,0,1,1,2.06.23Zm0-14.62A5.31,5.31,0,0,0,367.78,437a5.31,5.31,0,1,0,1.15-10.49Z"/><path class="cls-27" d="M378.46,446.86l9.35,14.77-9.35-14.77L372.85,438Z"/><path d="M386.12,462.7l-14.95-23.62a2,2,0,0,1-.32-1.06,2,2,0,0,1,3.69-1.08l15,23.62Z"/><path d="M389.31,441a9.31,9.31,0,0,1-7.88-14.23,9.31,9.31,0,0,1,15.8,9.85h0A9.32,9.32,0,0,1,389.31,441Zm0-14.62a5.55,5.55,0,0,0-1.21.14,5.31,5.31,0,1,0,5.7,8h0a5.31,5.31,0,0,0-4.49-8.12Zm6.19,9.18h0Z"/><path class="cls-28" d="M379.92,446.79l-9.26,14.84,9.26-14.84,5.54-8.88Z"/><path d="M372.36,462.69,369,460.57l9.25-14.83h0l5.54-8.88a2,2,0,0,1,3.4,2.11l-5.55,8.88h0Z"/><path class="cls-9" d="M389.51,594.85a2,2,0,0,1-2-2V571a2,2,0,0,1,4,0v21.82A2,2,0,0,1,389.51,594.85Z"/><path class="cls-9" d="M457.05,399.4H421a2,2,0,1,1,0-4h36.1a2,2,0,1,1,0,4Z"/><path class="cls-9" d="M470.55,399.4H466.4a2,2,0,0,1,0-4h4.15a2,2,0,1,1,0,4Z"/><rect class="cls-9" x="353.47" y="606.11" width="54.55" height="15.09"/><path d="M408,623.2H353.47a2,2,0,0,1-2-2V606.11a2,2,0,0,1,2-2H408a2,2,0,0,1,2,2V621.2A2,2,0,0,1,408,623.2Zm-52.55-4H406V608.11H355.47Z"/><path class="cls-10" d="M306,401.63H283.83a2,2,0,0,1,0-4H306a2,2,0,0,1,0,4Z"/><path class="cls-10" d="M328.71,401.63h-13.6a2,2,0,0,1,0-4h13.6a2,2,0,0,1,0,4Z"/><path class="cls-10" d="M444.88,491.46H422.76a2,2,0,0,1,0-4h22.12a2,2,0,0,1,0,4Z"/><path class="cls-10" d="M467.63,491.46H454a2,2,0,0,1,0-4h13.59a2,2,0,0,1,0,4Z"/><rect class="cls-29" x="458.24" y="587.76" width="66.08" height="85.28" rx="27.41" ry="27.41"/><path d="M496.91,675H485.64a29.44,29.44,0,0,1-29.4-29.41V615.16a29.43,29.43,0,0,1,29.4-29.4h11.27a29.43,29.43,0,0,1,29.4,29.4v30.47A29.44,29.44,0,0,1,496.91,675Zm-11.27-85.28a25.42,25.42,0,0,0-25.4,25.4v30.47A25.43,25.43,0,0,0,485.64,671h11.27a25.43,25.43,0,0,0,25.4-25.41V615.16a25.42,25.42,0,0,0-25.4-25.4Z"/><path d="M491.27,663.71a2,2,0,0,1-1.41-.58l-12.57-12.58a2,2,0,0,1,2.82-2.83l12.58,12.58a2,2,0,0,1-1.42,3.41Z"/><path class="cls-9" d="M509.65,629.2a2,2,0,0,1-2-2V615.6a11.2,11.2,0,0,0-11.18-11.18,2,2,0,1,1,0-4,15.2,15.2,0,0,1,15.18,15.18v11.6A2,2,0,0,1,509.65,629.2Z"/><path class="cls-9" d="M509.64,636.41a2,2,0,0,1-1.41-.59,1.81,1.81,0,0,1-.25-.3,3.9,3.9,0,0,1-.19-.35c0-.12-.08-.24-.11-.37s0-.26,0-.39a2.05,2.05,0,0,1,.59-1.41,1.48,1.48,0,0,1,.31-.25,1.41,1.41,0,0,1,.34-.19,1.73,1.73,0,0,1,.37-.11,2.1,2.1,0,0,1,.79,0,1.82,1.82,0,0,1,.38.11,1.57,1.57,0,0,1,.33.19,1.48,1.48,0,0,1,.31.25,1.81,1.81,0,0,1,.25.3,2,2,0,0,1,.19.35,2.24,2.24,0,0,1,.1.37,1.92,1.92,0,0,1,0,.78,2.24,2.24,0,0,1-.1.37,2.37,2.37,0,0,1-.19.35,1.81,1.81,0,0,1-.25.3A2,2,0,0,1,509.64,636.41Z"/><path d="M491.27,730.58a2,2,0,0,1-2-2V630.4a2,2,0,0,1,4,0v98.18A2,2,0,0,1,491.27,730.58Z"/><path d="M879.52,617.47a2,2,0,0,1-2-2V320.81a2,2,0,1,1,4,0V615.47A2,2,0,0,1,879.52,617.47Z"/><circle class="cls-30" cx="880.4" cy="374.32" r="60.66"/><path d="M880.4,437a62.66,62.66,0,1,1,62.66-62.66A62.73,62.73,0,0,1,880.4,437Zm0-121.32a58.66,58.66,0,1,0,58.66,58.66A58.73,58.73,0,0,0,880.4,315.66Z"/><path class="cls-9" d="M895.28,423.22a2,2,0,0,1-.6-3.91,46.72,46.72,0,0,0,6.42-2.57,2,2,0,0,1,1.76,3.59,51.74,51.74,0,0,1-7,2.8A2.15,2.15,0,0,1,895.28,423.22Z"/><path class="cls-9" d="M911.05,414.78a2,2,0,0,1-1.25-3.56,47.52,47.52,0,0,0,14.45-19.43,2,2,0,1,1,3.71,1.48,51.38,51.38,0,0,1-15.66,21.07A2,2,0,0,1,911.05,414.78Z"/><path class="cls-31" d="M847.75,409.19l41.47-16.95a4.46,4.46,0,0,0,1.46-7.29l-24.51-24.52a4.47,4.47,0,0,0-7.29,1.47l-17,41.47A4.46,4.46,0,0,0,847.75,409.19Z"/><path d="M846,411.54a6.49,6.49,0,0,1-5.94-8.93L857,361.14A6.46,6.46,0,0,1,867.58,359l24.52,24.51A6.47,6.47,0,0,1,890,394.09L848.5,411A6.58,6.58,0,0,1,846,411.54Zm17-50.42a2.83,2.83,0,0,0-.5.05,2.46,2.46,0,0,0-1.8,1.49l-17,41.47a2.46,2.46,0,0,0,3.21,3.21h0l41.47-17a2.39,2.39,0,0,0,1.48-1.79,2.43,2.43,0,0,0-.67-2.23l-24.51-24.51A2.47,2.47,0,0,0,863,361.12Z"/><path d="M864,394.53H848a2,2,0,0,1,0-4h16a2,2,0,0,1,0,4Z"/><path d="M867.81,382.49h-16a2,2,0,1,1,0-4h16a2,2,0,0,1,0,4Z"/><circle class="cls-32" cx="895.28" cy="355.83" r="24.86"/><path d="M895.28,382.69a26.86,26.86,0,1,1,26.86-26.85A26.89,26.89,0,0,1,895.28,382.69Zm0-49.71a22.86,22.86,0,1,0,22.86,22.86A22.89,22.89,0,0,0,895.28,333Z"/><path class="cls-9" d="M908.75,367.93a2,2,0,0,1-1.6-3.2,14.7,14.7,0,0,0,3-8.89,14.94,14.94,0,0,0-.82-4.89,2,2,0,1,1,3.77-1.32,18.84,18.84,0,0,1-2.72,17.51A2,2,0,0,1,908.75,367.93Z"/><rect class="cls-9" x="874.47" y="341.71" width="13.07" height="57.56" rx="3.8" ry="3.8" transform="translate(-3.93 731.48) rotate(-45)"/><path d="M896.73,395.88a5.73,5.73,0,0,1-4.1-1.7l-35.32-35.32a5.79,5.79,0,0,1,0-8.2l3.86-3.87a5.83,5.83,0,0,1,8.21,0l35.32,35.33a5.82,5.82,0,0,1,0,8.2l-3.87,3.86A5.71,5.71,0,0,1,896.73,395.88ZM865.27,349.1a1.78,1.78,0,0,0-1.27.52l-3.87,3.86a1.82,1.82,0,0,0,0,2.55l35.33,35.33a1.81,1.81,0,0,0,2.55,0l3.86-3.87h0a1.82,1.82,0,0,0,0-2.55l-35.32-35.32A1.78,1.78,0,0,0,865.27,349.1Z"/><polygon class="cls-33" points="903.35 591.01 855.72 591.01 855.72 517.07 903.35 517.07 903.35 579.55 903.35 591.01"/><path d="M905.35,593H853.72V515.07h51.63Zm-47.63-4h43.63V519.07H857.72Z"/><g class="cls-34"><path class="cls-35" d="M893.27,533.42H881.12a2,2,0,0,1,0-4h12.15a2,2,0,0,1,0,4Z"/></g><rect class="cls-9" x="864.7" y="526.29" width="10.25" height="10.25" rx="4.25" ry="4.25"/><rect class="cls-9" x="864.7" y="548.91" width="10.25" height="10.25" rx="4.25" ry="4.25"/><path class="cls-36" d="M893.27,556H881.12a2,2,0,1,1,0-4h12.15a2,2,0,0,1,0,4Z"/><rect class="cls-9" x="864.7" y="571.54" width="10.25" height="10.25" rx="4.25" ry="4.25"/><path class="cls-36" d="M893.27,578.66H881.12a2,2,0,0,1,0-4h12.15a2,2,0,0,1,0,4Z"/><polygon class="cls-37" points="806.04 427.27 675.23 427.27 645.09 479.64 836.08 479.64 806.04 427.27"/><polygon class="cls-8" points="826.87 486.4 835.01 481.7 802.86 426 794.74 428.89 826.87 486.4"/><path d="M839.53,481.64H641.64l32.43-56.37H807.2Zm-191-4H832.63l-27.75-48.37H676.39Z"/><rect class="cls-9" x="635.92" y="479.64" width="211.49" height="17.79" rx="8.89" ry="8.89"/><path d="M838.51,499.43H644.81a10.9,10.9,0,0,1,0-21.79h193.7a10.9,10.9,0,0,1,0,21.79Zm-193.7-17.79a6.9,6.9,0,0,0,0,13.79h193.7a6.9,6.9,0,0,0,0-13.79Z"/><path class="cls-38" d="M783.36,497.94v-5.53a42.73,42.73,0,0,0-42.72-42.73h0a42.73,42.73,0,0,0-42.73,42.73v5.53H645.09V616.55H838.22V497.94Z"/><rect class="cls-8" x="827.53" y="497.43" width="8.54" height="119.12" transform="translate(1663.61 1113.97) rotate(180)"/><path d="M838.22,618.55H645.09a2,2,0,0,1-2-2V497.94a2,2,0,0,1,2-2h50.82v-3.53a44.73,44.73,0,1,1,89.45,0v3.53h52.86a2,2,0,0,1,2,2V616.55A2,2,0,0,1,838.22,618.55Zm-191.13-4H836.22V499.94H783.36a2,2,0,0,1-2-2v-5.53a40.73,40.73,0,1,0-81.45,0v5.53a2,2,0,0,1-2,2H647.09Z"/><rect class="cls-6" x="671.22" y="536.53" width="69.44" height="56.32"/><rect class="cls-5" x="728.73" y="536.53" width="9.82" height="54.94"/><path d="M742.66,594.85H669.22V534.53h73.44Zm-69.44-4h65.44V538.53H673.22Z"/><path class="cls-9" d="M705.81,531H731a0,0,0,0,1,0,0v14.21a10.47,10.47,0,0,1-10.47,10.47h-4.3a10.47,10.47,0,0,1-10.47-10.47V531A0,0,0,0,1,705.81,531Z"/><path d="M720.58,557.64h-4.31a12.48,12.48,0,0,1-12.46-12.47V531a2,2,0,0,1,2-2H731a2,2,0,0,1,2,2v14.21A12.48,12.48,0,0,1,720.58,557.64ZM707.81,533v12.21a8.48,8.48,0,0,0,8.46,8.47h4.31a8.47,8.47,0,0,0,8.46-8.47V533Z"/><path class="cls-39" d="M731,531h25.24a0,0,0,0,1,0,0v14.21a10.47,10.47,0,0,1-10.47,10.47h-4.3A10.47,10.47,0,0,1,731,545.18V531A0,0,0,0,1,731,531Z"/><path d="M745.81,557.64h-4.3A12.49,12.49,0,0,1,729,545.17V529h29.24v16.21A12.48,12.48,0,0,1,745.81,557.64ZM733,533v12.21a8.48,8.48,0,0,0,8.47,8.47h4.3a8.48,8.48,0,0,0,8.47-8.47V533Z"/><path class="cls-9" d="M655.6,531h25.24a0,0,0,0,1,0,0v14.21a10.47,10.47,0,0,1-10.47,10.47h-4.3a10.47,10.47,0,0,1-10.47-10.47V531a0,0,0,0,1,0,0Z"/><path d="M670.37,557.64h-4.3a12.49,12.49,0,0,1-12.47-12.47V531a2,2,0,0,1,2-2h25.24a2,2,0,0,1,2,2v14.21A12.48,12.48,0,0,1,670.37,557.64ZM657.6,533v12.21a8.48,8.48,0,0,0,8.47,8.47h4.3a8.48,8.48,0,0,0,8.47-8.47V533Z"/><path class="cls-40" d="M680.57,531h25.24a0,0,0,0,1,0,0v14.21a10.47,10.47,0,0,1-10.47,10.47H691a10.47,10.47,0,0,1-10.47-10.47V531a0,0,0,0,1,0,0Z"/><path d="M695.34,557.64H691a12.48,12.48,0,0,1-12.47-12.47V529h29.24v16.21A12.49,12.49,0,0,1,695.34,557.64ZM682.57,533v12.21a8.48,8.48,0,0,0,8.47,8.47h4.3a8.48,8.48,0,0,0,8.47-8.47V533Z"/><rect class="cls-41" x="777.32" y="543.06" width="37.41" height="73.24"/><path d="M814.72,618.3h-37.4a2,2,0,0,1-2-2V543.06a2,2,0,0,1,2-2h37.4a2,2,0,0,1,2,2V616.3A2,2,0,0,1,814.72,618.3Zm-35.4-4h33.4V545.06h-33.4Z"/><path class="cls-10" d="M810.26,511.37h-8.44a2,2,0,0,1,0-4h8.44a2,2,0,0,1,0,4Z"/><path class="cls-10" d="M693.22,515.34H670a2,2,0,0,1,0-4h23.22a2,2,0,0,1,0,4Z"/><path class="cls-10" d="M709.6,515.34h-8.44a2,2,0,0,1,0-4h8.44a2,2,0,0,1,0,4Z"/><path class="cls-9" d="M761.94,491.58a21.32,21.32,0,1,0-42.63,0"/><path d="M761.94,493.58a2,2,0,0,1-2-2,19.32,19.32,0,1,0-38.63,0,2,2,0,0,1-4,0,23.32,23.32,0,1,1,46.63,0A2,2,0,0,1,761.94,493.58Z"/><path class="cls-10" d="M747.45,607.29H724.23a2,2,0,0,1,0-4h23.22a2,2,0,0,1,0,4Z"/><path class="cls-9" d="M740.18,439.41H703.84a2,2,0,0,1,0-4h36.34a2,2,0,0,1,0,4Z"/><path class="cls-9" d="M694.12,439.41h-6.79a2,2,0,0,1,0-4h6.79a2,2,0,0,1,0,4Z"/><path class="cls-9" d="M804.77,590.47a2,2,0,0,1-2-2V564.69a2,2,0,0,1,4,0v23.78A2,2,0,0,1,804.77,590.47Z"/><rect class="cls-9" x="768.74" y="606.11" width="54.55" height="15.09"/><path d="M823.29,623.2H768.74a2,2,0,0,1-2-2V606.11a2,2,0,0,1,2-2h54.55a2,2,0,0,1,2,2V621.2A2,2,0,0,1,823.29,623.2Zm-52.55-4h50.55V608.11H770.74Z"/><rect class="cls-42" x="618.91" y="600.22" width="34.37" height="48.48"/><path d="M655.28,650.71H616.91V598.22h38.37Zm-34.37-4h30.37V602.22H620.91Z"/><path d="M618.91,660.17a2,2,0,0,1-2-2v-9.46a2,2,0,0,1,4,0v9.46A2,2,0,0,1,618.91,660.17Z"/><path d="M653.28,660.17a2,2,0,0,1-2-2v-9.46a2,2,0,0,1,4,0v9.46A2,2,0,0,1,653.28,660.17Z"/><path class="cls-36" d="M642.49,618.64H629.7a2,2,0,0,1,0-4h12.79a2,2,0,0,1,0,4Z"/><path class="cls-36" d="M642.49,632.92H629.7a2,2,0,0,1,0-4h12.79a2,2,0,0,1,0,4Z"/></g></g></g></svg>