<svg xmlns="http://www.w3.org/2000/svg" xmlns:xlink="http://www.w3.org/1999/xlink" viewBox="0 0 665.67 448.5"><defs><style>.cls-1{fill:url(#linear-gradient);}.cls-2{fill:url(#linear-gradient-2);}.cls-3{fill:#fff;}.cls-4{fill:url(#linear-gradient-3);}.cls-5{fill:url(#linear-gradient-4);}.cls-6{fill:url(#linear-gradient-5);}.cls-7{fill:url(#linear-gradient-6);}.cls-8{fill:url(#linear-gradient-7);}.cls-9{fill:#208ccb;}.cls-10{fill:url(#linear-gradient-8);}.cls-11{fill:url(#linear-gradient-9);}</style><linearGradient id="linear-gradient" x1="353" y1="187.45" x2="352" y2="446.45" gradientUnits="userSpaceOnUse"><stop offset="0" stop-color="#1da5c9"/><stop offset="1" stop-color="#1d85db"/></linearGradient><linearGradient id="linear-gradient-2" x1="251.15" y1="401.35" x2="453.84" y2="401.35" xlink:href="#linear-gradient"/><linearGradient id="linear-gradient-3" x1="260.18" y1="222.68" x2="445.52" y2="222.68" gradientUnits="userSpaceOnUse"><stop offset="0" stop-color="#ebcd1c"/><stop offset="1" stop-color="#eb901c"/></linearGradient><linearGradient id="linear-gradient-4" x1="422.92" y1="265.73" x2="450.16" y2="265.73" gradientUnits="userSpaceOnUse"><stop offset="0" stop-color="#ed467b"/><stop offset="1" stop-color="#ec7e7a"/></linearGradient><linearGradient id="linear-gradient-5" x1="332.27" y1="327.2" x2="363.78" y2="327.2" xlink:href="#linear-gradient-4"/><linearGradient id="linear-gradient-6" x1="328.5" y1="392.79" x2="376.96" y2="392.79" xlink:href="#linear-gradient"/><linearGradient id="linear-gradient-7" x1="528.46" y1="28.54" x2="516.46" y2="155.54" xlink:href="#linear-gradient"/><linearGradient id="linear-gradient-8" x1="95.39" y1="96.37" x2="129.39" y2="192.37" xlink:href="#linear-gradient"/><linearGradient id="linear-gradient-9" x1="88.59" y1="98.78" x2="122.59" y2="194.78" xlink:href="#linear-gradient"/></defs><title>Asset 9</title><g id="Layer_2" data-name="Layer 2"><g id="Layer_1-2" data-name="Layer 1"><path class="cls-1" d="M207.4,198.26H497.59a10,10,0,0,1,10,10V428.55a0,0,0,0,1,0,0H197.4a0,0,0,0,1,0,0V208.26A10,10,0,0,1,207.4,198.26Z"/><path class="cls-2" d="M453.84,437c0-39.4-45.37-71.33-101.34-71.33S251.15,397.62,251.15,437Z"/><path d="M456.34,439.52H248.65V437c0-40.71,46.59-73.83,103.85-73.83S456.34,396.31,456.34,437Zm-202.62-5H451.28c-1.9-36.8-45.48-66.33-98.78-66.33S255.61,397.72,253.72,434.52Z"/><path class="cls-3" d="M416.8,401.26a2.49,2.49,0,0,1-1.48-.48c-.44-.33-.9-.66-1.36-1a96,96,0,0,0-23.78-12,2.5,2.5,0,0,1,1.64-4.72,101,101,0,0,1,25,12.64c.49.35,1,.69,1.44,1a2.5,2.5,0,0,1-1.48,4.51Z"/><path d="M507.59,431.05H197.4a2.5,2.5,0,0,1-2.5-2.5V208.26a12.52,12.52,0,0,1,12.5-12.5H497.59a12.51,12.51,0,0,1,12.5,12.5V428.55A2.49,2.49,0,0,1,507.59,431.05Zm-307.69-5H505.09V208.26a7.51,7.51,0,0,0-7.5-7.5H207.4a7.51,7.51,0,0,0-7.5,7.5Z"/><path class="cls-3" d="M491.25,273.57a2.49,2.49,0,0,1-2.5-2.5V232.66a2.5,2.5,0,1,1,5,0v38.41A2.5,2.5,0,0,1,491.25,273.57Z"/><rect class="cls-3" x="156.68" y="419.89" width="391.63" height="26.11" rx="13.05" ry="13.05"/><path d="M535.26,448.5H169.74a15.56,15.56,0,1,1,0-31.11H535.26a15.56,15.56,0,0,1,0,31.11ZM169.74,422.39a10.56,10.56,0,1,0,0,21.11H535.26a10.56,10.56,0,0,0,0-21.11Z"/><path class="cls-3" d="M491.26,285.19h0a2.5,2.5,0,1,1,2.5-2.5A2.49,2.49,0,0,1,491.25,285.19Z"/><path class="cls-4" d="M273.86,155.51c0,9,0,27,10.91,35.76h0c-.81.71-1.8,1.52-2.91,2.4a56.65,56.65,0,0,0-21.68,44.47v50.17l21.05,1.55,0-36.8h143l.23,36.8,21-1.55V217.4A17.38,17.38,0,0,0,428.14,200h0A37.27,37.27,0,0,0,398,163.43Z"/><path d="M281.22,292.36H281l-21-1.54a2.51,2.51,0,0,1-2.32-2.5V238.14a58.87,58.87,0,0,1,22.63-46.44l.66-.52c-9.61-10-9.61-27.13-9.61-35.67A2.5,2.5,0,0,1,274,153l124.09,7.93a1.75,1.75,0,0,1,.32,0,39.83,39.83,0,0,1,32.14,36.69A19.91,19.91,0,0,1,448,217.4v70.91a2.51,2.51,0,0,1-2.32,2.5l-21,1.54a2.52,2.52,0,0,1-2.69-2.48l-.2-34.31h-138l0,34.3a2.49,2.49,0,0,1-2.5,2.5Zm0-41.8h143a2.5,2.5,0,0,1,2.5,2.49l.21,34.12L443,286V217.4a14.9,14.9,0,0,0-14.88-14.88,2.5,2.5,0,0,1-2.5-2.5,34.81,34.81,0,0,0-28-34.1l-121.26-7.75c.08,9,.95,23.91,10,31.15a2.53,2.53,0,0,1,.94,1.9,2.49,2.49,0,0,1-.86,1.93c-.79.7-1.8,1.53-3,2.48a53.9,53.9,0,0,0-20.73,42.51V286l16.05,1.18,0-34.11A2.5,2.5,0,0,1,281.25,250.56Z"/><rect class="cls-3" x="254.83" y="257.13" width="35" height="37.52" rx="15.8" ry="15.8"/><path d="M274,297.16h-3.4a18.32,18.32,0,0,1-18.3-18.3v-5.93a18.32,18.32,0,0,1,18.3-18.3H274a18.32,18.32,0,0,1,18.3,18.3v5.93A18.32,18.32,0,0,1,274,297.16Zm-3.4-37.53a13.32,13.32,0,0,0-13.3,13.3v5.93a13.32,13.32,0,0,0,13.3,13.3H274a13.32,13.32,0,0,0,13.3-13.3v-5.93a13.32,13.32,0,0,0-13.3-13.3Z"/><path class="cls-3" d="M352.5,347.84h0c-43.22,0-78.57-22.62-78.57-62.25V245.67l2.49-.12c9.74-.49,45.8-2.75,66.72-10.09,18.83-6.6,35.32-17.19,41.84-21.66a2.73,2.73,0,0,1,4.07,1.15c1.71,4.64,5.42,13.27,11.19,19.44,7.73,8.27,22.72,10.52,28.49,11.09a2.51,2.51,0,0,1,2.34,2.4v37.71C431.07,325.22,395.71,347.84,352.5,347.84Z"/><path d="M352.5,350.34c-22.24,0-42.48-5.95-57-16.76-15.75-11.74-24.08-28.33-24.08-48V243.28l4.87-.22c10.3-.52,45.55-2.78,66-10,18.63-6.53,35.05-17.12,41.24-21.36a5.33,5.33,0,0,1,4.62-.67,5,5,0,0,1,3.21,3c1.64,4.43,5.2,12.74,10.68,18.6,7.3,7.81,22.44,9.86,26.91,10.31a5,5,0,0,1,4.59,4.88v37.71c0,19.66-8.33,36.25-24.09,48C395,344.39,374.74,350.34,352.5,350.34ZM276.43,248.05v37.54c0,41.28,38.2,59.75,76.07,59.75s76.07-18.47,76.07-59.75V248l-.09,0c-6.29-.62-21.8-3-30.06-11.87-6.08-6.5-9.95-15.49-11.72-20.28h-.13a.31.31,0,0,0-.18.05c-6.36,4.36-23.22,15.23-42.42,22-21.1,7.4-56.94,9.7-67.43,10.23Z"/><path d="M364,329.69l-.39-5c55.8-4.36,68-40.15,68.15-40.51l4.75,1.54c-.13.41-3.36,10.13-14,20.44C412.77,315.58,394.74,327.29,364,329.69Z"/><path id="_Path_" data-name="&lt;Path&gt;" class="cls-5" d="M437.29,294.65h-1.5a12.89,12.89,0,0,1-12.87-12.87v-32.1a12.9,12.9,0,0,1,12.87-12.88h1.5a12.9,12.9,0,0,1,12.87,12.88v32.1A12.89,12.89,0,0,1,437.29,294.65Z"/><path d="M437.29,297.16h-1.5a15.4,15.4,0,0,1-15.37-15.38v-32.1a15.4,15.4,0,0,1,15.37-15.38h1.5a15.39,15.39,0,0,1,15.37,15.38v32.1A15.39,15.39,0,0,1,437.29,297.16Zm-1.5-57.86a10.39,10.39,0,0,0-10.37,10.38v32.1a10.39,10.39,0,0,0,10.37,10.38h1.5a10.39,10.39,0,0,0,10.37-10.38v-32.1a10.39,10.39,0,0,0-10.37-10.38Z"/><path id="_Path_2" data-name="&lt;Path&gt;" class="cls-6" d="M355.12,335.87H340.94a8.67,8.67,0,0,1-8.67-8.67h0a8.67,8.67,0,0,1,8.67-8.66h14.18a8.66,8.66,0,0,1,8.66,8.66h0A8.67,8.67,0,0,1,355.12,335.87Z"/><path d="M355.12,338.37H340.94a11.17,11.17,0,1,1,0-22.33h14.18a11.17,11.17,0,0,1,0,22.33ZM340.94,321a6.17,6.17,0,1,0,0,12.33h14.18a6.17,6.17,0,0,0,0-12.33Z"/><path class="cls-3" d="M379.61,179.13h-.15L327.71,176a2.5,2.5,0,1,1,.3-5l51.75,3.13a2.5,2.5,0,0,1-.15,5Z"/><path class="cls-3" d="M317.58,174.6a2.49,2.49,0,0,1-2.5-2.5,2.51,2.51,0,0,1,.73-1.77,2.33,2.33,0,0,1,.38-.31,2.43,2.43,0,0,1,.9-.37,2.31,2.31,0,0,1,1,0,2.79,2.79,0,0,1,.47.14,2.55,2.55,0,0,1,.43.23,3.68,3.68,0,0,1,.38.31,2.51,2.51,0,0,1,0,3.54,3.68,3.68,0,0,1-.38.31,3.55,3.55,0,0,1-.43.23,2.79,2.79,0,0,1-.47.14A2.72,2.72,0,0,1,317.58,174.6Z"/><path class="cls-7" d="M328.5,367.7a144.23,144.23,0,0,1,48.46.08v52.11H328.5Z"/><path d="M379.46,422.39H326V365.6l2.08-.36a147.08,147.08,0,0,1,49.31.08l2.07.36Zm-48.46-5h43.46V369.9a142,142,0,0,0-43.46-.07Z"/><path class="cls-8" d="M563.07,150.3,517,135.64,474.7,158a3.4,3.4,0,0,1-4.83-4l9.61-30.2-29.86-9.49a32.76,32.76,0,0,1-21.23-41l15.24-47.91A32.76,32.76,0,0,1,484.66,4L598.12,40.13a32.77,32.77,0,0,1,21.23,41l-15.24,47.91A32.76,32.76,0,0,1,563.07,150.3Z"/><path d="M473.11,160.85a5.91,5.91,0,0,1-5.62-7.7l8.85-27.81-27.48-8.74A35.21,35.21,0,0,1,426,72.42l15.23-47.91A35.21,35.21,0,0,1,485.42,1.66L598.87,37.74a35.22,35.22,0,0,1,22.86,44.18l-15.24,47.91a35.28,35.28,0,0,1-44.18,22.86L517.2,138.34l-41.33,21.82A5.91,5.91,0,0,1,473.11,160.85ZM474.78,5A30.22,30.22,0,0,0,446,26L430.77,73.94a30.2,30.2,0,0,0,19.61,37.89l32.24,10.26-10.36,32.58a.82.82,0,0,0,.28,1,.84.84,0,0,0,1,.11l43.18-22.8,47.11,15a30.26,30.26,0,0,0,37.89-19.61L617,80.4a30.19,30.19,0,0,0-19.6-37.89L483.91,6.42A30.22,30.22,0,0,0,474.78,5Z"/><path class="cls-3" d="M601.82,83.58a2.56,2.56,0,0,1-.76-.12,2.5,2.5,0,0,1-1.62-3.14l.09-.27a20.19,20.19,0,0,0-13.11-25.33A2.5,2.5,0,0,1,587.93,50a25.2,25.2,0,0,1,16.36,31.62l-.08.26A2.51,2.51,0,0,1,601.82,83.58Z"/><path class="cls-3" d="M597.87,96a2.7,2.7,0,0,1-.49,0,2.84,2.84,0,0,1-.47-.15,2.55,2.55,0,0,1-.43-.23,2.72,2.72,0,0,1-.38-.31,2.33,2.33,0,0,1-.31-.38,2.22,2.22,0,0,1-.23-.43,2.54,2.54,0,0,1-.14-.47,2.38,2.38,0,0,1,0-1,2.54,2.54,0,0,1,.14-.47,2.22,2.22,0,0,1,.23-.43,2.33,2.33,0,0,1,.31-.38,3.79,3.79,0,0,1,.38-.32,2.49,2.49,0,0,1,.43-.22,2.14,2.14,0,0,1,.47-.15,2.69,2.69,0,0,1,1,0,2,2,0,0,1,.47.15,2.49,2.49,0,0,1,.43.22,3.79,3.79,0,0,1,.38.32,2.33,2.33,0,0,1,.31.38,2.22,2.22,0,0,1,.23.43,2.54,2.54,0,0,1,.14.47,2.38,2.38,0,0,1,0,1,2.54,2.54,0,0,1-.14.47,2.22,2.22,0,0,1-.23.43,2.33,2.33,0,0,1-.31.38,2.72,2.72,0,0,1-.38.31,2.7,2.7,0,0,1-.9.38A2.7,2.7,0,0,1,597.87,96Z"/><circle class="cls-3" cx="487.88" cy="66.62" r="12.38"/><path d="M487.88,81.5a14.87,14.87,0,1,1,14.18-10.37h0A14.89,14.89,0,0,1,487.88,81.5Zm0-24.76a9.88,9.88,0,1,0,9.42,12.88h0a9.89,9.89,0,0,0-6.41-12.41A10.06,10.06,0,0,0,487.87,56.74Z"/><circle class="cls-3" cx="523.26" cy="77.88" r="12.38"/><path d="M523.28,92.76a15,15,0,0,1-4.53-.71,14.88,14.88,0,1,1,18.69-9.66h0a14.9,14.9,0,0,1-14.16,10.37Zm0-24.76a9.88,9.88,0,1,0,9.42,12.87h0a9.89,9.89,0,0,0-6.41-12.4A9.75,9.75,0,0,0,523.25,68Z"/><circle class="cls-3" cx="558.64" cy="89.13" r="12.37"/><path d="M558.63,104a14.88,14.88,0,0,1-14.17-19.39,14.88,14.88,0,0,1,28.36,9h0A14.92,14.92,0,0,1,558.63,104Zm0-24.76a9.89,9.89,0,1,0,3,.47A9.94,9.94,0,0,0,558.63,79.25Z"/><rect class="cls-9" x="41.34" y="103.04" width="139.73" height="96.73" rx="10" ry="10" transform="translate(-52.52 59.31) rotate(-24.34)"/><path d="M72.5,223.54a12.53,12.53,0,0,1-11.41-7.35l-31.63-69.9a12.51,12.51,0,0,1,6.24-16.54L144.79,80.39a12.52,12.52,0,0,1,16.54,6.23L193,156.53a12.54,12.54,0,0,1-6.24,16.54L77.63,222.43A12.45,12.45,0,0,1,72.5,223.54ZM149.91,84.28a7.46,7.46,0,0,0-3.06.66L37.76,134.3A7.51,7.51,0,0,0,34,144.23l31.63,69.9a7.5,7.5,0,0,0,9.92,3.74l109.09-49.36a7.41,7.41,0,0,0,3.92-4.19,7.49,7.49,0,0,0-.18-5.73L156.77,88.68a7.56,7.56,0,0,0-6.86-4.4Z"/><path class="cls-10" d="M129.56,134.88l57.72,21.76,3.94,1.83a9,9,0,0,1-4.48,11.91L75.82,220.56a9,9,0,0,1-11.91-4.49l3.3-9.35L87,154.18Z"/><path d="M72.14,223.86a11.55,11.55,0,0,1-4.08-.75,11.42,11.42,0,0,1-6.42-6l-.42-.91,3.64-10.31,20.19-53.55,44.42-20.16,58.86,22.2,4.79,2.22.38.85a11.53,11.53,0,0,1-5.73,15.21L76.85,222.84A11.42,11.42,0,0,1,72.14,223.86Zm-5.5-8a6.52,6.52,0,0,0,8.15,2.42L185.71,168.1a6.52,6.52,0,0,0,3.54-7.79l-2.94-1.37-56.66-21.36L89,156,69.55,207.6Z"/><path class="cls-11" d="M152.62,81.7a8.87,8.87,0,0,0-5.76.55L36,132.43a9,9,0,0,0-4.16,3.85L117,163.87Z"/><path d="M118.37,167,28.14,137.73l1.46-2.65a11.36,11.36,0,0,1,5.32-4.93L145.83,80a11.43,11.43,0,0,1,7.36-.71l2.91.69ZM36.25,135.1l79.34,25.69,33.22-76.6a6.38,6.38,0,0,0-.92.34L37,134.71A5.12,5.12,0,0,0,36.25,135.1Z"/><path d="M92.62,370a4,4,0,0,1-3.69-4.29h0A4,4,0,0,1,93.21,362h0a4,4,0,0,1,3.69,4.29h0a4,4,0,0,1-4,3.7h-.3Zm16.29-4a4,4,0,0,1,3.48-4.46h0a4,4,0,0,1,4.46,3.48h0a4,4,0,0,1-3.49,4.46h0a4,4,0,0,1-.49,0h0A4,4,0,0,1,108.91,366Zm-36.74.39h0a4,4,0,0,1-2.77-4.93h0a4,4,0,0,1,4.94-2.77h0a4,4,0,0,1,2.76,4.94h0a4,4,0,0,1-3.85,2.92h0A4,4,0,0,1,72.17,366.38Zm56.39-4a4,4,0,0,1,2.56-5.05h0a4,4,0,0,1,5,2.56h0a4,4,0,0,1-2.56,5.05h0a4.13,4.13,0,0,1-1.25.2h0A4,4,0,0,1,128.56,362.41Zm-75.72-3.72a4,4,0,0,1-1.68-5.4h0a4,4,0,0,1,5.4-1.68h0a4,4,0,0,1,1.68,5.4h0a4,4,0,0,1-3.54,2.14h0A4,4,0,0,1,52.84,358.69Zm94.32-3.59a4,4,0,0,1,1.53-5.45h0a4,4,0,0,1,5.45,1.53h0a4,4,0,0,1-1.53,5.44h0a4,4,0,0,1-2,.51h0A4,4,0,0,1,147.16,355.1Zm-111.61-8a4,4,0,0,1-.49-5.64h0a4,4,0,0,1,5.63-.49h0a4,4,0,0,1,.49,5.63h0A4,4,0,0,1,38.12,348h0A4,4,0,0,1,35.55,347.1ZM164,344.32a4,4,0,0,1,.45-5.64h0a4,4,0,0,1,5.64.45h0a4,4,0,0,1-.45,5.64h0a4,4,0,0,1-2.59,1h0A4,4,0,0,1,164,344.32ZM21.13,332.08a4,4,0,0,1,.72-5.61h0a4,4,0,0,1,5.61.72h0a4,4,0,0,1-.72,5.61h0a3.91,3.91,0,0,1-2.44.84h0A4,4,0,0,1,21.13,332.08ZM10.21,314.39a4,4,0,0,1,1.87-5.34h0a4,4,0,0,1,5.34,1.87h0a4,4,0,0,1-1.87,5.34h0a4,4,0,0,1-1.73.39h0A4,4,0,0,1,10.21,314.39ZM3.13,294.87A4,4,0,0,1,6,290H6a4,4,0,0,1,4.86,2.89h0A4,4,0,0,1,8,297.76H8a4.19,4.19,0,0,1-1,.12H7A4,4,0,0,1,3.13,294.87ZM0,274.36a4,4,0,0,1,3.78-4.21h0A4,4,0,0,1,8,273.93H8a4,4,0,0,1-3.78,4.21H4A4,4,0,0,1,0,274.36Zm4.3-16.21a4,4,0,0,1-3.4-4.52h0a4,4,0,0,1,4.52-3.4h0a4,4,0,0,1,3.4,4.52h0a4,4,0,0,1-3.95,3.44h0A3.64,3.64,0,0,1,4.31,258.15Zm3.94-19.59a4,4,0,0,1-2.47-5.09h0A4,4,0,0,1,10.87,231h0a4,4,0,0,1,2.47,5.1h0a4,4,0,0,1-3.78,2.68h0A4,4,0,0,1,8.25,238.56Zm7.66-18.46a4,4,0,0,1-1.42-5.47h0A4,4,0,0,1,20,213.21h0a4,4,0,0,1,1.42,5.47h0a4,4,0,0,1-3.46,2h0A3.94,3.94,0,0,1,15.91,220.1ZM27,203.5a4,4,0,0,1-.33-5.65h0a4,4,0,0,1,5.64-.34h0a4,4,0,0,1,.34,5.65h0a4,4,0,0,1-3,1.34h0A4,4,0,0,1,27,203.5Z"/><path d="M561.15,341.67a4,4,0,0,1,3.79-4.2h0a4,4,0,0,1,4.2,3.79h0a4,4,0,0,1-3.79,4.2h-.21A4,4,0,0,1,561.15,341.67Zm-16.55,2.75h0a4,4,0,0,1-3.36-4.56h0a4,4,0,0,1,4.56-3.35h0a4,4,0,0,1,3.35,4.55h0a4,4,0,0,1-3.95,3.4h0A3.1,3.1,0,0,1,544.6,344.42Zm36.41-5a4,4,0,0,1,2.89-4.86h0a4,4,0,0,1,4.86,2.89h0a4,4,0,0,1-2.89,4.86h0a3.72,3.72,0,0,1-1,.13h0A4,4,0,0,1,581,339.46Zm-56.53-.19a4,4,0,0,1-2.38-5.14h0a4,4,0,0,1,5.14-2.38h0a4,4,0,0,1,2.37,5.14h0a4,4,0,0,1-3.75,2.62h0A4.18,4.18,0,0,1,524.48,339.27Zm75.57-5.88a4,4,0,0,1,1.88-5.33h0a4,4,0,0,1,5.33,1.88h0a4,4,0,0,1-1.88,5.33h0a3.9,3.9,0,0,1-1.72.4h0A4,4,0,0,1,600.05,333.39Zm17.47-9.69a4,4,0,0,1,.79-5.6h0a4,4,0,0,1,5.6.79h0a4,4,0,0,1-.79,5.6h0a4,4,0,0,1-2.4.81h0A4,4,0,0,1,617.52,323.7Zm15.2-13a4,4,0,0,1-.36-5.65h0a4,4,0,0,1,5.65-.36h0a4,4,0,0,1,.36,5.64h0a4,4,0,0,1-3,1.36h0A4,4,0,0,1,632.72,310.74ZM645,295a4,4,0,0,1-1.5-5.45h0a4,4,0,0,1,5.45-1.51h0a4,4,0,0,1,1.51,5.45h0a4,4,0,0,1-3.49,2h0A4.06,4.06,0,0,1,645,295Zm8.75-18a4,4,0,0,1-2.54-5.06h0a4,4,0,0,1,5.05-2.54h0a4,4,0,0,1,2.54,5.06h0A4,4,0,0,1,655,277.2h0A4,4,0,0,1,653.72,277Zm5.35-19.26a4,4,0,0,1-3.29-4.61h0a4,4,0,0,1,4.61-3.28h0a4,4,0,0,1,3.28,4.6h0a4,4,0,0,1-3.94,3.34h0A4.89,4.89,0,0,1,659.07,257.74Zm2.48-19.84a4,4,0,0,1-3.87-4.12h0a4,4,0,0,1,4.12-3.88h0a4,4,0,0,1,3.87,4.13h0a4,4,0,0,1-4,3.87h-.13ZM657,214.32h0a4,4,0,0,1,3.58-4.38h0a4,4,0,0,1,4.38,3.58h0a4,4,0,0,1-3.58,4.38h0a2.88,2.88,0,0,1-.41,0h0A4,4,0,0,1,657,214.32Zm-3.28-19.14a4,4,0,0,1,2.92-4.84h0a4,4,0,0,1,4.84,2.92h0a4,4,0,0,1-2.92,4.84h0a4,4,0,0,1-1,.12h0A4,4,0,0,1,653.74,195.18Zm-6.14-18.31a4,4,0,0,1,2.07-5.26h0a4,4,0,0,1,5.27,2.07h0a4,4,0,0,1-2.08,5.27h0a4,4,0,0,1-1.59.33h0A4,4,0,0,1,647.6,176.87Zm-9.35-16.67a4,4,0,0,1,.93-5.58h0a4,4,0,0,1,5.57.92h0a4,4,0,0,1-.92,5.58h0a4,4,0,0,1-2.32.75h0A4,4,0,0,1,638.25,160.2ZM625.4,146.38a4,4,0,0,1-.58-5.63h0a4,4,0,0,1,5.63-.57h0a4,4,0,0,1,.57,5.63h0a4,4,0,0,1-3.1,1.47h0A4,4,0,0,1,625.4,146.38Z"/></g></g></svg>