<svg xmlns="http://www.w3.org/2000/svg" xmlns:xlink="http://www.w3.org/1999/xlink" viewBox="0 0 529.9 388.6"><defs><style>.cls-1{fill:#d7dee5;}.cls-2{fill:#fff;}.cls-3{fill:url(#linear-gradient);}.cls-4{fill:url(#linear-gradient-2);}.cls-5{fill:#228bca;}.cls-6{fill:url(#linear-gradient-3);}.cls-7{fill:url(#linear-gradient-4);}.cls-8{fill:url(#linear-gradient-5);}</style><linearGradient id="linear-gradient" x1="162.44" y1="201.19" x2="215.12" y2="201.19" gradientUnits="userSpaceOnUse"><stop offset="0" stop-color="#1da5c9"/><stop offset="1" stop-color="#1d85db"/></linearGradient><linearGradient id="linear-gradient-2" x1="267.8" y1="164.23" x2="320.48" y2="164.23" xlink:href="#linear-gradient"/><linearGradient id="linear-gradient-3" x1="287.7" y1="313.83" x2="339.35" y2="313.83" gradientTransform="translate(87.14 -67.66) rotate(14.29)" xlink:href="#linear-gradient"/><linearGradient id="linear-gradient-4" x1="264.83" y1="270.52" x2="345.35" y2="270.52" gradientTransform="translate(76.64 -66.35) rotate(14.29)" gradientUnits="userSpaceOnUse"><stop offset="0" stop-color="#ebcd1c"/><stop offset="1" stop-color="#eb901c"/></linearGradient><linearGradient id="linear-gradient-5" x1="327.88" y1="238.52" x2="457.45" y2="238.52" xlink:href="#linear-gradient"/></defs><title>Asset 5</title><g id="Layer_2" data-name="Layer 2"><g id="Layer_1-2" data-name="Layer 1"><path class="cls-1" d="M61,358.09h0A30.51,30.51,0,0,0,91.53,388.6H452.41a30.51,30.51,0,0,0,30.51-30.51h0a30.51,30.51,0,0,0-30.51-30.51H391.53A30.51,30.51,0,0,1,361,297.07h0a30.51,30.51,0,0,1,30.51-30.51h13.74a30.51,30.51,0,0,0,30.51-30.51h0a30.51,30.51,0,0,0-30.51-30.51H30.51A30.51,30.51,0,0,0,0,236.05H0a30.51,30.51,0,0,0,30.51,30.51h115.6a30.51,30.51,0,0,1,30.51,30.24h0a30.51,30.51,0,0,1-30.51,30.78H91.53A30.51,30.51,0,0,0,61,358.09Z"/><rect class="cls-2" x="109.76" y="187.19" width="52.68" height="80.22"/><path d="M162.44,269.92H109.76a2.5,2.5,0,0,1-2.5-2.5V187.19a2.5,2.5,0,0,1,2.5-2.5h52.68a2.5,2.5,0,0,1,2.5,2.5v80.23A2.5,2.5,0,0,1,162.44,269.92Zm-50.18-5h47.68V189.69H112.26Z"/><rect class="cls-3" x="162.44" y="134.96" width="52.68" height="132.46"/><path d="M217.62,269.92H159.94V132.46h57.68Zm-52.68-5h47.68V137.46H164.94Z"/><rect class="cls-2" x="215.12" y="107.04" width="52.68" height="160.37"/><path d="M267.8,269.92H215.12a2.5,2.5,0,0,1-2.5-2.5V107a2.5,2.5,0,0,1,2.5-2.5H267.8a2.5,2.5,0,0,1,2.5,2.5V267.42A2.5,2.5,0,0,1,267.8,269.92Zm-50.18-5H265.3V109.54H217.62Z"/><rect class="cls-4" x="267.8" y="61.04" width="52.68" height="206.37"/><path d="M323,269.92H265.3V58.54H323Zm-52.68-5H318V63.54H270.3Z"/><rect class="cls-2" x="320.48" y="2.5" width="52.68" height="264.92"/><path d="M373.16,269.92H320.48a2.5,2.5,0,0,1-2.5-2.5V2.5a2.5,2.5,0,0,1,2.5-2.5h52.68a2.5,2.5,0,0,1,2.5,2.5V267.42A2.5,2.5,0,0,1,373.16,269.92Zm-50.18-5h47.68V5H323Z"/><rect class="cls-5" x="291.54" y="278.79" width="43.96" height="70.08" rx="19.1" ry="19.1" transform="translate(-67.75 87.07) rotate(-14.29)"/><rect class="cls-6" x="291.54" y="278.79" width="43.96" height="70.08" rx="19.1" ry="19.1" transform="translate(-67.75 87.07) rotate(-14.29)"/><path d="M314.66,351.59a21.69,21.69,0,0,1-20.93-16.27l-7.87-30.9a21.62,21.62,0,0,1,15.6-26.26l5.59-1.43a21.67,21.67,0,0,1,26.26,15.61l7.87,30.9a21.62,21.62,0,0,1-15.6,26.26l-.62-2.43.62,2.43L320,350.92A21.51,21.51,0,0,1,314.66,351.59Zm-2.29-70.52a16.71,16.71,0,0,0-4.08.51L302.7,283a16.62,16.62,0,0,0-12,20.18l7.87,30.9a16.61,16.61,0,0,0,20.18,12l5.59-1.42a16.62,16.62,0,0,0,12-20.18l-7.87-30.9a16.7,16.7,0,0,0-16.1-12.5Z"/><path class="cls-2" d="M316.8,336.67a13.28,13.28,0,0,1-9.09-3.61,2.5,2.5,0,1,1,3.42-3.65,8.29,8.29,0,0,0,4.15,2.11,7.94,7.94,0,0,0,3.53-.11,8.19,8.19,0,0,0,5.06-3.78,2.5,2.5,0,1,1,4.3,2.55,13.16,13.16,0,0,1-8.12,6.08A13.34,13.34,0,0,1,316.8,336.67Z"/><circle class="cls-2" cx="269.14" cy="283.12" r="23.19"/><path d="M269.1,308.82a25.7,25.7,0,1,1,6.38-.8A25.82,25.82,0,0,1,269.1,308.82Zm.08-46.39a20.71,20.71,0,1,0,10.53,2.91A20.6,20.6,0,0,0,269.18,262.43Z"/><path class="cls-7" d="M287.2,238.63h50.86a0,0,0,0,1,0,0v67.91a0,0,0,0,1,0,0H287.2A19.21,19.21,0,0,1,268,287.33V257.84A19.21,19.21,0,0,1,287.2,238.63Z" transform="translate(-57.89 83.2) rotate(-14.29)"/><path d="M291.33,312.49a21.74,21.74,0,0,1-21-16.35L263,267.56a21.7,21.7,0,0,1,15.68-26.39L328,228.61a2.52,2.52,0,0,1,1.9.28,2.48,2.48,0,0,1,1.14,1.53l16.76,65.81a2.49,2.49,0,0,1-.27,1.9,2.52,2.52,0,0,1-1.53,1.14l-49.29,12.55A21.49,21.49,0,0,1,291.33,312.49Zm35.46-78.41L279.92,246a16.72,16.72,0,0,0-12.07,20.32l7.28,28.58A16.7,16.7,0,0,0,295.45,307L342.31,295Z"/><polygon class="cls-8" points="457.45 319.58 344.63 297.03 327.88 231.22 416.17 157.46 457.45 319.58"/><path d="M460.85,322.81,342.6,299.17l-17.54-68.86L417.61,153ZM346.67,294.89l107.38,21.46L414.72,161.92l-84,70.21Z"/><path d="M457.45,322.08A2.63,2.63,0,0,1,457,322L344.14,299.48a2.51,2.51,0,0,1-1.93-1.83l-16.76-65.81a2.54,2.54,0,0,1,.82-2.54l88.29-73.76a2.51,2.51,0,0,1,4,1.3L459.87,319a2.5,2.5,0,0,1-2.42,3.12ZM346.67,294.89l107.38,21.46L414.72,161.92l-84,70.21Z"/><path class="cls-2" d="M287.22,256.69a2.5,2.5,0,0,1-.66-4.91l30.12-8.23a2.5,2.5,0,0,1,1.32,4.83l-30.12,8.22A2.5,2.5,0,0,1,287.22,256.69Z"/><path class="cls-2" d="M353.25,234.49a2.5,2.5,0,0,1-1.61-4.41L393,195.38a2.5,2.5,0,1,1,3.21,3.83l-41.32,34.7A2.51,2.51,0,0,1,353.25,234.49Z"/><path class="cls-2" d="M403.52,192.45a2.61,2.61,0,0,1-.48,0,2.54,2.54,0,0,1-.47-.14,2.22,2.22,0,0,1-.43-.23,2.33,2.33,0,0,1-.38-.31,2.72,2.72,0,0,1-.31-.38,2.7,2.7,0,0,1-.38-.9A2.72,2.72,0,0,1,401,190a2.52,2.52,0,0,1,.74-1.77,2.33,2.33,0,0,1,.38-.31,2.22,2.22,0,0,1,.43-.23,2.54,2.54,0,0,1,.47-.14,2.27,2.27,0,0,1,1,0,2.54,2.54,0,0,1,.47.14,2.22,2.22,0,0,1,.43.23,2.33,2.33,0,0,1,.38.31,2.24,2.24,0,0,1,.31.38,2.7,2.7,0,0,1,.38.9,3,3,0,0,1,0,1,2.7,2.7,0,0,1-.38.9,2.72,2.72,0,0,1-.31.38,2.33,2.33,0,0,1-.38.31,2.22,2.22,0,0,1-.43.23,2.54,2.54,0,0,1-.47.14A2.63,2.63,0,0,1,403.52,192.45Z"/><path d="M463.33,229.33a2.5,2.5,0,0,1-.66-4.91l64.07-17.49a2.5,2.5,0,0,1,1.32,4.82L464,229.25A3,3,0,0,1,463.33,229.33Z"/><path d="M450.46,201.94a2.47,2.47,0,0,1-1.74-.7,2.51,2.51,0,0,1-.06-3.54l24.85-25.65a2.5,2.5,0,0,1,3.59,3.48l-24.85,25.65A2.47,2.47,0,0,1,450.46,201.94Z"/><path d="M501.51,268.69a2.7,2.7,0,0,1-.62-.08l-34.61-8.79a2.5,2.5,0,1,1,1.23-4.84l34.61,8.78a2.5,2.5,0,0,1-.61,4.93Z"/><path class="cls-2" d="M307.23,112.1a2.5,2.5,0,0,1-2.5-2.5V81.9a2.5,2.5,0,1,1,5,0v27.7A2.5,2.5,0,0,1,307.23,112.1Z"/><path class="cls-2" d="M307.24,123.34a2.63,2.63,0,0,1-.49,0,2.54,2.54,0,0,1-.47-.14,3.55,3.55,0,0,1-.43-.23,2.92,2.92,0,0,1-.38-.32,1.91,1.91,0,0,1-.31-.38,2.22,2.22,0,0,1-.23-.43,2.44,2.44,0,0,1-.14-.46,2,2,0,0,1-.05-.49,2,2,0,0,1,.05-.49,2.54,2.54,0,0,1,.14-.47,2.22,2.22,0,0,1,.23-.43,1.91,1.91,0,0,1,.31-.38,2.24,2.24,0,0,1,.38-.31,2.55,2.55,0,0,1,.43-.23,3.68,3.68,0,0,1,.47-.15,2.69,2.69,0,0,1,1,0,3.53,3.53,0,0,1,.46.15,2.64,2.64,0,0,1,.44.23,2.72,2.72,0,0,1,.38.31,2.33,2.33,0,0,1,.31.38,3.55,3.55,0,0,1,.23.43,2.54,2.54,0,0,1,.14.47,2.63,2.63,0,0,1,.05.49,2.72,2.72,0,0,1-.05.49,1.9,1.9,0,0,1-.15.46,1.78,1.78,0,0,1-.23.43,1.91,1.91,0,0,1-.31.38,2.38,2.38,0,0,1-.38.32,2.93,2.93,0,0,1-.43.23,2.69,2.69,0,0,1-.46.14A2.81,2.81,0,0,1,307.24,123.34Z"/><path class="cls-2" d="M200.66,229.8a2.5,2.5,0,0,1-2.5-2.5V199.6a2.5,2.5,0,0,1,5,0v27.7A2.5,2.5,0,0,1,200.66,229.8Z"/></g></g></svg>