<svg xmlns="http://www.w3.org/2000/svg" xmlns:xlink="http://www.w3.org/1999/xlink" viewBox="0 0 239.9 168.96"><defs><style>.cls-1{fill:url(#linear-gradient);}.cls-2{fill:#fff;}.cls-3{fill:#226399;}.cls-4{fill:url(#linear-gradient-2);}.cls-5{fill:url(#linear-gradient-3);}.cls-6{fill:url(#linear-gradient-4);}</style><linearGradient id="linear-gradient" x1="173.98" y1="-3.09" x2="59.98" y2="161.25" gradientUnits="userSpaceOnUse"><stop offset="0" stop-color="#1da5c9"/><stop offset="1" stop-color="#1d85db"/></linearGradient><linearGradient id="linear-gradient-2" x1="45.18" y1="47.24" x2="98.16" y2="47.24" gradientUnits="userSpaceOnUse"><stop offset="0" stop-color="#ebcd1c"/><stop offset="1" stop-color="#eb901c"/></linearGradient><linearGradient id="linear-gradient-3" x1="182.32" y1="71.87" x2="110.99" y2="203.87" xlink:href="#linear-gradient"/><linearGradient id="linear-gradient-4" x1="141.31" y1="113.63" x2="177.95" y2="113.63" xlink:href="#linear-gradient-2"/></defs><title>Asset 7</title><g id="Layer_2" data-name="Layer 2"><g id="Layer_1-2" data-name="Layer 1"><path class="cls-1" d="M36.53,2H203.37a10,10,0,0,1,10,10V140.71a0,0,0,0,1,0,0H26.53a0,0,0,0,1,0,0V12A10,10,0,0,1,36.53,2Z"/><path d="M215.38,142.71H24.53V12a12,12,0,0,1,12-12H203.38a12,12,0,0,1,12,12Zm-186.85-4H211.38V12a8,8,0,0,0-8-8H36.53a8,8,0,0,0-8,8Z"/><path class="cls-2" d="M203.53,47.85a2,2,0,0,1-2-2V22.72a2,2,0,0,1,4,0V45.85A2,2,0,0,1,203.53,47.85Z"/><rect class="cls-2" x="2" y="135.5" width="235.9" height="15.73" rx="7.86" ry="7.86"/><path d="M230,153.22H9.86a9.86,9.86,0,0,1,0-19.72H230a9.86,9.86,0,1,1,0,19.72ZM9.86,137.5a5.86,5.86,0,0,0,0,11.72H230a5.86,5.86,0,1,0,0-11.72Z"/><rect class="cls-2" x="45.18" y="91.04" width="55.84" height="27.92"/><path d="M101,121H45.18a2,2,0,0,1-2-2V91a2,2,0,0,1,2-2H101a2,2,0,0,1,2,2V119A2,2,0,0,1,101,121Zm-53.84-4H99V93H47.18Z"/><path class="cls-3" d="M188.53,39.94H111.35a2,2,0,0,1,0-4h77.18a2,2,0,0,1,0,4Z"/><path class="cls-3" d="M188.53,27H111.35a2,2,0,0,1,0-4h77.18a2,2,0,0,1,0,4Z"/><circle class="cls-4" cx="71.67" cy="47.24" r="26.49"/><path d="M71.67,75.73a28.49,28.49,0,1,1,28.49-28.49A28.52,28.52,0,0,1,71.67,75.73Zm0-53A24.49,24.49,0,1,0,96.16,47.24,24.52,24.52,0,0,0,71.67,22.75Z"/><path class="cls-2" d="M203.54,54.85h0a2,2,0,1,1,2-2A2,2,0,0,1,203.53,54.85Z"/><path class="cls-2" d="M171.5,60.78H140.17a8.71,8.71,0,0,0-8.71,8.71v88.76a8.71,8.71,0,0,0,8.71,8.71h38.92a8.71,8.71,0,0,0,8.71-8.71V69.49a8.71,8.71,0,0,0-8.71-8.71Z"/><path d="M179.09,169H140.17a10.73,10.73,0,0,1-10.71-10.71V69.49a10.72,10.72,0,0,1,10.71-10.71h38.92A10.72,10.72,0,0,1,189.8,69.49v88.76A10.73,10.73,0,0,1,179.09,169ZM140.17,62.78a6.72,6.72,0,0,0-6.71,6.71v88.76a6.72,6.72,0,0,0,6.71,6.71h38.92a6.72,6.72,0,0,0,6.71-6.71V69.49a6.72,6.72,0,0,0-6.71-6.71Z"/><path class="cls-5" d="M171.5,60.78V66a2.19,2.19,0,0,1-2.19,2.19H150A2.19,2.19,0,0,1,147.76,66V60.78h-7.59a8.71,8.71,0,0,0-8.71,8.71v88.76a8.71,8.71,0,0,0,8.71,8.71h38.92a8.71,8.71,0,0,0,8.71-8.71V69.49a8.71,8.71,0,0,0-8.71-8.71Z"/><path d="M179.09,169H140.17a10.73,10.73,0,0,1-10.71-10.71V69.49a10.72,10.72,0,0,1,10.71-10.71h9.59V66a.18.18,0,0,0,.19.19h19.36a.19.19,0,0,0,.19-.19V58.78h9.59A10.72,10.72,0,0,1,189.8,69.49v88.76A10.73,10.73,0,0,1,179.09,169ZM140.17,62.78a6.72,6.72,0,0,0-6.71,6.71v88.76a6.72,6.72,0,0,0,6.71,6.71h38.92a6.72,6.72,0,0,0,6.71-6.71V69.49a6.72,6.72,0,0,0-6.71-6.71H173.5V66a4.2,4.2,0,0,1-4.19,4.19H150A4.2,4.2,0,0,1,145.76,66V62.78Z"/><path class="cls-2" d="M179.47,87.34a2,2,0,0,1-2-2l-.12-14a2,2,0,0,1,2-2h0a2,2,0,0,1,2,2l.12,14a2,2,0,0,1-2,2Z"/><path class="cls-2" d="M179.48,94.34a2,2,0,1,1,0-4h0a2,2,0,0,1,0,4Z"/><circle class="cls-6" cx="159.63" cy="113.63" r="18.32"/><path d="M159.63,134A20.33,20.33,0,1,1,180,113.63,20.34,20.34,0,0,1,159.63,134Zm0-36.65A16.33,16.33,0,1,0,176,113.63,16.35,16.35,0,0,0,159.63,97.3Z"/><path class="cls-3" d="M172.54,144.51H146.72a2,2,0,0,1,0-4h25.82a2,2,0,0,1,0,4Z"/><path class="cls-3" d="M172.54,154.51H146.72a2,2,0,0,1,0-4h25.82a2,2,0,0,1,0,4Z"/></g></g></svg>