<svg xmlns="http://www.w3.org/2000/svg" xmlns:xlink="http://www.w3.org/1999/xlink" viewBox="0 0 251.24 225.94"><defs><style>.cls-1{fill:url(#linear-gradient);}.cls-2{fill:url(#linear-gradient-2);}.cls-3{fill:#fff;}.cls-4{fill:url(#linear-gradient-3);}.cls-5{fill:url(#linear-gradient-4);}.cls-6{fill:url(#linear-gradient-5);}.cls-7{fill:#226399;}</style><linearGradient id="linear-gradient" x1="183.16" y1="-19.94" x2="85.16" y2="176.06" gradientUnits="userSpaceOnUse"><stop offset="0" stop-color="#1da5c9"/><stop offset="1" stop-color="#1d85db"/></linearGradient><linearGradient id="linear-gradient-2" x1="168.91" y1="30.02" x2="8.25" y2="273.35" xlink:href="#linear-gradient"/><linearGradient id="linear-gradient-3" x1="130.53" y1="59.69" x2="79.6" y2="160.48" gradientUnits="userSpaceOnUse"><stop offset="0" stop-color="#ebcd1c"/><stop offset="1" stop-color="#eb901c"/></linearGradient><linearGradient id="linear-gradient-4" x1="246.55" y1="80.3" x2="163.89" y2="268.3" xlink:href="#linear-gradient"/><linearGradient id="linear-gradient-5" x1="225.36" y1="122.96" x2="197.02" y2="199.63" xlink:href="#linear-gradient-3"/></defs><title>Asset 8</title><g id="Layer_2" data-name="Layer 2"><g id="Layer_1-2" data-name="Layer 1"><path class="cls-1" d="M40.67,2H222.8a15.8,15.8,0,0,1,15.8,15.8V149a11.66,11.66,0,0,1-11.66,11.66H36.53A11.66,11.66,0,0,1,24.86,149V17.8A15.8,15.8,0,0,1,40.67,2Z"/><path d="M226.94,162.68H36.53A13.68,13.68,0,0,1,22.86,149V17.8A17.83,17.83,0,0,1,40.67,0H222.8a17.83,17.83,0,0,1,17.8,17.8V149A13.68,13.68,0,0,1,226.94,162.68ZM40.67,4A13.82,13.82,0,0,0,26.86,17.8V149a9.68,9.68,0,0,0,9.67,9.67H226.94A9.68,9.68,0,0,0,236.6,149V17.8A13.81,13.81,0,0,0,222.8,4Z"/><path class="cls-2" d="M2,45.7H215.74a0,0,0,0,1,0,0v147a11.66,11.66,0,0,1-11.66,11.66H13.66A11.66,11.66,0,0,1,2,192.71V45.7a0,0,0,0,1,0,0Z"/><path d="M204.07,206.38H13.67A13.68,13.68,0,0,1,0,192.71V43.7H217.74v149A13.68,13.68,0,0,1,204.07,206.38ZM4,47.7v145a9.68,9.68,0,0,0,9.67,9.67h190.4a9.68,9.68,0,0,0,9.67-9.67V47.7Z"/><path class="cls-3" d="M13.66,25H204.07a11.66,11.66,0,0,1,11.66,11.66v9a0,0,0,0,1,0,0H2a0,0,0,0,1,0,0v-9A11.66,11.66,0,0,1,13.66,25Z"/><path d="M215.74,47.7H2a2,2,0,0,1-2-2v-9A13.68,13.68,0,0,1,13.67,23h190.4a13.68,13.68,0,0,1,13.67,13.66v9A2,2,0,0,1,215.74,47.7ZM4,43.7H213.74v-7A9.68,9.68,0,0,0,204.07,27H13.67A9.68,9.68,0,0,0,4,36.67Z"/><path class="cls-3" d="M15,97.87a2,2,0,0,1-2-2V69.4a2,2,0,0,1,4,0V95.87A2,2,0,0,1,15,97.87Z"/><rect class="cls-3" x="40.03" y="161.15" width="61.13" height="20.46" rx="8.94" ry="8.94"/><path d="M92.22,183.6H49A11,11,0,0,1,38,172.66v-2.57A11,11,0,0,1,49,159.15H92.22a11,11,0,0,1,10.94,10.94v2.57A11,11,0,0,1,92.22,183.6ZM49,163.15A7,7,0,0,0,42,170.09v2.57A7,7,0,0,0,49,179.6H92.22a6.94,6.94,0,0,0,6.94-6.94v-2.57a6.94,6.94,0,0,0-6.94-6.94Z"/><path d="M167.72,183.6H124.47a11,11,0,0,1-10.94-10.94v-2.57a11,11,0,0,1,10.94-10.94h43.25a11,11,0,0,1,10.94,10.94v2.57A11,11,0,0,1,167.72,183.6Zm-43.25-20.45a7,7,0,0,0-6.94,6.94v2.57a7,7,0,0,0,6.94,6.94h43.25a7,7,0,0,0,6.94-6.94v-2.57a7,7,0,0,0-6.94-6.94Z"/><circle class="cls-4" cx="108.87" cy="102.55" r="37.08"/><path d="M108.87,141.63a39.08,39.08,0,1,1,39.07-39.08A39.12,39.12,0,0,1,108.87,141.63Zm0-74.15a35.08,35.08,0,1,0,35.07,35.07A35.12,35.12,0,0,0,108.87,67.48Z"/><path class="cls-3" d="M15,105.87h0a2,2,0,1,1,2-2A2,2,0,0,1,15,105.87Z"/><path class="cls-3" d="M228.41,88.22h-40a11.13,11.13,0,0,0-11.14,11.13V212.81a11.13,11.13,0,0,0,11.14,11.13H238.1a11.13,11.13,0,0,0,11.14-11.13V99.35A11.13,11.13,0,0,0,238.1,88.22Z"/><path d="M238.1,225.94H188.36a13.15,13.15,0,0,1-13.14-13.13V99.35a13.15,13.15,0,0,1,13.14-13.13H238.1a13.15,13.15,0,0,1,13.14,13.13V212.81A13.15,13.15,0,0,1,238.1,225.94ZM188.36,90.22a9.14,9.14,0,0,0-9.14,9.13V212.81a9.14,9.14,0,0,0,9.14,9.13H238.1a9.14,9.14,0,0,0,9.14-9.13V99.35a9.14,9.14,0,0,0-9.14-9.13Z"/><path class="cls-5" d="M228.41,88.22v6.72a2.81,2.81,0,0,1-2.81,2.81H200.86a2.8,2.8,0,0,1-2.8-2.81V88.22h-9.7a11.13,11.13,0,0,0-11.14,11.13V212.81a11.13,11.13,0,0,0,11.14,11.13H238.1a11.13,11.13,0,0,0,11.14-11.13V99.35A11.13,11.13,0,0,0,238.1,88.22Z"/><path d="M238.1,225.94H188.36a13.15,13.15,0,0,1-13.14-13.13V99.35a13.15,13.15,0,0,1,13.14-13.13h11.7v8.72a.8.8,0,0,0,.8.81H225.6a.81.81,0,0,0,.81-.81V86.22H238.1a13.15,13.15,0,0,1,13.14,13.13V212.81A13.15,13.15,0,0,1,238.1,225.94ZM188.36,90.22a9.14,9.14,0,0,0-9.14,9.13V212.81a9.14,9.14,0,0,0,9.14,9.13H238.1a9.14,9.14,0,0,0,9.14-9.13V99.35a9.14,9.14,0,0,0-9.14-9.13h-7.69v4.72a4.82,4.82,0,0,1-4.81,4.81H200.86a4.81,4.81,0,0,1-4.8-4.81V90.22Z"/><path class="cls-3" d="M238.59,121.61a2,2,0,0,1-2-2l-.15-17.87a2,2,0,0,1,2-2h0a2,2,0,0,1,2,2l.15,17.87a2,2,0,0,1-2,2Z"/><path class="cls-3" d="M238.6,130.56a2,2,0,0,1-2-2,2,2,0,0,1,2-2h0a2,2,0,0,1,0,4Z"/><circle class="cls-6" cx="213.23" cy="155.77" r="23.42"/><path d="M213.23,181.19a25.42,25.42,0,1,1,25.42-25.42A25.44,25.44,0,0,1,213.23,181.19Zm0-46.84a21.42,21.42,0,1,0,21.42,21.42A21.45,21.45,0,0,0,213.23,134.35Z"/><path class="cls-7" d="M229.74,194.69h-33a2,2,0,1,1,0-4h33a2,2,0,0,1,0,4Z"/><path class="cls-7" d="M229.74,207.47h-33a2,2,0,0,1,0-4h33a2,2,0,0,1,0,4Z"/></g></g></svg>