<svg xmlns="http://www.w3.org/2000/svg" xmlns:xlink="http://www.w3.org/1999/xlink" viewBox="0 0 514.61 306.97"><defs><style>.cls-1{fill:#d8dfe6;}.cls-2{fill:url(#linear-gradient);}.cls-3{fill:url(#linear-gradient-2);}.cls-4{fill:url(#linear-gradient-3);}.cls-5{fill:#fff;}.cls-6{fill:url(#linear-gradient-4);}.cls-7{fill:url(#linear-gradient-5);}.cls-8{fill:url(#linear-gradient-6);}.cls-9{fill:url(#linear-gradient-7);}</style><linearGradient id="linear-gradient" x1="336.06" y1="43.34" x2="194.56" y2="285.34" gradientUnits="userSpaceOnUse"><stop offset="0" stop-color="#1da5c9"/><stop offset="1" stop-color="#1d85db"/></linearGradient><linearGradient id="linear-gradient-2" x1="343.89" y1="125.19" x2="289.9" y2="288.68" xlink:href="#linear-gradient"/><linearGradient id="linear-gradient-3" x1="181.26" y1="222.39" x2="240.97" y2="222.39" gradientUnits="userSpaceOnUse"><stop offset="0" stop-color="#ebcd1c"/><stop offset="1" stop-color="#eb901c"/></linearGradient><linearGradient id="linear-gradient-4" x1="354.7" y1="121.04" x2="336.03" y2="206.37" xlink:href="#linear-gradient"/><linearGradient id="linear-gradient-5" x1="306.14" y1="10.32" x2="442.64" y2="133.32" xlink:href="#linear-gradient"/><linearGradient id="linear-gradient-6" x1="234.91" y1="24.42" x2="10.41" y2="140.92" xlink:href="#linear-gradient"/><linearGradient id="linear-gradient-7" x1="181.72" y1="116.63" x2="200.72" y2="225.63" xlink:href="#linear-gradient"/></defs><title>Asset 6</title><g id="Layer_2" data-name="Layer 2"><g id="Layer_1-2" data-name="Layer 1"><path class="cls-1" d="M514.61,274.19A32.78,32.78,0,0,1,481.83,307H43.48a32.75,32.75,0,1,1,.07-65.5H69.27a32.78,32.78,0,0,0,32.79-32.78v-.28a32.77,32.77,0,0,0-32.79-32.5H32.71a32.75,32.75,0,0,1,.07-65.5H471.21a32.75,32.75,0,0,1-.07,65.5h-36.7a32.77,32.77,0,0,0-32.79,32.71v.28a32.77,32.77,0,0,0,32.79,32.5H481.9A32.48,32.48,0,0,1,505,251,32.88,32.88,0,0,1,514.61,274.19Z"/><polygon class="cls-2" points="376.87 222.4 376.87 96.78 268.09 33.98 159.3 96.78 159.3 222.4 268.09 285.2 376.87 222.4"/><path d="M268.09,287.51l-110.79-64V95.63l110.79-64,110.78,64V223.55ZM161.3,221.24l106.79,61.65,106.78-61.65V97.94L268.09,36.29,161.3,97.94Z"/><polygon class="cls-3" points="376.87 222.4 376.87 96.78 268.09 157.68 268.09 285.2 376.87 222.4"/><path d="M266.09,288.66V156.51L378.87,93.37V223.55Zm4-129.81V281.74l104.78-60.5v-121Z"/><polygon class="cls-4" points="240.97 228.6 181.26 193.75 181.26 216.19 240.97 251.04 240.97 228.6"/><path d="M241,253a1.93,1.93,0,0,1-1-.28l-59.71-34.85a2,2,0,0,1-1-1.72V193.75a2,2,0,0,1,3-1.72L242,226.88a2,2,0,0,1,1,1.72V251a2,2,0,0,1-2,2Zm-57.71-38L239,247.55v-17.8l-55.71-32.51Z"/><polygon class="cls-5" points="376.87 96.78 268.09 33.98 159.3 96.78 268.09 159.59 376.87 96.78"/><path d="M268.09,162.09a2.4,2.4,0,0,1-1.25-.34L158.05,99a2.5,2.5,0,0,1,0-4.33L266.84,31.81a2.53,2.53,0,0,1,2.5,0L378.12,94.62a2.5,2.5,0,0,1,0,4.33l-108.78,62.8A2.45,2.45,0,0,1,268.09,162.09ZM164.3,96.78,268.09,156.7,371.87,96.78,268.09,36.86Z"/><polygon class="cls-6" points="431.26 128.45 322.48 191.25 268.09 159.59 376.87 96.78 431.26 128.45"/><path d="M322.47,193.57l-58.37-34L376.87,94.47l58.38,34Zm-50.4-34,50.41,29.34,104.79-60.5L376.87,99.1Z"/><polygon class="cls-7" points="431.26 65.12 322.48 2.31 268.09 33.98 376.87 96.78 431.26 65.12"/><path d="M376.87,99.1,264.1,34,322.47,0,435.25,65.11ZM272.07,34l104.8,60.5,50.4-29.34L322.48,4.62Z"/><polygon class="cls-8" points="104.91 65.12 213.69 2.31 268.09 33.98 159.3 96.78 104.91 65.12"/><path d="M159.3,99.1l-58.38-34L213.7,0l58.37,34Zm-50.4-34,50.41,29.34L264.1,34,213.69,4.62Z"/><polygon class="cls-9" points="104.91 128.45 213.69 191.25 268.09 159.59 159.3 96.78 104.91 128.45"/><path d="M213.7,193.57,100.92,128.46l58.38-34,112.77,65.11ZM108.9,128.44l104.79,60.5L264.1,159.6,159.31,99.1Z"/><path class="cls-5" d="M336.47,173a2,2,0,0,1-1-3.73l45.15-26.58a2,2,0,1,1,2,3.44L337.49,172.7A2,2,0,0,1,336.47,173Z"/></g></g></svg>