<svg xmlns="http://www.w3.org/2000/svg" xmlns:xlink="http://www.w3.org/1999/xlink" viewBox="0 0 651.99 406.84"><defs><style>.cls-1{fill:url(#linear-gradient);}.cls-2{fill:url(#linear-gradient-2);}.cls-3{fill:url(#linear-gradient-3);}.cls-4{fill:url(#linear-gradient-4);}.cls-5{fill:#fff;}.cls-6{fill:url(#linear-gradient-5);}.cls-7{fill:url(#linear-gradient-6);}.cls-8{fill:#226399;}.cls-9{fill:url(#linear-gradient-7);}.cls-10{fill:url(#linear-gradient-8);}.cls-11{fill:url(#linear-gradient-9);}.cls-12{fill:url(#linear-gradient-10);}.cls-13{fill:url(#linear-gradient-11);}.cls-14{fill:url(#linear-gradient-12);}.cls-15{fill:url(#linear-gradient-13);}.cls-16{fill:url(#linear-gradient-14);}</style><linearGradient id="linear-gradient" x1="272.94" y1="131.34" x2="336.61" y2="131.34" gradientUnits="userSpaceOnUse"><stop offset="0" stop-color="#ebcd1c"/><stop offset="1" stop-color="#eb901c"/></linearGradient><linearGradient id="linear-gradient-2" x1="269.15" y1="143.1" x2="340.4" y2="143.1" gradientUnits="userSpaceOnUse"><stop offset="0" stop-color="#ed467b"/><stop offset="1" stop-color="#ff776f"/></linearGradient><linearGradient id="linear-gradient-3" x1="356.63" y1="303.11" x2="296.51" y2="363.03" gradientUnits="userSpaceOnUse"><stop offset="0" stop-color="#1da5c9"/><stop offset="1" stop-color="#1d85db"/></linearGradient><linearGradient id="linear-gradient-4" x1="234.53" y1="184.25" x2="376.19" y2="184.25" xlink:href="#linear-gradient"/><linearGradient id="linear-gradient-5" x1="370.69" y1="11.39" x2="356.69" y2="98.72" gradientTransform="translate(-1.81 70.84) rotate(-11.05)" xlink:href="#linear-gradient-3"/><linearGradient id="linear-gradient-6" x1="242.24" y1="119.95" x2="270.01" y2="119.95" gradientTransform="matrix(0.98, 0.19, 0.19, -0.98, 64.71, 115.31)" xlink:href="#linear-gradient"/><linearGradient id="linear-gradient-7" x1="192.4" y1="29.44" x2="242.4" y2="106.78" gradientTransform="translate(72.65 -109.11) rotate(33.95)" xlink:href="#linear-gradient-3"/><linearGradient id="linear-gradient-8" x1="80.6" y1="253.56" x2="117.26" y2="412.89" gradientTransform="translate(100.16 -13.99) rotate(17.75)" xlink:href="#linear-gradient-3"/><linearGradient id="linear-gradient-9" x1="558.63" y1="187.6" x2="516.63" y2="384.94" gradientTransform="translate(-69.3 264.36) rotate(-26.03)" xlink:href="#linear-gradient-3"/><linearGradient id="linear-gradient-10" x1="525.57" y1="-132.01" x2="484.71" y2="-42.42" gradientTransform="translate(51.7 120.56) rotate(26.03)" xlink:href="#linear-gradient"/><linearGradient id="linear-gradient-11" x1="96.39" y1="306.96" x2="85.89" y2="350.71" xlink:href="#linear-gradient"/><linearGradient id="linear-gradient-12" x1="92.17" y1="290.11" x2="86.34" y2="312.61" xlink:href="#linear-gradient-3"/><linearGradient id="linear-gradient-13" x1="217.49" y1="59.33" x2="208.79" y2="95.57" gradientTransform="translate(-10.64 63.36) rotate(-16.36)" xlink:href="#linear-gradient"/><linearGradient id="linear-gradient-14" x1="213.99" y1="45.37" x2="209.16" y2="64.01" gradientTransform="translate(-10.64 63.36) rotate(-16.36)" xlink:href="#linear-gradient-3"/></defs><title>Asset 11</title><g id="Layer_2" data-name="Layer 2"><g id="Layer_1-2" data-name="Layer 1"><circle class="cls-1" cx="304.77" cy="131.34" r="31.83"/><path d="M304.77,165.67a34.34,34.34,0,1,1,34.34-34.33A34.37,34.37,0,0,1,304.77,165.67Zm0-63.67a29.34,29.34,0,1,0,29.34,29.34A29.37,29.37,0,0,0,304.77,102Z"/><path class="cls-2" d="M304.77,167.06a35.63,35.63,0,0,0,35.63-35.63,36.64,36.64,0,0,0-.3-4.6,81.91,81.91,0,0,0-70.74.69,36,36,0,0,0-.21,3.91A35.63,35.63,0,0,0,304.77,167.06Z"/><path d="M304.77,169.06a37.67,37.67,0,0,1-37.62-37.63,36.49,36.49,0,0,1,.23-4.13l.11-1.09,1-.48A83.88,83.88,0,0,1,341,125l1,.46.14,1.09a39,39,0,0,1,.32,4.86A37.67,37.67,0,0,1,304.77,169.06Zm-33.52-40.23c-.07.88-.1,1.75-.1,2.6a33.63,33.63,0,1,0,67.25,0c0-1.05,0-2.15-.16-3.26a79.94,79.94,0,0,0-67,.66Z"/><path class="cls-3" d="M392.38,356.92c0-31.36-36.13-56.79-80.7-56.79S231,325.56,231,356.92Z"/><path d="M394.88,359.42H228.49v-2.5c0-32.69,37.32-59.29,83.2-59.29s83.19,26.6,83.19,59.29Zm-161.31-5H389.8c-1.89-28.78-36.2-51.79-78.11-51.79S235.46,325.64,233.57,354.42Z"/><path class="cls-4" d="M376.19,202.19v32.16H234.68s-.15-11.41-.15-32.16c0-37.74,31.71-68.34,70.83-68.34S376.19,164.45,376.19,202.19Z"/><path d="M376.19,237.14a2.56,2.56,0,0,1-1.17-.29H234.68a2.5,2.5,0,0,1-2.5-2.47c0-.11-.15-11.66-.15-32.19,0-39.06,32.89-70.84,73.33-70.84s73.33,31.78,73.33,70.84v32.45A2.5,2.5,0,0,1,376.19,237.14Zm-139-5.29H373.69V202.19c0-36.3-30.65-65.84-68.33-65.84S237,165.89,237,202.19C237,217.23,237.11,227.44,237.15,231.85Z"/><rect class="cls-5" x="229.2" y="214.3" width="27.87" height="29.87" rx="13.93" ry="13.93"/><path d="M243.13,246.68a16.46,16.46,0,0,1-16.43-16.44v-2a16.44,16.44,0,1,1,32.87,0v2A16.47,16.47,0,0,1,243.13,246.68Zm0-29.88a11.45,11.45,0,0,0-11.43,11.44v2a11.44,11.44,0,1,0,22.87,0v-2A11.45,11.45,0,0,0,243.13,216.8Z"/><rect class="cls-5" x="357.79" y="214.3" width="27.87" height="29.87" rx="13.93" ry="13.93"/><path d="M371.72,246.68a16.46,16.46,0,0,1-16.43-16.44v-2a16.43,16.43,0,1,1,32.86,0v2A16.46,16.46,0,0,1,371.72,246.68Zm0-29.88a11.45,11.45,0,0,0-11.43,11.44v2a11.43,11.43,0,1,0,22.86,0v-2A11.44,11.44,0,0,0,371.72,216.8Z"/><path class="cls-5" d="M307.24,281c-16,0-61.52-18-61.52-49.57V205.85a8.49,8.49,0,0,1,8-8.23l6.6-.44a88.56,88.56,0,0,0,44.6-15.65l2.33-1.62h0a88.69,88.69,0,0,0,46.42,17l7.29.5a8.3,8.3,0,0,1,7.81,8.06v25.91C368.76,262.94,323.21,281,307.24,281Z"/><path d="M307.24,283.45c-8.42,0-24.21-4.58-38.08-13.33-11.83-7.47-25.94-20.25-25.94-38.74V205.83a11,11,0,0,1,10.33-10.7l6.59-.45a86.07,86.07,0,0,0,43.34-15.21l3.8-2.64,1.44,1.06a85.94,85.94,0,0,0,45.11,16.52l7.29.5a10.82,10.82,0,0,1,10.14,10.54v25.93c0,18.48-14.1,31.27-25.94,38.74C331.45,278.87,315.67,283.45,307.24,283.45Zm0-100.48-.88.61a91,91,0,0,1-45.86,16.09l-6.6.45a6,6,0,0,0-5.66,5.75v25.51c0,16.21,12.84,27.71,23.61,34.51,12.93,8.16,27.9,12.56,35.41,12.56s22.49-4.4,35.42-12.56c10.76-6.8,23.6-18.3,23.6-34.51V205.56a5.8,5.8,0,0,0-5.48-5.66l-7.29-.5A90.86,90.86,0,0,1,307.22,183Z"/><rect class="cls-6" x="311.01" y="10.55" width="108.65" height="68.48" rx="10" ry="10" transform="translate(15.35 -69.18) rotate(11.05)"/><path d="M404.2,89.58a12.21,12.21,0,0,1-2.4-.24l-87-17a12.51,12.51,0,0,1-9.87-14.66l9.29-47.58A12.52,12.52,0,0,1,328.87.23l87,17a12.51,12.51,0,0,1,9.87,14.66l-9.29,47.59A12.56,12.56,0,0,1,404.2,89.58ZM326.48,5a7.53,7.53,0,0,0-7.36,6.06l-9.29,47.59a7.5,7.5,0,0,0,5.92,8.8l87,17a7.53,7.53,0,0,0,8.8-5.92l9.29-47.58a7.51,7.51,0,0,0-5.93-8.8l-87-17A7.62,7.62,0,0,0,326.48,5Z"/><circle class="cls-7" cx="339.07" cy="46.66" r="13.88"/><path d="M339.08,63.05a16.39,16.39,0,1,1,3.13-32.47A16.39,16.39,0,0,1,355.15,49.8h0A16.4,16.4,0,0,1,339.08,63.05Zm0-27.77a11.39,11.39,0,0,0-2.16,22.56,11.41,11.41,0,0,0,13.36-9h0a11.39,11.39,0,0,0-9-13.35A11.89,11.89,0,0,0,339.05,35.28Zm13.65,14h0Z"/><path class="cls-8" d="M407.11,52l-.38,0L365.51,43.9a2,2,0,0,1,.77-3.93L407.49,48a2,2,0,0,1-.38,4Z"/><path class="cls-8" d="M409.77,38.37a1.64,1.64,0,0,1-.38,0l-41.22-8a2,2,0,1,1,.76-3.92l41.22,8a2,2,0,0,1-.38,4Z"/><rect class="cls-9" x="160.7" y="30.2" width="108.65" height="68.48" rx="10" ry="10" transform="matrix(0.83, -0.56, 0.56, 0.83, 0.67, 131.08)"/><path d="M191.82,121.8a12.5,12.5,0,0,1-10.39-5.51L154.35,76.07a12.51,12.51,0,0,1,3.39-17.35L231.28,9.21a12.53,12.53,0,0,1,17.35,3.38l27.08,40.22a12.53,12.53,0,0,1-3.39,17.35l-73.54,49.51A12.42,12.42,0,0,1,191.82,121.8ZM238.23,12.08a7.46,7.46,0,0,0-4.16,1.27L160.53,62.87a7.51,7.51,0,0,0-2,10.41l27.08,40.21a7.52,7.52,0,0,0,10.41,2L269.53,66a7.52,7.52,0,0,0,2-10.41L244.48,15.39a7.65,7.65,0,0,0-6.25-3.31Z"/><path class="cls-10" d="M17.32,259.17H172.4a0,0,0,0,1,0,0v98.58A10.43,10.43,0,0,1,162,368.17H27.74a10.43,10.43,0,0,1-10.43-10.43V259.17A0,0,0,0,1,17.32,259.17Z" transform="translate(-91.12 43.86) rotate(-17.75)"/><path d="M44.39,389a12.94,12.94,0,0,1-12.32-9L1.25,283.79,153.71,235l30.82,96.27a12.94,12.94,0,0,1-8.37,16.25L48.32,388.42A12.84,12.84,0,0,1,44.39,389ZM7.54,287l29.29,91.5a7.92,7.92,0,0,0,10,5.13l127.85-40.93a7.92,7.92,0,0,0,5.13-10l-29.3-91.5Z"/><path class="cls-5" d="M137.68,227.11,9.84,268A10.49,10.49,0,0,0,3,281.16l1.4,4.25,147.7-47.28-1.3-4.27A10.42,10.42,0,0,0,137.68,227.11Z"/><path d="M2.79,288.55.62,281.94a12.74,12.74,0,0,1,.87-9.9,13,13,0,0,1,7.58-6.39l127.85-40.92a13,13,0,0,1,16.25,8.37l2,6.65Zm138.06-59.44a7.77,7.77,0,0,0-2.41.38L10.6,270.42a8.06,8.06,0,0,0-4.69,3.94,7.81,7.81,0,0,0-.54,6L6,282.27,149,236.5l-.58-1.91A7.92,7.92,0,0,0,140.85,229.11Z"/><path class="cls-8" d="M108.46,277.08a2,2,0,0,1-.61-3.91L121,269a2,2,0,0,1,1.22,3.81L109.07,277A1.86,1.86,0,0,1,108.46,277.08Z"/><path class="cls-8" d="M125.85,286a2,2,0,0,1-1.9-1.39l-4.22-13.17a2,2,0,1,1,3.81-1.22l4.22,13.17a2,2,0,0,1-1.3,2.52A2.1,2.1,0,0,1,125.85,286Z"/><path class="cls-8" d="M141.39,334.55a2,2,0,0,1-1.91-1.39L135.26,320a2,2,0,0,1,3.81-1.22l4.22,13.18a2,2,0,0,1-1.3,2.51A1.8,1.8,0,0,1,141.39,334.55Z"/><path class="cls-8" d="M128.21,338.76a2,2,0,0,1-.61-3.9l13.18-4.22a2,2,0,1,1,1.21,3.81l-13.17,4.22A2.15,2.15,0,0,1,128.21,338.76Z"/><path class="cls-8" d="M68.58,357.86A2,2,0,0,1,68,354l13.17-4.22a2,2,0,1,1,1.22,3.81l-13.17,4.22A1.86,1.86,0,0,1,68.58,357.86Z"/><path class="cls-8" d="M68.58,357.86a2,2,0,0,1-1.91-1.39l-4.21-13.18a2,2,0,0,1,3.8-1.22l4.22,13.18a2,2,0,0,1-1.29,2.51A1.86,1.86,0,0,1,68.58,357.86Z"/><path class="cls-8" d="M53.05,309.34A2,2,0,0,1,51.14,308l-4.22-13.17a2,2,0,1,1,3.81-1.22L55,306.73a2,2,0,0,1-1.29,2.52A2.2,2.2,0,0,1,53.05,309.34Z"/><path class="cls-8" d="M48.83,296.17a2,2,0,0,1-.61-3.91l13.17-4.21a2,2,0,1,1,1.22,3.81l-13.17,4.21A1.86,1.86,0,0,1,48.83,296.17Z"/><path class="cls-11" d="M451.6,209.33H622.9a0,0,0,0,1,0,0V343.18a11.66,11.66,0,0,1-11.66,11.66h-148a11.66,11.66,0,0,1-11.66-11.66V209.33a0,0,0,0,1,0,0Z" transform="translate(178.27 -207.14) rotate(26.03)"/><path d="M576.92,383.62a14.13,14.13,0,0,1-6.21-1.44l-133-64.93a14.17,14.17,0,0,1-6.51-18.95l59.83-122.52,158.43,77.37L589.66,375.67a14.18,14.18,0,0,1-12.74,7.95ZM493.36,182.47l-57.64,118a9.15,9.15,0,0,0,4.22,12.25l133,64.94a9.17,9.17,0,0,0,12.25-4.22l57.64-118Z"/><circle class="cls-12" cx="548.47" cy="260.08" r="29.71"/><path d="M548.41,292.29a32.21,32.21,0,1,1,29-18.07h0A32.25,32.25,0,0,1,548.41,292.29Zm.08-59.44a27.43,27.43,0,0,0-8.87,1.49A27.22,27.22,0,1,0,572.92,272h0a27.25,27.25,0,0,0-24.43-39.17Zm26.68,40.27h0Z"/><path class="cls-5" d="M498.83,201h148a11.66,11.66,0,0,1,11.66,11.66v4.92a0,0,0,0,1,0,0H487.16a0,0,0,0,1,0,0v-4.92A11.66,11.66,0,0,1,498.83,201Z" transform="translate(149.92 -230.14) rotate(26.03)"/><path d="M646.14,256.8a2.46,2.46,0,0,1-1.09-.26L491.12,181.37A2.48,2.48,0,0,1,490,178l2.15-4.42a14.18,14.18,0,0,1,18.95-6.51L644,232A14.15,14.15,0,0,1,650.55,251l-2.16,4.42a2.48,2.48,0,0,1-1.43,1.27A2.57,2.57,0,0,1,646.14,256.8ZM495.56,178,645,251l1.07-2.17a9.17,9.17,0,0,0-4.22-12.26l-133-64.93a9.16,9.16,0,0,0-12.25,4.21Z"/><path class="cls-5" d="M479.06,231.75a2.5,2.5,0,0,1-2.25-3.6l9.31-19.06a2.5,2.5,0,1,1,4.49,2.2l-9.31,19.06A2.48,2.48,0,0,1,479.06,231.75Z"/><path class="cls-5" d="M474.25,240.52a2.62,2.62,0,0,1-1-.21h0a2.49,2.49,0,1,1,1,.22Z"/><path class="cls-8" d="M558.91,317.33a2.48,2.48,0,0,1-1.09-.25l-60.05-29.33a2.5,2.5,0,1,1,2.19-4.49L560,312.58a2.5,2.5,0,0,1-1.1,4.75Z"/><path class="cls-8" d="M554.5,326.36a2.39,2.39,0,0,1-1.09-.26l-60-29.32a2.5,2.5,0,1,1,2.19-4.49l60.05,29.32a2.5,2.5,0,0,1-1.1,4.75Z"/><path class="cls-5" d="M512.83,334.84a2.51,2.51,0,0,1-2.2-1.3l-4.58-8.4a2.5,2.5,0,1,1,4.39-2.39l3.73,6.83,7.44-1.21a2.5,2.5,0,1,1,.81,4.93l-9.19,1.51A2.69,2.69,0,0,1,512.83,334.84Z"/><path class="cls-5" d="M603,372.14,581.5,351a4.33,4.33,0,0,0-7.22,2l-7.53,29.19a4.33,4.33,0,0,0,5.36,5.25l7.15-2,4.66,16.74a2.87,2.87,0,0,0,3.54,2l9.2-2.56a2.87,2.87,0,0,0,2-3.54L594,381.39l7.16-2A4.33,4.33,0,0,0,603,372.14Z"/><path d="M586.69,406.84a5.39,5.39,0,0,1-5.18-3.94l-4-14.33-4.74,1.32a6.83,6.83,0,0,1-8.45-8.28l7.53-29.19a6.82,6.82,0,0,1,11.39-3.17l21.52,21.11h0a6.83,6.83,0,0,1-2.95,11.45l-4.75,1.32,4,14.33a5.39,5.39,0,0,1-3.73,6.62l-9.2,2.56A5.55,5.55,0,0,1,586.69,406.84ZM579.26,383a2.51,2.51,0,0,1,2.41,1.83l4.66,16.74a.37.37,0,0,0,.46.26l9.2-2.56a.37.37,0,0,0,.25-.46l-4.65-16.74a2.5,2.5,0,0,1,1.73-3.08l7.16-2a1.82,1.82,0,0,0,.79-3.06l-21.53-21.11a1.82,1.82,0,0,0-3,.84l-7.52,29.2a1.81,1.81,0,0,0,2.26,2.21l7.15-2A2.57,2.57,0,0,1,579.26,383Z"/><path d="M48,231.87a4,4,0,0,1-4-4h0a4,4,0,0,1,4-4h0a4,4,0,0,1,4,4h0a4,4,0,0,1-4,4h0Zm.16-20a4,4,0,0,1-3.83-4.16h0a4,4,0,0,1,4.17-3.83h0A4,4,0,0,1,52.29,208h0a4,4,0,0,1-4,3.84h-.16Zm1.57-19.93a4,4,0,0,1-3.08-4.74h0a4,4,0,0,1,4.74-3.08h0a4,4,0,0,1,3.08,4.74h0a4,4,0,0,1-3.9,3.17h0A4,4,0,0,1,49.7,191.93ZM206.12,181h0a4,4,0,0,1,.68-5.61h0a4,4,0,0,1,5.62.68h0a4,4,0,0,1-.68,5.62h0a4,4,0,0,1-2.47.85h0A4,4,0,0,1,206.12,181Zm-150.64-8.2A4,4,0,0,1,54,167.38h0a4,4,0,0,1,5.47-1.46h0a4,4,0,0,1,1.46,5.46h0a4,4,0,0,1-3.47,2h0A3.9,3.9,0,0,1,55.48,172.84Zm137.68-6.35a4,4,0,0,1,0-5.66h0a4,4,0,0,1,5.66,0h0a4,4,0,0,1,0,5.65h0a3.94,3.94,0,0,1-2.84,1.19h0A4,4,0,0,1,193.16,166.49Zm-125.93-9.7a4,4,0,0,1,.45-5.64h0a4,4,0,0,1,5.64.45h0a4,4,0,0,1-.45,5.64h0a4,4,0,0,1-2.59,1h0A4,4,0,0,1,67.23,156.79Zm111.2-2.94a4,4,0,0,1-.86-5.59h0a4,4,0,0,1,5.6-.86h0A4,4,0,0,1,184,153h0a4,4,0,0,1-3.23,1.63h0A4,4,0,0,1,178.43,153.85Zm-95-8.74a4,4,0,0,1,1.76-5.37h0a4,4,0,0,1,5.38,1.75h0a4,4,0,0,1-1.76,5.38h0a3.92,3.92,0,0,1-1.81.43h0A4,4,0,0,1,83.39,145.11ZM162,143.88a4,4,0,0,1-1.87-5.34h0a4,4,0,0,1,5.34-1.87h0a4,4,0,0,1,1.87,5.34h0a4,4,0,0,1-3.6,2.26h0A4,4,0,0,1,162,143.88Zm-60.38-7a4,4,0,0,1,2.59-5h0a4,4,0,0,1,5,2.59h0a4,4,0,0,1-2.59,5h0a3.93,3.93,0,0,1-1.22.19h0A4,4,0,0,1,101.6,136.92Zm42.43.68a4,4,0,0,1-3.05-4.76h0a4,4,0,0,1,4.76-3.05h0a4,4,0,0,1,3,4.76h0a4,4,0,0,1-3.9,3.15h0A3.61,3.61,0,0,1,144,137.6Zm-23-5.34a4,4,0,0,1,3.79-4.21h0a4,4,0,0,1,4.2,3.79h0a4,4,0,0,1-3.78,4.2H125A4,4,0,0,1,121,132.26Z"/><path d="M567,169.32a4,4,0,0,1,2.8-4.92h0a4,4,0,0,1,4.92,2.8h0a4,4,0,0,1-2.8,4.91h0a3.93,3.93,0,0,1-1.06.15h0A4,4,0,0,1,567,169.32ZM560.66,151a4,4,0,0,1,2.08-5.26h0a4,4,0,0,1,5.26,2.08h0a4,4,0,0,1-2.08,5.26h0a4,4,0,0,1-1.58.33h0A4,4,0,0,1,560.66,151Zm-145.75-7.89a4,4,0,0,1-.87-5.59h0a4,4,0,0,1,5.59-.87h0a4,4,0,0,1,.87,5.59h0a4,4,0,0,1-3.23,1.64h0A4,4,0,0,1,414.91,143.08Zm136.44-8.77a4,4,0,0,1,.9-5.58h0a4,4,0,0,1,5.58.9h0a4,4,0,0,1-.9,5.58h0a4,4,0,0,1-2.34.76h0A4,4,0,0,1,551.35,134.31Zm-123.18-6.22a4,4,0,0,1,.37-5.64h0a4,4,0,0,1,5.64.37h0a4,4,0,0,1-.36,5.64h0a4,4,0,0,1-2.63,1h0A4,4,0,0,1,428.17,128.09Zm110.19-7.37a4,4,0,0,1-.68-5.61h0a4,4,0,0,1,5.61-.68h0A4,4,0,0,1,544,120h0a4,4,0,0,1-3.15,1.54h0A4,4,0,0,1,538.36,120.72Zm-94.55-5.11a4,4,0,0,1,1.28-5.5h0a4,4,0,0,1,5.5,1.28h0a4,4,0,0,1-1.28,5.51h0a4,4,0,0,1-2.11.6h0A4,4,0,0,1,443.81,115.61Zm78.24-4.33a4,4,0,0,1-2.15-5.23h0a4,4,0,0,1,5.23-2.15h0a4,4,0,0,1,2.15,5.23h0a4,4,0,0,1-3.69,2.46h0A4,4,0,0,1,522.05,111.28Zm-60.68-5.22a4,4,0,0,1,2.41-5.12h0a4,4,0,0,1,5.12,2.4h0a4,4,0,0,1-2.41,5.12h0a4,4,0,0,1-1.36.24h0A4,4,0,0,1,461.37,106.06Zm42.32-.26a4,4,0,0,1-3.14-4.71h0A4,4,0,0,1,505.27,98h0a4,4,0,0,1,3.13,4.72h0a4,4,0,0,1-3.92,3.21h0A4.23,4.23,0,0,1,503.69,105.8Zm-23.08-5.08a4,4,0,0,1,3.69-4.29h0a4,4,0,0,1,4.29,3.68h0a4,4,0,0,1-3.68,4.3h-.31A4,4,0,0,1,480.61,100.72Z"/><path class="cls-5" d="M348.49,321.1V306.38a105.16,105.16,0,0,0-20.75-5.13v20.3a9.55,9.55,0,0,1-9.56,9.55H296.3a9.55,9.55,0,0,1-9.56-9.55V302.91a97.6,97.6,0,0,0-20.75,7.2v46.81h82.5V321.1Z"/><path d="M351,359.42h-87.5V308.55l1.41-.69a100.2,100.2,0,0,1,21.29-7.39l3.05-.7v21.78a7.06,7.06,0,0,0,7.06,7.05h21.89a7.05,7.05,0,0,0,7.05-7.05V298.37l2.85.41A106.53,106.53,0,0,1,349.34,304l1.65.6Zm-82.5-5H346V308.16a101.15,101.15,0,0,0-15.75-4v17.37a12.06,12.06,0,0,1-12.05,12.05H296.3a12.06,12.06,0,0,1-12.06-12.05V306.09a95.26,95.26,0,0,0-15.75,5.61Z"/><polygon class="cls-13" points="125.55 319.87 115.86 290.03 85.17 283.5 64.17 306.81 73.86 336.65 104.55 343.18 125.55 319.87"/><path d="M104.55,345.18a1.84,1.84,0,0,1-.41,0l-30.69-6.53A2,2,0,0,1,72,337.27l-9.69-29.84a2,2,0,0,1,.41-2l21-23.31a2,2,0,0,1,1.9-.62l30.69,6.53a2,2,0,0,1,1.49,1.34l9.69,29.84a2,2,0,0,1-.41,2l-21,23.31A2,2,0,0,1,104.55,345.18ZM75.41,334.94,103.84,341l19.45-21.6-9-27.65-28.43-6.05-19.45,21.6Z"/><polygon class="cls-14" points="115.86 290.03 85.17 283.5 64.17 306.81 94.86 313.34 115.86 290.03"/><path d="M94.86,315.34a2,2,0,0,1-.42,0l-30.69-6.53a2,2,0,0,1-1.07-3.3l21-23.31a2,2,0,0,1,1.9-.62l30.69,6.53a2,2,0,0,1,1.07,3.3l-21,23.31A2,2,0,0,1,94.86,315.34ZM68,305.58l26.17,5.56,17.9-19.88-26.17-5.57Z"/><polygon class="cls-5" points="104.55 343.18 94.86 313.34 115.86 290.03 125.55 319.87 104.55 343.18"/><path d="M104.55,345.18a1.84,1.84,0,0,1-.41,0,2,2,0,0,1-1.49-1.34L93,314a2,2,0,0,1,.41-2l21-23.31a2,2,0,0,1,3.39.72l9.69,29.84a2,2,0,0,1-.41,2l-21,23.31A2,2,0,0,1,104.55,345.18Zm-7.43-31.36,8.26,25.45,17.91-19.88L115,293.94Z"/><polygon class="cls-15" points="240.94 62.47 226.28 41.01 200.36 42.98 189.12 66.41 203.78 87.87 229.69 85.89 240.94 62.47"/><path d="M203.78,89.87a2,2,0,0,1-1.65-.87L187.46,67.54a2,2,0,0,1-.15-2l11.25-23.43A2,2,0,0,1,200.21,41l25.92-2a2,2,0,0,1,1.8.86l14.66,21.46a2,2,0,0,1,.15,2L231.5,86.76a2,2,0,0,1-1.65,1.13l-25.92,2ZM191.42,66.24l13.36,19.55L228.39,84l10.25-21.35L225.28,43.09l-23.61,1.8Z"/><polygon class="cls-16" points="226.28 41.01 200.36 42.98 189.12 66.41 215.03 64.44 226.28 41.01"/><path d="M189.11,68.41a2,2,0,0,1-1.8-2.86l11.25-23.43A2,2,0,0,1,200.21,41l25.92-2a2,2,0,0,1,1.8.86,2,2,0,0,1,.15,2L216.83,65.31a2,2,0,0,1-1.65,1.12l-25.91,2Zm12.56-23.52-9.25,19.26,21.31-1.62L223,43.27Z"/><polygon class="cls-5" points="229.69 85.89 215.03 64.44 226.28 41.01 240.94 62.47 229.69 85.89"/><path d="M229.69,87.89A2,2,0,0,1,228,87L213.38,65.57a2,2,0,0,1-.15-2l11.24-23.42a2,2,0,0,1,3.46-.27l14.66,21.46a2,2,0,0,1,.15,2L231.5,86.76a2,2,0,0,1-1.65,1.13ZM217.33,64.26l12.06,17.65,9.25-19.27L226.58,45Z"/></g></g></svg>