<svg xmlns="http://www.w3.org/2000/svg" xmlns:xlink="http://www.w3.org/1999/xlink" viewBox="0 0 241.46 215.28"><defs><style>.cls-1{fill:#fff;}.cls-2{fill:url(#linear-gradient);}.cls-3{fill:url(#linear-gradient-2);}.cls-4{fill:#226399;}.cls-5{fill:url(#linear-gradient-3);}.cls-6{fill:url(#linear-gradient-4);}</style><linearGradient id="linear-gradient" x1="177.87" y1="8.89" x2="36.54" y2="201.56" gradientUnits="userSpaceOnUse"><stop offset="0" stop-color="#1da5c9"/><stop offset="1" stop-color="#1d85db"/></linearGradient><linearGradient id="linear-gradient-2" x1="86.16" y1="53.91" x2="43.66" y2="145.41" gradientUnits="userSpaceOnUse"><stop offset="0" stop-color="#ebcd1c"/><stop offset="1" stop-color="#eb901c"/></linearGradient><linearGradient id="linear-gradient-3" x1="220.27" y1="94.09" x2="170.27" y2="246.76" xlink:href="#linear-gradient"/><linearGradient id="linear-gradient-4" x1="218.34" y1="114.36" x2="182.67" y2="174.36" xlink:href="#linear-gradient-2"/></defs><title>Asset 9</title><g id="Layer_2" data-name="Layer 2"><g id="Layer_1-2" data-name="Layer 1"><path class="cls-1" d="M120.73,146.24a2,2,0,0,1-2-2v-27a2,2,0,0,1,4,0v27A2,2,0,0,1,120.73,146.24Z"/><path class="cls-1" d="M120.74,154.41h0a2,2,0,1,1,2-2A2,2,0,0,1,120.73,154.41Z"/><path class="cls-2" d="M2,23.1H219.95a0,0,0,0,1,0,0V173.24a11.66,11.66,0,0,1-11.66,11.66H13.66A11.66,11.66,0,0,1,2,173.24V23.1a0,0,0,0,1,0,0Z"/><path d="M208.29,186.9H13.67A13.68,13.68,0,0,1,0,173.24V21.1H222V173.24A13.68,13.68,0,0,1,208.29,186.9ZM4,25.1V173.24a9.68,9.68,0,0,0,9.67,9.66H208.29a9.67,9.67,0,0,0,9.66-9.66V25.1Z"/><path d="M83.65,93.73h-4V84.44a16.81,16.81,0,0,0-33.62,0v9.29H42V84.44a20.81,20.81,0,0,1,41.62,0Z"/><path class="cls-1" d="M13.66,2H208.29a11.66,11.66,0,0,1,11.66,11.66V23.1a0,0,0,0,1,0,0H2a0,0,0,0,1,0,0V13.67A11.66,11.66,0,0,1,13.66,2Z"/><path d="M220,25.1H2a2,2,0,0,1-2-2V13.67A13.68,13.68,0,0,1,13.67,0H208.29A13.68,13.68,0,0,1,222,13.67V23.1A2,2,0,0,1,220,25.1ZM4,21.1H218V13.67A9.68,9.68,0,0,0,208.29,4H13.67A9.68,9.68,0,0,0,4,13.67Z"/><path class="cls-3" d="M81.5,132.1H44.18a7.93,7.93,0,0,1-7.9-7.21L33,89.26H92.66l-3.27,35.63A7.92,7.92,0,0,1,81.5,132.1Z"/><path d="M81.5,134.1H44.18a9.88,9.88,0,0,1-9.89-9L31,89.45a2,2,0,0,1,.51-1.53A2,2,0,0,1,33,87.27H92.66a2,2,0,0,1,2,2.18l-3.27,35.63A9.88,9.88,0,0,1,81.5,134.1ZM35.21,91.27l3.06,33.44a5.92,5.92,0,0,0,5.91,5.39H81.5a5.9,5.9,0,0,0,5.9-5.39l3.07-33.44Z"/><path class="cls-4" d="M181.26,107H122.75a2.5,2.5,0,0,1,0-5h58.51a2.5,2.5,0,0,1,0,5Z"/><path class="cls-4" d="M144.84,121.75H122.75a2.5,2.5,0,0,1,0-5h22.09a2.5,2.5,0,1,1,0,5Z"/><path class="cls-4" d="M181.26,91.77H122.75a2.5,2.5,0,0,1,0-5h58.51a2.5,2.5,0,0,1,0,5Z"/><path class="cls-4" d="M181.26,76.57H122.75a2.5,2.5,0,0,1,0-5h58.51a2.5,2.5,0,0,1,0,5Z"/><path class="cls-1" d="M17.66,160.42a2,2,0,0,1-2-2v-27a2,2,0,0,1,4,0v27A2,2,0,0,1,17.66,160.42Z"/><path class="cls-1" d="M17.68,168.59h0a2,2,0,1,1,2-2A2,2,0,0,1,17.66,168.59Z"/><path class="cls-1" d="M218.63,77.56h-40a11.13,11.13,0,0,0-11.13,11.13V202.15a11.13,11.13,0,0,0,11.13,11.13h49.75a11.13,11.13,0,0,0,11.13-11.13V88.69a11.13,11.13,0,0,0-11.13-11.13Z"/><path d="M228.33,215.28H178.58a13.14,13.14,0,0,1-13.13-13.13V88.69a13.14,13.14,0,0,1,13.13-13.13h49.75a13.14,13.14,0,0,1,13.13,13.13V202.15A13.14,13.14,0,0,1,228.33,215.28ZM178.58,79.56a9.14,9.14,0,0,0-9.13,9.13V202.15a9.14,9.14,0,0,0,9.13,9.13h49.75a9.13,9.13,0,0,0,9.13-9.13V88.69a9.13,9.13,0,0,0-9.13-9.13Z"/><path class="cls-5" d="M218.63,77.56v6.72a2.8,2.8,0,0,1-2.8,2.81H191.09a2.81,2.81,0,0,1-2.81-2.81V77.56h-9.7a11.13,11.13,0,0,0-11.13,11.13V202.15a11.13,11.13,0,0,0,11.13,11.13h49.75a11.13,11.13,0,0,0,11.13-11.13V88.69a11.13,11.13,0,0,0-11.13-11.13Z"/><path d="M228.33,215.28H178.58a13.14,13.14,0,0,1-13.13-13.13V88.69a13.14,13.14,0,0,1,13.13-13.13h11.7v8.72a.8.8,0,0,0,.8.81h24.75a.8.8,0,0,0,.8-.81V75.56h11.7a13.14,13.14,0,0,1,13.13,13.13V202.15A13.14,13.14,0,0,1,228.33,215.28ZM178.58,79.56a9.14,9.14,0,0,0-9.13,9.13V202.15a9.14,9.14,0,0,0,9.13,9.13h49.75a9.13,9.13,0,0,0,9.13-9.13V88.69a9.13,9.13,0,0,0-9.13-9.13h-7.7v4.72a4.81,4.81,0,0,1-4.8,4.81H191.08a4.82,4.82,0,0,1-4.8-4.81V79.56Z"/><path class="cls-1" d="M230.49,105.52a2,2,0,0,1-2-2l-.15-13.39a2,2,0,0,1,2-2h0a2,2,0,0,1,2,2l.15,13.38a2,2,0,0,1-2,2Z"/><path class="cls-1" d="M230.5,114a2,2,0,0,1-2-2,2,2,0,0,1,2-2h0a2,2,0,0,1,0,4Z"/><path class="cls-4" d="M220,174H187a2,2,0,0,1,0-4h33a2,2,0,0,1,0,4Z"/><path class="cls-4" d="M220,186.81H187a2,2,0,0,1,0-4h33a2,2,0,0,1,0,4Z"/><path d="M217.94,132.21h-4V126a10.49,10.49,0,0,0-21,0v6.17h-4V126a14.49,14.49,0,0,1,29,0Z"/><path class="cls-6" d="M214.71,157.68H192.2a6.5,6.5,0,0,1-6.47-5.91l-2.07-22.52h39.59l-2.07,22.52A6.49,6.49,0,0,1,214.71,157.68Z"/><path d="M214.71,159.68H192.2a8.45,8.45,0,0,1-8.46-7.73l-2.07-22.52a2,2,0,0,1,.52-1.53,2,2,0,0,1,1.48-.65h39.58a2,2,0,0,1,2,2.18L223.18,152A8.47,8.47,0,0,1,214.71,159.68Zm-28.85-28.43,1.86,20.34a4.48,4.48,0,0,0,4.48,4.09h22.51a4.48,4.48,0,0,0,4.48-4.09l1.87-20.34Z"/></g></g></svg>