<svg xmlns="http://www.w3.org/2000/svg" xmlns:xlink="http://www.w3.org/1999/xlink" viewBox="0 0 241.48 230"><defs><style>.cls-1{fill:#226399;}.cls-2{fill:url(#linear-gradient);}.cls-3{fill:url(#linear-gradient-2);}.cls-4{fill:#fff;}.cls-5{fill:url(#linear-gradient-3);}.cls-6{fill:url(#linear-gradient-4);}</style><linearGradient id="linear-gradient" x1="192.21" y1="-7.68" x2="30.21" y2="230.32" gradientUnits="userSpaceOnUse"><stop offset="0" stop-color="#1da5c9"/><stop offset="1" stop-color="#1d85db"/></linearGradient><linearGradient id="linear-gradient-2" x1="134.39" y1="34.13" x2="82.39" y2="148.13" gradientUnits="userSpaceOnUse"><stop offset="0" stop-color="#ebcd1c"/><stop offset="1" stop-color="#eb901c"/></linearGradient><linearGradient id="linear-gradient-3" x1="239.81" y1="85.39" x2="163.81" y2="241.73" xlink:href="#linear-gradient"/><linearGradient id="linear-gradient-4" x1="221.86" y1="108.15" x2="188.53" y2="201.82" xlink:href="#linear-gradient-2"/></defs><title>Asset 7</title><g id="Layer_2" data-name="Layer 2"><g id="Layer_1-2" data-name="Layer 1"><path class="cls-1" d="M119.29,95.72a2.5,2.5,0,0,1-2.5-2.5V34.72a2.5,2.5,0,1,1,5,0v58.5A2.5,2.5,0,0,1,119.29,95.72Z"/><path class="cls-2" d="M2,23.1H220a0,0,0,0,1,0,0V196.59a11.66,11.66,0,0,1-11.66,11.66H13.66A11.66,11.66,0,0,1,2,196.59V23.1A0,0,0,0,1,2,23.1Z"/><path d="M208.31,210.26H13.66A13.68,13.68,0,0,1,0,196.59V21.1H222V196.59A13.68,13.68,0,0,1,208.31,210.26ZM4,25.1V196.59a9.68,9.68,0,0,0,9.66,9.67H208.31a9.68,9.68,0,0,0,9.67-9.67V25.1Z"/><circle class="cls-3" cx="111.52" cy="84.25" r="37.81"/><path d="M111.52,124.06a39.81,39.81,0,1,1,39.81-39.81A39.85,39.85,0,0,1,111.52,124.06Zm0-75.62a35.81,35.81,0,1,0,35.81,35.81A35.86,35.86,0,0,0,111.52,48.44Z"/><path class="cls-4" d="M13.66,2H208.31A11.66,11.66,0,0,1,220,13.66V23.1a0,0,0,0,1,0,0H2a0,0,0,0,1,0,0V13.66A11.66,11.66,0,0,1,13.66,2Z"/><path d="M220,25.1H2a2,2,0,0,1-2-2V13.66A13.68,13.68,0,0,1,13.66,0H208.31A13.68,13.68,0,0,1,222,13.66V23.1A2,2,0,0,1,220,25.1ZM4,21.1H218V13.66A9.68,9.68,0,0,0,208.31,4H13.66A9.67,9.67,0,0,0,4,13.66Z"/><path class="cls-4" d="M15,89.76a2,2,0,0,1-2-2v-27a2,2,0,0,1,4,0v27A2,2,0,0,1,15,89.76Z"/><path class="cls-4" d="M15,97.93h0a2,2,0,1,1,2-2A2,2,0,0,1,15,97.93Z"/><path class="cls-1" d="M154,143H69a2,2,0,0,1,0-4h85a2,2,0,0,1,0,4Z"/><path class="cls-1" d="M154,155.8H69a2,2,0,0,1,0-4h85a2,2,0,1,1,0,4Z"/><path class="cls-4" d="M111.12,188.77a2,2,0,0,1-1.16-.37l-9.93-7a2,2,0,0,1,2.32-3.27l8.77,6.22,8.51-6a2,2,0,1,1,2.31,3.26l-9.66,6.85A2,2,0,0,1,111.12,188.77Z"/><path class="cls-4" d="M218.65,92.27H178.6a11.13,11.13,0,0,0-11.13,11.14V216.87A11.13,11.13,0,0,0,178.6,228h49.75a11.13,11.13,0,0,0,11.13-11.13V103.41a11.14,11.14,0,0,0-11.13-11.14Z"/><path d="M228.34,230H178.6a13.14,13.14,0,0,1-13.13-13.13V103.41A13.15,13.15,0,0,1,178.6,90.27h49.74a13.16,13.16,0,0,1,13.14,13.14V216.87A13.15,13.15,0,0,1,228.34,230ZM178.6,94.27a9.14,9.14,0,0,0-9.13,9.14V216.87A9.14,9.14,0,0,0,178.6,226h49.74a9.15,9.15,0,0,0,9.14-9.13V103.41a9.15,9.15,0,0,0-9.14-9.14Z"/><path class="cls-5" d="M218.65,92.27V99a2.8,2.8,0,0,1-2.81,2.8H191.1a2.8,2.8,0,0,1-2.8-2.8V92.27h-9.7a11.13,11.13,0,0,0-11.13,11.14V216.87A11.13,11.13,0,0,0,178.6,228h49.75a11.13,11.13,0,0,0,11.13-11.13V103.41a11.14,11.14,0,0,0-11.13-11.14Z"/><path d="M228.34,230H178.6a13.14,13.14,0,0,1-13.13-13.13V103.41A13.15,13.15,0,0,1,178.6,90.27h11.7V99a.8.8,0,0,0,.8.8h24.74a.8.8,0,0,0,.81-.8V90.27h11.69a13.16,13.16,0,0,1,13.14,13.14V216.87A13.15,13.15,0,0,1,228.34,230ZM178.6,94.27a9.14,9.14,0,0,0-9.13,9.14V216.87A9.14,9.14,0,0,0,178.6,226h49.74a9.15,9.15,0,0,0,9.14-9.13V103.41a9.15,9.15,0,0,0-9.14-9.14h-7.69V99a4.81,4.81,0,0,1-4.81,4.8H191.1a4.8,4.8,0,0,1-4.8-4.8V94.27Z"/><path class="cls-4" d="M228.83,125.67a2,2,0,0,1-2-2l-.15-17.87a2,2,0,0,1,2-2h0a2,2,0,0,1,2,2l.15,17.87a2,2,0,0,1-2,2Z"/><path class="cls-4" d="M228.84,134.61a2,2,0,0,1,0-4h0a2,2,0,1,1,0,4Z"/><circle class="cls-6" cx="203.47" cy="159.83" r="23.42"/><path d="M203.47,185.25a25.42,25.42,0,1,1,25.42-25.42A25.45,25.45,0,0,1,203.47,185.25Zm0-46.84a21.42,21.42,0,1,0,21.42,21.42A21.45,21.45,0,0,0,203.47,138.41Z"/><path class="cls-1" d="M220,198.75H187a2,2,0,0,1,0-4h33a2,2,0,1,1,0,4Z"/><path class="cls-1" d="M220,211.53H187a2,2,0,0,1,0-4h33a2,2,0,0,1,0,4Z"/></g></g></svg>