<?xml version="1.0" encoding="utf-8"?>
<!-- Generator: Adobe Illustrator 22.0.1, SVG Export Plug-In . SVG Version: 6.00 Build 0)  -->
<svg version="1.1" id="Layer_1" xmlns="http://www.w3.org/2000/svg" xmlns:xlink="http://www.w3.org/1999/xlink" x="0px" y="0px"
	 viewBox="0 0 200 200" style="enable-background:new 0 0 200 200;" xml:space="preserve">
<style type="text/css">
	.st0{fill:#1D72F7;}
	.st1{fill:#EEDC11;}
	.st2{fill:none;stroke:#EEDC11;stroke-width:5.1325;stroke-miterlimit:10;}
	.st3{fill:none;stroke:#8DC63F;stroke-width:5.1325;stroke-miterlimit:10;}
</style>
<path class="st0" d="M152.4,174v10.1c0,5.1-4.1,9.2-9.2,9.2H57.7c-5.1,0-9.2-4.2-9.2-9.2V174c0-5.1,4.1-9.2,9.2-9.2h-1.5l-7.7-12.2
	c0,0,44.8-108.9,49.4-120.2v54.1c-3.9,1.1-6.7,4.7-6.7,8.9c0,5.2,4.2,9.3,9.3,9.3s9.3-4.2,9.3-9.3c0-4.2-2.8-7.8-6.7-8.9V32.4
	l49.4,120.2l-7.7,12.2h-1.5C148.3,164.7,152.4,168.9,152.4,174z"/>
<rect x="92" y="6.1" class="st1" width="18" height="18"/>
<rect x="172.9" y="87" class="st1" width="18" height="18"/>
<rect x="10" y="87" class="st1" width="18" height="18"/>
<path class="st2" d="M19.5,96.5C19.5,51.5,56,15,101,15s81.5,36.5,81.5,81.5"/>
<path class="st3" d="M101,15"/>
<line class="st2" x1="172.8" y1="15" x2="29.1" y2="15"/>
<circle class="st1" cx="172.8" cy="15" r="6.1"/>
<circle class="st1" cx="29.1" cy="15" r="6.1"/>
</svg>
