<?xml version="1.0" encoding="utf-8"?>
<!-- Generator: Adobe Illustrator 22.0.1, SVG Export Plug-In . SVG Version: 6.00 Build 0)  -->
<svg version="1.1" id="Layer_1" xmlns="http://www.w3.org/2000/svg" xmlns:xlink="http://www.w3.org/1999/xlink" x="0px" y="0px"
	 viewBox="0 0 250 134.2" style="enable-background:new 0 0 250 134.2;" xml:space="preserve">
<style type="text/css">
	.st0{fill:#EEDC11;}
	.st1{fill:#1D72F7;}
	.st2{fill:#CBBA2D;}
</style>
<rect x="5.6" y="16.6" class="st0" width="136.2" height="10.9"/>
<rect x="5.6" y="76.8" class="st0" width="136.2" height="40.2"/>
<rect x="5.6" y="27.4" class="st1" width="136.2" height="49.3"/>
<rect x="79.3" y="19.1" class="st1" width="17" height="5.9"/>
<rect x="99.3" y="19.1" class="st1" width="17" height="5.9"/>
<rect x="118.7" y="19.1" class="st1" width="17" height="5.9"/>
<circle class="st1" cx="14.7" cy="22" r="3.9"/>
<rect x="21.9" y="81.6" class="st2" width="30.5" height="30.5"/>
<rect x="58.7" y="81.6" class="st2" width="30.5" height="30.5"/>
<rect x="95.1" y="81.6" class="st2" width="30.5" height="30.5"/>
<rect x="219.6" y="74" class="st0" width="24.3" height="43.3"/>
<rect x="219.6" y="83.1" class="st1" width="24.3" height="15.2"/>
<circle class="st1" cx="224.1" cy="78.8" r="2.5"/>
<rect x="219.6" y="100" class="st2" width="24.3" height="17.3"/>
<g>
	<path class="st1" d="M241.8,77.8h-5.5c-0.1,0-0.1-0.1-0.1-0.1v-1c0-0.1,0.1-0.1,0.1-0.1h5.5c0.1,0,0.1,0.1,0.1,0.1v1
		C241.9,77.8,241.9,77.8,241.8,77.8z"/>
	<path class="st1" d="M241.8,79.4h-5.5c-0.1,0-0.1-0.1-0.1-0.1v-1c0-0.1,0.1-0.1,0.1-0.1h5.5c0.1,0,0.1,0.1,0.1,0.1v1
		C241.9,79.4,241.9,79.4,241.8,79.4z"/>
	<path class="st1" d="M241.8,81h-5.5c-0.1,0-0.1-0.1-0.1-0.1v-1c0-0.1,0.1-0.1,0.1-0.1h5.5c0.1,0,0.1,0.1,0.1,0.1v1
		C241.9,81,241.9,81,241.8,81z"/>
</g>
<rect x="150.5" y="45.6" class="st0" width="54.5" height="72"/>
<rect x="150.5" y="57.8" class="st1" width="54.6" height="27.1"/>
<rect x="153.6" y="89.4" class="st2" width="21.9" height="21.9"/>
<rect x="180" y="89.4" class="st2" width="21.9" height="21.9"/>
<circle class="st1" cx="157.3" cy="51.9" r="3.8"/>
<g>
	<path class="st1" d="M201.7,50.4h-8.4c-0.1,0-0.1-0.1-0.1-0.1v-1.7c0-0.1,0.1-0.1,0.1-0.1h8.4c0.1,0,0.1,0.1,0.1,0.1v1.7
		C201.8,50.3,201.8,50.4,201.7,50.4z"/>
	<path class="st1" d="M201.7,52.9h-8.4c-0.1,0-0.1-0.1-0.1-0.1V51c0-0.1,0.1-0.1,0.1-0.1h8.4c0.1,0,0.1,0.1,0.1,0.1v1.7
		C201.8,52.8,201.8,52.9,201.7,52.9z"/>
	<path class="st1" d="M201.7,55.3h-8.4c-0.1,0-0.1-0.1-0.1-0.1v-1.7c0-0.1,0.1-0.1,0.1-0.1h8.4c0.1,0,0.1,0.1,0.1,0.1v1.7
		C201.8,55.2,201.8,55.3,201.7,55.3z"/>
</g>
</svg>
