<?xml version="1.0" encoding="utf-8"?>
<!-- Generator: Adobe Illustrator 22.0.1, SVG Export Plug-In . SVG Version: 6.00 Build 0)  -->
<svg version="1.1" id="Layer_1" xmlns="http://www.w3.org/2000/svg" xmlns:xlink="http://www.w3.org/1999/xlink" x="0px" y="0px"
	 viewBox="0 0 300 238" style="enable-background:new 0 0 300 238;" xml:space="preserve">
<style type="text/css">
	.st0{fill:#248CCB;}
	.st1{fill:none;stroke:#FFFFFF;stroke-width:4;stroke-linecap:round;stroke-linejoin:round;stroke-miterlimit:10;}
	.st2{fill:none;stroke:#010101;stroke-width:4;stroke-linecap:round;stroke-linejoin:round;stroke-miterlimit:10;}
	.st3{fill:none;stroke:#FFFFFF;stroke-width:4;stroke-linecap:round;stroke-miterlimit:10;}
	.st4{fill:#FFFFFF;stroke:#010101;stroke-width:4;stroke-linecap:round;stroke-linejoin:round;stroke-miterlimit:10;}
	.st5{fill:none;stroke:#236499;stroke-width:4;stroke-linecap:round;stroke-miterlimit:10;}
	.st6{fill:#ECCE1E;stroke:#010101;stroke-width:4;stroke-miterlimit:10;}
	.st7{fill:#248CCB;stroke:#010101;stroke-width:4;stroke-linecap:round;stroke-linejoin:round;stroke-miterlimit:10;}
</style>
<g>
	<path class="st0" d="M233.4,36.5H66.6c-5.5,0-10,4.5-10,10v128.7h186.8V46.5C243.4,41,238.9,36.5,233.4,36.5z"/>
	<g>
		<path class="st1" d="M54.1,173.1"/>
		<path class="st2" d="M233.4,36.5H66.6c-5.5,0-10,4.5-10,10v128.7h186.8V46.5C243.4,41,238.9,36.5,233.4,36.5z"/>
		<line class="st3" x1="233.6" y1="57.2" x2="233.6" y2="80.4"/>
		<path class="st4" d="M260.8,185.7H39.2c-3.9,0-7.1-3.2-7.1-7.1v-1.5c0-3.9,3.2-7.1,7.1-7.1h221.7c3.9,0,7.1,3.2,7.1,7.1v1.5
			C268,182.5,264.8,185.7,260.8,185.7z"/>
		<rect x="75.2" y="125.6" class="st4" width="55.8" height="27.9"/>
		<line class="st5" x1="141.4" y1="72.5" x2="218.6" y2="72.5"/>
		<line class="st5" x1="141.4" y1="59.5" x2="218.6" y2="59.5"/>
		<circle class="st6" cx="101.7" cy="81.8" r="26.5"/>
		<line class="st3" x1="233.6" y1="87.4" x2="233.6" y2="87.4"/>
	</g>
	<g>
		<g>
			<path class="st4" d="M201.5,95.3h-23.7h-7.6c-4.8,0-8.7,3.9-8.7,8.7v88.8c0,4.8,3.9,8.7,8.7,8.7h38.9c4.8,0,8.7-3.9,8.7-8.7V104
				c0-4.8-3.9-8.7-8.7-8.7H201.5z"/>
		</g>
		<g>
			<path class="st7" d="M201.5,95.3v5.3c0,1.2-1,2.2-2.2,2.2H180c-1.2,0-2.2-1-2.2-2.2v-5.3h-7.6c-4.8,0-8.7,3.9-8.7,8.7v88.8
				c0,4.8,3.9,8.7,8.7,8.7h38.9c4.8,0,8.7-3.9,8.7-8.7V104c0-4.8-3.9-8.7-8.7-8.7H201.5z"/>
		</g>
		<line class="st3" x1="209.5" y1="119.9" x2="209.4" y2="105.9"/>
		<line class="st3" x1="209.5" y1="126.9" x2="209.5" y2="126.9"/>
		<circle class="st6" cx="189.7" cy="148.1" r="18.3"/>
		<line class="st5" x1="176.8" y1="177" x2="202.6" y2="177"/>
		<line class="st5" x1="176.8" y1="187" x2="202.6" y2="187"/>
	</g>
</g>
</svg>
