<?xml version="1.0" encoding="utf-8"?>
<!-- Generator: Adobe Illustrator 22.0.1, SVG Export Plug-In . SVG Version: 6.00 Build 0)  -->
<svg version="1.1" id="Layer_1" xmlns="http://www.w3.org/2000/svg" xmlns:xlink="http://www.w3.org/1999/xlink" x="0px" y="0px"
	 viewBox="0 0 200 200" style="enable-background:new 0 0 200 200;" xml:space="preserve">
<style type="text/css">
	.st0{fill:none;stroke:#CBBA2D;stroke-width:5.8903;stroke-miterlimit:10;}
	.st1{fill:none;stroke:#CBBA2D;stroke-width:5.8903;stroke-miterlimit:10;stroke-dasharray:15.8892,15.8892;}
	.st2{fill:#1D72F7;}
	.st3{fill:none;stroke:#EEDC11;stroke-width:10.527;stroke-linecap:round;stroke-miterlimit:10;}
</style>
<g>
	<g>
		<path class="st0" d="M7.2,181c0,0,3.3-0.3,8.5-1.5"/>
		<path class="st1" d="M30.8,174.4c13.3-5.8,29.6-16.5,41.2-36.5c16.5-28.3,60.9-31.9,85.2-31.5"/>
		<path class="st0" d="M165.2,106.6c5.4,0.3,8.7,0.7,8.7,0.7"/>
	</g>
</g>
<g>
	<g>
		<path class="st2" d="M11,184.5l-7.6-6.2c1.2-1.5,29.6-36.3,54.7-47c17.7-7.6,40-2.7,54.8,0.5c4.6,1,10.3,2.3,12.4,2.2
			c3.1-2.9,12.4-18.6,29-54.5l8.9,4.1c-26.7,57.5-31.9,58.9-35,59.8c-3.7,1-9.2-0.2-17.5-2c-13.5-3-34-7.5-48.8-1.1
			C39.1,150.1,11.3,184.2,11,184.5z M124.9,134.3L124.9,134.3L124.9,134.3z"/>
		<g>
			<polygon class="st2" points="169.4,91 166.8,63.7 144.5,79.5 			"/>
		</g>
	</g>
</g>
<polyline class="st3" points="7.2,17.6 7.2,181 194,181 "/>
</svg>
