<?xml version="1.0" encoding="utf-8"?>
<!-- Generator: Adobe Illustrator 22.0.1, SVG Export Plug-In . SVG Version: 6.00 Build 0)  -->
<svg version="1.1" id="Layer_1" xmlns="http://www.w3.org/2000/svg" xmlns:xlink="http://www.w3.org/1999/xlink" x="0px" y="0px"
	 viewBox="0 0 200 200" style="enable-background:new 0 0 200 200;" xml:space="preserve">
<style type="text/css">
	.st0{fill:#EEDC11;}
	.st1{fill:#CBBA2D;}
	.st2{fill:#1D72F7;}
</style>
<polygon class="st0" points="163.4,138.9 179.5,171 163.4,171 "/>
<path class="st1" d="M179.7,171L179.7,171c-0.1,0.1-0.2,0.1-0.2,0c-19.9-1.8-15.8-67.3-15.8-67.3h31.8
	C195.4,103.6,199.5,169.2,179.7,171z"/>
<path class="st0" d="M164.6,171H9.7c-3,0-5.4-2.4-5.4-5.4V36.8c0-3,2.4-5.4,5.4-5.4h155L164.6,171L164.6,171z"/>
<g>
	<path class="st2" d="M57.2,58.9v-2.6l1.1-0.1c0.5,0,0.8-0.3,0.8-0.9V40.8l-1.8-0.1V38H63l8.9,14.5H72V40.8l-2.1-0.1V38h7.7v2.6
		l-1.1,0.1c-0.5,0-0.8,0.4-0.8,1V59H72l-9.1-14.7h-0.1v11.9l2,0.1V59L57.2,58.9L57.2,58.9z"/>
	<path class="st2" d="M94.4,58.9h-15v-2.6l1-0.1c0.6-0.1,0.9-0.4,0.9-0.9V40.8l-1.8-0.1V38H94v5.2l-3.2,0.2v-1.3
		c0-0.4-0.1-0.6-0.2-0.8c-0.1-0.1-0.4-0.2-0.8-0.2h-4.7v5.4h7.3v3.2h-7.3v5.9h5.1c0.4,0,0.6-0.1,0.7-0.2c0.1-0.2,0.2-0.4,0.2-0.8V53
		l3.2,0.2v5.7H94.4z"/>
	<path class="st2" d="M123,40.5l-1,0.1c-0.5,0-0.9,0.4-1,1.1l-4,17.2h-4.3l-3.3-14h-0.1l-3.2,14h-4.4l-4.3-18.2l-1.8-0.1V38h7.8v2.6
		l-1,0.1c-0.7,0.1-1,0.3-1,0.8c0,0.1,0,0.2,0,0.3l2.7,12.2h0.1l3.3-14.2h4.1l3.4,14.3h0.1l2.7-13.2l-1.7-0.1V38h7.1v2.5H123z"/>
	<path class="st2" d="M130.5,56.1c2.5,0,3.8-1,3.8-3c0-1.1-0.6-1.8-1.7-2.3c-0.6-0.3-1.3-0.6-2.3-0.8c-0.9-0.3-1.7-0.5-2.3-0.8
		c-0.6-0.3-1.2-0.6-1.9-1.1c-1.2-0.9-1.9-2.3-1.9-4.3c0-1.9,0.7-3.4,2-4.5s3.1-1.7,5.2-1.7c2.2,0,4.1,0.4,6,1.3v4.7l-3.2,0.2V42
		c0-0.3,0-0.5-0.1-0.7c-0.2-0.4-1-0.6-2.2-0.6s-2.2,0.2-2.8,0.7c-0.6,0.4-0.9,1.1-0.9,2c0,0.7,0.3,1.3,0.8,1.8
		c0.3,0.3,0.8,0.6,1.5,0.8s1.4,0.4,2.1,0.7c0.7,0.2,1.4,0.5,2,0.8s1.2,0.7,1.8,1.1c1.3,0.9,1.9,2.4,1.9,4.4s-0.7,3.5-2.1,4.7
		c-1.4,1.1-3.3,1.7-5.6,1.7s-4.4-0.4-6.2-1.3v-5l3.2-0.2v1.9c0,0.3,0,0.5,0.1,0.7c0.1,0.1,0.3,0.3,0.8,0.4
		C128.9,56,129.5,56.1,130.5,56.1z"/>
</g>
<circle class="st2" cx="23.5" cy="48.5" r="10.8"/>
<circle class="st2" cx="116.3" cy="70.5" r="3.9"/>
<rect x="4.3" y="66.6" class="st2" width="103.3" height="59.4"/>
<path class="st1" d="M38.9,166.5H12.8c-2.7,0-5-2.2-5-5v-29.7h31.1V166.5z"/>
<rect x="41.6" y="131.9" class="st1" width="31.1" height="34.7"/>
<rect x="75.5" y="131.9" class="st1" width="31.1" height="34.7"/>
<rect x="112.4" y="76.9" class="st1" width="45.5" height="7.2"/>
<rect x="121.9" y="67" class="st1" width="35.9" height="7.2"/>
<rect x="112.4" y="86.1" class="st1" width="45.5" height="7.2"/>
<rect x="112.4" y="95.2" class="st1" width="45.5" height="7.2"/>
<rect x="112.4" y="104.4" class="st1" width="45.5" height="7.2"/>
<rect x="112.4" y="113.5" class="st1" width="45.5" height="7.2"/>
<rect x="112.4" y="122.7" class="st1" width="45.5" height="7.2"/>
<rect x="112.4" y="131.9" class="st1" width="45.5" height="7.2"/>
<rect x="112.4" y="141" class="st1" width="45.5" height="7.2"/>
<rect x="112.4" y="150.2" class="st1" width="45.5" height="7.2"/>
<rect x="112.4" y="159.3" class="st1" width="45.5" height="7.2"/>
</svg>
