<?xml version="1.0" encoding="utf-8"?>
<!-- Generator: Adobe Illustrator 22.0.1, SVG Export Plug-In . SVG Version: 6.00 Build 0)  -->
<svg version="1.1" id="Layer_1" xmlns="http://www.w3.org/2000/svg" xmlns:xlink="http://www.w3.org/1999/xlink" x="0px" y="0px"
	 viewBox="0 0 200 200" style="enable-background:new 0 0 200 200;" xml:space="preserve">
<style type="text/css">
	.st0{fill:#1D72F7;}
	.st1{fill:none;stroke:#EDDB11;stroke-width:8.7636;stroke-linecap:round;stroke-miterlimit:10;}
</style>
<path class="st0" d="M195.8,84.2v3.1c0,17.7-14.5,32.2-32.2,32.2H36.1c-17.7,0-32.2-14.5-32.2-32.2v-3.1C3.9,66.5,18.4,52,36.1,52
	h0.3c-0.1-1-0.1-2.1-0.1-3.2c0-25,20.2-45.2,45.2-45.2c19.1,0,35.4,11.8,42,28.6c4.2-2.8,9.3-4.4,14.8-4.4c14,0,25.5,10.7,26.8,24.3
	C182.2,52.9,195.8,67,195.8,84.2z"/>
<path class="st1" d="M66.1,132.3v20c0,6.1-4.9,11-11,11H38.8"/>
<path class="st1" d="M124.7,132.3v20c0,6.1,4.9,11,11,11h16.4"/>
<line class="st1" x1="95.4" y1="132.3" x2="95.4" y2="173"/>
<circle class="st1" cx="162.7" cy="163.4" r="9.2"/>
<circle class="st1" cx="27.5" cy="163.4" r="9.2"/>
<circle class="st1" cx="95.4" cy="182.3" r="9.2"/>
</svg>
