<svg xmlns="http://www.w3.org/2000/svg" viewBox="0 0 380.82 150.78"><defs><style>.cls-1,.cls-2,.cls-3{fill:#ff0;}.cls-2{opacity:0.71;}.cls-3{font-size:8.73px;font-family:Futura-Bold, Futura;font-weight:700;}</style></defs><title>Asset 4</title><g id="Layer_2" data-name="Layer 2"><g id="Layer_1-2" data-name="Layer 1"><polygon class="cls-1" points="188.66 113.86 188.79 113.86 188.79 113.53 188.66 113.86"/><path class="cls-1" d="M24.08,147.82a7.58,7.58,0,0,1-5.4-2.24h0L6.94,133.83a7.64,7.64,0,0,1,0-10.8L35,95a7.65,7.65,0,0,1,10.8,0l11.75,11.75a7.65,7.65,0,0,1,0,10.8l-28,28A7.58,7.58,0,0,1,24.08,147.82ZM40.37,93.77a6.62,6.62,0,0,0-4.69,1.94l-28,28a6.64,6.64,0,0,0,0,9.39l11.75,11.75a6.64,6.64,0,0,0,9.39,0l28-28a6.65,6.65,0,0,0,0-9.39L45.06,95.71A6.62,6.62,0,0,0,40.37,93.77Z"/><path class="cls-1" d="M24.08,148.76a7.24,7.24,0,0,1-5.15-2.13l-13-13a7.28,7.28,0,0,1,0-10.3L35.22,94a7.28,7.28,0,0,1,10.3,0l13,13a7.29,7.29,0,0,1,0,10.3L29.23,146.63A7.24,7.24,0,0,1,24.08,148.76ZM40.37,92.82a6.24,6.24,0,0,0-4.44,1.84L6.6,124a6.28,6.28,0,0,0,0,8.89l13,13a6.29,6.29,0,0,0,8.89,0l29.33-29.33a6.29,6.29,0,0,0,0-8.89l-13-13A6.24,6.24,0,0,0,40.37,92.82ZM24.08,147.63h0a6.12,6.12,0,0,1-4.36-1.8h0l-13-13a6.16,6.16,0,0,1,0-8.71L36,94.75a6.16,6.16,0,0,1,8.71,0l13,13a6.16,6.16,0,0,1,0,8.71L28.44,145.83A6.12,6.12,0,0,1,24.08,147.63Zm-3.65-2.51a5.12,5.12,0,0,0,3.65,1.51h0a5.12,5.12,0,0,0,3.65-1.51L57.06,115.8a5.16,5.16,0,0,0,0-7.3l-13-13a5.16,5.16,0,0,0-7.3,0L7.39,124.78a5.16,5.16,0,0,0,0,7.3l13,13Z"/><circle class="cls-1" cx="16.66" cy="135.85" r="2.49" transform="translate(-91.18 51.57) rotate(-45)"/><rect class="cls-1" x="48.35" y="98.61" width="1" height="10.11" transform="translate(-59 64.91) rotate(-45)"/><polygon class="cls-1" points="56.85 117.42 12.74 117.93 5.64 125.04 50.66 124.52 56.85 117.42"/><path class="cls-1" d="M146.31,65.45l3.42,3.42a4.41,4.41,0,0,1,0,6.23L120.85,104a4.41,4.41,0,0,1-6.23,0l-3.42-3.42a4.41,4.41,0,0,1,0-6.23l-.5.5L104,93.32S82.32,41.41,80.06,36l18.3,18.3a4.44,4.44,0,1,0,1.73-1.73L81.79,34.3l57.28,23.92,1.51,6.71-.5.5A4.41,4.41,0,0,1,146.31,65.45Z"/><rect class="cls-1" x="70.94" y="24.82" width="8.58" height="8.58" transform="translate(1.45 61.73) rotate(-45)"/><rect class="cls-1" x="125.65" y="24.82" width="8.58" height="8.58" transform="translate(17.47 100.41) rotate(-45)"/><rect class="cls-1" x="70.58" y="79.88" width="8.58" height="8.58" transform="translate(-37.59 77.6) rotate(-45)"/><path class="cls-1" d="M131.17,28.24,129.43,30A37.71,37.71,0,0,0,76.1,83.31L74.37,85a40.16,40.16,0,0,1,56.8-56.8Z"/><path class="cls-1" d="M75.24,29.11"/><rect class="cls-1" x="40.9" y="27.89" width="68.68" height="2.45" transform="translate(1.45 61.73) rotate(-45)"/><circle class="cls-1" cx="99.52" cy="4.83" r="2.91" transform="translate(25.73 71.78) rotate(-45)"/><circle class="cls-1" cx="50.96" cy="53.39" r="2.91" transform="translate(-22.83 51.67) rotate(-45)"/><path class="cls-1" d="M48.19,26.58l-25-25a3.84,3.84,0,0,0-5.43,0L1.95,17.46a3.84,3.84,0,0,0,0,5.43l25,25a3.84,3.84,0,0,0,5.43,0L48.19,32A3.84,3.84,0,0,0,48.19,26.58ZM29.4,47,2.84,20.41l17.9-17.9L47.3,29.06Z"/><polygon class="cls-1" points="16.18 40.62 9.55 33.99 11.77 31.77 18.4 38.4 18.09 38.71 16.18 40.62"/><path class="cls-1" d="M12,38.14S7,33.28,8.45,33.65s2.85-1.41,2.85-1.41l6.63,6.63s-1.77,1.35-1.41,2.85S12,38.14,12,38.14Z"/><polygon class="cls-1" points="28.27 8.35 12.66 8.35 8.55 12.46 32.51 12.46 28.27 8.35"/><polygon class="cls-1" points="33.42 13.75 8.4 13.75 1.81 20.34 40.21 20.34 33.42 13.75"/><path class="cls-1" d="M84.23,132.76l-.1-.09a28,28,0,0,0-3-2.43l1.2-3.74c1,.3,2,1.15,4.35,3.22l.1.09Z"/><path class="cls-1" d="M117.63,149a40.09,40.09,0,0,1-9.45-1.62l1.12-3.77a36.19,36.19,0,0,0,8.52,1.47Zm9.57-.74-.78-3.86a40.06,40.06,0,0,0,8.27-2.68l1.6,3.59A43.82,43.82,0,0,1,127.2,148.25Zm-27.83-4.52a61.9,61.9,0,0,1-8-5.06l2.34-3.16a58.25,58.25,0,0,0,7.46,4.75Zm45.18-3-2.19-3.27a68.43,68.43,0,0,0,7-5.44l2.6,3A72.36,72.36,0,0,1,144.55,140.7Zm14.09-12.28-2.88-2.68c1.95-2.09,3.92-4.39,5.85-6.82l3.08,2.45C162.7,123.89,160.66,126.26,158.65,128.43Z"/><path class="cls-1" d="M170.26,113.92,167,111.66q1.31-1.87,2.63-3.86L173,110Q171.6,112,170.26,113.92Z"/><polygon class="cls-1" points="178.9 117.33 179.53 95.37 160.19 105.8 178.9 117.33"/><path class="cls-1" d="M106.86,132.55a9.77,9.77,0,0,0-1.47-.75l.27-.7a10.5,10.5,0,0,1,1.59.81Z"/><path class="cls-1" d="M142.94,150.78a32.86,32.86,0,0,1-3.43-.31l.11-.74a31.9,31.9,0,0,0,3.35.3Zm3.45-.06-.05-.75a31.25,31.25,0,0,0,3.34-.42l.13.74A32,32,0,0,1,146.39,150.72Zm-10.26-.92c-1.09-.27-2.2-.59-3.3-1l.24-.71c1.08.37,2.17.69,3.24,1Zm17-.31-.21-.72c1.06-.31,2.13-.68,3.19-1.1l.28.7C155.34,148.8,154.25,149.18,153.16,149.5Zm-23.55-1.91c-1-.44-2.07-.94-3.1-1.48l.34-.67c1,.53,2,1,3.06,1.46Zm29.93-.64-.34-.67c1-.5,2-1.05,2.95-1.65l.39.64C161.56,145.87,160.55,146.44,159.55,146.94Zm-36-2.5c-.95-.56-1.93-1.18-2.9-1.83L121,142c1,.64,1.94,1.25,2.87,1.81Zm41.9-1.08-.44-.61c.89-.64,1.8-1.33,2.69-2.05l.47.58C167.23,142,166.32,142.72,165.41,143.37Zm-47.62-2.7c-1-.69-1.87-1.37-2.75-2l.45-.6c.87.66,1.79,1.34,2.74,2Zm53-1.62-.5-.55c.82-.74,1.64-1.53,2.46-2.34l.53.53C172.4,137.5,171.57,138.3,170.74,139Zm-58.41-2.5-.11-.08c-.92-.72-1.79-1.39-2.59-2l.45-.6c.81.61,1.68,1.28,2.6,2l.11.08Zm63.26-2.33-.55-.51c.76-.82,1.51-1.68,2.25-2.54l.57.49C177.12,132.52,176.35,133.38,175.59,134.21ZM180,129l-.59-.47q1-1.3,2.07-2.69l.6.45Q181.07,127.7,180,129Zm4.09-5.48-.61-.43q1-1.36,1.92-2.8l.62.42Q185.09,122.16,184.13,123.53Zm3.8-5.69-.63-.4q.9-1.41,1.8-2.89l.64.39Q188.82,116.43,187.93,117.84Z"/><path class="cls-1" d="M191.5,112l-.65-.38.86-1.49.65.37Z"/><path class="cls-1" d="M25.42,69.28s4.66,5-.93,11.31C24.49,80.59,20.34,74.58,25.42,69.28Z"/><path class="cls-1" d="M23.55,81.53c-6.27,5.59-11.31.93-11.31.93C17.54,77.37,23.55,81.53,23.55,81.53Z"/><path class="cls-1" d="M20,67.2a7.58,7.58,0,0,1,.78,1.15v0A6.2,6.2,0,0,1,20,75.74l-.16.18a6.15,6.15,0,0,1-1.88,1.28c-2.29-3.35-2.6-8.76-2.6-8.76a10.17,10.17,0,0,0-3.06-6.57,16.53,16.53,0,0,1,5.88,3.47A17.38,17.38,0,0,1,20,67.2Z"/><path class="cls-1" d="M12.94,68.33s.37,6.54,3.34,9.69h0a5.15,5.15,0,0,1-.74.13,7.8,7.8,0,0,1-1.86,0h0c-2.51-.31-6.14-2-7.52-9-.09-.48-.18-1-.25-1.51,0,0-1-5.92-5.92-8.09C.13,59.54,11.55,57.1,12.94,68.33Z"/><path class="cls-1" d="M22.86,79.91a11.55,11.55,0,0,1-3.79-2,6.08,6.08,0,0,0,1.5-1.16A8.36,8.36,0,0,0,22.86,79.91Z"/><path class="cls-1" d="M317.57,13.73c-.59-.59-2.73,1.43-3.57,1.21s-1.36-3.1-2.26-3-1.05,3.07-1.91,3.34-2.62-2.13-3.41-1.74,0,3.29-.75,3.77-3.08-1.39-3.75-.84.68,3.23.08,3.84-3.32-.71-3.84-.08,1.29,3.06.84,3.75-3.41,0-3.77.75,2,2.65,1.74,3.41-3.27,1.12-3.34,1.91,2.83,1.5,3,2.26-1.8,3-1.21,3.57,2.73-1.43,3.57-1.21,1.36,3.1,2.26,3,1.05-3.07,1.91-3.34,2.62,2.13,3.41,1.74,0-3.29.75-3.77,3.08,1.39,3.75.84-.68-3.23-.08-3.84,3.32.71,3.84.08-1.29-3.06-.84-3.75,3.41,0,3.77-.75-2-2.65-1.74-3.41,3.27-1.12,3.34-1.91-2.83-1.5-3-2.26S318.16,14.32,317.57,13.73ZM304,29.75l-.59-.27-.89.89.26.6-.67.67h0l-1.41,1.41-2.48-2.48.65-.65,1.94,1.94.77-.77.51.51-1.51-3.39.7-.7,3.42,1.55Zm2-4.13a4,4,0,0,1,.43.51,1,1,0,0,1,.19.63,1.1,1.1,0,0,1-.1.46,2,2,0,0,1-.25.42l-.1.12-.1.11-.11.1-.12.1a2,2,0,0,1-.42.25,1.1,1.1,0,0,1-.46.1,1,1,0,0,1-.63-.19,4,4,0,0,1-.51-.43l-1.4-1.4.65-.65,1.31,1.31,0,0,0,0a1.64,1.64,0,0,0,.49.33.62.62,0,0,0,.72-.72,1.64,1.64,0,0,0-.33-.49l0,0,0,0-1.31-1.31.65-.65Zm4-1.8-.65.65-2.7-.34h0l1.52,1.52-.65.65L305,23.81l.65-.65,2.7.34h0L306.83,22l.65-.65Zm-.22-4.62.77.77a.9.9,0,0,0-.45,0,1.07,1.07,0,0,0-.39.25.88.88,0,0,0-.28.68,1,1,0,0,0,.31.67.94.94,0,0,0,.67.3.92.92,0,0,0,.68-.29,1,1,0,0,0,.24-.38,1,1,0,0,0,.06-.44l.77.77-.12.22-.12.19-.1.14-.12.13a1.91,1.91,0,0,1-.59.41,2,2,0,0,1-.7.16,1.63,1.63,0,0,1-.72-.12,1.92,1.92,0,0,1-.61-.42,1.87,1.87,0,0,1-.4-.58,1.76,1.76,0,0,1-.15-.69,1.91,1.91,0,0,1,.13-.71,1.83,1.83,0,0,1,.38-.61h0a1.94,1.94,0,0,1,.33-.27,2.44,2.44,0,0,1,.38-.2h0Zm5-.2-.65.65-1-1-.93.93,1,1-.65.65-2.48-2.48.65-.65,1,1,.93-.93-1-1,.65-.65Z"/><polygon class="cls-1" points="301.7 28.64 302.23 29.7 302.76 29.16 301.71 28.63 301.7 28.64"/><path class="cls-1" d="M269.3,62c-.59-.59-2.73,1.43-3.57,1.21s-1.36-3.1-2.26-3-1.06,3.07-1.91,3.34-2.62-2.13-3.41-1.75,0,3.29-.75,3.77-3.08-1.39-3.75-.84.69,3.24.08,3.85-3.32-.72-3.85-.08,1.29,3.06.84,3.75-3.41,0-3.77.75,2,2.65,1.74,3.41-3.27,1.13-3.33,1.91,2.82,1.5,3,2.26-1.8,3-1.21,3.58,2.72-1.43,3.57-1.21,1.36,3.1,2.26,3,1.06-3.06,1.91-3.33,2.62,2.13,3.41,1.74,0-3.29.75-3.77,3.08,1.39,3.75.84-.68-3.24-.07-3.84,3.32.71,3.84.07-1.29-3.06-.84-3.75,3.41,0,3.77-.75-2-2.65-1.75-3.41,3.27-1.13,3.34-1.91-2.82-1.5-3-2.26S269.89,62.6,269.3,62ZM257.59,76.17l-1.41,1.41-2.46-2.46.64-.64,1.92,1.92.77-.77Zm.85-.85-.64.64-2.46-2.46.64-.64Zm1.69-1.69-.5.5-3.5-1.43.7-.7,2.09.9-.9-2.1.7-.7Zm.69-4.54-.76.76.41.41.72-.72.54.54-.72.72.43.43.76-.76.54.54-1.4,1.4L258.88,70l1.4-1.4Z"/><path class="cls-1" d="M293.44,37.87c-.59-.59-2.73,1.43-3.57,1.21s-1.36-3.1-2.26-3-1.06,3.07-1.91,3.34-2.62-2.13-3.41-1.75,0,3.29-.75,3.77-3.08-1.39-3.75-.84.69,3.24.08,3.85-3.32-.72-3.85-.08,1.29,3.06.84,3.75-3.41,0-3.77.75,2,2.65,1.74,3.41-3.27,1.13-3.33,1.91,2.82,1.5,3,2.26-1.8,3-1.21,3.58,2.72-1.43,3.57-1.21,1.36,3.1,2.26,3,1.06-3.06,1.91-3.33,2.62,2.13,3.41,1.74,0-3.29.75-3.77,3.08,1.39,3.75.84-.68-3.24-.07-3.84,3.32.71,3.84.07-1.29-3.06-.84-3.75,3.41,0,3.77-.75-2-2.65-1.75-3.41,3.27-1.13,3.34-1.91-2.82-1.5-3-2.26S294,38.46,293.44,37.87ZM281.05,52.71l-.59-.27-.88.88.26.6-.67.67h0l-1.4,1.4-2.47-2.47.64-.64,1.92,1.92.77-.77.51.51-1.5-3.37.7-.7L281.74,52Zm1.94-4.1a4.05,4.05,0,0,1,.43.51,1,1,0,0,1,.18.63,1.09,1.09,0,0,1-.1.46,2,2,0,0,1-.25.41l-.09.11-.1.1-.1.1-.11.09a2,2,0,0,1-.41.25,1.09,1.09,0,0,1-.46.1,1,1,0,0,1-.63-.18,4,4,0,0,1-.5-.43l-1.39-1.39.64-.64,1.3,1.3,0,0,0,0a1.63,1.63,0,0,0,.49.33.62.62,0,0,0,.72-.72,1.63,1.63,0,0,0-.33-.49l0,0,0,0-1.3-1.3.64-.64ZM286,46a1.67,1.67,0,0,1,.26.68,1.5,1.5,0,0,1-.08.81,2,2,0,0,1-.46.69,1.84,1.84,0,0,1-1.31.59,1.78,1.78,0,0,1-1.31-.57,1.82,1.82,0,0,1-.59-1.34,1.87,1.87,0,0,1,.6-1.33A1.79,1.79,0,0,1,284,45a1.61,1.61,0,0,1,1,.07l-.36.86a.9.9,0,0,0-.48-.08.73.73,0,0,0-.44.22.76.76,0,0,0-.24.68,1.29,1.29,0,0,0,.31.67l0,0,0,0h0a1.29,1.29,0,0,0,.69.34.78.78,0,0,0,.71-.24.81.81,0,0,0,.25-.46.61.61,0,0,0-.16-.48l-.52.52-.51-.51,1.27-1.27A4.38,4.38,0,0,1,286,46Zm3.42-1.68-.64.64-1-1-.93.93,1,1-.64.64-2.47-2.47.64-.64,1,1,.93-.93-1-1,.64-.64Z"/><polygon class="cls-1" points="278.75 51.61 279.27 52.66 279.8 52.12 278.75 51.6 278.75 51.61"/><polygon class="cls-1" points="279.16 54.6 279.17 54.59 279.14 54.55 279.16 54.6"/><path class="cls-1" d="M166.92,34.12l-8-8a3,3,0,1,1,4.28-4.28l8,8a4.6,4.6,0,0,0,6.5,0l9.78-9.78a3,3,0,1,1,4.28,4.28L182,34.12A10.67,10.67,0,0,1,166.92,34.12Z"/><path class="cls-1" d="M214.3,81.5l-8-8a10.67,10.67,0,0,1,0-15.07l9.78-9.78a3,3,0,0,1,4.28,4.28l-9.78,9.78a4.6,4.6,0,0,0,0,6.5l8,8a3,3,0,1,1-4.28,4.28Z"/><path class="cls-1" d="M181.9,58.52a3,3,0,0,1,0-4.28l19.89-19.89a3,3,0,1,1,4.28,4.28L186.18,58.52A3,3,0,0,1,181.9,58.52Z"/><path class="cls-1" d="M215,91.19a9.41,9.41,0,1,1,13.3,0A9.42,9.42,0,0,1,215,91.19Zm9-9a3.35,3.35,0,1,0,0,4.74A3.36,3.36,0,0,0,224,82.17Z"/><path class="cls-1" d="M148.89,25.12a9.41,9.41,0,1,1,13.3,0A9.42,9.42,0,0,1,148.89,25.12Zm9-9a3.35,3.35,0,1,0,0,4.74A3.36,3.36,0,0,0,157.92,16.1Z"/><path class="cls-1" d="M172.88,67.55a9.41,9.41,0,1,1,13.3,0A9.42,9.42,0,0,1,172.88,67.55Zm9-9a3.35,3.35,0,1,0,0,4.74A3.36,3.36,0,0,0,181.9,58.52Z"/><circle class="cls-2" cx="221.7" cy="129.01" r="19.47"/><circle class="cls-2" cx="247.67" cy="129.01" r="19.47"/><path class="cls-2" d="M379.85,94.68l0,0,0,0h0c-3.15,2.63-8.9-.45-14.28-4.66l-.23-.18.07,0L353.11,77.7l10-10S385.73,87.65,379.85,94.68Z"/><path class="cls-1" d="M380.18,94.69h0c-3.15,2.63-8.9-.45-14.28-4.66l-.23-.18.07,0L330,54.17l-50.61,50.61a2.1,2.1,0,0,0,0,3l42.38,42.38a2.12,2.12,0,0,0,3,0l55.44-55.44h0Zm-60.1-25.48A3.66,3.66,0,0,1,321.25,67a6.44,6.44,0,0,1,2.37-1.53L325.15,67l-1,1.11-.59-.59a.66.66,0,0,0-.27-.18c-.2-.05-.51.12-.92.53a2.16,2.16,0,0,0-.68,1.11,1.09,1.09,0,0,0,.37,1,1.12,1.12,0,0,0,.82.33,1.73,1.73,0,0,0,.76-.22l.91-.46a6.94,6.94,0,0,1,.89-.4,4.58,4.58,0,0,1,1-.22,2.33,2.33,0,0,1,2,.8,2.59,2.59,0,0,1,.82,2.2A4,4,0,0,1,328,74.31a6.7,6.7,0,0,1-2.45,1.61L324,74.31l1-1.11.62.62a.66.66,0,0,0,.27.18.65.65,0,0,0,.39-.11,3.38,3.38,0,0,0,.72-.59q1.23-1.23.25-2.21a1.14,1.14,0,0,0-1.3-.22,5.75,5.75,0,0,0-1,.48,8,8,0,0,1-1,.51,4.5,4.5,0,0,1-1,.26,2.29,2.29,0,0,1-2-.79A2.56,2.56,0,0,1,320.09,69.21ZM310.45,90l.31-.37a.39.39,0,0,0,0-.58L306,84.26l-.61.55-.87-.87,4.68-4.68,1.7,1.7-1,1.11-.41-.41a.59.59,0,0,0-.3-.19c-.08,0-.19,0-.32.17l-1.51,1.51,1.75,1.75,2.36-2.36,1,1-2.36,2.36,1.91,1.91,1.64-1.64c.12-.12.18-.23.16-.31a.67.67,0,0,0-.2-.3l-.51-.51,1.12-1,1.82,1.82-4.86,4.86Zm-7.23,7.23.34-.4a.36.36,0,0,0,0-.55l-4.76-4.76-.61.55-.87-.87,1.84-1.84,7.59,1.8,0,0L303,87.32l-.71.65-.87-.87,2.5-2.5.83.83-.34.4c-.15.18-.13.37.07.56L310.05,92l-1.19,1.19-7.72-1.81,0,0L305,95.28l.69-.63.87.87L304,98Zm-17,4.87a5,5,0,1,1,0,7A5,5,0,0,1,286.19,102.06Zm46.87,36.84-8.74,8.74a1.93,1.93,0,0,1-2.73,0l-9.89-9.89,10.1-10.1Zm11-11L333.95,138l-11.26-11.26,10.1-10.1Zm11-11L344.94,127l-11.26-11.26,10.1-10.1Zm-12.82-13.48L309.8,135.85l-19.3-19.3,32.41-32.41Zm-25.8-26.89,3.5,5.59-1.44,1.44-7.31-4.49-.61.55-.87-.87,2.53-2.53.83.83-.31.37c-.19.23-.21.42,0,.58l.1.08,4.84,3.06,0,0-3.56-5.68,1.32-1.32,5.74,3.54,0,0-3.41-5.14-.59.51-.87-.87,2.3-2.3.83.83-.31.37a.55.55,0,0,0,0,.71l4.28,6.86-1.4,1.4-5.62-3.47Zm11.9,4.74a1.81,1.81,0,1,1-2.56,0A1.81,1.81,0,0,1,328.32,81.29Zm43.37,19L356.93,115l-2.33-2.33,14.76-14.76Zm-3-3L354,112.05l-2.33-2.33L366.38,95Zm-3-3L351,109.08l-2.33-2.33L363.4,92Zm-3-3L348,106.1l-2.33-2.33L360.43,89Zm-3-3L345,103.13l-2.33-2.33L357.46,86Zm-3-3-14.76,14.76-2.33-2.33,14.76-14.76Zm-3-3L339.08,97.18l-2.33-2.33,14.76-14.76Zm-3-3L336.1,94.2l-2.33-2.33,14.76-14.76Zm-3-3L333.13,91.23,330.8,88.9l14.76-14.76Zm-3-3L330.15,88.25l-2.33-2.33,14.76-14.76Zm-3.23-3.23L330,81.93l-2.33-2.33,11.67-11.67Z"/><circle class="cls-1" cx="250.86" cy="36.08" r="2.75" transform="translate(47.97 187.95) rotate(-45)"/><circle class="cls-1" cx="258.49" cy="28.45" r="2.75" transform="translate(55.59 191.11) rotate(-45)"/><path class="cls-1" d="M240.09,37.46c-.12-.52-.25-1-.39-1.51l21.16-21.16Q258.33,4.68,250.85,0l-22,22a18,18,0,0,0-7.35-1.88l0,1a17,17,0,0,1,9.26,3.08l-5.9,5.9.38,2.5,7.13-7.13a16.37,16.37,0,0,1,1.94,2L223,38.83l.74,4.81,12.84-12.84c.14.24.26.49.39.74l-4.66,4.66.38,2.5,5.16-5.16a28.87,28.87,0,0,1,1.29,4.16c.19.83.25,1.07.3,1.31s.1.41.25,1l.21.88L262.2,18.59l-.21-1.2L240.45,38.93c0-.06,0-.11,0-.17C240.35,38.54,240.28,38.29,240.09,37.46Zm5.17-13.65-.7-2.34a5,5,0,0,0,1.12-.16,4,4,0,0,0,1.07-.43l.26-.19.23-.2.1-.11.09-.12a1.65,1.65,0,0,0,.28-.73.81.81,0,0,0-.26-.72.69.69,0,0,0-.71-.19,5.18,5.18,0,0,0-.92.36l-.44.23-.46.23h0a5,5,0,0,1-1.7.43,2.33,2.33,0,0,1-1.8-.84,3.49,3.49,0,0,1-1-2.16,2.81,2.81,0,0,1,.72-2.24l-1.22-1.22.93-.93L242,13.74l.17-.12.17-.12a6.87,6.87,0,0,1,1-.61,4.49,4.49,0,0,1,1.09-.39l.7,2.18a3.59,3.59,0,0,0-.95.26,2.53,2.53,0,0,0-.82.55,1.84,1.84,0,0,0-.46.72.63.63,0,0,0,.17.69.67.67,0,0,0,.58.2,2.79,2.79,0,0,0,.66-.16l.28-.12.25-.12a8.76,8.76,0,0,1,2.23-.8,2.32,2.32,0,0,1,2.14.82,3.17,3.17,0,0,1,1.07,2.19,4.43,4.43,0,0,1-.72,2.36l1.24,1.24-.93.93-1.19-1.19a5,5,0,0,1-.71.59,5.41,5.41,0,0,1-.82.46l-.08,0-.07,0q-.41.17-.83.3a3.4,3.4,0,0,1-.86.15Z"/><path class="cls-1" d="M370,28.19l0-.08-.12-.25,0-.09,0-.06h0a2.71,2.71,0,0,0-2.31-1.28h-8.59a2.73,2.73,0,0,0-2.73,2.73v2.19h-1.15v-.81a.65.65,0,0,0-.65-.65h-5.95a.65.65,0,0,0-.65.65v.81h-1.16V29.16a2.73,2.73,0,0,0-2.73-2.73h-8.59a2.74,2.74,0,0,0-2.3,1.26h0l0,.06-.17.34,0,.08L327.6,38.69l.15.31,4.74-8.93v4.28a2.73,2.73,0,0,0,2.73,2.73h8.59a2.73,2.73,0,0,0,2.73-2.73V32.16h1.16V33a.65.65,0,0,0,.65.65h5.95a.65.65,0,0,0,.65-.65v-.81h1.15v2.19a2.73,2.73,0,0,0,2.73,2.73h8.59a2.73,2.73,0,0,0,2.73-2.73V30.06L374.89,39l.16-.31Zm-36.66,1a1.91,1.91,0,0,1,1.91-1.91h2.51l-4.42,4.42Zm12.41,5.19a1.9,1.9,0,0,1-1.91,1.91h-8.59a1.91,1.91,0,0,1-1.91-1.91v0l7.07-7.07h3.43a1.9,1.9,0,0,1,1.91,1.91Zm13.11,1.91a1.91,1.91,0,0,1-1.91-1.91V29.16a1.91,1.91,0,0,1,1.91-1.91h8.59a1.88,1.88,0,0,1,1.52.75l-8.26,8.26Zm10.51-1.91a1.91,1.91,0,0,1-1.92,1.91H366L369.34,33Z"/><line class="cls-1" x1="369.82" y1="27.86" x2="369.75" y2="27.71"/><line class="cls-1" x1="375.06" y1="38.69" x2="369.94" y2="28.11"/><text class="cls-3" transform="matrix(0.45, -0.89, 0.89, 0.45, 332.63, 26.4)">S</text><text class="cls-3" transform="matrix(0.62, -0.79, 0.79, 0.62, 334.49, 22.56)">T</text><text class="cls-3" transform="matrix(0.76, -0.65, 0.65, 0.76, 336.06, 20.07)">A</text><text class="cls-3" transform="translate(339.56 16.82) rotate(-27.38)">Y</text><text class="cls-3" transform="translate(344.07 14.53) rotate(-17.37)"> </text><text class="cls-3" transform="matrix(0.99, -0.11, 0.11, 0.99, 345.51, 13.73)">H</text><text class="cls-3" transform="translate(350.85 12.89) rotate(8.87)">U</text><text class="cls-3" transform="translate(355.87 13.2) rotate(26.21)">M</text><text class="cls-3" transform="translate(362.21 16.24) rotate(42.27)">B</text><text class="cls-3" transform="matrix(0.59, 0.81, -0.81, 0.59, 365.68, 19.29)">L</text><text class="cls-3" transform="translate(367.77 21.92) rotate(63.92)">E</text><path class="cls-1" d="M340.82,41a10.51,10.51,0,0,0,21,0Z"/></g></g></svg>