<?xml version="1.0" encoding="utf-8"?>
<!-- Generator: Adobe Illustrator 22.0.1, SVG Export Plug-In . SVG Version: 6.00 Build 0)  -->
<svg version="1.1" id="Layer_1" xmlns="http://www.w3.org/2000/svg" xmlns:xlink="http://www.w3.org/1999/xlink" x="0px" y="0px"
	 viewBox="0 0 500 500" style="enable-background:new 0 0 500 500;" xml:space="preserve">
<style type="text/css">
	.st0{fill:#1B62C9;}
	.st1{fill:#EDDB11;}
	.st2{fill:none;stroke:#EDDB11;stroke-width:9.9296;stroke-miterlimit:10;}
	.st3{fill:#1A5BAA;}
</style>
<g>
	<g>
		<path class="st0" d="M420.5,391.1L392,419.6c-5,5-13,5-18,0l-57.2-57.2c-1.9-1.9-1.9-5.1,0-7l98.1-98.1c1.9-1.9,5.1-1.9,7,0
			l57.2,57.2c1.9,1.9,1.9,5.1,0,7l-55.8,55.8c-1.4,1.4-1.8,3.5-1.1,5.4c0.4,0.9,0.6,1.9,0.6,2.9C422.7,387.6,422,389.6,420.5,391.1z
			"/>
		<path class="st1" d="M383,428.8c-4.7,0-9.3-1.8-12.9-5.3l-57.2-57.2c-2-2-3.1-4.6-3.1-7.4s1.1-5.4,3.1-7.4l98.1-98.1
			c2-2,4.6-3.1,7.4-3.1c2.8,0,5.4,1.1,7.4,3.1l57.2,57.2c4.1,4.1,4.1,10.7,0,14.8L427.4,381c0.6,1.5,0.8,3,0.8,4.6
			c0,3.6-1.4,6.9-3.9,9.4l-28.5,28.5C392.3,427,387.6,428.8,383,428.8z M321,358.9l56.8,56.8c2.8,2.8,7.4,2.8,10.3,0l28.5-28.5
			c0.6-0.6,0.7-1.3,0.7-1.6c0-0.2-0.1-0.5-0.2-0.8c-1.6-3.9-0.7-8.3,2.3-11.3l55.5-55.5l-56.5-56.5L321,358.9z"/>
	</g>
	<g>
		<path class="st0" d="M154.7,325.2l28.5,28.5c5,5,5,13,0,18L126,428.9c-1.9,1.9-5.1,1.9-7,0l-98.1-98.1c-1.9-1.9-1.9-5.1,0-7
			l57.2-57.2c1.9-1.9,5.1-1.9,7,0l55.8,55.8c1.4,1.4,3.5,1.8,5.4,1.1c0.9-0.4,1.9-0.6,2.9-0.6C151.2,322.9,153.2,323.7,154.7,325.2z
			"/>
		<path class="st1" d="M122.5,435.8c-2.8,0-5.4-1.1-7.4-3.1L17,334.7c-4.1-4.1-4.1-10.7,0-14.8l57.2-57.2c4.1-4.1,10.7-4.1,14.8,0
			l55.6,55.6c1.5-0.6,3-0.8,4.6-0.8c3.6,0,6.9,1.4,9.4,3.9l0,0l28.5,28.5c7.1,7.1,7.1,18.7,0,25.8l-57.2,57.2
			C127.9,434.7,125.3,435.8,122.5,435.8z M25.1,327.3l97.4,97.4l56.8-56.8c2.8-2.8,2.8-7.4,0-10.3L150.9,329
			c-0.6-0.6-1.3-0.7-1.6-0.7c-0.2,0-0.5,0.1-0.8,0.2c-3.9,1.6-8.3,0.7-11.3-2.3l-55.5-55.5L25.1,327.3z"/>
	</g>
	<g>
		<g>
			<path class="st2" d="M326.1,451.3c-34.2,34.2-87.3,38.2-125.8,11.8"/>
			<g>
				<polygon class="st1" points="211.4,455.2 186,451.3 195.3,475.3 				"/>
			</g>
		</g>
	</g>
	<g>
		<g>
			<g>
				<path class="st2" d="M354.1,130.3c49.2,0,90.2,35.4,98.9,82.1"/>
				<g>
					<polygon class="st1" points="439.6,210.1 454.7,230.9 465.2,207.4 					"/>
				</g>
			</g>
		</g>
		<g>
			<g>
				<path class="st2" d="M57.3,230.9c0-49.2,35.4-90.2,82.1-98.9"/>
				<g>
					<polygon class="st1" points="137.1,145.5 157.9,130.3 134.4,119.9 					"/>
				</g>
			</g>
		</g>
	</g>
	<g>
		<path class="st3" d="M297.2,161.1v-40.3c0-0.8-0.4-1.4-0.7-1.6c-0.2-0.2-0.4-0.3-0.7-0.5c-3.9-1.7-6.4-5.4-6.4-9.6V30.7h-6.9
			l-62,137.7h69.4C293.9,168.4,297.2,165.1,297.2,161.1z"/>
		<polygon class="st0" points="209.5,30.7 209.5,168.4 220.6,168.4 282.5,30.7 		"/>
		<path class="st1" d="M209,173.9c-2.8,0-5-2.2-5-5V30.2c0-2.8,2.2-5,5-5h76l2.5-5.5H209c-5.8,0-10.5,4.7-10.5,10.5v138.7
			c0,5.8,4.7,10.5,10.5,10.5h6.6l2.5-5.5H209z"/>
		<path class="st1" d="M304.2,111.4c-1.1-1.1-2.4-2-3.9-2.7V30.2c0-5.8-4.7-10.5-10.5-10.5h-2.5l-2.5,5.5h4.9c2.8,0,5,2.2,5,5v78.9
			c0,2,1.2,3.8,3,4.6c0.9,0.4,1.7,1,2.4,1.6c1.4,1.4,2.3,3.4,2.3,5.5v40.3c0,7-5.7,12.7-12.7,12.7h-71.8l-2.5,5.5h74.3
			c10,0,18.2-8.2,18.2-18.2v-40.3C308.1,117.3,306.8,114,304.2,111.4z"/>
		<path class="st1" d="M289.4,30.7v78.4c0,4.2,2.5,8,6.4,9.6c0.3,0.1,0.5,0.3,0.7,0.5c0.3,0.3,0.7,0.8,0.7,1.6v40.3
			c0,4-3.3,7.3-7.3,7.3h-69.4l-2.5,5.5h71.8c7,0,12.7-5.7,12.7-12.7v-40.3c0-2.1-0.9-4.1-2.3-5.5c-0.7-0.7-1.5-1.3-2.4-1.6
			c-1.8-0.8-3-2.6-3-4.6V30.2c0-2.8-2.2-5-5-5H285l-2.5,5.5H289.4z"/>
		<path class="st1" d="M204.1,30.2v138.7c0,2.8,2.2,5,5,5h9.1l2.5-5.5h-11V30.7h73l2.5-5.5h-76C206.3,25.2,204.1,27.4,204.1,30.2z"
			/>
	</g>
	<g>
		<path class="st3" d="M388.1,415.7l28.5-28.5c0.6-0.6,0.7-1.3,0.7-1.6c0-0.2-0.1-0.5-0.2-0.8c-1.6-3.9-0.7-8.3,2.3-11.3l55.5-55.5
			l-4.9-4.9l-141.2,53.6l49,49C380.7,418.6,385.3,418.6,388.1,415.7z"/>
		<polygon class="st0" points="418.4,261.5 321,358.9 328.8,366.7 470,313.1 		"/>
		<path class="st1" d="M316.8,362.4c-1.9-1.9-1.9-5.1,0-7l98.1-98.1c1.9-1.9,5.1-1.9,7,0l53.7,53.7l5.6-2.1l-55.5-55.5
			c-4.1-4.1-10.7-4.1-14.8,0l-98.1,98.1c-4.1,4.1-4.1,10.7,0,14.8l4.7,4.7l5.6-2.1L316.8,362.4z"/>
		<path class="st1" d="M428.2,385.6c0-1.6-0.3-3.1-0.8-4.6l55.6-55.6c4.1-4.1,4.1-10.7,0-14.8l-1.7-1.7l-5.6,2.1l3.5,3.5
			c1.9,1.9,1.9,5.1,0,7l-55.8,55.8c-1.4,1.4-1.8,3.5-1.1,5.4c0.4,0.9,0.6,1.9,0.6,2.9c0,2-0.8,4-2.3,5.5L392,419.6c-5,5-13,5-18,0
			l-50.8-50.8l-5.6,2.1l52.5,52.5c7.1,7.1,18.7,7.1,25.8,0l28.5-28.5C426.8,392.5,428.2,389.2,428.2,385.6z"/>
		<path class="st1" d="M474.9,318l-55.5,55.5c-3,3-3.9,7.4-2.3,11.3c0.1,0.3,0.2,0.6,0.2,0.8c0,0.4-0.1,1.1-0.7,1.6l-28.5,28.5
			c-2.8,2.8-7.4,2.8-10.3,0l-49-49l-5.6,2.1l50.8,50.8c5,5,13,5,18,0l28.5-28.5c1.5-1.5,2.3-3.5,2.3-5.5c0-1-0.2-2-0.6-2.9
			c-0.7-1.9-0.3-4,1.1-5.4l55.8-55.8c1.9-1.9,1.9-5.1,0-7l-3.5-3.5l-5.6,2.1L474.9,318z"/>
		<path class="st1" d="M414.9,257.3l-98.1,98.1c-1.9,1.9-1.9,5.1,0,7l6.4,6.4l5.6-2.1l-7.8-7.8l97.4-97.4l51.6,51.6l5.6-2.1
			l-53.7-53.7C420,255.3,416.8,255.3,414.9,257.3z"/>
	</g>
	<g>
		<path class="st3" d="M179.4,357.5L150.9,329c-0.6-0.6-1.3-0.7-1.6-0.7c-0.2,0-0.5,0.1-0.8,0.2c-3.9,1.6-8.3,0.7-11.3-2.3
			l-55.5-55.5l-4.9,4.9l53.6,141.2l49-49C182.2,365,182.2,360.4,179.4,357.5z"/>
		<polygon class="st0" points="25.1,327.3 122.5,424.7 130.3,416.9 76.7,275.7 		"/>
		<path class="st1" d="M126,428.9c-1.9,1.9-5.1,1.9-7,0l-98.1-98.1c-1.9-1.9-1.9-5.1,0-7L74.6,270l-2.1-5.6L17,319.9
			c-4.1,4.1-4.1,10.7,0,14.8l98.1,98.1c4.1,4.1,10.7,4.1,14.8,0l4.7-4.7l-2.1-5.6L126,428.9z"/>
		<path class="st1" d="M149.2,317.4c-1.6,0-3.1,0.3-4.6,0.8L89,262.7c-4.1-4.1-10.7-4.1-14.8,0l-1.7,1.7l2.1,5.6l3.5-3.5
			c1.9-1.9,5.1-1.9,7,0l55.8,55.8c1.4,1.4,3.5,1.8,5.4,1.1c0.9-0.4,1.9-0.6,2.9-0.6c2,0,4,0.8,5.5,2.3l28.5,28.5c5,5,5,13,0,18
			l-50.8,50.8l2.1,5.6l52.5-52.5c7.1-7.1,7.1-18.7,0-25.8l-28.5-28.5C156.1,318.8,152.8,317.4,149.2,317.4z"/>
		<path class="st1" d="M81.6,270.8l55.5,55.5c3,3,7.4,3.9,11.3,2.3c0.3-0.1,0.6-0.2,0.8-0.2c0.4,0,1.1,0.1,1.6,0.7l28.5,28.5
			c2.8,2.8,2.8,7.4,0,10.3l-49,49l2.1,5.6l50.8-50.8c5-5,5-13,0-18l-28.5-28.5c-1.5-1.5-3.5-2.3-5.5-2.3c-1,0-2,0.2-2.9,0.6
			c-1.9,0.7-4,0.3-5.4-1.1l-55.8-55.8c-1.9-1.9-5.1-1.9-7,0l-3.5,3.5l2.1,5.6L81.6,270.8z"/>
		<path class="st1" d="M20.9,330.8l98.1,98.1c1.9,1.9,5.1,1.9,7,0l6.4-6.4l-2.1-5.6l-7.8,7.8l-97.4-97.4l51.6-51.6l-2.1-5.6
			l-53.7,53.7C19,325.7,19,328.8,20.9,330.8z"/>
	</g>
</g>
</svg>
