<?xml version="1.0" encoding="utf-8"?>
<!-- Generator: Adobe Illustrator 22.0.1, SVG Export Plug-In . SVG Version: 6.00 Build 0)  -->
<svg version="1.1" id="Layer_1" xmlns="http://www.w3.org/2000/svg" xmlns:xlink="http://www.w3.org/1999/xlink" x="0px" y="0px"
	 viewBox="0 0 500 500" style="enable-background:new 0 0 500 500;" xml:space="preserve">
<style type="text/css">
	.st0{fill:#1B62C9;stroke:#EDDB11;stroke-width:10.8488;stroke-miterlimit:10;}
	.st1{fill:#1B62C9;}
	.st2{fill:#1A5BAA;}
	.st3{fill:#EDDB11;}
</style>
<g>
	<path class="st0" d="M33.9,165.6"/>
	<path class="st0" d="M442,69.9"/>
	<path class="st0" d="M58.3,69.9"/>
	<path class="st0" d="M23.3,436.7"/>
	<path class="st1" d="M94.3,350V217.6h189l30.7-47.1c-3-2.5-5.6-6.2-8.4-10c-2.1-2.9-5.9-8.1-7.8-9c-1.8,0.9-5.5,6.2-7.4,9.1
		c-4.9,7.2-9.5,13.9-16.4,14c0,0,0,0-0.1,0c-6.8,0-11.5-6.7-16.5-13.7c-2-2.9-5.7-8.2-7.6-9.1c-1.9,0.9-5.6,6.2-7.6,9.1
		c-5,7.1-9.7,13.7-16.5,13.7c0,0,0,0-0.1,0c-6.9,0-11.5-6.8-16.4-14c-2-2.9-5.6-8.2-7.4-9.1c-1.9,0.9-5.7,6.1-7.8,9
		c-5,6.9-9.7,13.5-16.4,13.5c-0.1,0-0.1,0-0.2,0c-6.9-0.1-11.4-7-16.2-14.3c-2.1-3.1-5.5-8.3-7.3-9.2c-1.9,0.8-5.8,6.1-8,8.9
		c-5.2,6.9-10,13.3-16.8,13.2c-6.9-0.3-11.6-7.5-16.1-14.6c-2-3.1-5.3-8.3-7.1-9.3c-1.9,0.8-6,6-8.2,8.8c-5.3,6.8-10.2,13.1-17,12.8
		c-7-0.4-11.5-7.8-15.9-15c-0.4-0.6-0.8-1.4-1.3-2.2v275.3h81.9l51.2-78.5H94.3z"/>
	<path class="st2" d="M418.8,170.3c-6.7,0.3-11.7-6-17-12.8c-2.2-2.8-6.3-8.1-8.2-8.8c-1.8,1-5.1,6.1-7.1,9.3
		c-4.5,7-9.1,14.3-16.1,14.6c-0.1,0-0.3,0-0.4,0c-6.6,0-11.4-6.4-16.4-13.2c-2.1-2.9-6.1-8.1-8-8.9c-1.8,0.9-5.2,6.1-7.3,9.2
		c-4.8,7.3-9.3,14.1-16.2,14.3c-3.1,0-5.8-1.3-8.3-3.5l-30.7,47.1h3.7V350h-90.1l-51.2,78.5h184.9V270.1h70.4v158.4h35.7V152.3
		c-0.7,1.1-1.3,2.1-1.9,3C430.3,162.5,425.8,169.9,418.8,170.3z"/>
	<polygon class="st3" points="142.1,433.9 138.5,439.4 330.5,439.4 330.5,433.9 	"/>
	<path class="st3" d="M58.3,433.9V146.1c0,0,0,0-0.1,0c-1.3,0.5-3.4,2.9-5.4,5.2v288h85.7l3.5-5.4H58.3z"/>
	<path class="st3" d="M442,146.3v287.7h-41.1v5.4h46.5V151.9C445.6,149.6,443.4,147.2,442,146.3z"/>
	<path class="st3" d="M436.6,152.3v276.2h-35.7v5.4H442V146.3c-0.2-0.1-0.3-0.2-0.5-0.3C440.3,146.7,438.3,149.6,436.6,152.3z"/>
	<polygon class="st3" points="145.6,428.5 142.1,433.9 330.5,433.9 330.5,428.5 	"/>
	<path class="st3" d="M63.7,428.5V153.2c-1.8-2.9-4-6.3-5.4-7.2v287.8h83.8l3.5-5.4H63.7z"/>
	<rect x="341.4" y="280.9" class="st2" width="48.7" height="147.6"/>
	<polygon class="st3" points="330.5,270.1 330.5,428.5 336,428.5 336,275.5 395.5,275.5 395.5,428.5 400.9,428.5 400.9,270.1 	"/>
	<polygon class="st3" points="395.5,433.9 336,433.9 330.5,433.9 330.5,439.4 400.9,439.4 400.9,433.9 	"/>
	<rect x="330.5" y="428.5" class="st3" width="5.4" height="5.4"/>
	<rect x="395.5" y="428.5" class="st3" width="5.4" height="5.4"/>
	<polygon class="st3" points="336,275.5 336,428.5 341.4,428.5 341.4,280.9 390,280.9 390,428.5 395.5,428.5 395.5,275.5 	"/>
	<polygon class="st3" points="390,428.5 341.4,428.5 336,428.5 336,433.9 395.5,433.9 395.5,428.5 	"/>
	<polygon class="st1" points="105.1,228.4 105.1,339.2 203.9,339.2 276.1,228.5 276.1,228.4 	"/>
	<polygon class="st2" points="276.1,339.2 276.1,228.5 203.9,339.2 	"/>
	<polygon class="st3" points="94.3,350 196.8,350 200.4,344.6 99.7,344.6 99.7,223 279.7,223 283.3,217.6 94.3,217.6 	"/>
	<polygon class="st3" points="281.5,223 281.5,344.6 200.4,344.6 196.8,350 286.9,350 286.9,217.6 283.3,217.6 279.7,223 	"/>
	<polygon class="st3" points="105.1,339.2 105.1,228.4 276.1,228.4 276.1,228.5 279.7,223 99.7,223 99.7,344.6 200.4,344.6 
		203.9,339.2 	"/>
	<polygon class="st3" points="281.5,223 279.7,223 276.1,228.5 276.1,339.2 203.9,339.2 200.4,344.6 281.5,344.6 	"/>
	<path class="st1" d="M378.6,71.5L346.3,121L320,161.3c-1.8-2-4.1-5-5.6-7.1c-5-7-9.8-13.6-16.6-13.6h-0.1
		c-6.8,0.1-11.4,6.8-16.2,13.9c-2,2.9-5.6,8.3-7.5,9.2c-1.9-0.9-5.6-6.2-7.6-9.1c-5-7.1-9.7-13.7-16.5-13.7
		c-6.8,0-11.5,6.7-16.5,13.8c-2,2.9-5.7,8.1-7.6,9c-1.9-0.9-5.5-6.3-7.5-9.2c-4.9-7.1-9.4-13.8-16.2-13.9h-0.1
		c-6.8,0-11.5,6.6-16.6,13.6c-2.2,3-5.8,8-7.7,8.9c-1.9-1-5.4-6.4-7.4-9.3c-4.7-7.2-9.2-13.9-16-14.1H154c-6.7,0-11.6,6.5-16.7,13.3
		c-2.2,3-5.9,7.9-7.8,8.8c-1.9-1-5.4-6.5-7.3-9.5c-4.6-7.2-9-14-15.7-14.3c-6.9-0.4-12.2,6.5-17.3,13.1c-2.3,2.9-6,7.7-7.8,8.6
		c-1.9-1-5.3-6.6-7.2-9.7c-3.3-5.4-6.4-10.6-10.6-13.1c-1.4-0.9-3-1.4-4.7-1.5c-0.2,0-0.5,0-0.7,0c-1.9,0-3.7,0.5-5.4,1.5
		c-4.2,2.3-7.8,6.9-11.3,11.4c-2.2,2.9-6,7.6-7.7,8.3c-4.1-0.4-9.3-1.9-11.7-6.8c-2.8-5.7-1-14.4,4.8-23.3l19.9-32
		C55.7,80,71,71.6,87.7,71.5L378.6,71.5z"/>
	<path class="st2" d="M477.8,149.6c-2.3,4.8-7.6,6.3-11.6,6.7h-0.2c-1.8-0.7-5.5-5.4-7.8-8.3c-3.4-4.3-6.8-8.7-10.8-11.1
		c-1.7-1-3.5-1.7-5.4-1.8c-0.4,0-0.9,0-1.3,0c-1.5,0.1-2.9,0.5-4.1,1.2c-4.4,2.3-7.7,7.7-11.1,13.4c-1.9,3.1-5.3,8.7-7.2,9.7
		c-1.9-0.8-5.6-5.6-7.9-8.6c-5.1-6.6-10.4-13.4-17.3-13.1c-6.7,0.3-11.1,7.1-15.7,14.3c-1.9,3-5.4,8.5-7.3,9.5
		c-1.9-0.9-5.5-5.8-7.8-8.8c-5.2-6.9-10-13.5-17-13.3c-6.8,0.2-11.2,7-16,14.1c-2,3-5.6,8.4-7.4,9.3c-0.6-0.3-1.3-0.9-2.1-1.8
		l26.3-40.3l32.3-49.5h33.7c16.7,0,32,8.5,40.8,22.7l19.9,32.1C478.8,135.2,480.6,143.9,477.8,149.6z"/>
	<polygon class="st1" points="442,120.9 439.7,120.9 442,120.9 	"/>
	<polygon class="st1" points="436.6,120.9 436.6,120.9 439.7,120.9 	"/>
	<path class="st3" d="M33.7,161.8L33.7,161.8c-18.9-1.7-23.7-19-11.2-38.4c6.6-10.7,13.3-21.3,19.9-32C52,75.7,69.2,66.1,87.7,66.1
		l294.4,0l3.5-5.4l-298,0c-20.5,0-39.2,10.4-50,27.8l-19.8,31.9c-7.9,12.3-9.9,24.7-5.4,33.9c3.6,7.4,11,12,20.7,12.9l0.3,0
		c6.6,0.3,11.5-5.9,16.6-12.5c0.7-1,1.7-2.2,2.7-3.4v-8C46.3,149.2,39.6,162.3,33.7,161.8z"/>
	<path class="st3" d="M482.1,120.5l-19.9-32c-10.8-17.4-29.5-27.8-50-27.8l-26.7,0l-3.5,5.4l30.2,0c18.5,0,35.6,9.5,45.4,25.2
		c6.6,10.7,13.2,21.3,19.9,32c12.5,19.4,7.7,36.7-11.1,38.4h-0.3c-5.8,0.5-12.4-11.9-18.7-18v8.1c0.8,1,1.6,2,2.2,2.8
		c5.2,6.6,10.1,12.8,16.7,12.5l0.6,0c9.7-0.9,17-5.4,20.6-12.8C492,145.1,490.1,132.7,482.1,120.5z"/>
	<path class="st3" d="M418.5,164.9c-7.9,0.4-17-22.1-25.1-21.7c-7.9,0.4-14.9,23.6-23,23.9c-7.9,0.3-16.7-22.4-24.7-22.1
		c-7.9,0.2-15.4,23.4-23.4,23.5c-1.7,0-3.4-1-5.2-2.6l-3,4.6c2.5,2.2,5.2,3.5,8.3,3.5c6.9-0.1,11.4-7,16.2-14.3
		c2.1-3.1,5.5-8.3,7.3-9.2c1.9,0.8,5.8,6.1,8,8.9c5.1,6.8,9.8,13.2,16.4,13.2c0.1,0,0.3,0,0.4,0c6.9-0.3,11.6-7.5,16.1-14.6
		c2-3.1,5.3-8.3,7.1-9.3c1.9,0.8,6,6,8.2,8.8c5.3,6.8,10.3,13.2,17,12.8c7-0.4,11.5-7.8,15.9-15c0.5-0.9,1.2-2,1.9-3v-9.1
		C430.6,149.4,425.1,164.5,418.5,164.9z"/>
	<path class="st3" d="M80.9,170.4c6.8,0.3,11.7-6,17-12.8c2.2-2.8,6.3-8.1,8.2-8.8c1.8,1,5.1,6.1,7.1,9.3c4.5,7,9.1,14.3,16.1,14.6
		c6.8,0.2,11.7-6.3,16.8-13.2c2.1-2.9,6.1-8.1,8-8.9c1.8,0.9,5.2,6.1,7.3,9.2c4.8,7.3,9.3,14.1,16.2,14.3c0.1,0,0.1,0,0.2,0
		c6.7,0,11.4-6.5,16.4-13.5c2.1-2.9,5.9-8.1,7.8-9c1.8,0.9,5.5,6.2,7.4,9.1c4.9,7.2,9.5,13.9,16.4,14c0,0,0,0,0.1,0
		c6.8,0,11.5-6.7,16.5-13.7c2-2.9,5.8-8.2,7.6-9.1c1.9,0.9,5.6,6.2,7.6,9.1c5,7.1,9.7,13.7,16.5,13.7c0,0,0,0,0.1,0
		c6.9,0,11.5-6.8,16.4-14c2-2.9,5.6-8.2,7.4-9.1c1.9,0.9,5.7,6.1,7.8,9c2.7,3.8,5.4,7.4,8.4,10l3-4.6c-6.4-6-12.9-20-19.2-19.9
		c-8,0.1-15.7,23.1-23.8,23.2c-8,0.1-16.1-22.9-24.1-22.9c-8,0-16.1,22.9-24.1,22.9c-8-0.1-15.8-23.1-23.8-23.2
		c-8-0.1-16.5,22.7-24.4,22.5c-8.1-0.2-15.5-23.3-23.4-23.5c-8.1-0.2-16.8,22.4-24.8,22.2c-8.1-0.3-15.2-23.6-23.1-23.9
		c-8.1-0.4-17.3,22.1-25.1,21.7c-6.3-0.4-11.7-14.6-17.5-21.1v9.4c0.5,0.8,0.9,1.5,1.3,2.2C69.4,162.6,73.9,170,80.9,170.4z
		 M106.3,148.7L106.3,148.7L106.3,148.7z"/>
	<path class="st3" d="M58.2,146.1C58.2,146.1,58.3,146.1,58.2,146.1l0.1-5.5c-1.8,0-3.6,1.1-5.4,2.7v8
		C54.8,148.9,57,146.5,58.2,146.1z"/>
	<path class="st3" d="M442,140.6v5.7c1.4,0.9,3.6,3.3,5.4,5.6v-8.1C445.6,142,443.8,140.8,442,140.6z"/>
	<path class="st3" d="M63.7,153.2v-9.4c-1.6-1.9-3.3-3.1-5.1-3.2c-0.1,0-0.2,0-0.4,0v5.5C59.6,147,61.9,150.3,63.7,153.2z"/>
	<path class="st3" d="M436.6,143.2v9.1c1.7-2.7,3.7-5.6,4.9-6.3c0.2,0.1,0.3,0.2,0.5,0.3v-5.7c-0.3,0-0.6-0.1-0.9,0
		C439.5,140.6,438,141.6,436.6,143.2z"/>
	<path class="st3" d="M87.7,66.1c-18.5,0-35.6,9.6-45.4,25.2c-6.6,10.7-13.3,21.4-19.9,32c-12.5,19.4-7.6,36.7,11.2,38.4h0
		c6,0.5,12.7-12.6,19.2-18.5v-6.7c-4.2,2.3-7.8,6.9-11.3,11.4c-2.2,2.9-6,7.6-7.7,8.3c-4.1-0.4-9.3-1.9-11.7-6.8
		c-2.8-5.7-1-14.4,4.8-23.3l19.9-32C55.7,80,71,71.6,87.7,71.5l290.9,0l3.5-5.4L87.7,66.1z"/>
	<path class="st3" d="M412.3,71.5c16.7,0,32,8.5,40.8,22.7l19.9,32.1c5.8,8.9,7.6,17.6,4.8,23.3c-2.4,4.8-7.6,6.3-11.6,6.7h-0.2
		c-1.7-0.6-5.5-5.4-7.8-8.3c-3.4-4.3-6.8-8.7-10.8-11.1v6.8c6.4,6,12.9,18.4,18.7,18h0.3c18.8-1.7,23.6-19,11.1-38.4
		c-6.6-10.7-13.2-21.3-19.9-32c-9.7-15.7-26.9-25.2-45.4-25.2l-30.2,0l-3.5,5.4L412.3,71.5z"/>
	<path class="st3" d="M425.4,149.7c-1.9,3.1-5.3,8.7-7.2,9.7c-1.9-0.8-5.6-5.6-7.8-8.6c-5.1-6.6-10.4-13.4-17.3-13.1
		c-6.7,0.3-11.1,7.1-15.7,14.3c-1.9,3-5.4,8.5-7.3,9.5c-1.9-0.9-5.5-5.8-7.7-8.7c-5.2-7-10-13.5-17-13.3c-6.8,0.2-11.2,7-16,14.1
		c-2,3-5.5,8.4-7.4,9.3c-0.6-0.3-1.3-0.9-2.1-1.8l-3,4.6c1.7,1.6,3.5,2.7,5.2,2.6c8.1-0.2,15.5-23.3,23.4-23.5
		c8.1-0.2,16.8,22.4,24.7,22.1c8.1-0.3,15.2-23.6,23-23.9c8.1-0.4,17.3,22.1,25.1,21.7c6.5-0.4,12.1-15.5,18-21.7v-6.8
		C432.2,138.7,428.9,144.1,425.4,149.7z"/>
	<path class="st3" d="M314.4,154.1c-5-7-9.8-13.6-16.6-13.6h-0.1c-6.8,0.1-11.4,6.8-16.2,13.9c-2,2.9-5.6,8.3-7.5,9.2
		c-1.9-0.9-5.6-6.2-7.6-9.1c-5-7.1-9.7-13.7-16.5-13.7c-6.8,0-11.5,6.7-16.5,13.8c-2,2.9-5.7,8.1-7.6,9c-1.9-0.9-5.5-6.3-7.5-9.2
		c-4.9-7.1-9.4-13.8-16.2-13.9h-0.1c-6.8,0-11.5,6.6-16.6,13.6c-2.2,3-5.8,8-7.7,8.9c-1.9-1-5.4-6.4-7.4-9.3
		c-4.7-7.2-9.2-13.9-16-14.1H154c-6.7,0-11.6,6.5-16.7,13.3c-2.2,3-5.9,7.9-7.8,8.8c-1.9-1-5.4-6.5-7.3-9.5c-4.6-7.2-9-14-15.7-14.3
		c-6.9-0.4-12.2,6.5-17.3,13.1c-2.3,2.9-6,7.7-7.8,8.6c-1.9-1-5.3-6.6-7.2-9.7c-3.3-5.4-6.4-10.6-10.6-13.1v7.1
		c5.8,6.6,11.2,20.8,17.5,21.1c7.9,0.4,17-22.1,25.1-21.7c7.9,0.4,14.9,23.6,23,23.9c7.9,0.3,16.7-22.4,24.8-22.1
		c7.9,0.2,15.4,23.4,23.5,23.5c8,0.2,16.4-22.6,24.4-22.5c8,0.1,15.8,23.1,23.8,23.2c8,0,16.1-22.9,24.1-22.9
		c8,0,16.1,22.9,24.1,22.9c8-0.1,15.8-23.1,23.8-23.2c6.3-0.1,12.9,13.9,19.2,19.9l3-4.6C318.2,159.3,315.9,156.2,314.4,154.1z"/>
	<path class="st3" d="M58.3,135.2v5.4c-1.8,0-3.6,1.1-5.4,2.7v-6.7C54.5,135.7,56.3,135.2,58.3,135.2z"/>
	<path class="st3" d="M442,135.1v5.5c1.8,0.2,3.6,1.4,5.4,3.2v-6.8C445.7,135.9,443.9,135.2,442,135.1z"/>
	<path class="st3" d="M63.7,136.7v7.1c-1.6-1.9-3.3-3.1-5.1-3.2c-0.1,0-0.2,0-0.4,0v-5.4c0.2,0,0.5,0,0.7,0
		C60.7,135.3,62.3,135.8,63.7,136.7z"/>
	<path class="st3" d="M440.7,135.1c-1.5,0.1-2.9,0.5-4.1,1.2v6.8c1.5-1.5,3-2.5,4.5-2.6c0.3,0,0.6,0,0.9,0v-5.5
		C441.6,135.1,441.2,135.1,440.7,135.1z"/>
</g>
</svg>
