<?xml version="1.0" encoding="utf-8"?>
<!-- Generator: Adobe Illustrator 22.0.1, SVG Export Plug-In . SVG Version: 6.00 Build 0)  -->
<svg version="1.1" id="Layer_1" xmlns="http://www.w3.org/2000/svg" xmlns:xlink="http://www.w3.org/1999/xlink" x="0px" y="0px"
	 viewBox="0 0 1000 1000" style="enable-background:new 0 0 1000 1000;" xml:space="preserve">
<style type="text/css">
	.st0{fill:#37B34A;}
	.st1{fill:#8BC53F;}
	.st2{fill:#00ADEE;}
	.st3{fill:#1B75BB;}
	.st4{fill:#2B388F;}
	.st5{fill:none;}
	.st6{font-family:'JosefinSans';}
	.st7{font-size:97.3653px;}
	.st8{fill:#333333;}
</style>
<g>
	<path class="st0" d="M621.1,556l-120,101.8C617.4,651.1,621.1,556,621.1,556z"/>
	<path class="st0" d="M362.7,556l120,101.8C366.5,651.1,362.7,556,362.7,556z"/>
	<path class="st1" d="M501.1,657.7l120-101.8C519.3,558,501.1,657.7,501.1,657.7z"/>
	<path class="st1" d="M482.7,657.7L362.7,556C464.5,558,482.7,657.7,482.7,657.7z"/>
	<g>
		<path class="st2" d="M564.9,354.5c0,0,29.3,110.3-60.5,211.5c13.5-0.5,26.2-4.2,37.5-10.3c28.9-41.2,41.5-80.3,46.7-109.4
			C587.3,419.8,581.4,386.9,564.9,354.5z"/>
		<path class="st2" d="M467.1,211.4c71.3,101.5,8.5,165.4,8.5,165.4C393.7,474.6,445.8,552,445.8,552c1.8-60,62.3-127.7,62.3-127.7
			C605.1,299.8,467.1,211.4,467.1,211.4z"/>
	</g>
	<g>
		<path class="st3" d="M584.2,501.2L584.2,501.2c0,0,0-0.1,0.1-0.3c1.4-5.5,3.4-13.1,3.7-19c0.9-9.3,1.4-21.6,0.7-35.8
			c-5.2,29.1-17.8,68.2-46.7,109.4C562.7,544.3,578.3,524.7,584.2,501.2z"/>
		<path class="st3" d="M467.1,211.4c26.8,69.4-21.3,137.3-21.3,137.3c-4.5,5.9-8.5,11.6-12.3,17.2c-41.7,68.7-14.4,161.9-14.4,161.9
			l0,0c12.9,16.4,26.7,24.1,26.7,24.1s-52.1-77.4,29.8-175.2C475.6,376.8,538.4,313,467.1,211.4z"/>
	</g>
	<g>
		<path class="st4" d="M564.9,354.5c1.4,27.9-7.4,59.8-34.4,94.4c0,0-50,56.1-60.4,111.4c9.6,3.7,20.1,5.8,31,5.8
			c1.1,0,2.2-0.1,3.4-0.1C594.3,464.8,564.9,354.5,564.9,354.5z"/>
		<path class="st4" d="M433.5,366c-54.8,81.8-36,134.2-14.4,161.9l0,0C419.1,527.9,391.8,434.7,433.5,366z"/>
		<path class="st4" d="M491.9,635c0,0-14.1-24-18-56.4c0,0,8.6,3.2,26.1,3.3C500,582,487.3,613.9,491.9,635z"/>
	</g>
</g>
<rect y="689.7" class="st5" width="1000" height="96.4"/>
<text transform="matrix(1 0 0 1 15.8066 764.2646)"><tspan x="0" y="0" class="st2 st6 st7">BLUE</tspan><tspan x="238.8" y="0" class="st8 st6 st7">FLOWER MEDIA</tspan></text>
</svg>
