<?xml version="1.0" encoding="utf-8"?>
<!-- Generator: Adobe Illustrator 22.0.1, SVG Export Plug-In . SVG Version: 6.00 Build 0)  -->
<svg version="1.1" id="Layer_1" xmlns="http://www.w3.org/2000/svg" xmlns:xlink="http://www.w3.org/1999/xlink" x="0px" y="0px"
	 viewBox="0 0 3005 392.9" style="enable-background:new 0 0 3005 392.9;" xml:space="preserve">
<style type="text/css">
	.st0{fill:#38B34A;}
	.st1{fill:#8CC540;}
	.st2{fill:#29ABE2;}
	.st3{fill:#1D76BB;}
	.st4{fill:#2A3B8F;}
	.st5{fill:#00ADEE;}
	.st6{fill:#333333;}
</style>
<g>
	<path class="st0" d="M257.9,297.9L157.7,383C254.8,377.4,257.9,297.9,257.9,297.9z"/>
	<path class="st0" d="M41.9,297.9L142.1,383C45,377.4,41.9,297.9,41.9,297.9z"/>
	<path class="st1" d="M157.6,382.8l100.2-85.1C172.8,299.5,157.6,382.8,157.6,382.8z"/>
	<path class="st1" d="M142.2,382.8L42,297.8C127,299.5,142.2,382.8,142.2,382.8z"/>
	<g>
		<path class="st2" d="M211,129.5c0,0,24.5,92.2-50.6,176.7c11.3-0.4,21.9-3.6,31.4-8.7c24.1-34.5,34.7-67.1,39-91.4
			C229.5,184.1,224.6,156.5,211,129.5z"/>
		<path class="st2" d="M129.1,9.9c59.6,84.9,7.1,138.2,7.1,138.2c-68.4,81.7-24.9,146.4-24.9,146.4c1.6-50.2,52-106.8,52-106.8
			C244.4,83.8,129.1,9.9,129.1,9.9z"/>
	</g>
	<g>
		<path class="st3" d="M227,252.1L227,252.1c0,0,0-0.1,0-0.2c1.1-4.7,2.9-10.9,3-15.9c0.8-7.8,1.2-18,0.6-29.9
			c-4.3,24.4-14.9,57.1-39,91.4C209.1,288.1,222.1,271.7,227,252.1z"/>
		<path class="st3" d="M129.1,9.9c22.4,57.9-17.8,114.8-17.8,114.8c-3.8,4.9-7.1,9.7-10.2,14.5c-34.8,57.4-12,135.2-12,135.2l0,0
			c10.8,13.7,22.4,20.1,22.4,20.1s-43.5-64.6,24.9-146.4C136.2,148.2,188.7,94.8,129.1,9.9z"/>
	</g>
	<g>
		<path class="st4" d="M211,129.5c1.1,23.4-6.2,49.9-28.8,78.8c0,0-41.8,46.9-50.5,93.1c8,3.1,16.8,4.9,25.9,4.9
			c0.9,0,1.9-0.1,2.8-0.1C235.4,221.6,211,129.5,211,129.5z"/>
		<path class="st4" d="M101.1,139.1c-45.8,68.4-30.1,112.1-12,135.2l0,0C89.1,274.4,66.3,196.4,101.1,139.1z"/>
		<path class="st4" d="M149.9,363.9c0,0-11.8-20-15-47.2c0,0,7.1,2.7,21.8,2.8C156.7,319.6,146,346.3,149.9,363.9z"/>
	</g>
</g>
<g>
	<path class="st5" d="M362.6,292.6v-192h50.8c9.4,0,17.8,0.9,25.4,2.8c7.6,1.9,14,4.8,19.3,8.7c5.3,4,9.4,9.1,12.3,15.4
		c2.9,6.3,4.4,13.9,4.4,22.9c0,4.9-0.5,9.8-1.5,14.6c-1,4.8-2.6,9.1-4.8,13.1c-2.2,4-5.1,7.5-8.7,10.5c-3.6,3-8.1,5.3-13.4,6.9
		c4.6,0.9,9.1,2.4,13.6,4.5c4.5,2.1,8.5,5,12,8.6c3.5,3.6,6.4,8.1,8.6,13.4c2.2,5.3,3.3,11.6,3.3,18.8c0,9.2-1.8,17-5.3,23.6
		c-3.5,6.5-8.2,11.9-14,16.2c-5.8,4.2-12.5,7.3-20.1,9.3c-7.6,1.9-15.4,2.9-23.6,2.9H362.6z M391.8,126.8v56.7h26
		c9.5,0,16.7-2.8,21.4-8.5c4.8-5.6,7.1-12.5,7.1-20.7c0-9.5-2.9-16.5-8.6-20.9c-5.7-4.4-13.4-6.6-22.9-6.6H391.8z M391.8,208.1v58.3
		h27c5.1,0,9.9-0.6,14.4-1.9c4.5-1.2,8.4-3,11.8-5.4c3.4-2.4,6-5.4,7.9-9.1c1.9-3.7,2.9-8,2.9-13c0-5.5-1.2-10-3.4-13.6
		c-2.3-3.6-5.3-6.6-9.1-8.9c-3.8-2.3-8.1-3.9-13-4.9c-4.9-1-9.8-1.5-15-1.5H391.8z"/>
	<path class="st5" d="M519.9,292.6v-192h29.1V265h95.3v27.5H519.9z"/>
	<path class="st5" d="M739.7,294.7c-10.2,0-19.8-1.7-28.6-5c-8.8-3.4-16.6-8.1-23.2-14.2s-11.8-13.4-15.6-22
		c-3.8-8.6-5.7-18.1-5.7-28.7V100.6h29.1V224c0,6.2,1.1,11.9,3.3,17.1c2.2,5.2,5.3,9.8,9.3,13.8c4,4,8.6,7.1,13.9,9.3
		c5.3,2.2,11.1,3.3,17.5,3.3c6.2,0,12-1.1,17.3-3.3c5.4-2.2,10.1-5.3,14-9.3c4-4,7.1-8.6,9.4-13.8c2.3-5.2,3.4-10.9,3.4-17.1V100.6
		h29.1v124.2c0,10.6-1.9,20.2-5.7,28.7c-3.8,8.6-9,15.9-15.6,22s-14.4,10.8-23.3,14.2C759.5,293,750,294.7,739.7,294.7z"/>
	<path class="st5" d="M858.1,292.6v-192h126v26.2h-96.9v56.1h86.3v26.7h-86.3v56.1h100.6v26.7H858.1z"/>
</g>
<path class="st6" d="M1021.5,292.6v-192h114.9v26.7h-86.1v58h75.2v27h-75.2v80.2H1021.5z"/>
<path class="st6" d="M1168.4,292.6v-192h29.1V265h95.3v27.5H1168.4z"/>
<path class="st6" d="M1300.6,196.7c0-13.2,2.6-25.8,7.7-37.7c5.1-11.9,12.1-22.4,21.1-31.4c8.9-9,19.3-16.1,31.1-21.3
	c11.8-5.2,24.5-7.8,38.1-7.8c13.4,0,26.1,2.6,38,7.8c11.9,5.2,22.3,12.3,31.2,21.3c8.9,9,16,19.5,21.2,31.4
	c5.2,11.9,7.8,24.5,7.8,37.7c0,13.6-2.6,26.3-7.8,38.1c-5.2,11.8-12.3,22.2-21.2,31.1c-8.9,8.9-19.3,15.9-31.2,21.1
	c-11.9,5.1-24.6,7.7-38,7.7c-13.6,0-26.3-2.6-38.1-7.7c-11.8-5.1-22.2-12.1-31.1-21.1c-8.9-8.9-15.9-19.3-21.1-31.1
	C1303.1,223,1300.6,210.3,1300.6,196.7z M1329.4,197c0,9.7,1.8,18.8,5.4,27.4c3.6,8.6,8.6,16,15,22.4s13.8,11.4,22.2,15.1
	c8.5,3.7,17.5,5.6,27,5.6c9.5,0,18.5-1.9,26.9-5.6c8.4-3.7,15.7-8.7,22-15.1c6.3-6.4,11.2-13.8,14.8-22.4c3.6-8.6,5.4-17.8,5.4-27.7
	c0-9.7-1.8-18.8-5.4-27.4c-3.6-8.6-8.6-16-15-22.4s-13.7-11.4-22.1-15.1c-8.4-3.7-17.3-5.6-26.9-5.6c-9.5,0-18.5,1.9-27,5.6
	c-8.5,3.7-15.8,8.7-22.1,15.1c-6.3,6.4-11.2,13.9-14.8,22.5C1331.2,178.1,1329.4,187.3,1329.4,197z"/>
<path class="st6" d="M1749.4,101.4c-6.4,16.8-13.1,34.4-20.3,52.8c-7.1,18.4-14.2,36.6-21.2,54.4c-7,17.8-13.6,34.8-19.7,50.8
	c-6.2,16.1-11.4,29.9-15.6,41.6l-42.9-107.2c-0.5-1.4-1-2.5-1.3-3.2c-0.4-0.7-0.7-1.8-1.1-3.2c0,0.7-0.1,1.4-0.3,2
	c-0.2,0.6-0.4,1.3-0.5,2c-0.2,0.7-0.4,1.4-0.5,2.1c-6,13.8-11.9,27.3-17.7,40.5c-2.5,5.7-5,11.5-7.7,17.5c-2.6,6-5.2,12-7.7,17.9
	c-2.5,5.9-4.9,11.6-7.3,17.1c-2.4,5.5-4.5,10.4-6.5,14.8c-12.7-33.4-25.5-66.6-38.4-99.8c-12.9-33.2-25.7-66.6-38.4-100.1h32.6
	c4.2,11.7,8.6,23.4,13.1,35.2c4.5,11.8,8.7,23.2,12.7,34.2c4,10.9,7.5,21.1,10.7,30.5c3.2,9.4,5.6,17.3,7.4,23.8l2.1,9.3
	c0.2-0.9,0.6-2.3,1.3-4.4c0.7-2,1.2-3.5,1.6-4.4c0.2-0.7,0.8-2.3,1.9-4.8c1.1-2.5,2.3-5.4,3.7-8.9c1.4-3.4,3-7.2,4.8-11.3
	c1.8-4.1,3.5-8.2,5.3-12.4c4.2-9.7,8.9-20.5,14-32.3c-3-8.3-5.7-16.1-7.9-23.3c-2.1-6.2-4.1-12.3-6-18.3c-1.9-6-3.2-10.3-4.1-13
	h27.8c7.6,20,14.7,38.4,21.2,55.3c2.6,7.2,5.3,14.5,8.1,21.7c2.7,7.2,5.3,13.9,7.7,20.1c2.4,6.2,4.5,11.6,6.2,16.3
	c1.8,4.7,3,8.1,3.7,10.2c0.5,1.6,0.9,3.1,1.2,4.6c0.3,1.5,0.6,3,0.9,4.6c0.4-1.6,0.7-3.2,0.9-4.8c0.3-1.6,0.6-3.1,0.9-4.5
	c1.6-6.9,4.1-15.1,7.4-24.6c3.4-9.5,7.1-19.8,11.3-30.7c4.1-10.9,8.5-22.3,13.1-34c4.6-11.7,9-23.2,13.2-34.3H1749.4z"/>
<path class="st6" d="M1775.1,292.6v-192h126v26.2h-96.9v56.1h86.3v26.7h-86.3v56.1h100.6v26.7H1775.1z"/>
<path class="st6" d="M1938.5,292.6v-192h52.4c10.1,0,19.3,1.3,27.7,4c8.4,2.6,15.6,6.6,21.7,11.8c6.1,5.2,10.8,11.6,14.2,19.1
	c3.4,7.5,5,16.1,5,25.8c0,5.3-0.5,10.6-1.6,15.8c-1.1,5.2-2.8,10.2-5.2,15.1c-2.4,4.9-5.4,9.4-9.1,13.5c-3.7,4.1-8.2,7.6-13.5,10.5
	c7.1,11.1,14.7,23.4,23,36.9c8.3,13.5,16.7,26.7,25.2,39.6h-34.7c-3.5-5.5-7.2-11.2-11-17.2c-3.8-6-7.6-12-11.4-17.9
	c-3.8-5.9-7.5-11.7-11.1-17.5c-3.6-5.7-7-11.1-10.2-16h-5.3h-27v68.6H1938.5z M1967.6,196.7h26.2c7.1,0,13-1.2,17.7-3.6
	c4.8-2.4,8.5-5.3,11.3-8.9c2.7-3.5,4.7-7.3,5.8-11.4c1.1-4.1,1.7-7.8,1.7-11.1c0-3.4-0.6-7-1.7-11c-1.1-4-3.1-7.7-6-11.1
	c-2.8-3.4-6.6-6.3-11.3-8.6c-4.7-2.3-10.5-3.4-17.3-3.4h-26.5V196.7z"/>
<path class="st6" d="M2165.7,92.1c1.6,2.5,4.9,7.2,9.9,14.2c5,7,10.9,15.1,17.5,24.2c6.6,9.2,13.6,18.9,21.1,29.3
	c7.4,10.3,14.4,20,20.9,29.1c6.5,9.1,12.2,17,17.1,23.7c4.9,6.7,8.1,11.1,9.7,13.2c0.5-0.9,2.2-3.3,5-7.2c2.8-3.9,6.3-8.7,10.5-14.6
	c4.1-5.8,8.9-12.4,14.2-19.7c5.3-7.3,10.7-14.8,16.3-22.5c5.6-7.7,11-15.3,16.4-22.9c5.4-7.6,10.4-14.5,15-20.8
	c4.6-6.3,8.5-11.7,11.8-16.4c3.3-4.7,5.6-7.9,7-9.7v200.5h-30.7V185.1c0-1.4,0.1-2.9,0.4-4.5s0.4-2.7,0.4-3.4
	c-1.6,2.1-4.1,5.7-7.5,10.7s-7.4,10.8-11.9,17.2c-4.5,6.4-9.2,13.2-14.2,20.4c-4.9,7.1-9.6,13.9-14,20.3c-4.4,6.4-8.3,12-11.7,16.8
	c-3.4,4.9-5.7,8.3-6.9,10.2c-1.2-1.6-3.7-4.9-7.3-9.9c-3.6-5-7.9-10.9-12.7-17.6c-4.9-6.7-10-13.9-15.4-21.4
	c-5.4-7.6-10.4-14.7-15-21.2c-4.6-6.5-8.6-12.1-11.9-16.8c-3.4-4.7-5.3-7.5-5.8-8.6c0,0.7,0.1,1.9,0.4,3.4s0.4,3.1,0.4,4.5v107.5
	h-28.9V92.1z"/>
<path class="st6" d="M2405.1,292.6v-192h126v26.2h-96.9v56.1h86.3v26.7h-86.3v56.1h100.6v26.7H2405.1z"/>
<path class="st6" d="M2568.4,100.6h48.2c19.4,0,35.8,2.9,49.3,8.7c13.4,5.8,24.3,13.5,32.7,22.9c8.4,9.4,14.5,20,18.3,31.8
	c3.8,11.7,5.7,23.4,5.7,35.1c0,14.3-2.6,27.2-7.7,38.8c-5.1,11.6-12.1,21.4-20.9,29.5c-8.8,8.1-19.1,14.3-30.7,18.7
	c-11.7,4.3-24,6.5-37.1,6.5h-57.7V100.6z M2621.9,265c10.2,0,19.7-1.5,28.5-4.5c8.7-3,16.3-7.4,22.8-13.1
	c6.4-5.7,11.5-12.8,15.1-21.2c3.6-8.4,5.4-18,5.4-29c0-11.7-2-21.8-6.1-30.5c-4.1-8.6-9.4-15.8-15.9-21.6
	c-6.5-5.7-13.9-10-22.1-12.7c-8.2-2.7-16.6-4.1-25-4.1h-27.3V265H2621.9z"/>
<path class="st6" d="M2756.7,100.6h28.9v192h-28.9V100.6z"/>
<path class="st6" d="M2951.6,292.6c-0.9-1.9-2.1-4.8-3.7-8.5s-3.4-8-5.4-12.8c-2-4.9-4.2-10.2-6.6-15.9c-2.4-5.7-4.8-11.7-7.3-17.9
	h-67.8l-22.8,55.1h-28.6l85.5-201c1.1,2.5,3,7,5.7,13.5c2.7,6.5,6,14.3,9.8,23.4c3.8,9.1,8,19.2,12.7,30.2
	c4.7,11,9.4,22.2,14.3,33.5c4.9,11.3,9.6,22.4,14.3,33.4c4.7,10.9,9,21,12.8,30.2c3.9,9.2,7.2,17,9.9,23.4
	c2.7,6.4,4.6,10.9,5.7,13.4H2951.6z M2870.9,213.1h47.9c-2.5-5.8-4.8-11.4-7-16.8c-2.2-5.4-4.2-10.3-6.1-14.8s-3.5-8.4-4.9-11.8
	c-1.4-3.4-2.5-6-3.2-7.9c-0.2-0.4-0.6-1.6-1.2-3.7c-0.6-2.1-1.1-4.1-1.5-5.8c-0.4,1.8-0.9,3.7-1.6,5.8c-0.7,2.1-1.2,3.4-1.3,3.7
	L2870.9,213.1z"/>
</svg>
