<?xml version="1.0" encoding="utf-8"?>
<!-- Generator: Adobe Illustrator 22.0.1, SVG Export Plug-In . SVG Version: 6.00 Build 0)  -->
<svg version="1.1" id="Layer_1" xmlns="http://www.w3.org/2000/svg" xmlns:xlink="http://www.w3.org/1999/xlink" x="0px" y="0px"
	 viewBox="0 0 2943 380.9" style="enable-background:new 0 0 2943 380.9;" xml:space="preserve">
<style type="text/css">
	.st0{fill:#38B34A;}
	.st1{fill:#8CC540;}
	.st2{fill:#29ABE2;}
	.st3{fill:#1D76BB;}
	.st4{fill:#2A3B8F;}
	.st5{fill:#333333;}
</style>
<g>
	<path class="st0" d="M247,281.7l-90.1,76.5C244.2,353.2,247,281.7,247,281.7z"/>
	<path class="st0" d="M52.8,281.7l90.1,76.5C55.6,353.2,52.8,281.7,52.8,281.7z"/>
	<path class="st1" d="M156.8,358.1l90.1-76.5C170.5,283.2,156.8,358.1,156.8,358.1z"/>
	<path class="st1" d="M143,358.1l-90.1-76.5C129.3,283.2,143,358.1,143,358.1z"/>
	<g>
		<path class="st2" d="M204.8,130.3c0,0,22,82.9-45.5,158.9c10.2-0.4,19.7-3.2,28.2-7.8c21.7-31,31.2-60.3,35.1-82.2
			C221.5,179.4,217.1,154.6,204.8,130.3z"/>
		<path class="st2" d="M131.2,22.8c53.6,76.3,6.4,124.3,6.4,124.3c-61.5,73.5-22.4,131.6-22.4,131.6c1.4-45.1,46.8-96,46.8-96
			C234.9,89.2,131.2,22.8,131.2,22.8z"/>
	</g>
	<g>
		<path class="st3" d="M219.2,240.5L219.2,240.5c0,0,0-0.1,0-0.2c1-4.2,2.6-9.8,2.7-14.3c0.7-7,1.1-16.2,0.5-26.9
			c-3.9,21.9-13.4,51.3-35.1,82.2C203.1,272.9,214.8,258.2,219.2,240.5z"/>
		<path class="st3" d="M131.2,22.8c20.1,52.1-16,103.2-16,103.2c-3.4,4.4-6.4,8.7-9.2,13c-31.3,51.6-10.8,121.6-10.8,121.6l0,0
			c9.7,12.3,20.1,18.1,20.1,18.1s-39.1-58.1,22.4-131.6C137.6,147.1,184.8,99.1,131.2,22.8z"/>
	</g>
	<g>
		<path class="st4" d="M204.8,130.3c1,21-5.6,44.9-25.9,70.9c0,0-37.6,42.2-45.4,83.7c7.2,2.8,15.1,4.4,23.3,4.4
			c0.8,0,1.7-0.1,2.5-0.1C226.8,213.1,204.8,130.3,204.8,130.3z"/>
		<path class="st4" d="M106,138.9c-41.2,61.5-27.1,100.8-10.8,121.6l0,0C95.2,260.6,74.7,190.5,106,138.9z"/>
		<path class="st4" d="M149.9,341.1c0,0-10.6-18-13.5-42.4c0,0,6.4,2.4,19.6,2.5C156,301.2,146.4,325.2,149.9,341.1z"/>
	</g>
</g>
<g>
	<path class="st2" d="M360.6,283.9V97h43.7c8.7,0,16.6,0.9,23.7,2.6c7.1,1.7,13.1,4.5,18.2,8.4c5.1,3.8,8.9,8.8,11.6,14.9
		c2.7,6.1,4.1,13.5,4.1,22.2c0,5.1-0.5,9.9-1.6,14.5c-1,4.6-2.7,8.9-5,12.8c-2.3,3.9-5.2,7.3-8.9,10.2c-3.7,2.9-8.2,5.1-13.6,6.7
		c4.9,1,9.6,2.7,14.3,5c4.6,2.3,8.7,5.2,12.3,8.9c3.6,3.7,6.5,8.1,8.6,13.2c2.2,5.1,3.3,11.1,3.3,17.9c0,8.4-1.7,15.7-5,22
		c-3.3,6.3-7.7,11.4-13.2,15.4c-5.5,4-11.8,7-19,9c-7.2,2-14.6,3-22.2,3H360.6z M378.4,113.2v68.8h31.4c11.3,0,19.9-3.4,25.7-10.1
		c5.8-6.7,8.6-15.2,8.6-25.5c0-11.7-3.5-20.2-10.5-25.4c-7-5.2-16.1-7.9-27.2-7.9H378.4z M378.4,197.5v70.1h31.9
		c5.9,0,11.5-0.7,16.8-2.2c5.2-1.5,9.8-3.7,13.7-6.5c3.9-2.9,7-6.5,9.3-10.9c2.3-4.4,3.4-9.4,3.4-15.2c0-6.3-1.3-11.7-3.9-16.2
		c-2.6-4.5-6.2-8.2-10.6-11c-4.4-2.8-9.5-4.8-15.2-6.2c-5.7-1.3-11.5-2-17.4-2H378.4z"/>
	<path class="st2" d="M512.7,283.9V97h17.8v169.9H630v17H512.7z"/>
	<path class="st2" d="M720.8,286c-9.4,0-18.2-1.5-26.3-4.6c-8.1-3.1-15.1-7.4-21.1-13c-5.9-5.6-10.6-12.4-14-20.5
		c-3.4-8.1-5.1-17.3-5.1-27.6V97h17.8v122.5c0,7.5,1.2,14.3,3.7,20.4c2.4,6.1,5.8,11.3,10.2,15.6c4.4,4.3,9.5,7.6,15.4,9.9
		c5.9,2.4,12.4,3.5,19.4,3.5c6.8,0,13.2-1.2,19.1-3.5c5.9-2.4,11.1-5.7,15.4-9.9c4.4-4.3,7.8-9.5,10.3-15.6
		c2.5-6.1,3.8-12.9,3.8-20.4V97h17.8v123.3c0,10.3-1.7,19.5-5.1,27.6c-3.4,8.1-8.1,15-14.1,20.5c-6,5.6-13.1,9.9-21.2,13
		C738.7,284.5,730,286,720.8,286z"/>
	<path class="st2" d="M838.8,283.9V97h117.8v16.2h-100v68.3h89.5v16.8h-89.5v68.8h103.7v16.8H838.8z"/>
	<path class="st5" d="M999,283.9V97h107.1v16.5h-89.3v70.7h78.8v16.7h-78.8v83H999z"/>
	<path class="st5" d="M1143.5,283.9V97h17.8v169.9h99.5v17H1143.5z"/>
	<path class="st5" d="M1267.3,190.7c0-13.1,2.5-25.4,7.5-37c5-11.6,11.8-21.8,20.4-30.5c8.6-8.7,18.8-15.6,30.4-20.7
		c11.6-5.1,24-7.6,37-7.6s25.5,2.5,37.2,7.6c11.7,5.1,21.9,12,30.5,20.7c8.6,8.7,15.5,18.9,20.5,30.5c5.1,11.6,7.6,24,7.6,37
		c0,13.1-2.5,25.4-7.6,37c-5.1,11.6-11.9,21.7-20.5,30.4c-8.6,8.6-18.8,15.4-30.5,20.4c-11.7,5-24.1,7.5-37.2,7.5s-25.4-2.5-37-7.5
		c-11.6-5-21.7-11.8-30.4-20.4c-8.6-8.6-15.4-18.8-20.4-30.4C1269.8,216.2,1267.3,203.8,1267.3,190.7z M1285.1,190.7
		c0,10.8,2,21,6.2,30.5c4.1,9.5,9.6,17.8,16.6,24.9c7,7.1,15.2,12.7,24.6,16.8c9.4,4.1,19.5,6.2,30.1,6.2c10.6,0,20.7-2,30.2-6.2
		c9.5-4.1,17.8-9.7,24.9-16.8c7.1-7.1,12.6-15.4,16.8-24.9c4.1-9.5,6.2-19.7,6.2-30.5c0-10.8-2.1-21-6.2-30.5
		c-4.1-9.5-9.7-17.8-16.8-25c-7.1-7.2-15.4-12.8-24.9-16.9c-9.5-4.1-19.6-6.2-30.2-6.2c-10.8,0-20.9,2.1-30.2,6.2
		c-9.3,4.1-17.5,9.7-24.6,16.9c-7.1,7.2-12.6,15.5-16.6,25C1287.1,169.7,1285.1,179.9,1285.1,190.7z"/>
	<path class="st5" d="M1707.3,97.5c-4.4,10.8-9,22.5-14,35.1c-5,12.6-10,25.3-15.1,38.3c-5.1,13-10,25.8-14.9,38.3
		c-4.9,12.6-9.4,24.3-13.6,35.1c-4.2,10.8-7.9,20.4-11.1,28.8c-3.2,8.4-5.6,14.7-7.2,19.1l-40.8-105.5c-0.4-0.7-0.7-1.6-1.2-2.6
		c-0.4-1-0.7-2-0.9-2.9c-0.2,0.4-0.4,0.9-0.5,1.6c-0.2,0.7-0.4,1.3-0.5,1.8c-0.2,0.7-0.4,1.4-0.5,2.1c-5.2,13.6-10.4,26.9-15.4,39.8
		c-2.1,5.6-4.3,11.3-6.7,17.1c-2.4,5.8-4.7,11.6-6.9,17.4c-2.3,5.8-4.4,11.3-6.5,16.8c-2.1,5.4-3.9,10.3-5.5,14.7
		c-13.1-32.8-25.7-65.3-38-97.6c-12.2-32.3-24.9-64.7-38-97.4h20.2c3.3,8.6,6.9,17.8,10.7,27.6c3.8,9.9,7.7,19.8,11.5,29.7
		c3.8,9.9,7.5,19.7,11.1,29.2c3.6,9.5,6.8,18.2,9.8,26.2c3,7.9,5.5,14.8,7.5,20.5c2,5.8,3.4,9.9,4.1,12.3l2.1,7.9
		c0-0.5,0.3-1.8,1-3.8c0.7-2,1.1-3.3,1.3-3.8c0.2-0.5,0.7-2.1,1.7-4.7c1-2.6,2.1-5.9,3.5-9.8c1.4-3.9,3-8.3,4.8-13.2
		c1.8-4.9,3.7-9.9,5.6-14.9c4.5-11.9,9.5-25.1,14.9-39.8c-3.8-10.8-7.3-20.7-10.5-29.6c-1.4-3.8-2.7-7.6-4.1-11.3
		c-1.3-3.7-2.5-7.1-3.5-10.2c-1-3.1-2-5.8-2.7-8c-0.8-2.2-1.3-3.6-1.4-4.3h17.3c8.2,21.1,15.8,41.1,22.8,59.9c3,8,6,16.2,9.2,24.6
		c3.1,8.4,6.1,16.4,8.9,24c2.8,7.6,5.4,14.6,7.7,21.1c2.4,6.5,4.2,11.8,5.6,16c0.4,1.4,0.7,2.7,1.1,3.9c0.3,1.2,0.7,2.5,1,3.9
		l2.1-7.9c0.5-2.6,1.8-6.8,3.9-12.7c2.1-5.8,4.6-12.7,7.6-20.7c3-7.9,6.3-16.7,9.9-26.3c3.7-9.6,7.4-19.3,11.3-29.2
		c3.8-9.9,7.7-19.7,11.7-29.4c3.9-9.8,7.5-18.8,10.9-27.2H1707.3z"/>
	<path class="st5" d="M1739,283.9V97h117.8v16.2h-100v68.3h89.5v16.8h-89.5v68.8h103.7v16.8H1739z"/>
	<path class="st5" d="M1898.9,283.9V97h45.3c7.9,0,15.4,1.1,22.8,3.3c7.3,2.2,13.8,5.5,19.5,10.1c5.7,4.5,10.2,10.2,13.6,17
		c3.4,6.8,5.1,14.9,5.1,24.3c0,10.5-2.4,20.4-7.1,29.8c-4.7,9.4-12.5,16.7-23.3,21.7c1.6,2.6,3.7,6.1,6.3,10.5
		c2.6,4.4,5.5,9.1,8.6,14.3c3.1,5.1,6.4,10.5,9.8,16.1c3.4,5.6,6.7,10.9,9.8,16c3.1,5.1,6,9.7,8.6,13.9c2.6,4.2,4.7,7.5,6.3,9.9
		h-21.7c-1.4-2.1-3.2-5-5.5-8.6c-2.3-3.7-4.8-7.8-7.6-12.3c-2.8-4.5-5.8-9.3-8.9-14.4c-3.1-5.1-6.2-10-9.2-14.9
		c-3-4.9-5.8-9.5-8.5-13.9c-2.7-4.4-5-8.1-6.9-11.3c-1.7,0.4-3.6,0.5-5.5,0.5c-1.9,0-3.8,0-5.8,0h-28v74.9H1898.9z M1916.7,192h27.7
		c8.4,0,15.4-1.4,20.9-4.2c5.6-2.8,10-6.2,13.2-10.3c3.2-4.1,5.5-8.5,6.8-13.1c1.3-4.6,2-8.9,2-12.7c0-4.7-0.9-9.3-2.7-13.9
		c-1.8-4.5-4.5-8.6-8-12.2c-3.5-3.6-7.9-6.5-13.3-8.6c-5.4-2.2-11.6-3.3-18.6-3.3h-28V192z"/>
	<path class="st5" d="M2121.1,88.6c3.3,4.9,7.4,10.9,12.3,17.9c4.9,7.1,10.2,14.7,16,22.9c5.8,8.2,11.7,16.6,17.8,25.1
		c6.1,8.6,12,16.8,17.7,24.7c5.7,7.9,10.9,15.2,15.6,21.9c4.7,6.6,8.5,12,11.5,16.2c1.6-2.3,4.4-6.4,8.5-12.3
		c4.1-5.9,8.9-12.8,14.4-20.7s11.5-16.4,17.9-25.5c6.5-9.2,12.8-18.1,19-27c6.2-8.8,12-17,17.5-24.6s10-13.8,13.5-18.7v195.3h-18.8
		V150.7c0-1.6,0.1-3.2,0.3-5c0.2-1.7,0.3-3.2,0.3-4.4c-3,4.2-6.5,9.2-10.6,15.1c-4.1,5.8-8.4,12.1-13,18.7
		c-4.5,6.6-9.2,13.4-13.9,20.3c-4.7,6.9-9.3,13.6-13.6,20c-4.4,6.5-8.4,12.5-12.2,18.1c-3.8,5.6-6.9,10.2-9.3,13.9
		c-2.4-3.1-5.8-7.6-9.9-13.5c-4.2-5.8-8.8-12.4-13.7-19.6c-5-7.2-10.2-14.7-15.6-22.5c-5.4-7.8-10.4-15.1-15.1-21.9
		c-4.6-6.8-8.7-12.8-12.3-17.9c-3.6-5.1-6-8.7-7.2-10.6c0,1.2,0.1,2.7,0.4,4.4c0.3,1.7,0.4,3.4,0.4,5v133.2h-17.8V88.6z"/>
	<path class="st5" d="M2356.4,283.9V97h117.8v16.2h-100v68.3h89.5v16.8h-89.5v68.8h103.7v16.8H2356.4z"/>
	<path class="st5" d="M2516.6,97h43.5c18.8,0,34.8,2.9,47.9,8.6c13.1,5.8,23.7,13.2,31.9,22.2c8.2,9.1,14.1,19.2,17.8,30.5
		c3.7,11.3,5.5,22.4,5.5,33.4c0,14.1-2.5,26.9-7.6,38.2c-5.1,11.3-11.9,21-20.4,29.1c-8.6,8-18.5,14.2-29.8,18.5
		c-11.3,4.3-23.4,6.4-36.1,6.4h-52.6V97z M2567.4,266.9c10.8,0,21-1.7,30.5-5.2c9.5-3.5,17.8-8.5,24.9-15.1
		c7.1-6.5,12.6-14.5,16.6-23.9c4-9.4,6-20.1,6-31.9c0-10.8-1.9-20.9-5.6-30.2c-3.8-9.3-9.1-17.4-16.1-24.2
		c-7-6.8-15.4-12.2-25.1-16.1c-9.8-3.9-20.8-5.9-33-5.9h-30.9v152.6H2567.4z"/>
	<path class="st5" d="M2703.3,97h18.1v186.9h-18.1V97z"/>
	<path class="st5" d="M2895.4,283.9c-3.5-8-7.6-17.9-12.3-29.6c-4.7-11.7-9.6-24.1-14.7-37.2h-71.7c-5.1,13.1-9.9,25.5-14.7,37.2
		c-4.7,11.7-8.8,21.6-12.3,29.6h-17.8c2.6-6.3,6.1-14.6,10.5-25c4.4-10.4,9.1-21.8,14.1-34.2c5.1-12.4,10.3-25.3,15.7-38.6
		c5.4-13.3,10.6-26.2,15.7-38.6c5.1-12.4,9.7-23.7,14-34c4.3-10.3,7.8-18.7,10.6-25.1c2.6,6.5,6.1,14.8,10.5,25.1
		c4.4,10.3,9.1,21.6,14.1,34c5.1,12.4,10.3,25.3,15.8,38.6c5.5,13.3,10.8,26.2,15.8,38.6c5.1,12.4,9.7,23.8,14,34.2
		c4.3,10.4,7.8,18.7,10.6,25H2895.4z M2829.9,134.2c-3.5,8.2-7.6,18.2-12.4,30.1c-4.8,11.9-9.7,24.3-14.8,37.4h59.7
		c-5.2-13.1-10.2-25.6-14.9-37.4c-4.7-11.9-8.8-21.9-12.3-30.1c-0.4-0.7-0.8-1.9-1.3-3.5c-0.5-1.7-1-3.2-1.3-4.6
		c-0.4,1.4-0.8,2.9-1.3,4.6C2830.7,132.3,2830.3,133.5,2829.9,134.2z"/>
</g>
</svg>
