<svg xmlns="http://www.w3.org/2000/svg" viewBox="0 0 258.4 446.4"><defs><style>.cls-1{fill:#37b34a;}.cls-2{fill:#8bc53f;}.cls-3{fill:#00adee;}.cls-4{fill:#1b75bb;}.cls-5{fill:#2b388f;}</style></defs><title>Asset 1</title><g id="Layer_2" data-name="Layer 2"><g id="Layer_1-2" data-name="Layer 1"><path class="cls-1" d="M258.4,344.6l-120,101.8C254.7,439.7,258.4,344.6,258.4,344.6Z"/><path class="cls-1" d="M0,344.6,120,446.4C3.8,439.7,0,344.6,0,344.6Z"/><path class="cls-2" d="M138.4,446.3l120-101.8C156.6,346.6,138.4,446.3,138.4,446.3Z"/><path class="cls-2" d="M120,446.3,0,344.6C101.8,346.6,120,446.3,120,446.3Z"/><path class="cls-3" d="M202.2,143.1s29.3,110.3-60.5,211.5a85.37,85.37,0,0,0,37.5-10.3c28.9-41.2,41.5-80.3,46.7-109.4C224.6,208.4,218.7,175.5,202.2,143.1Z"/><path class="cls-3" d="M104.4,0c71.3,101.5,8.5,165.4,8.5,165.4C31,263.2,83.1,340.6,83.1,340.6c1.8-60,62.3-127.7,62.3-127.7C242.4,88.4,104.4,0,104.4,0Z"/><path class="cls-4" d="M221.5,289.8h0a.77.77,0,0,1,.1-.3c1.4-5.5,3.4-13.1,3.7-19a249.77,249.77,0,0,0,.7-35.8c-5.2,29.1-17.8,68.2-46.7,109.4A85.57,85.57,0,0,0,221.5,289.8Z"/><path class="cls-4" d="M104.4,0c26.8,69.4-21.3,137.3-21.3,137.3-4.5,5.9-8.5,11.6-12.3,17.2C29.1,223.2,56.4,316.4,56.4,316.4h0c12.9,16.4,26.7,24.1,26.7,24.1S31,263.1,112.9,165.3C112.9,165.4,175.7,101.6,104.4,0Z"/><path class="cls-5" d="M202.2,143.1c1.4,27.9-7.4,59.8-34.4,94.4,0,0-50,56.1-60.4,111.4a86.25,86.25,0,0,0,31,5.8c1.1,0,2.2-.1,3.4-.1C231.6,253.4,202.2,143.1,202.2,143.1Z"/><path class="cls-5" d="M70.8,154.6C16,236.4,34.8,288.8,56.4,316.5h0S29.1,223.3,70.8,154.6Z"/><path class="cls-5" d="M129.2,423.6a160.62,160.62,0,0,1-18-56.4s8.6,3.2,26.1,3.3C137.3,370.6,124.6,402.5,129.2,423.6Z"/></g></g></svg>