<svg version="1.1" id="el_eIDMpJJhz" xmlns="http://www.w3.org/2000/svg" xmlns:xlink="http://www.w3.org/1999/xlink" x="0px" y="0px" viewBox="0 0 600 600" style="enable-background:new 0 0 600 600;" xml:space="preserve" height="600" width="600"><style>@-webkit-keyframes el_fMUFznj1zW8_69qX1zk57_Animation{0%{-webkit-transform: translate(8.300000190734863px, 231.477783203125px) translate(-8.300000190734863px, -231.477783203125px) translate(0px, 0px);transform: translate(8.300000190734863px, 231.477783203125px) translate(-8.300000190734863px, -231.477783203125px) translate(0px, 0px);}15%{-webkit-transform: translate(8.300000190734863px, 231.477783203125px) translate(-8.300000190734863px, -231.477783203125px) translate(10px, 0px);transform: translate(8.300000190734863px, 231.477783203125px) translate(-8.300000190734863px, -231.477783203125px) translate(10px, 0px);}31.67%{-webkit-transform: translate(8.300000190734863px, 231.477783203125px) translate(-8.300000190734863px, -231.477783203125px) translate(0px, 0px);transform: translate(8.300000190734863px, 231.477783203125px) translate(-8.300000190734863px, -231.477783203125px) translate(0px, 0px);}100%{-webkit-transform: translate(8.300000190734863px, 231.477783203125px) translate(-8.300000190734863px, -231.477783203125px) translate(0px, 0px);transform: translate(8.300000190734863px, 231.477783203125px) translate(-8.300000190734863px, -231.477783203125px) translate(0px, 0px);}}@keyframes el_fMUFznj1zW8_69qX1zk57_Animation{0%{-webkit-transform: translate(8.300000190734863px, 231.477783203125px) translate(-8.300000190734863px, -231.477783203125px) translate(0px, 0px);transform: translate(8.300000190734863px, 231.477783203125px) translate(-8.300000190734863px, -231.477783203125px) translate(0px, 0px);}15%{-webkit-transform: translate(8.300000190734863px, 231.477783203125px) translate(-8.300000190734863px, -231.477783203125px) translate(10px, 0px);transform: translate(8.300000190734863px, 231.477783203125px) translate(-8.300000190734863px, -231.477783203125px) translate(10px, 0px);}31.67%{-webkit-transform: translate(8.300000190734863px, 231.477783203125px) translate(-8.300000190734863px, -231.477783203125px) translate(0px, 0px);transform: translate(8.300000190734863px, 231.477783203125px) translate(-8.300000190734863px, -231.477783203125px) translate(0px, 0px);}100%{-webkit-transform: translate(8.300000190734863px, 231.477783203125px) translate(-8.300000190734863px, -231.477783203125px) translate(0px, 0px);transform: translate(8.300000190734863px, 231.477783203125px) translate(-8.300000190734863px, -231.477783203125px) translate(0px, 0px);}}@-webkit-keyframes el_utGCrcqPpf_VhpOeWwXG_Animation{0%{-webkit-transform: translate(181.8000030517578px, 479.29998779296875px) translate(-181.8000030517578px, -479.29998779296875px) translate(0px, 0px);transform: translate(181.8000030517578px, 479.29998779296875px) translate(-181.8000030517578px, -479.29998779296875px) translate(0px, 0px);}5%{-webkit-transform: translate(181.8000030517578px, 479.29998779296875px) translate(-181.8000030517578px, -479.29998779296875px) translate(-160px, 0px);transform: translate(181.8000030517578px, 479.29998779296875px) translate(-181.8000030517578px, -479.29998779296875px) translate(-160px, 0px);}50%{-webkit-transform: translate(181.8000030517578px, 479.29998779296875px) translate(-181.8000030517578px, -479.29998779296875px) translate(0px, 0px);transform: translate(181.8000030517578px, 479.29998779296875px) translate(-181.8000030517578px, -479.29998779296875px) translate(0px, 0px);}100%{-webkit-transform: translate(181.8000030517578px, 479.29998779296875px) translate(-181.8000030517578px, -479.29998779296875px) translate(0px, 0px);transform: translate(181.8000030517578px, 479.29998779296875px) translate(-181.8000030517578px, -479.29998779296875px) translate(0px, 0px);}}@keyframes el_utGCrcqPpf_VhpOeWwXG_Animation{0%{-webkit-transform: translate(181.8000030517578px, 479.29998779296875px) translate(-181.8000030517578px, -479.29998779296875px) translate(0px, 0px);transform: translate(181.8000030517578px, 479.29998779296875px) translate(-181.8000030517578px, -479.29998779296875px) translate(0px, 0px);}5%{-webkit-transform: translate(181.8000030517578px, 479.29998779296875px) translate(-181.8000030517578px, -479.29998779296875px) translate(-160px, 0px);transform: translate(181.8000030517578px, 479.29998779296875px) translate(-181.8000030517578px, -479.29998779296875px) translate(-160px, 0px);}50%{-webkit-transform: translate(181.8000030517578px, 479.29998779296875px) translate(-181.8000030517578px, -479.29998779296875px) translate(0px, 0px);transform: translate(181.8000030517578px, 479.29998779296875px) translate(-181.8000030517578px, -479.29998779296875px) translate(0px, 0px);}100%{-webkit-transform: translate(181.8000030517578px, 479.29998779296875px) translate(-181.8000030517578px, -479.29998779296875px) translate(0px, 0px);transform: translate(181.8000030517578px, 479.29998779296875px) translate(-181.8000030517578px, -479.29998779296875px) translate(0px, 0px);}}@-webkit-keyframes el_utGCrcqPpf_Animation{0%{opacity: 1;}5%{opacity: 0;}30%{opacity: 0;}53.33%{opacity: 1;}100%{opacity: 1;}}@keyframes el_utGCrcqPpf_Animation{0%{opacity: 1;}5%{opacity: 0;}30%{opacity: 0;}53.33%{opacity: 1;}100%{opacity: 1;}}@-webkit-keyframes el_KTcwhK6CMAp_ppkOo9Ixq_Animation{0%{-webkit-transform: translate(164.29998779296875px, 60.69999694824219px) translate(-164.29998779296875px, -60.69999694824219px) translate(500px, 0px);transform: translate(164.29998779296875px, 60.69999694824219px) translate(-164.29998779296875px, -60.69999694824219px) translate(500px, 0px);}5%{-webkit-transform: translate(164.29998779296875px, 60.69999694824219px) translate(-164.29998779296875px, -60.69999694824219px) translate(500px, 0px);transform: translate(164.29998779296875px, 60.69999694824219px) translate(-164.29998779296875px, -60.69999694824219px) translate(500px, 0px);}41.67%{-webkit-transform: translate(164.29998779296875px, 60.69999694824219px) translate(-164.29998779296875px, -60.69999694824219px) translate(0px, 0px);transform: translate(164.29998779296875px, 60.69999694824219px) translate(-164.29998779296875px, -60.69999694824219px) translate(0px, 0px);}100%{-webkit-transform: translate(164.29998779296875px, 60.69999694824219px) translate(-164.29998779296875px, -60.69999694824219px) translate(0px, 0px);transform: translate(164.29998779296875px, 60.69999694824219px) translate(-164.29998779296875px, -60.69999694824219px) translate(0px, 0px);}}@keyframes el_KTcwhK6CMAp_ppkOo9Ixq_Animation{0%{-webkit-transform: translate(164.29998779296875px, 60.69999694824219px) translate(-164.29998779296875px, -60.69999694824219px) translate(500px, 0px);transform: translate(164.29998779296875px, 60.69999694824219px) translate(-164.29998779296875px, -60.69999694824219px) translate(500px, 0px);}5%{-webkit-transform: translate(164.29998779296875px, 60.69999694824219px) translate(-164.29998779296875px, -60.69999694824219px) translate(500px, 0px);transform: translate(164.29998779296875px, 60.69999694824219px) translate(-164.29998779296875px, -60.69999694824219px) translate(500px, 0px);}41.67%{-webkit-transform: translate(164.29998779296875px, 60.69999694824219px) translate(-164.29998779296875px, -60.69999694824219px) translate(0px, 0px);transform: translate(164.29998779296875px, 60.69999694824219px) translate(-164.29998779296875px, -60.69999694824219px) translate(0px, 0px);}100%{-webkit-transform: translate(164.29998779296875px, 60.69999694824219px) translate(-164.29998779296875px, -60.69999694824219px) translate(0px, 0px);transform: translate(164.29998779296875px, 60.69999694824219px) translate(-164.29998779296875px, -60.69999694824219px) translate(0px, 0px);}}@-webkit-keyframes el_KTcwhK6CMAp_Animation{0%{opacity: 1;}5%{opacity: 0.7;}10%{opacity: 1;}15%{opacity: 1;}100%{opacity: 1;}}@keyframes el_KTcwhK6CMAp_Animation{0%{opacity: 1;}5%{opacity: 0.7;}10%{opacity: 1;}15%{opacity: 1;}100%{opacity: 1;}}#el_eIDMpJJhz *{-webkit-animation-duration: 2s;animation-duration: 2s;-webkit-animation-iteration-count: infinite;animation-iteration-count: infinite;-webkit-animation-timing-function: cubic-bezier(0, 0, 1, 1);animation-timing-function: cubic-bezier(0, 0, 1, 1);}#el_5apmJDmfyQ{fill: url(#SVGID_1_);stroke: #000000;stroke-width: 5;stroke-linejoin: round;stroke-miterlimit: 10;}#el_6F0LadSd-7{fill: #FFFFFF;}#el_O65cK7_n3j{fill: #FFFFFF;}#el_7O566oHEcn{fill: #FFFFFF;}#el_VwFemfYaUP{fill: #FFFFFF;}#el_96yxsSB_cf{fill: #FFFFFF;}#el_EP89UZgtS9{fill: #FFFFFF;}#el_pN-2kHDu5E{fill: #FFFFFF;}#el_G0wB0C7Q0I{fill: #FFFFFF;}#el_gX_LElwWNh{fill: #FFFFFF;}#el_62WBKtENUkr{fill: #FFFFFF;}#el_Xu5ajdkRbNI{fill: #FFFFFF;}#el_Ifcu-YPWoH_{fill: #FFFFFF;}#el_KrWgr3epoIr{fill: #FFFFFF;}#el_x-Tjtq1HWSe{fill: #FFFFFF;}#el_fNlwm6lsCXG{fill: #FFFFFF;}#el_pOimQSC9KaT{fill: #FFFFFF;}#el_J0f8brbRSRF{fill: #FFFFFF;}#el_TvcKei_v5rk{fill: #FFFFFF;}#el_VSDb0ebtJRO{fill: #FFFFFF;}#el_4dwYrSklnBs{fill: #FFFFFF;}#el_44IwjQRaOVX{fill: #FFFFFF;}#el_3vGSFr9c19o{fill: #FFFFFF;}#el_e5rF9zf5Ksq{fill: #FFFFFF;}#el_wz04hSpQhKu{fill: #FFFFFF;}#el_LPcOZh4xpq8{fill: #FFFFFF;}#el_0fgcwvLOKNf{fill: #FFFFFF;}#el_4oeZDUJ7DOG{fill: #FFFFFF;}#el_zdbPhgzNbtY{fill: #FFFFFF;}#el_SvQKpP5ws1n{fill: #FFFFFF;}#el_pJuT3rRUZtI{fill: #FFFFFF;}#el_x0PMMyDhmbE{fill: #FFFFFF;}#el_UmkAEKzmLbP{fill: #FFFFFF;}#el_z0ibCpuAaVu{fill: url(#SVGID_2_);}#el_HtoIa4vUeJH{fill: url(#SVGID_3_);stroke: #000000;stroke-width: 4;stroke-miterlimit: 10;}#el_DT2HFYVGoMl{fill: none;stroke: #000000;stroke-width: 4;stroke-linejoin: round;stroke-miterlimit: 10;}#el_P7OiZTlITtS{fill: none;stroke: #000000;stroke-width: 4;stroke-linejoin: round;stroke-miterlimit: 10;}#el_sMBrgbiXecq{fill: url(#SVGID_4_);stroke: #000000;stroke-width: 4;stroke-miterlimit: 10;}#el_VBP2pTjvoxB{fill: #FFFFFF;-webkit-transform: matrix(-1, -1.224647e-16, 1.224647e-16, -1, 989.7708, 633.1336);transform: matrix(-1, -1.224647e-16, 1.224647e-16, -1, 989.7708, 633.1336);}#el_zH22R2HMzfd{fill: none;stroke: #226397;stroke-width: 4;stroke-linecap: round;stroke-miterlimit: 10;}#el_ogDS31b7bR-{fill: none;stroke: #226397;stroke-width: 4;stroke-linecap: round;stroke-miterlimit: 10;}#el_wZDaLQI7POi{fill: none;stroke: #226397;stroke-width: 4;stroke-linecap: round;stroke-miterlimit: 10;}#el_Sq-38dcsXoL{fill: none;stroke: #000000;stroke-width: 4;stroke-linecap: round;stroke-linejoin: round;stroke-miterlimit: 10;}#el_Yybw8ORvcut{fill: #FFFFFF;stroke: #000000;stroke-width: 4;stroke-linecap: round;stroke-linejoin: round;stroke-miterlimit: 10;}#el_j3wTiEqmMsM{fill: #FFFFFF;stroke: #000000;stroke-width: 4;stroke-linecap: round;stroke-linejoin: round;stroke-miterlimit: 10;}#el_Q7tlX2wzre6{fill: url(#SVGID_5_);stroke: #000000;stroke-width: 4;stroke-miterlimit: 10;}#el_QUYws7U3zgh{fill: none;stroke: #000000;stroke-width: 4;stroke-miterlimit: 10;}#el_OsaVvaUt_Yd{fill: none;stroke: #000000;stroke-width: 4;stroke-miterlimit: 10;}#el_FqG5IBrflt8{fill: none;stroke: #FFFFFF;stroke-width: 4;stroke-linecap: round;stroke-miterlimit: 10;}#el_BrP-24w4N-j{fill: none;stroke: #FFFFFF;stroke-width: 4;stroke-linecap: round;stroke-miterlimit: 10;}#el_XjfGuzch9Bu{fill: url(#SVGID_6_);stroke: #000000;stroke-width: 4;stroke-linecap: round;stroke-linejoin: round;stroke-miterlimit: 10;}#el_g7Kf8yCypLX{fill: none;stroke: #226397;stroke-width: 4;stroke-linecap: round;stroke-miterlimit: 10;}#el_yl-7ofhq2Qf{fill: none;stroke: #226397;stroke-width: 4;stroke-linecap: round;stroke-miterlimit: 10;}#el_edSCsXk4MKv{fill: none;stroke: #226397;stroke-width: 4;stroke-linecap: round;stroke-miterlimit: 10;}#el_aC_gmZWiZE8{fill: url(#SVGID_7_);stroke: #000000;stroke-width: 4;stroke-miterlimit: 10;}#el_3fKfMP8eMAh{fill: #3BA8DF;}#el_cZ2Egr7NuOH{fill: #5CC2EF;}#el_gMSHKVzYL_m{fill: none;stroke: #000000;stroke-width: 4;stroke-linecap: round;stroke-miterlimit: 10;}#el_Tbz1cMDhS13{fill: #3BA8DF;}#el__2DPXBZjCFL{fill: #5CC2EF;}#el_wNYPpxXKjvB{fill: none;stroke: #000000;stroke-width: 4;stroke-linecap: round;stroke-miterlimit: 10;}#el_Lx0kmCbcToW{fill: none;stroke: #000000;stroke-width: 4;stroke-linecap: round;stroke-miterlimit: 10;}#el_enOP8ne23Bf{fill: url(#SVGID_8_);stroke: #000000;stroke-width: 4;stroke-linecap: round;stroke-linejoin: round;stroke-miterlimit: 10;}#el_CJJV8XYWaob{fill: none;stroke: #FFFFFF;stroke-width: 4;stroke-linecap: round;stroke-linejoin: round;stroke-miterlimit: 10;}#el_uR9oamOvIAn{fill: none;stroke: #000000;stroke-width: 4;stroke-linecap: round;stroke-linejoin: round;stroke-miterlimit: 10;}#el_5ufsrFIeBtq{fill: url(#SVGID_9_);stroke: #000000;stroke-width: 4;stroke-linecap: round;stroke-linejoin: round;stroke-miterlimit: 10;}#el_0uzda06ohCD{fill: none;stroke: #000000;stroke-width: 4;stroke-linecap: round;stroke-linejoin: round;stroke-miterlimit: 10;}#el_Vql9J9EKZlg{fill: url(#SVGID_10_);stroke: #000000;stroke-width: 4;stroke-linecap: round;stroke-linejoin: round;stroke-miterlimit: 10;}#el_JfFyuFtyrJd{fill: none;stroke: #FFFFFF;stroke-width: 4;stroke-linecap: round;stroke-linejoin: round;stroke-miterlimit: 10;}#el_TrrIEnGnPDU{fill: none;stroke: #FFFFFF;stroke-width: 4;stroke-linecap: round;stroke-miterlimit: 10;}#el_IzERm94mmNy{fill: none;stroke: #FFFFFF;stroke-width: 4;stroke-linecap: round;stroke-miterlimit: 10;}#el_nGA2WAcup-9{fill: #FFFFFF;stroke: #000000;stroke-width: 4;stroke-linecap: round;stroke-linejoin: round;stroke-miterlimit: 10;}#el_OZ7OISn0z2c{fill: none;stroke: #226397;stroke-width: 4;stroke-linecap: round;stroke-miterlimit: 10;}#el_L3rgSwS5haf{fill: none;stroke: #226397;stroke-width: 4;stroke-linecap: round;stroke-miterlimit: 10;}#el_AeQRrPNDHyr{fill: none;stroke: #226397;stroke-width: 4;stroke-linecap: round;stroke-miterlimit: 10;}#el_3K-Kxmm8gX6{fill: none;stroke: #226397;stroke-width: 4;stroke-linecap: round;stroke-miterlimit: 10;}#el_CblbIjXjstZ{fill: #FFFFFF;stroke: #000000;stroke-width: 5;stroke-miterlimit: 10;}#el_ZcPQIWXLfUT{fill: url(#SVGID_11_);stroke: #000000;stroke-width: 5;stroke-miterlimit: 10;}#el_X07yexIxInV{fill: url(#SVGID_12_);stroke: #000000;stroke-width: 5;stroke-miterlimit: 10;}#el_lrNu3DPMpaR{fill: url(#SVGID_13_);stroke: #000000;stroke-width: 5;stroke-miterlimit: 10;}#el_IRA2uKLFqj3{fill: url(#SVGID_14_);stroke: #000000;stroke-width: 5;stroke-linecap: round;stroke-linejoin: round;stroke-miterlimit: 10;}#el_6qur7zFzxQb{fill: #FFFFFF;stroke: #000000;stroke-width: 5;stroke-miterlimit: 10;}#el_QLQspT7dhFn{fill: #FFFFFF;stroke: #000000;stroke-width: 5;stroke-miterlimit: 10;}#el_x70CDsn2riG{fill: #FFFFFF;stroke: #000000;stroke-width: 5;stroke-miterlimit: 10;}#el_Ki6F3g_-sSm{fill-rule: evenodd;clip-rule: evenodd;fill: url(#SVGID_15_);stroke: #000000;stroke-width: 5;stroke-linecap: round;stroke-linejoin: round;stroke-miterlimit: 10;}#el_JyB6Z3nLAgh{fill: none;stroke: #FFFFFF;stroke-width: 5;stroke-linecap: round;stroke-linejoin: round;stroke-miterlimit: 10;}#el_KTcwhK6CMAp{-webkit-animation-name: el_KTcwhK6CMAp_Animation;animation-name: el_KTcwhK6CMAp_Animation;}#el_KTcwhK6CMAp_ppkOo9Ixq{-webkit-animation-name: el_KTcwhK6CMAp_ppkOo9Ixq_Animation;animation-name: el_KTcwhK6CMAp_ppkOo9Ixq_Animation;-webkit-animation-timing-function: cubic-bezier(0.42, 0, 0.58, 1);animation-timing-function: cubic-bezier(0.42, 0, 0.58, 1);}#el_utGCrcqPpf{-webkit-animation-name: el_utGCrcqPpf_Animation;animation-name: el_utGCrcqPpf_Animation;}#el_utGCrcqPpf_VhpOeWwXG{-webkit-animation-name: el_utGCrcqPpf_VhpOeWwXG_Animation;animation-name: el_utGCrcqPpf_VhpOeWwXG_Animation;-webkit-animation-timing-function: cubic-bezier(0, 0, 0.58, 1);animation-timing-function: cubic-bezier(0, 0, 0.58, 1);}#el_fMUFznj1zW8_69qX1zk57{-webkit-animation-name: el_fMUFznj1zW8_69qX1zk57_Animation;animation-name: el_fMUFznj1zW8_69qX1zk57_Animation;}</style>

<g id="el_utGCrcqPpf_VhpOeWwXG" data-animator-group="true" data-animator-type="0"><g id="el_utGCrcqPpf">
	<linearGradient id="SVGID_1_" gradientUnits="userSpaceOnUse" x1="181.8288" y1="505.3111" x2="551.8804" y2="505.3111">
		<stop offset="0" style="stop-color:#18A3C7"/>
		<stop offset="1" style="stop-color:#3680C3"/>
	</linearGradient>
	<rect x="181.8" y="479.3" width="370.1" height="52" id="el_5apmJDmfyQ"/>
	<g id="el_hbtoNtI7_Z">
		<g id="el_JwouCXb2XB">
			<path d="M250.4,500.2c-1.8,0.8-3.2,1.8-4.1,3c-0.9,1.2-1.4,2.3-1.5,3.2h0.3c0.9,0,1.7,0.2,2.3,0.7&#10;&#9;&#9;&#9;&#9;c0.6,0.5,0.9,1.2,0.9,2.1c0,1-0.3,1.8-1,2.6c-0.7,0.7-1.5,1.1-2.7,1.1c-1,0-1.8-0.4-2.5-1.1c-0.6-0.8-0.9-1.8-0.9-3.2&#10;&#9;&#9;&#9;&#9;c0-1.4,0.2-2.7,0.6-3.9c0.4-1.2,1-2.2,1.7-3.1c0.7-0.9,1.6-1.7,2.6-2.4c1-0.7,2-1.2,3.1-1.6L250.4,500.2z M260.6,500.2&#10;&#9;&#9;&#9;&#9;c-1.8,0.8-3.2,1.8-4.1,3c-0.9,1.2-1.4,2.3-1.5,3.2h0.3c0.9,0,1.7,0.2,2.3,0.7c0.6,0.5,0.9,1.2,0.9,2.1c0,1-0.3,1.8-1,2.6&#10;&#9;&#9;&#9;&#9;c-0.7,0.7-1.5,1.1-2.7,1.1c-1,0-1.8-0.4-2.5-1.1c-0.6-0.8-0.9-1.8-0.9-3.2c0-1.4,0.2-2.7,0.6-3.9c0.4-1.2,1-2.2,1.7-3.1&#10;&#9;&#9;&#9;&#9;c0.7-0.9,1.6-1.7,2.6-2.4c1-0.7,2-1.2,3.1-1.6L260.6,500.2z" id="el_6F0LadSd-7"/>
		</g>
		<g id="el_sPnbLbL2hb">
			<path d="M514,510.3c1.8-0.8,3.2-1.8,4.1-3c0.9-1.2,1.4-2.3,1.5-3.2h-0.3c-0.9,0-1.7-0.2-2.3-0.7&#10;&#9;&#9;&#9;&#9;c-0.6-0.5-0.9-1.2-0.9-2.1c0-1,0.3-1.8,1-2.6c0.7-0.7,1.5-1.1,2.7-1.1c1,0,1.8,0.4,2.5,1.1c0.6,0.8,0.9,1.8,0.9,3.2&#10;&#9;&#9;&#9;&#9;c0,1.4-0.2,2.7-0.6,3.9c-0.4,1.2-1,2.2-1.7,3.1c-0.7,0.9-1.6,1.7-2.6,2.4c-1,0.7-2,1.2-3.1,1.6L514,510.3z M503.8,510.3&#10;&#9;&#9;&#9;&#9;c1.8-0.8,3.2-1.8,4.1-3c0.9-1.2,1.4-2.3,1.5-3.2h-0.3c-0.9,0-1.7-0.2-2.3-0.7c-0.6-0.5-0.9-1.2-0.9-2.1c0-1,0.3-1.8,1-2.6&#10;&#9;&#9;&#9;&#9;c0.7-0.7,1.5-1.1,2.7-1.1c1,0,1.8,0.4,2.5,1.1c0.6,0.8,0.9,1.8,0.9,3.2c0,1.4-0.2,2.7-0.6,3.9c-0.4,1.2-1,2.2-1.7,3.1&#10;&#9;&#9;&#9;&#9;c-0.7,0.9-1.6,1.7-2.6,2.4c-1,0.7-2,1.2-3.1,1.6L503.8,510.3z" id="el_O65cK7_n3j"/>
		</g>
	</g>
	<g id="el_rK3MM1Kfdw">
		<path d="M284.8,509.1c-0.6,0-1.1-0.1-1.5-0.3c-0.4-0.2-0.8-0.5-1.1-0.8c-0.3-0.4-0.5-0.8-0.7-1.3&#10;&#9;&#9;&#9;c-0.2-0.5-0.2-1.1-0.2-1.7c0-0.8,0.1-1.6,0.4-2.3c0.3-0.7,0.6-1.4,1.1-1.9c0.4-0.6,1-1,1.6-1.3c0.6-0.3,1.2-0.5,1.9-0.5&#10;&#9;&#9;&#9;c0.6,0,1.1,0.1,1.5,0.3c0.4,0.2,0.8,0.5,1.1,0.8c0.3,0.4,0.5,0.8,0.7,1.3c0.2,0.5,0.2,1.1,0.2,1.7c0,0.8-0.1,1.6-0.4,2.3&#10;&#9;&#9;&#9;c-0.3,0.7-0.6,1.4-1,1.9c-0.4,0.6-1,1-1.6,1.3C286.1,509,285.5,509.1,284.8,509.1z M286,500.3c-0.4,0-0.9,0.1-1.2,0.4&#10;&#9;&#9;&#9;c-0.4,0.3-0.7,0.6-1,1c-0.3,0.4-0.5,0.9-0.7,1.5c-0.2,0.6-0.3,1.1-0.3,1.7c0,0.9,0.2,1.6,0.5,2.1c0.3,0.5,0.8,0.8,1.5,0.8&#10;&#9;&#9;&#9;c0.4,0,0.8-0.1,1.2-0.4c0.4-0.3,0.7-0.6,1-1c0.3-0.4,0.5-0.9,0.7-1.5c0.2-0.6,0.3-1.1,0.3-1.7c0-0.9-0.2-1.6-0.5-2.1&#10;&#9;&#9;&#9;C287.2,500.5,286.7,500.3,286,500.3z" id="el_7O566oHEcn"/>
		<path d="M296.4,509h-1.3l0.1-1.1h-0.1c-0.4,0.3-0.8,0.6-1.2,0.9c-0.4,0.2-0.9,0.4-1.3,0.4c-0.6,0-1.1-0.2-1.4-0.5&#10;&#9;&#9;&#9;c-0.3-0.3-0.4-0.8-0.4-1.4c0-0.2,0-0.3,0-0.5c0-0.2,0.1-0.3,0.1-0.5l0.9-4.7h1.6l-0.9,4.5c0,0.2-0.1,0.3-0.1,0.4&#10;&#9;&#9;&#9;c0,0.1,0,0.2,0,0.3c0,0.6,0.3,1,0.9,1c0.5,0,1.1-0.4,1.8-1.2l1-5.1h1.6L296.4,509z" id="el_VwFemfYaUP"/>
		<path d="M300.1,501.5h1.3l-0.1,1.4h0.1c0.3-0.5,0.6-0.9,1-1.2c0.4-0.3,0.8-0.5,1.3-0.5c0.3,0,0.5,0,0.7,0.1l-0.5,1.4&#10;&#9;&#9;&#9;c-0.1-0.1-0.2-0.1-0.3-0.1c-0.1,0-0.2,0-0.4,0c-0.4,0-0.7,0.1-1,0.4c-0.3,0.3-0.7,0.7-1,1.3l-0.9,4.5h-1.6L300.1,501.5z" id="el_96yxsSB_cf"/>
		<path d="M307.8,501.5h1.6l0.1,4c0,0.4,0,0.7,0,1.1c0,0.4,0,0.7,0,1.1h0.1c0.1-0.4,0.3-0.7,0.4-1.1&#10;&#9;&#9;&#9;c0.1-0.4,0.3-0.7,0.4-1.1l1.7-4h1.5l0.2,4c0,0.4,0,0.7,0,1.1s0,0.7,0,1.1h0.1c0.1-0.4,0.3-0.7,0.4-1.1c0.1-0.4,0.3-0.7,0.4-1.1&#10;&#9;&#9;&#9;l1.7-4h1.5l-3.3,7.4h-1.9l-0.1-3.6c0-0.4,0-0.7,0-1.1c0-0.4,0-0.7,0-1.1h-0.1c-0.1,0.4-0.3,0.8-0.4,1.1c-0.1,0.4-0.3,0.7-0.4,1.1&#10;&#9;&#9;&#9;l-1.5,3.6h-1.9L307.8,501.5z" id="el_EP89UZgtS9"/>
		<path d="M318.2,506c0-0.7,0.1-1.3,0.4-1.9c0.2-0.6,0.6-1.1,0.9-1.5c0.4-0.4,0.8-0.7,1.3-0.9c0.5-0.2,1-0.3,1.5-0.3&#10;&#9;&#9;&#9;c0.4,0,0.8,0.1,1.1,0.2c0.3,0.1,0.5,0.3,0.7,0.6c0.2,0.2,0.3,0.5,0.4,0.9c0.1,0.3,0.1,0.7,0.1,1.1c0,0.3,0,0.6-0.1,0.9&#10;&#9;&#9;&#9;c-0.1,0.3-0.1,0.5-0.2,0.6h-4.5c0,0.4,0,0.7,0.1,1c0.1,0.3,0.2,0.5,0.4,0.7c0.2,0.2,0.4,0.3,0.6,0.4c0.2,0.1,0.5,0.1,0.8,0.1&#10;&#9;&#9;&#9;c0.3,0,0.5-0.1,0.8-0.2c0.3-0.1,0.5-0.3,0.7-0.4l0.6,1c-0.3,0.2-0.7,0.4-1.1,0.6c-0.4,0.2-0.9,0.2-1.4,0.2c-0.4,0-0.8-0.1-1.2-0.2&#10;&#9;&#9;&#9;c-0.4-0.1-0.7-0.3-0.9-0.6c-0.3-0.3-0.5-0.6-0.6-1C318.2,506.9,318.2,506.5,318.2,506z M323.2,504.6c0-0.1,0-0.2,0.1-0.3&#10;&#9;&#9;&#9;c0-0.1,0-0.2,0-0.3c0-0.4-0.1-0.7-0.3-1c-0.2-0.3-0.5-0.4-0.9-0.4c-0.5,0-0.9,0.2-1.3,0.5c-0.4,0.4-0.7,0.9-0.9,1.5H323.2z" id="el_pN-2kHDu5E"/>
		<path d="M325.4,509l2.2-10.7h1.6l-0.5,2.6l-0.4,1.4h0c0.4-0.3,0.7-0.5,1.1-0.7c0.4-0.2,0.8-0.3,1.2-0.3&#10;&#9;&#9;&#9;c0.7,0,1.2,0.2,1.6,0.7c0.4,0.5,0.6,1.1,0.6,2c0,0.7-0.1,1.4-0.3,2c-0.2,0.6-0.5,1.2-0.9,1.6c-0.4,0.5-0.8,0.8-1.3,1.1&#10;&#9;&#9;&#9;c-0.5,0.3-1,0.4-1.5,0.4c-0.4,0-0.7-0.1-1-0.3c-0.3-0.2-0.5-0.4-0.7-0.8h0l-0.3,0.9H325.4z M330,502.7c-0.3,0-0.6,0.1-1,0.3&#10;&#9;&#9;&#9;c-0.3,0.2-0.7,0.4-0.9,0.8l-0.6,3.2c0.2,0.3,0.3,0.6,0.6,0.7c0.2,0.1,0.4,0.2,0.7,0.2c0.3,0,0.6-0.1,0.9-0.3&#10;&#9;&#9;&#9;c0.3-0.2,0.6-0.4,0.8-0.8c0.2-0.3,0.4-0.7,0.5-1.1c0.1-0.4,0.2-0.9,0.2-1.4c0-0.5-0.1-0.9-0.3-1.2&#10;&#9;&#9;&#9;C330.6,502.8,330.3,502.7,330,502.7z" id="el_G0wB0C7Q0I"/>
		<path d="M334.2,506.9c0.2,0.3,0.5,0.6,0.8,0.7c0.3,0.2,0.6,0.3,0.9,0.3c0.4,0,0.7-0.1,0.9-0.3&#10;&#9;&#9;&#9;c0.3-0.2,0.4-0.4,0.4-0.7c0-0.2-0.1-0.4-0.3-0.6c-0.2-0.2-0.6-0.4-1-0.6c-0.5-0.3-0.9-0.6-1.2-0.9c-0.3-0.3-0.4-0.7-0.4-1.2&#10;&#9;&#9;&#9;c0-0.3,0.1-0.6,0.2-0.9c0.1-0.3,0.3-0.5,0.6-0.7c0.2-0.2,0.5-0.4,0.9-0.5c0.3-0.1,0.7-0.2,1.1-0.2c0.5,0,0.9,0.1,1.3,0.3&#10;&#9;&#9;&#9;c0.4,0.2,0.7,0.5,1,0.8l-0.9,0.9c-0.2-0.2-0.4-0.4-0.6-0.5c-0.2-0.1-0.5-0.2-0.8-0.2c-0.3,0-0.6,0.1-0.8,0.3&#10;&#9;&#9;&#9;c-0.2,0.2-0.3,0.4-0.3,0.7c0,0.1,0,0.3,0.1,0.4c0.1,0.1,0.2,0.2,0.3,0.3c0.1,0.1,0.3,0.2,0.4,0.3s0.3,0.2,0.5,0.3&#10;&#9;&#9;&#9;c0.6,0.3,1,0.6,1.2,0.9c0.3,0.3,0.4,0.7,0.4,1.2c0,0.4-0.1,0.7-0.2,1c-0.1,0.3-0.4,0.5-0.6,0.8c-0.3,0.2-0.6,0.4-0.9,0.5&#10;&#9;&#9;&#9;c-0.4,0.1-0.8,0.2-1.2,0.2c-0.2,0-0.5,0-0.7-0.1c-0.2-0.1-0.5-0.2-0.7-0.3c-0.2-0.1-0.4-0.3-0.7-0.4c-0.2-0.2-0.4-0.4-0.5-0.6&#10;&#9;&#9;&#9;L334.2,506.9z" id="el_gX_LElwWNh"/>
		<path d="M341.4,501.5h1.6l-1.5,7.4h-1.6L341.4,501.5z M342.6,500.2c-0.2,0-0.4-0.1-0.6-0.2c-0.2-0.1-0.3-0.4-0.3-0.6&#10;&#9;&#9;&#9;c0-0.3,0.1-0.5,0.3-0.7c0.2-0.2,0.5-0.3,0.8-0.3c0.2,0,0.4,0.1,0.6,0.2c0.2,0.1,0.3,0.4,0.3,0.6c0,0.3-0.1,0.6-0.3,0.8&#10;&#9;&#9;&#9;C343.2,500.1,342.9,500.2,342.6,500.2z" id="el_62WBKtENUkr"/>
		<path d="M345.2,502.8h-1l0.2-1.2l1.1-0.1l0.6-2h1.4l-0.4,2h1.8l-0.3,1.3h-1.8l-0.8,3.7c0,0.2,0,0.4,0,0.5&#10;&#9;&#9;&#9;c0,0.3,0.1,0.5,0.2,0.6c0.1,0.1,0.4,0.2,0.7,0.2c0.1,0,0.3,0,0.4-0.1c0.1,0,0.2-0.1,0.3-0.1l0.3,1.2c-0.2,0.1-0.4,0.2-0.7,0.2&#10;&#9;&#9;&#9;c-0.3,0.1-0.6,0.1-0.9,0.1c-0.7,0-1.2-0.2-1.5-0.5c-0.3-0.3-0.4-0.8-0.4-1.3c0-0.2,0-0.3,0-0.4c0-0.1,0-0.3,0.1-0.4L345.2,502.8z" id="el_Xu5ajdkRbNI"/>
		<path d="M349,506c0-0.7,0.1-1.3,0.4-1.9c0.2-0.6,0.6-1.1,0.9-1.5c0.4-0.4,0.8-0.7,1.3-0.9c0.5-0.2,1-0.3,1.5-0.3&#10;&#9;&#9;&#9;c0.4,0,0.8,0.1,1.1,0.2c0.3,0.1,0.5,0.3,0.7,0.6c0.2,0.2,0.3,0.5,0.4,0.9c0.1,0.3,0.1,0.7,0.1,1.1c0,0.3,0,0.6-0.1,0.9&#10;&#9;&#9;&#9;c-0.1,0.3-0.1,0.5-0.2,0.6h-4.5c0,0.4,0,0.7,0.1,1c0.1,0.3,0.2,0.5,0.4,0.7c0.2,0.2,0.4,0.3,0.6,0.4c0.2,0.1,0.5,0.1,0.8,0.1&#10;&#9;&#9;&#9;c0.3,0,0.5-0.1,0.8-0.2c0.3-0.1,0.5-0.3,0.7-0.4l0.6,1c-0.3,0.2-0.7,0.4-1.1,0.6c-0.4,0.2-0.9,0.2-1.4,0.2c-0.4,0-0.8-0.1-1.2-0.2&#10;&#9;&#9;&#9;c-0.4-0.1-0.7-0.3-0.9-0.6c-0.3-0.3-0.5-0.6-0.6-1C349,506.9,349,506.5,349,506z M354,504.6c0-0.1,0-0.2,0.1-0.3&#10;&#9;&#9;&#9;c0-0.1,0-0.2,0-0.3c0-0.4-0.1-0.7-0.3-1c-0.2-0.3-0.5-0.4-0.9-0.4c-0.5,0-0.9,0.2-1.3,0.5c-0.4,0.4-0.7,0.9-0.9,1.5H354z" id="el_Ifcu-YPWoH_"/>
		<path d="M360.6,501.5h1.6l-1.5,7.4h-1.6L360.6,501.5z M361.8,500.2c-0.2,0-0.4-0.1-0.6-0.2c-0.2-0.1-0.3-0.4-0.3-0.6&#10;&#9;&#9;&#9;c0-0.3,0.1-0.5,0.3-0.7c0.2-0.2,0.5-0.3,0.8-0.3c0.2,0,0.4,0.1,0.6,0.2c0.2,0.1,0.3,0.4,0.3,0.6c0,0.3-0.1,0.6-0.3,0.8&#10;&#9;&#9;&#9;C362.4,500.1,362.1,500.2,361.8,500.2z" id="el_KrWgr3epoIr"/>
		<path d="M363.5,506.9c0.2,0.3,0.5,0.6,0.8,0.7c0.3,0.2,0.6,0.3,0.9,0.3c0.4,0,0.7-0.1,0.9-0.3&#10;&#9;&#9;&#9;c0.3-0.2,0.4-0.4,0.4-0.7c0-0.2-0.1-0.4-0.3-0.6c-0.2-0.2-0.6-0.4-1-0.6c-0.5-0.3-0.9-0.6-1.2-0.9c-0.3-0.3-0.4-0.7-0.4-1.2&#10;&#9;&#9;&#9;c0-0.3,0.1-0.6,0.2-0.9c0.1-0.3,0.3-0.5,0.6-0.7c0.2-0.2,0.5-0.4,0.9-0.5c0.3-0.1,0.7-0.2,1.1-0.2c0.5,0,0.9,0.1,1.3,0.3&#10;&#9;&#9;&#9;c0.4,0.2,0.7,0.5,1,0.8l-0.9,0.9c-0.2-0.2-0.4-0.4-0.6-0.5c-0.2-0.1-0.5-0.2-0.8-0.2c-0.3,0-0.6,0.1-0.8,0.3&#10;&#9;&#9;&#9;c-0.2,0.2-0.3,0.4-0.3,0.7c0,0.1,0,0.3,0.1,0.4c0.1,0.1,0.2,0.2,0.3,0.3s0.3,0.2,0.4,0.3s0.3,0.2,0.5,0.3c0.6,0.3,1,0.6,1.2,0.9&#10;&#9;&#9;&#9;c0.3,0.3,0.4,0.7,0.4,1.2c0,0.4-0.1,0.7-0.2,1c-0.1,0.3-0.4,0.5-0.6,0.8c-0.3,0.2-0.6,0.4-0.9,0.5c-0.4,0.1-0.8,0.2-1.2,0.2&#10;&#9;&#9;&#9;c-0.2,0-0.5,0-0.7-0.1c-0.2-0.1-0.5-0.2-0.7-0.3c-0.2-0.1-0.4-0.3-0.7-0.4s-0.4-0.4-0.5-0.6L363.5,506.9z" id="el_x-Tjtq1HWSe"/>
		<path d="M370.7,501.5h1.3l-0.1,1h0.1c0.4-0.3,0.8-0.6,1.2-0.9c0.4-0.2,0.9-0.4,1.3-0.4c0.6,0,1.1,0.2,1.3,0.5&#10;&#9;&#9;&#9;c0.3,0.3,0.4,0.8,0.4,1.4c0,0.2,0,0.3,0,0.5c0,0.2,0,0.3-0.1,0.5l-0.9,4.7h-1.6l0.9-4.5c0-0.2,0.1-0.3,0.1-0.4c0-0.1,0-0.2,0-0.3&#10;&#9;&#9;&#9;c0-0.6-0.3-1-0.9-1c-0.3,0-0.5,0.1-0.8,0.3c-0.3,0.2-0.6,0.5-1,0.9l-1,5.1h-1.6L370.7,501.5z" id="el_fNlwm6lsCXG"/>
		<path d="M377.8,502c0.5-0.2,0.9-0.5,1.2-0.9c0.3-0.3,0.4-0.7,0.4-0.9h-0.1c-0.3,0-0.5-0.1-0.7-0.2&#10;&#9;&#9;&#9;c-0.2-0.1-0.3-0.3-0.3-0.6c0-0.3,0.1-0.5,0.3-0.7c0.2-0.2,0.4-0.3,0.8-0.3c0.3,0,0.5,0.1,0.7,0.3c0.2,0.2,0.3,0.5,0.3,0.9&#10;&#9;&#9;&#9;c0,0.4-0.1,0.8-0.2,1.1c-0.1,0.3-0.3,0.6-0.5,0.9s-0.5,0.5-0.7,0.7c-0.3,0.2-0.6,0.3-0.9,0.5L377.8,502z" id="el_pOimQSC9KaT"/>
		<path d="M382,502.8h-1l0.2-1.2l1.1-0.1l0.6-2h1.4l-0.4,2h1.8l-0.3,1.3h-1.8l-0.8,3.7c0,0.2,0,0.4,0,0.5&#10;&#9;&#9;&#9;c0,0.3,0.1,0.5,0.2,0.6c0.1,0.1,0.4,0.2,0.7,0.2c0.1,0,0.3,0,0.4-0.1s0.2-0.1,0.3-0.1l0.3,1.2c-0.2,0.1-0.4,0.2-0.7,0.2&#10;&#9;&#9;&#9;c-0.3,0.1-0.6,0.1-0.9,0.1c-0.7,0-1.2-0.2-1.5-0.5c-0.3-0.3-0.4-0.8-0.4-1.3c0-0.2,0-0.3,0-0.4c0-0.1,0-0.3,0.1-0.4L382,502.8z" id="el_J0f8brbRSRF"/>
		<path d="M394.8,500.9l0.5-2.6h1.6l-2.2,10.7h-1.3l0.1-1h0c-0.4,0.4-0.7,0.7-1.2,0.9c-0.4,0.2-0.9,0.3-1.3,0.3&#10;&#9;&#9;&#9;c-0.7,0-1.2-0.2-1.6-0.7c-0.4-0.5-0.6-1.1-0.6-2c0-0.7,0.1-1.4,0.3-2c0.2-0.6,0.5-1.2,0.9-1.6c0.4-0.5,0.8-0.8,1.3-1.1&#10;&#9;&#9;&#9;c0.5-0.3,1-0.4,1.5-0.4c0.4,0,0.7,0.1,1,0.3c0.3,0.2,0.5,0.4,0.7,0.7h0L394.8,500.9z M391.7,507.8c0.3,0,0.7-0.1,1-0.3&#10;&#9;&#9;&#9;c0.3-0.2,0.7-0.5,1-1l0.6-3c-0.2-0.3-0.4-0.6-0.6-0.7c-0.2-0.1-0.4-0.2-0.7-0.2c-0.3,0-0.6,0.1-0.9,0.3c-0.3,0.2-0.6,0.4-0.8,0.8&#10;&#9;&#9;&#9;c-0.2,0.3-0.4,0.7-0.5,1.1c-0.1,0.4-0.2,0.9-0.2,1.4c0,0.5,0.1,1,0.3,1.2C391.1,507.7,391.4,507.8,391.7,507.8z" id="el_TvcKei_v5rk"/>
		<path d="M398.4,501.5h1.3l-0.1,1.4h0.1c0.3-0.5,0.6-0.9,1-1.2c0.4-0.3,0.8-0.5,1.3-0.5c0.3,0,0.5,0,0.7,0.1l-0.5,1.4&#10;&#9;&#9;&#9;c-0.1-0.1-0.2-0.1-0.3-0.1c-0.1,0-0.2,0-0.4,0c-0.4,0-0.7,0.1-1,0.4c-0.3,0.3-0.7,0.7-1,1.3l-0.9,4.5h-1.6L398.4,501.5z" id="el_VSDb0ebtJRO"/>
		<path d="M403.9,501.5h1.6l-1.5,7.4h-1.6L403.9,501.5z M405.1,500.2c-0.2,0-0.4-0.1-0.6-0.2c-0.2-0.1-0.3-0.4-0.3-0.6&#10;&#9;&#9;&#9;c0-0.3,0.1-0.5,0.3-0.7c0.2-0.2,0.5-0.3,0.8-0.3c0.2,0,0.4,0.1,0.6,0.2c0.2,0.1,0.3,0.4,0.3,0.6c0,0.3-0.1,0.6-0.3,0.8&#10;&#9;&#9;&#9;C405.7,500.1,405.4,500.2,405.1,500.2z" id="el_4dwYrSklnBs"/>
		<path d="M406.8,501.5h1.6l0.4,4c0,0.4,0.1,0.7,0.1,1.1c0,0.4,0,0.8,0.1,1.1h0.1c0.2-0.4,0.3-0.8,0.5-1.1&#10;&#9;&#9;&#9;c0.2-0.4,0.4-0.7,0.5-1.1l1.9-4h1.6l-3.9,7.4h-1.9L406.8,501.5z" id="el_44IwjQRaOVX"/>
		<path d="M414.9,501.5h1.6L415,509h-1.6L414.9,501.5z M416.1,500.2c-0.2,0-0.4-0.1-0.6-0.2c-0.2-0.1-0.3-0.4-0.3-0.6&#10;&#9;&#9;&#9;c0-0.3,0.1-0.5,0.3-0.7c0.2-0.2,0.5-0.3,0.8-0.3c0.2,0,0.4,0.1,0.6,0.2c0.2,0.1,0.3,0.4,0.3,0.6c0,0.3-0.1,0.6-0.3,0.8&#10;&#9;&#9;&#9;C416.7,500.1,416.4,500.2,416.1,500.2z" id="el_3vGSFr9c19o"/>
		<path d="M418.7,501.5h1.3l-0.1,1h0.1c0.4-0.3,0.8-0.6,1.2-0.9c0.4-0.2,0.9-0.4,1.3-0.4c0.6,0,1.1,0.2,1.3,0.5&#10;&#9;&#9;&#9;c0.3,0.3,0.4,0.8,0.4,1.4c0,0.2,0,0.3,0,0.5c0,0.2,0,0.3-0.1,0.5l-0.9,4.7h-1.6l0.9-4.5c0-0.2,0.1-0.3,0.1-0.4s0-0.2,0-0.3&#10;&#9;&#9;&#9;c0-0.6-0.3-1-0.9-1c-0.3,0-0.5,0.1-0.8,0.3c-0.3,0.2-0.6,0.5-1,0.9l-1,5.1h-1.6L418.7,501.5z" id="el_e5rF9zf5Ksq"/>
		<path d="M432.9,501.5l-1.5,7.6c-0.2,1.1-0.6,1.8-1.3,2.4c-0.6,0.5-1.5,0.8-2.4,0.8c-0.5,0-0.9-0.1-1.4-0.3&#10;&#9;&#9;&#9;c-0.5-0.2-0.9-0.4-1.3-0.8l0.7-1.1c0.3,0.2,0.6,0.4,0.9,0.6c0.3,0.2,0.7,0.2,1.1,0.2c0.6,0,1-0.2,1.4-0.5c0.3-0.3,0.6-0.8,0.8-1.4&#10;&#9;&#9;&#9;l0.4-1.4h0c-0.4,0.3-0.7,0.6-1.1,0.8c-0.4,0.2-0.8,0.3-1.3,0.3c-0.6,0-1.1-0.2-1.6-0.7c-0.4-0.4-0.6-1.1-0.6-2&#10;&#9;&#9;&#9;c0-0.7,0.1-1.3,0.3-1.9c0.2-0.6,0.5-1.1,0.9-1.5c0.4-0.4,0.8-0.8,1.3-1c0.5-0.3,1-0.4,1.5-0.4c0.4,0,0.7,0.1,1,0.3&#10;&#9;&#9;&#9;c0.3,0.2,0.5,0.4,0.7,0.8h0l0.3-0.9H432.9z M428.3,507.5c0.3,0,0.6-0.1,1-0.3c0.3-0.2,0.7-0.5,1-0.9l0.6-2.8&#10;&#9;&#9;&#9;c-0.2-0.3-0.4-0.6-0.6-0.7c-0.2-0.1-0.4-0.2-0.7-0.2c-0.3,0-0.6,0.1-0.9,0.3c-0.3,0.2-0.5,0.4-0.7,0.7c-0.2,0.3-0.4,0.7-0.5,1.1&#10;&#9;&#9;&#9;c-0.1,0.4-0.2,0.8-0.2,1.3c0,0.5,0.1,0.9,0.3,1.1C427.8,507.3,428,507.5,428.3,507.5z" id="el_wz04hSpQhKu"/>
		<path d="M438,501.5h1.3l-0.1,1.4h0.1c0.3-0.5,0.6-0.9,1-1.2c0.4-0.3,0.8-0.5,1.3-0.5c0.3,0,0.5,0,0.7,0.1l-0.5,1.4&#10;&#9;&#9;&#9;c-0.1-0.1-0.2-0.1-0.3-0.1c-0.1,0-0.2,0-0.4,0c-0.4,0-0.7,0.1-1,0.4c-0.3,0.3-0.7,0.7-1,1.3l-0.9,4.5h-1.6L438,501.5z" id="el_LPcOZh4xpq8"/>
		<path d="M442,506c0-0.7,0.1-1.3,0.4-1.9c0.2-0.6,0.6-1.1,0.9-1.5s0.8-0.7,1.3-0.9c0.5-0.2,1-0.3,1.5-0.3&#10;&#9;&#9;&#9;c0.4,0,0.8,0.1,1.1,0.2c0.3,0.1,0.5,0.3,0.7,0.6c0.2,0.2,0.3,0.5,0.4,0.9c0.1,0.3,0.1,0.7,0.1,1.1c0,0.3,0,0.6-0.1,0.9&#10;&#9;&#9;&#9;c-0.1,0.3-0.1,0.5-0.2,0.6h-4.5c0,0.4,0,0.7,0.1,1c0.1,0.3,0.2,0.5,0.4,0.7c0.2,0.2,0.4,0.3,0.6,0.4c0.2,0.1,0.5,0.1,0.8,0.1&#10;&#9;&#9;&#9;c0.3,0,0.5-0.1,0.8-0.2c0.3-0.1,0.5-0.3,0.7-0.4l0.6,1c-0.3,0.2-0.7,0.4-1.1,0.6c-0.4,0.2-0.9,0.2-1.4,0.2c-0.4,0-0.8-0.1-1.2-0.2&#10;&#9;&#9;&#9;c-0.4-0.1-0.7-0.3-0.9-0.6c-0.3-0.3-0.5-0.6-0.6-1C442.1,506.9,442,506.5,442,506z M447,504.6c0-0.1,0-0.2,0.1-0.3&#10;&#9;&#9;&#9;c0-0.1,0-0.2,0-0.3c0-0.4-0.1-0.7-0.3-1c-0.2-0.3-0.5-0.4-0.9-0.4c-0.5,0-0.9,0.2-1.3,0.5c-0.4,0.4-0.7,0.9-0.9,1.5H447z" id="el_0fgcwvLOKNf"/>
		<path d="M449.8,506.9c0.2,0.3,0.5,0.6,0.8,0.7c0.3,0.2,0.6,0.3,0.9,0.3c0.4,0,0.7-0.1,0.9-0.3&#10;&#9;&#9;&#9;c0.3-0.2,0.4-0.4,0.4-0.7c0-0.2-0.1-0.4-0.3-0.6c-0.2-0.2-0.6-0.4-1-0.6c-0.5-0.3-0.9-0.6-1.2-0.9c-0.3-0.3-0.4-0.7-0.4-1.2&#10;&#9;&#9;&#9;c0-0.3,0.1-0.6,0.2-0.9c0.1-0.3,0.3-0.5,0.6-0.7c0.2-0.2,0.5-0.4,0.9-0.5c0.3-0.1,0.7-0.2,1.1-0.2c0.5,0,0.9,0.1,1.3,0.3&#10;&#9;&#9;&#9;c0.4,0.2,0.7,0.5,1,0.8l-0.9,0.9c-0.2-0.2-0.4-0.4-0.6-0.5c-0.2-0.1-0.5-0.2-0.8-0.2c-0.3,0-0.6,0.1-0.8,0.3&#10;&#9;&#9;&#9;c-0.2,0.2-0.3,0.4-0.3,0.7c0,0.1,0,0.3,0.1,0.4c0.1,0.1,0.2,0.2,0.3,0.3c0.1,0.1,0.3,0.2,0.4,0.3c0.2,0.1,0.3,0.2,0.5,0.3&#10;&#9;&#9;&#9;c0.6,0.3,1,0.6,1.2,0.9c0.3,0.3,0.4,0.7,0.4,1.2c0,0.4-0.1,0.7-0.2,1c-0.1,0.3-0.4,0.5-0.6,0.8c-0.3,0.2-0.6,0.4-0.9,0.5&#10;&#9;&#9;&#9;c-0.4,0.1-0.8,0.2-1.2,0.2c-0.2,0-0.5,0-0.7-0.1c-0.2-0.1-0.5-0.2-0.7-0.3c-0.2-0.1-0.4-0.3-0.7-0.4c-0.2-0.2-0.4-0.4-0.5-0.6&#10;&#9;&#9;&#9;L449.8,506.9z" id="el_4oeZDUJ7DOG"/>
		<path d="M461.5,509h-1.3l0.1-1.1h-0.1c-0.4,0.3-0.8,0.6-1.2,0.9c-0.4,0.2-0.8,0.4-1.3,0.4c-0.6,0-1.1-0.2-1.4-0.5&#10;&#9;&#9;&#9;c-0.3-0.3-0.4-0.8-0.4-1.4c0-0.2,0-0.3,0-0.5c0-0.2,0.1-0.3,0.1-0.5l0.9-4.7h1.6l-0.9,4.5c0,0.2-0.1,0.3-0.1,0.4&#10;&#9;&#9;&#9;c0,0.1,0,0.2,0,0.3c0,0.6,0.3,1,0.9,1c0.5,0,1.1-0.4,1.8-1.2l1-5.1h1.6L461.5,509z" id="el_zdbPhgzNbtY"/>
		<path d="M465.8,498.3h1.6l-1.8,9c0,0.1,0,0.1,0,0.2c0,0,0,0.1,0,0.1c0,0.2,0.1,0.3,0.3,0.3c0.1,0,0.1,0,0.1,0&#10;&#9;&#9;&#9;c0,0,0.1,0,0.2,0l0,1.2c-0.1,0.1-0.2,0.1-0.4,0.1c-0.2,0-0.3,0-0.5,0c-0.4,0-0.8-0.1-1-0.3c-0.2-0.2-0.3-0.5-0.3-0.9&#10;&#9;&#9;&#9;c0-0.2,0-0.5,0.1-0.8L465.8,498.3z" id="el_SvQKpP5ws1n"/>
		<path d="M469.1,502.8h-1l0.2-1.2l1.1-0.1l0.6-2h1.4l-0.4,2h1.8l-0.3,1.3h-1.8l-0.8,3.7c0,0.2,0,0.4,0,0.5&#10;&#9;&#9;&#9;c0,0.3,0.1,0.5,0.2,0.6c0.1,0.1,0.4,0.2,0.7,0.2c0.1,0,0.3,0,0.4-0.1c0.1,0,0.2-0.1,0.3-0.1l0.3,1.2c-0.2,0.1-0.4,0.2-0.7,0.2&#10;&#9;&#9;&#9;c-0.3,0.1-0.6,0.1-0.9,0.1c-0.7,0-1.2-0.2-1.5-0.5c-0.3-0.3-0.4-0.8-0.4-1.3c0-0.2,0-0.3,0-0.4c0-0.1,0-0.3,0.1-0.4L469.1,502.8z" id="el_pJuT3rRUZtI"/>
		<path d="M473.4,506.9c0.2,0.3,0.5,0.6,0.8,0.7c0.3,0.2,0.6,0.3,0.9,0.3c0.4,0,0.7-0.1,0.9-0.3&#10;&#9;&#9;&#9;c0.3-0.2,0.4-0.4,0.4-0.7c0-0.2-0.1-0.4-0.3-0.6c-0.2-0.2-0.6-0.4-1-0.6c-0.5-0.3-0.9-0.6-1.2-0.9c-0.3-0.3-0.4-0.7-0.4-1.2&#10;&#9;&#9;&#9;c0-0.3,0.1-0.6,0.2-0.9c0.1-0.3,0.3-0.5,0.6-0.7s0.5-0.4,0.9-0.5c0.3-0.1,0.7-0.2,1.1-0.2c0.5,0,0.9,0.1,1.3,0.3&#10;&#9;&#9;&#9;c0.4,0.2,0.7,0.5,1,0.8l-0.9,0.9c-0.2-0.2-0.4-0.4-0.6-0.5c-0.2-0.1-0.5-0.2-0.8-0.2c-0.3,0-0.6,0.1-0.8,0.3&#10;&#9;&#9;&#9;c-0.2,0.2-0.3,0.4-0.3,0.7c0,0.1,0,0.3,0.1,0.4c0.1,0.1,0.2,0.2,0.3,0.3s0.3,0.2,0.4,0.3c0.2,0.1,0.3,0.2,0.5,0.3&#10;&#9;&#9;&#9;c0.6,0.3,1,0.6,1.2,0.9c0.3,0.3,0.4,0.7,0.4,1.2c0,0.4-0.1,0.7-0.2,1c-0.1,0.3-0.4,0.5-0.6,0.8c-0.3,0.2-0.6,0.4-0.9,0.5&#10;&#9;&#9;&#9;c-0.4,0.1-0.8,0.2-1.2,0.2c-0.2,0-0.5,0-0.7-0.1c-0.2-0.1-0.5-0.2-0.7-0.3c-0.2-0.1-0.4-0.3-0.7-0.4c-0.2-0.2-0.4-0.4-0.5-0.6&#10;&#9;&#9;&#9;L473.4,506.9z" id="el_x0PMMyDhmbE"/>
		<path d="M480.4,509.1c-0.3,0-0.5-0.1-0.7-0.3c-0.2-0.2-0.3-0.4-0.3-0.7c0-0.2,0-0.3,0.1-0.5c0.1-0.2,0.1-0.3,0.3-0.4&#10;&#9;&#9;&#9;c0.1-0.1,0.3-0.2,0.4-0.3c0.2-0.1,0.3-0.1,0.5-0.1c0.3,0,0.5,0.1,0.7,0.3c0.2,0.2,0.2,0.4,0.2,0.7c0,0.2,0,0.3-0.1,0.5&#10;&#9;&#9;&#9;s-0.1,0.3-0.3,0.4c-0.1,0.1-0.2,0.2-0.4,0.3C480.7,509.1,480.6,509.1,480.4,509.1z M481.3,500.5l0.3-1.7h1.6l-0.4,1.7l-1.3,5.3&#10;&#9;&#9;&#9;h-1.1L481.3,500.5z" id="el_UmkAEKzmLbP"/>
	</g>
</g></g>
<g id="el_KTcwhK6CMAp_ppkOo9Ixq" data-animator-group="true" data-animator-type="0"><g id="el_KTcwhK6CMAp">
	<linearGradient id="SVGID_2_" gradientUnits="userSpaceOnUse" x1="591.4751" y1="112.7203" x2="184.9806" y2="468.403">
		<stop offset="0" style="stop-color:#EACC1E"/>
		<stop offset="1" style="stop-color:#E98F23"/>
	</linearGradient>
	<path d="M540.7,444.7c35.7-38.7,57.6-90.4,57.6-147.2c0-119.8-97.1-217-217-217c-119.8,0-217,97.1-217,217&#10;&#9;&#9;c0,56.8,21.9,108.5,57.6,147.2H540.7z" id="el_z0ibCpuAaVu"/>
	<linearGradient id="SVGID_3_" gradientUnits="userSpaceOnUse" x1="369.5204" y1="421.5933" x2="385.0353" y2="179.8869">
		<stop offset="0" style="stop-color:#1AA4C8"/>
		<stop offset="1" style="stop-color:#3781C3"/>
	</linearGradient>
	<rect x="259" y="194.1" width="242.2" height="126.7" id="el_HtoIa4vUeJH"/>
	<g id="el_T1jJIaXSkWl">
		<line x1="475.4" y1="364.4" x2="475.4" y2="418.7" id="el_DT2HFYVGoMl"/>
	</g>
	<g id="el_v7E0lNog4LL">
		<line x1="474.3" y1="364.4" x2="474.3" y2="418.7" id="el_P7OiZTlITtS"/>
	</g>
	<linearGradient id="SVGID_4_" gradientUnits="userSpaceOnUse" x1="337.9399" y1="527.9993" x2="429.3964" y2="230.7658">
		<stop offset="0" style="stop-color:#1AA4C8"/>
		<stop offset="1" style="stop-color:#3781C3"/>
	</linearGradient>
	<rect x="259.5" y="335.9" width="241.7" height="108.7" id="el_sMBrgbiXecq"/>
	
		<rect x="490.2" y="188.5" width="9.3" height="256.1" id="el_VBP2pTjvoxB"/>
	<line x1="327.8" y1="350" x2="303.6" y2="350" id="el_zH22R2HMzfd"/>
	<line x1="441.7" y1="431.8" x2="433.4" y2="431.8" id="el_ogDS31b7bR-"/>
	<line x1="475.4" y1="431.8" x2="452.2" y2="431.8" id="el_wZDaLQI7POi"/>
	<rect x="259.5" y="189.2" width="241.7" height="131.6" id="el_Sq-38dcsXoL"/>
	<rect x="255.3" y="320.8" width="251.2" height="15.1" id="el_Yybw8ORvcut"/>
	<g id="el_Lp3MzvoXt5z">
		<path d="M498.2,194.1H261.4c-6.9,0-12.5-5.6-12.5-12.5v-0.8c0-6.9,5.6-12.5,12.5-12.5h236.7c6.9,0,12.5,5.6,12.5,12.5&#10;&#9;&#9;&#9;v0.8C510.6,188.5,505.1,194.1,498.2,194.1z" id="el_j3wTiEqmMsM"/>
	</g>
	<g id="el_omEQotbBbgt">
		<g id="el_x4fx_Mfqjwz">
			<linearGradient id="SVGID_5_" gradientUnits="userSpaceOnUse" x1="441.3947" y1="38.4559" x2="315.0663" y2="161.5451">
				<stop offset="0" style="stop-color:#1AA4C8"/>
				<stop offset="1" style="stop-color:#3781C3"/>
			</linearGradient>
			<path d="M439.1,143.3H313.2c-4.7,0-8.4-3.8-8.4-8.4V69.1c0-4.7,3.8-8.4,8.4-8.4h125.9c4.7,0,8.4,3.8,8.4,8.4v65.8&#10;&#9;&#9;&#9;&#9;C447.5,139.6,443.8,143.3,439.1,143.3z" id="el_Q7tlX2wzre6"/>
		</g>
		<line x1="338.7" y1="143.3" x2="338.7" y2="167.6" id="el_QUYws7U3zgh"/>
		<line x1="413.6" y1="143.3" x2="413.6" y2="167.6" id="el_OsaVvaUt_Yd"/>
		<line x1="319.4" y1="71.2" x2="353.1" y2="71.2" id="el_FqG5IBrflt8"/>
		<line x1="363.2" y1="71.2" x2="363.2" y2="71.2" id="el_BrP-24w4N-j"/>
	</g>
	<g id="el_CA2X2llQLPr">
		<linearGradient id="SVGID_6_" gradientUnits="userSpaceOnUse" x1="374.3018" y1="78.1234" x2="312.6736" y2="140.8424">
			<stop offset="0" style="stop-color:#EACC1E"/>
			<stop offset="1" style="stop-color:#E98F23"/>
		</linearGradient>
		<circle cx="344.7" cy="108.3" r="22.2" id="el_XjfGuzch9Bu"/>
		<path d="M354.9,108.2c-2.3-2.8-3.2-4.7-5.8-5.5c-1.3-0.4-3.2,0.2-4.5,1.5c-1.3-1.3-3.2-1.9-4.5-1.5c-2.5,0.8-3.5,2.6-5.8,5.5&#10;&#9;&#9;&#9;c-2.5,3-8.1,0.2-5.8,2.5c4,4,12.8,4.5,16,0c3.2,4.4,12,3.9,16,0C363,108.4,357.4,111.2,354.9,108.2z" id="el_XojUG_Q3TV4"/>
		<line x1="382" y1="93.1" x2="430.6" y2="93.1" id="el_g7Kf8yCypLX"/>
		<line x1="382" y1="105.8" x2="430.6" y2="105.8" id="el_yl-7ofhq2Qf"/>
		<line x1="382" y1="118.6" x2="405.1" y2="118.6" id="el_edSCsXk4MKv"/>
	</g>
	<linearGradient id="SVGID_7_" gradientUnits="userSpaceOnUse" x1="380.893" y1="344.723" x2="379.8022" y2="457.072">
		<stop offset="0" style="stop-color:#EE467B"/>
		<stop offset="1" style="stop-color:#F27770"/>
	</linearGradient>
	<rect x="359.9" y="364.5" width="40.8" height="79.9" id="el_aC_gmZWiZE8"/>
	<rect x="282" y="364.4" width="54.3" height="54.3" id="el_3fKfMP8eMAh"/>
	<rect x="323.3" y="365.6" width="10.7" height="53.1" id="el_cZ2Egr7NuOH"/>
	<rect x="282" y="364.4" width="54.3" height="54.3" id="el_gMSHKVzYL_m"/>
	<rect x="426.9" y="364.4" width="54.3" height="54.3" id="el_Tbz1cMDhS13"/>
	<rect x="468.2" y="365.6" width="10.7" height="53.1" id="el__2DPXBZjCFL"/>
	<rect x="426.9" y="364.4" width="54.3" height="54.3" id="el_wNYPpxXKjvB"/>
	<line x1="213.8" y1="444.7" x2="548.8" y2="444.7" id="el_Lx0kmCbcToW"/>
	<g id="el_4K9hvMLT4it">
		<linearGradient id="SVGID_8_" gradientUnits="userSpaceOnUse" x1="438.3182" y1="189.0817" x2="272.5217" y2="372.3305">
			<stop offset="0" style="stop-color:#EACC1E"/>
			<stop offset="1" style="stop-color:#E98F23"/>
		</linearGradient>
		<circle cx="378.8" cy="254.8" r="42.3" id="el_enOP8ne23Bf"/>
		<path d="M410.2,258.5c-0.9,7.7-4.6,14.5-9.9,19.4" id="el_CJJV8XYWaob"/>
		<g id="el_4VkTqARl4kk">
			<circle cx="367.7" cy="243.1" r="8" id="el_uR9oamOvIAn"/>
			
				<linearGradient id="SVGID_9_" gradientUnits="userSpaceOnUse" x1="3907.4072" y1="1356.1255" x2="3932.3037" y2="1356.1255" gradientTransform="matrix(-5.071187e-02 0.9987 -0.9987 -5.071187e-02 1933.2979 -3583.2981)">
				<stop offset="0" style="stop-color:#EA467B"/>
				<stop offset="1" style="stop-color:#E77F79"/>
			</linearGradient>
			<path d="M378.1,259.5c3.4,5.3,10.2,16.1,10.2,16.1S381.5,264.8,378.1,259.5c-3.4-5.3-6.1-9.6-6.1-9.6&#10;&#9;&#9;&#9;&#9;S374.7,254.2,378.1,259.5z" id="el_5ufsrFIeBtq"/>
		</g>
		<g id="el_HESO1wmuUJb">
			<circle cx="389.9" cy="243" r="8" id="el_0uzda06ohCD"/>
			
				<linearGradient id="SVGID_10_" gradientUnits="userSpaceOnUse" x1="3906.6023" y1="1358.6024" x2="3933.2532" y2="1358.6024" gradientTransform="matrix(-5.071187e-02 0.9987 -0.9987 -5.071187e-02 1933.2979 -3583.2981)">
				<stop offset="0" style="stop-color:#EA467B"/>
				<stop offset="1" style="stop-color:#E77F79"/>
			</linearGradient>
			<path d="M379.7,259.4c-3.3,5.3-10.1,16.2-10.1,16.2S376.3,264.8,379.7,259.4c3.3-5.3,6-9.7,6-9.7&#10;&#9;&#9;&#9;&#9;S383,254.1,379.7,259.4z" id="el_Vql9J9EKZlg"/>
		</g>
	</g>
	<line x1="390.1" y1="395" x2="390.1" y2="418.7" id="el_JfFyuFtyrJd"/>
	<line x1="424.4" y1="205.6" x2="463.8" y2="205.6" id="el_TrrIEnGnPDU"/>
	<line x1="474" y1="205.6" x2="478.5" y2="205.6" id="el_IzERm94mmNy"/>
	<rect x="350.8" y="433.2" width="59.5" height="16.5" id="el_nGA2WAcup-9"/>
	<line x1="299" y1="208" x2="274.9" y2="208" id="el_OZ7OISn0z2c"/>
	<line x1="323.8" y1="208" x2="309" y2="208" id="el_L3rgSwS5haf"/>
	<line x1="450.5" y1="306" x2="426.4" y2="306" id="el_AeQRrPNDHyr"/>
	<line x1="475.4" y1="306" x2="460.5" y2="306" id="el_3K-Kxmm8gX6"/>
</g></g>
<g id="el_fMUFznj1zW8_69qX1zk57" data-animator-group="true" data-animator-type="0"><g id="el_fMUFznj1zW8">
	<g id="el_ElURFtkvZyG">
		<path d="M234,531.1c0-43.9-50.5-79.4-112.9-79.4S8.3,487.2,8.3,531.1H234z" id="el_CblbIjXjstZ"/>
		<g id="el_FAzLtnns0OG">
			<linearGradient id="SVGID_11_" gradientUnits="userSpaceOnUse" x1="217.005" y1="482.0392" x2="114.9331" y2="625.7565">
				<stop offset="0" style="stop-color:#1AA4C8"/>
				<stop offset="1" style="stop-color:#3781C3"/>
			</linearGradient>
			<path d="M178.8,462.8V481v50.1H234C234,502.1,211.9,476.7,178.8,462.8z" id="el_ZcPQIWXLfUT"/>
			<linearGradient id="SVGID_12_" gradientUnits="userSpaceOnUse" x1="147.6191" y1="432.7594" x2="45.5472" y2="576.4767">
				<stop offset="0" style="stop-color:#1AA4C8"/>
				<stop offset="1" style="stop-color:#3781C3"/>
			</linearGradient>
			<path d="M92.5,481.6C92.5,481.6,92.5,481.6,92.5,481.6c0,7.4,6,13.4,13.4,13.4h30.6c0,0,0,0,0,0&#10;&#9;&#9;&#9;&#9;c7.4,0,13.4-6,13.4-13.4v-27.4c-9.2-1.7-18.8-2.6-28.7-2.6c-9.9,0-19.5,0.9-28.7,2.6V481.6z" id="el_X07yexIxInV"/>
			<linearGradient id="SVGID_13_" gradientUnits="userSpaceOnUse" x1="115.3102" y1="409.8127" x2="13.2382" y2="553.53">
				<stop offset="0" style="stop-color:#1AA4C8"/>
				<stop offset="1" style="stop-color:#3781C3"/>
			</linearGradient>
			<path d="M8.3,531.1h55.2v-68.3C30.4,476.7,8.3,502.1,8.3,531.1z" id="el_lrNu3DPMpaR"/>
		</g>
	</g>
	<linearGradient id="SVGID_14_" gradientUnits="userSpaceOnUse" x1="217.2086" y1="238.9608" x2="30.485" y2="374.5124">
		<stop offset="0" style="stop-color:#EACC1E"/>
		<stop offset="1" style="stop-color:#E98F23"/>
	</linearGradient>
	<path d="M46.5,366.8l-17-26.1c-26.3-59.2,12.9-100,36.5-88.9c47.8-31.7,104.5-26,148.3,14.9l4.8,4.4l-19.3,22.4&#10;&#9;&#9;l4.2,5.5c4.6,6,6.7,13.5,6,20.9l-3.5,37.6L46.5,366.8z" id="el_IRA2uKLFqj3"/>
	<path d="M40.9,379.5L40.9,379.5c-9.5,0-17.2-7.7-17.2-17.2v-2.5c0-9.5,7.7-17.2,17.2-17.2h0c9.5,0,17.2,7.7,17.2,17.2&#10;&#9;&#9;v2.5C58.1,371.8,50.4,379.5,40.9,379.5z" id="el_6qur7zFzxQb"/>
	<path d="M197.1,379.5L197.1,379.5c-9.5,0-17.2-7.7-17.2-17.2v-2.5c0-9.5,7.7-17.2,17.2-17.2h0&#10;&#9;&#9;c9.5,0,17.2,7.7,17.2,17.2v2.5C214.3,371.8,206.6,379.5,197.1,379.5z" id="el_QLQspT7dhFn"/>
	<path d="M119.8,439.6c-42.9,0-77.3-32.1-77.3-71.1v-47c0,0,25.7-5.7,33.1-25c36.2,28.2,118.9,12.2,118.9,12.2&#10;&#9;&#9;l3.7,59.3C198.1,407.1,162.7,439.6,119.8,439.6z" id="el_x70CDsn2riG"/>
	<linearGradient id="SVGID_15_" gradientUnits="userSpaceOnUse" x1="123.5046" y1="318.1145" x2="122" y2="460.3004">
		<stop offset="0" style="stop-color:#EACC1E"/>
		<stop offset="0.6432" style="stop-color:#E9A521"/>
		<stop offset="1" style="stop-color:#E98F23"/>
	</linearGradient>
	<path d="M53,441.3l37.2,24.2c18.2,11.8,41.4,12.4,60.2,1.6l43.8-25.2c5.8-3.4,9.2-9.8,8.6-16.5l-5.5-66.1l-20.8,51.9&#10;&#9;&#9;l-2.6-1c-34-12.8-71.6-12.4-105.3,1.2l0,0l-26.2-52.1l2.7,68.2C45.4,433,48.3,438.2,53,441.3z" id="el_Ki6F3g_-sSm"/>
	<path d="M88,257.6c0,0,10.2-8.7,34.7-11.4c14.2-1.6,28.9,2.2,28.9,2.2" id="el_JyB6Z3nLAgh"/>
</g></g>
</svg>