<svg version="1.1" id="el_9K838Tnhj" xmlns="http://www.w3.org/2000/svg" xmlns:xlink="http://www.w3.org/1999/xlink" x="0px" y="0px" viewBox="0 0 600 600" style="enable-background:new 0 0 600 800;" xml:space="preserve"><style>@-webkit-keyframes el_J5p-ykvI0g__Animation{0%{opacity: 1;}2.22%{opacity: 0;}24.44%{opacity: 0;}27.78%{opacity: 1;}100%{opacity: 1;}}@keyframes el_J5p-ykvI0g__Animation{0%{opacity: 1;}2.22%{opacity: 0;}24.44%{opacity: 0;}27.78%{opacity: 1;}100%{opacity: 1;}}@-webkit-keyframes el_qKtRL7lQQa7_JVy8nVL3M_Animation{17.78%{-webkit-transform: translate(371.0000305175781px, 245.79999542236328px) scale(1, 1) translate(-371.0000305175781px, -245.79999542236328px);transform: translate(371.0000305175781px, 245.79999542236328px) scale(1, 1) translate(-371.0000305175781px, -245.79999542236328px);}31.11%{-webkit-transform: translate(371.0000305175781px, 245.79999542236328px) scale(0.95, 0.95) translate(-371.0000305175781px, -245.79999542236328px);transform: translate(371.0000305175781px, 245.79999542236328px) scale(0.95, 0.95) translate(-371.0000305175781px, -245.79999542236328px);}46.67%{-webkit-transform: translate(371.0000305175781px, 245.79999542236328px) scale(1, 1) translate(-371.0000305175781px, -245.79999542236328px);transform: translate(371.0000305175781px, 245.79999542236328px) scale(1, 1) translate(-371.0000305175781px, -245.79999542236328px);}61.11%{-webkit-transform: translate(371.0000305175781px, 245.79999542236328px) scale(0.95, 0.95) translate(-371.0000305175781px, -245.79999542236328px);transform: translate(371.0000305175781px, 245.79999542236328px) scale(0.95, 0.95) translate(-371.0000305175781px, -245.79999542236328px);}75.56%{-webkit-transform: translate(371.0000305175781px, 245.79999542236328px) scale(1, 1) translate(-371.0000305175781px, -245.79999542236328px);transform: translate(371.0000305175781px, 245.79999542236328px) scale(1, 1) translate(-371.0000305175781px, -245.79999542236328px);}88.89%{-webkit-transform: translate(371.0000305175781px, 245.79999542236328px) scale(0.95, 0.95) translate(-371.0000305175781px, -245.79999542236328px);transform: translate(371.0000305175781px, 245.79999542236328px) scale(0.95, 0.95) translate(-371.0000305175781px, -245.79999542236328px);}100%{-webkit-transform: translate(371.0000305175781px, 245.79999542236328px) scale(1, 1) translate(-371.0000305175781px, -245.79999542236328px);transform: translate(371.0000305175781px, 245.79999542236328px) scale(1, 1) translate(-371.0000305175781px, -245.79999542236328px);}0%{-webkit-transform: translate(371.0000305175781px, 245.79999542236328px) scale(1, 1) translate(-371.0000305175781px, -245.79999542236328px);transform: translate(371.0000305175781px, 245.79999542236328px) scale(1, 1) translate(-371.0000305175781px, -245.79999542236328px);}}@keyframes el_qKtRL7lQQa7_JVy8nVL3M_Animation{17.78%{-webkit-transform: translate(371.0000305175781px, 245.79999542236328px) scale(1, 1) translate(-371.0000305175781px, -245.79999542236328px);transform: translate(371.0000305175781px, 245.79999542236328px) scale(1, 1) translate(-371.0000305175781px, -245.79999542236328px);}31.11%{-webkit-transform: translate(371.0000305175781px, 245.79999542236328px) scale(0.95, 0.95) translate(-371.0000305175781px, -245.79999542236328px);transform: translate(371.0000305175781px, 245.79999542236328px) scale(0.95, 0.95) translate(-371.0000305175781px, -245.79999542236328px);}46.67%{-webkit-transform: translate(371.0000305175781px, 245.79999542236328px) scale(1, 1) translate(-371.0000305175781px, -245.79999542236328px);transform: translate(371.0000305175781px, 245.79999542236328px) scale(1, 1) translate(-371.0000305175781px, -245.79999542236328px);}61.11%{-webkit-transform: translate(371.0000305175781px, 245.79999542236328px) scale(0.95, 0.95) translate(-371.0000305175781px, -245.79999542236328px);transform: translate(371.0000305175781px, 245.79999542236328px) scale(0.95, 0.95) translate(-371.0000305175781px, -245.79999542236328px);}75.56%{-webkit-transform: translate(371.0000305175781px, 245.79999542236328px) scale(1, 1) translate(-371.0000305175781px, -245.79999542236328px);transform: translate(371.0000305175781px, 245.79999542236328px) scale(1, 1) translate(-371.0000305175781px, -245.79999542236328px);}88.89%{-webkit-transform: translate(371.0000305175781px, 245.79999542236328px) scale(0.95, 0.95) translate(-371.0000305175781px, -245.79999542236328px);transform: translate(371.0000305175781px, 245.79999542236328px) scale(0.95, 0.95) translate(-371.0000305175781px, -245.79999542236328px);}100%{-webkit-transform: translate(371.0000305175781px, 245.79999542236328px) scale(1, 1) translate(-371.0000305175781px, -245.79999542236328px);transform: translate(371.0000305175781px, 245.79999542236328px) scale(1, 1) translate(-371.0000305175781px, -245.79999542236328px);}0%{-webkit-transform: translate(371.0000305175781px, 245.79999542236328px) scale(1, 1) translate(-371.0000305175781px, -245.79999542236328px);transform: translate(371.0000305175781px, 245.79999542236328px) scale(1, 1) translate(-371.0000305175781px, -245.79999542236328px);}}@-webkit-keyframes el_KJSjmwIRGWR_Animation{0%{opacity: 1;}1.11%{opacity: 0.4;}18.89%{opacity: 1;}100%{opacity: 1;}}@keyframes el_KJSjmwIRGWR_Animation{0%{opacity: 1;}1.11%{opacity: 0.4;}18.89%{opacity: 1;}100%{opacity: 1;}}@-webkit-keyframes el_KJSjmwIRGWR_ud-KaVeUc_Animation{0%{-webkit-transform: translate(558px, 191px) scale(1, 1) translate(-558px, -191px);transform: translate(558px, 191px) scale(1, 1) translate(-558px, -191px);}1.11%{-webkit-transform: translate(558px, 191px) scale(2, 2) translate(-558px, -191px);transform: translate(558px, 191px) scale(2, 2) translate(-558px, -191px);}21.11%{-webkit-transform: translate(558px, 191px) scale(1, 1) translate(-558px, -191px);transform: translate(558px, 191px) scale(1, 1) translate(-558px, -191px);}100%{-webkit-transform: translate(558px, 191px) scale(1, 1) translate(-558px, -191px);transform: translate(558px, 191px) scale(1, 1) translate(-558px, -191px);}}@keyframes el_KJSjmwIRGWR_ud-KaVeUc_Animation{0%{-webkit-transform: translate(558px, 191px) scale(1, 1) translate(-558px, -191px);transform: translate(558px, 191px) scale(1, 1) translate(-558px, -191px);}1.11%{-webkit-transform: translate(558px, 191px) scale(2, 2) translate(-558px, -191px);transform: translate(558px, 191px) scale(2, 2) translate(-558px, -191px);}21.11%{-webkit-transform: translate(558px, 191px) scale(1, 1) translate(-558px, -191px);transform: translate(558px, 191px) scale(1, 1) translate(-558px, -191px);}100%{-webkit-transform: translate(558px, 191px) scale(1, 1) translate(-558px, -191px);transform: translate(558px, 191px) scale(1, 1) translate(-558px, -191px);}}@-webkit-keyframes el_XR-ir98H4x_Animation{0%{opacity: 1;}1.11%{opacity: 0;}31.11%{opacity: 0;}60%{opacity: 1;}100%{opacity: 1;}}@keyframes el_XR-ir98H4x_Animation{0%{opacity: 1;}1.11%{opacity: 0;}31.11%{opacity: 0;}60%{opacity: 1;}100%{opacity: 1;}}@-webkit-keyframes el_XR-ir98H4x_4Fmk6MzEL_Animation{0%{-webkit-transform: translate(220.8000030517578px, 526.9000244140625px) translate(-220.8000030517578px, -526.9000244140625px) translate(0px, 0px);transform: translate(220.8000030517578px, 526.9000244140625px) translate(-220.8000030517578px, -526.9000244140625px) translate(0px, 0px);}23.33%{-webkit-transform: translate(220.8000030517578px, 526.9000244140625px) translate(-220.8000030517578px, -526.9000244140625px) translate(-150px, 0px);transform: translate(220.8000030517578px, 526.9000244140625px) translate(-220.8000030517578px, -526.9000244140625px) translate(-150px, 0px);}57.78%{-webkit-transform: translate(220.8000030517578px, 526.9000244140625px) translate(-220.8000030517578px, -526.9000244140625px) translate(0px, 0px);transform: translate(220.8000030517578px, 526.9000244140625px) translate(-220.8000030517578px, -526.9000244140625px) translate(0px, 0px);}97.78%{-webkit-transform: translate(220.8000030517578px, 526.9000244140625px) translate(-220.8000030517578px, -526.9000244140625px) translate(0px, 0px);transform: translate(220.8000030517578px, 526.9000244140625px) translate(-220.8000030517578px, -526.9000244140625px) translate(0px, 0px);}100%{-webkit-transform: translate(220.8000030517578px, 526.9000244140625px) translate(-220.8000030517578px, -526.9000244140625px) translate(0px, 0px);transform: translate(220.8000030517578px, 526.9000244140625px) translate(-220.8000030517578px, -526.9000244140625px) translate(0px, 0px);}}@keyframes el_XR-ir98H4x_4Fmk6MzEL_Animation{0%{-webkit-transform: translate(220.8000030517578px, 526.9000244140625px) translate(-220.8000030517578px, -526.9000244140625px) translate(0px, 0px);transform: translate(220.8000030517578px, 526.9000244140625px) translate(-220.8000030517578px, -526.9000244140625px) translate(0px, 0px);}23.33%{-webkit-transform: translate(220.8000030517578px, 526.9000244140625px) translate(-220.8000030517578px, -526.9000244140625px) translate(-150px, 0px);transform: translate(220.8000030517578px, 526.9000244140625px) translate(-220.8000030517578px, -526.9000244140625px) translate(-150px, 0px);}57.78%{-webkit-transform: translate(220.8000030517578px, 526.9000244140625px) translate(-220.8000030517578px, -526.9000244140625px) translate(0px, 0px);transform: translate(220.8000030517578px, 526.9000244140625px) translate(-220.8000030517578px, -526.9000244140625px) translate(0px, 0px);}97.78%{-webkit-transform: translate(220.8000030517578px, 526.9000244140625px) translate(-220.8000030517578px, -526.9000244140625px) translate(0px, 0px);transform: translate(220.8000030517578px, 526.9000244140625px) translate(-220.8000030517578px, -526.9000244140625px) translate(0px, 0px);}100%{-webkit-transform: translate(220.8000030517578px, 526.9000244140625px) translate(-220.8000030517578px, -526.9000244140625px) translate(0px, 0px);transform: translate(220.8000030517578px, 526.9000244140625px) translate(-220.8000030517578px, -526.9000244140625px) translate(0px, 0px);}}#el_9K838Tnhj *{-webkit-animation-duration: 3s;animation-duration: 3s;-webkit-animation-iteration-count: infinite;animation-iteration-count: infinite;-webkit-animation-timing-function: cubic-bezier(0, 0, 1, 1);animation-timing-function: cubic-bezier(0, 0, 1, 1);}#el_2QAMyx-GU1{fill: url(#SVGID_1_);stroke: #000000;stroke-width: 5;stroke-linejoin: round;stroke-miterlimit: 10;}#el_CpQ1MdNRAY{fill: #FFFFFF;}#el_PyAvzo1I32{fill: #FFFFFF;}#el_jIL1yl4wMW{fill: #FFFFFF;}#el_3d0izIc4zn{fill: #FFFFFF;}#el_w_77-GpymF{fill: #FFFFFF;}#el_EX1N_kFnKy{fill: #FFFFFF;}#el_IdC8-UrjH8{fill: #FFFFFF;}#el_-eq6cRt3E_{fill: #FFFFFF;}#el_QaetnX6Trv{fill: #FFFFFF;}#el_t2mLqMQgIt{fill: #FFFFFF;}#el_hA5fQ1Q8-b{fill: #FFFFFF;}#el_WRcmLsyNUSL{fill: #FFFFFF;}#el_mn9HH3yKoJE{fill: #FFFFFF;}#el_bx-7IoCaIUW{fill: #FFFFFF;}#el_2K_fwgC5t4K{fill: #FFFFFF;}#el_b2UDYf1HVtK{fill: #FFFFFF;}#el_dUbijrcrqjJ{fill: #FFFFFF;}#el_eVIPsIdL3Lv{fill: #FFFFFF;}#el_A_NcAB_1li9{fill: #FFFFFF;}#el_-2IG3pc_Gtj{fill: #FFFFFF;}#el_bpMLuWt7gYz{fill: #FFFFFF;}#el_VxJc8i-evrC{fill: #FFFFFF;}#el_omA1kcSuuG3{fill: #FFFFFF;}#el_zigTiNFbHYh{fill: #FFFFFF;}#el_4VIcneIP5v9{fill: #FFFFFF;}#el_zO2nNaBR5Ga{fill: #FFFFFF;}#el_nePjFnvjvnb{fill: #FFFFFF;}#el_PWbaG-FHACT{fill: #FFFFFF;}#el_fZDNMdsaaX8{fill: #FFFFFF;}#el_ohynbSzfvYT{fill: #FFFFFF;}#el_fDmH7rmCk4Z{fill: #FFFFFF;}#el_mMKup7uV2nG{fill: url(#SVGID_2_);}#el_1hAEzONkKzM{fill: none;stroke: #000000;stroke-width: 5;stroke-linecap: round;stroke-miterlimit: 10;}#el_d1h617DWS0L{fill: none;stroke: #000000;stroke-width: 4;stroke-linecap: round;stroke-linejoin: round;stroke-miterlimit: 10;}#el_YvB4oaOhA3Q{fill: url(#SVGID_3_);stroke: #000000;stroke-width: 4;stroke-miterlimit: 10;}#el_z0WtGDsyjmd{fill: url(#SVGID_4_);stroke: #000000;stroke-width: 5;stroke-linecap: round;stroke-linejoin: round;stroke-miterlimit: 10;}#el_XQqUyjdfULU{fill: url(#SVGID_5_);stroke: #000000;stroke-width: 5;stroke-linecap: round;stroke-linejoin: round;stroke-miterlimit: 10;}#el_GIBdHN87frq{fill: none;stroke: #FFFFFF;stroke-width: 4;stroke-linecap: round;stroke-linejoin: round;stroke-miterlimit: 10;}#el_-JCJQh7xDAS{fill: url(#SVGID_6_);stroke: #000000;stroke-width: 3.5695;stroke-miterlimit: 10;}#el_xE7sIsuyDDW{fill: none;stroke: #FFFFFF;stroke-width: 4;stroke-linecap: round;stroke-linejoin: round;stroke-miterlimit: 10;}#el_HtyEQKreN6F{fill: none;stroke: #FFFFFF;stroke-width: 4;stroke-linecap: round;stroke-linejoin: round;stroke-miterlimit: 10;}#el_0tIeUsmDheX{fill: url(#SVGID_7_);}#el_wM2DseQFAvQ{fill: #53C5E3;}#el_UOsZuEz8taZ{fill: none;stroke: #000000;stroke-width: 4;stroke-miterlimit: 10;}#el_hanBIRgy_5r{fill: #FFFFFF;stroke: #000000;stroke-width: 4;stroke-linecap: round;stroke-linejoin: round;stroke-miterlimit: 10;}#el_JfEh1MdGyiO{fill: url(#SVGID_8_);}#el_-5weQa1EAeK{fill: #53C5E3;-webkit-transform: matrix(-1, -1.224647e-16, 1.224647e-16, -1, 953.0836, 879.3767);transform: matrix(-1, -1.224647e-16, 1.224647e-16, -1, 953.0836, 879.3767);}#el_T_31ghcLTRv{fill: none;stroke: #000000;stroke-width: 4;stroke-linecap: round;stroke-linejoin: round;stroke-miterlimit: 10;}#el__Gq2-dA7pEq{fill: #3BA7DE;}#el_dnwsmYbJIrl{fill: #5DC1ED;}#el_qTs6NhKTYUh{fill: none;stroke: #000000;stroke-width: 4;stroke-miterlimit: 10;}#el_GZGREl6B_qw{fill: #FFFFFF;stroke: #000000;stroke-width: 4;stroke-linecap: round;stroke-linejoin: round;stroke-miterlimit: 10;}#el__fvmjtAwz7P{fill: #FFFFFF;stroke: #000000;stroke-width: 4;stroke-linecap: round;stroke-linejoin: round;stroke-miterlimit: 10;}#el_QWhAoioQ7nc{fill: url(#SVGID_9_);stroke: #000000;stroke-width: 3.5695;stroke-miterlimit: 10;}#el_2oXRalvMc3k{fill: #FFFFFF;stroke: #000000;stroke-width: 4;stroke-linecap: round;stroke-linejoin: round;stroke-miterlimit: 10;}#el_BjAo7fqUVLJ{fill: url(#SVGID_10_);stroke: #000000;stroke-width: 3.5695;stroke-miterlimit: 10;}#el_TfjjLH_9TR-{fill: url(#SVGID_11_);stroke: #000000;stroke-width: 3.5695;stroke-miterlimit: 10;}#el_N3y6gJA4jcg{fill: none;stroke: #226396;stroke-width: 4;stroke-linecap: round;stroke-miterlimit: 10;}#el_l0ImJ1diQk9{fill: none;stroke: #226396;stroke-width: 4;stroke-linecap: round;stroke-miterlimit: 10;}#el_zduRnijgo6y{fill: none;stroke: #226396;stroke-width: 4;stroke-linecap: round;stroke-miterlimit: 10;}#el_-Jfx0-KBcm-{fill: #FFFFFF;stroke: #000000;stroke-width: 4;stroke-linecap: round;stroke-linejoin: round;stroke-miterlimit: 10;}#el_XoXoBFUazXd{fill: none;stroke: #226396;stroke-width: 4;stroke-linecap: round;stroke-miterlimit: 10;}#el_UoVG4U6Ffvl{fill: none;stroke: #FFFFFF;stroke-width: 4;stroke-linecap: round;stroke-linejoin: round;stroke-miterlimit: 10;}#el_jkbsybs0HVg{fill: #FFFFFF;stroke: #000000;stroke-width: 4;stroke-linecap: round;stroke-linejoin: round;stroke-miterlimit: 10;}#el_lVuATL4P9Aa{fill: url(#SVGID_12_);stroke: #000000;stroke-width: 5;stroke-miterlimit: 10;}#el_08CHe9s7R1N{fill: url(#SVGID_13_);stroke: #000000;stroke-width: 5;stroke-miterlimit: 10;}#el_7O7n1v8eX5N{fill: #FFFFFF;stroke: #000000;stroke-width: 5;stroke-miterlimit: 10;}#el_52K0Ev7xFTe{fill: #FFFFFF;stroke: #000000;stroke-width: 5;stroke-miterlimit: 10;}#el_EUYdB72ZBHP{fill: #FFFFFF;stroke: #000000;stroke-width: 5;stroke-miterlimit: 10;}#el_ktedzObG4TT{fill: #FFFFFF;stroke: #000000;stroke-width: 5;stroke-miterlimit: 10;}#el_QVFyhm48aUA{fill: #FFFFFF;stroke: #000000;stroke-width: 5;stroke-miterlimit: 10;}#el_iXD5OhQcWOV{fill: url(#SVGID_14_);stroke: #000000;stroke-width: 5;stroke-linecap: round;stroke-linejoin: round;stroke-miterlimit: 10;}#el_H2WsRA4vzIj{fill: url(#SVGID_15_);stroke: #000000;stroke-width: 5;stroke-miterlimit: 10;}#el_kAeUkTighC-{fill: none;stroke: #FFFFFF;stroke-width: 4;stroke-linecap: round;stroke-linejoin: round;stroke-miterlimit: 10;}#el_KaTehcR28MT{fill: none;stroke: #FFFFFF;stroke-width: 4;stroke-linecap: round;stroke-linejoin: round;stroke-miterlimit: 10;}#el_7__flKxUK8M{fill: url(#SVGID_16_);stroke: #000000;stroke-width: 5;stroke-miterlimit: 10;}#el_XR-ir98H4x_4Fmk6MzEL{-webkit-animation-name: el_XR-ir98H4x_4Fmk6MzEL_Animation;animation-name: el_XR-ir98H4x_4Fmk6MzEL_Animation;-webkit-transform: translate(220.8000030517578px, 526.9000244140625px) translate(-220.8000030517578px, -526.9000244140625px) translate(0px, 0px);transform: translate(220.8000030517578px, 526.9000244140625px) translate(-220.8000030517578px, -526.9000244140625px) translate(0px, 0px);}#el_XR-ir98H4x{-webkit-animation-name: el_XR-ir98H4x_Animation;animation-name: el_XR-ir98H4x_Animation;opacity: 1;}#el_KJSjmwIRGWR_ud-KaVeUc{-webkit-animation-name: el_KJSjmwIRGWR_ud-KaVeUc_Animation;animation-name: el_KJSjmwIRGWR_ud-KaVeUc_Animation;-webkit-transform: translate(558px, 191px) scale(1, 1) translate(-558px, -191px);transform: translate(558px, 191px) scale(1, 1) translate(-558px, -191px);}#el_KJSjmwIRGWR{-webkit-animation-name: el_KJSjmwIRGWR_Animation;animation-name: el_KJSjmwIRGWR_Animation;opacity: 1;}#el_qKtRL7lQQa7_JVy8nVL3M{-webkit-animation-name: el_qKtRL7lQQa7_JVy8nVL3M_Animation;animation-name: el_qKtRL7lQQa7_JVy8nVL3M_Animation;-webkit-transform: translate(371.0000305175781px, 245.79999542236328px) scale(1, 1) translate(-371.0000305175781px, -245.79999542236328px);transform: translate(371.0000305175781px, 245.79999542236328px) scale(1, 1) translate(-371.0000305175781px, -245.79999542236328px);}#el_J5p-ykvI0g_{-webkit-animation-name: el_J5p-ykvI0g__Animation;animation-name: el_J5p-ykvI0g__Animation;opacity: 1;}</style>

<g id="el_XR-ir98H4x_4Fmk6MzEL" data-animator-group="true" data-animator-type="0"><g id="el_XR-ir98H4x">
	<linearGradient id="SVGID_1_" gradientUnits="userSpaceOnUse" x1="220.7753" y1="549.4456" x2="539.8275" y2="549.4456">
		<stop offset="0" style="stop-color:#18A3C7"/>
		<stop offset="1" style="stop-color:#3680C3"/>
	</linearGradient>
	<rect x="220.8" y="526.9" width="319.1" height="45.1" id="el_2QAMyx-GU1"/>
	<g id="el_Vuenv9Lg69">
		<g id="el_Xta5c6y463">
			<path d="M302.3,544.2h1.6l0.7,4.3l0.2,1.7h0.1l0.8-1.7l2.4-4.3h1.6l-1.7,8.6h-1.3l0.8-4.1c0-0.2,0.1-0.4,0.2-0.7&#10;&#9;&#9;&#9;&#9;c0.1-0.2,0.1-0.5,0.2-0.7c0.1-0.2,0.1-0.5,0.2-0.7c0.1-0.2,0.1-0.4,0.2-0.6h0l-1,1.9l-2.3,4h-0.7l-0.7-4l-0.3-1.9H303&#10;&#9;&#9;&#9;&#9;c0,0.4-0.1,0.9-0.2,1.3c-0.1,0.5-0.1,0.9-0.2,1.3l-0.8,4.1h-1.3L302.3,544.2z" id="el_CpQ1MdNRAY"/>
			<path d="M309.9,554.3c0.3,0,0.5-0.1,0.8-0.3c0.3-0.2,0.5-0.5,0.6-0.9l0.2-0.4l-1.1-6.4h1.4l0.4,3.3&#10;&#9;&#9;&#9;&#9;c0,0.3,0.1,0.6,0.1,1c0,0.3,0,0.7,0.1,1h0.1c0.1-0.3,0.3-0.6,0.5-1c0.2-0.3,0.3-0.7,0.5-1l1.6-3.3h1.4l-3.6,6.8&#10;&#9;&#9;&#9;&#9;c-0.2,0.4-0.4,0.7-0.6,1c-0.2,0.3-0.4,0.5-0.6,0.7c-0.2,0.2-0.5,0.4-0.7,0.5c-0.3,0.1-0.6,0.2-0.9,0.2c-0.1,0-0.2,0-0.4-0.1&#10;&#9;&#9;&#9;&#9;c-0.2,0-0.3-0.1-0.4-0.2l0.4-1C309.6,554.3,309.7,554.3,309.9,554.3z" id="el_PyAvzo1I32"/>
			<path d="M318.8,550.3c0-0.6,0.1-1.1,0.3-1.6c0.2-0.5,0.5-0.9,0.8-1.3c0.3-0.4,0.7-0.7,1.2-0.9&#10;&#9;&#9;&#9;&#9;c0.4-0.2,0.9-0.3,1.4-0.3c0.4,0,0.7,0.1,1,0.2c0.3,0.2,0.5,0.3,0.7,0.6l-0.8,0.9c-0.1-0.2-0.3-0.3-0.4-0.4&#10;&#9;&#9;&#9;&#9;c-0.1-0.1-0.3-0.1-0.5-0.1c-0.3,0-0.6,0.1-0.8,0.2c-0.3,0.2-0.5,0.4-0.7,0.6c-0.2,0.3-0.4,0.6-0.5,0.9c-0.1,0.4-0.2,0.7-0.2,1.1&#10;&#9;&#9;&#9;&#9;c0,0.5,0.1,0.9,0.3,1.1c0.2,0.3,0.5,0.4,1,0.4c0.3,0,0.5-0.1,0.7-0.2c0.2-0.1,0.4-0.2,0.5-0.3l0.6,0.9c-0.2,0.2-0.5,0.3-0.9,0.5&#10;&#9;&#9;&#9;&#9;c-0.3,0.2-0.7,0.2-1.2,0.2c-0.4,0-0.7-0.1-1-0.2c-0.3-0.1-0.6-0.3-0.8-0.5c-0.2-0.2-0.4-0.5-0.5-0.8&#10;&#9;&#9;&#9;&#9;C318.8,551.1,318.8,550.7,318.8,550.3z" id="el_jIL1yl4wMW"/>
			<path d="M329.5,552.8h-1.1l0.1-0.9h-0.1c-0.3,0.3-0.7,0.5-1,0.8c-0.4,0.2-0.7,0.3-1.1,0.3c-0.5,0-0.9-0.1-1.2-0.4&#10;&#9;&#9;&#9;&#9;c-0.2-0.3-0.4-0.7-0.4-1.2c0-0.1,0-0.3,0-0.4c0-0.1,0-0.3,0.1-0.5l0.8-4.1h1.4l-0.8,3.9c0,0.1-0.1,0.3-0.1,0.4c0,0.1,0,0.2,0,0.3&#10;&#9;&#9;&#9;&#9;c0,0.6,0.3,0.8,0.8,0.8c0.4,0,1-0.3,1.6-1l0.9-4.4h1.4L329.5,552.8z" id="el_3d0izIc4zn"/>
			<path d="M331.8,551c0.2,0.3,0.4,0.5,0.7,0.6c0.3,0.1,0.5,0.2,0.8,0.2c0.3,0,0.6-0.1,0.8-0.2c0.2-0.2,0.3-0.4,0.3-0.6&#10;&#9;&#9;&#9;&#9;c0-0.2-0.1-0.4-0.3-0.5c-0.2-0.1-0.5-0.3-0.9-0.6c-0.4-0.2-0.8-0.5-1-0.8c-0.2-0.3-0.4-0.6-0.4-1c0-0.3,0.1-0.6,0.2-0.8&#10;&#9;&#9;&#9;&#9;c0.1-0.2,0.3-0.5,0.5-0.6c0.2-0.2,0.5-0.3,0.7-0.4c0.3-0.1,0.6-0.2,0.9-0.2c0.4,0,0.8,0.1,1.1,0.3c0.3,0.2,0.6,0.4,0.9,0.7&#10;&#9;&#9;&#9;&#9;l-0.8,0.7c-0.2-0.2-0.3-0.3-0.5-0.4c-0.2-0.1-0.4-0.2-0.7-0.2c-0.3,0-0.5,0.1-0.7,0.2c-0.2,0.2-0.3,0.4-0.3,0.6&#10;&#9;&#9;&#9;&#9;c0,0.1,0,0.2,0.1,0.3c0.1,0.1,0.1,0.2,0.2,0.2c0.1,0.1,0.2,0.2,0.4,0.2c0.1,0.1,0.3,0.1,0.4,0.2c0.5,0.3,0.8,0.5,1.1,0.8&#10;&#9;&#9;&#9;&#9;c0.2,0.3,0.4,0.6,0.4,1c0,0.3-0.1,0.6-0.2,0.9c-0.1,0.3-0.3,0.5-0.5,0.7c-0.2,0.2-0.5,0.3-0.8,0.4c-0.3,0.1-0.7,0.1-1,0.1&#10;&#9;&#9;&#9;&#9;c-0.2,0-0.4,0-0.6-0.1c-0.2-0.1-0.4-0.1-0.6-0.2c-0.2-0.1-0.4-0.2-0.6-0.4c-0.2-0.2-0.3-0.3-0.4-0.5L331.8,551z" id="el_w_77-GpymF"/>
			<path d="M338.1,547.5h-0.9l0.2-1.1l1-0.1l0.5-1.7h1.2l-0.3,1.7h1.5l-0.2,1.1h-1.6l-0.7,3.2c0,0.2,0,0.3,0,0.5&#10;&#9;&#9;&#9;&#9;c0,0.2,0.1,0.4,0.2,0.5c0.1,0.1,0.3,0.2,0.6,0.2c0.1,0,0.2,0,0.3-0.1c0.1,0,0.2-0.1,0.3-0.1l0.3,1c-0.2,0.1-0.3,0.1-0.6,0.2&#10;&#9;&#9;&#9;&#9;c-0.2,0.1-0.5,0.1-0.8,0.1c-0.6,0-1-0.2-1.3-0.5c-0.3-0.3-0.4-0.7-0.4-1.1c0-0.1,0-0.3,0-0.4c0-0.1,0-0.2,0.1-0.4L338.1,547.5z" id="el_EX1N_kFnKy"/>
			<path d="M343.7,553c-0.4,0-0.7-0.1-1-0.2c-0.3-0.1-0.5-0.3-0.8-0.5c-0.2-0.2-0.4-0.5-0.5-0.8&#10;&#9;&#9;&#9;&#9;c-0.1-0.3-0.2-0.7-0.2-1.1c0-0.6,0.1-1.2,0.3-1.7c0.2-0.5,0.5-0.9,0.8-1.3c0.3-0.4,0.7-0.6,1.1-0.8c0.4-0.2,0.9-0.3,1.3-0.3&#10;&#9;&#9;&#9;&#9;c0.7,0,1.3,0.2,1.8,0.7c0.4,0.5,0.7,1.1,0.7,1.9c0,0.6-0.1,1.2-0.3,1.7c-0.2,0.5-0.5,0.9-0.8,1.3c-0.3,0.4-0.7,0.6-1.1,0.8&#10;&#9;&#9;&#9;&#9;C344.6,552.9,344.1,553,343.7,553z M344.7,547.3c-0.3,0-0.5,0.1-0.7,0.2c-0.2,0.2-0.5,0.4-0.6,0.6s-0.3,0.6-0.4,0.9&#10;&#9;&#9;&#9;&#9;s-0.2,0.7-0.2,1.2c0,0.5,0.1,0.9,0.3,1.1c0.2,0.3,0.5,0.4,0.8,0.4c0.3,0,0.5-0.1,0.7-0.2c0.2-0.2,0.4-0.4,0.6-0.6&#10;&#9;&#9;&#9;&#9;c0.2-0.3,0.3-0.6,0.4-0.9c0.1-0.4,0.2-0.7,0.2-1.2c0-0.5-0.1-0.9-0.3-1.1C345.3,547.5,345.1,547.3,344.7,547.3z" id="el_IdC8-UrjH8"/>
			<path d="M349.3,546.3h1.1l-0.1,0.9h0.1c0.3-0.3,0.7-0.5,1-0.7c0.4-0.2,0.7-0.3,1.1-0.3c0.2,0,0.5,0,0.6,0.1&#10;&#9;&#9;&#9;&#9;c0.2,0.1,0.3,0.1,0.4,0.2c0.1,0.1,0.2,0.2,0.3,0.4c0.1,0.1,0.1,0.3,0.2,0.5c0.4-0.4,0.8-0.7,1.1-0.9c0.4-0.2,0.7-0.3,1.1-0.3&#10;&#9;&#9;&#9;&#9;c0.5,0,0.9,0.1,1.2,0.4c0.2,0.3,0.4,0.7,0.4,1.2c0,0.1,0,0.3,0,0.4c0,0.1,0,0.3-0.1,0.5l-0.8,4.1h-1.4l0.8-3.9&#10;&#9;&#9;&#9;&#9;c0-0.1,0.1-0.3,0.1-0.4c0-0.1,0-0.2,0-0.3c0-0.6-0.3-0.8-0.8-0.8c-0.2,0-0.4,0.1-0.6,0.2c-0.3,0.2-0.6,0.4-0.9,0.8l-0.9,4.4h-1.4&#10;&#9;&#9;&#9;&#9;l0.8-3.9c0-0.1,0.1-0.3,0.1-0.4c0-0.1,0-0.2,0-0.3c0-0.6-0.3-0.8-0.8-0.8c-0.2,0-0.4,0.1-0.7,0.2s-0.6,0.4-0.9,0.8l-0.9,4.4H348&#10;&#9;&#9;&#9;&#9;L349.3,546.3z" id="el_-eq6cRt3E_"/>
			<path d="M358.8,550.2c0-0.6,0.1-1.2,0.3-1.7c0.2-0.5,0.5-0.9,0.8-1.3s0.7-0.6,1.1-0.8c0.4-0.2,0.8-0.3,1.3-0.3&#10;&#9;&#9;&#9;&#9;c0.4,0,0.7,0.1,0.9,0.2c0.3,0.1,0.5,0.3,0.6,0.5c0.2,0.2,0.3,0.5,0.4,0.8c0.1,0.3,0.1,0.6,0.1,0.9c0,0.3,0,0.6-0.1,0.8&#10;&#9;&#9;&#9;&#9;c-0.1,0.3-0.1,0.4-0.2,0.6h-3.9c0,0.3,0,0.6,0.1,0.9c0.1,0.2,0.2,0.4,0.3,0.6c0.1,0.2,0.3,0.3,0.5,0.3c0.2,0.1,0.4,0.1,0.7,0.1&#10;&#9;&#9;&#9;&#9;c0.2,0,0.5-0.1,0.7-0.2c0.2-0.1,0.4-0.2,0.6-0.4l0.5,0.9c-0.3,0.2-0.6,0.3-0.9,0.5c-0.4,0.1-0.8,0.2-1.2,0.2&#10;&#9;&#9;&#9;&#9;c-0.4,0-0.7-0.1-1-0.2c-0.3-0.1-0.6-0.3-0.8-0.5c-0.2-0.2-0.4-0.5-0.5-0.9C358.8,551,358.8,550.7,358.8,550.2z M363.1,549&#10;&#9;&#9;&#9;&#9;c0-0.1,0-0.2,0-0.3c0-0.1,0-0.2,0-0.3c0-0.3-0.1-0.6-0.2-0.8c-0.2-0.2-0.4-0.4-0.8-0.4c-0.4,0-0.8,0.2-1.1,0.5&#10;&#9;&#9;&#9;&#9;c-0.3,0.3-0.6,0.7-0.8,1.3H363.1z" id="el_QaetnX6Trv"/>
			<path d="M366.3,546.3h1.1l-0.1,1.2h0.1c0.3-0.4,0.5-0.7,0.9-1c0.3-0.3,0.7-0.4,1.1-0.4c0.3,0,0.5,0,0.6,0.1l-0.5,1.2&#10;&#9;&#9;&#9;&#9;c-0.1,0-0.2-0.1-0.3-0.1c-0.1,0-0.2,0-0.3,0c-0.3,0-0.6,0.1-0.9,0.4c-0.3,0.2-0.6,0.6-0.8,1.1l-0.8,3.9H365L366.3,546.3z" id="el_t2mLqMQgIt"/>
			<path d="M370.2,551c0.2,0.3,0.4,0.5,0.7,0.6c0.3,0.1,0.5,0.2,0.8,0.2c0.3,0,0.6-0.1,0.8-0.2c0.2-0.2,0.3-0.4,0.3-0.6&#10;&#9;&#9;&#9;&#9;c0-0.2-0.1-0.4-0.3-0.5c-0.2-0.1-0.5-0.3-0.9-0.6c-0.4-0.2-0.8-0.5-1-0.8c-0.2-0.3-0.4-0.6-0.4-1c0-0.3,0.1-0.6,0.2-0.8&#10;&#9;&#9;&#9;&#9;c0.1-0.2,0.3-0.5,0.5-0.6c0.2-0.2,0.5-0.3,0.7-0.4c0.3-0.1,0.6-0.2,0.9-0.2c0.4,0,0.8,0.1,1.1,0.3c0.3,0.2,0.6,0.4,0.9,0.7&#10;&#9;&#9;&#9;&#9;l-0.8,0.7c-0.2-0.2-0.3-0.3-0.5-0.4c-0.2-0.1-0.4-0.2-0.7-0.2c-0.3,0-0.5,0.1-0.7,0.2c-0.2,0.2-0.3,0.4-0.3,0.6&#10;&#9;&#9;&#9;&#9;c0,0.1,0,0.2,0.1,0.3c0.1,0.1,0.1,0.2,0.2,0.2c0.1,0.1,0.2,0.2,0.4,0.2c0.1,0.1,0.3,0.1,0.4,0.2c0.5,0.3,0.8,0.5,1.1,0.8&#10;&#9;&#9;&#9;&#9;c0.2,0.3,0.4,0.6,0.4,1c0,0.3-0.1,0.6-0.2,0.9c-0.1,0.3-0.3,0.5-0.5,0.7c-0.2,0.2-0.5,0.3-0.8,0.4c-0.3,0.1-0.7,0.1-1,0.1&#10;&#9;&#9;&#9;&#9;c-0.2,0-0.4,0-0.6-0.1c-0.2-0.1-0.4-0.1-0.6-0.2c-0.2-0.1-0.4-0.2-0.6-0.4c-0.2-0.2-0.3-0.3-0.4-0.5L370.2,551z" id="el_hA5fQ1Q8-b"/>
			<path d="M377.8,550.3c0-0.6,0.1-1.1,0.3-1.6c0.2-0.5,0.5-0.9,0.8-1.3c0.3-0.4,0.7-0.7,1.2-0.9&#10;&#9;&#9;&#9;&#9;c0.4-0.2,0.9-0.3,1.4-0.3c0.4,0,0.7,0.1,1,0.2c0.3,0.2,0.5,0.3,0.7,0.6l-0.8,0.9c-0.1-0.2-0.3-0.3-0.4-0.4&#10;&#9;&#9;&#9;&#9;c-0.1-0.1-0.3-0.1-0.5-0.1c-0.3,0-0.6,0.1-0.8,0.2c-0.3,0.2-0.5,0.4-0.7,0.6c-0.2,0.3-0.4,0.6-0.5,0.9c-0.1,0.4-0.2,0.7-0.2,1.1&#10;&#9;&#9;&#9;&#9;c0,0.5,0.1,0.9,0.3,1.1c0.2,0.3,0.5,0.4,1,0.4c0.3,0,0.5-0.1,0.7-0.2c0.2-0.1,0.4-0.2,0.5-0.3l0.6,0.9c-0.2,0.2-0.5,0.3-0.9,0.5&#10;&#9;&#9;&#9;&#9;c-0.3,0.2-0.7,0.2-1.2,0.2c-0.4,0-0.7-0.1-1-0.2c-0.3-0.1-0.6-0.3-0.8-0.5c-0.2-0.2-0.4-0.5-0.5-0.8&#10;&#9;&#9;&#9;&#9;C377.8,551.1,377.8,550.7,377.8,550.3z" id="el_WRcmLsyNUSL"/>
			<path d="M383.4,550.6c0-0.6,0.1-1.2,0.3-1.7c0.2-0.5,0.4-1,0.8-1.4c0.3-0.4,0.7-0.7,1.1-0.9c0.4-0.2,0.8-0.3,1.3-0.3&#10;&#9;&#9;&#9;&#9;c0.3,0,0.6,0.1,0.9,0.2c0.3,0.2,0.5,0.4,0.6,0.7h0l0.3-0.7h1.1l-1.3,6.5h-1.2l0.1-0.9h0c-0.3,0.3-0.6,0.6-1,0.8&#10;&#9;&#9;&#9;&#9;c-0.4,0.2-0.7,0.3-1.1,0.3c-0.6,0-1-0.2-1.3-0.6C383.5,551.9,383.4,551.4,383.4,550.6z M385.8,551.8c0.3,0,0.6-0.1,0.9-0.2&#10;&#9;&#9;&#9;&#9;c0.3-0.2,0.6-0.4,0.8-0.8l0.5-2.6c-0.1-0.3-0.3-0.5-0.5-0.6c-0.2-0.1-0.4-0.2-0.6-0.2c-0.3,0-0.5,0.1-0.8,0.2&#10;&#9;&#9;&#9;&#9;c-0.3,0.2-0.5,0.4-0.7,0.7c-0.2,0.3-0.3,0.6-0.5,1c-0.1,0.4-0.2,0.8-0.2,1.2c0,0.5,0.1,0.8,0.3,1.1&#10;&#9;&#9;&#9;&#9;C385.2,551.7,385.5,551.8,385.8,551.8z" id="el_mn9HH3yKoJE"/>
			<path d="M391.6,546.3h1.1l-0.1,0.9h0.1c0.3-0.3,0.7-0.5,1.1-0.7c0.4-0.2,0.7-0.3,1.2-0.3c0.5,0,0.9,0.1,1.2,0.4&#10;&#9;&#9;&#9;&#9;c0.2,0.3,0.4,0.7,0.4,1.2c0,0.1,0,0.3,0,0.4c0,0.1,0,0.3-0.1,0.5l-0.8,4.1h-1.4l0.8-3.9c0-0.1,0-0.3,0.1-0.4c0-0.1,0-0.2,0-0.3&#10;&#9;&#9;&#9;&#9;c0-0.6-0.3-0.8-0.8-0.8c-0.2,0-0.5,0.1-0.7,0.2c-0.3,0.2-0.6,0.4-0.9,0.8l-0.9,4.4h-1.4L391.6,546.3z" id="el_bx-7IoCaIUW"/>
			<path d="M397.7,546.8c0.4-0.2,0.8-0.4,1-0.7c0.2-0.3,0.4-0.6,0.4-0.8H399c-0.2,0-0.4-0.1-0.6-0.2&#10;&#9;&#9;&#9;&#9;c-0.2-0.1-0.2-0.3-0.2-0.5c0-0.2,0.1-0.5,0.2-0.6c0.2-0.2,0.4-0.3,0.7-0.3c0.3,0,0.5,0.1,0.6,0.3c0.1,0.2,0.2,0.5,0.2,0.8&#10;&#9;&#9;&#9;&#9;c0,0.4-0.1,0.7-0.2,1c-0.1,0.3-0.2,0.6-0.4,0.8c-0.2,0.2-0.4,0.4-0.6,0.6c-0.2,0.2-0.5,0.3-0.8,0.4L397.7,546.8z" id="el_2K_fwgC5t4K"/>
			<path d="M401.4,547.5h-0.9l0.2-1.1l1-0.1l0.5-1.7h1.2l-0.3,1.7h1.5l-0.2,1.1h-1.6l-0.7,3.2c0,0.2,0,0.3,0,0.5&#10;&#9;&#9;&#9;&#9;c0,0.2,0.1,0.4,0.2,0.5c0.1,0.1,0.3,0.2,0.6,0.2c0.1,0,0.2,0,0.3-0.1c0.1,0,0.2-0.1,0.3-0.1l0.3,1c-0.2,0.1-0.3,0.1-0.6,0.2&#10;&#9;&#9;&#9;&#9;c-0.2,0.1-0.5,0.1-0.8,0.1c-0.6,0-1-0.2-1.3-0.5c-0.3-0.3-0.4-0.7-0.4-1.1c0-0.1,0-0.3,0-0.4c0-0.1,0-0.2,0.1-0.4L401.4,547.5z" id="el_b2UDYf1HVtK"/>
			<path d="M407.8,546.4l0.8-0.1l0.1-0.7c0.1-0.7,0.4-1.2,0.7-1.6c0.4-0.4,0.9-0.6,1.5-0.6c0.2,0,0.5,0,0.7,0.1&#10;&#9;&#9;&#9;&#9;c0.2,0.1,0.4,0.1,0.6,0.2l-0.5,1c-0.1,0-0.2-0.1-0.3-0.1c-0.1,0-0.2-0.1-0.4-0.1c-0.3,0-0.5,0.1-0.6,0.3&#10;&#9;&#9;&#9;&#9;c-0.2,0.2-0.3,0.4-0.4,0.8l-0.2,0.8h1.2l-0.2,1.1h-1.2l-1,5.3h-1.4l1.1-5.3h-0.8L407.8,546.4z" id="el_dUbijrcrqjJ"/>
			<path d="M412.4,546.3h1.4l-1.3,6.5h-1.4L412.4,546.3z M413.4,545.2c-0.2,0-0.4-0.1-0.5-0.2c-0.2-0.1-0.2-0.3-0.2-0.5&#10;&#9;&#9;&#9;&#9;c0-0.3,0.1-0.5,0.3-0.7c0.2-0.2,0.4-0.3,0.7-0.3c0.2,0,0.4,0.1,0.5,0.2c0.2,0.1,0.2,0.3,0.2,0.5c0,0.3-0.1,0.5-0.3,0.7&#10;&#9;&#9;&#9;&#9;C413.9,545.1,413.7,545.2,413.4,545.2z" id="el_eVIPsIdL3Lv"/>
			<path d="M415.7,546.3h1.1l-0.1,0.9h0.1c0.3-0.3,0.7-0.5,1.1-0.7c0.4-0.2,0.7-0.3,1.2-0.3c0.5,0,0.9,0.1,1.2,0.4&#10;&#9;&#9;&#9;&#9;c0.2,0.3,0.4,0.7,0.4,1.2c0,0.1,0,0.3,0,0.4c0,0.1,0,0.3-0.1,0.5l-0.8,4.1h-1.4l0.8-3.9c0-0.1,0-0.3,0.1-0.4c0-0.1,0-0.2,0-0.3&#10;&#9;&#9;&#9;&#9;c0-0.6-0.3-0.8-0.8-0.8c-0.2,0-0.5,0.1-0.7,0.2c-0.3,0.2-0.6,0.4-0.9,0.8l-0.9,4.4h-1.4L415.7,546.3z" id="el_A_NcAB_1li9"/>
			<path d="M426.7,545.8l0.4-2.3h1.4l-1.9,9.3h-1.2l0.1-0.9h0c-0.3,0.3-0.6,0.6-1,0.8c-0.4,0.2-0.7,0.3-1.1,0.3&#10;&#9;&#9;&#9;&#9;c-0.6,0-1-0.2-1.3-0.6c-0.3-0.4-0.5-1-0.5-1.7c0-0.6,0.1-1.2,0.3-1.7c0.2-0.5,0.4-1,0.8-1.4c0.3-0.4,0.7-0.7,1.1-0.9&#10;&#9;&#9;&#9;&#9;c0.4-0.2,0.8-0.3,1.3-0.3c0.3,0,0.6,0.1,0.8,0.2c0.2,0.2,0.4,0.4,0.6,0.6h0L426.7,545.8z M424,551.8c0.3,0,0.6-0.1,0.8-0.2&#10;&#9;&#9;&#9;&#9;c0.3-0.2,0.6-0.4,0.8-0.8l0.5-2.6c-0.1-0.3-0.3-0.5-0.5-0.6c-0.2-0.1-0.4-0.2-0.6-0.2c-0.3,0-0.5,0.1-0.8,0.2&#10;&#9;&#9;&#9;&#9;c-0.3,0.2-0.5,0.4-0.7,0.7c-0.2,0.3-0.3,0.6-0.5,1c-0.1,0.4-0.2,0.8-0.2,1.2c0,0.5,0.1,0.8,0.3,1.1&#10;&#9;&#9;&#9;&#9;C423.5,551.7,423.7,551.8,424,551.8z" id="el_-2IG3pc_Gtj"/>
			<path d="M432.3,546.3h1.1l-0.1,0.9h0.1c0.3-0.3,0.7-0.5,1-0.7c0.4-0.2,0.7-0.3,1.1-0.3c0.2,0,0.5,0,0.6,0.1&#10;&#9;&#9;&#9;&#9;c0.2,0.1,0.3,0.1,0.4,0.2c0.1,0.1,0.2,0.2,0.3,0.4c0.1,0.1,0.1,0.3,0.2,0.5c0.4-0.4,0.8-0.7,1.1-0.9c0.4-0.2,0.7-0.3,1.1-0.3&#10;&#9;&#9;&#9;&#9;c0.5,0,0.9,0.1,1.2,0.4c0.2,0.3,0.4,0.7,0.4,1.2c0,0.1,0,0.3,0,0.4c0,0.1,0,0.3-0.1,0.5l-0.8,4.1h-1.4l0.8-3.9&#10;&#9;&#9;&#9;&#9;c0-0.1,0.1-0.3,0.1-0.4c0-0.1,0-0.2,0-0.3c0-0.6-0.3-0.8-0.8-0.8c-0.2,0-0.4,0.1-0.6,0.2c-0.3,0.2-0.6,0.4-0.9,0.8l-0.9,4.4h-1.4&#10;&#9;&#9;&#9;&#9;l0.8-3.9c0-0.1,0.1-0.3,0.1-0.4c0-0.1,0-0.2,0-0.3c0-0.6-0.3-0.8-0.8-0.8c-0.2,0-0.4,0.1-0.7,0.2c-0.3,0.2-0.6,0.4-0.9,0.8&#10;&#9;&#9;&#9;&#9;l-0.9,4.4H431L432.3,546.3z" id="el_bpMLuWt7gYz"/>
			<path d="M441.8,550.2c0-0.6,0.1-1.2,0.3-1.7c0.2-0.5,0.5-0.9,0.8-1.3c0.3-0.4,0.7-0.6,1.1-0.8&#10;&#9;&#9;&#9;&#9;c0.4-0.2,0.8-0.3,1.3-0.3c0.4,0,0.7,0.1,0.9,0.2c0.3,0.1,0.5,0.3,0.6,0.5c0.2,0.2,0.3,0.5,0.4,0.8c0.1,0.3,0.1,0.6,0.1,0.9&#10;&#9;&#9;&#9;&#9;c0,0.3,0,0.6-0.1,0.8c-0.1,0.3-0.1,0.4-0.2,0.6h-3.9c0,0.3,0,0.6,0.1,0.9c0.1,0.2,0.2,0.4,0.3,0.6c0.1,0.2,0.3,0.3,0.5,0.3&#10;&#9;&#9;&#9;&#9;c0.2,0.1,0.4,0.1,0.7,0.1c0.2,0,0.5-0.1,0.7-0.2c0.2-0.1,0.4-0.2,0.6-0.4l0.5,0.9c-0.3,0.2-0.6,0.3-0.9,0.5&#10;&#9;&#9;&#9;&#9;c-0.4,0.1-0.8,0.2-1.2,0.2c-0.4,0-0.7-0.1-1-0.2c-0.3-0.1-0.6-0.3-0.8-0.5c-0.2-0.2-0.4-0.5-0.5-0.9&#10;&#9;&#9;&#9;&#9;C441.9,551,441.8,550.7,441.8,550.2z M446.1,549c0-0.1,0-0.2,0-0.3c0-0.1,0-0.2,0-0.3c0-0.3-0.1-0.6-0.2-0.8&#10;&#9;&#9;&#9;&#9;c-0.2-0.2-0.4-0.4-0.8-0.4c-0.4,0-0.8,0.2-1.1,0.5c-0.3,0.3-0.6,0.7-0.8,1.3H446.1z" id="el_VxJc8i-evrC"/>
			<path d="M453.1,553c-0.4,0-0.7-0.1-1-0.2c-0.3-0.1-0.5-0.3-0.8-0.5c-0.2-0.2-0.4-0.5-0.5-0.8&#10;&#9;&#9;&#9;&#9;c-0.1-0.3-0.2-0.7-0.2-1.1c0-0.6,0.1-1.2,0.3-1.7c0.2-0.5,0.5-0.9,0.8-1.3c0.3-0.4,0.7-0.6,1.1-0.8c0.4-0.2,0.9-0.3,1.3-0.3&#10;&#9;&#9;&#9;&#9;c0.7,0,1.3,0.2,1.8,0.7c0.4,0.5,0.7,1.1,0.7,1.9c0,0.6-0.1,1.2-0.3,1.7c-0.2,0.5-0.5,0.9-0.8,1.3s-0.7,0.6-1.1,0.8&#10;&#9;&#9;&#9;&#9;C454,552.9,453.6,553,453.1,553z M454.1,547.3c-0.3,0-0.5,0.1-0.7,0.2c-0.2,0.2-0.5,0.4-0.6,0.6c-0.2,0.3-0.3,0.6-0.4,0.9&#10;&#9;&#9;&#9;&#9;c-0.1,0.4-0.2,0.7-0.2,1.2c0,0.5,0.1,0.9,0.3,1.1c0.2,0.3,0.5,0.4,0.8,0.4c0.3,0,0.5-0.1,0.7-0.2c0.2-0.2,0.4-0.4,0.6-0.6&#10;&#9;&#9;&#9;&#9;c0.2-0.3,0.3-0.6,0.4-0.9c0.1-0.4,0.2-0.7,0.2-1.2c0-0.5-0.1-0.9-0.3-1.1C454.8,547.5,454.5,547.3,454.1,547.3z" id="el_omA1kcSuuG3"/>
			<path d="M458.7,546.3h1.1l-0.1,0.9h0.1c0.3-0.3,0.7-0.5,1.1-0.7c0.4-0.2,0.7-0.3,1.2-0.3c0.5,0,0.9,0.1,1.2,0.4&#10;&#9;&#9;&#9;&#9;c0.2,0.3,0.4,0.7,0.4,1.2c0,0.1,0,0.3,0,0.4c0,0.1,0,0.3-0.1,0.5l-0.8,4.1h-1.4l0.8-3.9c0-0.1,0-0.3,0.1-0.4c0-0.1,0-0.2,0-0.3&#10;&#9;&#9;&#9;&#9;c0-0.6-0.3-0.8-0.8-0.8c-0.2,0-0.5,0.1-0.7,0.2s-0.6,0.4-0.9,0.8l-0.9,4.4h-1.4L458.7,546.3z" id="el_zigTiNFbHYh"/>
			<path d="M466.3,543.5h1.4l-1.5,7.8c0,0.1,0,0.1,0,0.2c0,0,0,0.1,0,0.1c0,0.2,0.1,0.3,0.2,0.3c0,0,0.1,0,0.1,0&#10;&#9;&#9;&#9;&#9;c0,0,0.1,0,0.1,0l0,1.1c-0.1,0-0.2,0.1-0.3,0.1c-0.1,0-0.3,0-0.5,0c-0.4,0-0.6-0.1-0.8-0.3c-0.2-0.2-0.3-0.4-0.3-0.8&#10;&#9;&#9;&#9;&#9;c0-0.2,0-0.4,0.1-0.7L466.3,543.5z" id="el_4VIcneIP5v9"/>
			<path d="M469.2,546.3h1.4l-1.3,6.5h-1.4L469.2,546.3z M470.2,545.2c-0.2,0-0.4-0.1-0.5-0.2c-0.2-0.1-0.2-0.3-0.2-0.5&#10;&#9;&#9;&#9;&#9;c0-0.3,0.1-0.5,0.3-0.7c0.2-0.2,0.4-0.3,0.7-0.3c0.2,0,0.4,0.1,0.5,0.2c0.2,0.1,0.2,0.3,0.2,0.5c0,0.3-0.1,0.5-0.3,0.7&#10;&#9;&#9;&#9;&#9;C470.7,545.1,470.5,545.2,470.2,545.2z" id="el_zO2nNaBR5Ga"/>
			<path d="M472.5,546.3h1.1l-0.1,0.9h0.1c0.3-0.3,0.7-0.5,1.1-0.7c0.4-0.2,0.7-0.3,1.2-0.3c0.5,0,0.9,0.1,1.2,0.4&#10;&#9;&#9;&#9;&#9;c0.2,0.3,0.4,0.7,0.4,1.2c0,0.1,0,0.3,0,0.4c0,0.1,0,0.3-0.1,0.5l-0.8,4.1H475l0.8-3.9c0-0.1,0.1-0.3,0.1-0.4c0-0.1,0-0.2,0-0.3&#10;&#9;&#9;&#9;&#9;c0-0.6-0.3-0.8-0.8-0.8c-0.2,0-0.5,0.1-0.7,0.2c-0.3,0.2-0.6,0.4-0.9,0.8l-0.9,4.4h-1.4L472.5,546.3z" id="el_nePjFnvjvnb"/>
			<path d="M478.4,550.2c0-0.6,0.1-1.2,0.3-1.7c0.2-0.5,0.5-0.9,0.8-1.3s0.7-0.6,1.1-0.8c0.4-0.2,0.8-0.3,1.3-0.3&#10;&#9;&#9;&#9;&#9;c0.4,0,0.7,0.1,0.9,0.2c0.3,0.1,0.5,0.3,0.6,0.5c0.2,0.2,0.3,0.5,0.4,0.8c0.1,0.3,0.1,0.6,0.1,0.9c0,0.3,0,0.6-0.1,0.8&#10;&#9;&#9;&#9;&#9;c-0.1,0.3-0.1,0.4-0.2,0.6h-3.9c0,0.3,0,0.6,0.1,0.9c0.1,0.2,0.2,0.4,0.3,0.6c0.1,0.2,0.3,0.3,0.5,0.3c0.2,0.1,0.4,0.1,0.7,0.1&#10;&#9;&#9;&#9;&#9;c0.2,0,0.5-0.1,0.7-0.2c0.2-0.1,0.4-0.2,0.6-0.4l0.5,0.9c-0.3,0.2-0.6,0.3-0.9,0.5c-0.4,0.1-0.8,0.2-1.2,0.2&#10;&#9;&#9;&#9;&#9;c-0.4,0-0.7-0.1-1-0.2c-0.3-0.1-0.6-0.3-0.8-0.5c-0.2-0.2-0.4-0.5-0.5-0.9C478.4,551,478.4,550.7,478.4,550.2z M482.7,549&#10;&#9;&#9;&#9;&#9;c0-0.1,0-0.2,0-0.3c0-0.1,0-0.2,0-0.3c0-0.3-0.1-0.6-0.2-0.8c-0.2-0.2-0.4-0.4-0.8-0.4c-0.4,0-0.8,0.2-1.1,0.5s-0.6,0.7-0.8,1.3&#10;&#9;&#9;&#9;&#9;H482.7z" id="el_PWbaG-FHACT"/>
			<path d="M485.4,553c-0.2,0-0.4-0.1-0.6-0.2c-0.1-0.2-0.2-0.3-0.2-0.6c0-0.1,0-0.3,0.1-0.4c0.1-0.1,0.1-0.3,0.2-0.4&#10;&#9;&#9;&#9;&#9;c0.1-0.1,0.2-0.2,0.3-0.3c0.1-0.1,0.3-0.1,0.4-0.1c0.2,0,0.4,0.1,0.6,0.2s0.2,0.4,0.2,0.6c0,0.1,0,0.3-0.1,0.4s-0.1,0.3-0.2,0.4&#10;&#9;&#9;&#9;&#9;c-0.1,0.1-0.2,0.2-0.3,0.2C485.7,552.9,485.6,553,485.4,553z" id="el_fZDNMdsaaX8"/>
		</g>
		<g id="el_qyVKOuu-pzq">
			<g id="el_fSnl93056tL">
				<path d="M279.9,545c-1.5,0.7-2.7,1.5-3.5,2.6c-0.8,1.1-1.2,2-1.3,2.8h0.2c0.8,0,1.4,0.2,2,0.6&#10;&#9;&#9;&#9;&#9;&#9;c0.5,0.4,0.8,1,0.8,1.8c0,0.9-0.3,1.6-0.8,2.2c-0.6,0.6-1.3,0.9-2.3,0.9c-0.9,0-1.6-0.3-2.1-1c-0.5-0.7-0.8-1.6-0.8-2.8&#10;&#9;&#9;&#9;&#9;&#9;c0-1.2,0.2-2.3,0.5-3.3c0.4-1,0.9-1.9,1.5-2.7c0.6-0.8,1.4-1.5,2.2-2.1c0.8-0.6,1.7-1,2.7-1.4L279.9,545z M288.7,545&#10;&#9;&#9;&#9;&#9;&#9;c-1.5,0.7-2.7,1.5-3.5,2.6c-0.8,1.1-1.2,2-1.3,2.8h0.2c0.8,0,1.4,0.2,2,0.6c0.5,0.4,0.8,1,0.8,1.8c0,0.9-0.3,1.6-0.8,2.2&#10;&#9;&#9;&#9;&#9;&#9;c-0.6,0.6-1.3,0.9-2.3,0.9c-0.9,0-1.6-0.3-2.1-1c-0.5-0.7-0.8-1.6-0.8-2.8c0-1.2,0.2-2.3,0.5-3.3c0.4-1,0.9-1.9,1.5-2.7&#10;&#9;&#9;&#9;&#9;&#9;c0.6-0.8,1.4-1.5,2.2-2.1c0.8-0.6,1.7-1,2.7-1.4L288.7,545z" id="el_ohynbSzfvYT"/>
			</g>
			<g id="el_OilZJomJT05">
				<path d="M507.1,553.8c1.5-0.7,2.7-1.5,3.5-2.6c0.8-1.1,1.2-2,1.3-2.8h-0.2c-0.8,0-1.4-0.2-2-0.6&#10;&#9;&#9;&#9;&#9;&#9;c-0.5-0.4-0.8-1-0.8-1.8c0-0.9,0.3-1.6,0.8-2.2c0.6-0.6,1.3-0.9,2.3-0.9c0.9,0,1.6,0.3,2.1,1c0.5,0.7,0.8,1.6,0.8,2.8&#10;&#9;&#9;&#9;&#9;&#9;c0,1.2-0.2,2.3-0.5,3.3c-0.4,1-0.9,1.9-1.5,2.7c-0.6,0.8-1.4,1.5-2.2,2.1c-0.8,0.6-1.7,1-2.7,1.4L507.1,553.8z M498.4,553.8&#10;&#9;&#9;&#9;&#9;&#9;c1.5-0.7,2.7-1.5,3.5-2.6c0.8-1.1,1.2-2,1.3-2.8h-0.2c-0.8,0-1.4-0.2-2-0.6c-0.5-0.4-0.8-1-0.8-1.8c0-0.9,0.3-1.6,0.8-2.2&#10;&#9;&#9;&#9;&#9;&#9;c0.6-0.6,1.3-0.9,2.3-0.9c0.9,0,1.6,0.3,2.1,1c0.5,0.7,0.8,1.6,0.8,2.8c0,1.2-0.2,2.3-0.5,3.3c-0.4,1-0.9,1.9-1.5,2.7&#10;&#9;&#9;&#9;&#9;&#9;c-0.6,0.8-1.4,1.5-2.2,2.1c-0.8,0.6-1.7,1-2.7,1.4L498.4,553.8z" id="el_fDmH7rmCk4Z"/>
			</g>
		</g>
	</g>
</g></g>
<g id="el_KJSjmwIRGWR_ud-KaVeUc" data-animator-group="true" data-animator-type="2"><g id="el_KJSjmwIRGWR">
	<g id="el_37vAyBRFyxE">
		<linearGradient id="SVGID_2_" gradientUnits="userSpaceOnUse" x1="553.0557" y1="210.2749" x2="260.8429" y2="509.5459">
			<stop offset="0" style="stop-color:#E9CB1E"/>
			<stop offset="1" style="stop-color:#E78E24"/>
		</linearGradient>
		<path d="M532.8,495.4c16-27.7,25.2-60,25.2-94.4c0-103.9-83.8-188.1-187.1-188.1S183.9,297.1,183.9,401&#10;&#9;&#9;&#9;c0,34.4,9.2,66.6,25.2,94.4H532.8z" id="el_mMKup7uV2nG"/>
		<line x1="202" y1="495.4" x2="539.8" y2="495.4" id="el_1hAEzONkKzM"/>
	</g>
	<line x1="370.1" y1="218.9" x2="370.1" y2="494.4" id="el_d1h617DWS0L"/>
	<g id="el_AZl0zxJAob0">
		<linearGradient id="SVGID_3_" gradientUnits="userSpaceOnUse" x1="385.3225" y1="208.4274" x2="351.3579" y2="301.1223">
			<stop offset="0" style="stop-color:#18A3C7"/>
			<stop offset="1" style="stop-color:#3680C3"/>
		</linearGradient>
		<ellipse cx="370.9" cy="247.7" rx="56.4" ry="56.7" id="el_YvB4oaOhA3Q"/>
		<g id="el_qKtRL7lQQa7_JVy8nVL3M" data-animator-group="true" data-animator-type="2"><g id="el_qKtRL7lQQa7">
			
				<linearGradient id="SVGID_4_" gradientUnits="userSpaceOnUse" x1="-8661.666" y1="-8003.2734" x2="-8582.3047" y2="-8079.8164" gradientTransform="matrix(-1 0 0 -1 -8703.333 -7346.5703)">
				<stop offset="0" style="stop-color:#E9CB1E"/>
				<stop offset="1" style="stop-color:#E78E24"/>
			</linearGradient>
			<path d="M334.4,254.2h73.1c0.7,0,1.2,0.5,1.2,1.2v0c0,9.4-7.6,17-17,17h-41.4c-9.4,0-17-7.6-17-17v0&#10;&#9;&#9;&#9;&#9;C333.2,254.7,333.7,254.2,334.4,254.2z" id="el_z0WtGDsyjmd"/>
			<linearGradient id="SVGID_5_" gradientUnits="userSpaceOnUse" x1="331.3748" y1="274.9938" x2="410.7448" y2="198.4416">
				<stop offset="0" style="stop-color:#E9CB1E"/>
				<stop offset="0.1087" style="stop-color:#E9C41C"/>
				<stop offset="1" style="stop-color:#E78E24"/>
			</linearGradient>
			<path d="M407.5,242.5h-73.1c-0.7,0-1.2-0.5-1.2-1.2v0c0-12.2,9.9-22.1,22.1-22.1h31.3c12.2,0,22.1,9.9,22.1,22.1v0&#10;&#9;&#9;&#9;&#9;C408.7,241.9,408.1,242.5,407.5,242.5z" id="el_XQqUyjdfULU"/>
			<path d="M371.8,226.3h14.9c3.4,0,6.6,1.2,9.1,3.2" id="el_GIBdHN87frq"/>
			<linearGradient id="SVGID_6_" gradientUnits="userSpaceOnUse" x1="328.4513" y1="248.3078" x2="413.4138" y2="248.3078">
				<stop offset="0" style="stop-color:#EE467B"/>
				<stop offset="1" style="stop-color:#F27770"/>
			</linearGradient>
			<path d="M407.6,254.2h-73.2c-3.2,0-5.9-2.6-5.9-5.9v0c0-3.2,2.6-5.9,5.9-5.9h73.2c3.2,0,5.9,2.6,5.9,5.9v0&#10;&#9;&#9;&#9;&#9;C413.4,251.5,410.8,254.2,407.6,254.2z" id="el_-JCJQh7xDAS"/>
		</g></g>
		<path d="M391,289c-2,1-4.1,1.8-6.2,2.5" id="el_xE7sIsuyDDW"/>
		<path d="M413.4,264.7c-3,7.5-7.8,14-14,18.9" id="el_HtyEQKreN6F"/>
	</g>
	<g id="el_enMYTRSVoOA">
		<linearGradient id="SVGID_7_" gradientUnits="userSpaceOnUse" x1="361.7553" y1="502.0817" x2="372.8359" y2="319.6214">
			<stop offset="0" style="stop-color:#18A3C7"/>
			<stop offset="1" style="stop-color:#3680C3"/>
		</linearGradient>
		<polygon points="451.9,318.4 288.1,318.4 260.1,367.4 479.8,367.4 &#9;&#9;" id="el_0tIeUsmDheX"/>
		<polygon points="471.2,373.7 478.8,369.3 448.9,317.3 441.4,319.9 &#9;&#9;" id="el_wM2DseQFAvQ"/>
		<polygon points="451.9,318.4 288.1,318.4 260.1,367.4 479.8,367.4 &#9;&#9;" id="el_UOsZuEz8taZ"/>
		<path d="M482.1,384H259.8c-4.6,0-8.3-3.7-8.3-8.3v0c0-4.6,3.7-8.3,8.3-8.3h222.3c4.6,0,8.3,3.7,8.3,8.3v0&#10;&#9;&#9;&#9;C490.3,380.3,486.6,384,482.1,384z" id="el_hanBIRgy_5r"/>
		<linearGradient id="SVGID_8_" gradientUnits="userSpaceOnUse" x1="360.2332" y1="625.6705" x2="378.0652" y2="316.1056">
			<stop offset="0" style="stop-color:#18A3C7"/>
			<stop offset="1" style="stop-color:#3680C3"/>
		</linearGradient>
		<path d="M409.7,384.5v-5.2c0-22.1-17.8-39.9-39.7-39.9h0c-21.9,0-39.7,17.9-39.7,39.9v5.2h-70.2v110.9h221.7V384.5&#10;&#9;&#9;&#9;H409.7z" id="el_JfEh1MdGyiO"/>
		
			<rect x="472.6" y="384" width="7.9" height="111.3" id="el_-5weQa1EAeK"/>
		<path d="M409.7,384.5v-5.2c0-22.1-17.8-39.9-39.7-39.9h0c-21.9,0-39.7,17.9-39.7,39.9v5.2h-70.2v110.9h221.7V384.5&#10;&#9;&#9;&#9;H409.7z" id="el_T_31ghcLTRv"/>
		<g id="el_DicjLO3B2of">
			<rect x="291.4" y="420.6" width="85.7" height="52.6" id="el__Gq2-dA7pEq"/>
			<rect x="366" y="420.6" width="9.1" height="51.4" id="el_dnwsmYbJIrl"/>
			<rect x="291.4" y="420.6" width="85.7" height="52.6" id="el_qTs6NhKTYUh"/>
		</g>
		<g id="el_9-zELUMUVY6">
			<path d="M335.3,438.4L335.3,438.4c-6.5,0-11.7-5.3-11.7-11.7v-11.3H347v11.3C347,433.2,341.7,438.4,335.3,438.4z" id="el_GZGREl6B_qw"/>
			<path d="M382.2,438.4L382.2,438.4c-6.5,0-11.7-5.3-11.7-11.7v-11.3h23.5v11.3C393.9,433.2,388.6,438.4,382.2,438.4z&#10;&#9;&#9;&#9;&#9;" id="el__fvmjtAwz7P"/>
			<linearGradient id="SVGID_9_" gradientUnits="userSpaceOnUse" x1="346.9856" y1="426.8987" x2="370.4416" y2="426.8987">
				<stop offset="0" style="stop-color:#EE467B"/>
				<stop offset="1" style="stop-color:#F27770"/>
			</linearGradient>
			<path d="M358.7,438.4L358.7,438.4c-6.5,0-11.7-5.3-11.7-11.7v-11.3h23.5v11.3C370.4,433.2,365.2,438.4,358.7,438.4z&#10;&#9;&#9;&#9;&#9;" id="el_QWhAoioQ7nc"/>
			<path d="M288.6,438.4L288.6,438.4c-6.5,0-11.7-5.3-11.7-11.7v-11.3h23.5v11.3C300.3,433.2,295,438.4,288.6,438.4z" id="el_2oXRalvMc3k"/>
			<linearGradient id="SVGID_10_" gradientUnits="userSpaceOnUse" x1="300.0737" y1="426.8987" x2="323.5297" y2="426.8987">
				<stop offset="0" style="stop-color:#EE467B"/>
				<stop offset="1" style="stop-color:#F27770"/>
			</linearGradient>
			<path d="M311.8,438.4L311.8,438.4c-6.5,0-11.7-5.3-11.7-11.7v-11.3h23.5v11.3C323.5,433.2,318.3,438.4,311.8,438.4z&#10;&#9;&#9;&#9;&#9;" id="el_BjAo7fqUVLJ"/>
		</g>
		<linearGradient id="SVGID_11_" gradientUnits="userSpaceOnUse" x1="435.5367" y1="415.9042" x2="435.5367" y2="495.3916">
			<stop offset="0" style="stop-color:#EE467B"/>
			<stop offset="1" style="stop-color:#F27770"/>
		</linearGradient>
		<rect x="418.2" y="426.7" width="34.8" height="68.5" id="el_TfjjLH_9TR-"/>
		<line x1="462.9" y1="395.2" x2="426.8" y2="395.2" id="el_N3y6gJA4jcg"/>
		<line x1="325.9" y1="398.9" x2="304.3" y2="398.9" id="el_l0ImJ1diQk9"/>
		<line x1="341.1" y1="398.9" x2="333.3" y2="398.9" id="el_zduRnijgo6y"/>
		<path d="M389.8,378.6c0-11-8.9-19.9-19.8-19.9s-19.8,8.9-19.8,19.9" id="el_-Jfx0-KBcm-"/>
		<line x1="376.3" y1="484.8" x2="347.7" y2="484.8" id="el_XoXoBFUazXd"/>
		<line x1="429.6" y1="446.9" x2="429.6" y2="469.1" id="el_UoVG4U6Ffvl"/>
		<rect x="410.2" y="485.6" width="50.7" height="14.1" id="el_jkbsybs0HVg"/>
	</g>
</g></g>
<g id="el_J5p-ykvI0g_">
	<g id="el_4aQlP4f7oHl">
		<g id="el_SNDgrm3W2p7">
			<linearGradient id="SVGID_12_" gradientUnits="userSpaceOnUse" x1="103.4479" y1="493.9945" x2="155.641" y2="572.9894">
				<stop offset="0" style="stop-color:#18A3C7"/>
				<stop offset="1" style="stop-color:#3680C3"/>
			</linearGradient>
			<path d="M247.2,572c0-38-43.6-68.9-97.3-68.9S52.6,533.9,52.6,572H247.2z" id="el_lVuATL4P9Aa"/>
		</g>
		<linearGradient id="SVGID_13_" gradientUnits="userSpaceOnUse" x1="180.6035" y1="500.4554" x2="194.0487" y2="625.7083">
			<stop offset="0" style="stop-color:#18A3C7"/>
			<stop offset="1" style="stop-color:#3680C3"/>
		</linearGradient>
		<path d="M129.1,542.6V572h118.1c0-32.1-31.1-59.2-73.2-66.7L129.1,542.6z" id="el_08CHe9s7R1N"/>
		<ellipse cx="149.6" cy="550.6" rx="8" ry="8.1" id="el_7O7n1v8eX5N"/>
		<path d="M181.1,506.7c-9.8-2.3-20.3-3.6-31.2-3.6c-11.9,0-23.2,1.5-33.7,4.3c6.3,11.4,18.4,19.1,32.3,19.1&#10;&#9;&#9;&#9;C162.6,526.4,174.9,518.4,181.1,506.7z" id="el_52K0Ev7xFTe"/>
	</g>
	<g id="el_wH-xWCSJgA0">
		<path d="M77.9,423.7L77.9,423.7c-8.2,0-14.8-6.6-14.8-14.8v-2.3c0-8.2,6.6-14.8,14.8-14.8h0&#10;&#9;&#9;&#9;c8.2,0,14.8,6.6,14.8,14.8v2.3C92.8,417.1,86.1,423.7,77.9,423.7z" id="el_EUYdB72ZBHP"/>
		<path d="M218.4,423.7L218.4,423.7c-8.2,0-14.8-6.6-14.8-14.8v-2.3c0-8.2,6.6-14.8,14.8-14.8h0&#10;&#9;&#9;&#9;c8.2,0,14.8,6.6,14.8,14.8v2.3C233.3,417.1,226.6,423.7,218.4,423.7z" id="el_ktedzObG4TT"/>
		<path d="M218.4,368.8c-30.3-1.8-54.6-10.6-70.3-32.6c-15.7,22-40,30.8-70.3,32.6v61.9c0,30.8,43.6,56.3,71.9,56.3&#10;&#9;&#9;&#9;s68.8-24.1,68.8-56.6V368.8z" id="el_QVFyhm48aUA"/>
		<linearGradient id="SVGID_14_" gradientUnits="userSpaceOnUse" x1="77.9174" y1="377.704" x2="218.4454" y2="377.704">
			<stop offset="0" style="stop-color:#E9CB1E"/>
			<stop offset="0.1087" style="stop-color:#E9C41C"/>
			<stop offset="1" style="stop-color:#E78E24"/>
		</linearGradient>
		<path d="M148,355.7L148,355.7H77.9v43.9c0,0,22.7,2,28.4-24.4c16.1,6.9,22,10,41.7,10s25.7-3.1,41.9-10&#10;&#9;&#9;&#9;c5.8,26.4,28.6,24.4,28.6,24.4v-43.9H148z" id="el_iXD5OhQcWOV"/>
		<linearGradient id="SVGID_15_" gradientUnits="userSpaceOnUse" x1="159.1372" y1="288.2341" x2="131.9261" y2="371.6344">
			<stop offset="0" style="stop-color:#18A3C7"/>
			<stop offset="1" style="stop-color:#3680C3"/>
		</linearGradient>
		<path d="M148.3,353.4c46.6,0,74.7-6.9,74.7-6.9s25.3-13,20-35.9c-5.8-25-29-18.5-29-18.5s-3.8-26.1-24.7-29.6&#10;&#9;&#9;&#9;c-20-3.4-32.9,12.4-32.9,12.4s-12.6-19.8-37.9-16.4c-25.3,3.5-32.1,27.1-32.1,27.1s-25.3-0.9-29.8,26.1&#10;&#9;&#9;&#9;C52.2,338.7,73,347.3,73,347.3S101.7,353.4,148.3,353.4z" id="el_H2WsRA4vzIj"/>
		<path d="M67.2,325.7c-1.7-2.5-2.9-6.2-2-11.6c0.7-4.1,2.4-6.7,4.4-8.4" id="el_kAeUkTighC-"/>
		<path d="M174.7,273.7c2.7-1.4,6.1-2.6,10-2.6c1.2,0,2.3,0.1,3.5,0.3c8.3,1.4,12.1,9.3,13.8,14.3" id="el_KaTehcR28MT"/>
		<linearGradient id="SVGID_16_" gradientUnits="userSpaceOnUse" x1="168.6052" y1="291.5448" x2="141.4316" y2="374.83">
			<stop offset="0" style="stop-color:#18A3C7"/>
			<stop offset="1" style="stop-color:#3680C3"/>
		</linearGradient>
		<path d="M223,346.5c-25.4-15.1-124.5-15.1-149.9,0l4.9,31.2c0,0,22.7-12,70.1-12c47.4,0,70.1,12,70.1,12L223,346.5z" id="el_7__flKxUK8M"/>
	</g>
</g>
</svg>