<svg version="1.1" id="el_EtkciJ_Jx" xmlns="http://www.w3.org/2000/svg" xmlns:xlink="http://www.w3.org/1999/xlink" x="0px" y="0px" viewBox="0 0 600 600" style="enable-background:new 0 0 600 600;" xml:space="preserve"><style>@-webkit-keyframes el_-3-_v0hj-p_Animation{0%{opacity: 1;}1.67%{opacity: 0;}25%{opacity: 0;}80%{opacity: 1;}100%{opacity: 1;}}@keyframes el_-3-_v0hj-p_Animation{0%{opacity: 1;}1.67%{opacity: 0;}25%{opacity: 0;}80%{opacity: 1;}100%{opacity: 1;}}@-webkit-keyframes el_-3-_v0hj-p_IqdxQRmWd_Animation{0%{-webkit-transform: translate(185.60000610351562px, 494.70001220703125px) translate(-185.60000610351562px, -494.70001220703125px) translate(0px, 0px);transform: translate(185.60000610351562px, 494.70001220703125px) translate(-185.60000610351562px, -494.70001220703125px) translate(0px, 0px);}26.67%{-webkit-transform: translate(185.60000610351562px, 494.70001220703125px) translate(-185.60000610351562px, -494.70001220703125px) translate(-160px, 0px);transform: translate(185.60000610351562px, 494.70001220703125px) translate(-185.60000610351562px, -494.70001220703125px) translate(-160px, 0px);}53.33%{-webkit-transform: translate(185.60000610351562px, 494.70001220703125px) translate(-185.60000610351562px, -494.70001220703125px) translate(0px, 0px);transform: translate(185.60000610351562px, 494.70001220703125px) translate(-185.60000610351562px, -494.70001220703125px) translate(0px, 0px);}100%{-webkit-transform: translate(185.60000610351562px, 494.70001220703125px) translate(-185.60000610351562px, -494.70001220703125px) translate(0px, 0px);transform: translate(185.60000610351562px, 494.70001220703125px) translate(-185.60000610351562px, -494.70001220703125px) translate(0px, 0px);}}@keyframes el_-3-_v0hj-p_IqdxQRmWd_Animation{0%{-webkit-transform: translate(185.60000610351562px, 494.70001220703125px) translate(-185.60000610351562px, -494.70001220703125px) translate(0px, 0px);transform: translate(185.60000610351562px, 494.70001220703125px) translate(-185.60000610351562px, -494.70001220703125px) translate(0px, 0px);}26.67%{-webkit-transform: translate(185.60000610351562px, 494.70001220703125px) translate(-185.60000610351562px, -494.70001220703125px) translate(-160px, 0px);transform: translate(185.60000610351562px, 494.70001220703125px) translate(-185.60000610351562px, -494.70001220703125px) translate(-160px, 0px);}53.33%{-webkit-transform: translate(185.60000610351562px, 494.70001220703125px) translate(-185.60000610351562px, -494.70001220703125px) translate(0px, 0px);transform: translate(185.60000610351562px, 494.70001220703125px) translate(-185.60000610351562px, -494.70001220703125px) translate(0px, 0px);}100%{-webkit-transform: translate(185.60000610351562px, 494.70001220703125px) translate(-185.60000610351562px, -494.70001220703125px) translate(0px, 0px);transform: translate(185.60000610351562px, 494.70001220703125px) translate(-185.60000610351562px, -494.70001220703125px) translate(0px, 0px);}}@-webkit-keyframes el_jMpqJhjIt2__y35q05i6j_Animation{0%{-webkit-transform: translate(233.5999984741211px, 544.4000244140625px) scale(1, 1) translate(-233.5999984741211px, -544.4000244140625px);transform: translate(233.5999984741211px, 544.4000244140625px) scale(1, 1) translate(-233.5999984741211px, -544.4000244140625px);}1.67%{-webkit-transform: translate(233.5999984741211px, 544.4000244140625px) scale(0, 0) translate(-233.5999984741211px, -544.4000244140625px);transform: translate(233.5999984741211px, 544.4000244140625px) scale(0, 0) translate(-233.5999984741211px, -544.4000244140625px);}25%{-webkit-transform: translate(233.5999984741211px, 544.4000244140625px) scale(0, 0) translate(-233.5999984741211px, -544.4000244140625px);transform: translate(233.5999984741211px, 544.4000244140625px) scale(0, 0) translate(-233.5999984741211px, -544.4000244140625px);}55.00%{-webkit-transform: translate(233.5999984741211px, 544.4000244140625px) scale(1, 1) translate(-233.5999984741211px, -544.4000244140625px);transform: translate(233.5999984741211px, 544.4000244140625px) scale(1, 1) translate(-233.5999984741211px, -544.4000244140625px);}}@keyframes el_jMpqJhjIt2__y35q05i6j_Animation{0%{-webkit-transform: translate(233.5999984741211px, 544.4000244140625px) scale(1, 1) translate(-233.5999984741211px, -544.4000244140625px);transform: translate(233.5999984741211px, 544.4000244140625px) scale(1, 1) translate(-233.5999984741211px, -544.4000244140625px);}1.67%{-webkit-transform: translate(233.5999984741211px, 544.4000244140625px) scale(0, 0) translate(-233.5999984741211px, -544.4000244140625px);transform: translate(233.5999984741211px, 544.4000244140625px) scale(0, 0) translate(-233.5999984741211px, -544.4000244140625px);}25%{-webkit-transform: translate(233.5999984741211px, 544.4000244140625px) scale(0, 0) translate(-233.5999984741211px, -544.4000244140625px);transform: translate(233.5999984741211px, 544.4000244140625px) scale(0, 0) translate(-233.5999984741211px, -544.4000244140625px);}55.00%{-webkit-transform: translate(233.5999984741211px, 544.4000244140625px) scale(1, 1) translate(-233.5999984741211px, -544.4000244140625px);transform: translate(233.5999984741211px, 544.4000244140625px) scale(1, 1) translate(-233.5999984741211px, -544.4000244140625px);}}@-webkit-keyframes el_GIChohzFkjt_dKC5_1s2G_Animation{0%{-webkit-transform: translate(180px, 464.0000114440918px) scale(1, 1) translate(-180px, -464.0000114440918px);transform: translate(180px, 464.0000114440918px) scale(1, 1) translate(-180px, -464.0000114440918px);}1.67%{-webkit-transform: translate(180px, 464.0000114440918px) scale(0.5, 0.5) translate(-180px, -464.0000114440918px);transform: translate(180px, 464.0000114440918px) scale(0.5, 0.5) translate(-180px, -464.0000114440918px);}23.33%{-webkit-transform: translate(180px, 464.0000114440918px) scale(1, 1) translate(-180px, -464.0000114440918px);transform: translate(180px, 464.0000114440918px) scale(1, 1) translate(-180px, -464.0000114440918px);}100%{-webkit-transform: translate(180px, 464.0000114440918px) scale(1, 1) translate(-180px, -464.0000114440918px);transform: translate(180px, 464.0000114440918px) scale(1, 1) translate(-180px, -464.0000114440918px);}}@keyframes el_GIChohzFkjt_dKC5_1s2G_Animation{0%{-webkit-transform: translate(180px, 464.0000114440918px) scale(1, 1) translate(-180px, -464.0000114440918px);transform: translate(180px, 464.0000114440918px) scale(1, 1) translate(-180px, -464.0000114440918px);}1.67%{-webkit-transform: translate(180px, 464.0000114440918px) scale(0.5, 0.5) translate(-180px, -464.0000114440918px);transform: translate(180px, 464.0000114440918px) scale(0.5, 0.5) translate(-180px, -464.0000114440918px);}23.33%{-webkit-transform: translate(180px, 464.0000114440918px) scale(1, 1) translate(-180px, -464.0000114440918px);transform: translate(180px, 464.0000114440918px) scale(1, 1) translate(-180px, -464.0000114440918px);}100%{-webkit-transform: translate(180px, 464.0000114440918px) scale(1, 1) translate(-180px, -464.0000114440918px);transform: translate(180px, 464.0000114440918px) scale(1, 1) translate(-180px, -464.0000114440918px);}}#el_EtkciJ_Jx *{-webkit-animation-duration: 2s;animation-duration: 2s;-webkit-animation-iteration-count: infinite;animation-iteration-count: infinite;-webkit-animation-timing-function: cubic-bezier(0, 0, 1, 1);animation-timing-function: cubic-bezier(0, 0, 1, 1);}#el_ZkeLIj3eQb{fill: url(#SVGID_1_);stroke: #000000;stroke-width: 5;stroke-linejoin: round;stroke-miterlimit: 10;}#el_NbiXxIrwv6{fill: #FFFFFF;}#el_D1JfohL50X{fill: #FFFFFF;}#el_aMCaSvWa7_{fill: #FFFFFF;}#el_8cow82e_dv{fill: #FFFFFF;}#el_aQ8c61C3x7{fill: #FFFFFF;}#el_8diPY-2SUW{fill: #FFFFFF;}#el_Q0MUc6HnPn{fill: #FFFFFF;}#el_5sd_a0cj7J{fill: #FFFFFF;}#el_NCtWYrXCJyf{fill: #FFFFFF;}#el_cZw0kE9fbHT{fill: #FFFFFF;}#el_SFh6_dgaE6w{fill: #FFFFFF;}#el_cKu48034_zc{fill: #FFFFFF;}#el_kSWMf_g9d64{fill: #FFFFFF;}#el_11SAWErlP2j{fill: #FFFFFF;}#el_6h21HDCzKIP{fill: #FFFFFF;}#el_e3ifwCTKBGy{fill: #FFFFFF;}#el_39Vxz2ygdHN{fill: #FFFFFF;}#el_YOl_Y3yjzB2{fill: #FFFFFF;}#el_SpsNmZI-764{fill: #FFFFFF;}#el_5Vgdd8KPPb7{fill: #FFFFFF;}#el_pXYr9jsb9-m{fill: #FFFFFF;}#el_2PpcE85V2kh{fill: #FFFFFF;}#el_PrQWC8vnrKC{fill: #FFFFFF;}#el_gaqAcbNFIYx{fill: #FFFFFF;}#el_iMdM8LANLUd{fill: #FFFFFF;}#el_-417NY9ph1D{fill: #FFFFFF;}#el_7NoG7pDvMUB{fill: #FFFFFF;}#el_ORtpde8K0yw{fill: #FFFFFF;}#el_7F0lHWmOi1V{fill: #FFFFFF;}#el_HQMHL9pWVm7{fill: #FFFFFF;}#el_dRrRqoIvwgF{fill: #FFFFFF;}#el_If_8DrBNypf{fill: #FFFFFF;}#el_2WtDdC7E8n-{fill: url(#SVGID_2_);}#el_IAAysAyYrx3{fill: none;stroke: #000000;stroke-width: 5;stroke-linecap: round;stroke-miterlimit: 10;}#el_FTWtopsHu9x{fill: url(#SVGID_3_);stroke: #000000;stroke-width: 4;stroke-miterlimit: 10;}#el_K5uBAnLGdMi{fill: url(#SVGID_4_);stroke: #000000;stroke-width: 5;stroke-linecap: round;stroke-linejoin: round;stroke-miterlimit: 10;}#el_DfWqmM-fl4R{fill: none;stroke: #000000;stroke-width: 4;stroke-linecap: round;stroke-miterlimit: 10;}#el_f45zxjqlA28{fill: none;stroke: #000000;stroke-width: 4;stroke-linecap: round;stroke-miterlimit: 10;}#el_V9dlN0kXQab{fill: none;stroke: #000000;stroke-width: 4;stroke-linecap: round;stroke-miterlimit: 10;}#el_jx3OM1EgxKM{fill: none;stroke: #000000;stroke-width: 4;stroke-linecap: round;stroke-miterlimit: 10;}#el_GzjPYbU15jK{fill: none;stroke: #000000;stroke-width: 4;stroke-linecap: round;stroke-miterlimit: 10;-webkit-transform: matrix(0.7071, -0.7071, 0.7071, 0.7071, -49.2638, 342.7057);transform: matrix(0.7071, -0.7071, 0.7071, 0.7071, -49.2638, 342.7057);}#el_yAw2ZYS-OrT{fill: none;stroke: #000000;stroke-width: 4;stroke-linecap: round;stroke-linejoin: round;stroke-miterlimit: 10;}#el_lmP0jIaNaHg{fill: #FFFFFF;}#el_HKY82ncbvOY{fill: url(#SVGID_5_);stroke: #000000;stroke-width: 4;stroke-miterlimit: 10;}#el_peWy23cVR-e{fill: #FFFFFF;}#el_MPchg-G0YTH{fill: none;stroke: #000000;stroke-width: 4;stroke-miterlimit: 10;}#el_m52MxDH4_Ao{fill: #FFFFFF;stroke: #000000;stroke-width: 4;stroke-linecap: round;stroke-linejoin: round;stroke-miterlimit: 10;}#el_Bq6WDvDjZZO{fill: url(#SVGID_6_);stroke: #000000;stroke-width: 4;stroke-miterlimit: 10;}#el_H0WAPJuErMI{fill: none;stroke: #226397;stroke-width: 4;stroke-linecap: round;stroke-miterlimit: 10;}#el_XOF1dgn-Ubu{fill: none;stroke: #226397;stroke-width: 4;stroke-linecap: round;stroke-miterlimit: 10;}#el_J3JoUXUeVaE{fill: none;stroke: #226397;stroke-width: 4;stroke-linecap: round;stroke-miterlimit: 10;}#el_eFtjVFseBko{fill: none;stroke: #000000;stroke-width: 4;stroke-linecap: round;stroke-linejoin: round;stroke-miterlimit: 10;}#el_OyZAZp5DSSH{fill: none;stroke: #FFFFFF;stroke-width: 4;stroke-linecap: round;stroke-linejoin: round;stroke-miterlimit: 10;}#el_raPgEz3DHuD{fill: #3BA8DF;}#el_WzUZ18Fb8Qj{fill: #5CC2EF;}#el_yTChV3HMbTB{fill: none;stroke: #000000;stroke-width: 4;stroke-linecap: round;stroke-linejoin: round;stroke-miterlimit: 10;}#el_LV6Nw5coXoy{fill: #FFFFFF;stroke: #000000;stroke-width: 4;stroke-linecap: round;stroke-linejoin: round;stroke-miterlimit: 10;}#el_Mg4ToXxnmfY{fill: #3BA8DF;}#el_VNq8uEkvpiY{fill: #5CC2EF;}#el_KCM9oguFbJ_{fill: none;stroke: #000000;stroke-width: 4;stroke-linecap: round;stroke-linejoin: round;stroke-miterlimit: 10;}#el_P3UlDz3uR2i{fill: #FFFFFF;stroke: #000000;stroke-width: 4;stroke-linecap: round;stroke-linejoin: round;stroke-miterlimit: 10;}#el_s2-o_uiEOZA{fill: #FFFFFF;stroke: #000000;stroke-width: 4;stroke-linecap: round;stroke-linejoin: round;stroke-miterlimit: 10;}#el_s_LPIw-k62e{fill: url(#SVGID_7_);stroke: #000000;stroke-width: 4;stroke-miterlimit: 10;}#el_v0lPmEDedND{fill: none;stroke: #FFFFFF;stroke-width: 4;stroke-linecap: round;stroke-miterlimit: 10;}#el_L1vP8lEELQR{fill: none;stroke: #FFFFFF;stroke-width: 4;stroke-linecap: round;stroke-miterlimit: 10;}#el_Lho69KRArCJ{fill: none;stroke: #FFFFFF;stroke-width: 4;stroke-linecap: round;stroke-miterlimit: 10;}#el_J7a81NdNbB6{fill: none;stroke: #FFFFFF;stroke-width: 4;stroke-linecap: round;stroke-miterlimit: 10;}#el_5-6wgx5jxsx{fill: url(#SVGID_8_);stroke: #000000;stroke-width: 5;stroke-miterlimit: 10;}#el_ec0NQZC2sYA{fill: url(#SVGID_9_);stroke: #000000;stroke-width: 5;stroke-miterlimit: 10;}#el_EIzy0T5segZ{fill: #FFFFFF;stroke: #000000;stroke-width: 5;stroke-miterlimit: 10;}#el_z72o-I-3P3w{fill: #FFFFFF;stroke: #000000;stroke-width: 5;stroke-miterlimit: 10;}#el_AVCzx6R4LZX{fill: #FFFFFF;stroke: #000000;stroke-width: 5;stroke-miterlimit: 10;}#el_0W5UoYGykTr{fill: url(#SVGID_10_);stroke: #000000;stroke-width: 5;stroke-miterlimit: 10;}#el_ZfzEPyrQQmY{fill: none;stroke: #FFFFFF;stroke-width: 5;stroke-linecap: round;stroke-miterlimit: 10;}#el_qIBIQSmkbhc{fill: none;stroke: #FFFFFF;stroke-width: 5;stroke-linecap: round;stroke-miterlimit: 10;}#el_rIxwWa6GQFk{fill: #FFFFFF;stroke: #000000;stroke-width: 5;stroke-miterlimit: 10;}#el_GIChohzFkjt_dKC5_1s2G{-webkit-animation-name: el_GIChohzFkjt_dKC5_1s2G_Animation;animation-name: el_GIChohzFkjt_dKC5_1s2G_Animation;-webkit-transform: translate(180px, 464.0000114440918px) scale(1, 1) translate(-180px, -464.0000114440918px);transform: translate(180px, 464.0000114440918px) scale(1, 1) translate(-180px, -464.0000114440918px);}#el_jMpqJhjIt2__y35q05i6j{-webkit-animation-name: el_jMpqJhjIt2__y35q05i6j_Animation;animation-name: el_jMpqJhjIt2__y35q05i6j_Animation;-webkit-transform: translate(233.5999984741211px, 544.4000244140625px) scale(1, 1) translate(-233.5999984741211px, -544.4000244140625px);transform: translate(233.5999984741211px, 544.4000244140625px) scale(1, 1) translate(-233.5999984741211px, -544.4000244140625px);}#el_-3-_v0hj-p_IqdxQRmWd{-webkit-animation-name: el_-3-_v0hj-p_IqdxQRmWd_Animation;animation-name: el_-3-_v0hj-p_IqdxQRmWd_Animation;-webkit-transform: translate(185.60000610351562px, 494.70001220703125px) translate(-185.60000610351562px, -494.70001220703125px) translate(0px, 0px);transform: translate(185.60000610351562px, 494.70001220703125px) translate(-185.60000610351562px, -494.70001220703125px) translate(0px, 0px);}#el_-3-_v0hj-p{-webkit-animation-name: el_-3-_v0hj-p_Animation;animation-name: el_-3-_v0hj-p_Animation;opacity: 1;}</style>

<g id="el_QweA6T4urI">
	<g id="el_-3-_v0hj-p_IqdxQRmWd" data-animator-group="true" data-animator-type="0"><g id="el_-3-_v0hj-p">
		<linearGradient id="SVGID_1_" gradientUnits="userSpaceOnUse" x1="185.6423" y1="519.6016" x2="540.5709" y2="519.6016">
			<stop offset="0" style="stop-color:#18A3C7"/>
			<stop offset="1" style="stop-color:#3680C3"/>
		</linearGradient>
		<rect x="185.6" y="494.7" width="354.9" height="49.9" id="el_ZkeLIj3eQb"/>
		<g id="el_oDwRyQ4yVh">
			<g id="el_Y7vwTwmlNf">
				<path d="M251.4,514.7c-1.7,0.7-3,1.7-3.9,2.9c-0.9,1.2-1.4,2.2-1.4,3.1h0.3c0.9,0,1.6,0.2,2.2,0.7&#10;&#9;&#9;&#9;&#9;&#9;c0.6,0.5,0.9,1.1,0.9,2c0,0.9-0.3,1.8-0.9,2.5c-0.6,0.7-1.5,1-2.6,1c-1,0-1.8-0.4-2.4-1.1c-0.6-0.7-0.9-1.7-0.9-3.1&#10;&#9;&#9;&#9;&#9;&#9;c0-1.3,0.2-2.6,0.6-3.7s1-2.1,1.7-3c0.7-0.9,1.5-1.7,2.5-2.3c0.9-0.6,1.9-1.1,3-1.5L251.4,514.7z M261.2,514.7&#10;&#9;&#9;&#9;&#9;&#9;c-1.7,0.7-3,1.7-3.9,2.9c-0.9,1.2-1.4,2.2-1.4,3.1h0.3c0.9,0,1.6,0.2,2.2,0.7c0.6,0.5,0.9,1.1,0.9,2c0,0.9-0.3,1.8-0.9,2.5&#10;&#9;&#9;&#9;&#9;&#9;c-0.6,0.7-1.5,1-2.6,1c-1,0-1.8-0.4-2.4-1.1c-0.6-0.7-0.9-1.7-0.9-3.1c0-1.3,0.2-2.6,0.6-3.7s1-2.1,1.7-3&#10;&#9;&#9;&#9;&#9;&#9;c0.7-0.9,1.5-1.7,2.5-2.3c0.9-0.6,1.9-1.1,3-1.5L261.2,514.7z" id="el_NbiXxIrwv6"/>
			</g>
			<g id="el_eLU3laqq1E">
				<path d="M504.2,524.4c1.7-0.7,3-1.7,3.9-2.9c0.9-1.2,1.4-2.2,1.4-3.1h-0.3c-0.9,0-1.6-0.2-2.2-0.7&#10;&#9;&#9;&#9;&#9;&#9;c-0.6-0.5-0.9-1.1-0.9-2c0-0.9,0.3-1.8,0.9-2.5c0.6-0.7,1.5-1,2.6-1c1,0,1.8,0.4,2.4,1.1c0.6,0.7,0.9,1.7,0.9,3.1&#10;&#9;&#9;&#9;&#9;&#9;c0,1.3-0.2,2.6-0.6,3.7c-0.4,1.1-1,2.1-1.7,3c-0.7,0.9-1.5,1.7-2.5,2.3c-0.9,0.6-1.9,1.1-3,1.5L504.2,524.4z M494.4,524.4&#10;&#9;&#9;&#9;&#9;&#9;c1.7-0.7,3-1.7,3.9-2.9c0.9-1.2,1.4-2.2,1.4-3.1h-0.3c-0.9,0-1.6-0.2-2.2-0.7c-0.6-0.5-0.9-1.1-0.9-2c0-0.9,0.3-1.8,0.9-2.5&#10;&#9;&#9;&#9;&#9;&#9;c0.6-0.7,1.5-1,2.6-1c1,0,1.8,0.4,2.4,1.1c0.6,0.7,0.9,1.7,0.9,3.1c0,1.3-0.2,2.6-0.6,3.7c-0.4,1.1-1,2.1-1.7,3&#10;&#9;&#9;&#9;&#9;&#9;c-0.7,0.9-1.5,1.7-2.5,2.3c-0.9,0.6-1.9,1.1-3,1.5L494.4,524.4z" id="el_D1JfohL50X"/>
			</g>
		</g>
		<g id="el_so-3rypWBh">
			<path d="M268,513.8h1.6l-0.2,4.9c0,0.5-0.1,1-0.1,1.5c0,0.5-0.1,1-0.1,1.5h0.1c0.2-0.5,0.4-1,0.7-1.6&#10;&#9;&#9;&#9;&#9;c0.2-0.5,0.4-1,0.6-1.5l2.2-4.9h1.4l0.1,4.9c0,1,0,2.1,0,3.1h0.1c0.2-0.5,0.4-1,0.6-1.6s0.4-1,0.6-1.5l1.8-4.9h1.5l-3.8,9.5h-2&#10;&#9;&#9;&#9;&#9;l0-5.2c0-0.3,0-0.7,0-1.1c0-0.4,0-0.8,0.1-1.1h-0.1c-0.1,0.4-0.3,0.7-0.4,1.1c-0.1,0.4-0.3,0.7-0.5,1.1l-2.2,5.2h-1.9L268,513.8z&#10;&#9;&#9;&#9;&#9;" id="el_aMCaSvWa7_"/>
			<path d="M278.1,520.4c0-0.7,0.1-1.3,0.3-1.8c0.2-0.5,0.5-1,0.9-1.4c0.4-0.4,0.8-0.7,1.3-0.9c0.5-0.2,0.9-0.3,1.4-0.3&#10;&#9;&#9;&#9;&#9;c0.4,0,0.8,0.1,1.1,0.2c0.3,0.1,0.5,0.3,0.7,0.6c0.2,0.2,0.3,0.5,0.4,0.8c0.1,0.3,0.1,0.7,0.1,1c0,0.3,0,0.6-0.1,0.9&#10;&#9;&#9;&#9;&#9;c-0.1,0.3-0.1,0.5-0.2,0.6h-4.3c0,0.4,0,0.7,0.1,1c0.1,0.3,0.2,0.5,0.4,0.7c0.2,0.2,0.4,0.3,0.6,0.4c0.2,0.1,0.5,0.1,0.8,0.1&#10;&#9;&#9;&#9;&#9;c0.3,0,0.5-0.1,0.8-0.2c0.3-0.1,0.5-0.2,0.7-0.4l0.6,1c-0.3,0.2-0.6,0.4-1.1,0.5c-0.4,0.2-0.9,0.2-1.4,0.2&#10;&#9;&#9;&#9;&#9;c-0.4,0-0.8-0.1-1.2-0.2c-0.3-0.1-0.6-0.3-0.9-0.6c-0.3-0.3-0.4-0.6-0.6-0.9C278.1,521.3,278.1,520.9,278.1,520.4z M282.9,519.1&#10;&#9;&#9;&#9;&#9;c0-0.1,0-0.2,0.1-0.3c0-0.1,0-0.2,0-0.3c0-0.3-0.1-0.7-0.3-0.9c-0.2-0.3-0.5-0.4-0.9-0.4c-0.4,0-0.8,0.2-1.2,0.5&#10;&#9;&#9;&#9;&#9;c-0.4,0.3-0.7,0.8-0.8,1.4H282.9z" id="el_8cow82e_dv"/>
			<path d="M289.3,516.1h1.3l-0.1,1h0.1c0.4-0.3,0.8-0.6,1.2-0.8c0.4-0.2,0.8-0.3,1.3-0.3c0.6,0,1,0.2,1.3,0.5&#10;&#9;&#9;&#9;&#9;c0.3,0.3,0.4,0.8,0.4,1.3c0,0.2,0,0.3,0,0.5c0,0.2,0,0.3-0.1,0.5l-0.9,4.5h-1.6l0.9-4.3c0-0.2,0.1-0.3,0.1-0.4c0-0.1,0-0.2,0-0.3&#10;&#9;&#9;&#9;&#9;c0-0.6-0.3-0.9-0.9-0.9c-0.3,0-0.5,0.1-0.8,0.3c-0.3,0.2-0.6,0.5-1,0.8l-1,4.9h-1.6L289.3,516.1z" id="el_aQ8c61C3x7"/>
			<path d="M295.8,520.4c0-0.7,0.1-1.3,0.3-1.8c0.2-0.5,0.5-1,0.9-1.4c0.4-0.4,0.8-0.7,1.3-0.9c0.5-0.2,0.9-0.3,1.4-0.3&#10;&#9;&#9;&#9;&#9;c0.4,0,0.8,0.1,1.1,0.2c0.3,0.1,0.5,0.3,0.7,0.6c0.2,0.2,0.3,0.5,0.4,0.8c0.1,0.3,0.1,0.7,0.1,1c0,0.3,0,0.6-0.1,0.9&#10;&#9;&#9;&#9;&#9;s-0.1,0.5-0.2,0.6h-4.3c0,0.4,0,0.7,0.1,1c0.1,0.3,0.2,0.5,0.4,0.7c0.2,0.2,0.4,0.3,0.6,0.4c0.2,0.1,0.5,0.1,0.8,0.1&#10;&#9;&#9;&#9;&#9;c0.3,0,0.5-0.1,0.8-0.2c0.3-0.1,0.5-0.2,0.7-0.4l0.6,1c-0.3,0.2-0.6,0.4-1.1,0.5s-0.9,0.2-1.4,0.2c-0.4,0-0.8-0.1-1.2-0.2&#10;&#9;&#9;&#9;&#9;c-0.3-0.1-0.7-0.3-0.9-0.6c-0.3-0.3-0.4-0.6-0.6-0.9C295.9,521.3,295.8,520.9,295.8,520.4z M300.6,519.1c0-0.1,0-0.2,0.1-0.3&#10;&#9;&#9;&#9;&#9;c0-0.1,0-0.2,0-0.3c0-0.3-0.1-0.7-0.3-0.9c-0.2-0.3-0.5-0.4-0.9-0.4c-0.4,0-0.8,0.2-1.2,0.5c-0.4,0.3-0.7,0.8-0.8,1.4H300.6z" id="el_8diPY-2SUW"/>
			<path d="M302.9,520.4c0-0.7,0.1-1.3,0.3-1.8c0.2-0.5,0.5-1,0.9-1.4c0.4-0.4,0.8-0.7,1.3-0.9c0.5-0.2,0.9-0.3,1.4-0.3&#10;&#9;&#9;&#9;&#9;c0.4,0,0.8,0.1,1.1,0.2c0.3,0.1,0.5,0.3,0.7,0.6c0.2,0.2,0.3,0.5,0.4,0.8c0.1,0.3,0.1,0.7,0.1,1c0,0.3,0,0.6-0.1,0.9&#10;&#9;&#9;&#9;&#9;c-0.1,0.3-0.1,0.5-0.2,0.6h-4.3c0,0.4,0,0.7,0.1,1c0.1,0.3,0.2,0.5,0.4,0.7c0.2,0.2,0.4,0.3,0.6,0.4c0.2,0.1,0.5,0.1,0.8,0.1&#10;&#9;&#9;&#9;&#9;c0.3,0,0.5-0.1,0.8-0.2c0.3-0.1,0.5-0.2,0.7-0.4l0.6,1c-0.3,0.2-0.6,0.4-1.1,0.5c-0.4,0.2-0.9,0.2-1.4,0.2&#10;&#9;&#9;&#9;&#9;c-0.4,0-0.8-0.1-1.2-0.2c-0.3-0.1-0.6-0.3-0.9-0.6c-0.3-0.3-0.4-0.6-0.6-0.9C303,521.3,302.9,520.9,302.9,520.4z M307.7,519.1&#10;&#9;&#9;&#9;&#9;c0-0.1,0-0.2,0.1-0.3c0-0.1,0-0.2,0-0.3c0-0.3-0.1-0.7-0.3-0.9c-0.2-0.3-0.5-0.4-0.9-0.4c-0.4,0-0.8,0.2-1.2,0.5&#10;&#9;&#9;&#9;&#9;c-0.4,0.3-0.7,0.8-0.8,1.4H307.7z" id="el_Q0MUc6HnPn"/>
			<path d="M315.7,515.5l0.5-2.5h1.6l-2.1,10.3h-1.3l0.1-1h0c-0.3,0.3-0.7,0.6-1.1,0.8c-0.4,0.2-0.8,0.3-1.2,0.3&#10;&#9;&#9;&#9;&#9;c-0.6,0-1.1-0.2-1.5-0.7c-0.4-0.4-0.5-1.1-0.5-1.9c0-0.7,0.1-1.3,0.3-1.9c0.2-0.6,0.5-1.1,0.9-1.6c0.4-0.4,0.8-0.8,1.2-1&#10;&#9;&#9;&#9;&#9;s0.9-0.4,1.4-0.4c0.3,0,0.7,0.1,0.9,0.3c0.3,0.2,0.5,0.4,0.6,0.7h0L315.7,515.5z M312.7,522.2c0.3,0,0.6-0.1,0.9-0.3&#10;&#9;&#9;&#9;&#9;c0.3-0.2,0.6-0.5,0.9-0.9l0.6-2.8c-0.2-0.3-0.4-0.5-0.6-0.7c-0.2-0.1-0.4-0.2-0.6-0.2c-0.3,0-0.6,0.1-0.9,0.3&#10;&#9;&#9;&#9;&#9;c-0.3,0.2-0.5,0.4-0.7,0.7c-0.2,0.3-0.4,0.7-0.5,1.1c-0.1,0.4-0.2,0.8-0.2,1.3c0,0.5,0.1,0.9,0.3,1.2&#10;&#9;&#9;&#9;&#9;C312.1,522,312.4,522.2,312.7,522.2z" id="el_5sd_a0cj7J"/>
			<path d="M322,516.1h1.3l-0.1,1h0.1c0.4-0.3,0.8-0.6,1.2-0.8c0.4-0.2,0.8-0.3,1.3-0.3c0.6,0,1,0.2,1.3,0.5&#10;&#9;&#9;&#9;&#9;c0.3,0.3,0.4,0.8,0.4,1.3c0,0.2,0,0.3,0,0.5c0,0.2,0,0.3-0.1,0.5l-0.9,4.5h-1.6l0.9-4.3c0-0.2,0.1-0.3,0.1-0.4c0-0.1,0-0.2,0-0.3&#10;&#9;&#9;&#9;&#9;c0-0.6-0.3-0.9-0.9-0.9c-0.3,0-0.5,0.1-0.8,0.3c-0.3,0.2-0.6,0.5-1,0.8l-1,4.9h-1.6L322,516.1z" id="el_NCtWYrXCJyf"/>
			<path d="M328.5,520.4c0-0.7,0.1-1.3,0.3-1.8c0.2-0.5,0.5-1,0.9-1.4c0.4-0.4,0.8-0.7,1.3-0.9c0.5-0.2,0.9-0.3,1.4-0.3&#10;&#9;&#9;&#9;&#9;c0.4,0,0.8,0.1,1.1,0.2c0.3,0.1,0.5,0.3,0.7,0.6c0.2,0.2,0.3,0.5,0.4,0.8c0.1,0.3,0.1,0.7,0.1,1c0,0.3,0,0.6-0.1,0.9&#10;&#9;&#9;&#9;&#9;c-0.1,0.3-0.1,0.5-0.2,0.6h-4.3c0,0.4,0,0.7,0.1,1c0.1,0.3,0.2,0.5,0.4,0.7c0.2,0.2,0.4,0.3,0.6,0.4c0.2,0.1,0.5,0.1,0.8,0.1&#10;&#9;&#9;&#9;&#9;c0.3,0,0.5-0.1,0.8-0.2c0.3-0.1,0.5-0.2,0.7-0.4l0.6,1c-0.3,0.2-0.6,0.4-1.1,0.5c-0.4,0.2-0.9,0.2-1.4,0.2&#10;&#9;&#9;&#9;&#9;c-0.4,0-0.8-0.1-1.2-0.2c-0.3-0.1-0.6-0.3-0.9-0.6c-0.3-0.3-0.4-0.6-0.6-0.9C328.6,521.3,328.5,520.9,328.5,520.4z M333.3,519.1&#10;&#9;&#9;&#9;&#9;c0-0.1,0-0.2,0.1-0.3c0-0.1,0-0.2,0-0.3c0-0.3-0.1-0.7-0.3-0.9c-0.2-0.3-0.5-0.4-0.9-0.4c-0.4,0-0.8,0.2-1.2,0.5&#10;&#9;&#9;&#9;&#9;c-0.4,0.3-0.7,0.8-0.8,1.4H333.3z" id="el_cZw0kE9fbHT"/>
			<path d="M336,516.1h1.5l0.1,3.8c0,0.3,0,0.7,0,1c0,0.3,0,0.7,0,1h0.1c0.1-0.3,0.3-0.7,0.4-1c0.1-0.3,0.3-0.7,0.4-1&#10;&#9;&#9;&#9;&#9;l1.7-3.8h1.4l0.2,3.8c0,0.3,0,0.7,0,1c0,0.3,0,0.7,0,1h0.1c0.1-0.3,0.3-0.7,0.4-1c0.1-0.3,0.3-0.7,0.4-1l1.6-3.8h1.5l-3.1,7.1&#10;&#9;&#9;&#9;&#9;h-1.9l-0.1-3.4c0-0.3,0-0.7,0-1c0-0.3,0-0.7,0-1.1h-0.1c-0.1,0.4-0.3,0.7-0.4,1.1c-0.1,0.3-0.3,0.7-0.4,1l-1.5,3.4h-1.8&#10;&#9;&#9;&#9;&#9;L336,516.1z" id="el_SFh6_dgaE6w"/>
			<path d="M350.1,524l-0.4,2.1h-1.6l2-10h1.3l0,0.9h0c0.3-0.3,0.7-0.5,1.1-0.7c0.4-0.2,0.8-0.3,1.2-0.3&#10;&#9;&#9;&#9;&#9;c0.6,0,1.1,0.2,1.5,0.7c0.4,0.4,0.5,1.1,0.5,1.9c0,0.7-0.1,1.3-0.3,1.9c-0.2,0.6-0.5,1.1-0.9,1.5c-0.4,0.4-0.8,0.8-1.2,1&#10;&#9;&#9;&#9;&#9;c-0.5,0.3-0.9,0.4-1.4,0.4c-0.3,0-0.6-0.1-0.9-0.3c-0.3-0.2-0.5-0.4-0.7-0.7h0L350.1,524z M353.1,517.2c-0.3,0-0.6,0.1-0.9,0.3&#10;&#9;&#9;&#9;&#9;s-0.6,0.4-0.9,0.8l-0.6,3.1c0.2,0.3,0.3,0.5,0.5,0.6c0.2,0.1,0.4,0.2,0.6,0.2c0.3,0,0.6-0.1,0.9-0.3c0.3-0.2,0.5-0.4,0.7-0.7&#10;&#9;&#9;&#9;&#9;c0.2-0.3,0.4-0.7,0.5-1.1c0.1-0.4,0.2-0.9,0.2-1.3c0-0.5-0.1-0.9-0.3-1.2C353.7,517.4,353.4,517.2,353.1,517.2z" id="el_cKu48034_zc"/>
			<path d="M358,516.1h1.3l-0.1,1.4h0.1c0.3-0.4,0.6-0.8,1-1.1c0.4-0.3,0.8-0.4,1.2-0.4c0.3,0,0.5,0,0.7,0.1l-0.5,1.4&#10;&#9;&#9;&#9;&#9;c-0.1,0-0.2-0.1-0.3-0.1c-0.1,0-0.2,0-0.4,0c-0.3,0-0.7,0.1-1,0.4c-0.3,0.3-0.6,0.7-0.9,1.2l-0.8,4.3h-1.6L358,516.1z" id="el_kSWMf_g9d64"/>
			<path d="M364.6,523.5c-0.4,0-0.8-0.1-1.1-0.2c-0.3-0.1-0.6-0.3-0.8-0.6s-0.4-0.6-0.5-0.9c-0.1-0.4-0.2-0.8-0.2-1.2&#10;&#9;&#9;&#9;&#9;c0-0.7,0.1-1.3,0.3-1.9c0.2-0.6,0.5-1,0.9-1.4c0.4-0.4,0.8-0.7,1.3-0.9c0.5-0.2,0.9-0.3,1.4-0.3c0.8,0,1.5,0.3,1.9,0.8&#10;&#9;&#9;&#9;&#9;c0.5,0.5,0.7,1.2,0.7,2.1c0,0.7-0.1,1.3-0.3,1.9c-0.2,0.6-0.5,1-0.9,1.4c-0.4,0.4-0.8,0.7-1.3,0.9&#10;&#9;&#9;&#9;&#9;C365.5,523.3,365,523.5,364.6,523.5z M365.7,517.2c-0.3,0-0.6,0.1-0.8,0.3c-0.3,0.2-0.5,0.4-0.7,0.7c-0.2,0.3-0.4,0.6-0.5,1&#10;&#9;&#9;&#9;&#9;c-0.1,0.4-0.2,0.8-0.2,1.3c0,0.5,0.1,1,0.3,1.3c0.2,0.3,0.5,0.4,0.9,0.4c0.3,0,0.6-0.1,0.8-0.3c0.3-0.2,0.5-0.4,0.7-0.7&#10;&#9;&#9;&#9;&#9;c0.2-0.3,0.4-0.6,0.5-1c0.1-0.4,0.2-0.8,0.2-1.3c0-0.5-0.1-1-0.3-1.3C366.4,517.4,366.1,517.2,365.7,517.2z" id="el_11SAWErlP2j"/>
			<path d="M370.8,516.1h1.3l-0.1,1h0.1c0.4-0.3,0.8-0.6,1.1-0.8c0.4-0.2,0.8-0.3,1.2-0.3c0.3,0,0.5,0,0.7,0.1&#10;&#9;&#9;&#9;&#9;c0.2,0.1,0.4,0.2,0.5,0.3s0.2,0.3,0.3,0.4s0.1,0.3,0.2,0.5c0.4-0.4,0.8-0.7,1.3-1c0.4-0.2,0.8-0.4,1.2-0.4c0.6,0,1,0.2,1.3,0.5&#10;&#9;&#9;&#9;&#9;c0.3,0.3,0.4,0.8,0.4,1.3c0,0.2,0,0.3,0,0.5c0,0.2,0,0.3-0.1,0.5l-0.9,4.5h-1.6l0.9-4.3c0-0.2,0.1-0.3,0.1-0.4c0-0.1,0-0.2,0-0.3&#10;&#9;&#9;&#9;&#9;c0-0.6-0.3-0.9-0.9-0.9c-0.2,0-0.4,0.1-0.7,0.3c-0.3,0.2-0.6,0.5-1,0.8l-1,4.9h-1.6l0.9-4.3c0-0.2,0.1-0.3,0.1-0.4&#10;&#9;&#9;&#9;&#9;c0-0.1,0-0.2,0-0.3c0-0.6-0.3-0.9-0.9-0.9c-0.2,0-0.4,0.1-0.7,0.3c-0.3,0.2-0.6,0.5-1,0.8l-1,4.9h-1.6L370.8,516.1z" id="el_6h21HDCzKIP"/>
			<path d="M384,523.5c-0.4,0-0.8-0.1-1.1-0.2c-0.3-0.1-0.6-0.3-0.8-0.6c-0.2-0.3-0.4-0.6-0.5-0.9&#10;&#9;&#9;&#9;&#9;c-0.1-0.4-0.2-0.8-0.2-1.2c0-0.7,0.1-1.3,0.3-1.9c0.2-0.6,0.5-1,0.9-1.4s0.8-0.7,1.3-0.9c0.5-0.2,0.9-0.3,1.4-0.3&#10;&#9;&#9;&#9;&#9;c0.8,0,1.5,0.3,1.9,0.8c0.5,0.5,0.7,1.2,0.7,2.1c0,0.7-0.1,1.3-0.3,1.9c-0.2,0.6-0.5,1-0.9,1.4c-0.4,0.4-0.8,0.7-1.3,0.9&#10;&#9;&#9;&#9;&#9;C385,523.3,384.5,523.5,384,523.5z M385.1,517.2c-0.3,0-0.6,0.1-0.8,0.3c-0.3,0.2-0.5,0.4-0.7,0.7c-0.2,0.3-0.4,0.6-0.5,1&#10;&#9;&#9;&#9;&#9;c-0.1,0.4-0.2,0.8-0.2,1.3c0,0.5,0.1,1,0.3,1.3c0.2,0.3,0.5,0.4,0.9,0.4c0.3,0,0.6-0.1,0.8-0.3c0.3-0.2,0.5-0.4,0.7-0.7&#10;&#9;&#9;&#9;&#9;c0.2-0.3,0.4-0.6,0.5-1c0.1-0.4,0.2-0.8,0.2-1.3c0-0.5-0.1-1-0.3-1.3C385.8,517.4,385.5,517.2,385.1,517.2z" id="el_e3ifwCTKBGy"/>
			<path d="M390.2,517.4h-1l0.2-1.2l1.1-0.1l0.6-1.9h1.3l-0.4,1.9h1.7l-0.2,1.2h-1.7l-0.7,3.5c0,0.2,0,0.3,0,0.5&#10;&#9;&#9;&#9;&#9;c0,0.3,0.1,0.5,0.2,0.6c0.1,0.1,0.3,0.2,0.6,0.2c0.1,0,0.2,0,0.3-0.1c0.1,0,0.2-0.1,0.3-0.1l0.3,1.1c-0.2,0.1-0.4,0.1-0.6,0.2&#10;&#9;&#9;&#9;&#9;c-0.3,0.1-0.5,0.1-0.9,0.1c-0.7,0-1.1-0.2-1.4-0.5c-0.3-0.3-0.4-0.7-0.4-1.2c0-0.1,0-0.3,0-0.4c0-0.1,0-0.3,0.1-0.4L390.2,517.4z&#10;&#9;&#9;&#9;&#9;" id="el_39Vxz2ygdHN"/>
			<path d="M395.3,516.1h1.6l-1.4,7.1h-1.6L395.3,516.1z M396.4,514.9c-0.2,0-0.4-0.1-0.6-0.2c-0.2-0.1-0.3-0.3-0.3-0.6&#10;&#9;&#9;&#9;&#9;c0-0.3,0.1-0.5,0.3-0.7c0.2-0.2,0.5-0.3,0.7-0.3c0.2,0,0.4,0.1,0.6,0.2c0.2,0.1,0.3,0.3,0.3,0.6c0,0.3-0.1,0.5-0.3,0.7&#10;&#9;&#9;&#9;&#9;C396.9,514.8,396.7,514.9,396.4,514.9z" id="el_YOl_Y3yjzB2"/>
			<path d="M400.3,523.5c-0.4,0-0.8-0.1-1.1-0.2c-0.3-0.1-0.6-0.3-0.8-0.6s-0.4-0.6-0.5-0.9c-0.1-0.4-0.2-0.8-0.2-1.2&#10;&#9;&#9;&#9;&#9;c0-0.7,0.1-1.3,0.3-1.9c0.2-0.6,0.5-1,0.9-1.4c0.4-0.4,0.8-0.7,1.3-0.9c0.5-0.2,0.9-0.3,1.4-0.3c0.8,0,1.5,0.3,1.9,0.8&#10;&#9;&#9;&#9;&#9;c0.5,0.5,0.7,1.2,0.7,2.1c0,0.7-0.1,1.3-0.3,1.9c-0.2,0.6-0.5,1-0.9,1.4c-0.4,0.4-0.8,0.7-1.3,0.9&#10;&#9;&#9;&#9;&#9;C401.3,523.3,400.8,523.5,400.3,523.5z M401.4,517.2c-0.3,0-0.6,0.1-0.8,0.3c-0.3,0.2-0.5,0.4-0.7,0.7c-0.2,0.3-0.4,0.6-0.5,1&#10;&#9;&#9;&#9;&#9;c-0.1,0.4-0.2,0.8-0.2,1.3c0,0.5,0.1,1,0.3,1.3c0.2,0.3,0.5,0.4,0.9,0.4c0.3,0,0.6-0.1,0.8-0.3c0.3-0.2,0.5-0.4,0.7-0.7&#10;&#9;&#9;&#9;&#9;c0.2-0.3,0.4-0.6,0.5-1c0.1-0.4,0.2-0.8,0.2-1.3c0-0.5-0.1-1-0.3-1.3C402.1,517.4,401.8,517.2,401.4,517.2z" id="el_SpsNmZI-764"/>
			<path d="M406.5,516.1h1.3l-0.1,1h0.1c0.4-0.3,0.8-0.6,1.2-0.8c0.4-0.2,0.8-0.3,1.3-0.3c0.6,0,1,0.2,1.3,0.5&#10;&#9;&#9;&#9;&#9;c0.3,0.3,0.4,0.8,0.4,1.3c0,0.2,0,0.3,0,0.5s0,0.3-0.1,0.5l-0.9,4.5h-1.6l0.9-4.3c0-0.2,0.1-0.3,0.1-0.4c0-0.1,0-0.2,0-0.3&#10;&#9;&#9;&#9;&#9;c0-0.6-0.3-0.9-0.9-0.9c-0.3,0-0.5,0.1-0.8,0.3c-0.3,0.2-0.6,0.5-1,0.8l-1,4.9h-1.6L406.5,516.1z" id="el_5Vgdd8KPPb7"/>
			<path d="M413.1,520.8c0-0.7,0.1-1.3,0.3-1.9c0.2-0.6,0.5-1.1,0.9-1.6c0.4-0.4,0.8-0.8,1.2-1c0.5-0.3,0.9-0.4,1.4-0.4&#10;&#9;&#9;&#9;&#9;c0.3,0,0.7,0.1,1,0.3c0.3,0.2,0.5,0.4,0.7,0.7h0l0.3-0.8h1.3l-1.4,7.1h-1.3l0.1-1h0c-0.3,0.3-0.7,0.6-1.1,0.8&#10;&#9;&#9;&#9;&#9;c-0.4,0.2-0.8,0.3-1.2,0.3c-0.6,0-1.1-0.2-1.5-0.7C413.3,522.3,413.1,521.7,413.1,520.8z M415.8,522.2c0.3,0,0.6-0.1,1-0.3&#10;&#9;&#9;&#9;&#9;c0.3-0.2,0.6-0.5,0.9-0.9l0.6-2.8c-0.2-0.3-0.4-0.5-0.6-0.7c-0.2-0.1-0.4-0.2-0.6-0.2c-0.3,0-0.6,0.1-0.9,0.3&#10;&#9;&#9;&#9;&#9;c-0.3,0.2-0.5,0.4-0.7,0.7c-0.2,0.3-0.4,0.7-0.5,1.1c-0.1,0.4-0.2,0.8-0.2,1.3c0,0.5,0.1,0.9,0.3,1.2&#10;&#9;&#9;&#9;&#9;C415.2,522,415.5,522.2,415.8,522.2z" id="el_pXYr9jsb9-m"/>
			<path d="M422.9,513h1.6l-1.7,8.6c0,0.1,0,0.1,0,0.2s0,0.1,0,0.1c0,0.2,0.1,0.3,0.2,0.3c0,0,0.1,0,0.1,0&#10;&#9;&#9;&#9;&#9;c0,0,0.1,0,0.1,0l0,1.2c-0.1,0-0.2,0.1-0.4,0.1c-0.1,0-0.3,0-0.5,0c-0.4,0-0.7-0.1-0.9-0.3c-0.2-0.2-0.3-0.5-0.3-0.9&#10;&#9;&#9;&#9;&#9;c0-0.2,0-0.5,0.1-0.8L422.9,513z" id="el_2PpcE85V2kh"/>
			<path d="M428.9,516.1h1.3l-0.1,1h0.1c0.4-0.3,0.8-0.6,1.1-0.8c0.4-0.2,0.8-0.3,1.2-0.3c0.3,0,0.5,0,0.7,0.1&#10;&#9;&#9;&#9;&#9;c0.2,0.1,0.4,0.2,0.5,0.3c0.1,0.1,0.2,0.3,0.3,0.4c0.1,0.2,0.1,0.3,0.2,0.5c0.4-0.4,0.8-0.7,1.3-1c0.4-0.2,0.8-0.4,1.2-0.4&#10;&#9;&#9;&#9;&#9;c0.6,0,1,0.2,1.3,0.5c0.3,0.3,0.4,0.8,0.4,1.3c0,0.2,0,0.3,0,0.5c0,0.2,0,0.3-0.1,0.5l-0.9,4.5h-1.6l0.9-4.3&#10;&#9;&#9;&#9;&#9;c0-0.2,0.1-0.3,0.1-0.4c0-0.1,0-0.2,0-0.3c0-0.6-0.3-0.9-0.9-0.9c-0.2,0-0.4,0.1-0.7,0.3c-0.3,0.2-0.6,0.5-1,0.8l-1,4.9h-1.6&#10;&#9;&#9;&#9;&#9;l0.9-4.3c0-0.2,0.1-0.3,0.1-0.4c0-0.1,0-0.2,0-0.3c0-0.6-0.3-0.9-0.9-0.9c-0.2,0-0.4,0.1-0.7,0.3c-0.3,0.2-0.6,0.5-1,0.8l-1,4.9&#10;&#9;&#9;&#9;&#9;h-1.6L428.9,516.1z" id="el_PrQWC8vnrKC"/>
			<path d="M439.5,520.8c0-0.7,0.1-1.3,0.3-1.9c0.2-0.6,0.5-1.1,0.9-1.6c0.4-0.4,0.8-0.8,1.2-1c0.5-0.3,0.9-0.4,1.4-0.4&#10;&#9;&#9;&#9;&#9;c0.3,0,0.7,0.1,1,0.3c0.3,0.2,0.5,0.4,0.7,0.7h0l0.3-0.8h1.2l-1.4,7.1h-1.3l0.1-1h0c-0.3,0.3-0.7,0.6-1.1,0.8&#10;&#9;&#9;&#9;&#9;c-0.4,0.2-0.8,0.3-1.2,0.3c-0.6,0-1.1-0.2-1.5-0.7S439.5,521.7,439.5,520.8z M442.2,522.2c0.3,0,0.6-0.1,1-0.3&#10;&#9;&#9;&#9;&#9;c0.3-0.2,0.6-0.5,0.9-0.9l0.6-2.8c-0.2-0.3-0.4-0.5-0.6-0.7c-0.2-0.1-0.4-0.2-0.6-0.2c-0.3,0-0.6,0.1-0.9,0.3&#10;&#9;&#9;&#9;&#9;c-0.3,0.2-0.5,0.4-0.7,0.7c-0.2,0.3-0.4,0.7-0.5,1.1c-0.1,0.4-0.2,0.8-0.2,1.3c0,0.5,0.1,0.9,0.3,1.2&#10;&#9;&#9;&#9;&#9;C441.6,522,441.8,522.2,442.2,522.2z" id="el_gaqAcbNFIYx"/>
			<path d="M448.7,517.4h-1l0.2-1.2l1.1-0.1l0.6-1.9h1.3l-0.4,1.9h1.7l-0.2,1.2h-1.7l-0.7,3.5c0,0.2,0,0.3,0,0.5&#10;&#9;&#9;&#9;&#9;c0,0.3,0.1,0.5,0.2,0.6c0.1,0.1,0.3,0.2,0.6,0.2c0.1,0,0.2,0,0.3-0.1c0.1,0,0.2-0.1,0.3-0.1l0.3,1.1c-0.2,0.1-0.4,0.1-0.6,0.2&#10;&#9;&#9;&#9;&#9;c-0.3,0.1-0.5,0.1-0.9,0.1c-0.7,0-1.1-0.2-1.4-0.5c-0.3-0.3-0.4-0.7-0.4-1.2c0-0.1,0-0.3,0-0.4c0-0.1,0-0.3,0.1-0.4L448.7,517.4z&#10;&#9;&#9;&#9;&#9;" id="el_iMdM8LANLUd"/>
			<path d="M452.2,520.4c0-0.7,0.1-1.3,0.3-1.8c0.2-0.5,0.5-1,0.9-1.4c0.4-0.4,0.8-0.7,1.3-0.9c0.5-0.2,0.9-0.3,1.4-0.3&#10;&#9;&#9;&#9;&#9;c0.4,0,0.8,0.1,1.1,0.2c0.3,0.1,0.5,0.3,0.7,0.6c0.2,0.2,0.3,0.5,0.4,0.8c0.1,0.3,0.1,0.7,0.1,1c0,0.3,0,0.6-0.1,0.9&#10;&#9;&#9;&#9;&#9;c-0.1,0.3-0.1,0.5-0.2,0.6h-4.3c0,0.4,0,0.7,0.1,1c0.1,0.3,0.2,0.5,0.4,0.7c0.2,0.2,0.4,0.3,0.6,0.4c0.2,0.1,0.5,0.1,0.8,0.1&#10;&#9;&#9;&#9;&#9;c0.3,0,0.5-0.1,0.8-0.2c0.3-0.1,0.5-0.2,0.7-0.4l0.6,1c-0.3,0.2-0.6,0.4-1.1,0.5s-0.9,0.2-1.4,0.2c-0.4,0-0.8-0.1-1.2-0.2&#10;&#9;&#9;&#9;&#9;c-0.3-0.1-0.7-0.3-0.9-0.6c-0.3-0.3-0.4-0.6-0.6-0.9C452.3,521.3,452.2,520.9,452.2,520.4z M457,519.1c0-0.1,0-0.2,0.1-0.3&#10;&#9;&#9;&#9;&#9;c0-0.1,0-0.2,0-0.3c0-0.3-0.1-0.7-0.3-0.9c-0.2-0.3-0.5-0.4-0.9-0.4c-0.4,0-0.8,0.2-1.2,0.5c-0.4,0.3-0.7,0.8-0.8,1.4H457z" id="el_-417NY9ph1D"/>
			<path d="M460.6,516.1h1.3l-0.1,1.4h0.1c0.3-0.4,0.6-0.8,1-1.1c0.4-0.3,0.8-0.4,1.2-0.4c0.3,0,0.5,0,0.7,0.1l-0.5,1.4&#10;&#9;&#9;&#9;&#9;c-0.1,0-0.2-0.1-0.3-0.1c-0.1,0-0.2,0-0.4,0c-0.3,0-0.7,0.1-1,0.4c-0.3,0.3-0.6,0.7-0.9,1.2l-0.8,4.3h-1.6L460.6,516.1z" id="el_7NoG7pDvMUB"/>
			<path d="M465.9,516.1h1.6l-1.4,7.1h-1.6L465.9,516.1z M467,514.9c-0.2,0-0.4-0.1-0.6-0.2c-0.2-0.1-0.3-0.3-0.3-0.6&#10;&#9;&#9;&#9;&#9;c0-0.3,0.1-0.5,0.3-0.7s0.5-0.3,0.7-0.3c0.2,0,0.4,0.1,0.6,0.2c0.2,0.1,0.3,0.3,0.3,0.6c0,0.3-0.1,0.5-0.3,0.7&#10;&#9;&#9;&#9;&#9;C467.6,514.8,467.3,514.9,467,514.9z" id="el_ORtpde8K0yw"/>
			<path d="M468.3,520.8c0-0.7,0.1-1.3,0.3-1.9c0.2-0.6,0.5-1.1,0.9-1.6c0.4-0.4,0.8-0.8,1.2-1c0.5-0.3,0.9-0.4,1.4-0.4&#10;&#9;&#9;&#9;&#9;c0.3,0,0.7,0.1,1,0.3c0.3,0.2,0.5,0.4,0.7,0.7h0l0.3-0.8h1.3l-1.4,7.1h-1.3l0.1-1h0c-0.3,0.3-0.7,0.6-1.1,0.8&#10;&#9;&#9;&#9;&#9;c-0.4,0.2-0.8,0.3-1.2,0.3c-0.6,0-1.1-0.2-1.5-0.7C468.5,522.3,468.3,521.7,468.3,520.8z M471,522.2c0.3,0,0.6-0.1,1-0.3&#10;&#9;&#9;&#9;&#9;c0.3-0.2,0.6-0.5,0.9-0.9l0.6-2.8c-0.2-0.3-0.4-0.5-0.6-0.7c-0.2-0.1-0.4-0.2-0.6-0.2c-0.3,0-0.6,0.1-0.9,0.3&#10;&#9;&#9;&#9;&#9;c-0.3,0.2-0.5,0.4-0.7,0.7c-0.2,0.3-0.4,0.7-0.5,1.1c-0.1,0.4-0.2,0.8-0.2,1.3c0,0.5,0.1,0.9,0.3,1.2&#10;&#9;&#9;&#9;&#9;C470.4,522,470.6,522.2,471,522.2z" id="el_7F0lHWmOi1V"/>
			<path d="M478.1,513h1.6l-1.7,8.6c0,0.1,0,0.1,0,0.2s0,0.1,0,0.1c0,0.2,0.1,0.3,0.2,0.3c0,0,0.1,0,0.1,0&#10;&#9;&#9;&#9;&#9;c0,0,0.1,0,0.1,0l0,1.2c-0.1,0-0.2,0.1-0.4,0.1s-0.3,0-0.5,0c-0.4,0-0.7-0.1-0.9-0.3c-0.2-0.2-0.3-0.5-0.3-0.9&#10;&#9;&#9;&#9;&#9;c0-0.2,0-0.5,0.1-0.8L478.1,513z" id="el_HQMHL9pWVm7"/>
			<path d="M480.3,521.3c0.2,0.3,0.5,0.5,0.8,0.7c0.3,0.2,0.6,0.2,0.9,0.2c0.3,0,0.6-0.1,0.9-0.3&#10;&#9;&#9;&#9;&#9;c0.2-0.2,0.4-0.4,0.4-0.7c0-0.2-0.1-0.4-0.3-0.6c-0.2-0.2-0.5-0.4-1-0.6c-0.5-0.3-0.8-0.5-1.1-0.9c-0.3-0.3-0.4-0.7-0.4-1.1&#10;&#9;&#9;&#9;&#9;c0-0.3,0.1-0.6,0.2-0.9c0.1-0.3,0.3-0.5,0.6-0.7c0.2-0.2,0.5-0.3,0.8-0.5c0.3-0.1,0.7-0.2,1-0.2c0.5,0,0.9,0.1,1.3,0.3&#10;&#9;&#9;&#9;&#9;s0.7,0.4,1,0.7l-0.9,0.8c-0.2-0.2-0.4-0.3-0.6-0.5c-0.2-0.1-0.5-0.2-0.8-0.2c-0.3,0-0.6,0.1-0.8,0.3c-0.2,0.2-0.3,0.4-0.3,0.6&#10;&#9;&#9;&#9;&#9;c0,0.1,0,0.3,0.1,0.3c0.1,0.1,0.2,0.2,0.3,0.3c0.1,0.1,0.2,0.2,0.4,0.2c0.1,0.1,0.3,0.2,0.5,0.2c0.5,0.3,0.9,0.6,1.2,0.9&#10;&#9;&#9;&#9;&#9;c0.3,0.3,0.4,0.7,0.4,1.1c0,0.3-0.1,0.7-0.2,0.9c-0.1,0.3-0.3,0.5-0.6,0.7c-0.3,0.2-0.6,0.4-0.9,0.5c-0.3,0.1-0.7,0.2-1.1,0.2&#10;&#9;&#9;&#9;&#9;c-0.2,0-0.5,0-0.7-0.1c-0.2-0.1-0.5-0.2-0.7-0.3c-0.2-0.1-0.4-0.3-0.6-0.4c-0.2-0.2-0.4-0.4-0.5-0.6L480.3,521.3z" id="el_dRrRqoIvwgF"/>
			<path d="M486.7,523.5c-0.3,0-0.5-0.1-0.6-0.3c-0.2-0.2-0.2-0.4-0.2-0.6c0-0.2,0-0.3,0.1-0.5s0.1-0.3,0.3-0.4&#10;&#9;&#9;&#9;&#9;s0.2-0.2,0.4-0.3c0.1-0.1,0.3-0.1,0.5-0.1c0.3,0,0.5,0.1,0.6,0.3c0.1,0.2,0.2,0.4,0.2,0.7c0,0.2,0,0.3-0.1,0.5&#10;&#9;&#9;&#9;&#9;c-0.1,0.2-0.1,0.3-0.2,0.4c-0.1,0.1-0.2,0.2-0.4,0.3C487,523.4,486.9,523.5,486.7,523.5z" id="el_If_8DrBNypf"/>
		</g>
	</g></g>
	<g id="el_GIChohzFkjt_dKC5_1s2G" data-animator-group="true" data-animator-type="2"><g id="el_GIChohzFkjt">
		<linearGradient id="SVGID_2_" gradientUnits="userSpaceOnUse" x1="590.0053" y1="130.8436" x2="200.1238" y2="471.9899">
			<stop offset="0" style="stop-color:#EACC1E"/>
			<stop offset="1" style="stop-color:#E98F23"/>
		</linearGradient>
		<path d="M246.2,459.9h283.7c40.8-38,66.3-92.1,66.3-152.3c0-114.9-93.2-208.1-208.1-208.1S180,192.7,180,307.6&#10;&#9;&#9;&#9;C180,367.7,205.5,421.9,246.2,459.9z" id="el_2WtDdC7E8n-"/>
		<g id="el_lQ_CzME-TMV">
			<g id="el_xcT5FVHkNgd">
				<line x1="238.4" y1="459.9" x2="537.7" y2="459.9" id="el_IAAysAyYrx3"/>
			</g>
		</g>
		<g id="el_Hst3CecwvqU">
			<g id="el_8UbKzEOugln">
				<linearGradient id="SVGID_3_" gradientUnits="userSpaceOnUse" x1="366.5427" y1="487.3869" x2="408.3136" y2="143.2991">
					<stop offset="0" style="stop-color:#1AA4C8"/>
					<stop offset="1" style="stop-color:#3781C3"/>
				</linearGradient>
				<rect x="312.6" y="199.9" width="146.2" height="258.9" id="el_FTWtopsHu9x"/>
				<linearGradient id="SVGID_4_" gradientUnits="userSpaceOnUse" x1="411.2014" y1="192.4967" x2="350.1115" y2="286.4813">
					<stop offset="0" style="stop-color:#E9CB1E"/>
					<stop offset="0.1087" style="stop-color:#E9C41C"/>
					<stop offset="1" style="stop-color:#E78E24"/>
				</linearGradient>
				<polygon points="419.5,263.5 385.7,289 352,263.5 352,199.9 419.5,199.9 &#9;&#9;&#9;&#9;" id="el_K5uBAnLGdMi"/>
				<g id="el_FglJ0eGqfLk">
					<line x1="372" y1="228.9" x2="386.6" y2="214.3" id="el_DfWqmM-fl4R"/>
					<line x1="391" y1="247.8" x2="405.6" y2="233.2" id="el_f45zxjqlA28"/>
					<line x1="365.9" y1="254.4" x2="383.9" y2="236.3" id="el_V9dlN0kXQab"/>
					<line x1="381.2" y1="259.9" x2="398.9" y2="259.9" id="el_jx3OM1EgxKM"/>
					
						<rect x="383.4" y="217.4" width="11.4" height="26.8" id="el_GzjPYbU15jK"/>
				</g>
				<rect x="312.6" y="199.9" width="146.2" height="258.9" id="el_yAw2ZYS-OrT"/>
				<rect x="447.8" y="199.9" width="9" height="257.7" id="el_lmP0jIaNaHg"/>
				<linearGradient id="SVGID_5_" gradientUnits="userSpaceOnUse" x1="375.7978" y1="279.088" x2="397.2054" y2="108.3495">
					<stop offset="0" style="stop-color:#1AA4C8"/>
					<stop offset="1" style="stop-color:#3781C3"/>
				</linearGradient>
				<polygon points="385.7,100.1 472.3,199.9 299.2,199.9 &#9;&#9;&#9;&#9;" id="el_HKY82ncbvOY"/>
				<polygon points="458.2,201.6 473.3,200.4 387.4,100.4 379.3,109.3 &#9;&#9;&#9;&#9;" id="el_peWy23cVR-e"/>
				<polygon points="385.7,100.1 472.3,199.9 299.2,199.9 &#9;&#9;&#9;&#9;" id="el_MPchg-G0YTH"/>
				<polyline points="418.3,172.9 385.7,136 353.1,172.9 &#9;&#9;&#9;&#9;" id="el_m52MxDH4_Ao"/>
				<linearGradient id="SVGID_6_" gradientUnits="userSpaceOnUse" x1="385.73" y1="369.1294" x2="385.73" y2="456.9283">
					<stop offset="0" style="stop-color:#EE467B"/>
					<stop offset="1" style="stop-color:#F27770"/>
				</linearGradient>
				<rect x="365.9" y="381.3" width="39.6" height="77.5" id="el_Bq6WDvDjZZO"/>
				<line x1="363.2" y1="362.6" x2="339.8" y2="362.6" id="el_H0WAPJuErMI"/>
				<line x1="383.6" y1="362.6" x2="375.3" y2="362.6" id="el_XOF1dgn-Ubu"/>
				<line x1="438.7" y1="280.3" x2="426.7" y2="280.3" id="el_J3JoUXUeVaE"/>
				<line x1="385.7" y1="100.1" x2="385.7" y2="78.7" id="el_eFtjVFseBko"/>
				<line x1="396.5" y1="394.6" x2="396.5" y2="423.8" id="el_OyZAZp5DSSH"/>
				<g id="el_10Oa4QMbTje">
					<path d="M370.4,345.2h-37.8V308c0-8.2,6.6-14.8,14.8-14.8h8.1c8.2,0,14.8,6.6,14.8,14.8V345.2z" id="el_raPgEz3DHuD"/>
					<polygon points="368.3,339.8 357.9,339.8 357.9,293.9 366.4,295 368.3,301.8 &#9;&#9;&#9;&#9;&#9;" id="el_WzUZ18Fb8Qj"/>
					<path d="M370.4,345.2h-37.8V308c0-8.2,6.6-14.8,14.8-14.8h8.1c8.2,0,14.8,6.6,14.8,14.8V345.2z" id="el_yTChV3HMbTB"/>
					<path d="M369.9,350.6h-36.9c-3,0-5.4-2.4-5.4-5.4v-3c0-3,2.4-5.4,5.4-5.4h36.9c3,0,5.4,2.4,5.4,5.4v3&#10;&#9;&#9;&#9;&#9;&#9;&#9;C375.4,348.2,372.9,350.6,369.9,350.6z" id="el_LV6Nw5coXoy"/>
				</g>
				<g id="el_VQT6va3YhYM">
					<path d="M437.2,345.2h-37.8V308c0-8.2,6.6-14.8,14.8-14.8h8.1c8.2,0,14.8,6.6,14.8,14.8V345.2z" id="el_Mg4ToXxnmfY"/>
					<polygon points="435.1,339.8 424.7,339.8 424.7,293.9 433.4,295.5 435.1,301.8 &#9;&#9;&#9;&#9;&#9;" id="el_VNq8uEkvpiY"/>
					<path d="M437.2,345.2h-37.8V308c0-8.2,6.6-14.8,14.8-14.8h8.1c8.2,0,14.8,6.6,14.8,14.8V345.2z" id="el_KCM9oguFbJ_"/>
					<path d="M436.8,350.6h-36.9c-3,0-5.4-2.4-5.4-5.4v-3c0-3,2.4-5.4,5.4-5.4h36.9c3,0,5.4,2.4,5.4,5.4v3&#10;&#9;&#9;&#9;&#9;&#9;&#9;C442.2,348.2,439.8,350.6,436.8,350.6z" id="el_P3UlDz3uR2i"/>
				</g>
				<rect x="356.9" y="448" width="57.7" height="16" id="el_s2-o_uiEOZA"/>
				<linearGradient id="SVGID_7_" gradientUnits="userSpaceOnUse" x1="385.7301" y1="72.327" x2="458.5377" y2="72.327">
					<stop offset="0" style="stop-color:#EE467B"/>
					<stop offset="1" style="stop-color:#F27770"/>
				</linearGradient>
				<polygon points="458.5,55.3 445.1,73.2 458.5,89.4 385.7,89.4 385.7,55.3 &#9;&#9;&#9;&#9;" id="el_s_LPIw-k62e"/>
				<line x1="398.1" y1="65.6" x2="425.7" y2="65.6" id="el_v0lPmEDedND"/>
				<line x1="434.2" y1="65.6" x2="434.2" y2="65.6" id="el_L1vP8lEELQR"/>
				<line x1="341.6" y1="190.9" x2="323.4" y2="190.9" id="el_Lho69KRArCJ"/>
				<line x1="384.3" y1="190.9" x2="350.4" y2="190.9" id="el_J7a81NdNbB6"/>
			</g>
		</g>
	</g></g>
	<g id="el_jMpqJhjIt2__y35q05i6j" data-animator-group="true" data-animator-type="2"><g id="el_jMpqJhjIt2_">
		<g id="el_U-be-Rlo3qB">
			<linearGradient id="SVGID_8_" gradientUnits="userSpaceOnUse" x1="189.6476" y1="450.5051" x2="54.9364" y2="611.8452">
				<stop offset="0" style="stop-color:#1AA4C8"/>
				<stop offset="1" style="stop-color:#3781C3"/>
			</linearGradient>
			<path d="M228.2,544.4c0-42.1-48.5-76.2-108.3-76.2S11.7,502.3,11.7,544.4H228.2z" id="el_5-6wgx5jxsx"/>
		</g>
		<g id="el_2OnwqOKGFB3">
			<linearGradient id="SVGID_9_" gradientUnits="userSpaceOnUse" x1="119.7864" y1="531.629" x2="119.0076" y2="351.7357">
				<stop offset="0" style="stop-color:#1AA4C8"/>
				<stop offset="1" style="stop-color:#3781C3"/>
			</linearGradient>
			<path d="M119.9,468.2c13.4,0,26.3,1.7,38.1,4.9c-6.8,7.1-18.3,21-23.4,38.8c-6.1,21.1-6.9,32.5-6.9,32.5h-16.6&#10;&#9;&#9;&#9;&#9;c0,0-0.8-11.4-6.9-32.5c-5.1-17.7-16.3-31.5-23.2-38.6C93.1,470,106.2,468.2,119.9,468.2z" id="el_ec0NQZC2sYA"/>
		</g>
		<path d="M71,476.4c12.9,9.3,30.1,15,49,15c18.9,0,36.1-5.7,49-14.9c-6.1-2.2-12.5-4-19.2-5.3&#10;&#9;&#9;&#9;c-9.6-1.6-19.5-2.5-29.7-2.5c-10.3,0-20.2,0.9-29.8,2.5C83.4,472.5,77,474.3,71,476.4z" id="el_EIzy0T5segZ"/>
		<path d="M167.1,498.5c2-5.7,5.7-13.9,8.4-19.5c-5.5-2.3-11.3-4.3-17.4-5.9c-6.8,7.1-18.3,21-23.4,38.8&#10;&#9;&#9;&#9;c-6.1,21.1-6.9,32.5-6.9,32.5h35.1C162.8,544.4,159.4,521.1,167.1,498.5z" id="el_z72o-I-3P3w"/>
		<path d="M71.8,498.5c7.7,22.6,4.3,45.9,4.3,45.9h35.1c0,0-0.8-11.4-6.9-32.5c-5.1-17.7-16.3-31.5-23.2-38.6&#10;&#9;&#9;&#9;c-6.1,1.7-11.9,3.7-17.4,6C66.2,485,69.8,492.9,71.8,498.5z" id="el_AVCzx6R4LZX"/>
		<linearGradient id="SVGID_10_" gradientUnits="userSpaceOnUse" x1="110.3292" y1="502.9204" x2="126.2268" y2="279.177">
			<stop offset="0" style="stop-color:#EE467B"/>
			<stop offset="1" style="stop-color:#F27770"/>
		</linearGradient>
		<path d="M220.6,377c7.6-3.1,13-10.5,13-19.3c0-11.5-9.3-20.8-20.8-20.8h-4.8v-17.3c0-33.1-26.9-60-60-60h-28.1H91.8&#10;&#9;&#9;&#9;c-33.1,0-60,26.9-60,60v17.3h-4.8c-11.5,0-20.8,9.3-20.8,20.8c0,8.7,5.4,16.2,13,19.3c-7,3-11.8,10-11.8,18&#10;&#9;&#9;&#9;c0,10.9,8.7,17.9,19.7,19.7c0.2,0-7.1,9.3-7.1,15.7c0,11.1,9,20.1,20.1,20.1c16.3,0,38.6-11.3,38.6-22.4h41.3h41.3&#10;&#9;&#9;&#9;c0,11.1,22.3,22.4,38.6,22.4c11.1,0,20.1-9,20.1-20.1c0-6.4-7.9-15.7-7.7-15.8c11.3-1.7,20.3-8.8,20.3-19.6&#10;&#9;&#9;&#9;C232.5,386.9,227.6,380,220.6,377z" id="el_0W5UoYGykTr"/>
		<line x1="174.7" y1="281.4" x2="174.7" y2="281.4" id="el_ZfzEPyrQQmY"/>
		<path d="M131.2,271.4H145c8.6,0,16.8,2.2,23.9,5.9" id="el_qIBIQSmkbhc"/>
		<path d="M186.3,338.2c-28.6-1.7-51.5-9.9-66.4-30.6c-14.8,20.6-37.7,28.9-66.4,30.6v58.1c0,18.7,11.6,35.6,29.6,43&#10;&#9;&#9;&#9;l13.1,5.4c14.7,6,31.2,6.1,46,0.2l14.1-5.7c18.1-7.3,29.9-24.3,29.9-43.1V338.2z" id="el_rIxwWa6GQFk"/>
	</g></g>
</g>
</svg>