<?xml version="1.0" encoding="utf-8"?>
<!-- Generator: Adobe Illustrator 22.0.1, SVG Export Plug-In . SVG Version: 6.00 Build 0)  -->
<svg version="1.1" id="Layer_1" xmlns="http://www.w3.org/2000/svg" xmlns:xlink="http://www.w3.org/1999/xlink" x="0px" y="0px"
	 viewBox="0 0 800 573.4" style="enable-background:new 0 0 800 573.4;" xml:space="preserve">
<style type="text/css">
	.st0{fill:#278DCB;}
	.st1{fill:none;stroke:#FFFFFF;stroke-width:9.0812;stroke-linecap:round;stroke-linejoin:round;stroke-miterlimit:10;}
	.st2{fill:none;stroke:#020202;stroke-width:9.0812;stroke-linecap:round;stroke-linejoin:round;stroke-miterlimit:10;}
	.st3{fill:none;stroke:#FFFFFF;stroke-width:9.0812;stroke-linecap:round;stroke-miterlimit:10;}
	.st4{fill:#FFFFFF;stroke:#020202;stroke-width:9.0812;stroke-linecap:round;stroke-linejoin:round;stroke-miterlimit:10;}
	.st5{fill:none;stroke:#246599;stroke-width:9.0812;stroke-linecap:round;stroke-miterlimit:10;}
	.st6{fill:#ECCE21;stroke:#020202;stroke-width:9.0812;stroke-miterlimit:10;}
	.st7{fill:#278DCB;stroke:#020202;stroke-width:9.0812;stroke-linecap:round;stroke-linejoin:round;stroke-miterlimit:10;}
	.st8{fill:#D9DFE6;}
	.st9{fill:#228ECA;}
	.st10{fill:#ED6F8A;stroke:#020202;stroke-width:9.0812;stroke-miterlimit:10;}
	.st11{fill:#FFFFFF;}
	.st12{fill:#FFFFFF;stroke:#020202;stroke-width:9.0812;stroke-miterlimit:10;}
	.st13{fill:#ECCE21;stroke:#020202;stroke-width:9.0812;stroke-linecap:round;stroke-linejoin:round;stroke-miterlimit:10;}
	.st14{fill:#020202;}
	.st15{fill:none;stroke:#FFFFFF;stroke-width:6.8109;stroke-linecap:round;stroke-miterlimit:10;}
	.st16{fill:#ECCE21;}
</style>
<g>
	<path class="st0" d="M-443.5,190.5h-378.7c-12.5,0-22.7,10.2-22.7,22.7v292.2h424.1V213.2C-420.8,200.7-431,190.5-443.5,190.5z"/>
	<g>
		<path class="st1" d="M-850.5,500.7"/>
		<path class="st2" d="M-443.5,190.5h-378.7c-12.5,0-22.7,10.2-22.7,22.7v292.2h424.1V213.2C-420.8,200.7-431,190.5-443.5,190.5z"/>
		<line class="st3" x1="-443" y1="237.5" x2="-443" y2="290.2"/>
		<path class="st4" d="M-381.3,529.3h-503.1c-8.9,0-16.1-7.3-16.1-16.1v-3.4c0-8.9,7.3-16.1,16.1-16.1H-381
			c8.9,0,16.1,7.3,16.1,16.1v3.4C-364.9,522-372.2,529.3-381.3,529.3z"/>
		<rect x="-802.6" y="392.8" class="st4" width="126.7" height="63.3"/>
		<line class="st5" x1="-652.3" y1="272.3" x2="-477.1" y2="272.3"/>
		<line class="st5" x1="-652.3" y1="242.7" x2="-477.1" y2="242.7"/>
		<circle class="st6" cx="-742.5" cy="293.4" r="60.2"/>
		<line class="st3" x1="-443" y1="306.1" x2="-443" y2="306.1"/>
	</g>
	<g>
		<g>
			<path class="st4" d="M-515.9,324h-53.8H-587c-10.9,0-19.8,8.9-19.8,19.8v201.6c0,10.9,8.9,19.8,19.8,19.8h88.3
				c10.9,0,19.8-8.9,19.8-19.8V343.8c0-10.9-8.9-19.8-19.8-19.8H-515.9z"/>
		</g>
		<g>
			<path class="st7" d="M-515.9,324v12c0,2.7-2.3,5-5,5h-43.8c-2.7,0-5-2.3-5-5v-12H-587c-10.9,0-19.8,8.9-19.8,19.8v201.6
				c0,10.9,8.9,19.8,19.8,19.8h88.3c10.9,0,19.8-8.9,19.8-19.8V343.8c0-10.9-8.9-19.8-19.8-19.8H-515.9z"/>
		</g>
		<line class="st3" x1="-497.7" y1="379.9" x2="-498" y2="348.1"/>
		<line class="st3" x1="-497.7" y1="395.8" x2="-497.7" y2="395.8"/>
		<circle class="st6" cx="-542.7" cy="443.9" r="41.5"/>
		<line class="st5" x1="-572" y1="509.5" x2="-513.4" y2="509.5"/>
		<line class="st5" x1="-572" y1="532.2" x2="-513.4" y2="532.2"/>
	</g>
</g>
<g>
	<path class="st8" d="M768.1,436.4c0,25.9-21,46.9-46.9,46.9H94.1c-12.9,0-24.7-5.2-33.1-13.7c-8.5-8.5-13.7-20.2-13.7-33.1
		c0-25.9,21-46.9,46.9-46.9h36.8c25.9,0,46.9-21,46.9-46.9v-0.4c-0.2-25.7-21.1-46.5-46.9-46.5H78.7c-12.9,0-24.7-5.2-33.1-13.7
		c-8.5-8.5-13.7-20.2-13.7-33.1c0-25.9,21-46.9,46.9-46.9h627.2c12.9,0,24.6,5.2,33.1,13.7c8.5,8.5,13.7,20.2,13.7,33.1
		c0,25.9-21,46.9-46.9,46.9h-52.5c-25.9,0-46.9,21-46.9,46.8v0.4c0.2,25.7,21.1,46.5,46.9,46.5h67.9c12.9,0,24.7,5.2,33.1,13.7
		C762.9,411.8,768.1,423.5,768.1,436.4z"/>
	<g>
		<g>
			
				<rect x="353.5" y="63.7" transform="matrix(0.7071 -0.7071 0.7071 0.7071 -70.8717 360.7269)" class="st9" width="93.1" height="404.3"/>
			<g>
				<line class="st3" x1="386" y1="308.6" x2="409.6" y2="284.8"/>
				<line class="st3" x1="360.6" y1="283.2" x2="400.5" y2="243.3"/>
				<line class="st3" x1="411.2" y1="333.8" x2="451.2" y2="293.9"/>
				<line class="st3" x1="436.6" y1="359.3" x2="460.3" y2="335.4"/>
				<line class="st3" x1="487" y1="409.7" x2="510.9" y2="386.1"/>
				<line class="st3" x1="461.8" y1="384.5" x2="501.8" y2="344.5"/>
				<line class="st3" x1="335.4" y1="258" x2="359.2" y2="234.2"/>
				<line class="st3" x1="310.2" y1="232.8" x2="350.1" y2="192.6"/>
				<line class="st3" x1="259.6" y1="182.2" x2="299.5" y2="142.2"/>
				<line class="st3" x1="284.8" y1="207.4" x2="308.6" y2="183.6"/>
			</g>
			
				<rect x="353.5" y="63.7" transform="matrix(0.7071 -0.7071 0.7071 0.7071 -70.8717 360.7269)" class="st2" width="93.1" height="404.3"/>
		</g>
		<polygon class="st4" points="233.7,444 254.3,366.8 267.1,353.6 323.4,408.3 310.4,421.5 		"/>
		<path class="st10" d="M477.3,218.1l-23.6-23.2c-8.9-8.6-9.1-23.2-0.5-32l56.1-57.4c8.6-8.9,23.2-9.1,32-0.5l23.6,23.2
			c8.9,8.6,9.1,23.2,0.5,32l-56.1,57.4C500.7,226.7,486.1,226.7,477.3,218.1z"/>
		
			<rect x="247.3" y="232.6" transform="matrix(0.6984 -0.7158 0.7158 0.6984 -73.3547 369.6208)" class="st6" width="309" height="78.6"/>
		<line class="st3" x1="403.7" y1="246.2" x2="463.7" y2="184"/>
		<circle class="st11" cx="475" cy="172.2" r="4.5"/>
	</g>
</g>
<g>
	<path class="st8" d="M768.1-392.3c0,25.9-21,46.9-46.9,46.9H94.1c-12.9,0-24.7-5.2-33.1-13.7c-8.5-8.5-13.7-20.2-13.7-33.1
		c0-25.9,21-46.9,46.9-46.9h36.8c25.9,0,46.9-21,46.9-46.8v-0.4c-0.2-25.7-21.1-46.4-46.9-46.4H78.7c-12.9,0-24.6-5.2-33.1-13.7
		c-8.5-8.5-13.7-20.2-13.7-33.1c0-25.9,21-46.9,46.9-46.9h627.2c12.9,0,24.6,5.2,33.1,13.7c8.5,8.5,13.7,20.2,13.7,33.1
		c0,25.9-21,46.9-46.9,46.9h-52.5c-25.9,0-46.9,21-46.9,46.9v0.4c0.2,25.7,21.1,46.5,46.9,46.5h67.9c12.9,0,24.7,5.2,33.1,13.7
		C762.9-416.9,768.1-405.2,768.1-392.3z"/>
	<g>
		<g>
			<path class="st1" d="M198.5-517.2"/>
			<g>
				<path class="st7" d="M580.1-735.1h-366c-6.1,0-11.1,5-11.1,11.1v210.7h388.2V-724C591.3-730.1,586.3-735.1,580.1-735.1z"/>
			</g>
			<path class="st12" d="M577-460.6H217.6c-7.9,0-14.5-6.6-14.5-14.5v-47.9h388.2v47.9C591.3-467.2,584.9-460.6,577-460.6z"/>
		</g>
		<rect x="345.2" y="-460.6" class="st12" width="99.7" height="71.1"/>
		<line class="st2" x1="308.8" y1="-389.6" x2="481.2" y2="-389.6"/>
		<polyline class="st1" points="250,-563.9 293.2,-602.5 320.9,-575.7 403.3,-647.9 429.4,-621.8 491.8,-676.3 513.8,-659.1 
			544,-683.6 		"/>
		<circle class="st13" cx="397.2" cy="-624.3" r="67.7"/>
		<g>
			<path class="st14" d="M372.2-597.8l7.7-12.3c5.7,4.3,10.2,5.9,14.5,5.9c5.2,0,7.5-1.8,7.5-5.9c0-8.4-27.2-9.5-27.2-28.2
				c0-12.9,8.9-20.9,23.2-20.9c9.3,0,15.9,3.9,21.1,9.3l-9.1,10.4c-3.9-3.4-7-5-10.9-5c-4.5,0-6.8,1.4-6.8,5.4
				c0,7.9,27.2,8.4,27.2,27.7c0,12.5-7.9,21.8-24.7,21.8C388.3-589.4,378.5-591.9,372.2-597.8z M391-669.5h11.8v15.9H391V-669.5z
				 M391-597.1h11.8v17.9H391V-597.1z"/>
		</g>
		<line class="st15" x1="250" y1="-719" x2="232.3" y2="-719"/>
		<line class="st15" x1="261.6" y1="-719" x2="261.6" y2="-719"/>
		<polygon class="st16" points="115.6,-704.5 106.8,-735.3 75.9,-744.2 106.8,-753.3 115.6,-784.1 124.7,-753.3 155.6,-744.2 
			124.7,-735.3 		"/>
		<polygon class="st16" points="697.7,-443.1 688.7,-474 657.8,-483.1 688.7,-492 697.7,-522.8 706.6,-492 737.5,-483.1 706.6,-474 
					"/>
	</g>
</g>
</svg>
