<?xml version="1.0" encoding="utf-8"?>
<!-- Generator: Adobe Illustrator 22.0.1, SVG Export Plug-In . SVG Version: 6.00 Build 0)  -->
<svg version="1.1" id="Layer_1" xmlns="http://www.w3.org/2000/svg" xmlns:xlink="http://www.w3.org/1999/xlink" x="0px" y="0px"
	 viewBox="0 0 219.5 212.3" style="enable-background:new 0 0 219.5 212.3;" xml:space="preserve">
<style type="text/css">
	.st0{fill:#208CCB;stroke:#000000;stroke-width:4;stroke-linecap:round;stroke-linejoin:round;}
	.st1{fill:#FFFFFF;stroke:#000000;stroke-width:4;stroke-linecap:round;stroke-linejoin:round;}
	.st2{fill:none;stroke:#FFFFFF;stroke-width:4;stroke-linecap:round;stroke-linejoin:round;}
	.st3{fill:#ECCD1A;stroke:#000000;stroke-width:4;stroke-linecap:round;stroke-linejoin:round;}
</style>
<title>Asset 14</title>
<g>
	<path class="st0" d="M59,165.2L59,165.2c0-6.6,5.3-11.9,11.9-11.9c0,0,0,0,0.1,0h89.5V44.9c0-5.1-4.2-9.3-9.3-9.3H68.4
		c-5.2,0-9.3,4.2-9.4,9.3V165.2z"/>
	<path class="st1" d="M69.3,153.3h91.1l0,0v23.5l0,0H69.3c-5.7,0-10.3-4.6-10.3-10.3l0,0v-2.8C59,157.9,63.6,153.3,69.3,153.3
		L69.3,153.3z"/>
	<line class="st2" x1="105.1" y1="45.5" x2="137.2" y2="45.5"/>
	<line class="st2" x1="146.3" y1="45.5" x2="146.3" y2="45.5"/>
	<polygon class="st3" points="136.1,115.6 136.1,85.2 109.7,69.9 83.4,85.2 83.4,115.6 109.7,130.8 	"/>
	<polygon class="st0" points="136.1,85.2 109.7,69.9 83.4,85.2 109.7,100.4 	"/>
	<polygon class="st1" points="109.7,130.8 109.7,100.4 136.1,85.2 136.1,115.6 	"/>
</g>
</svg>
