<?xml version="1.0" encoding="utf-8"?>
<!-- Generator: Adobe Illustrator 22.0.1, SVG Export Plug-In . SVG Version: 6.00 Build 0)  -->
<svg version="1.1" id="Layer_1" xmlns="http://www.w3.org/2000/svg" xmlns:xlink="http://www.w3.org/1999/xlink" x="0px" y="0px"
	 viewBox="0 0 219.5 212.3" style="enable-background:new 0 0 219.5 212.3;" xml:space="preserve">
<style type="text/css">
	.st0{fill:#208CCB;stroke:#000000;stroke-width:4;stroke-linecap:round;stroke-linejoin:round;}
	.st1{fill:none;stroke:#FFFFFF;stroke-width:4;stroke-linecap:round;stroke-linejoin:round;}
	.st2{fill:none;stroke:#226399;stroke-width:4;stroke-linecap:round;stroke-miterlimit:10;}
	.st3{fill:#FFFFFF;stroke:#000000;stroke-width:4;stroke-linecap:round;stroke-linejoin:round;}
	.st4{fill:#ECCD1A;stroke:#000000;stroke-width:4;stroke-linecap:round;stroke-linejoin:round;}
</style>
<title>Asset 15</title>
<g>
	<polygon class="st0" points="93.2,145.9 51.7,155.9 51.7,56.4 93.2,46.4 	"/>
	<line class="st1" x1="61.3" y1="66.8" x2="83.6" y2="61.5"/>
	<line class="st2" x1="61.3" y1="78.8" x2="83.6" y2="73.4"/>
	<line class="st2" x1="61.3" y1="90.8" x2="83.9" y2="85.4"/>
	<line class="st2" x1="61.3" y1="102.8" x2="83.9" y2="97.4"/>
	<line class="st2" x1="61.3" y1="126.8" x2="83.6" y2="121.4"/>
	<line class="st2" x1="61.3" y1="138.8" x2="75.4" y2="135.4"/>
	<polygon class="st0" points="176.2,145.9 134.7,155.9 134.7,56.4 176.2,46.4 	"/>
	<polygon class="st3" points="93.2,145.9 134.7,155.9 134.7,56.4 93.2,46.4 	"/>
	<circle class="st4" cx="114.4" cy="99.3" r="11.8"/>
	<line class="st1" x1="144.3" y1="66.2" x2="166.6" y2="60.8"/>
	<line class="st2" x1="144.3" y1="78.2" x2="166.6" y2="72.8"/>
	<line class="st2" x1="144.3" y1="90.2" x2="152.7" y2="88.2"/>
	<line class="st1" x1="144.3" y1="114.2" x2="166.6" y2="108.8"/>
	<line class="st2" x1="144.3" y1="126.2" x2="166.6" y2="120.8"/>
	<line class="st2" x1="144.3" y1="138.2" x2="158.4" y2="134.8"/>
</g>
</svg>
