<?xml version="1.0" encoding="utf-8"?>
<!-- Generator: Adobe Illustrator 22.0.1, SVG Export Plug-In . SVG Version: 6.00 Build 0)  -->
<svg version="1.1" id="Layer_1" xmlns="http://www.w3.org/2000/svg" xmlns:xlink="http://www.w3.org/1999/xlink" x="0px" y="0px"
	 viewBox="0 0 219.5 212.3" style="enable-background:new 0 0 219.5 212.3;" xml:space="preserve">
<style type="text/css">
	.st0{fill:#208CCB;stroke:#000000;stroke-width:4;stroke-linecap:round;stroke-linejoin:round;}
	.st1{fill:#ECCD1A;stroke:#000000;stroke-width:4;stroke-linecap:round;stroke-linejoin:round;}
	.st2{fill:#FFFFFF;stroke:#000000;stroke-width:4;stroke-linecap:round;stroke-linejoin:round;}
	.st3{fill:none;stroke:#FFFFFF;stroke-width:4;stroke-linecap:round;stroke-linejoin:round;}
</style>
<title>Asset 10</title>
<g>
	<path class="st0" d="M88.9,88.2l1.2-1.2c5.3-5.3,13.8-5.3,19,0l68.2,68.2c5.3,5.3,5.3,13.8,0,19l-1.2,1.2c-5.3,5.3-13.8,5.3-19,0
		l-68.2-68.2C83.6,101.9,83.6,93.4,88.9,88.2z"/>
	<circle class="st0" cx="92.6" cy="87.4" r="54.4"/>
	<circle class="st1" cx="79.8" cy="75.4" r="14.5"/>
	<path class="st2" d="M144.8,102.4l-17-10.6L106,122.5l-23.4-17.4l-20.8,27c24.8,17,58.6,10.8,75.6-14
		C140.7,113.4,143.2,108,144.8,102.4"/>
	<line class="st3" x1="125.2" y1="61" x2="125.2" y2="61"/>
	<path class="st3" d="M94.2,45c9.1,0.4,17.9,3.7,25,9.4"/>
	<line class="st3" x1="141.8" y1="135.6" x2="157.4" y2="151.3"/>
</g>
</svg>
