<?xml version="1.0" encoding="utf-8"?>
<!-- Generator: Adobe Illustrator 22.0.1, SVG Export Plug-In . SVG Version: 6.00 Build 0)  -->
<svg version="1.1" id="Layer_1" xmlns="http://www.w3.org/2000/svg" xmlns:xlink="http://www.w3.org/1999/xlink" x="0px" y="0px"
	 viewBox="0 0 219.5 212.3" style="enable-background:new 0 0 219.5 212.3;" xml:space="preserve">
<style type="text/css">
	.st0{fill:#208CCB;stroke:#000000;stroke-width:4;stroke-linecap:round;stroke-linejoin:round;}
	.st1{fill:none;stroke:#FFFFFF;stroke-width:4;stroke-linecap:round;stroke-linejoin:round;}
	.st2{fill:none;stroke:#000000;stroke-width:4;stroke-linecap:round;stroke-linejoin:round;}
	.st3{fill:#FFFFFF;stroke:#000000;stroke-width:4;stroke-linecap:round;stroke-linejoin:round;}
	.st4{fill:none;}
	.st5{fill:#ECCD1A;stroke:#000000;stroke-width:4;stroke-linecap:round;stroke-linejoin:round;}
</style>
<title>Asset 9</title>
<g>
	<path class="st0" d="M148.3,98.6c0-21.5-17.5-39-39-39s-39,17.5-39,39c0,10,3.9,19.6,10.8,26.9c8.3,8.6,12.9,20,13,31.9v1.7h30.5
		v-1.7c0.1-11.9,4.8-23.4,13.1-32C144.5,118.1,148.3,108.5,148.3,98.6z"/>
	<path class="st0" d="M148.3,98.6c0-21.5-17.5-39-39-39s-39,17.5-39,39c0,10,3.9,19.6,10.8,26.9c8.3,8.6,12.9,20,13,31.9v1.7h30.5
		v-1.7c0.1-11.9,4.8-23.4,13.1-32C144.5,118.1,148.3,108.5,148.3,98.6z"/>
	<line class="st1" x1="137" y1="99.3" x2="137" y2="99.3"/>
	<line class="st2" x1="109.3" y1="150.1" x2="109.3" y2="121.6"/>
	<path class="st1" d="M119.1,73.4c8.3,3.2,14.5,10.4,16.6,19.1"/>
	<path class="st3" d="M109.3,175.1L109.3,175.1c-8.4,0-15.2-6.8-15.2-15.2v-9.8h30.5l-0.1,10C124.4,168.4,117.6,175.1,109.3,175.1z"
		/>
	<line class="st4" x1="124.6" y1="159.1" x2="94.1" y2="159.1"/>
	<line class="st2" x1="94.1" y1="159.9" x2="124.4" y2="160.1"/>
	<line class="st1" x1="109.4" y1="48.5" x2="109.4" y2="31.4"/>
	<line class="st1" x1="140.5" y1="58.9" x2="150.6" y2="45"/>
	<line class="st1" x1="159.6" y1="85.6" x2="174.1" y2="80.9"/>
	<line class="st1" x1="78.6" y1="58.9" x2="68.5" y2="45"/>
	<line class="st1" x1="59.5" y1="85.6" x2="45" y2="80.9"/>
	<circle class="st5" cx="109.3" cy="119.2" r="9.9"/>
</g>
</svg>
