<?xml version="1.0" encoding="utf-8"?>
<!-- Generator: Adobe Illustrator 22.0.1, SVG Export Plug-In . SVG Version: 6.00 Build 0)  -->
<svg version="1.1" id="Layer_1" xmlns="http://www.w3.org/2000/svg" xmlns:xlink="http://www.w3.org/1999/xlink" x="0px" y="0px"
	 viewBox="0 0 219.5 212.3" style="enable-background:new 0 0 219.5 212.3;" xml:space="preserve">
<style type="text/css">
	.st0{fill:#208CCB;stroke:#000000;stroke-width:4;stroke-linecap:round;stroke-linejoin:round;}
	.st1{fill:none;stroke:#FFFFFF;stroke-width:4;stroke-linecap:round;stroke-linejoin:round;}
	.st2{fill:#FFFFFF;stroke:#000000;stroke-width:4;stroke-linecap:round;stroke-linejoin:round;}
</style>
<title>Asset 6</title>
<path class="st0" d="M149.7,72.7L149.7,72.7c-2.8,1.4-6.1,0.9-8.3-1.2c-0.6-0.5-1.1-1-1.7-1.4c-2.4-2-3.3-5.2-2.3-8.1l0,0
	c1.3-3.9-0.8-8.2-4.7-9.5l-8.8-3c-3.9-1.3-8.2,0.8-9.5,4.7c0,0,0,0,0,0l0,0c-1,2.9-3.7,4.9-6.7,5.1c-0.7,0-1.5,0.1-2.2,0.2
	c-3.1,0.3-6-1.4-7.3-4.1l0,0c-1.9-3.7-6.4-5.2-10.1-3.3l-8.4,4.2c-3.7,1.8-5.2,6.3-3.4,10l0,0c1.4,2.8,0.9,6.1-1.1,8.3
	c-0.5,0.5-1,1.1-1.5,1.7c-2,2.4-5.2,3.3-8.1,2.3l0,0c-3.9-1.3-8.2,0.8-9.5,4.7L53,92c-1.3,3.9,0.8,8.2,4.7,9.5l0,0
	c2.9,1,4.9,3.7,5.1,6.7c0,0.7,0.1,1.5,0.2,2.2c0.3,3.1-1.4,6-4.1,7.3l0,0c-3.7,1.8-5.2,6.3-3.4,10l4.2,8.4c1.8,3.7,6.3,5.2,10,3.4
	l0,0c2.7-1.4,6.1-0.9,8.3,1.1c0.6,0.5,1.1,1,1.7,1.5c2.4,2,3.3,5.2,2.3,8.1l0,0c-1.3,3.9,0.8,8.2,4.7,9.5c0,0,0,0,0,0l8.8,3
	c3.9,1.3,8.2-0.8,9.5-4.7c0,0,0,0,0,0l0,0c1-2.9,3.6-4.9,6.7-5.1c0.7,0,1.5,0,2.2-0.1c3.1-0.3,6,1.4,7.3,4.1l0,0
	c1.8,3.7,6.3,5.2,10,3.4l8.4-4.1c3.7-1.8,5.2-6.3,3.4-10.1l0,0c-1.4-2.8-0.9-6.1,1.1-8.4c0.5-0.5,1-1.1,1.5-1.7
	c2-2.4,5.2-3.3,8.1-2.3l0,0c3.9,1.3,8.2-0.8,9.5-4.7c0,0,0,0,0,0l3-8.8c1.3-3.9-0.8-8.2-4.7-9.5c0,0,0,0,0,0l0,0
	c-2.9-1-4.9-3.7-5.1-6.7c0-0.7-0.1-1.5-0.1-2.2c-0.3-3.1,1.4-6,4.1-7.3l0,0c3.7-1.8,5.2-6.3,3.4-10l-4.2-8.4
	C158,72.4,153.5,70.9,149.7,72.7C149.8,72.7,149.7,72.7,149.7,72.7z"/>
<line class="st1" x1="143" y1="103.4" x2="143" y2="103.4"/>
<path class="st1" d="M126.7,79.3c6.6,3.4,11.7,9,14.6,15.8"/>
<path class="st2" d="M173.1,152.8l-41-35.7c5-12.1-0.7-25.9-12.7-31c-6.2-2.6-13.2-2.4-19.2,0.4l11,9.6c3.1,2.7,3.4,7.4,0.7,10.5
	l-2.7,3.1c-2.7,3.1-7.4,3.4-10.5,0.7l-11.1-9.6c-3.9,12.5,3,25.8,15.5,29.7c6.4,2,13.3,1.2,19.1-2.2l0.1-0.1l41,35.7
	c3.1,2.7,7.7,2.3,10.4-0.7l0.1-0.1C176.5,160.2,176.2,155.5,173.1,152.8z"/>
</svg>
