<?xml version="1.0" encoding="utf-8"?>
<!-- Generator: Adobe Illustrator 22.0.1, SVG Export Plug-In . SVG Version: 6.00 Build 0)  -->
<svg version="1.1" id="Layer_1" xmlns="http://www.w3.org/2000/svg" xmlns:xlink="http://www.w3.org/1999/xlink" x="0px" y="0px"
	 viewBox="0 0 219.5 212.3" style="enable-background:new 0 0 219.5 212.3;" xml:space="preserve">
<style type="text/css">
	.st0{fill:none;stroke:#000000;stroke-width:4;stroke-linecap:round;stroke-linejoin:round;}
	.st1{fill:#208CCB;stroke:#000000;stroke-width:4;stroke-linecap:round;stroke-linejoin:round;}
	.st2{fill:#ECCD1A;stroke:#000000;stroke-width:4;stroke-linecap:round;stroke-linejoin:round;}
	.st3{fill:none;stroke:#226399;stroke-width:4;stroke-linecap:round;stroke-miterlimit:10;}
	.st4{fill:none;stroke:#FFFFFF;stroke-width:4;stroke-linecap:round;stroke-linejoin:round;}
</style>
<title>Asset 16</title>
<g>
	<line class="st0" x1="74.4" y1="101.7" x2="74.4" y2="171"/>
	<line class="st0" x1="145.6" y1="99.3" x2="145.6" y2="171"/>
	<path class="st1" d="M52.8,59.3h113.8c3.9,0,7,3.1,7,7v66c0,3.9-3.1,7-7,7H52.8c-3.9,0-7-3.1-7-7v-66C45.8,62.5,49,59.3,52.8,59.3z
		"/>
	<circle class="st2" cx="81.6" cy="99.3" r="22.1"/>
	<line class="st3" x1="119.2" y1="84.8" x2="161" y2="84.8"/>
	<line class="st3" x1="119.2" y1="98.8" x2="161" y2="98.8"/>
	<line class="st3" x1="119.2" y1="112.9" x2="161" y2="112.9"/>
	<line class="st4" x1="120.4" y1="68.7" x2="145.6" y2="68.7"/>
	<line class="st4" x1="155.3" y1="68.7" x2="155.3" y2="68.7"/>
</g>
</svg>
