<svg xmlns="http://www.w3.org/2000/svg" viewBox="0 0 533.11 598.55"><defs><style>.cls-1{isolation:isolate;}.cls-2{fill:#d8dfe6;}.cls-11,.cls-3{fill:#208ccb;}.cls-12,.cls-13,.cls-3,.cls-4,.cls-5,.cls-6,.cls-7{stroke:#000;}.cls-10,.cls-12,.cls-3,.cls-4,.cls-7,.cls-8{stroke-linecap:round;}.cls-12,.cls-3,.cls-4{stroke-linejoin:round;}.cls-10,.cls-12,.cls-13,.cls-3,.cls-4,.cls-5,.cls-6,.cls-7,.cls-8{stroke-width:4px;}.cls-4{fill:#eccd1a;}.cls-5,.cls-9{fill:#fff;}.cls-10,.cls-13,.cls-5,.cls-6,.cls-7,.cls-8{stroke-miterlimit:10;}.cls-6{fill:#f06e8a;}.cls-7{fill:#3bace1;}.cls-10,.cls-12,.cls-13,.cls-8{fill:none;}.cls-8{stroke:#226399;}.cls-9{mix-blend-mode:soft-light;}.cls-10{stroke:#fff;}</style></defs><title>Asset 7</title><g class="cls-1"><g id="Layer_2" data-name="Layer 2"><g id="Layer_1-2" data-name="Layer 1"><path class="cls-2" d="M54.78,571.37h0A27.19,27.19,0,0,0,82,598.55h321.5a27.17,27.17,0,0,0,27.17-27.18h0a27.17,27.17,0,0,0-27.17-27.18H349.22A27.18,27.18,0,0,1,322,517h0a27.18,27.18,0,0,1,27.18-27.18h54.24a27.17,27.17,0,0,0,27.17-27.18h0a27.17,27.17,0,0,0-27.17-27.18H27.6A27.17,27.17,0,0,0,.43,462.65h0A27.17,27.17,0,0,0,27.6,489.83h103a27.18,27.18,0,0,1,27.18,26.94h0a27.19,27.19,0,0,1-27.18,27.42H82A27.18,27.18,0,0,0,54.78,571.37Z"/><path class="cls-2" d="M59.68,223.63H478.07a31.25,31.25,0,0,0,31.26-31.26h0a31.25,31.25,0,0,0-31.26-31.26H432.79a31.26,31.26,0,0,1-31.26-31h0a31.26,31.26,0,0,1,31.26-31.54h35a31.27,31.27,0,0,0,31.27-31.27h0a31.27,31.27,0,0,0-31.27-31.26H49.42A31.27,31.27,0,0,0,18.16,67.32h0A31.27,31.27,0,0,0,49.42,98.58H84.25a31.26,31.26,0,0,1,31.26,31h0a31.27,31.27,0,0,1-31.26,31.54H59.68a31.27,31.27,0,0,0-31.27,31.26h0A31.27,31.27,0,0,0,59.68,223.63Zm257.53-125a31.26,31.26,0,0,1,31.26,31.26h0a31.26,31.26,0,0,1-31.26,31.27H189.37a31.27,31.27,0,0,1-31.26-31.27h0a31.27,31.27,0,0,1,31.26-31.26Z"/><path class="cls-3" d="M174.52,71.11h191.4a15.72,15.72,0,0,1,15.72,15.72V380.44a0,0,0,0,1,0,0H158.8a0,0,0,0,1,0,0V86.83A15.72,15.72,0,0,1,174.52,71.11Z"/><path class="cls-3" d="M158.8,380.44H381.63a0,0,0,0,1,0,0V495.67a15.72,15.72,0,0,1-15.72,15.72H174.52a15.72,15.72,0,0,1-15.72-15.72V380.44A0,0,0,0,1,158.8,380.44Z"/><circle class="cls-4" cx="190.03" cy="101.61" r="8.83"/><circle class="cls-5" cx="217.53" cy="101.61" r="8.83"/><circle class="cls-6" cx="245.53" cy="101.61" r="8.83"/><rect class="cls-7" x="179.36" y="124.3" width="181.71" height="37.33"/><line class="cls-8" x1="194.86" y1="146.96" x2="215.53" y2="146.96"/><line class="cls-8" x1="226.36" y1="146.96" x2="289.53" y2="146.96"/><rect class="cls-5" x="305.15" y="138.59" width="41.75" height="14.75" rx="7.37" ry="7.37"/><rect class="cls-9" x="179.36" y="123.3" width="181.71" height="8.48"/><rect class="cls-7" x="179.36" y="188.44" width="181.71" height="37.33"/><line class="cls-8" x1="194.86" y1="211.11" x2="215.53" y2="211.11"/><line class="cls-8" x1="226.36" y1="211.11" x2="289.53" y2="211.11"/><rect class="cls-4" x="305.15" y="201.74" width="41.75" height="14.75" rx="7.37" ry="7.37"/><rect class="cls-9" x="179.36" y="187.44" width="181.71" height="8.48"/><rect class="cls-7" x="179.36" y="252.19" width="181.71" height="37.33"/><line class="cls-8" x1="194.86" y1="274.86" x2="215.53" y2="274.86"/><line class="cls-8" x1="226.36" y1="274.86" x2="289.53" y2="274.86"/><rect class="cls-5" x="305.15" y="265.48" width="41.75" height="14.75" rx="7.37" ry="7.37"/><rect class="cls-9" x="179.36" y="251.19" width="181.71" height="8.48"/><rect class="cls-7" x="179.36" y="315.93" width="181.71" height="37.33"/><line class="cls-8" x1="194.86" y1="338.6" x2="215.53" y2="338.6"/><line class="cls-8" x1="226.36" y1="338.6" x2="289.53" y2="338.6"/><rect class="cls-5" x="305.15" y="329.23" width="41.75" height="14.75" rx="7.37" ry="7.37"/><rect class="cls-9" x="179.36" y="314.93" width="181.71" height="8.48"/><polygon class="cls-9" points="379.53 81.25 159.82 81.25 168.53 72.77 373.78 72.77 379.53 81.25"/><rect class="cls-9" x="159.82" y="381.78" width="219.71" height="8.48"/><line class="cls-10" x1="362.74" y1="370.9" x2="331.4" y2="370.9"/><line class="cls-10" x1="324.07" y1="370.9" x2="324.07" y2="370.9"/><rect class="cls-7" x="181.2" y="406.58" width="17.67" height="79.3" rx="8.83" ry="8.83"/><rect class="cls-7" x="213.64" y="406.58" width="17.67" height="79.3" rx="8.83" ry="8.83"/><rect class="cls-7" x="246.08" y="406.58" width="17.67" height="79.3" rx="8.83" ry="8.83"/><rect class="cls-7" x="278.52" y="406.58" width="17.67" height="79.3" rx="8.83" ry="8.83"/><rect class="cls-7" x="310.96" y="406.58" width="17.67" height="79.3" rx="8.83" ry="8.83"/><rect class="cls-7" x="343.4" y="406.58" width="17.67" height="79.3" rx="8.83" ry="8.83"/><line class="cls-10" x1="184.72" y1="500.57" x2="226.36" y2="500.57"/><line class="cls-10" x1="235.11" y1="500.57" x2="235.11" y2="500.57"/><circle class="cls-4" cx="431.48" cy="81.25" r="79.25"/><path class="cls-5" d="M469.21,49.68l-1.7-.22a30.65,30.65,0,0,1-6.61-1.15c-7.67-1.83-14.91-5.49-23-11.66a7.38,7.38,0,0,0-10.23,0c-8.09,6.17-15.33,9.83-23,11.66a30.67,30.67,0,0,1-6.6,1.15l-1.71.22c-4.05.46-6.39,3.44-6.39,7.55V79c0,4.8,0,9.84.21,14.64.22,7.09,2.77,14.18,7.46,20.81,5.32,7.55,35.15,24.7,35.15,24.7s29.82-17.15,35.14-24.7c4.69-6.63,7.24-13.72,7.46-20.81.21-4.8.21-9.84.21-14.64V57.23C475.6,53.12,473.26,50.14,469.21,49.68Z"/><path class="cls-11" d="M423.67,108.83a1.77,1.77,0,0,1-.56-.08,2,2,0,0,1-.86-.5L405.71,91.7a2,2,0,0,1,0-2.82l7.55-7.56a2,2,0,0,1,1.42-.58h0a2,2,0,0,1,1.41.58l7.58,7.58,23.45-23.44a2,2,0,0,1,1.41-.59h0a2,2,0,0,1,1.42.59L457.5,73a2,2,0,0,1,0,2.83l-32.41,32.41A2,2,0,0,1,423.67,108.83Z"/><path d="M448.53,66.87l7.55,7.55-32.41,32.41h0L407.12,90.29l7.56-7.55,9,9,24.86-24.86m0-4A4,4,0,0,0,445.7,64l-22,22-6.16-6.16a4,4,0,0,0-5.66,0l-7.55,7.55a4,4,0,0,0,0,5.66l16.54,16.54a4,4,0,0,0,2.83,1.17,4.22,4.22,0,0,0,1.36-.23,4,4,0,0,0,1.47-.94l32.41-32.41a4,4,0,0,0,0-5.66L451.36,64a4,4,0,0,0-2.83-1.17Z"/><circle class="cls-4" cx="86.71" cy="286.19" r="84.71"/><path class="cls-5" d="M128.75,263.55a16.5,16.5,0,0,0-5.73,1c0-.34,0-.69,0-1a33.2,33.2,0,0,0-64.93-9.78,22.2,22.2,0,1,0-7.82,43h78.46a16.6,16.6,0,1,0,0-33.2Z"/><line class="cls-12" x1="86.71" y1="297.11" x2="86.71" y2="318.6"/><line class="cls-12" x1="42.62" y1="325.24" x2="130.81" y2="325.24"/><circle class="cls-3" cx="86.71" cy="325.24" r="11.85"/><circle class="cls-4" cx="450.44" cy="475.98" r="80.67"/><path class="cls-4" d="M434.63,444.29s-8.65,4.81-11.3,14.06-1.32,18.63,3.49,26a30.09,30.09,0,0,0,22.48,12.62,18.58,18.58,0,0,0,2.64.12,28.18,28.18,0,0,0,20.8-8.66c7.45-8,9.37-22.83-1.32-35.7-1.57-1.92-3.13-3.6-4.57-5.28-7.45-8.3-7.33-27.53-7.33-27.53s-18.4,10.82-16.11,22.84c.12.72.36,1.56.6,2.52,1.32,5.05,1.92,8.66-1.68,10.22a2.84,2.84,0,0,1-3.13-.6C436.68,452.94,434.63,444.29,434.63,444.29Z"/><rect class="cls-5" x="399.05" y="465.75" width="102.77" height="53.49" rx="3.9" ry="3.9"/><path class="cls-3" d="M423.6,465.75H498a3.78,3.78,0,0,1,3.78,3.78v13.93a0,0,0,0,1,0,0H423.6a0,0,0,0,1,0,0V465.77A0,0,0,0,1,423.6,465.75Z"/><line class="cls-13" x1="423.58" y1="465.75" x2="423.58" y2="485.88"/><line class="cls-13" x1="466.48" y1="465.75" x2="466.48" y2="483.48"/><line class="cls-13" x1="445.03" y1="482.43" x2="445.03" y2="502.56"/><line class="cls-13" x1="486.27" y1="482.43" x2="486.27" y2="502.56"/><line class="cls-13" x1="422.56" y1="500.64" x2="422.56" y2="520.77"/><line class="cls-13" x1="400.63" y1="483.48" x2="501.83" y2="483.48"/><line class="cls-13" x1="399.05" y1="502.41" x2="501.83" y2="502.41"/><rect class="cls-3" x="486.27" y="483.48" width="15.56" height="18.93"/><rect class="cls-3" x="399.05" y="483.48" width="45.98" height="18.93"/><rect class="cls-3" x="422.56" y="502.56" width="45.46" height="16.68"/></g></g></g></svg>