<?xml version="1.0" encoding="utf-8"?>
<!-- Generator: Adobe Illustrator 22.0.1, SVG Export Plug-In . SVG Version: 6.00 Build 0)  -->
<svg version="1.1" id="Layer_1" xmlns="http://www.w3.org/2000/svg" xmlns:xlink="http://www.w3.org/1999/xlink" x="0px" y="0px"
	 viewBox="0 0 219.5 212.3" style="enable-background:new 0 0 219.5 212.3;" xml:space="preserve">
<style type="text/css">
	.st0{fill:#208CCB;stroke:#000000;stroke-width:4;stroke-linecap:round;stroke-linejoin:round;}
	.st1{fill:#FFFFFF;stroke:#000000;stroke-width:4;stroke-linecap:round;stroke-linejoin:round;}
	.st2{fill:none;stroke:#000000;stroke-width:4;stroke-linecap:round;stroke-linejoin:round;}
	.st3{fill:none;stroke:#FFFFFF;stroke-width:4;stroke-linecap:round;stroke-linejoin:round;}
	.st4{fill:#ECCD1A;stroke:#000000;stroke-width:4;stroke-linecap:round;stroke-linejoin:round;}
</style>
<title>Asset 11</title>
<g>
	<path class="st0" d="M47.1,161V54.6c0-5.5,4.5-10,10-10h97.8c5.5,0,10,4.5,10,10V161c0,5.5-4.5,10-10,10H57.1
		C51.6,171,47.1,166.6,47.1,161z"/>
	<path class="st1" d="M66.6,44.6V171h-8.2c-6.2,0.1-11.2-4.8-11.3-11V55.6c0.1-6.2,5.2-11.1,11.3-11H66.6z"/>
	<line class="st2" x1="40.3" y1="145.5" x2="55" y2="145.5"/>
	<line class="st2" x1="40.3" y1="120.4" x2="55" y2="120.4"/>
	<line class="st2" x1="40.3" y1="95.3" x2="55" y2="95.3"/>
	<line class="st2" x1="40.3" y1="70.2" x2="55" y2="70.2"/>
	<line class="st3" x1="152.8" y1="140.8" x2="152.8" y2="111.5"/>
	<line class="st3" x1="152.8" y1="149.6" x2="152.8" y2="149.6"/>
	<path class="st1" d="M89.2,127.5l8.2-22.3l2.5-2.5l15,14.9l-2.3,2.4l-22.2,8.7c-0.5,0.2-1,0-1.2-0.5
		C89.1,127.9,89.1,127.7,89.2,127.5z"/>
	<path class="st4" d="M174.2,38.9l2.6,2.6c3.5,3.4,3.5,8.9,0.2,12.4L112.5,120l0,0l-15.2-14.8l0,0l64.5-66.1
		C165.2,35.6,170.7,35.5,174.2,38.9L174.2,38.9z"/>
</g>
</svg>
