<svg xmlns="http://www.w3.org/2000/svg" viewBox="0 0 491.17 288.11"><defs><style>.cls-1{fill:#d8dfe6;}.cls-2,.cls-8{fill:#208ccb;}.cls-3,.cls-4,.cls-6{fill:none;}.cls-3,.cls-5,.cls-7,.cls-8{stroke:#000;}.cls-3,.cls-4,.cls-5,.cls-6,.cls-8{stroke-linecap:round;}.cls-3,.cls-5,.cls-8{stroke-linejoin:round;}.cls-3,.cls-4,.cls-5,.cls-6,.cls-7,.cls-8{stroke-width:5px;}.cls-4{stroke:#fff;}.cls-4,.cls-6,.cls-7{stroke-miterlimit:10;}.cls-5{fill:#fff;}.cls-6{stroke:#226399;}.cls-7{fill:#eccd1a;}</style></defs><title>Asset 8</title><g id="Layer_2" data-name="Layer 2"><g id="Layer_1-2" data-name="Layer 1"><path class="cls-1" d="M41.52,288.11H459.91a31.26,31.26,0,0,0,31.26-31.27h0a31.26,31.26,0,0,0-31.26-31.26H414.63a31.26,31.26,0,0,1-31.26-31h0a31.27,31.27,0,0,1,31.26-31.54h35a31.27,31.27,0,0,0,31.26-31.26h0a31.26,31.26,0,0,0-31.26-31.26H31.26A31.26,31.26,0,0,0,0,131.79H0a31.26,31.26,0,0,0,31.26,31.26H66.09a31.26,31.26,0,0,1,31.26,31h0a31.26,31.26,0,0,1-31.26,31.54H41.52a31.25,31.25,0,0,0-31.26,31.27h0A31.26,31.26,0,0,0,41.52,288.11ZM299.05,163.05a31.26,31.26,0,0,1,31.26,31.27h0a31.26,31.26,0,0,1-31.26,31.26H171.22A31.27,31.27,0,0,1,140,194.32h0a31.27,31.27,0,0,1,31.27-31.27Z"/><path class="cls-2" d="M136.67,2.5H426.87a10,10,0,0,1,10,10V232.79a0,0,0,0,1,0,0H126.67a0,0,0,0,1,0,0V12.5a10,10,0,0,1,10-10Z"/><path class="cls-3" d="M136.67,2.5H426.87a10,10,0,0,1,10,10V232.79a0,0,0,0,1,0,0H126.67a0,0,0,0,1,0,0V12.5a10,10,0,0,1,10-10Z"/><line class="cls-4" x1="420.52" y1="36.9" x2="420.52" y2="75.31"/><rect class="cls-5" x="85.95" y="224.12" width="391.63" height="26.11" rx="13.05" ry="13.05"/><rect class="cls-5" x="157.63" y="150.32" width="92.7" height="46.35"/><line class="cls-6" x1="267.49" y1="62.16" x2="395.63" y2="62.16"/><line class="cls-6" x1="267.49" y1="40.6" x2="395.63" y2="40.6"/><circle class="cls-7" cx="201.61" cy="77.61" r="43.98"/><line class="cls-4" x1="420.53" y1="86.93" x2="420.52" y2="86.93"/><path class="cls-5" d="M367.35,100.08h-52a14.46,14.46,0,0,0-14.46,14.46V261.9a14.46,14.46,0,0,0,14.46,14.46h64.6A14.46,14.46,0,0,0,394.4,261.9V114.54a14.46,14.46,0,0,0-14.46-14.46Z"/><path class="cls-8" d="M367.35,100.08v8.74a3.64,3.64,0,0,1-3.64,3.64H331.57a3.64,3.64,0,0,1-3.64-3.64v-8.74H315.34a14.46,14.46,0,0,0-14.46,14.46V261.9a14.46,14.46,0,0,0,14.46,14.46h64.6A14.46,14.46,0,0,0,394.4,261.9V114.54a14.46,14.46,0,0,0-14.46-14.46Z"/><line class="cls-4" x1="380.57" y1="140.85" x2="380.38" y2="117.64"/><line class="cls-4" x1="380.57" y1="152.47" x2="380.59" y2="152.47"/><circle class="cls-7" cx="347.64" cy="187.82" r="30.42"/><line class="cls-6" x1="326.21" y1="235.77" x2="369.08" y2="235.77"/><line class="cls-6" x1="326.21" y1="252.37" x2="369.08" y2="252.37"/></g></g></svg>