<?xml version="1.0" encoding="utf-8"?>
<!-- Generator: Adobe Illustrator 22.0.1, SVG Export Plug-In . SVG Version: 6.00 Build 0)  -->
<svg version="1.1" id="Layer_1" xmlns="http://www.w3.org/2000/svg" xmlns:xlink="http://www.w3.org/1999/xlink" x="0px" y="0px"
	 viewBox="0 0 219 212" style="enable-background:new 0 0 219 212;" xml:space="preserve">
<style type="text/css">
	.st0{fill:#208CCB;stroke:#000000;stroke-width:4;stroke-linecap:round;stroke-linejoin:round;}
	.st1{fill:#FFFFFF;stroke:#000000;stroke-width:4;stroke-linecap:round;stroke-linejoin:round;}
	.st2{fill:none;stroke:#FFFFFF;stroke-width:4;stroke-linecap:round;stroke-linejoin:round;}
	.st3{fill:none;stroke:#226399;stroke-width:4;stroke-linecap:round;stroke-miterlimit:10;}
	.st4{fill:#ECCD1A;stroke:#000000;stroke-width:4;stroke-linecap:round;stroke-linejoin:round;}
</style>
<title>Asset 17</title>
<g>
	<path class="st0" d="M50,67h127l0,0v87c0,5.5-4.5,10-10,10H60c-5.5,0-10-4.5-10-10V67L50,67z"/>
	<path class="st1" d="M60,52h107c5.5,0,10,4.5,10,10v7l0,0H50l0,0v-7C50,56.5,54.5,52,60,52z"/>
	<line class="st2" x1="167" y1="149" x2="167" y2="132"/>
	<line class="st2" x1="167.2" y1="122.5" x2="167.2" y2="122.5"/>
	<line class="st3" x1="113" y1="84" x2="155" y2="84"/>
	<line class="st3" x1="113" y1="95" x2="155" y2="95"/>
	<line class="st3" x1="113" y1="106" x2="155" y2="106"/>
	<path class="st1" d="M83.9,84l-12.2,21c-0.7,1.3-0.3,2.9,1,3.6c0.4,0.2,0.9,0.4,1.3,0.4h24.3c1.5,0,2.7-1.2,2.7-2.7
		c0-0.5-0.1-0.9-0.4-1.3L88.5,84c-0.7-1.3-2.4-1.7-3.6-1C84.5,83.3,84.2,83.6,83.9,84z"/>
	<line class="st3" x1="113" y1="125" x2="155" y2="125"/>
	<line class="st3" x1="113" y1="136" x2="155" y2="136"/>
	<line class="st3" x1="113" y1="147" x2="155" y2="147"/>
	<circle class="st4" cx="86" cy="136" r="14"/>
</g>
</svg>
