<svg xmlns="http://www.w3.org/2000/svg" viewBox="0 0 155.33 127.44"><defs><style>.cls-1{fill:#208ccb;}.cls-2{fill:#fff;}.cls-3{fill:#eccd1a;}</style></defs><title>Asset 54</title><g id="Layer_2" data-name="Layer 2"><g id="Layer_2-2" data-name="Layer 2"><path class="cls-1" d="M108.67,20.52H26.91a10,10,0,0,0-10,10v86.26H131.76V58.17Z"/><path d="M131.76,118.78H16.91a2,2,0,0,1-2-2V30.52a12,12,0,0,1,12-12h81.76a2,2,0,0,1,1.7.95l23.09,37.65a2,2,0,0,1,.3,1.05v58.61A2,2,0,0,1,131.76,118.78Zm-112.85-4H129.76v-56L107.55,22.52H26.91a8,8,0,0,0-8,8Z"/><rect class="cls-2" x="2" y="110.63" width="145" height="14.8" rx="6.93" ry="6.93"/><path d="M140.07,127.44H8.93A9,9,0,0,1,0,118.5v-.94a9,9,0,0,1,8.93-8.93H140.07a9,9,0,0,1,8.93,8.93v.94A9,9,0,0,1,140.07,127.44ZM8.93,112.63A4.94,4.94,0,0,0,4,117.56v.94a4.94,4.94,0,0,0,4.93,4.94H140.07A4.94,4.94,0,0,0,145,118.5v-.94a4.94,4.94,0,0,0-4.93-4.93Z"/><rect class="cls-1" x="65.17" y="72.2" width="21.22" height="33.83" rx="8.85" ry="8.85" transform="translate(-35.9 54.3) rotate(-32.31)"/><path d="M78.65,107.72a11.17,11.17,0,0,1-2.43-.27,10.82,10.82,0,0,1-6.79-4.78L60.81,89a10.87,10.87,0,0,1,3.38-15l3-1.88a10.86,10.86,0,0,1,15,3.37l8.62,13.63a10.87,10.87,0,0,1-3.37,15h0l-3,1.87A10.73,10.73,0,0,1,78.65,107.72ZM73,74.51a6.78,6.78,0,0,0-3.65,1.06l-3,1.88A6.85,6.85,0,0,0,64.2,86.9l8.61,13.63a6.86,6.86,0,0,0,9.46,2.13l3-1.88h0a6.88,6.88,0,0,0,2.13-9.45L78.75,77.7A6.85,6.85,0,0,0,73,74.51Z"/><circle class="cls-2" cx="50.82" cy="81.65" r="11.2"/><path d="M50.85,94.85a13.36,13.36,0,0,1-2.93-.33A13.19,13.19,0,1,1,62,74.6h0A13.21,13.21,0,0,1,50.85,94.85Zm0-22.39a9.19,9.19,0,1,0,7.78,4.27h0A9.18,9.18,0,0,0,50.81,72.46Z"/><path class="cls-3" d="M61.57,55.36H81.72a0,0,0,0,1,0,0V88.14a0,0,0,0,1,0,0H61.57A13.68,13.68,0,0,1,47.89,74.47V69A13.68,13.68,0,0,1,61.57,55.36Z" transform="translate(-28.32 45.74) rotate(-32.31)"/><path d="M63.55,91.45a15.67,15.67,0,0,1-13.28-7.3l-2.9-4.59a15.69,15.69,0,0,1,4.87-21.63L71,46.1,90.62,77.19,71.9,89A15.57,15.57,0,0,1,63.55,91.45Zm6.17-39.83-15.34,9.7a11.68,11.68,0,0,0-3.63,16.11L53.65,82a11.7,11.7,0,0,0,16.11,3.63L85.1,76Z"/><polygon class="cls-1" points="142.72 70.26 87.56 76.76 70.04 49.05 99.56 2 142.72 70.26"/><path d="M87.56,78.76a2,2,0,0,1-1.69-.93L68.35,50.12a2,2,0,0,1,0-2.13L97.86.94A2,2,0,0,1,99.55,0h0a2,2,0,0,1,1.7.93l43.16,68.26A2,2,0,0,1,143,72.25L87.79,78.74ZM72.4,49,88.58,74.62l50.75-6L99.56,5.75Z"/><path class="cls-2" d="M55,70.63a2,2,0,0,1-1.67-.9A2,2,0,0,1,53.88,67l12.6-8.27A2,2,0,1,1,68.67,62L56.08,70.31A2,2,0,0,1,55,70.63Z"/><path class="cls-2" d="M82.79,47.55a2,2,0,0,1-1.06-.3,2,2,0,0,1-.64-2.75L94.88,22.39a2,2,0,0,1,3.4,2.12L84.49,46.61A2,2,0,0,1,82.79,47.55Z"/><path class="cls-2" d="M130,30.31a2,2,0,0,1-1.06-3.7L152.27,11.9a2,2,0,1,1,2.13,3.38L131,30A2,2,0,0,1,130,30.31Z"/><path class="cls-2" d="M121.53,21a2,2,0,0,1-.92-.22,2,2,0,0,1-.86-2.69l6.78-13.22a2,2,0,1,1,3.55,1.83l-6.77,13.21A2,2,0,0,1,121.53,21Z"/><path class="cls-2" d="M135.08,42a2,2,0,0,1-.09-4l14.83-.7a2,2,0,0,1,2.09,1.91,2,2,0,0,1-1.9,2.09L135.18,42Z"/></g></g></svg>