<svg xmlns="http://www.w3.org/2000/svg" viewBox="0 0 94.5 134.59"><defs><style>.cls-1{fill:#208ccb;}.cls-2{fill:#fff;}.cls-3{fill:#226399;}</style></defs><title>Asset 50</title><g id="Layer_2" data-name="Layer 2"><g id="Layer_2-2" data-name="Layer 2"><rect class="cls-1" x="2" y="8.58" width="90.5" height="124" rx="10" ry="10"/><path d="M82.5,134.59H12a12,12,0,0,1-12-12v-104a12,12,0,0,1,12-12H82.5a12,12,0,0,1,12,12v104A12,12,0,0,1,82.5,134.59ZM12,10.58a8,8,0,0,0-8,8v104a8,8,0,0,0,8,8H82.5a8,8,0,0,0,8-8v-104a8,8,0,0,0-8-8Z"/><rect class="cls-2" x="23.33" y="2" width="49" height="13.12"/><path d="M72.33,17.12h-49a2,2,0,0,1-2-2V2a2,2,0,0,1,2-2h49a2,2,0,0,1,2,2V15.12A2,2,0,0,1,72.33,17.12Zm-47-4h45V4h-45Z"/><path class="cls-3" d="M80.29,46.59H56.14a2,2,0,0,1,0-4H80.29a2,2,0,0,1,0,4Z"/><path class="cls-3" d="M80.29,56.59H56.14a2,2,0,0,1,0-4H80.29a2,2,0,0,1,0,4Z"/><path class="cls-3" d="M66,66.59H56.14a2,2,0,0,1,0-4H66a2,2,0,0,1,0,4Z"/><path class="cls-3" d="M80.29,86.59H56.14a2,2,0,0,1,0-4H80.29a2,2,0,0,1,0,4Z"/><path class="cls-3" d="M80.29,96.59H56.14a2,2,0,0,1,0-4H80.29a2,2,0,0,1,0,4Z"/><path class="cls-3" d="M63.08,106.59H56.14a2,2,0,0,1,0-4h6.94a2,2,0,1,1,0,4Z"/><polygon class="cls-2" points="44.3 41.95 39.66 37.31 24.38 52.59 18.85 47.06 14.21 51.7 24.38 61.87 24.38 61.87 24.38 61.87 44.3 41.95"/><path d="M39.66,37.31,44.3,42,24.38,61.87h0L14.21,51.71l4.64-4.65,5.53,5.53L39.66,37.31m0-4a4,4,0,0,0-2.83,1.17L24.38,46.93l-2.7-2.7a4,4,0,0,0-5.66,0l-4.64,4.65a4,4,0,0,0,0,5.65L21.55,64.7a4,4,0,0,0,2.83,1.17,4,4,0,0,0,2.83-1.17L47.13,44.78a4,4,0,0,0,0-5.66l-4.64-4.64a4,4,0,0,0-2.83-1.17Z"/><polygon class="cls-2" points="44.3 84.67 39.66 80.03 24.38 95.31 18.85 89.78 14.21 94.43 24.38 104.59 24.38 104.59 24.38 104.59 44.3 84.67"/><path d="M39.66,80l4.64,4.64L24.38,104.59h0L14.21,94.43l4.64-4.65,5.53,5.53L39.66,80m0-4a4,4,0,0,0-2.83,1.17L24.38,89.65,21.68,87A4,4,0,0,0,16,87L11.38,91.6a4,4,0,0,0,0,5.65l10.17,10.17a4,4,0,0,0,2.83,1.17,4,4,0,0,0,2.83-1.17L47.13,87.5a4,4,0,0,0,0-5.66L42.49,77.2A4,4,0,0,0,39.66,76Z"/><path class="cls-2" d="M63.08,124.82H42a2,2,0,0,1,0-4H63.08a2,2,0,0,1,0,4Z"/><path class="cls-2" d="M70.21,124.82a2,2,0,0,1-2-2,2.58,2.58,0,0,1,0-.39,2.78,2.78,0,0,1,.12-.38,2.21,2.21,0,0,1,.18-.34,2.48,2.48,0,0,1,.25-.3,2.06,2.06,0,0,1,2.83,0,2.48,2.48,0,0,1,.25.3,2.21,2.21,0,0,1,.18.34,2.78,2.78,0,0,1,.12.38,1.92,1.92,0,0,1,0,.78,2.4,2.4,0,0,1-.12.38,2.79,2.79,0,0,1-.18.34,1.81,1.81,0,0,1-.25.3A2,2,0,0,1,70.21,124.82Z"/></g></g></svg>