<svg xmlns="http://www.w3.org/2000/svg" viewBox="0 0 149.48 149.48"><defs><style>.cls-1{fill:#208ccb;}.cls-2{fill:#fff;}</style></defs><title>Asset 51</title><g id="Layer_2" data-name="Layer 2"><g id="Layer_2-2" data-name="Layer 2"><path class="cls-1" d="M125.74,32.09h0a9.49,9.49,0,0,1-10.63-1.45c-.7-.64-1.42-1.26-2.14-1.86a9.51,9.51,0,0,1-2.91-10.36h0A9.56,9.56,0,0,0,104,6.3L92.76,2.51a9.55,9.55,0,0,0-12.11,6h0A9.54,9.54,0,0,1,72.07,15c-.95,0-1.89.1-2.83.19a9.52,9.52,0,0,1-9.36-5.27h0A9.55,9.55,0,0,0,47.07,5.63L36.4,10.92a9.56,9.56,0,0,0-4.31,12.82h0a9.52,9.52,0,0,1-1.45,10.64q-1,1-1.86,2.13a9.51,9.51,0,0,1-10.37,2.91h0a9.56,9.56,0,0,0-12.11,6L2.5,56.72a9.56,9.56,0,0,0,6,12.11h0A9.54,9.54,0,0,1,15,77.42c0,.94.1,1.88.19,2.82A9.52,9.52,0,0,1,9.94,89.6h0a9.56,9.56,0,0,0-4.31,12.81l5.29,10.67a9.56,9.56,0,0,0,12.82,4.31h0a9.51,9.51,0,0,1,10.64,1.46c.69.63,1.41,1.25,2.13,1.86a9.49,9.49,0,0,1,2.91,10.36h0a9.56,9.56,0,0,0,6,12.11L56.72,147a9.56,9.56,0,0,0,12.11-6h0a9.53,9.53,0,0,1,8.59-6.49c.94,0,1.88-.11,2.82-.19a9.51,9.51,0,0,1,9.36,5.27h0a9.55,9.55,0,0,0,12.81,4.31l10.67-5.3a9.55,9.55,0,0,0,4.31-12.81h0a9.5,9.5,0,0,1,1.46-10.64c.63-.7,1.25-1.41,1.86-2.14a9.52,9.52,0,0,1,10.36-2.91h0a9.57,9.57,0,0,0,12.11-6L147,92.76a9.56,9.56,0,0,0-6-12.11h0a9.52,9.52,0,0,1-6.49-8.58c-.05-.95-.11-1.89-.2-2.83a9.55,9.55,0,0,1,5.27-9.36h0a9.56,9.56,0,0,0,4.32-12.81l-5.3-10.67A9.56,9.56,0,0,0,125.74,32.09Z"/><path d="M59.78,149.48a11.52,11.52,0,0,1-3.7-.61L44.8,145.08a11.56,11.56,0,0,1-7.27-14.65,7.55,7.55,0,0,0-2.3-8.18c-.75-.63-1.49-1.28-2.2-1.93a7.56,7.56,0,0,0-8.4-1.14A11.57,11.57,0,0,1,9.13,114L3.83,103.3A11.56,11.56,0,0,1,9.05,87.81a7.57,7.57,0,0,0,4.17-7.38c-.09-1-.16-2-.2-2.93a7.57,7.57,0,0,0-5.14-6.77A11.56,11.56,0,0,1,.61,56.08L4.41,44.8A11.57,11.57,0,0,1,19,37.52h0a7.58,7.58,0,0,0,8.19-2.29c.61-.75,1.26-1.49,1.92-2.21a7.54,7.54,0,0,0,1.14-8.4,11.58,11.58,0,0,1,5.21-15.5l10.67-5.3A11.55,11.55,0,0,1,61.67,9.05a7.58,7.58,0,0,0,7.39,4.17c1-.09,2-.16,2.92-.2a7.57,7.57,0,0,0,6.76-5.11v0A11.56,11.56,0,0,1,93.4.61l11.28,3.8A11.55,11.55,0,0,1,112,19.05a7.57,7.57,0,0,0,2.3,8.19c.74.61,1.48,1.26,2.2,1.92a7.55,7.55,0,0,0,8.41,1.14h0a11.57,11.57,0,0,1,15.49,5.21l5.3,10.67a11.55,11.55,0,0,1-5.22,15.49,7.56,7.56,0,0,0-4.16,7.39c.08,1,.15,1.94.19,2.92a7.57,7.57,0,0,0,5.14,6.77,11.56,11.56,0,0,1,7.27,14.65l-3.79,11.28A11.58,11.58,0,0,1,130.43,112l0,0a7.56,7.56,0,0,0-8.15,2.31c-.62.75-1.27,1.5-1.92,2.21a7.54,7.54,0,0,0-1.14,8.4A11.57,11.57,0,0,1,114,140.35l-10.67,5.3a11.57,11.57,0,0,1-15.49-5.21,7.55,7.55,0,0,0-7.39-4.17c-1,.09-1.94.15-2.92.19a7.57,7.57,0,0,0-6.77,5.14l0,.06a11.58,11.58,0,0,1-10.93,7.82ZM28,114.4a11.51,11.51,0,0,1,7.75,3c.67.62,1.36,1.22,2.06,1.8a11.59,11.59,0,0,1,3.53,12.54,7.57,7.57,0,0,0,4.75,9.58l11.29,3.79a7.57,7.57,0,0,0,9.58-4.75.19.19,0,0,1,0-.07,11.58,11.58,0,0,1,10.37-7.79c.91,0,1.83-.1,2.73-.19a11.59,11.59,0,0,1,11.33,6.38,7.57,7.57,0,0,0,10.13,3.41l10.67-5.3a7.57,7.57,0,0,0,3.41-10.13,11.56,11.56,0,0,1,1.77-12.88q.91-1,1.8-2.07a11.58,11.58,0,0,1,12.53-3.53l.05,0a7.58,7.58,0,0,0,9.54-4.77l3.79-11.29a7.47,7.47,0,0,0-.39-5.77,7.55,7.55,0,0,0-4.36-3.81,11.56,11.56,0,0,1-7.86-10.39c0-.91-.1-1.83-.19-2.73a11.58,11.58,0,0,1,6.38-11.33A7.57,7.57,0,0,0,142.07,48l-5.3-10.67a7.5,7.5,0,0,0-4.36-3.8,7.58,7.58,0,0,0-5.78.39,11.54,11.54,0,0,1-12.87-1.77c-.68-.61-1.37-1.22-2.07-1.79a11.6,11.6,0,0,1-3.53-12.54,7.57,7.57,0,0,0-4.75-9.58L92.12,4.4a7.58,7.58,0,0,0-9.57,4.73v0A11.57,11.57,0,0,1,72.15,17c-.9,0-1.82.11-2.73.19a11.58,11.58,0,0,1-11.33-6.37A7.54,7.54,0,0,0,48,7.42L37.29,12.71a7.58,7.58,0,0,0-3.41,10.14,11.56,11.56,0,0,1-1.77,12.88c-.62.67-1.22,1.36-1.79,2.06a11.61,11.61,0,0,1-12.51,3.54h0A7.54,7.54,0,0,0,8.2,46.08L4.4,57.36a7.57,7.57,0,0,0,4.76,9.58A11.57,11.57,0,0,1,17,77.33c0,.91.11,1.83.19,2.73a11.56,11.56,0,0,1-6.37,11.33,7.55,7.55,0,0,0-3.41,10.14l5.29,10.66a7.57,7.57,0,0,0,10.14,3.41A11.46,11.46,0,0,1,28,114.4Z"/><circle class="cls-2" cx="74.74" cy="75.6" r="32.22"/><path d="M74.74,109.82A34.22,34.22,0,1,1,109,75.6,34.26,34.26,0,0,1,74.74,109.82Zm0-64.44A30.22,30.22,0,1,0,105,75.6,30.25,30.25,0,0,0,74.74,45.38Z"/><path class="cls-2" d="M52.52,75.6A22.22,22.22,0,0,1,97,75.6"/><path d="M97,77.6a2,2,0,0,1-2-2,20.22,20.22,0,0,0-40.44,0,2,2,0,0,1-4,0A24.22,24.22,0,0,1,99,75.6,2,2,0,0,1,97,77.6Z"/><path class="cls-2" d="M117.17,73.28a2.2,2.2,0,0,1-.77-.15,2.21,2.21,0,0,1-.34-.18,2.42,2.42,0,0,1-.31-.25,2.16,2.16,0,0,1-.43-.65,2,2,0,0,1-.15-.77,2,2,0,0,1,.58-1.41,2.07,2.07,0,0,1,2.83,0,1.81,1.81,0,0,1,.25.3,2.37,2.37,0,0,1,.19.35,2.26,2.26,0,0,1,.11.37,1.72,1.72,0,0,1,0,.39,2,2,0,0,1-.15.77,2,2,0,0,1-.44.65,2,2,0,0,1-.65.43A2,2,0,0,1,117.17,73.28Z"/><path class="cls-2" d="M115.05,62.68a2,2,0,0,1-1.84-1.21A39,39,0,0,0,95.46,42.33a2,2,0,0,1,1.85-3.55,43.09,43.09,0,0,1,19.58,21.11,2,2,0,0,1-1.84,2.79Z"/><path class="cls-1" d="M75,80.85a4.18,4.18,0,0,1-5.63-6.19c1.71-1.55,12.15-5.41,12.15-5.41S76.69,79.29,75,80.85Z"/><path d="M81.5,69.25s-4.81,10-6.52,11.6a4.18,4.18,0,0,1-5.63-6.19c1.71-1.55,12.15-5.41,12.15-5.41m0-4a4.15,4.15,0,0,0-1.38.25C75,67.38,68.54,70,66.65,71.7a8.19,8.19,0,0,0,11,12.11c1.89-1.72,5.09-7.92,7.44-12.83a4,4,0,0,0-3.61-5.73Zm0,8h0Z"/></g></g></svg>