<svg xmlns="http://www.w3.org/2000/svg" viewBox="0 0 142.54 131.1"><defs><style>.cls-1{fill:#208ccb;}.cls-2{fill:#eccd1a;}.cls-3{fill:#fff;}.cls-4{fill:#226399;}</style></defs><title>Asset 52</title><g id="Layer_2" data-name="Layer 2"><g id="Layer_2-2" data-name="Layer 2"><rect class="cls-1" x="2" y="2" width="101.8" height="94.27"/><path d="M103.8,98.27H2a2,2,0,0,1-2-2V2A2,2,0,0,1,2,0H103.8a2,2,0,0,1,2,2V96.27A2,2,0,0,1,103.8,98.27ZM4,94.27h97.8V4H4Z"/><rect class="cls-2" x="18.69" y="32.9" width="68.42" height="23.33"/><path d="M87.11,58.23H18.69a2,2,0,0,1-2-2V32.9a2,2,0,0,1,2-2H87.11a2,2,0,0,1,2,2V56.23A2,2,0,0,1,87.11,58.23Zm-66.42-4H85.11V34.9H20.69Z"/><rect class="cls-3" x="2" y="2" width="101.8" height="16.52"/><path d="M103.8,20.52H2a2,2,0,0,1-2-2V2A2,2,0,0,1,2,0H103.8a2,2,0,0,1,2,2V18.52A2,2,0,0,1,103.8,20.52ZM4,16.52h97.8V4H4Z"/><path class="cls-4" d="M50.6,69.94H18.69a2,2,0,1,1,0-4H50.6a2,2,0,0,1,0,4Z"/><path class="cls-4" d="M44.4,81.27H18.69a2,2,0,1,1,0-4H44.4a2,2,0,0,1,0,4Z"/><rect class="cls-3" x="105.17" y="66.79" width="16.32" height="70.22" rx="8.16" ry="8.16" transform="translate(-38.86 109.98) rotate(-45)"/><path d="M132.38,131.1a10,10,0,0,1-7.18-3L87.09,90a10.15,10.15,0,0,1,7.19-17.34,10.08,10.08,0,0,1,7.18,3l38.11,38.11a10.18,10.18,0,0,1,0,14.37A10.05,10.05,0,0,1,132.38,131.1ZM94.28,76.69A6.15,6.15,0,0,0,89.92,87.2L128,125.3a6.17,6.17,0,0,0,8.71,0,6.17,6.17,0,0,0,0-8.71L98.63,78.48A6.12,6.12,0,0,0,94.28,76.69Z"/><circle class="cls-1" cx="90.24" cy="76.97" r="30.95"/><path d="M90.26,109.92l-1,0a32.95,32.95,0,1,1,25-55.51h0a32.95,32.95,0,0,1-24,55.53ZM90.21,48a28.94,28.94,0,1,0,21.11,9.11h0A28.78,28.78,0,0,0,91.12,48Z"/><path class="cls-3" d="M112.41,83.64a2,2,0,0,1-1.92-2.54,19.08,19.08,0,0,0,.24-9.26,18.74,18.74,0,0,0-3.86-7.93A2,2,0,0,1,110,61.36a22.74,22.74,0,0,1,4.67,9.6,23.06,23.06,0,0,1-.29,11.23A2,2,0,0,1,112.41,83.64Z"/><path class="cls-3" d="M108.85,90.66a2,2,0,0,1-1.42-3.41,1.81,1.81,0,0,1,.3-.25,2.31,2.31,0,0,1,.35-.18,2.65,2.65,0,0,1,.37-.12,2,2,0,0,1,.78,0,2.4,2.4,0,0,1,.38.12A2.21,2.21,0,0,1,110,87a1.89,1.89,0,0,1,.31.25,2,2,0,0,1,.59,1.41,2.08,2.08,0,0,1-.59,1.42,2.6,2.6,0,0,1-.31.25,1.83,1.83,0,0,1-.34.18,2.09,2.09,0,0,1-.76.15Z"/><path d="M90.16,94.59a2,2,0,0,1-2-2V66.26a2,2,0,0,1,4,0V92.59A2,2,0,0,1,90.16,94.59Z"/><polygon class="cls-2" points="90.06 59.98 77.92 77.77 90.16 77.77 102.41 77.77 90.06 59.98"/><path d="M102.41,79.77H77.92a2,2,0,0,1-1.65-3.12L88.4,58.85A2,2,0,0,1,90.05,58a2.13,2.13,0,0,1,1.65.85l12.35,17.8a2,2,0,0,1-1.64,3.14Zm-20.71-4H98.59L90.07,63.5Z"/></g></g></svg>