<svg xmlns="http://www.w3.org/2000/svg" viewBox="0 0 118.83 143.35"><defs><style>.cls-1{fill:#fff;}.cls-2{fill:#208ccb;}.cls-3{fill:#eccd1a;}</style></defs><title>Asset 53</title><g id="Layer_2" data-name="Layer 2"><g id="Layer_2-2" data-name="Layer 2"><rect class="cls-1" x="2" y="2" width="73.93" height="139.35" rx="20.67" ry="20.67"/><path d="M55.27,143.35H22.67A22.7,22.7,0,0,1,0,120.68v-98A22.7,22.7,0,0,1,22.67,0h32.6A22.69,22.69,0,0,1,77.93,22.67v98A22.69,22.69,0,0,1,55.27,143.35ZM22.67,4A18.69,18.69,0,0,0,4,22.67v98a18.7,18.7,0,0,0,18.67,18.67h32.6a18.69,18.69,0,0,0,18.66-18.67v-98A18.68,18.68,0,0,0,55.27,4Z"/><path class="cls-2" d="M54.55,2V9.91a2.87,2.87,0,0,1-2.88,2.87H26.27a2.87,2.87,0,0,1-2.88-2.87V2h-10A11.43,11.43,0,0,0,2,13.43V129.91a11.44,11.44,0,0,0,11.43,11.44H64.5a11.43,11.43,0,0,0,11.43-11.44V13.43A11.43,11.43,0,0,0,64.5,2Z"/><path d="M64.5,143.35H13.43A13.45,13.45,0,0,1,0,129.91V13.43A13.45,13.45,0,0,1,13.43,0h10a2,2,0,0,1,2,2V9.91a.87.87,0,0,0,.88.87h25.4a.88.88,0,0,0,.88-.87V2a2,2,0,0,1,2-2h10A13.45,13.45,0,0,1,77.93,13.43V129.91A13.45,13.45,0,0,1,64.5,143.35ZM13.43,4A9.44,9.44,0,0,0,4,13.43V129.91a9.45,9.45,0,0,0,9.43,9.44H64.5a9.45,9.45,0,0,0,9.43-9.44V13.43A9.44,9.44,0,0,0,64.5,4h-8V9.91a4.88,4.88,0,0,1-4.88,4.87H26.27a4.88,4.88,0,0,1-4.88-4.87V4Z"/><path class="cls-1" d="M13.62,121.64a2,2,0,0,1-2-2V91.88a2,2,0,0,1,4,0v27.76A2,2,0,0,1,13.62,121.64Z"/><path class="cls-1" d="M13.61,128.88a2,2,0,0,1-1.41-.59A1.81,1.81,0,0,1,12,128a2.21,2.21,0,0,1-.18-.34,2.4,2.4,0,0,1-.12-.38,2.45,2.45,0,0,1,0-.39,2.58,2.58,0,0,1,0-.39,2.29,2.29,0,0,1,.12-.37,2.31,2.31,0,0,1,.18-.35,1.81,1.81,0,0,1,.25-.3,1.42,1.42,0,0,1,.3-.25,2.37,2.37,0,0,1,.35-.19,2.59,2.59,0,0,1,.37-.11,2,2,0,0,1,.78,0,2.38,2.38,0,0,1,.38.11,2.27,2.27,0,0,1,.34.19,1.79,1.79,0,0,1,.31.25,2.48,2.48,0,0,1,.25.3,2.31,2.31,0,0,1,.18.35,2.29,2.29,0,0,1,.12.37,2.58,2.58,0,0,1,0,.39,2,2,0,0,1-.59,1.41A2,2,0,0,1,13.61,128.88Z"/><path class="cls-3" d="M109.07,95.4H66.29L54.11,106.31V95.4H47.42a7.79,7.79,0,0,1-7.77-7.76v-38a7.79,7.79,0,0,1,7.77-7.76h61.65a7.78,7.78,0,0,1,7.76,7.76v38A7.78,7.78,0,0,1,109.07,95.4Z"/><path d="M54.11,108.31a2.11,2.11,0,0,1-.82-.17,2,2,0,0,1-1.18-1.83V97.4H47.42a9.78,9.78,0,0,1-9.77-9.76v-38a9.78,9.78,0,0,1,9.77-9.76h61.65a9.77,9.77,0,0,1,9.76,9.76v38a9.77,9.77,0,0,1-9.76,9.76h-42L55.44,107.8A2,2,0,0,1,54.11,108.31ZM47.42,43.89a5.77,5.77,0,0,0-5.77,5.76v38a5.77,5.77,0,0,0,5.77,5.76h6.69a2,2,0,0,1,2,2v6.43L65,93.91a2,2,0,0,1,1.33-.51h42.78a5.76,5.76,0,0,0,5.76-5.76v-38a5.76,5.76,0,0,0-5.76-5.76Z"/><path class="cls-1" d="M94.29,68a1.89,1.89,0,0,0-1.78-1.26H84.43a24.6,24.6,0,0,1,1.41-3.25c1.44-3,2.93-6.06,1.91-7.7a2.25,2.25,0,0,0-2.06-1H84.55c-1,0-2.67,0-3.5,1.66A44.24,44.24,0,0,1,73.17,67a.91.91,0,0,0-.26.62V82.12H89.1c3.16,0,5.57-7.86,5.57-11.79A5.81,5.81,0,0,0,94.29,68Z"/><path d="M84.55,54.85h1.14a2.25,2.25,0,0,1,2.06,1c1,1.64-.47,4.72-1.91,7.7a24.6,24.6,0,0,0-1.41,3.25h8.08A1.89,1.89,0,0,1,94.29,68a5.81,5.81,0,0,1,.38,2.29c0,3.93-2.41,11.78-5.57,11.78H72.91V67.63a.91.91,0,0,1,.26-.62,44.24,44.24,0,0,0,7.88-10.5c.83-1.66,2.5-1.66,3.5-1.66m0-4c-3.41,0-5.79,1.3-7.08,3.87a40.63,40.63,0,0,1-7.06,9.4h0a4.91,4.91,0,0,0-1.49,3.5V82.11a4,4,0,0,0,4,4H89.1c6.82,0,9.57-11.13,9.57-15.78a9.49,9.49,0,0,0-.73-3.92,5.91,5.91,0,0,0-5.43-3.63h-1.9c1.35-3.09,2.25-6.32.53-9.07a6.25,6.25,0,0,0-5.45-2.85H84.55Z"/><path class="cls-2" d="M62.53,67.34a.84.84,0,0,0-.85.82V81.29a.84.84,0,0,0,.85.83h6V67.34Z"/><path d="M68.5,67.34V82.11h-6a.83.83,0,0,1-.85-.82V68.17a.84.84,0,0,1,.85-.83h6m4-4h-10a4.85,4.85,0,0,0-4.85,4.83V81.29a4.84,4.84,0,0,0,4.85,4.82h10V63.34Z"/></g></g></svg>