<svg xmlns="http://www.w3.org/2000/svg" viewBox="0 0 129.67 137.92"><defs><style>.cls-1{fill:#fff;}.cls-2{fill:#208ccb;}</style></defs><title>Asset 49</title><g id="Layer_2" data-name="Layer 2"><g id="Layer_2-2" data-name="Layer 2"><line class="cls-1" x1="2" y1="98.16" x2="127.67" y2="98.16"/><path d="M127.67,100.16H2a2,2,0,0,1,0-4H127.67a2,2,0,0,1,0,4Z"/><rect class="cls-2" x="12.88" y="13.47" width="103.9" height="84.69"/><path d="M116.78,100.16H12.88a2,2,0,0,1-2-2V13.47a2,2,0,0,1,2-2h103.9a2,2,0,0,1,2,2V98.16A2,2,0,0,1,116.78,100.16Zm-101.9-4h99.9V15.47H14.88Z"/><path class="cls-1" d="M106.53,83.38a2,2,0,0,1-2-2V54a2,2,0,1,1,4,0v27.4A2,2,0,0,1,106.53,83.38Z"/><path class="cls-1" d="M106.53,90.51a2,2,0,0,1-.77-.15,2.16,2.16,0,0,1-.65-.43,2,2,0,0,1-.58-1.42,1.72,1.72,0,0,1,0-.39,1.58,1.58,0,0,1,.11-.37,1.7,1.7,0,0,1,.19-.35,1.76,1.76,0,0,1,.24-.3,2.42,2.42,0,0,1,.31-.25,2.27,2.27,0,0,1,.34-.19,2.38,2.38,0,0,1,.38-.11,2,2,0,0,1,1.8.55,1.81,1.81,0,0,1,.25.3,2.31,2.31,0,0,1,.18.35,2.29,2.29,0,0,1,.12.37,2.58,2.58,0,0,1,0,.39,2,2,0,0,1-2,2Z"/><rect class="cls-1" x="2" y="2" width="125.67" height="11.47"/><path d="M127.67,15.47H2a2,2,0,0,1-2-2V2A2,2,0,0,1,2,0H127.67a2,2,0,0,1,2,2V13.47A2,2,0,0,1,127.67,15.47ZM4,11.47H125.67V4H4Z"/><path d="M46.11,76.62a2,2,0,0,1-1.41-3.41L87.31,30.59a2,2,0,0,1,2.83,2.83L47.53,76A2,2,0,0,1,46.11,76.62Z"/><circle class="cls-1" cx="45.91" cy="74.42" r="12.55"/><path d="M45.91,89A14.56,14.56,0,1,1,56.2,84.7,14.46,14.46,0,0,1,45.91,89Zm0-25.1A10.55,10.55,0,1,0,53.37,67,10.55,10.55,0,0,0,45.91,63.87Z"/><polygon class="cls-1" points="96.31 24.43 71.32 31.12 80.47 40.27 89.61 49.41 96.31 24.43"/><path d="M89.61,51.41a2,2,0,0,1-1.41-.59L69.91,32.54a2,2,0,0,1,.9-3.35l25-6.69a2,2,0,0,1,2.45,2.44l-6.7,25a2,2,0,0,1-1.41,1.41A1.81,1.81,0,0,1,89.61,51.41ZM75.19,32.16,88.58,45.55l4.9-18.3Z"/><path d="M58.46,48a2,2,0,0,1-1.41-.59l-15-15a2,2,0,0,1,2.83-2.83l15,15a2,2,0,0,1,0,2.83A2,2,0,0,1,58.46,48Z"/><path d="M43.45,48A2,2,0,0,1,42,44.55l15-15a2,2,0,1,1,2.83,2.83l-15,15A2,2,0,0,1,43.45,48Z"/><path d="M92.34,80.24a2,2,0,0,1-1.41-.59l-15-15a2,2,0,0,1,2.83-2.83l15,15a2,2,0,0,1-1.42,3.41Z"/><path d="M77.33,80.24a2,2,0,0,1-1.41-3.41l15-15a2,2,0,0,1,2.83,2.83l-15,15A2,2,0,0,1,77.33,80.24Z"/><path d="M64.83,137.92a2,2,0,0,1-2-2V98.16a2,2,0,0,1,4,0v37.76A2,2,0,0,1,64.83,137.92Z"/><path d="M79.14,137.92H50.53a2,2,0,0,1,0-4H79.14a2,2,0,1,1,0,4Z"/></g></g></svg>