<?xml version="1.0" encoding="utf-8"?>
<!-- Generator: Adobe Illustrator 22.0.1, SVG Export Plug-In . SVG Version: 6.00 Build 0)  -->
<svg version="1.1" id="Layer_1" xmlns="http://www.w3.org/2000/svg" xmlns:xlink="http://www.w3.org/1999/xlink" x="0px" y="0px"
	 viewBox="0 0 139 113" style="enable-background:new 0 0 139 113;" xml:space="preserve">
<style type="text/css">
	.st0{fill:#C9C9C9;}
</style>
<path class="st0" d="M32.3,58.9C17.1,58.7,4.8,46.6,4.8,31.4S17.1,3.9,32.3,3.9c8,0,15.2,3.4,20.2,8.8l0,0
	c0.3,0.3,13.3,10.6,8.8,41.7c-4.5,31.5-23.8,42.2-45.5,54.8c0,0-3-2.5,0-4.8s26-11.5,30-28.2S38.3,59,38.3,59S33,58.9,32.3,58.9z"/>
<path class="st0" d="M104.3,58.9c-15.2-0.2-27.5-12.3-27.5-27.5S89.1,3.9,104.3,3.9c8,0,15.2,3.4,20.2,8.8l0,0
	c0.3,0.3,13.2,10.6,8.8,41.7c-4.5,31.5-23.8,42.2-45.5,54.8c0,0-3-2.5,0-4.8s26-11.5,30-28.2S110.3,59,110.3,59S105,58.9,104.3,58.9
	z"/>
</svg>
