<svg xmlns="http://www.w3.org/2000/svg" viewBox="0 0 133.18 147.69"><defs><style>.cls-1{fill:#208ccb;}.cls-2{fill:#fff;}.cls-3{fill:none;}</style></defs><title>Asset 48</title><g id="Layer_2" data-name="Layer 2"><g id="Layer_2-2" data-name="Layer 2"><path class="cls-1" d="M105.34,69.17A39,39,0,1,0,38.1,96.07a46.25,46.25,0,0,1,13,31.87v1.73h30.5V128a46.73,46.73,0,0,1,13.1-32A38.84,38.84,0,0,0,105.34,69.17Z"/><path d="M81.59,131.67H51.09a2,2,0,0,1-2-2v-1.73A44.12,44.12,0,0,0,36.65,97.45,41,41,0,0,1,94.3,39.19a41,41,0,0,1,1.85,58.13A44.64,44.64,0,0,0,83.59,128v1.72A2,2,0,0,1,81.59,131.67Zm-28.5-4h26.5a48.63,48.63,0,0,1,13.65-33.1,37,37,0,1,0-53.69.12A48.14,48.14,0,0,1,53.09,127.67Z"/><path class="cls-1" d="M105.34,69.17A39,39,0,1,0,38.1,96.07a46.25,46.25,0,0,1,13,31.87v1.73h30.5V128a46.73,46.73,0,0,1,13.1-32A38.84,38.84,0,0,0,105.34,69.17Z"/><path d="M81.59,131.67H51.09a2,2,0,0,1-2-2v-1.73A44.12,44.12,0,0,0,36.65,97.45,41,41,0,0,1,94.3,39.19a41,41,0,0,1,1.85,58.13A44.64,44.64,0,0,0,83.59,128v1.72A2,2,0,0,1,81.59,131.67Zm-28.5-4h26.5a48.63,48.63,0,0,1,13.65-33.1,37,37,0,1,0-53.69.12A48.14,48.14,0,0,1,53.09,127.67Z"/><path class="cls-2" d="M94,71.92a2,2,0,0,1-.76-.15,1.89,1.89,0,0,1-.65-.43,2,2,0,0,1-.44-.65,2,2,0,0,1-.15-.76,1.81,1.81,0,0,1,0-.4,1.73,1.73,0,0,1,.11-.37,1.86,1.86,0,0,1,.19-.34,1.48,1.48,0,0,1,.25-.31,1.81,1.81,0,0,1,.3-.25,1.92,1.92,0,0,1,.35-.18,2.29,2.29,0,0,1,.37-.12,2,2,0,0,1,.78,0,2.4,2.4,0,0,1,.38.12,2.21,2.21,0,0,1,.34.18,2.48,2.48,0,0,1,.3.25,1.48,1.48,0,0,1,.25.31,1.41,1.41,0,0,1,.19.34,1.73,1.73,0,0,1,.11.37,1.81,1.81,0,0,1,0,.4,2,2,0,0,1-.15.76,2,2,0,0,1-.44.65,1.85,1.85,0,0,1-.64.43A2,2,0,0,1,94,71.92Z"/><path d="M66.34,122.65a2,2,0,0,1-2-2l-.06-28.48a2,2,0,0,1,2-2h0a2,2,0,0,1,2,2l.06,28.49a2,2,0,0,1-2,2Z"/><path class="cls-2" d="M92.65,65.11a2,2,0,0,1-2-1.55,25,25,0,0,0-15.33-17.7,2,2,0,1,1,1.45-3.73A29,29,0,0,1,94.6,62.67a2,2,0,0,1-1.5,2.39A1.73,1.73,0,0,1,92.65,65.11Z"/><path class="cls-2" d="M66.28,145.69h0a15.2,15.2,0,0,1-15.19-15.2v-9.84h30.5l-.11,10A15.2,15.2,0,0,1,66.28,145.69Z"/><path d="M66.28,147.69a17.22,17.22,0,0,1-17.19-17.2v-9.84a2,2,0,0,1,2-2h30.5a2,2,0,0,1,2,2l-.11,10A17.26,17.26,0,0,1,66.28,147.69Zm-13.19-25v7.84a13.2,13.2,0,0,0,26.39.15l.09-8Z"/><line class="cls-3" x1="81.59" y1="129.67" x2="51.09" y2="129.67"/><path d="M81.48,132.66h0l-30.39-.17a2,2,0,0,1,0-4h0l30.39.17a2,2,0,0,1,0,4Z"/><path class="cls-2" d="M66.42,21.14a2,2,0,0,1-2-2V2a2,2,0,0,1,4,0V19.14A2,2,0,0,1,66.42,21.14Z"/><path class="cls-2" d="M97.54,31.51a2,2,0,0,1-1.61-3.18L106,14.47a2,2,0,1,1,3.24,2.35L99.16,30.69A2,2,0,0,1,97.54,31.51Z"/><path class="cls-2" d="M116.63,58.19a2,2,0,0,1-.62-3.9l14.56-4.73a2,2,0,0,1,1.23,3.81L117.25,58.1A2.16,2.16,0,0,1,116.63,58.19Z"/><path class="cls-2" d="M35.64,31.51A2,2,0,0,1,34,30.69L23.94,16.82a2,2,0,1,1,3.24-2.35L37.26,28.33a2,2,0,0,1-.45,2.8A2,2,0,0,1,35.64,31.51Z"/><path class="cls-2" d="M16.55,58.19a2.27,2.27,0,0,1-.62-.09L1.38,53.37a2,2,0,0,1,1.24-3.81l14.55,4.73a2,2,0,0,1-.62,3.9Z"/><circle class="cls-2" cx="66.28" cy="89.8" r="9.88"/><path d="M66.28,101.69A11.89,11.89,0,1,1,78.17,89.8,11.9,11.9,0,0,1,66.28,101.69Zm0-19.77a7.89,7.89,0,1,0,7.89,7.88A7.89,7.89,0,0,0,66.28,81.92Z"/></g></g></svg>