<?xml version="1.0" encoding="utf-8"?>
<!-- Generator: Adobe Illustrator 22.0.1, SVG Export Plug-In . SVG Version: 6.00 Build 0)  -->
<svg version="1.1" id="Layer_1" xmlns="http://www.w3.org/2000/svg" xmlns:xlink="http://www.w3.org/1999/xlink" x="0px" y="0px"
	 viewBox="0 0 219.5 212.3" style="enable-background:new 0 0 219.5 212.3;" xml:space="preserve">
<style type="text/css">
	.st0{fill:#208CCB;stroke:#000000;stroke-width:4;stroke-linecap:round;stroke-linejoin:round;}
	.st1{fill:#FFFFFF;stroke:#000000;stroke-width:4;stroke-linecap:round;stroke-linejoin:round;}
	.st2{fill:none;stroke:#FFFFFF;stroke-width:4;stroke-linecap:round;stroke-linejoin:round;}
</style>
<title>Asset 5</title>
<path class="st0" d="M55,59.2h112.4c5.5,0,10,4.5,10,10v93l0,0H45l0,0v-93C45,63.7,49.5,59.2,55,59.2z"/>
<path class="st1" d="M39.1,155.4h144.1c3.7,0,6.6,3,6.6,6.6v0.2c0,3.7-3,6.6-6.6,6.6H39.1c-3.7,0-6.7-3-6.7-6.6v-0.2
	C32.5,158.4,35.4,155.4,39.1,155.4z"/>
<path class="st0" d="M163,41.5l-37.9,4L85,95.3l0,0c-1.2,11.6,7.2,22,18.8,23.3c1.4,0.1,2.8,0.2,4.2,0l0,0L158.3,79L163,41.5z"/>
<polygon class="st1" points="127.9,103.1 134.1,109.4 122.3,147.3 108,118.6 "/>
<polygon class="st1" points="100.7,75.6 94.5,69.3 56.5,80.5 85,95.2 "/>
<circle class="st1" cx="125" cy="79.5" r="10.5"/>
<line class="st2" x1="150.4" y1="65.2" x2="152.4" y2="51.8"/>
<line class="st2" x1="149.4" y1="73.9" x2="149.4" y2="73.9"/>
<line class="st2" x1="78.1" y1="109.1" x2="71.4" y2="115.8"/>
<line class="st2" x1="94.1" y1="125.2" x2="87.5" y2="131.9"/>
<line class="st2" x1="83.5" y1="119.8" x2="71.3" y2="131.9"/>
</svg>
