<?xml version="1.0" encoding="utf-8"?>
<!-- Generator: Adobe Illustrator 22.0.1, SVG Export Plug-In . SVG Version: 6.00 Build 0)  -->
<svg version="1.1" id="Layer_1" xmlns="http://www.w3.org/2000/svg" xmlns:xlink="http://www.w3.org/1999/xlink" x="0px" y="0px"
	 viewBox="0 0 219.5 212.3" style="enable-background:new 0 0 219.5 212.3;" xml:space="preserve">
<style type="text/css">
	.st0{fill:#FFFFFF;stroke:#000000;stroke-width:4;stroke-linecap:round;stroke-linejoin:round;}
	.st1{fill:#208CCB;stroke:#000000;stroke-width:4;stroke-linecap:round;stroke-linejoin:round;}
	.st2{fill:#ECCD1A;}
	.st3{fill:none;stroke:#FFFFFF;stroke-width:4;stroke-linecap:round;stroke-linejoin:round;}
</style>
<title>Asset 12</title>
<g>
	<path class="st0" d="M91.9,71.4h69.7c5.5,0,10,4.5,10,10v85c0,5.5-4.5,10-10,10H91.9c-5.5,0-10-4.5-10-10v-85
		C81.9,75.9,86.4,71.4,91.9,71.4z"/>
	<path class="st0" d="M74.9,57.2h69.7c5.5,0,10,4.5,10,10v85c0,5.5-4.5,10-10,10H74.9c-5.5,0-10-4.5-10-10v-85
		C64.9,61.6,69.4,57.2,74.9,57.2z"/>
	<path class="st1" d="M57.2,40.5h69.7c5.5,0,10,4.5,10,10v85c0,5.5-4.5,10-10,10H57.2c-5.5,0-10-4.5-10-10v-85
		C47.2,45,51.7,40.5,57.2,40.5z"/>
	<path class="st2" d="M84,115c-0.1,0-0.2,0-0.4-0.1c-0.3-0.1-0.7-0.3-0.9-0.5L66.2,97.8c-0.8-0.8-0.8-2,0-2.8l0,0l7.6-7.6
		c0.8-0.8,2-0.8,2.8,0l7.6,7.5l23.5-23.4c0.4-0.4,0.9-0.6,1.4-0.6s1,0.2,1.4,0.6l7.6,7.6c0.8,0.8,0.8,2,0,2.8l0,0l-32.4,32.4
		c-0.4,0.4-0.9,0.6-1.4,0.6L84,115z"/>
	<path d="M109,73l7.6,7.6L84.1,113l0,0L67.6,96.4l7.6-7.6l9,9L109,73 M109,69c-1.1,0-2.1,0.4-2.8,1.2l-22,22L78,86
		c-1.6-1.6-4.1-1.6-5.7,0l0,0l-7.6,7.6c-1.6,1.6-1.6,4.1,0,5.7l16.5,16.6c0.7,0.8,1.8,1.2,2.8,1.2c0.4,0,0.9-0.1,1.3-0.2
		c0.6-0.2,1.1-0.5,1.6-1l32.4-32.4c1.6-1.6,1.6-4.1,0-5.7l0,0l-7.6-7.6C111.1,69.4,110.1,69,109,69z"/>
	<line class="st3" x1="64.9" y1="50.2" x2="84.9" y2="50.2"/>
	<line class="st3" x1="94.3" y1="50.2" x2="94.3" y2="50.2"/>
</g>
</svg>
