<?xml version="1.0" encoding="utf-8"?>
<!-- Generator: Adobe Illustrator 22.0.1, SVG Export Plug-In . SVG Version: 6.00 Build 0)  -->
<svg version="1.1" id="Layer_1" xmlns="http://www.w3.org/2000/svg" xmlns:xlink="http://www.w3.org/1999/xlink" x="0px" y="0px"
	 viewBox="0 0 219.5 212.3" style="enable-background:new 0 0 219.5 212.3;" xml:space="preserve">
<style type="text/css">
	.st0{fill:#208CCB;stroke:#000000;stroke-width:4;stroke-linecap:round;stroke-linejoin:round;}
	.st1{fill:none;stroke:#FFFFFF;stroke-width:4;stroke-linecap:round;stroke-linejoin:round;}
	.st2{fill:#FFFFFF;stroke:#000000;stroke-width:4;stroke-linecap:round;stroke-linejoin:round;}
</style>
<title>Asset 3</title>
<path class="st0" d="M90.4,146.4H60c-6.9,0-12.6-5-12.6-11.2V78.6c0-6.2,5.6-11.2,12.6-11.2h105.6c6.9,0,12.6,5,12.6,11.2v56.6
	c0,6.2-5.6,11.2-12.6,11.2h-27.1"/>
<line class="st1" x1="167.1" y1="80.8" x2="167.1" y2="103.5"/>
<line class="st1" x1="167.1" y1="111.8" x2="167.1" y2="111.8"/>
<path class="st1" d="M129,119.7c1-2.5,1.6-5.2,1.6-7.9c0-11.4-9.3-20.7-20.8-20.7c-11.4,0-20.7,9.3-20.7,20.8
	c0,4.3,1.3,8.4,3.8,11.9"/>
<path class="st1" d="M141.1,124.4c7-17.3-1.4-37-18.7-44c-17.3-7-37,1.4-44,18.7c-5,12.4-2.2,26.6,7.1,36.2"/>
<path class="st2" d="M139.9,161.3l-4.2,10.2h-26.4l-4.2-7.3c-2.9-5-6.9-9.3-11.7-12.6l-0.8-0.5c-2.9-1.9-3.7-5.8-1.9-8.8l0,0
	c1.8-2.9,5.7-3.9,8.7-2.2l3.3,1.9v-30.7c0-4.1,3.3-7.5,7.4-7.5c0,0,0,0,0,0l0,0c4.1,0,7.4,3.3,7.4,7.4c0,0,0,0,0,0v15.2l17.4,4.9
	c4.4,1.2,7.4,5.2,7.4,9.8v7.9C142.3,153.3,141.5,157.5,139.9,161.3z"/>
<path class="st0" d="M127.3,188.4h-9.5c-4.7,0-8.4-3.8-8.4-8.4v-8.4h26.4v8.5C135.7,184.6,131.9,188.4,127.3,188.4z"/>
</svg>
